<?xml version="1.0" encoding="UTF-8"?>
<!DOCTYPE svg PUBLIC "-//W3C//DTD SVG 1.1//EN" "http://www.w3.org/Graphics/SVG/1.1/DTD/svg11.dtd">
<!-- Creator: CorelDRAW 2017 -->
<svg xmlns="http://www.w3.org/2000/svg" xml:space="preserve" width="500px" height="500px" version="1.1" style="shape-rendering:geometricPrecision; text-rendering:geometricPrecision; image-rendering:optimizeQuality; fill-rule:evenodd; clip-rule:evenodd"
viewBox="0 0 500 500"
 xmlns:xlink="http://www.w3.org/1999/xlink">
 <defs>
  <style type="text/css">
   <![CDATA[
    .str0 {stroke:black;stroke-width:16;stroke-miterlimit:22.9256}
    .fil1 {fill:none;fill-rule:nonzero}
    .fil0 {fill:black;fill-rule:nonzero}
   ]]>
  </style>
 </defs>
 <g id="Слой_x0020_1">
  <metadata id="CorelCorpID_0Corel-Layer"/>
  <polygon class="fil0" points="119.9,399.6 133.6,399.6 164,441.1 196.5,399.6 210.7,399.6 210.7,469.6 194.6,469.6 194.6,423.2 167.2,461.6 160.6,461.6 134.1,422.3 134.1,469.6 119.9,469.6 "/>
  <path id="1" class="fil0" d="M220.5 399.6l65.3 0c6.93,0.07 10.4,3.37 10.4,9.9l0 24.2c-0.4,6.14 -3.87,9.27 -10.4,9.4l-48.3 0 0 26.5 -17 0 0 -70zm17 13.2l0 17.1 38.8 0c2.53,0 3.8,-1.1 3.8,-3.3l0 -10.4c0,-2.26 -1.27,-3.4 -3.8,-3.4l-38.8 0z"/>
  <path class="fil0" d="M76.25 87.08c-5.45,0 -9.45,-1.26 -12,-3.79 -2.56,-2.53 -3.84,-6.5 -3.84,-11.89l0 -26.4c0,-5.78 1.32,-9.97 3.96,-12.58 2.64,-2.62 6.88,-3.92 12.71,-3.92l30 0 0 11.67 -26.66 0c-3.34,0 -5.01,1.65 -5.01,4.97l0 26.54c0,1.28 0.38,2.29 1.13,3.03 0.75,0.75 1.76,1.12 3.04,1.12 1.06,0 2.28,0 3.67,0 1.39,0 2.83,0 4.33,0 1.5,0 3.02,0 4.54,0 1.53,0 3.02,-0.23 4.46,-0.71 3.39,0 6.89,0 10.5,0l0 10.89c-3.72,0.71 -7.41,1.07 -11.08,1.07 -3.17,0 -6.51,0 -10.04,0 -3.53,0 -6.77,0 -9.71,0z"/>
  <path id="1" class="fil0" d="M148.75 57.25l16.25 29.58 -15.83 0 -12.92 -23.75 -7.5 0 0 23.75 -15 0 0 -58.33 15 0 0 22.92 7.5 0 8.33 -15.84c1.23,-2.33 2.74,-4.23 4.54,-5.71 1.81,-1.47 4.19,-2.2 7.13,-2.2 0.94,0 1.86,0.04 2.75,0.12 0.89,0.08 1.69,0.18 2.42,0.29 0.83,0.17 1.61,0.31 2.33,0.42l0 11.25 -3.33 0c-0.84,0 -1.59,0.26 -2.25,0.79 -0.67,0.53 -1.17,1.1 -1.5,1.71l-7.92 15z"/>
  <path id="2" class="fil0" d="M180.42 86.83l-16.25 0 22.08 -58.33 16.67 0 22.08 58.33 -16.25 0 -3.75 -10.41 -20.83 0 -3.75 10.41zm7.5 -21.25l13.33 0 -6.67 -19.58 -6.66 19.58z"/>
  <path id="3" class="fil0" d="M238.33 52.39c0,1.25 0.38,2.26 1.13,3 0.75,0.73 1.76,1.11 3.04,1.11 1.67,0 3.44,0 5.33,0 1.89,0 3.64,0 5.25,0 1.89,0 3.78,-0.18 5.67,-0.53l0 -27.47 15 0 0 58.33 -15 0 0 -19.21c-2,0.37 -4.11,0.55 -6.33,0.55 -1.89,0 -3.99,0 -6.3,0 -2.3,0 -4.62,0 -6.95,0 -5.45,0 -9.45,-1.27 -12,-3.81 -2.56,-2.53 -3.84,-6.5 -3.84,-11.9l0 -23.96 15 0 0 23.89z"/>
  <path id="4" class="fil0" d="M294.17 86.83l-16.25 0 22.08 -58.33 16.67 0 22.08 58.33 -16.25 0 -3.75 -10.41 -20.83 0 -3.75 10.41zm7.5 -21.25l13.33 0 -6.67 -19.58 -6.66 19.58z"/>
  <polygon id="5" class="fil0" points="365.42,86.83 350.42,86.83 350.42,40.17 332.92,40.17 332.92,28.5 382.92,28.5 382.92,40.17 365.42,40.17 "/>
  <path id="6" class="fil0" d="M403.75 48.5l20 0c5.84,0 10.07,1.32 12.71,3.96 2.64,2.64 3.96,6.87 3.96,12.71l0 5c0,5.83 -1.32,10.06 -3.96,12.7 -2.64,2.64 -6.87,3.96 -12.71,3.96l-35 0 0 -58.33 15 0 0 20zm21.67 16.67c0,-3.34 -1.67,-5 -5,-5l-16.67 0 0 15 16.67 0c3.33,0 5,-1.67 5,-5l0 -5z"/>
  <path class="fil0" d="M320 399.7l50.5 0c6.6,-0.13 9.9,1.7 9.9,5.5l0 17.2c-0.13,6.07 -3.73,9.37 -10.8,9.9 8.27,-0.06 12.5,3.4 12.7,10.4l0 17c-0.07,6.6 -3.53,9.9 -10.4,9.9l-52.9 0c-6.27,0 -9.4,-3.3 -9.4,-9.9l0 -10.4 15.1 -2.8 0 9.9 38.7 0c2.53,0 3.8,-1.73 3.8,-5.2l0 -8.1c0,-2.46 -1.27,-3.7 -3.8,-3.7l-26.4 0 0 -12.3 25 0c1.6,-0.66 2.4,-1.76 2.4,-3.3l0 -8c0,-1.8 -0.8,-2.73 -2.4,-2.8l-36.3 0 0 8 -15.2 -2.4 0 -9c0.4,-5.93 3.57,-9.23 9.5,-9.9z"/>
 </g>
 <g id="Слой_x0020_1_0">
  <metadata id="CorelCorpID_1Corel-Layer"/>
  <polyline class="fil1 str0" points="207.63,103.43 207.63,252.71 120.55,252.71 256.16,376 379.45,252.71 304.81,252.71 304.81,103.43 "/>
 </g>
</svg>
