<?xml version="1.0" encoding="UTF-8"?>
<!DOCTYPE svg PUBLIC "-//W3C//DTD SVG 1.1//EN" "http://www.w3.org/Graphics/SVG/1.1/DTD/svg11.dtd">
<!-- Creator: CorelDRAW 2017 -->
<svg xmlns="http://www.w3.org/2000/svg" xml:space="preserve" width="500px" height="500px" version="1.1" style="shape-rendering:geometricPrecision; text-rendering:geometricPrecision; image-rendering:optimizeQuality; fill-rule:evenodd; clip-rule:evenodd"
viewBox="0 0 500 500"
 xmlns:xlink="http://www.w3.org/1999/xlink">
 <defs>
  <style type="text/css">
   <![CDATA[
    .str0 {stroke:#6E6E6E;stroke-width:16;stroke-miterlimit:22.9256}
    .fil1 {fill:none;fill-rule:nonzero}
    .fil0 {fill:#6E6E6E;fill-rule:nonzero}
   ]]>
  </style>
 </defs>
 <g id="Слой_x0020_1">
  <metadata id="CorelCorpID_0Corel-Layer"/>
  <polygon class="fil0" points="112.5,399.6 126.2,399.6 156.6,441.1 189.1,399.6 203.3,399.6 203.3,469.6 187.2,469.6 187.2,423.2 159.8,461.6 153.2,461.6 126.7,422.3 126.7,469.6 112.5,469.6 "/>
  <path id="1" class="fil0" d="M213.1 399.6l65.3 0c7,0.27 10.47,3.57 10.4,9.9l0 24.6c0.07,6.47 -3.23,9.8 -9.9,10l-13.3 0 30.3 25.5 -23.2 0 -27.4 -25.5 -15.2 0 0 25.5 -17 0 0 -70zm17 13.2l0 18 38.8 0c2.53,0 3.8,-1.1 3.8,-3.3l0 -11.4c-0.07,-2.2 -1.33,-3.3 -3.8,-3.3l-38.8 0z"/>
  <path class="fil0" d="M76.25 87.08c-5.45,0 -9.45,-1.26 -12,-3.79 -2.56,-2.53 -3.84,-6.5 -3.84,-11.89l0 -26.4c0,-5.78 1.32,-9.97 3.96,-12.58 2.64,-2.62 6.88,-3.92 12.71,-3.92l30 0 0 11.67 -26.66 0c-3.34,0 -5.01,1.65 -5.01,4.97l0 26.54c0,1.28 0.38,2.29 1.13,3.03 0.75,0.75 1.76,1.12 3.04,1.12 1.06,0 2.28,0 3.67,0 1.39,0 2.83,0 4.33,0 1.5,0 3.02,0 4.54,0 1.53,0 3.02,-0.23 4.46,-0.71 3.39,0 6.89,0 10.5,0l0 10.89c-3.72,0.71 -7.41,1.07 -11.08,1.07 -3.17,0 -6.51,0 -10.04,0 -3.53,0 -6.77,0 -9.71,0z"/>
  <path id="1" class="fil0" d="M148.75 57.25l16.25 29.58 -15.83 0 -12.92 -23.75 -7.5 0 0 23.75 -15 0 0 -58.33 15 0 0 22.92 7.5 0 8.33 -15.84c1.23,-2.33 2.74,-4.23 4.54,-5.71 1.81,-1.47 4.19,-2.2 7.13,-2.2 0.94,0 1.86,0.04 2.75,0.12 0.89,0.08 1.69,0.18 2.42,0.29 0.83,0.17 1.61,0.31 2.33,0.42l0 11.25 -3.33 0c-0.84,0 -1.59,0.26 -2.25,0.79 -0.67,0.53 -1.17,1.1 -1.5,1.71l-7.92 15z"/>
  <path id="2" class="fil0" d="M180.42 86.83l-16.25 0 22.08 -58.33 16.67 0 22.08 58.33 -16.25 0 -3.75 -10.41 -20.83 0 -3.75 10.41zm7.5 -21.25l13.33 0 -6.67 -19.58 -6.66 19.58z"/>
  <path id="3" class="fil0" d="M238.33 52.39c0,1.25 0.38,2.26 1.13,3 0.75,0.73 1.76,1.11 3.04,1.11 1.67,0 3.44,0 5.33,0 1.89,0 3.64,0 5.25,0 1.89,0 3.78,-0.18 5.67,-0.53l0 -27.47 15 0 0 58.33 -15 0 0 -19.21c-2,0.37 -4.11,0.55 -6.33,0.55 -1.89,0 -3.99,0 -6.3,0 -2.3,0 -4.62,0 -6.95,0 -5.45,0 -9.45,-1.27 -12,-3.81 -2.56,-2.53 -3.84,-6.5 -3.84,-11.9l0 -23.96 15 0 0 23.89z"/>
  <path id="4" class="fil0" d="M294.17 86.83l-16.25 0 22.08 -58.33 16.67 0 22.08 58.33 -16.25 0 -3.75 -10.41 -20.83 0 -3.75 10.41zm7.5 -21.25l13.33 0 -6.67 -19.58 -6.66 19.58z"/>
  <polygon id="5" class="fil0" points="365.42,86.83 350.42,86.83 350.42,40.17 332.92,40.17 332.92,28.5 382.92,28.5 382.92,40.17 365.42,40.17 "/>
  <path id="6" class="fil0" d="M403.75 48.5l20 0c5.84,0 10.07,1.32 12.71,3.96 2.64,2.64 3.96,6.87 3.96,12.71l0 5c0,5.83 -1.32,10.06 -3.96,12.7 -2.64,2.64 -6.87,3.96 -12.71,3.96l-35 0 0 -58.33 15 0 0 20zm21.67 16.67c0,-3.34 -1.67,-5 -5,-5l-16.67 0 0 15 16.67 0c3.33,0 5,-1.67 5,-5l0 -5z"/>
  <path class="fil0" d="M365.65 399.6l15.6 0 0 41.4 16.6 0 0 12.9 -16.6 0 0 15.7 -15.6 0 0 -15.7 -50.7 0 0 -12.4 50.7 -41.9zm-29.8 41.4l29.8 0 0 -26 -29.8 26z"/>
 </g>
 <g id="Слой_x0020_1_0">
  <metadata id="CorelCorpID_1Corel-Layer"/>
  <polyline class="fil1 str0" points="207.63,103.43 207.63,252.71 120.55,252.71 256.16,376 379.45,252.71 304.81,252.71 304.81,103.43 "/>
 </g>
</svg>
