<?xml version="1.0" standalone="no"?>
<!DOCTYPE svg PUBLIC "-//W3C//DTD SVG 1.1//EN" "http://www.w3.org/Graphics/SVG/1.1/DTD/svg11.dtd" >
<svg xmlns="http://www.w3.org/2000/svg" xmlns:xlink="http://www.w3.org/1999/xlink" version="1.1">
<metadata>
Created by FontForge 20160405 at Sun Feb  4 10:49:09 2018
 By www-data
</metadata>
<defs>
<font id="TOOLZTFB" horiz-adv-x="1014" >
  <font-face 
    font-family="TOOLZ TFB"
    font-weight="400"
    font-stretch="normal"
    units-per-em="2048"
    panose-1="2 0 5 0 0 0 0 0 0 0"
    ascent="1638"
    descent="-410"
    x-height="2028"
    cap-height="1688"
    bbox="21 0 6031 2552"
    underline-thickness="150"
    underline-position="-442"
    unicode-range="U+0020-F002"
  />
<missing-glyph horiz-adv-x="1024" 
 />
    <glyph glyph-name=".notdef" horiz-adv-x="1024" 
 />
    <glyph glyph-name=".null" horiz-adv-x="0" 
 />
    <glyph glyph-name="nonmarkingreturn" horiz-adv-x="508" 
 />
    <glyph glyph-name="space" unicode=" " horiz-adv-x="508" 
 />
    <glyph glyph-name="space" unicode="&#xa0;" horiz-adv-x="508" 
 />
    <glyph glyph-name="exclam" unicode="!" horiz-adv-x="672" 
 />
    <glyph glyph-name="quotedbl" unicode="&#x22;" horiz-adv-x="672" 
 />
    <glyph glyph-name="numbersign" unicode="#" horiz-adv-x="1336" 
 />
    <glyph glyph-name="dollar" unicode="$" 
 />
    <glyph glyph-name="percent" unicode="%" horiz-adv-x="1610" 
 />
    <glyph glyph-name="ampersand" unicode="&#x26;" horiz-adv-x="1683" 
 />
    <glyph glyph-name="quotesingle" unicode="'" horiz-adv-x="346" 
 />
    <glyph glyph-name="parenleft" unicode="(" horiz-adv-x="758" 
 />
    <glyph glyph-name="parenright" unicode=")" horiz-adv-x="758" 
 />
    <glyph glyph-name="asterisk" unicode="*" horiz-adv-x="1024" 
 />
    <glyph glyph-name="plus" unicode="+" 
 />
    <glyph glyph-name="comma" unicode="," horiz-adv-x="557" 
 />
    <glyph glyph-name="hyphen" unicode="-" horiz-adv-x="670" 
 />
    <glyph glyph-name="hyphen" unicode="&#xad;" horiz-adv-x="670" 
 />
    <glyph glyph-name="period" unicode="." horiz-adv-x="557" 
 />
    <glyph glyph-name="slash" unicode="/" horiz-adv-x="569" 
 />
    <glyph glyph-name="zero" unicode="0" 
 />
    <glyph glyph-name="one" unicode="1" 
 />
    <glyph glyph-name="two" unicode="2" 
 />
    <glyph glyph-name="three" unicode="3" 
 />
    <glyph glyph-name="four" unicode="4" 
 />
    <glyph glyph-name="five" unicode="5" 
 />
    <glyph glyph-name="six" unicode="6" 
 />
    <glyph glyph-name="seven" unicode="7" 
 />
    <glyph glyph-name="eight" unicode="8" 
 />
    <glyph glyph-name="nine" unicode="9" 
 />
    <glyph glyph-name="colon" unicode=":" horiz-adv-x="557" 
 />
    <glyph glyph-name="semicolon" unicode=";" horiz-adv-x="557" 
 />
    <glyph glyph-name="semicolon" unicode="&#x37e;" horiz-adv-x="557" 
 />
    <glyph glyph-name="less" unicode="&#x3c;" 
 />
    <glyph glyph-name="equal" unicode="=" 
 />
    <glyph glyph-name="greater" unicode="&#x3e;" 
 />
    <glyph glyph-name="question" unicode="?" horiz-adv-x="748" 
 />
    <glyph glyph-name="at" unicode="@" horiz-adv-x="2019" 
 />
    <glyph glyph-name="A" unicode="A" horiz-adv-x="6103" 
d="M5251 2244q584 -25 660 -64q96 -24 96 -60q24 -40 24 -120v-44q-28 -152 -56 -152q-67 -56 -136 -56h-20q-67 0 -204 28l-560 12q-148 0 -672 -60q-204 0 -204 -24q-33 -12 -260 -52q-333 -84 -616 -184q-159 -80 -192 -80q-26 0 -80 64h-4q-760 -336 -776 -340v-8
l568 -268q102 -46 148 -60q12 0 136 52h4q32 0 304 -100q214 -68 472 -104q0 -21 560 -112q412 -56 692 -56q46 0 692 28q153 0 180 -100q12 -34 12 -108q0 -200 -72 -200q-277 -76 -696 -76h-620q-550 48 -1168 164q-263 48 -368 64q-50 0 -200 -108h-4q-55 0 -104 124
q-69 139 -116 200q-15 52 -52 52q-200 116 -1296 200q-222 -68 -532 -68q-388 0 -596 244q-69 64 -124 144l560 68v-12l-12 -20q17 -16 36 -24q37 0 52 48q0 10 12 28v4q-8 28 -60 28q-308 24 -540 24h-20q-6 0 -16 16v24q0 111 468 360q126 42 212 44l636 -108
q298 0 1236 216q68 22 68 36q64 227 180 344l16 16h36q73 -100 152 -100q0 -4 28 -4q1455 240 1472 240h664z" />
    <glyph glyph-name="B" unicode="B" horiz-adv-x="2245" 
d="M326 2244q128 -115 128 -168q4 -28 4 -32q0 -51 -96 -172q-13 -20 -24 -56q4 -404 8 -1416q0 -33 76 -92q28 -9 28 -12q0 -29 8 -104q0 -61 -44 -140h-4q-21 0 -60 132q-31 32 -56 32q-67 0 -96 -80v-8q0 -10 32 -120q-6 0 -16 -8h-8q-66 0 -124 164q-4 7 -4 16
q0 84 112 188q-12 1372 -24 1372q4 27 4 44q0 52 -48 96q-64 73 -64 116v24q0 82 52 156q15 0 40 -112q22 -40 56 -40h8q116 27 116 76q-24 108 -24 132zM786 2192h12q52 0 124 -120q4 -7 4 -16v-44q0 -53 -68 -132q-32 -73 -32 -96l12 -1272q0 -35 104 -160q8 -36 8 -52
q-16 -144 -48 -144h-12q-31 156 -88 156q-96 -25 -96 -68l36 -128q-26 -8 -36 -8q-104 101 -104 168q0 31 84 156q12 40 12 60l-28 1288q-24 72 -96 140q-8 28 -8 48v52q0 71 48 120q47 -152 72 -152l16 -4q112 23 112 88q-28 110 -28 120zM1250 2124h20q31 -1 76 -48
q40 -51 40 -92q0 -35 -84 -156q-12 -44 -12 -56q8 -135 36 -1212l-16 -64q2 -13 52 -64q44 -48 44 -84v-16q0 -36 -40 -116h-4q-17 0 -36 104q-21 28 -44 28q-96 -17 -96 -64l20 -96l-4 -16h-8q-112 84 -112 140v8q0 19 72 108q16 28 24 76q-4 21 -4 24q-31 1260 -40 1260
q-80 102 -80 124q-4 16 -4 28q0 76 40 132h4q16 0 36 -112q23 -20 48 -20q100 27 100 72l-28 100v12zM1690 2072h8q76 -26 120 -100v-20q0 -58 -64 -116l-24 -64l8 -1140q-8 -28 -8 -48q0 -32 40 -72q48 -50 48 -76v-12q0 -23 -48 -120h-8q-17 124 -60 124h-4q-47 0 -76 -44
v-12q0 -19 20 -100h-28q-84 70 -84 116v20q0 31 64 112q15 30 24 140q-20 929 -20 1068q0 23 -80 128q-8 10 -12 64q0 62 40 108h4l32 -100q21 -16 44 -16q88 20 88 76q-20 51 -24 84zM1982 1992h20v-4q-12 -65 -12 -84v-4q0 -23 76 -40q51 0 60 104q48 -28 48 -108
q0 -39 -52 -76q-10 -11 -16 -44q0 -191 -8 -1140q88 -111 88 -144v-12q0 -22 -68 -88v-4h-28v4q20 63 20 88v4q-37 36 -80 36q-32 0 -52 -100l-8 -4q-34 78 -36 124q12 27 68 100q-4 168 -16 1112q-34 69 -72 132q-8 16 -8 44v24q0 32 48 56q0 4 28 24z" />
    <glyph glyph-name="C" unicode="C" horiz-adv-x="2767" 
d="M2575 2240q112 0 156 -100q8 -36 8 -52v-28q0 -95 -164 -200q-212 -176 -824 -648q-261 -201 -588 -464q-86 -90 -148 -248q-52 -107 -116 -348q-20 -25 -20 -32h-8q8 16 8 24l-16 12q0 -12 -20 -16q-41 18 -132 72q-131 -119 -268 -180q-71 -32 -92 -32h-16q-26 0 -56 8
q164 267 164 308v4q0 59 -128 116l-28 4q-17 0 -88 -132l-112 -180h-4q-26 0 -56 196v40q0 298 248 360q120 32 388 68q113 35 192 80q63 27 624 516q494 418 768 644q241 200 264 208h64zM2479 2076q17 -104 88 -104h16q54 0 88 84q4 16 4 28q0 76 -100 92q-96 -13 -96 -96
v-4zM699 680q-20 -37 -20 -48h4l32 32q5 0 28 -52h4q0 15 24 24q0 -6 16 -16l-4 -20v-20h4q4 0 32 32q16 -12 20 -52l8 -4l28 24q0 -6 16 -16q-8 -16 -8 -28q4 -8 4 -12q32 16 32 44q-21 29 -204 112h-16z" />
    <glyph glyph-name="D" unicode="D" horiz-adv-x="2895" 
d="M347 2240h16q104 0 320 -160l32 -12q76 52 148 52h8q179 0 236 -176q8 -18 8 -52v-68q6 0 16 -8q17 16 32 16q37 -16 140 -76v-32q-12 -39 -12 -44q6 -20 28 -20l20 12h4l-8 -16q0 -24 32 -28l20 12h8l-8 -12q3 -32 32 -32q0 6 12 12h4v-4l-4 -8q0 -13 52 -24
q16 -27 16 -32h12l16 12q0 -44 28 -44h4l16 12h4v-16q0 -21 16 -28h12l16 12q24 -56 24 -72v-12q0 -79 -108 -128h-16q-14 12 -36 20l-24 -8v32h-52v28q0 6 -16 12l-28 -16q0 36 -12 36q-4 0 -12 4q-8 -4 -12 -4v-24q0 -132 416 -376q334 -254 828 -564q144 -76 240 -152
q44 -48 44 -104v-8q-14 -116 -36 -116q-70 -36 -124 -36q-81 0 -228 132q-169 141 -552 376q-631 403 -1200 784q-155 99 -448 236v16q0 28 28 48q0 26 24 32v4l-8 12q4 19 80 144q16 63 28 76l48 -28q4 8 4 12h16q8 0 8 -16q32 23 32 44q0 8 -8 8q-8 -4 -12 -4l12 16
q-65 43 -136 68q-46 0 -72 -60q-3 -32 -32 -32q0 -19 -56 -100q0 -24 -24 -24v-4q6 0 12 -12q-23 0 -52 -72q-36 -12 -48 -12q-80 39 -80 88v132q32 179 116 284q79 92 196 92zM2599 216v-4q0 -66 108 -104q44 14 44 44q0 40 -80 80q-15 8 -32 8h-28q-12 -4 -12 -24z" />
    <glyph glyph-name="E" unicode="E" horiz-adv-x="2542" 
d="M201 2552q915 -783 1680 -1424q42 0 72 -28q268 -184 384 -184q108 -5 108 -52l-32 -48q-8 -28 -8 -48q0 -19 52 -72q12 -22 12 -36q-12 -76 -48 -76h-28q0 -9 -52 -20q-62 -35 -272 -228q-160 -109 -196 -196q88 -23 88 -68t-52 -64q-36 -8 -52 -8q-41 7 -172 64h-16
q-42 -2 -104 -44h-24q0 16 -20 16h-4l-8 -4q-24 27 -80 220q-16 37 -36 48q0 23 -80 80q-35 24 -48 24h-8v-4h12q0 -5 -68 -68q-7 68 -16 68h-20q-8 64 -16 64h-20q-8 64 -16 64h-20q-8 64 -16 64l-20 -4v68h-12l-20 -4q-4 72 -16 72h-20q-8 64 -16 64h-20q-8 64 -16 64h-20
q-8 64 -16 64h-20q-8 64 -16 64h-20q-8 64 -16 64l-20 -4q0 72 -20 72h-12q-8 64 -16 64h-20q-8 64 -16 64h-20q-8 64 -16 64h-20q-8 64 -16 64h-20q-8 64 -16 64h-20q-5 64 -20 64h-12q-4 47 -12 68h-16l-8 -4q-7 68 -16 68h-20q-8 64 -16 64h-20q-8 64 -16 64h-20
q-8 64 -16 64l-20 -4q-4 72 -16 72h-20q-8 64 -16 64l-20 -4v4q0 64 -16 64l-20 -4v4q0 64 -16 64l-20 -4v68h-12l-20 -4q-4 72 -16 72h-20q-8 64 -16 64h-20q-8 64 -16 64h-20q-8 64 -16 64h-4l-8 -4v4q9 17 128 148zM1561 408v-4h8l-4 -8v-12q0 -18 84 -32q79 0 296 172
q77 55 212 204q16 24 16 48v8q0 24 -24 24h-12q-81 0 -164 -64q-66 -50 -272 -176q-140 -85 -140 -160z" />
    <glyph glyph-name="F" unicode="F" horiz-adv-x="2917" 
d="M2356 2240q156 -14 156 -72v-12q0 -11 -48 -88l-4 -40q0 -51 100 -244q144 -474 144 -848v-4q0 -54 -28 -200q0 -32 -16 -84q172 -495 172 -508q-12 -4 -12 -24l40 -116h-72q-29 132 -68 132q-118 -64 -132 -64h-16q-60 0 -80 104v12q0 83 120 252l8 28q-9 72 -64 164
q-181 15 -204 40q-32 21 -32 56q12 33 64 140q-32 130 -88 264q-72 27 -72 92q-19 140 -36 140q-11 0 -100 -32h-20l-56 60q-373 -96 -388 -96q-102 0 -288 232q-45 46 -56 52q-12 0 -332 -60q-116 30 -192 108h-12q-52 -12 -56 -12q-36 12 -48 12h-12q-25 -44 -156 -44
q0 -4 -48 -4q-41 -44 -144 -44q0 -4 -24 -4q-10 0 -32 4q-20 -4 -92 -44q-7 -4 -20 -4h-24q-32 0 -32 32v16q37 40 104 40h8l40 -12q21 29 72 36q17 18 168 28q86 44 188 44q124 24 124 84q49 109 120 132q46 20 304 76q68 22 68 52q30 52 80 52q208 64 352 64h4l40 -4
l12 16q-64 22 -64 28l4 20q15 -9 44 -16l292 64q109 -28 124 -28q191 32 216 32zM2572 236q0 -12 -24 -28q25 -54 36 -56h12l16 24q8 0 8 4l8 -4h24v4q-19 0 -40 56h-40z" />
    <glyph glyph-name="G" unicode="G" horiz-adv-x="2441" 
d="M1750 2240h52q0 -31 -132 -112l-72 28q-100 -24 -100 -72q12 -104 112 -216q16 -8 28 -8q96 36 96 112q0 37 136 76q22 4 32 4v-4q-90 -122 -200 -224q-48 -48 -160 -48q-76 -7 -188 -100q-21 -11 -76 -24q-108 -60 -268 -272q-209 -209 -352 -264q-47 -40 -380 -92h-52
q-8 0 -8 8v32q0 53 112 76q164 16 268 60q75 15 248 176q243 268 252 268q184 131 184 168v4q-24 12 -64 24q-367 -84 -508 -84q-219 -52 -352 -192q-37 -23 -168 -188q-53 -48 -100 -48q-44 0 -44 28q0 21 128 156q188 218 248 232q71 46 196 84q349 80 376 80
q117 0 140 32q30 56 80 56q103 17 132 56q129 140 160 140q55 24 244 48zM2002 1888q150 0 260 -60q0 -12 48 -44q84 -94 84 -132v-4q-9 -63 -72 -168q-45 -51 -184 -116q-31 -16 -56 -52q-5 0 -44 -40q-42 -20 -52 -20h-8q-61 56 -92 56q-104 0 -132 -20q-37 0 -132 -68
q-9 0 -80 -60q-394 -254 -644 -436q-84 -48 -140 -48q-105 0 -128 136q0 108 376 292q4 8 252 144q21 18 280 156q98 51 232 200q65 87 136 240q77 44 96 44zM2074 1756v-116q13 -160 24 -160q112 0 112 32l4 24q-8 30 -8 32q52 35 52 52q-63 132 -104 132q-59 4 -80 4z
M2150 1016h48q33 0 56 -220q0 -18 -48 -72q-4 -7 -4 -16q104 -138 104 -212q0 -79 -104 -220v-8q24 -44 24 -56v-8q0 -82 -88 -180q-28 -24 -56 -24h-16q-70 0 -132 168q-12 44 -12 68l20 36q-108 168 -168 168q-3 0 -32 4q-510 0 -688 -44h-52q-100 0 -932 -60
q-24 27 -24 96v64q0 68 56 68h984q259 -20 324 -20h296q108 0 140 56q47 63 76 124q0 7 -32 72q0 56 48 208q64 8 212 8zM706 824v-32q6 -60 56 -60h12q76 12 76 68v8q0 57 -72 68h-16q-56 0 -56 -52zM1962 580v-168q0 -80 88 -80h36q76 0 76 116v84q0 132 -56 132h-76
q-59 0 -68 -84z" />
    <glyph glyph-name="H" unicode="H" horiz-adv-x="1579" 
d="M863 2244q75 -13 128 -44q16 0 76 -36q23 0 76 -40q19 0 88 -48q40 0 84 -84q8 -52 8 -76q0 -66 -68 -180v-12q48 -32 48 -40q0 -15 88 -60q159 -66 164 -88v-12q-26 -72 -56 -72q-221 88 -228 88q-36 -56 -44 -56h-8q-40 16 -48 16q-21 0 -36 -36q-56 0 -56 -28
q-22 -44 -52 -44q-15 8 -32 8q-14 -12 -68 -32q-41 -45 -60 -100q-23 -19 -44 -28q-46 -66 -48 -96q-21 -14 -112 -216q-37 -53 -72 -124q-21 0 -36 -72l-8 4h-8v-8l8 -12v-4l-8 4h-8q4 -12 8 -12q0 -13 -28 -28l-28 16h-4q-36 -104 -36 -156q-17 0 -56 -36h-8
q-20 24 -56 24q0 -30 -140 -280q-55 -139 -144 -232q0 -6 -16 -12v8q0 114 200 452q0 22 40 52v4q-8 4 -12 4v4q16 23 16 32q0 22 -72 40v80q87 127 176 244l-16 28q64 133 220 424l24 56h4l-12 16l4 20l-4 20q39 68 48 92q-44 103 -44 128q0 7 8 24q-4 7 -4 20h-8
q-107 -44 -124 -44q-4 7 -4 16h-8q-58 0 -180 -68l-16 28v4q7 0 112 56q72 16 72 60q76 18 76 40l-36 68q12 20 12 32q-33 33 -196 116q-16 17 -16 32v4q17 72 32 72h4q7 0 104 -48h8q21 20 36 20q21 0 92 -84q4 12 24 12q99 -48 112 -48h8q0 35 36 52q86 176 124 176z" />
    <glyph glyph-name="I" unicode="I" horiz-adv-x="3004" 
d="M100 1688q45 -10 208 -84q173 -129 456 -268q328 -189 472 -252v8h12q54 0 216 -100h4q16 4 16 20l280 -104q0 6 12 12q78 -36 164 -68q145 -42 224 -92q98 -92 220 -92q166 0 180 -32q122 -56 312 -216q56 -57 56 -108v-28q20 0 20 -16q0 -50 -104 -208q-13 -28 -52 -28
q-33 -32 -80 -32h-16q-89 0 -388 140q-81 37 -156 172q-52 55 -200 104q-85 50 -252 172q-76 40 -76 52q0 25 -80 68l-164 116v4q8 13 8 24q-155 83 -184 104l-24 28v4l4 8q-615 342 -860 452q-76 24 -248 148q-10 0 -28 16q30 67 48 76z" />
    <glyph glyph-name="J" unicode="J" horiz-adv-x="2053" 
d="M1630 1612q104 0 268 -224q0 -32 12 -32q34 0 72 -128v-12q-31 -120 -104 -120q-22 5 -124 100h-4v-24q0 -12 -48 -16q-20 -15 -20 -32v-12l-48 4q-37 0 -44 -52l8 -12q-7 -36 -32 -36q-36 12 -48 12h-4q-16 0 -36 -84q-88 0 -88 -28q-4 0 -4 -4v-36q-10 -21 -24 -24
q-40 8 -48 8q-44 0 -44 -84q-12 -16 -24 -16q-40 8 -52 8q-24 -8 -24 -44v-24q0 -17 -84 -20q-11 -88 -32 -88h-8l-60 12q-16 -2 -16 -28l4 -28q-7 -28 -36 -28h-52q-14 0 -20 -76q-19 -12 -52 -12h-28q-11 0 -24 -64q-22 -16 -80 -16q-9 -80 -80 -80q-24 0 -24 -16
q0 -56 -56 -56q-37 0 -48 -48q-18 -40 -88 -40q-4 0 -4 -4q0 -32 -52 -44q-14 -24 -20 -24q-45 12 -52 12q-35 -36 -152 -36q0 -4 -36 -16v8q64 111 64 124q-8 20 -12 20q4 8 4 12q29 -8 32 -8q36 48 36 68l-8 12v24q1 8 8 8h8q15 -12 28 -12q56 43 56 96h12q15 -12 28 -12
q10 0 52 48l-4 20v24q2 0 16 4q20 -12 28 -12q28 11 60 44v4q0 10 -8 36l12 8q7 0 36 -12q29 14 52 44v36q0 10 16 12q20 -12 32 -12q25 11 56 48q0 4 -8 32q4 8 4 12h20q28 -8 32 -8q52 28 52 56v40h4q4 0 48 -16q48 43 48 52v20l-4 20l8 4q4 0 56 -12q44 35 44 56v36
q1 8 8 8h8l40 -12q14 0 48 48l-4 16q0 40 28 40l28 -20h8q39 35 40 52l-4 36q15 12 28 12q27 -16 48 -16q1 8 36 32l-4 20v24q0 28 28 28q28 -16 40 -16q36 9 36 56v24q0 13 40 20q20 -12 32 -12q13 5 44 76q21 0 88 48q-80 116 -80 160q0 37 116 64z" />
    <glyph glyph-name="K" unicode="K" horiz-adv-x="2095" 
d="M665 2244q73 0 108 -96v-32q0 -43 -68 -116l-36 8q-32 0 -32 -72q22 -46 80 -116q75 -86 200 -264q161 -201 340 -412q108 -97 268 -292l156 -208q123 -182 248 -312q120 -116 144 -152v-12q0 -72 -140 -164l-40 -4q-37 0 -200 256q-94 146 -268 340q-70 85 -232 332
q-107 119 -164 204q-207 279 -360 448q-57 61 -172 204q-47 48 -80 48q-48 -10 -48 -80q-5 -9 -160 -112q0 -10 -48 -24h-4q-52 0 -112 132q-17 17 -24 64v8q0 26 100 88q78 72 120 72t96 124q53 72 88 72h28l92 -24q9 4 32 60q43 25 88 32z" />
    <glyph glyph-name="L" unicode="L" horiz-adv-x="1998" 
d="M793 2240h12q26 0 60 -60q147 -180 176 -252q-5 -14 -188 -168q0 -3 -40 -40q26 0 68 -104q96 -147 384 -508l236 -328q117 -181 268 -364q135 -143 176 -220v-12q-61 -61 -244 -184h-12q-72 67 -132 188q-125 201 -508 676q-293 425 -392 544q-92 86 -92 100h-4
q-123 -112 -164 -112q-107 -28 -112 -28q-25 14 -180 224q-52 67 -52 84v8q23 33 404 368q74 70 212 184q74 4 124 4z" />
    <glyph glyph-name="M" unicode="M" horiz-adv-x="5312" 
d="M5204 2256q52 -33 52 -88q-20 -100 -64 -100q-123 -29 -3508 -884q-739 -188 -1172 -296v-12q18 -22 480 -364q4 -8 4 -12q-142 -290 -276 -500h-8q-183 123 -400 304q-200 166 -208 248q-12 20 -12 52v20l20 132q0 23 -36 88q-20 63 -20 80q0 72 116 84q202 0 456 76
q1977 520 2292 596q1316 356 2268 576h16z" />
    <glyph glyph-name="N" unicode="N" horiz-adv-x="3110" 
d="M1045 2244q64 -27 204 -184q11 -13 16 -108l-12 -24q271 -195 380 -388q107 -164 440 -428q324 -254 540 -464q27 -41 384 -400q9 -9 48 -64q-61 -160 -144 -160q-69 -24 -156 -24h-28q-36 0 -56 48q-106 186 -160 272q-109 144 -196 224q-279 231 -556 448
q-264 220 -472 420q0 7 -300 312q-41 -32 -96 -32q-16 -17 -224 -592q-56 0 -252 128q-148 103 -300 304q-40 66 -40 92v12q13 12 344 148q231 109 328 220q267 240 308 240z" />
    <glyph glyph-name="O" unicode="O" horiz-adv-x="2296" 
d="M1210 2252h16q303 -114 608 -380q396 -391 396 -832q0 -408 -316 -688q-237 -188 -532 -188q-369 0 -712 352q-16 -24 -28 -24q8 -32 8 -68q0 -7 -68 -32q-85 -52 -208 -224q-113 -168 -208 -168q-100 0 -100 120q0 112 196 240q158 107 192 192q6 44 16 44q60 -3 60 -8
q7 0 64 60q82 0 120 64l16 12q266 -236 396 -256q75 -24 192 -24h4q299 0 496 228q140 190 140 372v76q-32 238 -104 420q-39 114 -236 340q-289 292 -408 360v12z" />
    <glyph glyph-name="P" unicode="P" horiz-adv-x="2202" 
d="M2053 2252h8q59 -16 64 -16v-4q0 -23 -204 -300l-616 -892q-4 -12 -108 -160q0 -50 -104 -156q-16 0 -16 -8q28 -50 136 -80q360 -113 360 -160q16 -25 16 -64q0 -52 -68 -144q-32 -101 -32 -136v-8q0 -13 24 -108v-4q0 -6 -12 -12h-8q-40 0 -56 132q8 73 8 80l-16 12
h-16q-20 -7 -24 -60l24 -128v-4q-12 0 -12 -4q-35 0 -60 108v28q0 28 4 88l-20 4q-32 -7 -32 -52v-8q0 -30 28 -120q-6 -16 -12 -16h-16q-25 0 -52 120q0 30 12 84q-6 16 -12 16h-20q-15 0 -20 -48q0 -50 28 -128q-6 -16 -12 -16h-16q-32 23 -52 120v36q8 58 8 60
q-20 4 -20 8q-32 0 -32 -60v-16l28 -100v-12q0 -8 -8 -8h-8q-41 0 -64 136q0 14 8 76l-8 4h-12q-28 0 -28 -32v-28q0 -23 28 -120l-12 -8h-16q-26 0 -56 136l12 64q-6 16 -12 16h-20q-13 0 -20 -48v-4q0 -29 32 -116v-16q0 -8 -8 -8h-16q-23 0 -56 112q-4 6 -4 24q8 56 8 76
q-13 8 -24 8q-24 -7 -24 -48q0 -10 36 -136l-12 -8h-16q-25 9 -60 124q12 68 12 84l-12 8h-16q-24 -12 -24 -52q0 -15 40 -120v-8q0 -6 -12 -12h-12q-21 0 -60 108q-4 6 -4 24q8 68 8 76q-15 12 -24 12q-21 0 -24 -52q0 -30 36 -116v-8q-8 -16 -20 -16q-23 0 -64 116v4
q0 19 4 92h-28q-16 -5 -16 -36v-8q0 -39 40 -120v-4l-4 -16h-12q-44 0 -76 132v4q4 23 4 72q-7 4 -16 4q-24 -3 -24 -32v-36l40 -104v-4q0 -8 -8 -8h-12q-36 0 -68 116v36l4 48l-12 8h-12q-16 0 -20 -52q0 -9 44 -120q0 -6 -20 -16q-38 0 -76 148q12 50 12 60l-8 4h-20
q-16 -5 -16 -36v-4q0 -32 40 -128q-4 -8 -4 -12h-24q-25 0 -60 116v36l4 48l-12 8h-12q-15 0 -20 -64l44 -104v-8q0 -6 -16 -12q-33 0 -76 124v16q0 27 8 64l-24 12q-20 -6 -20 -40v-28q0 -23 44 -104q-6 -16 -12 -16h-16q-36 29 -64 108v64q18 61 36 88h24q104 114 160 128
q60 16 104 16l464 -64h4q67 0 116 24q-8 15 -8 36q5 43 104 148q19 0 72 92q80 100 164 224q296 384 708 960q26 24 28 24zM185 660v-8l1296 -368q68 108 68 136q0 62 -116 92l-284 108q-59 17 -112 72q-9 35 -24 40h-4q-84 -28 -140 -32q-25 0 -464 64q-128 0 -220 -104z
" />
    <glyph glyph-name="Q" unicode="Q" horiz-adv-x="2208" 
d="M900 2260h324q8 -1 8 -8v-548q0 -81 -84 -276q-12 -48 -12 -88v-816q-24 -68 -24 -76q-4 -354 -4 -440q-10 -8 -16 -8q-4 0 -24 16l-20 -16h-8q-12 2 -12 28q0 147 -4 444q-24 25 -24 44v792q0 56 -100 368q-4 5 -4 28v536zM1988 2096q157 -38 164 -48v-4
q0 -55 -152 -424q-240 -883 -316 -1148q-21 0 -72 -220q-52 -184 -76 -252h-12l-24 20l-12 -8h-4q-16 8 -16 24q0 21 104 444q60 280 288 1100q60 236 60 272q0 78 64 244h4zM72 2052h12q85 -89 228 -652q104 -355 236 -884v-20q0 -9 -4 -16q96 -348 120 -448
q-8 -18 -16 -20h-8q-23 16 -32 16v-20q0 -8 -12 -8q-16 0 -44 116q-68 225 -184 564q-92 403 -248 948q-64 291 -64 400q9 24 16 24z" />
    <glyph glyph-name="R" unicode="R" horiz-adv-x="2389" 
d="M2098 2244h4q124 -111 224 -236q28 -32 28 -40q-90 -115 -156 -156q-61 -40 -232 -68q-72 0 -192 -132q0 -25 -116 -120q-355 -327 -484 -460q-84 -60 -228 -188q-72 -55 -72 -84v-4q0 -22 88 -104q36 -50 36 -64v-12q-211 -263 -472 -572v-4h-24q-25 0 -156 132
q-55 39 -312 276v28q382 370 556 520h16q29 0 164 -124q7 -4 16 -4q59 0 164 140q275 284 768 756q18 0 52 48q35 0 84 160q35 129 88 184q87 89 156 128zM1854 1764q37 32 268 68q73 23 136 92q-205 197 -208 220h-4q-90 -70 -104 -124q-14 -20 -64 -212q-4 0 -24 -44z" />
    <glyph glyph-name="S" unicode="S" horiz-adv-x="2292" 
d="M244 2260h12q13 0 380 -88q110 -20 148 -24l144 8q107 0 652 -152q374 -120 612 -232v-16q-44 -46 -44 -56q0 -7 32 -64q16 -17 16 -64q-36 -207 -56 -652q0 -203 -80 -424q-83 -99 -128 -184q-49 -162 -132 -212q-108 -100 -256 -100h-52q-8 0 -8 8v8l120 120h28
q100 29 184 144q20 30 20 52v8q-1 8 -76 44q-16 36 -16 120q0 129 68 160q29 37 52 168q8 38 8 60v48q0 69 -40 84q-16 27 -16 48v12l20 192q0 39 -184 52q-123 -24 -144 -24q-98 20 -308 44q-133 32 -240 80v-4l-92 -144q-38 -40 -160 -40q-68 -25 -68 -60v-184
q0 -24 -104 -740v-4l20 -112v-8q0 -62 -176 -76q-204 32 -204 116q0 15 60 88q0 22 20 192q20 114 40 316q33 243 84 372q16 70 16 88q0 51 -136 92v8q0 16 48 16h20q75 71 92 144v276q0 11 -120 40q-121 18 -160 56q-44 46 -44 156q17 194 112 232q0 9 36 12z" />
    <glyph glyph-name="T" unicode="T" horiz-adv-x="1685" 
d="M538 2252h16q84 -333 168 -592h68q116 580 116 592h16l12 -572q-24 -105 -24 -132v-36q0 -191 208 -316q12 -13 172 -120q147 -140 172 -212q51 -65 104 -260q40 -208 40 -320q0 -157 -48 -220h-40q-51 29 -76 108q-11 48 -20 252q-44 226 -116 328q-108 144 -356 352
q-37 27 -48 104q-20 51 -20 92v28h-156q-8 0 -52 -148q-22 -50 -104 -152q-320 -391 -320 -616q0 -197 16 -304q-22 -108 -88 -108h-4q-73 0 -92 244q-4 73 -4 92q12 240 40 332q90 283 256 404q185 146 200 204q44 76 44 200q0 16 -52 240z" />
    <glyph glyph-name="U" unicode="U" horiz-adv-x="5412" 
d="M5076 2244q108 -15 108 -64q0 -192 -1004 -396q-76 0 -508 -172q-439 -156 -936 -284q-108 -47 -260 -96q-488 -330 -652 -420q-72 -16 -120 -32q388 -276 836 -276q253 -12 1040 -72q4 0 32 4q114 0 1020 12q540 -20 540 -44q58 -9 140 -76q8 -15 8 -32q0 -81 -120 -96
q-4 -4 -32 -4q-109 0 -784 20q-301 -12 -456 -12h-624q-266 0 -1220 92q-511 12 -584 12q-94 0 -376 192l-28 8q-142 -141 -152 -180q-87 -121 -188 -192q-166 -118 -252 -136l-80 28v20q22 97 92 148q88 54 88 108l-16 20q0 4 8 32v68q34 55 108 200q52 19 52 56q6 0 12 32
q-47 59 -128 96l-24 12q-36 0 -104 -132q-9 -9 -144 -72q-36 -24 -64 -164q-9 -50 -76 -128l-36 -36h-52q-40 55 -40 80q-7 0 -8 68q0 152 80 392q195 424 644 424h4q98 0 312 -156q119 -68 196 -68q270 0 1132 412q0 15 168 80q209 112 1108 376q203 80 680 160
q286 60 468 140q145 48 192 48zM1288 604v-16h16l40 -4v-12l4 -20h20q22 -18 96 -56q34 0 44 -48h60q48 52 48 80q0 23 -44 72q-1 5 -48 16q-8 28 -28 28h-4l-20 -4q0 32 -40 32l-24 24h-12q-35 0 -108 -92z" />
    <glyph glyph-name="V" unicode="V" horiz-adv-x="5974" 
d="M2875 2276h108q72 0 72 -124l16 -316v-232q7 -16 28 -16q0 49 68 260q35 86 128 156q0 9 76 24l16 -8q41 8 56 8q0 -6 12 -12h28q114 0 248 -176q3 0 168 -200q105 108 132 108h48q161 -50 212 -80q165 -59 208 -116q252 -113 252 -132q12 -37 20 -84q88 -24 88 -40v-4
q0 -14 -48 -76v-16q0 -12 48 -20v20q17 84 76 84q20 0 64 -28l24 4q278 -72 564 -168q44 -24 44 -64q0 -16 -12 -68q252 -122 252 -176q36 -53 36 -132v-204q0 -232 -196 -284q-72 -16 -744 -40q0 -32 -56 -32q-287 0 -332 -32q-36 -31 -936 -36q-115 0 -220 20
q-145 -44 -196 -44h-44q-48 0 -108 56q-34 0 -100 64q-55 21 -120 108q-18 0 -48 180h-20q-13 0 -68 -24h-16q-12 0 -12 24h-8q0 -32 -16 -32h-16q-64 9 -64 32h-8q-28 0 -44 8q-28 -8 -68 -36h-8q-15 0 -16 32h-12v-20q0 -12 -16 -12q-80 6 -80 32v4q-6 0 -64 4
q-44 -24 -56 -24h-12q-12 0 -12 24h-8q0 -28 -12 -28h-20q-64 8 -64 32h-16q-20 0 -20 8q-41 0 -80 -32h-16q-9 0 -16 28l-8 4q0 -32 -12 -32h-4q-80 5 -80 28v8h-12q-11 0 -24 8q-20 0 -88 -28h-4q-16 8 -16 24h-4q0 -17 -16 -24q-84 0 -84 36h-4q-22 0 -56 4
q-36 -13 -52 -28h-20q-16 6 -16 32h-8v-20q0 -6 -12 -12q-72 0 -88 36l-52 8q-58 -24 -64 -24q-20 0 -20 20h-4q0 -20 -12 -20h-20q-72 14 -72 36q-31 0 -56 8q-59 -28 -68 -28h-8q-6 0 -12 12v20h-12q0 -32 -16 -32q-76 6 -76 40q-13 0 -56 8q-53 -20 -68 -20h-8
q-12 0 -12 24h-4q0 -28 -20 -28q-80 8 -80 40h-8q-13 0 -56 8q-49 -24 -60 -24h-12q-6 0 -12 12v20h-8q0 -28 -16 -28h-4q-80 5 -80 40q-54 16 -156 20l-8 12v8l4 20l-8 -4h-20q-44 37 -44 60v16l16 20q-24 14 -24 36l4 28q-20 44 -32 96v12q0 12 36 12l-12 16v20
q34 56 40 56h20l12 -8q0 35 56 44q21 21 80 64h16q12 0 12 -24h8v20q2 8 20 16q80 -9 80 -20v-12h12q17 0 44 -4q61 32 68 32h12q12 0 12 -24l20 20q84 0 84 -24q16 0 52 -8q4 0 64 36h16q12 0 12 -28h8q0 32 24 32q76 -12 76 -32q0 -9 52 -12q58 28 64 28h12q5 0 20 -24
q0 20 16 20q84 0 84 -20v-8l8 4q42 -8 44 -8q63 32 72 32h8q12 0 12 -28h8q5 32 16 32q84 -13 84 -28v-12q50 -4 56 -4q48 24 60 24h12q5 0 20 -24q0 24 16 24q84 -5 84 -32q50 -4 60 -4q52 28 64 28h8q12 0 12 -28h8q0 28 12 28h4q80 -8 80 -24v-12h8q12 0 48 -12
q57 32 80 32q12 -12 12 -28h8q0 20 16 20q49 0 88 -28q30 -8 56 -8q24 12 48 28h20q9 0 16 -28h4q3 28 16 28h4q80 -9 80 -40q47 -8 60 -8q46 24 68 24q11 0 16 -28h4q0 24 12 24h4q80 -8 80 -24q0 -14 56 -20q72 26 72 48q4 0 4 4q-8 13 -8 20q3 38 20 56q-16 0 -16 12v40
q20 19 32 92q7 12 28 12q-127 125 -156 216q-48 110 -48 156l24 324q-9 0 -12 20q19 244 28 244q90 84 168 84zM2835 1960v-92q62 12 68 12l-8 76q-20 0 -60 4zM3319 1508h4q148 28 356 52q-168 238 -256 260h-4q-25 -9 -72 -160q-28 -129 -28 -152zM2823 1748v-72l80 20v68
q-62 -16 -80 -16zM5195 824q-28 -174 -80 -204q0 -4 -4 -4h-12q-24 0 -72 76q-91 84 -144 84q-36 -58 -36 -84v-192q90 -90 192 -116q0 -13 632 -64q72 0 72 180q4 0 4 8q0 159 -236 204l-316 116v-4z" />
    <glyph glyph-name="W" unicode="W" horiz-adv-x="2997" 
d="M892 2252q35 0 412 -28q19 -19 36 -68q-4 -8 -4 -12h-112q-6 0 -16 -16q19 -16 128 -40l4 -8q0 -19 -12 -68h-4q-85 0 -268 8q-200 -12 -200 -32q37 -84 260 -288q267 -228 612 -460q180 -112 528 -408q464 -408 588 -452q97 -57 108 -80l4 -24q0 -120 -220 -264
q-31 -12 -44 -12h-12q-12 0 -368 360q-447 347 -624 504q-909 908 -1200 908q-101 0 -192 -156q-48 -52 -104 -52q-77 0 -144 152q-8 19 -8 36q0 67 224 116q59 41 92 152q61 87 152 120q203 112 384 112z" />
    <glyph glyph-name="X" unicode="X" horiz-adv-x="2406" 
d="M1149 2244q71 0 92 -60q34 -48 40 -48q44 37 44 64v4l-4 28h4q71 0 88 -96q11 -18 36 -24q44 15 44 88h20q45 0 68 -112q16 -24 20 -24q21 13 56 76l8 4h4q52 -32 52 -132v-12q0 -7 24 -16q27 0 48 56l20 20q48 -40 48 -64q0 -48 -36 -116q-48 -54 -84 -72v-44
q5 -16 36 -16q18 0 48 100q34 38 120 92q0 12 8 12q36 -36 36 -56l-20 -88q0 -24 24 -36h24q22 10 56 52q32 -37 32 -52v-4q0 -18 -40 -88v-16q16 -32 24 -32h12q25 0 76 52h4q12 -52 12 -72q-20 -44 -52 -88v-4q18 -36 40 -36h4q17 0 68 40h4v-12q0 -83 -64 -144
q0 -38 44 -48q32 15 56 32h8v-4q0 -71 -56 -112q-20 -23 -20 -40q0 -25 32 -28h24l40 4q0 -65 -88 -116l-20 -28q0 -29 76 -40q10 0 32 12v-4q0 -54 -112 -104q0 -4 -16 -12q25 -40 84 -64v-12q0 -52 -100 -52q-40 -13 -40 -44q0 -42 88 -52q-42 -52 -64 -52l-28 4
q-68 0 -68 -44q0 -36 72 -56v-12q-19 -36 -60 -36h-40q-80 0 -152 108q-2 0 -20 20q-36 -14 -36 -40v-4q22 -27 192 -168q0 -4 8 -4v-8q-35 -44 -60 -44h-8l-76 20h-4q-22 0 -40 -28v-4l60 -72v-4q-65 -20 -72 -20h-4q-73 32 -92 32q-12 0 -32 -32q23 -41 52 -72v-4
q-28 0 -64 -12q-10 0 -92 44h-20q-6 0 -16 -16v-16q0 -24 32 -72l-8 -4h-56q-14 0 -96 64h-8q-24 -26 -24 -28v-20q0 -20 20 -56h-68q-6 1 -72 84q-44 -24 -44 -64l12 -40h-4q-63 0 -104 68q-10 31 -24 36h-8q-32 0 -32 -44v-52h-20q-44 0 -108 128q-52 -31 -52 -84v-12h-4
q-68 34 -68 112q-15 28 -40 28q-35 0 -52 -76h-4q-56 18 -56 56l-4 40l4 8q-8 56 -24 56h-4q-29 -16 -64 -72q-44 36 -44 68q0 66 128 184v24q0 11 -40 24q-39 -25 -80 -104q-16 -23 -88 -64q-9 -24 -16 -24q-32 36 -32 64v4q20 55 20 68v4q0 22 -32 40l-60 -52
q-36 26 -36 68q0 14 32 60v44q-26 8 -36 8h-4q-18 0 -64 -40h-4q0 2 -8 60v8q0 9 40 76v32q0 10 -40 16l-64 -32v76q64 62 64 80q-15 36 -44 36q-8 0 -60 -24l-4 8v48q76 74 76 100q0 24 -36 28q-34 -4 -60 -12l-4 8v24q0 31 88 92q0 6 8 16v8q-37 24 -60 24h-32v4
q15 76 56 76q72 33 72 52q0 37 -56 44h-32l-8 -4v16q0 44 100 64q31 16 48 40q-42 40 -84 40v8q0 56 76 56q60 0 80 36q-47 53 -80 60v4q0 5 44 44h16q93 0 192 -124q21 -4 24 -4q32 11 32 40q-16 39 -112 104q-80 59 -80 72q20 44 56 44q91 -20 108 -20q8 30 8 40
q0 7 -52 60q25 24 56 24h16q9 0 64 -28l16 -4q15 0 36 28v20q0 31 -40 52v8q36 12 48 12q95 -44 104 -44h12q28 13 28 36v4q0 11 -32 68h4q48 10 48 12q12 0 88 -64h20q32 0 32 36v8q-20 52 -20 56q1 8 8 8q56 0 136 -88q24 0 28 64v44zM1121 1132q16 -80 80 -80
q80 16 80 80q-16 80 -80 80q-80 -16 -80 -80z" />
    <glyph glyph-name="Y" unicode="Y" horiz-adv-x="2200" 
d="M126 2028h16q99 0 304 -116q16 -12 16 -16q-16 -8 -16 -20q4 -8 4 -12h24l12 8h4q188 -172 188 -232q214 -201 312 -244q62 -46 80 -64l16 12q256 -158 560 -440q344 -340 384 -340q108 -68 108 -140q-27 -16 -56 -16q-81 24 -176 84q-75 53 -356 340q-250 241 -448 336
q-87 48 -120 88q-145 72 -196 72h-4q37 -130 104 -200q31 -25 92 -160q93 -145 268 -340l376 -368q116 -155 116 -228q-4 -32 -16 -32h-36q-32 0 -116 116q-90 122 -300 312q-236 235 -348 400q-138 182 -152 196l4 20q-71 111 -120 176q-177 198 -260 248q-84 36 -172 132
q-160 216 -160 372q0 3 8 28q144 -137 144 -148q0 -48 104 -140q36 -12 60 -12h44v8q-2 8 -20 16l4 8q-11 44 -72 88q-15 0 -28 20q-11 12 -56 20q-26 5 -144 124q0 2 -24 28q21 16 44 16z" />
    <glyph glyph-name="Z" unicode="Z" horiz-adv-x="3503" 
d="M255 2240h16q178 -32 424 -112q61 -28 148 -108q0 -39 124 -100l24 -4h4l20 20h8q35 0 120 -60q26 30 112 96l8 28v36q16 132 72 132h12q52 0 52 -96q26 -128 64 -128q114 -84 268 -84q567 -42 684 -104q530 -191 836 -392q156 -111 156 -180v-20q0 -70 -148 -100l-20 -4
q-60 0 -256 84q-499 258 -708 316q-136 44 -528 96q-456 32 -588 76q-82 28 -152 60q-16 -18 -16 -20q51 -66 244 -140q120 -73 120 -128q583 -594 648 -620q134 -105 256 -156q200 -116 416 -228q248 -167 248 -260v-32q0 -68 -96 -100q-17 -8 -64 -8h-8q-90 0 -356 144
q-457 241 -612 356q-184 160 -436 444q-212 212 -320 212q-154 -64 -172 -64q-52 3 -52 16v12q0 64 104 176q24 33 24 76v8q0 64 -52 64q-32 12 -80 52q0 24 -84 76q0 10 -48 24h-8l-16 -20q-124 0 -476 300q-57 34 -76 68v12q0 31 32 72h4q103 -64 448 -160q10 -9 64 -24
q15 8 20 24q0 67 -184 168q-9 0 -16 4q-34 -20 -44 -20h-8q-19 0 -200 132q-18 12 -24 12q11 76 68 76z" />
    <glyph glyph-name="bracketleft" unicode="[" horiz-adv-x="5404" 
 />
    <glyph glyph-name="backslash" unicode="\" horiz-adv-x="569" 
 />
    <glyph glyph-name="bracketright" unicode="]" horiz-adv-x="758" 
 />
    <glyph glyph-name="asciicircum" unicode="^" 
 />
    <glyph glyph-name="underscore" unicode="_" horiz-adv-x="1024" 
 />
    <glyph glyph-name="grave" unicode="`" horiz-adv-x="1024" 
 />
    <glyph glyph-name="a" unicode="a" horiz-adv-x="6103" 
d="M5251 2244q584 -25 660 -64q96 -24 96 -60q24 -40 24 -120v-44q-28 -152 -56 -152q-67 -56 -136 -56h-20q-67 0 -204 28l-560 12q-148 0 -672 -60q-204 0 -204 -24q-33 -12 -260 -52q-333 -84 -616 -184q-159 -80 -192 -80q-26 0 -80 64h-4q-760 -336 -776 -340v-8
l568 -268q102 -46 148 -60q12 0 136 52h4q32 0 304 -100q214 -68 472 -104q0 -21 560 -112q412 -56 692 -56q46 0 692 28q153 0 180 -100q12 -34 12 -108q0 -200 -72 -200q-277 -76 -696 -76h-620q-550 48 -1168 164q-263 48 -368 64q-50 0 -200 -108h-4q-55 0 -104 124
q-69 139 -116 200q-15 52 -52 52q-200 116 -1296 200q-222 -68 -532 -68q-388 0 -596 244q-69 64 -124 144l560 68v-12l-12 -20q17 -16 36 -24q37 0 52 48q0 10 12 28v4q-8 28 -60 28q-308 24 -540 24h-20q-6 0 -16 16v24q0 111 468 360q126 42 212 44l636 -108
q298 0 1236 216q68 22 68 36q64 227 180 344l16 16h36q73 -100 152 -100q0 -4 28 -4q1455 240 1472 240h664z" />
    <glyph glyph-name="b" unicode="b" horiz-adv-x="2245" 
d="M326 2244q128 -115 128 -168q4 -28 4 -32q0 -51 -96 -172q-13 -20 -24 -56q4 -404 8 -1416q0 -33 76 -92q28 -9 28 -12q0 -29 8 -104q0 -61 -44 -140h-4q-21 0 -60 132q-31 32 -56 32q-67 0 -96 -80v-8q0 -10 32 -120q-6 0 -16 -8h-8q-66 0 -124 164q-4 7 -4 16
q0 84 112 188q-12 1372 -24 1372q4 27 4 44q0 52 -48 96q-64 73 -64 116v24q0 82 52 156q15 0 40 -112q22 -40 56 -40h8q116 27 116 76q-24 108 -24 132zM786 2192h12q52 0 124 -120q4 -7 4 -16v-44q0 -53 -68 -132q-32 -73 -32 -96l12 -1272q0 -35 104 -160q8 -36 8 -52
q-16 -144 -48 -144h-12q-31 156 -88 156q-96 -25 -96 -68l36 -128q-26 -8 -36 -8q-104 101 -104 168q0 31 84 156q12 40 12 60l-28 1288q-24 72 -96 140q-8 28 -8 48v52q0 71 48 120q47 -152 72 -152l16 -4q112 23 112 88q-28 110 -28 120zM1250 2124h20q31 -1 76 -48
q40 -51 40 -92q0 -35 -84 -156q-12 -44 -12 -56q8 -135 36 -1212l-16 -64q2 -13 52 -64q44 -48 44 -84v-16q0 -36 -40 -116h-4q-17 0 -36 104q-21 28 -44 28q-96 -17 -96 -64l20 -96l-4 -16h-8q-112 84 -112 140v8q0 19 72 108q16 28 24 76q-4 21 -4 24q-31 1260 -40 1260
q-80 102 -80 124q-4 16 -4 28q0 76 40 132h4q16 0 36 -112q23 -20 48 -20q100 27 100 72l-28 100v12zM1690 2072h8q76 -26 120 -100v-20q0 -58 -64 -116l-24 -64l8 -1140q-8 -28 -8 -48q0 -32 40 -72q48 -50 48 -76v-12q0 -23 -48 -120h-8q-17 124 -60 124h-4q-47 0 -76 -44
v-12q0 -19 20 -100h-28q-84 70 -84 116v20q0 31 64 112q15 30 24 140q-20 929 -20 1068q0 23 -80 128q-8 10 -12 64q0 62 40 108h4l32 -100q21 -16 44 -16q88 20 88 76q-20 51 -24 84zM1982 1992h20v-4q-12 -65 -12 -84v-4q0 -23 76 -40q51 0 60 104q48 -28 48 -108
q0 -39 -52 -76q-10 -11 -16 -44q0 -191 -8 -1140q88 -111 88 -144v-12q0 -22 -68 -88v-4h-28v4q20 63 20 88v4q-37 36 -80 36q-32 0 -52 -100l-8 -4q-34 78 -36 124q12 27 68 100q-4 168 -16 1112q-34 69 -72 132q-8 16 -8 44v24q0 32 48 56q0 4 28 24z" />
    <glyph glyph-name="c" unicode="c" horiz-adv-x="2767" 
d="M2575 2240q112 0 156 -100q8 -36 8 -52v-28q0 -95 -164 -200q-212 -176 -824 -648q-261 -201 -588 -464q-86 -90 -148 -248q-52 -107 -116 -348q-20 -25 -20 -32h-8q8 16 8 24l-16 12q0 -12 -20 -16q-41 18 -132 72q-131 -119 -268 -180q-71 -32 -92 -32h-16q-26 0 -56 8
q164 267 164 308v4q0 59 -128 116l-28 4q-17 0 -88 -132l-112 -180h-4q-26 0 -56 196v40q0 298 248 360q120 32 388 68q113 35 192 80q63 27 624 516q494 418 768 644q241 200 264 208h64zM2479 2076q17 -104 88 -104h16q54 0 88 84q4 16 4 28q0 76 -100 92q-96 -13 -96 -96
v-4zM699 680q-20 -37 -20 -48h4l32 32q5 0 28 -52h4q0 15 24 24q0 -6 16 -16l-4 -20v-20h4q4 0 32 32q16 -12 20 -52l8 -4l28 24q0 -6 16 -16q-8 -16 -8 -28q4 -8 4 -12q32 16 32 44q-21 29 -204 112h-16z" />
    <glyph glyph-name="d" unicode="d" horiz-adv-x="2895" 
d="M347 2240h16q104 0 320 -160l32 -12q76 52 148 52h8q179 0 236 -176q8 -18 8 -52v-68q6 0 16 -8q17 16 32 16q37 -16 140 -76v-32q-12 -39 -12 -44q6 -20 28 -20l20 12h4l-8 -16q0 -24 32 -28l20 12h8l-8 -12q3 -32 32 -32q0 6 12 12h4v-4l-4 -8q0 -13 52 -24
q16 -27 16 -32h12l16 12q0 -44 28 -44h4l16 12h4v-16q0 -21 16 -28h12l16 12q24 -56 24 -72v-12q0 -79 -108 -128h-16q-14 12 -36 20l-24 -8v32h-52v28q0 6 -16 12l-28 -16q0 36 -12 36q-4 0 -12 4q-8 -4 -12 -4v-24q0 -132 416 -376q334 -254 828 -564q144 -76 240 -152
q44 -48 44 -104v-8q-14 -116 -36 -116q-70 -36 -124 -36q-81 0 -228 132q-169 141 -552 376q-631 403 -1200 784q-155 99 -448 236v16q0 28 28 48q0 26 24 32v4l-8 12q4 19 80 144q16 63 28 76l48 -28q4 8 4 12h16q8 0 8 -16q32 23 32 44q0 8 -8 8q-8 -4 -12 -4l12 16
q-65 43 -136 68q-46 0 -72 -60q-3 -32 -32 -32q0 -19 -56 -100q0 -24 -24 -24v-4q6 0 12 -12q-23 0 -52 -72q-36 -12 -48 -12q-80 39 -80 88v132q32 179 116 284q79 92 196 92zM2599 216v-4q0 -66 108 -104q44 14 44 44q0 40 -80 80q-15 8 -32 8h-28q-12 -4 -12 -24z" />
    <glyph glyph-name="e" unicode="e" horiz-adv-x="2542" 
d="M201 2552q915 -783 1680 -1424q42 0 72 -28q268 -184 384 -184q108 -5 108 -52l-32 -48q-8 -28 -8 -48q0 -19 52 -72q12 -22 12 -36q-12 -76 -48 -76h-28q0 -9 -52 -20q-62 -35 -272 -228q-160 -109 -196 -196q88 -23 88 -68t-52 -64q-36 -8 -52 -8q-41 7 -172 64h-16
q-42 -2 -104 -44h-24q0 16 -20 16h-4l-8 -4q-24 27 -80 220q-16 37 -36 48q0 23 -80 80q-35 24 -48 24h-8v-4h12q0 -5 -68 -68q-7 68 -16 68h-20q-8 64 -16 64h-20q-8 64 -16 64h-20q-8 64 -16 64l-20 -4v68h-12l-20 -4q-4 72 -16 72h-20q-8 64 -16 64h-20q-8 64 -16 64h-20
q-8 64 -16 64h-20q-8 64 -16 64h-20q-8 64 -16 64l-20 -4q0 72 -20 72h-12q-8 64 -16 64h-20q-8 64 -16 64h-20q-8 64 -16 64h-20q-8 64 -16 64h-20q-8 64 -16 64h-20q-5 64 -20 64h-12q-4 47 -12 68h-16l-8 -4q-7 68 -16 68h-20q-8 64 -16 64h-20q-8 64 -16 64h-20
q-8 64 -16 64l-20 -4q-4 72 -16 72h-20q-8 64 -16 64l-20 -4v4q0 64 -16 64l-20 -4v4q0 64 -16 64l-20 -4v68h-12l-20 -4q-4 72 -16 72h-20q-8 64 -16 64h-20q-8 64 -16 64h-20q-8 64 -16 64h-4l-8 -4v4q9 17 128 148zM1561 408v-4h8l-4 -8v-12q0 -18 84 -32q79 0 296 172
q77 55 212 204q16 24 16 48v8q0 24 -24 24h-12q-81 0 -164 -64q-66 -50 -272 -176q-140 -85 -140 -160z" />
    <glyph glyph-name="f" unicode="f" horiz-adv-x="2917" 
d="M2356 2240q156 -14 156 -72v-12q0 -11 -48 -88l-4 -40q0 -51 100 -244q144 -474 144 -848v-4q0 -54 -28 -200q0 -32 -16 -84q172 -495 172 -508q-12 -4 -12 -24l40 -116h-72q-29 132 -68 132q-118 -64 -132 -64h-16q-60 0 -80 104v12q0 83 120 252l8 28q-9 72 -64 164
q-181 15 -204 40q-32 21 -32 56q12 33 64 140q-32 130 -88 264q-72 27 -72 92q-19 140 -36 140q-11 0 -100 -32h-20l-56 60q-373 -96 -388 -96q-102 0 -288 232q-45 46 -56 52q-12 0 -332 -60q-116 30 -192 108h-12q-52 -12 -56 -12q-36 12 -48 12h-12q-25 -44 -156 -44
q0 -4 -48 -4q-41 -44 -144 -44q0 -4 -24 -4q-10 0 -32 4q-20 -4 -92 -44q-7 -4 -20 -4h-24q-32 0 -32 32v16q37 40 104 40h8l40 -12q21 29 72 36q17 18 168 28q86 44 188 44q124 24 124 84q49 109 120 132q46 20 304 76q68 22 68 52q30 52 80 52q208 64 352 64h4l40 -4
l12 16q-64 22 -64 28l4 20q15 -9 44 -16l292 64q109 -28 124 -28q191 32 216 32zM2572 236q0 -12 -24 -28q25 -54 36 -56h12l16 24q8 0 8 4l8 -4h24v4q-19 0 -40 56h-40z" />
    <glyph glyph-name="g" unicode="g" horiz-adv-x="2441" 
d="M1750 2240h52q0 -31 -132 -112l-72 28q-100 -24 -100 -72q12 -104 112 -216q16 -8 28 -8q96 36 96 112q0 37 136 76q22 4 32 4v-4q-90 -122 -200 -224q-48 -48 -160 -48q-76 -7 -188 -100q-21 -11 -76 -24q-108 -60 -268 -272q-209 -209 -352 -264q-47 -40 -380 -92h-52
q-8 0 -8 8v32q0 53 112 76q164 16 268 60q75 15 248 176q243 268 252 268q184 131 184 168v4q-24 12 -64 24q-367 -84 -508 -84q-219 -52 -352 -192q-37 -23 -168 -188q-53 -48 -100 -48q-44 0 -44 28q0 21 128 156q188 218 248 232q71 46 196 84q349 80 376 80
q117 0 140 32q30 56 80 56q103 17 132 56q129 140 160 140q55 24 244 48zM2002 1888q150 0 260 -60q0 -12 48 -44q84 -94 84 -132v-4q-9 -63 -72 -168q-45 -51 -184 -116q-31 -16 -56 -52q-5 0 -44 -40q-42 -20 -52 -20h-8q-61 56 -92 56q-104 0 -132 -20q-37 0 -132 -68
q-9 0 -80 -60q-394 -254 -644 -436q-84 -48 -140 -48q-105 0 -128 136q0 108 376 292q4 8 252 144q21 18 280 156q98 51 232 200q65 87 136 240q77 44 96 44zM2074 1756v-116q13 -160 24 -160q112 0 112 32l4 24q-8 30 -8 32q52 35 52 52q-63 132 -104 132q-59 4 -80 4z
M2150 1016h48q33 0 56 -220q0 -18 -48 -72q-4 -7 -4 -16q104 -138 104 -212q0 -79 -104 -220v-8q24 -44 24 -56v-8q0 -82 -88 -180q-28 -24 -56 -24h-16q-70 0 -132 168q-12 44 -12 68l20 36q-108 168 -168 168q-3 0 -32 4q-510 0 -688 -44h-52q-100 0 -932 -60
q-24 27 -24 96v64q0 68 56 68h984q259 -20 324 -20h296q108 0 140 56q47 63 76 124q0 7 -32 72q0 56 48 208q64 8 212 8zM706 824v-32q6 -60 56 -60h12q76 12 76 68v8q0 57 -72 68h-16q-56 0 -56 -52zM1962 580v-168q0 -80 88 -80h36q76 0 76 116v84q0 132 -56 132h-76
q-59 0 -68 -84z" />
    <glyph glyph-name="h" unicode="h" horiz-adv-x="1579" 
d="M863 2244q75 -13 128 -44q16 0 76 -36q23 0 76 -40q19 0 88 -48q40 0 84 -84q8 -52 8 -76q0 -66 -68 -180v-12q48 -32 48 -40q0 -15 88 -60q159 -66 164 -88v-12q-26 -72 -56 -72q-221 88 -228 88q-36 -56 -44 -56h-8q-40 16 -48 16q-21 0 -36 -36q-56 0 -56 -28
q-22 -44 -52 -44q-15 8 -32 8q-14 -12 -68 -32q-41 -45 -60 -100q-23 -19 -44 -28q-46 -66 -48 -96q-21 -14 -112 -216q-37 -53 -72 -124q-21 0 -36 -72l-8 4h-8v-8l8 -12v-4l-8 4h-8q4 -12 8 -12q0 -13 -28 -28l-28 16h-4q-36 -104 -36 -156q-17 0 -56 -36h-8
q-20 24 -56 24q0 -30 -140 -280q-55 -139 -144 -232q0 -6 -16 -12v8q0 114 200 452q0 22 40 52v4q-8 4 -12 4v4q16 23 16 32q0 22 -72 40v80q87 127 176 244l-16 28q64 133 220 424l24 56h4l-12 16l4 20l-4 20q39 68 48 92q-44 103 -44 128q0 7 8 24q-4 7 -4 20h-8
q-107 -44 -124 -44q-4 7 -4 16h-8q-58 0 -180 -68l-16 28v4q7 0 112 56q72 16 72 60q76 18 76 40l-36 68q12 20 12 32q-33 33 -196 116q-16 17 -16 32v4q17 72 32 72h4q7 0 104 -48h8q21 20 36 20q21 0 92 -84q4 12 24 12q99 -48 112 -48h8q0 35 36 52q86 176 124 176z" />
    <glyph glyph-name="i" unicode="i" horiz-adv-x="3004" 
d="M100 1688q45 -10 208 -84q173 -129 456 -268q328 -189 472 -252v8h12q54 0 216 -100h4q16 4 16 20l280 -104q0 6 12 12q78 -36 164 -68q145 -42 224 -92q98 -92 220 -92q166 0 180 -32q122 -56 312 -216q56 -57 56 -108v-28q20 0 20 -16q0 -50 -104 -208q-13 -28 -52 -28
q-33 -32 -80 -32h-16q-89 0 -388 140q-81 37 -156 172q-52 55 -200 104q-85 50 -252 172q-76 40 -76 52q0 25 -80 68l-164 116v4q8 13 8 24q-155 83 -184 104l-24 28v4l4 8q-615 342 -860 452q-76 24 -248 148q-10 0 -28 16q30 67 48 76z" />
    <glyph glyph-name="j" unicode="j" horiz-adv-x="2053" 
d="M1630 1612q104 0 268 -224q0 -32 12 -32q34 0 72 -128v-12q-31 -120 -104 -120q-22 5 -124 100h-4v-24q0 -12 -48 -16q-20 -15 -20 -32v-12l-48 4q-37 0 -44 -52l8 -12q-7 -36 -32 -36q-36 12 -48 12h-4q-16 0 -36 -84q-88 0 -88 -28q-4 0 -4 -4v-36q-10 -21 -24 -24
q-40 8 -48 8q-44 0 -44 -84q-12 -16 -24 -16q-40 8 -52 8q-24 -8 -24 -44v-24q0 -17 -84 -20q-11 -88 -32 -88h-8l-60 12q-16 -2 -16 -28l4 -28q-7 -28 -36 -28h-52q-14 0 -20 -76q-19 -12 -52 -12h-28q-11 0 -24 -64q-22 -16 -80 -16q-9 -80 -80 -80q-24 0 -24 -16
q0 -56 -56 -56q-37 0 -48 -48q-18 -40 -88 -40q-4 0 -4 -4q0 -32 -52 -44q-14 -24 -20 -24q-45 12 -52 12q-35 -36 -152 -36q0 -4 -36 -16v8q64 111 64 124q-8 20 -12 20q4 8 4 12q29 -8 32 -8q36 48 36 68l-8 12v24q1 8 8 8h8q15 -12 28 -12q56 43 56 96h12q15 -12 28 -12
q10 0 52 48l-4 20v24q2 0 16 4q20 -12 28 -12q28 11 60 44v4q0 10 -8 36l12 8q7 0 36 -12q29 14 52 44v36q0 10 16 12q20 -12 32 -12q25 11 56 48q0 4 -8 32q4 8 4 12h20q28 -8 32 -8q52 28 52 56v40h4q4 0 48 -16q48 43 48 52v20l-4 20l8 4q4 0 56 -12q44 35 44 56v36
q1 8 8 8h8l40 -12q14 0 48 48l-4 16q0 40 28 40l28 -20h8q39 35 40 52l-4 36q15 12 28 12q27 -16 48 -16q1 8 36 32l-4 20v24q0 28 28 28q28 -16 40 -16q36 9 36 56v24q0 13 40 20q20 -12 32 -12q13 5 44 76q21 0 88 48q-80 116 -80 160q0 37 116 64z" />
    <glyph glyph-name="k" unicode="k" horiz-adv-x="2095" 
d="M665 2244q73 0 108 -96v-32q0 -43 -68 -116l-36 8q-32 0 -32 -72q22 -46 80 -116q75 -86 200 -264q161 -201 340 -412q108 -97 268 -292l156 -208q123 -182 248 -312q120 -116 144 -152v-12q0 -72 -140 -164l-40 -4q-37 0 -200 256q-94 146 -268 340q-70 85 -232 332
q-107 119 -164 204q-207 279 -360 448q-57 61 -172 204q-47 48 -80 48q-48 -10 -48 -80q-5 -9 -160 -112q0 -10 -48 -24h-4q-52 0 -112 132q-17 17 -24 64v8q0 26 100 88q78 72 120 72t96 124q53 72 88 72h28l92 -24q9 4 32 60q43 25 88 32z" />
    <glyph glyph-name="l" unicode="l" horiz-adv-x="1998" 
d="M793 2240h12q26 0 60 -60q147 -180 176 -252q-5 -14 -188 -168q0 -3 -40 -40q26 0 68 -104q96 -147 384 -508l236 -328q117 -181 268 -364q135 -143 176 -220v-12q-61 -61 -244 -184h-12q-72 67 -132 188q-125 201 -508 676q-293 425 -392 544q-92 86 -92 100h-4
q-123 -112 -164 -112q-107 -28 -112 -28q-25 14 -180 224q-52 67 -52 84v8q23 33 404 368q74 70 212 184q74 4 124 4z" />
    <glyph glyph-name="m" unicode="m" horiz-adv-x="5312" 
d="M5204 2256q52 -33 52 -88q-20 -100 -64 -100q-123 -29 -3508 -884q-739 -188 -1172 -296v-12q18 -22 480 -364q4 -8 4 -12q-142 -290 -276 -500h-8q-183 123 -400 304q-200 166 -208 248q-12 20 -12 52v20l20 132q0 23 -36 88q-20 63 -20 80q0 72 116 84q202 0 456 76
q1977 520 2292 596q1316 356 2268 576h16z" />
    <glyph glyph-name="n" unicode="n" horiz-adv-x="3110" 
d="M1045 2244q64 -27 204 -184q11 -13 16 -108l-12 -24q271 -195 380 -388q107 -164 440 -428q324 -254 540 -464q27 -41 384 -400q9 -9 48 -64q-61 -160 -144 -160q-69 -24 -156 -24h-28q-36 0 -56 48q-106 186 -160 272q-109 144 -196 224q-279 231 -556 448
q-264 220 -472 420q0 7 -300 312q-41 -32 -96 -32q-16 -17 -224 -592q-56 0 -252 128q-148 103 -300 304q-40 66 -40 92v12q13 12 344 148q231 109 328 220q267 240 308 240z" />
    <glyph glyph-name="o" unicode="o" horiz-adv-x="2296" 
d="M1210 2252h16q303 -114 608 -380q396 -391 396 -832q0 -408 -316 -688q-237 -188 -532 -188q-369 0 -712 352q-16 -24 -28 -24q8 -32 8 -68q0 -7 -68 -32q-85 -52 -208 -224q-113 -168 -208 -168q-100 0 -100 120q0 112 196 240q158 107 192 192q6 44 16 44q60 -3 60 -8
q7 0 64 60q82 0 120 64l16 12q266 -236 396 -256q75 -24 192 -24h4q299 0 496 228q140 190 140 372v76q-32 238 -104 420q-39 114 -236 340q-289 292 -408 360v12z" />
    <glyph glyph-name="p" unicode="p" horiz-adv-x="2202" 
d="M2053 2252h8q59 -16 64 -16v-4q0 -23 -204 -300l-616 -892q-4 -12 -108 -160q0 -50 -104 -156q-16 0 -16 -8q28 -50 136 -80q360 -113 360 -160q16 -25 16 -64q0 -52 -68 -144q-32 -101 -32 -136v-8q0 -13 24 -108v-4q0 -6 -12 -12h-8q-40 0 -56 132q8 73 8 80l-16 12
h-16q-20 -7 -24 -60l24 -128v-4q-12 0 -12 -4q-35 0 -60 108v28q0 28 4 88l-20 4q-32 -7 -32 -52v-8q0 -30 28 -120q-6 -16 -12 -16h-16q-25 0 -52 120q0 30 12 84q-6 16 -12 16h-20q-15 0 -20 -48q0 -50 28 -128q-6 -16 -12 -16h-16q-32 23 -52 120v36q8 58 8 60
q-20 4 -20 8q-32 0 -32 -60v-16l28 -100v-12q0 -8 -8 -8h-8q-41 0 -64 136q0 14 8 76l-8 4h-12q-28 0 -28 -32v-28q0 -23 28 -120l-12 -8h-16q-26 0 -56 136l12 64q-6 16 -12 16h-20q-13 0 -20 -48v-4q0 -29 32 -116v-16q0 -8 -8 -8h-16q-23 0 -56 112q-4 6 -4 24q8 56 8 76
q-13 8 -24 8q-24 -7 -24 -48q0 -10 36 -136l-12 -8h-16q-25 9 -60 124q12 68 12 84l-12 8h-16q-24 -12 -24 -52q0 -15 40 -120v-8q0 -6 -12 -12h-12q-21 0 -60 108q-4 6 -4 24q8 68 8 76q-15 12 -24 12q-21 0 -24 -52q0 -30 36 -116v-8q-8 -16 -20 -16q-23 0 -64 116v4
q0 19 4 92h-28q-16 -5 -16 -36v-8q0 -39 40 -120v-4l-4 -16h-12q-44 0 -76 132v4q4 23 4 72q-7 4 -16 4q-24 -3 -24 -32v-36l40 -104v-4q0 -8 -8 -8h-12q-36 0 -68 116v36l4 48l-12 8h-12q-16 0 -20 -52q0 -9 44 -120q0 -6 -20 -16q-38 0 -76 148q12 50 12 60l-8 4h-20
q-16 -5 -16 -36v-4q0 -32 40 -128q-4 -8 -4 -12h-24q-25 0 -60 116v36l4 48l-12 8h-12q-15 0 -20 -64l44 -104v-8q0 -6 -16 -12q-33 0 -76 124v16q0 27 8 64l-24 12q-20 -6 -20 -40v-28q0 -23 44 -104q-6 -16 -12 -16h-16q-36 29 -64 108v64q18 61 36 88h24q104 114 160 128
q60 16 104 16l464 -64h4q67 0 116 24q-8 15 -8 36q5 43 104 148q19 0 72 92q80 100 164 224q296 384 708 960q26 24 28 24zM185 660v-8l1296 -368q68 108 68 136q0 62 -116 92l-284 108q-59 17 -112 72q-9 35 -24 40h-4q-84 -28 -140 -32q-25 0 -464 64q-128 0 -220 -104z
" />
    <glyph glyph-name="q" unicode="q" horiz-adv-x="2208" 
d="M900 2260h324q8 -1 8 -8v-548q0 -81 -84 -276q-12 -48 -12 -88v-816q-24 -68 -24 -76q-4 -354 -4 -440q-10 -8 -16 -8q-4 0 -24 16l-20 -16h-8q-12 2 -12 28q0 147 -4 444q-24 25 -24 44v792q0 56 -100 368q-4 5 -4 28v536zM1988 2096q157 -38 164 -48v-4
q0 -55 -152 -424q-240 -883 -316 -1148q-21 0 -72 -220q-52 -184 -76 -252h-12l-24 20l-12 -8h-4q-16 8 -16 24q0 21 104 444q60 280 288 1100q60 236 60 272q0 78 64 244h4zM72 2052h12q85 -89 228 -652q104 -355 236 -884v-20q0 -9 -4 -16q96 -348 120 -448
q-8 -18 -16 -20h-8q-23 16 -32 16v-20q0 -8 -12 -8q-16 0 -44 116q-68 225 -184 564q-92 403 -248 948q-64 291 -64 400q9 24 16 24z" />
    <glyph glyph-name="r" unicode="r" horiz-adv-x="2389" 
d="M2098 2244h4q124 -111 224 -236q28 -32 28 -40q-90 -115 -156 -156q-61 -40 -232 -68q-72 0 -192 -132q0 -25 -116 -120q-355 -327 -484 -460q-84 -60 -228 -188q-72 -55 -72 -84v-4q0 -22 88 -104q36 -50 36 -64v-12q-211 -263 -472 -572v-4h-24q-25 0 -156 132
q-55 39 -312 276v28q382 370 556 520h16q29 0 164 -124q7 -4 16 -4q59 0 164 140q275 284 768 756q18 0 52 48q35 0 84 160q35 129 88 184q87 89 156 128zM1854 1764q37 32 268 68q73 23 136 92q-205 197 -208 220h-4q-90 -70 -104 -124q-14 -20 -64 -212q-4 0 -24 -44z" />
    <glyph glyph-name="s" unicode="s" horiz-adv-x="2292" 
d="M244 2260h12q13 0 380 -88q110 -20 148 -24l144 8q107 0 652 -152q374 -120 612 -232v-16q-44 -46 -44 -56q0 -7 32 -64q16 -17 16 -64q-36 -207 -56 -652q0 -203 -80 -424q-83 -99 -128 -184q-49 -162 -132 -212q-108 -100 -256 -100h-52q-8 0 -8 8v8l120 120h28
q100 29 184 144q20 30 20 52v8q-1 8 -76 44q-16 36 -16 120q0 129 68 160q29 37 52 168q8 38 8 60v48q0 69 -40 84q-16 27 -16 48v12l20 192q0 39 -184 52q-123 -24 -144 -24q-98 20 -308 44q-133 32 -240 80v-4l-92 -144q-38 -40 -160 -40q-68 -25 -68 -60v-184
q0 -24 -104 -740v-4l20 -112v-8q0 -62 -176 -76q-204 32 -204 116q0 15 60 88q0 22 20 192q20 114 40 316q33 243 84 372q16 70 16 88q0 51 -136 92v8q0 16 48 16h20q75 71 92 144v276q0 11 -120 40q-121 18 -160 56q-44 46 -44 156q17 194 112 232q0 9 36 12z" />
    <glyph glyph-name="t" unicode="t" horiz-adv-x="1685" 
d="M538 2252h16q84 -333 168 -592h68q116 580 116 592h16l12 -572q-24 -105 -24 -132v-36q0 -191 208 -316q12 -13 172 -120q147 -140 172 -212q51 -65 104 -260q40 -208 40 -320q0 -157 -48 -220h-40q-51 29 -76 108q-11 48 -20 252q-44 226 -116 328q-108 144 -356 352
q-37 27 -48 104q-20 51 -20 92v28h-156q-8 0 -52 -148q-22 -50 -104 -152q-320 -391 -320 -616q0 -197 16 -304q-22 -108 -88 -108h-4q-73 0 -92 244q-4 73 -4 92q12 240 40 332q90 283 256 404q185 146 200 204q44 76 44 200q0 16 -52 240z" />
    <glyph glyph-name="u" unicode="u" horiz-adv-x="5412" 
d="M5076 2244q108 -15 108 -64q0 -192 -1004 -396q-76 0 -508 -172q-439 -156 -936 -284q-108 -47 -260 -96q-488 -330 -652 -420q-72 -16 -120 -32q388 -276 836 -276q253 -12 1040 -72q4 0 32 4q114 0 1020 12q540 -20 540 -44q58 -9 140 -76q8 -15 8 -32q0 -81 -120 -96
q-4 -4 -32 -4q-109 0 -784 20q-301 -12 -456 -12h-624q-266 0 -1220 92q-511 12 -584 12q-94 0 -376 192l-28 8q-142 -141 -152 -180q-87 -121 -188 -192q-166 -118 -252 -136l-80 28v20q22 97 92 148q88 54 88 108l-16 20q0 4 8 32v68q34 55 108 200q52 19 52 56q6 0 12 32
q-47 59 -128 96l-24 12q-36 0 -104 -132q-9 -9 -144 -72q-36 -24 -64 -164q-9 -50 -76 -128l-36 -36h-52q-40 55 -40 80q-7 0 -8 68q0 152 80 392q195 424 644 424h4q98 0 312 -156q119 -68 196 -68q270 0 1132 412q0 15 168 80q209 112 1108 376q203 80 680 160
q286 60 468 140q145 48 192 48zM1288 604v-16h16l40 -4v-12l4 -20h20q22 -18 96 -56q34 0 44 -48h60q48 52 48 80q0 23 -44 72q-1 5 -48 16q-8 28 -28 28h-4l-20 -4q0 32 -40 32l-24 24h-12q-35 0 -108 -92z" />
    <glyph glyph-name="v" unicode="v" horiz-adv-x="5974" 
d="M2875 2276h108q72 0 72 -124l16 -316v-232q7 -16 28 -16q0 49 68 260q35 86 128 156q0 9 76 24l16 -8q41 8 56 8q0 -6 12 -12h28q114 0 248 -176q3 0 168 -200q105 108 132 108h48q161 -50 212 -80q165 -59 208 -116q252 -113 252 -132q12 -37 20 -84q88 -24 88 -40v-4
q0 -14 -48 -76v-16q0 -12 48 -20v20q17 84 76 84q20 0 64 -28l24 4q278 -72 564 -168q44 -24 44 -64q0 -16 -12 -68q252 -122 252 -176q36 -53 36 -132v-204q0 -232 -196 -284q-72 -16 -744 -40q0 -32 -56 -32q-287 0 -332 -32q-36 -31 -936 -36q-115 0 -220 20
q-145 -44 -196 -44h-44q-48 0 -108 56q-34 0 -100 64q-55 21 -120 108q-18 0 -48 180h-20q-13 0 -68 -24h-16q-12 0 -12 24h-8q0 -32 -16 -32h-16q-64 9 -64 32h-8q-28 0 -44 8q-28 -8 -68 -36h-8q-15 0 -16 32h-12v-20q0 -12 -16 -12q-80 6 -80 32v4q-6 0 -64 4
q-44 -24 -56 -24h-12q-12 0 -12 24h-8q0 -28 -12 -28h-20q-64 8 -64 32h-16q-20 0 -20 8q-41 0 -80 -32h-16q-9 0 -16 28l-8 4q0 -32 -12 -32h-4q-80 5 -80 28v8h-12q-11 0 -24 8q-20 0 -88 -28h-4q-16 8 -16 24h-4q0 -17 -16 -24q-84 0 -84 36h-4q-22 0 -56 4
q-36 -13 -52 -28h-20q-16 6 -16 32h-8v-20q0 -6 -12 -12q-72 0 -88 36l-52 8q-58 -24 -64 -24q-20 0 -20 20h-4q0 -20 -12 -20h-20q-72 14 -72 36q-31 0 -56 8q-59 -28 -68 -28h-8q-6 0 -12 12v20h-12q0 -32 -16 -32q-76 6 -76 40q-13 0 -56 8q-53 -20 -68 -20h-8
q-12 0 -12 24h-4q0 -28 -20 -28q-80 8 -80 40h-8q-13 0 -56 8q-49 -24 -60 -24h-12q-6 0 -12 12v20h-8q0 -28 -16 -28h-4q-80 5 -80 40q-54 16 -156 20l-8 12v8l4 20l-8 -4h-20q-44 37 -44 60v16l16 20q-24 14 -24 36l4 28q-20 44 -32 96v12q0 12 36 12l-12 16v20
q34 56 40 56h20l12 -8q0 35 56 44q21 21 80 64h16q12 0 12 -24h8v20q2 8 20 16q80 -9 80 -20v-12h12q17 0 44 -4q61 32 68 32h12q12 0 12 -24l20 20q84 0 84 -24q16 0 52 -8q4 0 64 36h16q12 0 12 -28h8q0 32 24 32q76 -12 76 -32q0 -9 52 -12q58 28 64 28h12q5 0 20 -24
q0 20 16 20q84 0 84 -20v-8l8 4q42 -8 44 -8q63 32 72 32h8q12 0 12 -28h8q5 32 16 32q84 -13 84 -28v-12q50 -4 56 -4q48 24 60 24h12q5 0 20 -24q0 24 16 24q84 -5 84 -32q50 -4 60 -4q52 28 64 28h8q12 0 12 -28h8q0 28 12 28h4q80 -8 80 -24v-12h8q12 0 48 -12
q57 32 80 32q12 -12 12 -28h8q0 20 16 20q49 0 88 -28q30 -8 56 -8q24 12 48 28h20q9 0 16 -28h4q3 28 16 28h4q80 -9 80 -40q47 -8 60 -8q46 24 68 24q11 0 16 -28h4q0 24 12 24h4q80 -8 80 -24q0 -14 56 -20q72 26 72 48q4 0 4 4q-8 13 -8 20q3 38 20 56q-16 0 -16 12v40
q20 19 32 92q7 12 28 12q-127 125 -156 216q-48 110 -48 156l24 324q-9 0 -12 20q19 244 28 244q90 84 168 84zM2835 1960v-92q62 12 68 12l-8 76q-20 0 -60 4zM3319 1508h4q148 28 356 52q-168 238 -256 260h-4q-25 -9 -72 -160q-28 -129 -28 -152zM2823 1748v-72l80 20v68
q-62 -16 -80 -16zM5195 824q-28 -174 -80 -204q0 -4 -4 -4h-12q-24 0 -72 76q-91 84 -144 84q-36 -58 -36 -84v-192q90 -90 192 -116q0 -13 632 -64q72 0 72 180q4 0 4 8q0 159 -236 204l-316 116v-4z" />
    <glyph glyph-name="w" unicode="w" horiz-adv-x="2997" 
d="M892 2252q35 0 412 -28q19 -19 36 -68q-4 -8 -4 -12h-112q-6 0 -16 -16q19 -16 128 -40l4 -8q0 -19 -12 -68h-4q-85 0 -268 8q-200 -12 -200 -32q37 -84 260 -288q267 -228 612 -460q180 -112 528 -408q464 -408 588 -452q97 -57 108 -80l4 -24q0 -120 -220 -264
q-31 -12 -44 -12h-12q-12 0 -368 360q-447 347 -624 504q-909 908 -1200 908q-101 0 -192 -156q-48 -52 -104 -52q-77 0 -144 152q-8 19 -8 36q0 67 224 116q59 41 92 152q61 87 152 120q203 112 384 112z" />
    <glyph glyph-name="x" unicode="x" horiz-adv-x="2406" 
d="M1149 2244q71 0 92 -60q34 -48 40 -48q44 37 44 64v4l-4 28h4q71 0 88 -96q11 -18 36 -24q44 15 44 88h20q45 0 68 -112q16 -24 20 -24q21 13 56 76l8 4h4q52 -32 52 -132v-12q0 -7 24 -16q27 0 48 56l20 20q48 -40 48 -64q0 -48 -36 -116q-48 -54 -84 -72v-44
q5 -16 36 -16q18 0 48 100q34 38 120 92q0 12 8 12q36 -36 36 -56l-20 -88q0 -24 24 -36h24q22 10 56 52q32 -37 32 -52v-4q0 -18 -40 -88v-16q16 -32 24 -32h12q25 0 76 52h4q12 -52 12 -72q-20 -44 -52 -88v-4q18 -36 40 -36h4q17 0 68 40h4v-12q0 -83 -64 -144
q0 -38 44 -48q32 15 56 32h8v-4q0 -71 -56 -112q-20 -23 -20 -40q0 -25 32 -28h24l40 4q0 -65 -88 -116l-20 -28q0 -29 76 -40q10 0 32 12v-4q0 -54 -112 -104q0 -4 -16 -12q25 -40 84 -64v-12q0 -52 -100 -52q-40 -13 -40 -44q0 -42 88 -52q-42 -52 -64 -52l-28 4
q-68 0 -68 -44q0 -36 72 -56v-12q-19 -36 -60 -36h-40q-80 0 -152 108q-2 0 -20 20q-36 -14 -36 -40v-4q22 -27 192 -168q0 -4 8 -4v-8q-35 -44 -60 -44h-8l-76 20h-4q-22 0 -40 -28v-4l60 -72v-4q-65 -20 -72 -20h-4q-73 32 -92 32q-12 0 -32 -32q23 -41 52 -72v-4
q-28 0 -64 -12q-10 0 -92 44h-20q-6 0 -16 -16v-16q0 -24 32 -72l-8 -4h-56q-14 0 -96 64h-8q-24 -26 -24 -28v-20q0 -20 20 -56h-68q-6 1 -72 84q-44 -24 -44 -64l12 -40h-4q-63 0 -104 68q-10 31 -24 36h-8q-32 0 -32 -44v-52h-20q-44 0 -108 128q-52 -31 -52 -84v-12h-4
q-68 34 -68 112q-15 28 -40 28q-35 0 -52 -76h-4q-56 18 -56 56l-4 40l4 8q-8 56 -24 56h-4q-29 -16 -64 -72q-44 36 -44 68q0 66 128 184v24q0 11 -40 24q-39 -25 -80 -104q-16 -23 -88 -64q-9 -24 -16 -24q-32 36 -32 64v4q20 55 20 68v4q0 22 -32 40l-60 -52
q-36 26 -36 68q0 14 32 60v44q-26 8 -36 8h-4q-18 0 -64 -40h-4q0 2 -8 60v8q0 9 40 76v32q0 10 -40 16l-64 -32v76q64 62 64 80q-15 36 -44 36q-8 0 -60 -24l-4 8v48q76 74 76 100q0 24 -36 28q-34 -4 -60 -12l-4 8v24q0 31 88 92q0 6 8 16v8q-37 24 -60 24h-32v4
q15 76 56 76q72 33 72 52q0 37 -56 44h-32l-8 -4v16q0 44 100 64q31 16 48 40q-42 40 -84 40v8q0 56 76 56q60 0 80 36q-47 53 -80 60v4q0 5 44 44h16q93 0 192 -124q21 -4 24 -4q32 11 32 40q-16 39 -112 104q-80 59 -80 72q20 44 56 44q91 -20 108 -20q8 30 8 40
q0 7 -52 60q25 24 56 24h16q9 0 64 -28l16 -4q15 0 36 28v20q0 31 -40 52v8q36 12 48 12q95 -44 104 -44h12q28 13 28 36v4q0 11 -32 68h4q48 10 48 12q12 0 88 -64h20q32 0 32 36v8q-20 52 -20 56q1 8 8 8q56 0 136 -88q24 0 28 64v44zM1121 1132q16 -80 80 -80
q80 16 80 80q-16 80 -80 80q-80 -16 -80 -80z" />
    <glyph glyph-name="y" unicode="y" horiz-adv-x="2200" 
d="M126 2028h16q99 0 304 -116q16 -12 16 -16q-16 -8 -16 -20q4 -8 4 -12h24l12 8h4q188 -172 188 -232q214 -201 312 -244q62 -46 80 -64l16 12q256 -158 560 -440q344 -340 384 -340q108 -68 108 -140q-27 -16 -56 -16q-81 24 -176 84q-75 53 -356 340q-250 241 -448 336
q-87 48 -120 88q-145 72 -196 72h-4q37 -130 104 -200q31 -25 92 -160q93 -145 268 -340l376 -368q116 -155 116 -228q-4 -32 -16 -32h-36q-32 0 -116 116q-90 122 -300 312q-236 235 -348 400q-138 182 -152 196l4 20q-71 111 -120 176q-177 198 -260 248q-84 36 -172 132
q-160 216 -160 372q0 3 8 28q144 -137 144 -148q0 -48 104 -140q36 -12 60 -12h44v8q-2 8 -20 16l4 8q-11 44 -72 88q-15 0 -28 20q-11 12 -56 20q-26 5 -144 124q0 2 -24 28q21 16 44 16z" />
    <glyph glyph-name="z" unicode="z" horiz-adv-x="3503" 
d="M255 2240h16q178 -32 424 -112q61 -28 148 -108q0 -39 124 -100l24 -4h4l20 20h8q35 0 120 -60q26 30 112 96l8 28v36q16 132 72 132h12q52 0 52 -96q26 -128 64 -128q114 -84 268 -84q567 -42 684 -104q530 -191 836 -392q156 -111 156 -180v-20q0 -70 -148 -100l-20 -4
q-60 0 -256 84q-499 258 -708 316q-136 44 -528 96q-456 32 -588 76q-82 28 -152 60q-16 -18 -16 -20q51 -66 244 -140q120 -73 120 -128q583 -594 648 -620q134 -105 256 -156q200 -116 416 -228q248 -167 248 -260v-32q0 -68 -96 -100q-17 -8 -64 -8h-8q-90 0 -356 144
q-457 241 -612 356q-184 160 -436 444q-212 212 -320 212q-154 -64 -172 -64q-52 3 -52 16v12q0 64 104 176q24 33 24 76v8q0 64 -52 64q-32 12 -80 52q0 24 -84 76q0 10 -48 24h-8l-16 -20q-124 0 -476 300q-57 34 -76 68v12q0 31 32 72h4q103 -64 448 -160q10 -9 64 -24
q15 8 20 24q0 67 -184 168q-9 0 -16 4q-34 -20 -44 -20h-8q-19 0 -200 132q-18 12 -24 12q11 76 68 76z" />
    <glyph glyph-name="braceleft" unicode="{" 
 />
    <glyph glyph-name="bar" unicode="|" 
 />
    <glyph glyph-name="braceright" unicode="}" 
 />
    <glyph glyph-name="asciitilde" unicode="~" 
 />
    <glyph glyph-name="exclamdown" unicode="&#xa1;" horiz-adv-x="672" 
 />
    <glyph glyph-name="cent" unicode="&#xa2;" horiz-adv-x="1139" 
 />
    <glyph glyph-name="sterling" unicode="&#xa3;" 
 />
    <glyph glyph-name="currency" unicode="&#xa4;" 
 />
    <glyph glyph-name="yen" unicode="&#xa5;" horiz-adv-x="1262" 
 />
    <glyph glyph-name="brokenbar" unicode="&#xa6;" 
 />
    <glyph glyph-name="section" unicode="&#xa7;" 
 />
    <glyph glyph-name="dieresis" unicode="&#xa8;" horiz-adv-x="1024" 
 />
    <glyph glyph-name="copyright" unicode="&#xa9;" horiz-adv-x="1674" 
 />
    <glyph glyph-name="ordfeminine" unicode="&#xaa;" horiz-adv-x="648" 
 />
    <glyph glyph-name="guillemotleft" unicode="&#xab;" horiz-adv-x="944" 
 />
    <glyph glyph-name="logicalnot" unicode="&#xac;" 
 />
    <glyph glyph-name="registered" unicode="&#xae;" horiz-adv-x="1674" 
 />
    <glyph glyph-name="macron" unicode="&#xaf;" horiz-adv-x="670" 
 />
    <glyph glyph-name="degree" unicode="&#xb0;" horiz-adv-x="674" 
 />
    <glyph glyph-name="plusminus" unicode="&#xb1;" 
 />
    <glyph glyph-name="uni00B2" unicode="&#xb2;" 
 />
    <glyph glyph-name="uni00B3" unicode="&#xb3;" 
 />
    <glyph glyph-name="acute" unicode="&#xb4;" horiz-adv-x="1024" 
 />
    <glyph glyph-name="mu" unicode="&#xb5;" horiz-adv-x="1180" 
 />
    <glyph glyph-name="paragraph" unicode="&#xb6;" horiz-adv-x="1024" 
 />
    <glyph glyph-name="periodcentered" unicode="&#xb7;" horiz-adv-x="508" 
 />
    <glyph glyph-name="periodcentered" unicode="&#x2219;" horiz-adv-x="508" 
 />
    <glyph glyph-name="cedilla" unicode="&#xb8;" horiz-adv-x="1024" 
 />
    <glyph glyph-name="uni00B9" unicode="&#xb9;" 
 />
    <glyph glyph-name="ordmasculine" unicode="&#xba;" horiz-adv-x="718" 
 />
    <glyph glyph-name="guillemotright" unicode="&#xbb;" horiz-adv-x="944" 
 />
    <glyph glyph-name="onequarter" unicode="&#xbc;" horiz-adv-x="1708" 
 />
    <glyph glyph-name="onehalf" unicode="&#xbd;" horiz-adv-x="1964" 
 />
    <glyph glyph-name="threequarters" unicode="&#xbe;" horiz-adv-x="1708" 
 />
    <glyph glyph-name="questiondown" unicode="&#xbf;" horiz-adv-x="748" 
 />
    <glyph glyph-name="Agrave" unicode="&#xc0;" horiz-adv-x="1540" 
 />
    <glyph glyph-name="Aacute" unicode="&#xc1;" horiz-adv-x="1540" 
 />
    <glyph glyph-name="Acircumflex" unicode="&#xc2;" horiz-adv-x="1540" 
 />
    <glyph glyph-name="Atilde" unicode="&#xc3;" horiz-adv-x="1540" 
 />
    <glyph glyph-name="Adieresis" unicode="&#xc4;" horiz-adv-x="1540" 
 />
    <glyph glyph-name="Aring" unicode="&#xc5;" horiz-adv-x="1540" 
 />
    <glyph glyph-name="AE" unicode="&#xc6;" horiz-adv-x="2118" 
 />
    <glyph glyph-name="Ccedilla" unicode="&#xc7;" horiz-adv-x="1399" 
 />
    <glyph glyph-name="Egrave" unicode="&#xc8;" horiz-adv-x="1151" 
 />
    <glyph glyph-name="Eacute" unicode="&#xc9;" horiz-adv-x="1151" 
 />
    <glyph glyph-name="Ecircumflex" unicode="&#xca;" horiz-adv-x="1151" 
 />
    <glyph glyph-name="Edieresis" unicode="&#xcb;" horiz-adv-x="1151" 
 />
    <glyph glyph-name="Igrave" unicode="&#xcc;" horiz-adv-x="657" 
 />
    <glyph glyph-name="Iacute" unicode="&#xcd;" horiz-adv-x="657" 
 />
    <glyph glyph-name="Icircumflex" unicode="&#xce;" horiz-adv-x="657" 
 />
    <glyph glyph-name="Idieresis" unicode="&#xcf;" horiz-adv-x="657" 
 />
    <glyph glyph-name="Eth" unicode="&#xd0;" horiz-adv-x="1518" 
 />
    <glyph glyph-name="Ntilde" unicode="&#xd1;" horiz-adv-x="1554" 
 />
    <glyph glyph-name="Ograve" unicode="&#xd2;" horiz-adv-x="1614" 
 />
    <glyph glyph-name="Oacute" unicode="&#xd3;" horiz-adv-x="1614" 
 />
    <glyph glyph-name="Ocircumflex" unicode="&#xd4;" horiz-adv-x="1614" 
 />
    <glyph glyph-name="Otilde" unicode="&#xd5;" horiz-adv-x="1614" 
 />
    <glyph glyph-name="Odieresis" unicode="&#xd6;" horiz-adv-x="1614" 
 />
    <glyph glyph-name="multiply" unicode="&#xd7;" 
 />
    <glyph glyph-name="Oslash" unicode="&#xd8;" horiz-adv-x="1614" 
 />
    <glyph glyph-name="Ugrave" unicode="&#xd9;" horiz-adv-x="1501" 
 />
    <glyph glyph-name="Uacute" unicode="&#xda;" horiz-adv-x="1501" 
 />
    <glyph glyph-name="Ucircumflex" unicode="&#xdb;" horiz-adv-x="1501" 
 />
    <glyph glyph-name="Udieresis" unicode="&#xdc;" horiz-adv-x="1501" 
 />
    <glyph glyph-name="Yacute" unicode="&#xdd;" horiz-adv-x="1233" 
 />
    <glyph glyph-name="Thorn" unicode="&#xde;" horiz-adv-x="1120" 
 />
    <glyph glyph-name="germandbls" unicode="&#xdf;" horiz-adv-x="1251" 
 />
    <glyph glyph-name="agrave" unicode="&#xe0;" horiz-adv-x="922" 
 />
    <glyph glyph-name="aacute" unicode="&#xe1;" horiz-adv-x="922" 
 />
    <glyph glyph-name="acircumflex" unicode="&#xe2;" horiz-adv-x="922" 
 />
    <glyph glyph-name="atilde" unicode="&#xe3;" horiz-adv-x="922" 
 />
    <glyph glyph-name="adieresis" unicode="&#xe4;" horiz-adv-x="922" 
 />
    <glyph glyph-name="aring" unicode="&#xe5;" horiz-adv-x="922" 
 />
    <glyph glyph-name="ae" unicode="&#xe6;" horiz-adv-x="1454" 
 />
    <glyph glyph-name="ccedilla" unicode="&#xe7;" horiz-adv-x="905" 
 />
    <glyph glyph-name="egrave" unicode="&#xe8;" horiz-adv-x="909" 
 />
    <glyph glyph-name="eacute" unicode="&#xe9;" horiz-adv-x="909" 
 />
    <glyph glyph-name="ecircumflex" unicode="&#xea;" horiz-adv-x="909" 
 />
    <glyph glyph-name="edieresis" unicode="&#xeb;" horiz-adv-x="909" 
 />
    <glyph glyph-name="igrave" unicode="&#xec;" horiz-adv-x="514" 
 />
    <glyph glyph-name="iacute" unicode="&#xed;" horiz-adv-x="514" 
 />
    <glyph glyph-name="icircumflex" unicode="&#xee;" horiz-adv-x="514" 
 />
    <glyph glyph-name="idieresis" unicode="&#xef;" horiz-adv-x="514" 
 />
    <glyph glyph-name="eth" unicode="&#xf0;" horiz-adv-x="1139" 
 />
    <glyph glyph-name="ntilde" unicode="&#xf1;" horiz-adv-x="1108" 
 />
    <glyph glyph-name="ograve" unicode="&#xf2;" horiz-adv-x="1010" 
 />
    <glyph glyph-name="oacute" unicode="&#xf3;" horiz-adv-x="1010" 
 />
    <glyph glyph-name="ocircumflex" unicode="&#xf4;" horiz-adv-x="1010" 
 />
    <glyph glyph-name="otilde" unicode="&#xf5;" horiz-adv-x="1010" 
 />
    <glyph glyph-name="odieresis" unicode="&#xf6;" horiz-adv-x="1010" 
 />
    <glyph glyph-name="divide" unicode="&#xf7;" 
 />
    <glyph glyph-name="oslash" unicode="&#xf8;" horiz-adv-x="1010" 
 />
    <glyph glyph-name="ugrave" unicode="&#xf9;" horiz-adv-x="1059" 
 />
    <glyph glyph-name="uacute" unicode="&#xfa;" horiz-adv-x="1059" 
 />
    <glyph glyph-name="ucircumflex" unicode="&#xfb;" horiz-adv-x="1059" 
 />
    <glyph glyph-name="udieresis" unicode="&#xfc;" horiz-adv-x="1059" 
 />
    <glyph glyph-name="yacute" unicode="&#xfd;" horiz-adv-x="868" 
 />
    <glyph glyph-name="thorn" unicode="&#xfe;" horiz-adv-x="1010" 
 />
    <glyph glyph-name="ydieresis" unicode="&#xff;" horiz-adv-x="868" 
 />
    <glyph glyph-name="dotlessi" unicode="&#x131;" horiz-adv-x="514" 
 />
    <glyph glyph-name="circumflex" unicode="&#x2c6;" horiz-adv-x="1024" 
 />
    <glyph glyph-name="caron" unicode="&#x2c7;" horiz-adv-x="1024" 
 />
    <glyph glyph-name="uni02C9" unicode="&#x2c9;" horiz-adv-x="1024" 
 />
    <glyph glyph-name="breve" unicode="&#x2d8;" horiz-adv-x="1024" 
 />
    <glyph glyph-name="dotaccent" unicode="&#x2d9;" horiz-adv-x="1024" 
 />
    <glyph glyph-name="ring" unicode="&#x2da;" horiz-adv-x="1024" 
 />
    <glyph glyph-name="ogonek" unicode="&#x2db;" horiz-adv-x="1024" 
 />
    <glyph glyph-name="tilde" unicode="&#x2dc;" horiz-adv-x="1024" 
 />
    <glyph glyph-name="hungarumlaut" unicode="&#x2dd;" horiz-adv-x="1024" 
 />
    <glyph glyph-name="endash" unicode="&#x2013;" horiz-adv-x="1108" 
 />
    <glyph glyph-name="emdash" unicode="&#x2014;" horiz-adv-x="2048" 
 />
    <glyph glyph-name="quoteleft" unicode="&#x2018;" horiz-adv-x="557" 
 />
    <glyph glyph-name="quoteright" unicode="&#x2019;" horiz-adv-x="557" 
 />
    <glyph glyph-name="quotesinglbase" unicode="&#x201a;" horiz-adv-x="557" 
 />
    <glyph glyph-name="quotedblleft" unicode="&#x201c;" horiz-adv-x="910" 
 />
    <glyph glyph-name="quotedblright" unicode="&#x201d;" horiz-adv-x="910" 
 />
    <glyph glyph-name="quotedblbase" unicode="&#x201e;" horiz-adv-x="910" 
 />
    <glyph glyph-name="dagger" unicode="&#x2020;" 
 />
    <glyph glyph-name="daggerdbl" unicode="&#x2021;" 
 />
    <glyph glyph-name="bullet" unicode="&#x2022;" horiz-adv-x="1024" 
 />
    <glyph glyph-name="ellipsis" unicode="&#x2026;" horiz-adv-x="2048" 
 />
    <glyph glyph-name="guilsinglleft" unicode="&#x2039;" horiz-adv-x="631" 
 />
    <glyph glyph-name="guilsinglright" unicode="&#x203a;" horiz-adv-x="631" 
 />
    <glyph glyph-name="fraction" unicode="&#x2044;" horiz-adv-x="342" 
 />
    <glyph glyph-name="fraction" unicode="&#x2215;" horiz-adv-x="342" 
 />
    <glyph glyph-name="franc" unicode="&#x20a3;" 
 />
    <glyph glyph-name="lira" unicode="&#x20a4;" 
 />
    <glyph glyph-name="peseta" unicode="&#x20a7;" horiz-adv-x="2028" 
 />
    <glyph glyph-name="Euro" unicode="&#x20ac;" 
 />
    <glyph glyph-name="afii61352" unicode="&#x2116;" horiz-adv-x="2271" 
 />
    <glyph glyph-name="trademark" unicode="&#x2122;" horiz-adv-x="1497" 
 />
    <glyph glyph-name="partialdiff" unicode="&#x2202;" 
 />
    <glyph glyph-name="Delta" unicode="&#x2206;" horiz-adv-x="1081" 
 />
    <glyph glyph-name="product" unicode="&#x220f;" horiz-adv-x="1515" 
 />
    <glyph glyph-name="summation" unicode="&#x2211;" horiz-adv-x="1206" 
 />
    <glyph glyph-name="minus" unicode="&#x2212;" 
 />
    <glyph glyph-name="radical" unicode="&#x221a;" 
 />
    <glyph glyph-name="infinity" unicode="&#x221e;" 
 />
    <glyph glyph-name="integral" unicode="&#x222b;" horiz-adv-x="665" 
 />
    <glyph glyph-name="approxequal" unicode="&#x2248;" 
 />
    <glyph glyph-name="lessequal" unicode="&#x2264;" 
 />
    <glyph glyph-name="greaterequal" unicode="&#x2265;" 
 />
    <glyph glyph-name="uniF001" unicode="&#xf001;" horiz-adv-x="1073" 
 />
    <glyph glyph-name="uniF001" unicode="&#xfb01;" horiz-adv-x="1073" 
 />
    <glyph glyph-name="uniF002" unicode="&#xf002;" horiz-adv-x="1081" 
 />
    <glyph glyph-name="uniF002" unicode="&#xfb02;" horiz-adv-x="1081" 
 />
  </font>
</defs>
</svg>
