<?xml version="1.0" standalone="no"?>
<!DOCTYPE svg PUBLIC "-//W3C//DTD SVG 1.1//EN" "http://www.w3.org/Graphics/SVG/1.1/DTD/svg11.dtd" >
<svg xmlns="http://www.w3.org/2000/svg" xmlns:xlink="http://www.w3.org/1999/xlink" version="1.1">
<metadata>
Created by FontForge 20160405 at Fri Feb  2 07:10:31 2018
 By www-data
Copyright \(c\) 2017 by . All rights reserved.
</metadata>
<defs>
<font id="typeecon-Regular" horiz-adv-x="1080" >
  <font-face 
    font-family="typeecon"
    font-weight="400"
    font-stretch="normal"
    units-per-em="1000"
    panose-1="0 0 5 0 0 0 0 0 0 0"
    ascent="800"
    descent="-200"
    x-height="820"
    cap-height="805"
    bbox="41 -177 1039 820.013"
    underline-thickness="50"
    underline-position="-100"
    unicode-range="U+0020-007A"
  />
<missing-glyph horiz-adv-x="120" 
 />
    <glyph glyph-name=".notdef" horiz-adv-x="120" 
 />
    <glyph glyph-name="A" unicode="A" 
d="M56 322c0 268 216 482 484 483c268 2 484 -215 484 -483c0 -267 -216 -484 -484 -484s-484 217 -484 484z" />
    <glyph glyph-name="B" unicode="B" 
d="M786 478h-151v-44h151v44zM402 500h-153v-365h125c44 0 75 0 91 2c28 4 52 13 68 31c18 19 26 42 26 71c0 18 -5 40 -15 59c-11 22 -27 34 -51 34c36 13 54 38 54 76c0 23 -8 44 -24 59c-15 16 -33 29 -56 30c-16 2 -36 3 -65 3zM332 354v82h36c16 0 32 1 43 0h24
c22 -4 33 -17 33 -39c0 -25 -11 -40 -37 -42c-3 0 -10 2 -20 0c-11 -1 -23 -1 -37 -1h-42zM332 197v100h84c17 0 27 1 27 -1c0 -1 2 -1 8 -3c20 -9 34 -24 32 -47c-1 -27 -14 -37 -38 -46c-4 -1 -5 -3 -4 -3c2 0 -3 0 -17 0h-92zM843 221h-66c-3 -15 -11 -25 -26 -32
c-13 -5 -26 -7 -35 -7c-22 0 -35 6 -47 18s-16 27 -16 47h190c3 56 -10 96 -35 123c-22 24 -53 35 -97 35c-41 0 -76 -13 -99 -38c-24 -27 -38 -59 -38 -100c0 -36 8 -70 29 -93c28 -33 63 -50 112 -50c27 0 56 8 86 24c28 15 42 40 42 73zM716 355c17 0 31 -5 41 -17
c10 -11 15 -25 17 -41h-120c0 16 6 28 18 41c11 12 27 17 44 17zM56 322c0 268 216 482 484 483c268 2 484 -215 484 -483c0 -267 -216 -484 -484 -484s-484 217 -484 484z" />
    <glyph glyph-name="C" unicode="C" 
d="M721 376h-165l84 296l-279 -403h163l-85 -297zM56 322c0 268 216 482 484 483c268 2 484 -215 484 -483c0 -267 -216 -484 -484 -484s-484 217 -484 484z" />
    <glyph glyph-name="D" unicode="D" 
d="M771 551c-30 30 -65 52 -105 69c-38 16 -81 26 -124 26c-46 0 -89 -10 -127 -26c-40 -15 -75 -39 -104 -69c-29 -29 -54 -65 -70 -103c-18 -41 -26 -82 -26 -127s8 -88 26 -128c17 -40 39 -73 70 -104c29 -29 64 -51 104 -69c38 -16 81 -26 127 -26c43 0 86 10 124 26
c40 18 75 40 105 69c63 64 95 140 95 232c0 90 -32 166 -95 230zM572 430c-27 48 -60 100 -101 155c23 5 45 9 71 9c66 0 126 -23 175 -65c-36 -42 -84 -74 -145 -99zM608 362c-1 1 -5 10 -11 21c65 28 119 65 157 111c37 -48 58 -103 60 -164c-72 15 -138 18 -197 7
c-1 4 -1 8 -3 12c-5 3 -5 9 -6 13zM693 92c-15 70 -32 136 -55 195c54 7 112 4 174 -10c-10 -60 -35 -112 -78 -150c-15 -15 -29 -27 -41 -35zM585 277c27 -64 46 -134 60 -210c-37 -15 -72 -22 -103 -22c-63 0 -118 19 -168 58c49 77 110 122 175 159c7 5 20 10 36 15z
M560 339c1 -2 4 -5 4 -7s2 -4 2 -7c-15 -6 -28 -10 -37 -14c-76 -33 -141 -90 -194 -173c-45 53 -68 112 -68 183v4v4c46 -3 92 -1 142 5c48 7 94 16 139 31zM420 566c43 -53 77 -105 104 -153c-40 -13 -82 -23 -125 -27c-42 -4 -85 -6 -125 -5c11 50 33 95 73 133
c21 21 45 38 73 52zM56 322c0 268 216 482 484 483c268 2 484 -215 484 -483c0 -267 -216 -484 -484 -484s-484 217 -484 484z" />
    <glyph glyph-name="E" unicode="E" 
d="M765 542h-452c-14 0 -26 -4 -35 -13c-11 -11 -13 -22 -13 -34v-352c0 -14 2 -24 13 -33c9 -10 21 -15 35 -15h225h227c12 0 24 4 33 15c11 10 14 19 14 33v352c0 12 -3 23 -14 34c-9 9 -21 13 -33 13zM573 249c-9 -13 -21 -20 -35 -20s-26 7 -35 20l-197 212
c-6 5 -7 11 -3 15c6 5 12 2 20 -6l177 -166c11 -13 23 -19 38 -19c14 0 28 6 38 19l177 166c8 8 13 9 20 6c5 -4 3 -10 -2 -15zM56 322c0 268 216 482 484 483c268 2 484 -215 484 -483c0 -267 -216 -484 -484 -484s-484 217 -484 484z" />
    <glyph glyph-name="F" unicode="F" 
d="M56 322c0 268 216 482 484 483s484 -215 484 -483c0 -253 -192 -460 -440 -483v337h121l18 148h-139v68c0 22 2 37 6 45c10 13 26 20 50 20h77v144h-133c-28 0 -57 -4 -84 -15c-60 -23 -91 -81 -91 -173v-89h-87v-148h87v-321c-203 57 -353 245 -353 467z" />
    <glyph glyph-name="G" unicode="G" 
d="M827 362h-16v4v9v55c0 3 -3 9 -6 9h-49v-64v-12h-78v-14c0 -13 2 -27 2 -42c13 0 28 -1 41 -1h35v-76h55v76h76v43v13h-60zM608 369h-143h-42c-1 0 -7 -5 -7 -6v-83h117c-1 -7 -2 -12 -4 -15c-17 -54 -73 -81 -132 -69c-74 12 -120 79 -107 153c4 11 6 20 10 28
c23 54 84 87 143 74c23 -5 42 -14 56 -30c20 22 43 43 64 66c-1 2 -3 2 -5 3c-52 45 -111 61 -178 50c-96 -15 -165 -91 -180 -180c-6 -37 -4 -76 12 -116c35 -93 130 -150 230 -140c50 6 94 23 128 61c49 53 63 119 55 191c-1 11 -6 13 -17 13zM56 321
c0 267 216 482 484 482c268 2 484 -215 484 -482c0 -268 -216 -484 -484 -484s-484 216 -484 484z" />
    <glyph glyph-name="H" unicode="H" 
 />
    <glyph glyph-name="I" unicode="I" 
d="M56 323c0 268 216 482 484 482c268 2 484 -214 484 -482s-216 -484 -484 -484s-484 216 -484 484zM240 325c0 -23 1 -45 1 -68s2 -45 3 -67c3 -47 20 -85 50 -115c31 -32 69 -46 115 -49c21 -1 44 -2 66 -2h66c21 0 43 -2 66 0c22 1 45 1 67 2c46 3 84 17 113 49
c32 30 48 68 50 115c2 43 3 88 3 133s-2 90 -3 133c-1 46 -18 85 -50 115c-27 30 -65 46 -113 48c-24 1 -46 2 -69 2h-132c-23 0 -45 -2 -67 -2c-46 -2 -84 -18 -112 -47c-30 -30 -47 -67 -50 -114c-1 -20 -1 -43 -3 -66c-1 -21 -1 -44 -1 -67zM294 324c0 49 1 92 4 132
c2 31 13 54 33 78c19 19 45 28 78 32c19 1 41 -1 62 1c23 1 45 1 68 1s45 -1 67 -1c23 0 44 0 64 -1c34 -3 60 -13 80 -34c21 -20 30 -46 33 -79c2 -39 3 -82 3 -130c0 -46 -2 -90 -3 -132c-1 -33 -11 -57 -33 -78c-20 -20 -46 -30 -80 -33c-20 -2 -41 -3 -63 -3h-66h-66
c-23 0 -45 1 -65 3c-30 2 -57 13 -78 33c-22 21 -32 48 -34 80c-3 37 -4 83 -4 131zM387 321c0 -41 17 -75 46 -107c28 -30 63 -46 107 -46s77 16 107 46c29 29 46 66 46 107c0 43 -17 80 -46 109c-31 31 -65 46 -107 46s-76 -15 -107 -46c-29 -29 -46 -66 -46 -109z
M442 321c0 29 9 52 28 72c20 19 44 29 70 29s50 -10 70 -29c19 -20 28 -43 28 -72c0 -27 -9 -50 -28 -68c-20 -22 -44 -30 -70 -30s-50 8 -70 30c-19 18 -28 41 -28 68zM659 476c0 -23 12 -35 35 -35c25 0 36 12 36 35c0 25 -11 35 -36 35c-23 0 -35 -10 -35 -35z" />
    <glyph glyph-name="J" unicode="J" 
 />
    <glyph glyph-name="K" unicode="K" 
d="M695 243c0 -24 -6 -44 -19 -61c-12 -17 -31 -31 -56 -44c-25 -9 -54 -14 -88 -14c-37 0 -71 6 -97 21c-20 11 -33 24 -45 40s-15 34 -18 51c-1 11 3 18 11 26c8 7 17 10 29 10c8 0 16 -3 24 -7c6 -7 11 -15 16 -26c5 -10 11 -20 16 -27s13 -13 22 -19c11 -4 24 -5 41 -5
c21 0 40 3 55 13c14 9 21 22 21 35c0 11 -3 20 -10 26c-7 7 -18 12 -31 16c-5 2 -13 3 -21 6c-9 2 -18 3 -27 7c-31 9 -55 14 -74 22c-20 8 -35 20 -48 35c-11 15 -17 34 -17 56c0 20 6 40 19 57c13 15 30 28 53 35c22 9 49 13 81 13c27 0 48 -3 65 -9s34 -13 45 -22
c11 -8 20 -19 27 -30c6 -10 9 -20 9 -31s-3 -19 -12 -27c-6 -8 -15 -12 -28 -12c-11 0 -19 3 -24 7c-7 8 -13 15 -17 22c-7 15 -16 24 -25 31c-10 6 -24 10 -45 10c-20 0 -37 -2 -47 -10c-12 -8 -17 -18 -17 -28c0 -6 3 -10 5 -16c3 -4 8 -8 17 -13c5 -1 11 -5 22 -8
c4 -1 9 -3 14 -4c7 -2 14 -4 23 -6c11 -1 22 -5 32 -7c10 -4 20 -6 29 -8c18 -7 35 -14 48 -22c13 -11 24 -21 31 -33c8 -13 13 -31 11 -50zM821 184c0 24 -6 48 -17 70c5 22 8 41 8 60c0 77 -28 141 -83 196c-53 53 -119 81 -196 81c-15 0 -30 -1 -46 -4
c-27 16 -56 23 -85 24c-45 1 -82 -15 -113 -47c-32 -31 -48 -69 -48 -112c0 -32 7 -59 22 -82c-4 -20 -6 -38 -6 -56c0 -77 28 -142 81 -195c54 -55 119 -81 195 -81c14 0 31 0 51 3c23 -12 48 -18 76 -18c45 0 82 15 114 48c30 30 47 69 47 113zM56 322
c0 268 216 482 484 483c268 2 484 -215 484 -483c0 -267 -216 -484 -484 -484s-484 217 -484 484z" />
    <glyph glyph-name="L" unicode="L" 
d="M411 552c-2 16 -7 29 -19 42c-12 11 -26 17 -46 17s-35 -6 -47 -17c-12 -13 -19 -26 -17 -42c-2 -15 7 -29 17 -41c10 -11 25 -19 45 -19s36 6 48 19c12 11 19 26 19 41zM287 110h116v338h-116v-338zM464 448v-342h116v192c0 12 1 20 4 27c12 30 33 44 65 41
s48 -28 48 -75v-185h113v198c0 45 -8 81 -29 105c-20 22 -43 39 -69 45c-26 5 -52 2 -78 -6c-26 -10 -44 -26 -57 -48h-1v48h-112zM56 322c0 268 216 482 484 483c268 2 484 -215 484 -483c0 -267 -216 -484 -484 -484s-484 217 -484 484z" />
    <glyph glyph-name="M" unicode="M" 
d="M56 322c0 268 216 482 484 483c268 2 484 -215 484 -483c0 -267 -216 -484 -484 -484s-484 217 -484 484zM633 408c0 27 -9 52 -28 70c-20 18 -39 27 -67 27c-26 0 -48 -8 -66 -27c-18 -20 -28 -43 -28 -70c0 -26 10 -46 28 -65c18 -20 40 -29 66 -29c28 0 47 10 67 29
c18 16 28 39 28 65zM714 221c17 33 28 65 40 94c12 33 17 61 17 89c0 57 -12 103 -40 139c-28 37 -60 63 -98 79c-29 13 -59 18 -95 18c-34 0 -66 -5 -94 -18c-41 -16 -70 -43 -97 -79c-28 -36 -42 -82 -42 -139c0 -28 9 -56 17 -89c8 -31 24 -62 40 -94
c25 -50 53 -97 86 -141c31 -42 52 -70 63 -81l27 -32l28 32c10 11 34 37 63 81c31 44 58 90 85 141zM697 404c0 -22 -4 -46 -13 -71c-10 -24 -18 -54 -32 -78c-20 -34 -37 -67 -59 -98c-22 -30 -39 -57 -55 -77c-15 20 -33 47 -54 77c-22 32 -42 64 -59 98
c-13 26 -21 54 -31 78c-12 25 -15 49 -15 71c0 39 11 71 28 96c16 26 39 43 66 54c21 8 41 13 65 13c23 0 44 -3 66 -13c26 -11 49 -28 67 -54c16 -24 26 -57 26 -96z" />
    <glyph glyph-name="N" unicode="N" 
d="M590 177c-48 24 -86 51 -114 79s-54 66 -78 117c-7 9 -4 20 7 29l46 36c13 10 17 21 12 30l-65 118c-5 8 -11 10 -18 9c-17 0 -36 -4 -56 -10c-2 0 -8 -4 -15 -11c-6 -7 -11 -13 -15 -19c-9 -15 -19 -33 -26 -53c-7 -21 -9 -36 -7 -45c15 -105 63 -195 143 -273
c79 -78 169 -127 272 -144c9 -2 25 2 45 8c21 7 40 16 55 27c5 3 12 9 19 16c6 6 9 10 9 13c9 20 11 39 11 57c0 6 -2 12 -7 16l-120 66c-11 5 -20 0 -31 -13l-37 -45c-9 -11 -19 -13 -30 -8zM56 322c0 268 216 482 484 483c268 2 484 -215 484 -483
c0 -267 -216 -484 -484 -484s-484 217 -484 484z" />
    <glyph glyph-name="O" unicode="O" 
 />
    <glyph glyph-name="P" unicode="P" 
d="M390 -24c30 23 55 54 67 95c14 41 24 85 33 130c17 -10 31 -19 42 -28c10 -8 25 -13 47 -15c74 -4 130 24 168 89c39 63 53 133 43 207c-8 64 -40 113 -97 145s-120 41 -189 34c-56 -4 -108 -26 -153 -69c-45 -42 -69 -92 -73 -155v-5v-6v-4c1 -37 10 -66 22 -90
c14 -25 37 -42 72 -50c16 28 20 51 6 63c-12 10 -19 28 -21 48c-6 42 -1 78 19 113c19 33 47 59 79 76c35 18 69 25 107 22c38 -2 72 -19 102 -47c18 -19 31 -48 35 -86c3 -36 4 -71 -7 -106c-11 -33 -27 -61 -50 -87c-21 -24 -47 -28 -80 -22c-30 5 -45 20 -43 45
c1 22 8 49 16 79c7 29 16 57 20 83c3 26 -4 45 -30 54c-40 15 -70 0 -87 -46c-18 -45 -16 -84 1 -117c-10 -53 -22 -109 -39 -165c-15 -55 -20 -116 -10 -185zM56 322c0 268 216 482 484 483c268 2 484 -215 484 -483c0 -267 -216 -484 -484 -484s-484 217 -484 484z" />
    <glyph glyph-name="Q" unicode="Q" 
d="M717 507v107v0h-106l-10 -11l-50 -96l-15 -10h-179v-146h97l9 -11l-106 -203v-107v0h106l10 11l50 96l15 10h179v145h-97l-9 12zM56 322c0 268 216 482 484 483c268 2 484 -215 484 -483c0 -267 -216 -484 -484 -484s-484 217 -484 484z" />
    <glyph glyph-name="R" unicode="R" 
d="M56 322c0 268 216 482 484 483c267 2 484 -215 484 -483c0 -267 -217 -484 -484 -484c-268 0 -484 217 -484 484zM233 322c0 -77 62 -141 140 -141s141 64 141 141c0 78 -63 141 -141 140s-140 -62 -140 -140zM571 322c0 -77 63 -141 141 -141s140 64 140 141
c0 78 -62 141 -140 140s-141 -62 -141 -140z" />
    <glyph glyph-name="S" unicode="S" 
d="M696 496c-11 46 -32 76 -64 93c-34 17 -64 26 -92 26c-29 0 -59 -9 -92 -26c-34 -17 -54 -47 -65 -93c-4 -15 -4 -32 -1 -56c2 -24 3 -39 2 -45c-1 -7 -7 -9 -20 -7c-12 1 -21 3 -28 5c-6 2 -15 0 -23 -8c-9 -9 -5 -16 9 -26c6 -4 13 -10 25 -14c13 -6 20 -9 25 -12
c10 -7 12 -19 3 -35c-8 -15 -14 -26 -20 -33c-21 -25 -38 -43 -53 -49c-18 -6 -31 -11 -40 -16c-8 -2 -13 -8 -10 -15c2 -9 10 -12 24 -17c8 -2 14 -3 19 -5c7 -2 13 -2 19 -5c16 -5 22 -12 20 -23c-4 -10 0 -18 8 -18c10 0 22 1 37 4c15 2 25 4 34 1c25 -7 43 -19 60 -35
c13 -12 37 -20 67 -20c29 0 52 7 67 20c14 16 34 28 58 35c9 3 20 3 36 -1c14 -4 27 -5 36 -4c8 1 13 8 9 18c-2 11 4 18 19 23c7 3 13 3 19 5c5 2 12 3 20 5c13 5 21 8 23 17c1 7 -2 11 -10 15c-10 5 -23 8 -40 16c-15 8 -33 24 -53 49c-6 7 -12 18 -21 33
c-9 16 -6 28 5 35c4 3 12 5 23 12c11 6 21 10 27 14c14 10 16 18 8 26c-8 6 -16 10 -24 8c-6 -2 -16 -3 -28 -5c-11 -2 -18 0 -20 7c0 6 0 21 3 45s3 41 -1 56zM56 322c0 268 216 482 484 483c268 2 484 -215 484 -483c0 -267 -216 -484 -484 -484s-484 217 -484 484z" />
    <glyph glyph-name="T" unicode="T" 
d="M56 322c0 268 216 482 484 483c268 2 484 -215 484 -483c0 -267 -216 -484 -484 -484s-484 217 -484 484zM795 420c24 19 44 41 61 63c-24 -9 -47 -16 -71 -18c27 14 43 37 53 65c-21 -15 -56 -52 -77 -30c-24 26 -52 39 -86 39s-63 -13 -85 -34c-24 -24 -35 -53 -35 -86
c0 -8 1 -17 4 -26c-51 1 -96 16 -140 37c-44 22 -80 51 -110 86c-10 -18 -17 -37 -17 -58c0 -44 19 -76 55 -101c-19 0 -38 6 -55 15v0v-2c0 -29 10 -55 28 -77c19 -23 41 -36 70 -40c-10 -4 -22 -1 -33 -4c-5 -1 -13 0 -22 1c8 -22 22 -42 41 -59c22 -16 44 -24 71 -24
c-44 -35 -93 -44 -149 -51c-13 -2 -22 0 -30 0c56 -35 117 -52 185 -52c111 0 194 36 253 111c59 74 89 151 89 231v8v6z" />
    <glyph glyph-name="U" unicode="U" 
d="M377 614v-250c-1 2 -5 7 -9 13c-17 19 -40 30 -66 30c-16 0 -27 -7 -36 -21c-10 -14 -12 -29 -5 -43c10 -19 19 -40 25 -61c6 -20 11 -40 16 -63c7 -33 25 -64 57 -92c6 -6 13 -14 24 -22c10 -7 17 -16 21 -23c2 -3 4 -7 4 -13v-7c0 -17 4 -30 15 -42
c12 -11 27 -15 43 -15h196c15 0 28 4 40 15c12 12 17 25 17 42v13c0 1 -1 2 0 4c2 2 2 3 2 6c2 9 8 20 16 30c6 11 15 21 20 28c0 2 -1 3 0 3c2 0 2 2 4 2c11 24 17 47 17 66v193c0 16 -4 29 -17 41c-11 12 -24 18 -40 18h-15c-7 0 -15 -2 -23 -6c-11 25 -28 36 -55 36h-13
c-10 0 -17 -1 -23 -4c-10 23 -28 37 -53 37h-15c-6 0 -14 -2 -17 -5v90c0 17 -6 29 -17 42c-11 11 -25 17 -40 17h-16c-15 0 -28 -6 -39 -17c-12 -12 -18 -25 -18 -42zM681 407c0 16 9 25 25 25h15c15 0 21 -9 21 -25v-132v-27v-34c0 -29 -6 -53 -27 -74
c-19 -19 -30 -40 -30 -65v-13c0 -17 -6 -25 -23 -25h-196c-16 0 -24 8 -24 25v7c0 32 -15 55 -47 71c-33 17 -53 46 -61 85c-4 23 -8 44 -15 66c-8 22 -16 44 -27 66c-2 3 -2 7 2 10c2 4 6 6 8 6c17 0 31 -5 40 -17c8 -13 15 -21 17 -27c3 -5 7 -15 17 -28
c8 -13 17 -17 24 -11c8 5 10 13 10 24v300c0 17 8 25 24 25h16c16 0 23 -8 23 -25v-222c0 -7 5 -10 15 -10c9 0 15 3 15 10v80c0 14 7 23 21 23h15c17 0 24 -9 24 -23v-93c0 -7 4 -10 14 -10c9 0 13 3 13 10v60c0 16 10 23 25 23h13c17 0 24 -7 24 -23v-81
c0 -6 6 -10 14 -10c11 0 15 4 15 10v49zM56 322c0 268 216 482 484 483c268 2 484 -215 484 -483c0 -267 -216 -484 -484 -484s-484 217 -484 484z" />
    <glyph glyph-name="V" unicode="V" 
d="M843 434c3 82 -28 125 -93 127c-88 2 -146 -46 -178 -148c16 6 32 9 47 9c32 0 46 -17 43 -53c-2 -23 -15 -54 -43 -96c-27 -41 -46 -63 -59 -63c-18 0 -33 33 -46 96c-5 20 -14 68 -27 146c-10 71 -41 105 -91 100c-20 -1 -50 -19 -93 -57c-29 -27 -60 -53 -93 -81
l31 -38c27 19 44 29 50 29c20 0 42 -33 60 -101c17 -63 34 -126 51 -188c25 -68 57 -102 94 -102c59 0 132 55 218 168c81 107 125 191 129 252zM56 322c0 268 216 482 484 483c268 2 484 -215 484 -483c0 -267 -216 -484 -484 -484s-484 217 -484 484z" />
    <glyph glyph-name="W" unicode="W" 
d="M455 481c-3 7 -10 12 -22 14c-12 1 -22 0 -29 -3c-22 -11 -35 -30 -40 -59c-6 -28 -4 -54 7 -76c45 -95 114 -163 207 -208c23 -11 49 -12 77 -8c27 5 47 19 57 41c6 8 6 17 3 28c-1 12 -6 20 -13 23l-74 28c-5 2 -9 1 -19 -3c-5 -3 -8 -10 -13 -14
c-5 -6 -10 -11 -14 -14c-4 -4 -7 -4 -13 0c-29 18 -50 34 -66 51c-15 16 -31 38 -51 67c-4 5 -4 9 0 12c4 5 9 12 14 15c6 4 11 8 15 15c4 6 4 12 3 18zM863 320c0 41 -9 81 -25 121c-15 40 -40 73 -72 107c-29 32 -66 56 -106 71c-40 16 -80 24 -120 24
c-42 0 -82 -8 -122 -24c-41 -15 -74 -42 -107 -71c-27 -25 -49 -56 -64 -90c-16 -32 -26 -66 -29 -101c-9 -76 6 -143 43 -204l-24 -134l137 24c63 -38 129 -52 199 -44c74 7 139 37 193 92c65 64 97 139 97 229zM740 520c55 -54 83 -120 83 -200c0 -77 -28 -145 -83 -201
c-48 -47 -106 -74 -171 -81c-64 -8 -124 7 -183 43l-8 5l-8 -4l-80 -10l12 79l2 8l-4 8c-35 56 -49 117 -43 185c6 67 35 122 81 168c57 56 123 83 202 83c76 0 144 -27 200 -83zM56 322c0 268 216 482 484 483c268 2 484 -215 484 -483c0 -267 -216 -484 -484 -484
s-484 217 -484 484z" />
    <glyph glyph-name="X" unicode="X" 
d="M543 481c-87 0 -159 -69 -160 -156s69 -158 156 -159c87 -2 159 69 159 156s-69 159 -155 159zM540 243c-44 2 -79 38 -79 81c1 44 36 80 80 79c44 0 80 -37 79 -80c0 -44 -36 -80 -80 -80zM538 633h-1v0h-199h-66h-19c-13 0 -25 -12 -25 -25v-18v-50v-218
c0 -171 139 -310 310 -310c172 0 311 139 311 310c0 172 -139 311 -311 311zM325 327c1 118 99 214 218 213c118 -1 214 -99 213 -217c-1 -119 -99 -215 -217 -214c-119 1 -215 99 -214 218zM56 322c0 268 216 482 484 483c268 2 484 -215 484 -483
c0 -267 -216 -484 -484 -484s-484 217 -484 484z" />
    <glyph glyph-name="Y" unicode="Y" 
d="M540 -162c-268 0 -484 217 -484 484c0 268 216 482 484 483c268 2 484 -215 484 -483c0 -267 -216 -484 -484 -484zM544 114c0 0 124 0 205 6c13 3 38 3 61 26c18 18 22 58 22 58s7 48 7 96v43c0 49 -7 98 -7 98s-4 40 -22 57c-23 25 -48 25 -61 26c-81 5 -205 5 -205 5
h-2s-123 0 -206 -5c-12 -1 -36 -1 -60 -26c-18 -17 -22 -57 -22 -57s-7 -49 -7 -98v-43c0 -48 7 -96 7 -96s4 -40 22 -58c24 -23 52 -23 66 -26c48 -5 202 -6 202 -6zM445 207v244l234 -122z" />
    <glyph glyph-name="Z" unicode="Z" 
d="M671 20c42 0 90 38 105 77c13 40 -15 55 -38 74c-17 13 -36 24 -53 35c-33 26 -66 28 -92 -13c-14 -21 -34 -21 -55 -12c-59 25 -105 67 -131 128c-12 26 -12 50 16 67c15 10 29 22 29 46c-3 26 -71 120 -98 130c-11 5 -23 5 -35 0c-62 -22 -88 -73 -64 -134
c76 -184 208 -313 390 -390c10 -7 21 -7 26 -8zM538 562c-9 0 -30 8 -30 -14c-1 -15 16 -11 25 -15c135 -20 195 -83 214 -218c0 -10 -5 -30 13 -30c20 0 13 17 13 30c3 126 -107 242 -235 247zM709 338c0 77 -67 149 -148 160c-14 2 -29 7 -33 -11c-4 -19 14 -17 27 -19
c83 -20 111 -49 125 -130c1 -12 -3 -29 17 -28c16 3 9 20 12 28zM647 352c0 38 -43 83 -79 81c-9 0 -17 0 -21 -9c-5 -14 6 -18 15 -20c34 -4 54 -26 55 -59c2 -7 8 -15 16 -15c14 2 14 13 14 22zM56 322c0 268 216 482 484 483c268 2 484 -215 484 -483
c0 -267 -216 -484 -484 -484s-484 217 -484 484z" />
    <glyph glyph-name="a" unicode="a" 
d="M71 322c0 259 208 467 469 468c258 2 469 -208 469 -468c0 -259 -210 -469 -469 -469s-469 210 -469 469zM41 322c0 -276 223 -499 499 -499s499 223 499 499c0 277 -224 500 -499 498c-277 -1 -499 -223 -499 -498z" />
    <glyph glyph-name="b" unicode="b" 
d="M786 478h-151v-44h151v44zM402 500h-153v-365h125c44 0 75 0 91 2c28 4 52 13 68 31c18 19 26 42 26 71c0 18 -5 40 -15 59c-11 22 -27 34 -51 34c36 13 54 38 54 76c0 23 -8 44 -24 59c-15 16 -33 29 -56 30c-16 2 -36 3 -65 3zM332 354v82h36c16 0 32 1 43 0h24
c22 -4 33 -17 33 -39c0 -25 -11 -40 -37 -42c-3 0 -10 2 -20 0c-11 -1 -23 -1 -37 -1h-42zM332 197v100h84c17 0 27 1 27 -1c0 -1 2 -1 8 -3c20 -9 34 -24 32 -47c-1 -27 -14 -37 -38 -46c-4 -1 -5 -3 -4 -3c2 0 -3 0 -17 0h-92zM843 221h-66c-3 -15 -11 -25 -26 -32
c-13 -5 -26 -7 -35 -7c-22 0 -35 6 -47 18s-16 27 -16 47h190c3 56 -10 96 -35 123c-22 24 -53 35 -97 35c-41 0 -76 -13 -99 -38c-24 -27 -38 -59 -38 -100c0 -36 8 -70 29 -93c28 -33 63 -50 112 -50c27 0 56 8 86 24c28 15 42 40 42 73zM716 355c17 0 31 -5 41 -17
c10 -11 15 -25 17 -41h-120c0 16 6 28 18 41c11 12 27 17 44 17zM71 322c0 259 208 467 469 468c258 2 469 -208 469 -468c0 -259 -210 -469 -469 -469s-469 210 -469 469zM41 322c0 -276 223 -499 499 -499s499 223 499 499c0 277 -224 500 -499 498
c-277 -1 -499 -223 -499 -498z" />
    <glyph glyph-name="c" unicode="c" 
d="M721 376h-165l84 296l-279 -403h163l-85 -297zM71 322c0 259 208 467 469 468c258 2 469 -208 469 -468c0 -259 -210 -469 -469 -469s-469 210 -469 469zM41 322c0 -276 223 -499 499 -499s499 223 499 499c0 277 -224 500 -499 498c-277 -1 -499 -223 -499 -498z" />
    <glyph glyph-name="d" unicode="d" 
d="M771 551c-30 30 -65 52 -105 69c-38 16 -81 26 -124 26c-46 0 -89 -10 -127 -26c-40 -15 -75 -39 -104 -69c-29 -29 -54 -65 -70 -103c-18 -41 -26 -82 -26 -127s8 -88 26 -128c17 -40 39 -73 70 -104c29 -29 64 -51 104 -69c38 -16 81 -26 127 -26c43 0 86 10 124 26
c40 18 75 40 105 69c63 64 95 140 95 232c0 90 -32 166 -95 230zM572 430c-27 48 -60 100 -101 155c23 5 45 9 71 9c66 0 126 -23 175 -65c-36 -42 -84 -74 -145 -99zM608 362c-1 1 -5 10 -11 21c65 28 119 65 157 111c37 -48 58 -103 60 -164c-72 15 -138 18 -197 7
c-1 4 -1 8 -3 12c-5 3 -5 9 -6 13zM693 92c-15 70 -32 136 -55 195c54 7 112 4 174 -10c-10 -60 -35 -112 -78 -150c-15 -15 -29 -27 -41 -35zM585 277c27 -64 46 -134 60 -210c-37 -15 -72 -22 -103 -22c-63 0 -118 19 -168 58c49 77 110 122 175 159c7 5 20 10 36 15z
M560 339c1 -2 4 -5 4 -7s2 -4 2 -7c-15 -6 -28 -10 -37 -14c-76 -33 -141 -90 -194 -173c-45 53 -68 112 -68 183v4v4c46 -3 92 -1 142 5c48 7 94 16 139 31zM420 566c43 -53 77 -105 104 -153c-40 -13 -82 -23 -125 -27c-42 -4 -85 -6 -125 -5c11 50 33 95 73 133
c21 21 45 38 73 52zM71 322c0 259 208 467 469 468c258 2 469 -208 469 -468c0 -259 -210 -469 -469 -469s-469 210 -469 469zM41 322c0 -276 223 -499 499 -499s499 223 499 499c0 277 -224 500 -499 498c-277 -1 -499 -223 -499 -498z" />
    <glyph glyph-name="e" unicode="e" 
d="M765 542h-452c-14 0 -26 -4 -35 -13c-11 -11 -13 -22 -13 -34v-352c0 -14 2 -24 13 -33c9 -10 21 -15 35 -15h225h227c12 0 24 4 33 15c11 10 14 19 14 33v352c0 12 -3 23 -14 34c-9 9 -21 13 -33 13zM573 249c-9 -13 -21 -20 -35 -20s-26 7 -35 20l-197 212
c-6 5 -7 11 -3 15c6 5 12 2 20 -6l177 -166c11 -13 23 -19 38 -19c14 0 28 6 38 19l177 166c8 8 13 9 20 6c5 -4 3 -10 -2 -15zM71 322c0 259 208 467 469 468c258 2 469 -208 469 -468c0 -259 -210 -469 -469 -469s-469 210 -469 469zM41 322c0 -276 223 -499 499 -499
s499 223 499 499c0 277 -224 500 -499 498c-277 -1 -499 -223 -499 -498z" />
    <glyph glyph-name="f" unicode="f" 
d="M584 -161v337h121l18 148h-139v68c0 22 2 37 6 45c10 13 26 20 50 20h77v144h-133c-28 0 -57 -4 -84 -15c-60 -23 -91 -81 -91 -173v-89h-87v-148h87v-321c62 -24 118 -16 175 -16zM71 322c0 259 208 467 469 468c258 2 469 -208 469 -468c0 -259 -210 -469 -469 -469
s-469 210 -469 469zM41 322c0 -276 223 -499 499 -499s499 223 499 499c0 277 -224 500 -499 498c-277 -1 -499 -223 -499 -498z" />
    <glyph glyph-name="g" unicode="g" 
d="M827 362h-16v4v9v55c0 3 -3 9 -6 9h-49v-64v-12h-78v-14c0 -13 2 -27 2 -42c13 0 28 -1 41 -1h35v-76h55v76h76v43v13h-60zM608 369h-143h-42c-1 0 -7 -5 -7 -6v-83h117c-1 -7 -2 -12 -4 -15c-17 -54 -73 -81 -132 -69c-74 12 -120 79 -107 153c4 11 6 20 10 28
c23 54 84 87 143 74c23 -5 42 -14 56 -30c20 22 43 43 64 66c-1 2 -3 2 -5 3c-52 45 -111 61 -178 50c-96 -15 -165 -91 -180 -180c-6 -37 -4 -76 12 -116c35 -93 130 -150 230 -140c50 6 94 23 128 61c49 53 63 119 55 191c-1 11 -6 13 -17 13zM71 322
c0 259 208 467 469 468c258 2 469 -208 469 -468c0 -259 -210 -469 -469 -469s-469 210 -469 469zM41 322c0 -276 223 -499 499 -499s499 223 499 499c0 277 -224 500 -499 498c-277 -1 -499 -223 -499 -498z" />
    <glyph glyph-name="h" unicode="h" 
 />
    <glyph glyph-name="i" unicode="i" 
d="M240 325c0 -23 1 -45 1 -68s2 -45 3 -67c3 -47 20 -85 50 -115c31 -32 69 -46 115 -49c21 -1 44 -2 66 -2h66c21 0 43 -2 66 0c22 1 45 1 67 2c46 3 84 17 113 49c32 30 48 68 50 115c2 43 3 88 3 133s-2 90 -3 133c-1 46 -18 85 -50 115c-27 30 -65 46 -113 48
c-24 1 -46 2 -69 2h-132c-23 0 -45 -2 -67 -2c-46 -2 -84 -18 -112 -47c-30 -30 -47 -67 -50 -114c-1 -20 -1 -43 -3 -66c-1 -21 -1 -44 -1 -67zM294 324c0 49 1 92 4 132c2 31 13 54 33 78c19 19 45 28 78 32c19 1 41 -1 62 1c23 1 45 1 68 1s45 -1 67 -1c23 0 44 0 64 -1
c34 -3 60 -13 80 -34c21 -20 30 -46 33 -79c2 -39 3 -82 3 -130c0 -46 -2 -90 -3 -132c-1 -33 -11 -57 -33 -78c-20 -20 -46 -30 -80 -33c-20 -2 -41 -3 -63 -3h-66h-66c-23 0 -45 1 -65 3c-30 2 -57 13 -78 33c-22 21 -32 48 -34 80c-3 37 -4 83 -4 131zM387 321
c0 -41 17 -75 46 -107c28 -30 63 -46 107 -46s77 16 107 46c29 29 46 66 46 107c0 43 -17 80 -46 109c-31 31 -65 46 -107 46s-76 -15 -107 -46c-29 -29 -46 -66 -46 -109zM442 321c0 29 9 52 28 72c20 19 44 29 70 29s50 -10 70 -29c19 -20 28 -43 28 -72
c0 -27 -9 -50 -28 -68c-20 -22 -44 -30 -70 -30s-50 8 -70 30c-19 18 -28 41 -28 68zM659 476c0 -23 12 -35 35 -35c25 0 36 12 36 35c0 25 -11 35 -36 35c-23 0 -35 -10 -35 -35zM71 322c0 259 208 467 469 468c258 2 469 -208 469 -468c0 -259 -210 -469 -469 -469
s-469 210 -469 469zM41 322c0 -276 223 -499 499 -499s499 223 499 499c0 277 -224 500 -499 498c-277 -1 -499 -223 -499 -498z" />
    <glyph glyph-name="j" unicode="j" 
 />
    <glyph glyph-name="k" unicode="k" 
d="M695 243c0 -24 -6 -44 -19 -61c-12 -17 -31 -31 -56 -44c-25 -9 -54 -14 -88 -14c-37 0 -71 6 -97 21c-20 11 -33 24 -45 40s-15 34 -18 51c-1 11 3 18 11 26c8 7 17 10 29 10c8 0 16 -3 24 -7c6 -7 11 -15 16 -26c5 -10 11 -20 16 -27s13 -13 22 -19c11 -4 24 -5 41 -5
c21 0 40 3 55 13c14 9 21 22 21 35c0 11 -3 20 -10 26c-7 7 -18 12 -31 16c-5 2 -13 3 -21 6c-9 2 -18 3 -27 7c-31 9 -55 14 -74 22c-20 8 -35 20 -48 35c-11 15 -17 34 -17 56c0 20 6 40 19 57c13 15 30 28 53 35c22 9 49 13 81 13c27 0 48 -3 65 -9s34 -13 45 -22
c11 -8 20 -19 27 -30c6 -10 9 -20 9 -31s-3 -19 -12 -27c-6 -8 -15 -12 -28 -12c-11 0 -19 3 -24 7c-7 8 -13 15 -17 22c-7 15 -16 24 -25 31c-10 6 -24 10 -45 10c-20 0 -37 -2 -47 -10c-12 -8 -17 -18 -17 -28c0 -6 3 -10 5 -16c3 -4 8 -8 17 -13c5 -1 11 -5 22 -8
c4 -1 9 -3 14 -4c7 -2 14 -4 23 -6c11 -1 22 -5 32 -7c10 -4 20 -6 29 -8c18 -7 35 -14 48 -22c13 -11 24 -21 31 -33c8 -13 13 -31 11 -50zM821 184c0 24 -6 48 -17 70c5 22 8 41 8 60c0 77 -28 141 -83 196c-53 53 -119 81 -196 81c-15 0 -30 -1 -46 -4
c-27 16 -56 23 -85 24c-45 1 -82 -15 -113 -47c-32 -31 -48 -69 -48 -112c0 -32 7 -59 22 -82c-4 -20 -6 -38 -6 -56c0 -77 28 -142 81 -195c54 -55 119 -81 195 -81c14 0 31 0 51 3c23 -12 48 -18 76 -18c45 0 82 15 114 48c30 30 47 69 47 113zM71 322
c0 259 208 467 469 468c258 2 469 -208 469 -468c0 -259 -210 -469 -469 -469s-469 210 -469 469zM41 322c0 -276 223 -499 499 -499s499 223 499 499c0 277 -224 500 -499 498c-277 -1 -499 -223 -499 -498z" />
    <glyph glyph-name="l" unicode="l" 
d="M411 552c-2 16 -7 29 -19 42c-12 11 -26 17 -46 17s-35 -6 -47 -17c-12 -13 -19 -26 -17 -42c-2 -15 7 -29 17 -41c10 -11 25 -19 45 -19s36 6 48 19c12 11 19 26 19 41zM287 110h116v338h-116v-338zM464 448v-342h116v192c0 12 1 20 4 27c12 30 33 44 65 41
s48 -28 48 -75v-185h113v198c0 45 -8 81 -29 105c-20 22 -43 39 -69 45c-26 5 -52 2 -78 -6c-26 -10 -44 -26 -57 -48h-1v48h-112zM71 322c0 259 208 467 469 468c258 2 469 -208 469 -468c0 -259 -210 -469 -469 -469s-469 210 -469 469zM41 322c0 -276 223 -499 499 -499
s499 223 499 499c0 277 -224 500 -499 498c-277 -1 -499 -223 -499 -498z" />
    <glyph glyph-name="m" unicode="m" 
d="M633 408c0 27 -9 52 -28 70c-20 18 -39 27 -67 27c-26 0 -48 -8 -66 -27c-18 -20 -28 -43 -28 -70c0 -26 10 -46 28 -65c18 -20 40 -29 66 -29c28 0 47 10 67 29c18 16 28 39 28 65zM714 221c17 33 28 65 40 94c12 33 17 61 17 89c0 57 -12 103 -40 139
c-28 37 -60 63 -98 79c-29 13 -59 18 -95 18c-34 0 -66 -5 -94 -18c-41 -16 -70 -43 -97 -79c-28 -36 -42 -82 -42 -139c0 -28 9 -56 17 -89c8 -31 24 -62 40 -94c25 -50 53 -97 86 -141c31 -42 52 -70 63 -81l27 -32l28 32c10 11 34 37 63 81c31 44 58 90 85 141zM697 404
c0 -22 -4 -46 -13 -71c-10 -24 -18 -54 -32 -78c-20 -34 -37 -67 -59 -98c-22 -30 -39 -57 -55 -77c-15 20 -33 47 -54 77c-22 32 -42 64 -59 98c-13 26 -21 54 -31 78c-12 25 -15 49 -15 71c0 39 11 71 28 96c16 26 39 43 66 54c21 8 41 13 65 13c23 0 44 -3 66 -13
c26 -11 49 -28 67 -54c16 -24 26 -57 26 -96zM71 322c0 259 208 467 469 468c258 2 469 -208 469 -468c0 -259 -210 -469 -469 -469s-469 210 -469 469zM41 322c0 -276 223 -499 499 -499s499 223 499 499c0 277 -224 500 -499 498c-277 -1 -499 -223 -499 -498z" />
    <glyph glyph-name="n" unicode="n" 
d="M590 177c-48 24 -86 51 -114 79s-54 66 -78 117c-7 9 -4 20 7 29l46 36c13 10 17 21 12 30l-65 118c-5 8 -11 10 -18 9c-17 0 -36 -4 -56 -10c-2 0 -8 -4 -15 -11c-6 -7 -11 -13 -15 -19c-9 -15 -19 -33 -26 -53c-7 -21 -9 -36 -7 -45c15 -105 63 -195 143 -273
c79 -78 169 -127 272 -144c9 -2 25 2 45 8c21 7 40 16 55 27c5 3 12 9 19 16c6 6 9 10 9 13c9 20 11 39 11 57c0 6 -2 12 -7 16l-120 66c-11 5 -20 0 -31 -13l-37 -45c-9 -11 -19 -13 -30 -8zM71 322c0 259 208 467 469 468c258 2 469 -208 469 -468
c0 -259 -210 -469 -469 -469s-469 210 -469 469zM41 322c0 -276 223 -499 499 -499s499 223 499 499c0 277 -224 500 -499 498c-277 -1 -499 -223 -499 -498z" />
    <glyph glyph-name="o" unicode="o" 
 />
    <glyph glyph-name="p" unicode="p" 
d="M390 -24c30 23 55 54 67 95c14 41 24 85 33 130c17 -10 31 -19 42 -28c10 -8 25 -13 47 -15c74 -4 130 24 168 89c39 63 53 133 43 207c-8 64 -40 113 -97 145s-120 41 -189 34c-56 -4 -108 -26 -153 -69c-45 -42 -69 -92 -73 -155v-5v-6v-4c1 -37 10 -66 22 -90
c14 -25 37 -42 72 -50c16 28 20 51 6 63c-12 10 -19 28 -21 48c-6 42 -1 78 19 113c19 33 47 59 79 76c35 18 69 25 107 22c38 -2 72 -19 102 -47c18 -19 31 -48 35 -86c3 -36 4 -71 -7 -106c-11 -33 -27 -61 -50 -87c-21 -24 -47 -28 -80 -22c-30 5 -45 20 -43 45
c1 22 8 49 16 79c7 29 16 57 20 83c3 26 -4 45 -30 54c-40 15 -70 0 -87 -46c-18 -45 -16 -84 1 -117c-10 -53 -22 -109 -39 -165c-15 -55 -20 -116 -10 -185zM71 322c0 259 208 467 469 468c258 2 469 -208 469 -468c0 -259 -210 -469 -469 -469s-469 210 -469 469zM41 322
c0 -276 223 -499 499 -499s499 223 499 499c0 277 -224 500 -499 498c-277 -1 -499 -223 -499 -498z" />
    <glyph glyph-name="q" unicode="q" 
d="M717 507v107v0h-105l-11 -11l-49 -96l-17 -10h-178v-146h97l9 -11l-106 -203v-107v0h105l11 11l49 96l17 10h178v145h-97l-9 12zM71 322c0 259 208 467 469 468c258 2 469 -208 469 -468c0 -259 -210 -469 -469 -469s-469 210 -469 469zM41 322c0 -276 223 -499 499 -499
s499 223 499 499c0 277 -224 500 -499 498c-277 -1 -499 -223 -499 -498z" />
    <glyph glyph-name="r" unicode="r" 
d="M233 322c0 -77 62 -141 140 -141s141 64 141 141c0 78 -63 141 -141 140s-140 -62 -140 -140zM571 322c0 -77 63 -141 141 -141s140 64 140 141c0 78 -62 141 -140 140s-141 -62 -141 -140zM71 322c0 259 208 467 469 468c258 2 469 -208 469 -468
c0 -259 -210 -469 -469 -469s-469 210 -469 469zM41 322c0 -276 223 -499 499 -499s499 223 499 499c0 277 -224 500 -499 498c-277 -1 -499 -223 -499 -498z" />
    <glyph glyph-name="s" unicode="s" 
d="M696 496c-11 46 -32 76 -64 93c-34 17 -64 26 -92 26c-29 0 -59 -9 -92 -26c-34 -17 -54 -47 -65 -93c-4 -15 -4 -32 -1 -56c2 -24 3 -39 2 -45c-1 -7 -7 -9 -20 -7c-12 1 -21 3 -28 5c-6 2 -15 0 -23 -8c-9 -9 -5 -16 9 -26c6 -4 13 -10 25 -14c13 -6 20 -9 25 -12
c10 -7 12 -19 3 -35c-8 -15 -14 -26 -20 -33c-21 -25 -38 -43 -53 -49c-18 -6 -31 -11 -40 -16c-8 -2 -13 -8 -10 -15c2 -9 10 -12 24 -17c8 -2 14 -3 19 -5c7 -2 13 -2 19 -5c16 -5 22 -12 20 -23c-4 -10 0 -18 8 -18c10 0 22 1 37 4c15 2 25 4 34 1c25 -7 43 -19 60 -35
c13 -12 37 -20 67 -20c29 0 52 7 67 20c14 16 34 28 58 35c9 3 20 3 36 -1c14 -4 27 -5 36 -4c8 1 13 8 9 18c-2 11 4 18 19 23c7 3 13 3 19 5c5 2 12 3 20 5c13 5 21 8 23 17c1 7 -2 11 -10 15c-10 5 -23 8 -40 16c-15 8 -33 24 -53 49c-6 7 -12 18 -21 33
c-9 16 -6 28 5 35c4 3 12 5 23 12c11 6 21 10 27 14c14 10 16 18 8 26c-8 6 -16 10 -24 8c-6 -2 -16 -3 -28 -5c-11 -2 -18 0 -20 7c0 6 0 21 3 45s3 41 -1 56zM71 322c0 259 208 467 469 468c258 2 469 -208 469 -468c0 -259 -210 -469 -469 -469s-469 210 -469 469z
M41 322c0 -276 223 -499 499 -499s499 223 499 499c0 277 -224 500 -499 498c-277 -1 -499 -223 -499 -498z" />
    <glyph glyph-name="t" unicode="t" 
d="M795 420c24 19 44 41 61 63c-24 -9 -47 -16 -71 -18c27 14 43 37 53 65c-21 -15 -56 -52 -77 -30c-24 26 -52 39 -86 39s-63 -13 -85 -34c-24 -24 -35 -53 -35 -86c0 -8 1 -17 4 -26c-51 1 -96 16 -140 37c-44 22 -80 51 -110 86c-10 -18 -17 -37 -17 -58
c0 -44 19 -76 55 -101c-19 0 -38 6 -55 15v0v-2c0 -29 10 -55 28 -77c19 -23 41 -36 70 -40c-10 -4 -22 -1 -33 -4c-5 -1 -13 0 -22 1c8 -22 22 -42 41 -59c22 -16 44 -24 71 -24c-44 -35 -93 -44 -149 -51c-13 -2 -22 0 -30 0c56 -35 117 -52 185 -52c111 0 194 36 253 111
c59 74 89 151 89 231v8v6zM71 322c0 259 208 467 469 468c258 2 469 -208 469 -468c0 -259 -210 -469 -469 -469s-469 210 -469 469zM41 322c0 -276 223 -499 499 -499s499 223 499 499c0 277 -224 500 -499 498c-277 -1 -499 -223 -499 -498z" />
    <glyph glyph-name="u" unicode="u" 
d="M377 614v-250c-1 2 -5 7 -9 13c-17 19 -40 30 -66 30c-16 0 -27 -7 -36 -21c-10 -14 -12 -29 -5 -43c10 -19 19 -40 25 -61c6 -20 11 -40 16 -63c7 -33 25 -64 57 -92c6 -6 13 -14 24 -22c10 -7 17 -16 21 -23c2 -3 4 -7 4 -13v-7c0 -17 4 -30 15 -42
c12 -11 27 -15 43 -15h196c15 0 28 4 40 15c12 12 17 25 17 42v13c0 1 -1 2 0 4c2 2 2 3 2 6c2 9 8 20 16 30c6 11 15 21 20 28c0 2 -1 3 0 3c2 0 2 2 4 2c11 24 17 47 17 66v193c0 16 -4 29 -17 41c-11 12 -24 18 -40 18h-15c-7 0 -15 -2 -23 -6c-11 25 -28 36 -55 36h-13
c-10 0 -17 -1 -23 -4c-10 23 -28 37 -53 37h-15c-6 0 -14 -2 -17 -5v90c0 17 -6 29 -17 42c-11 11 -25 17 -40 17h-16c-15 0 -28 -6 -39 -17c-12 -12 -18 -25 -18 -42zM681 407c0 16 9 25 25 25h15c15 0 21 -9 21 -25v-132v-27v-34c0 -29 -6 -53 -27 -74
c-19 -19 -30 -40 -30 -65v-13c0 -17 -6 -25 -23 -25h-196c-16 0 -24 8 -24 25v7c0 32 -15 55 -47 71c-33 17 -53 46 -61 85c-4 23 -8 44 -15 66c-8 22 -16 44 -27 66c-2 3 -2 7 2 10c2 4 6 6 8 6c17 0 31 -5 40 -17c8 -13 15 -21 17 -27c3 -5 7 -15 17 -28
c8 -13 17 -17 24 -11c8 5 10 13 10 24v300c0 17 8 25 24 25h16c16 0 23 -8 23 -25v-222c0 -7 5 -10 15 -10c9 0 15 3 15 10v80c0 14 7 23 21 23h15c17 0 24 -9 24 -23v-93c0 -7 4 -10 14 -10c9 0 13 3 13 10v60c0 16 10 23 25 23h13c17 0 24 -7 24 -23v-81
c0 -6 6 -10 14 -10c11 0 15 4 15 10v49zM71 322c0 259 208 467 469 468c258 2 469 -208 469 -468c0 -259 -210 -469 -469 -469s-469 210 -469 469zM41 322c0 -276 223 -499 499 -499s499 223 499 499c0 277 -224 500 -499 498c-277 -1 -499 -223 -499 -498z" />
    <glyph glyph-name="v" unicode="v" 
d="M843 434c3 82 -28 125 -93 127c-88 2 -146 -46 -178 -148c16 6 32 9 47 9c32 0 46 -17 43 -53c-2 -23 -15 -54 -43 -96c-27 -41 -46 -63 -59 -63c-18 0 -33 33 -46 96c-5 20 -14 68 -27 146c-10 71 -41 105 -91 100c-20 -1 -50 -19 -93 -57c-29 -27 -60 -53 -93 -81
l31 -38c27 19 44 29 50 29c20 0 42 -33 60 -101c17 -63 34 -126 51 -188c25 -68 57 -102 94 -102c59 0 132 55 218 168c81 107 125 191 129 252zM71 322c0 259 208 467 469 468c258 2 469 -208 469 -468c0 -259 -210 -469 -469 -469s-469 210 -469 469zM41 322
c0 -276 223 -499 499 -499s499 223 499 499c0 277 -224 500 -499 498c-277 -1 -499 -223 -499 -498z" />
    <glyph glyph-name="w" unicode="w" 
d="M455 481c-3 7 -10 12 -22 14c-12 1 -22 0 -29 -3c-22 -11 -35 -30 -40 -59c-6 -28 -4 -54 7 -76c45 -95 114 -163 207 -208c23 -11 49 -12 77 -8c27 5 47 19 57 41c6 8 6 17 3 28c-1 12 -6 20 -13 23l-74 28c-5 2 -9 1 -19 -3c-5 -3 -8 -10 -13 -14
c-5 -6 -10 -11 -14 -14c-4 -4 -7 -4 -13 0c-29 18 -50 34 -66 51c-15 16 -31 38 -51 67c-4 5 -4 9 0 12c4 5 9 12 14 15c6 4 11 8 15 15c4 6 4 12 3 18zM863 320c0 41 -9 81 -25 121c-15 40 -40 73 -72 107c-29 32 -66 56 -106 71c-40 16 -80 24 -120 24
c-42 0 -82 -8 -122 -24c-41 -15 -74 -42 -107 -71c-27 -25 -49 -56 -64 -90c-16 -32 -26 -66 -29 -101c-9 -76 6 -143 43 -204l-24 -134l137 24c63 -38 129 -52 199 -44c74 7 139 37 193 92c65 64 97 139 97 229zM740 520c55 -54 83 -120 83 -200c0 -77 -28 -145 -83 -201
c-48 -47 -106 -74 -171 -81c-64 -8 -124 7 -183 43l-8 5l-8 -4l-80 -10l12 79l2 8l-4 8c-35 56 -49 117 -43 185c6 67 35 122 81 168c57 56 123 83 202 83c76 0 144 -27 200 -83zM71 322c0 259 208 467 469 468c258 2 469 -208 469 -468c0 -259 -210 -469 -469 -469
s-469 210 -469 469zM41 322c0 -276 223 -499 499 -499s499 223 499 499c0 277 -224 500 -499 498c-277 -1 -499 -223 -499 -498z" />
    <glyph glyph-name="x" unicode="x" 
d="M543 481c-87 0 -159 -69 -160 -156s69 -158 156 -159c87 -2 159 69 159 156s-69 159 -155 159zM540 243c-44 2 -79 38 -79 81c1 44 36 80 80 79c44 0 80 -37 79 -80c0 -44 -36 -80 -80 -80zM538 633h-1v0h-199h-66h-19c-13 0 -25 -12 -25 -25v-18v-50v-218
c0 -171 139 -310 310 -310c172 0 311 139 311 310c0 172 -139 311 -311 311zM325 327c1 118 99 214 218 213c118 -1 214 -99 213 -217c-1 -119 -99 -215 -217 -214c-119 1 -215 99 -214 218zM71 322c0 259 208 467 469 468c258 2 469 -208 469 -468
c0 -259 -210 -469 -469 -469s-469 210 -469 469zM41 322c0 -276 223 -499 499 -499s499 223 499 499c0 277 -224 500 -499 498c-277 -1 -499 -223 -499 -498z" />
    <glyph glyph-name="y" unicode="y" 
d="M544 114c0 0 124 0 205 6c13 3 38 3 61 26c18 18 22 58 22 58s7 48 7 96v43c0 49 -7 98 -7 98s-4 40 -22 57c-23 25 -48 25 -61 26c-81 5 -205 5 -205 5h-2s-123 0 -206 -5c-12 -1 -36 -1 -60 -26c-18 -17 -22 -57 -22 -57s-7 -49 -7 -98v-43c0 -48 7 -96 7 -96
s4 -40 22 -58c24 -23 52 -23 66 -26c48 -5 202 -6 202 -6zM445 207v244l234 -122zM71 322c0 259 208 467 469 468c258 2 469 -208 469 -468c0 -259 -210 -469 -469 -469s-469 210 -469 469zM41 322c0 -276 223 -499 499 -499s499 223 499 499c0 277 -224 500 -499 498
c-277 -1 -499 -223 -499 -498z" />
    <glyph glyph-name="z" unicode="z" 
d="M671 20c42 0 90 38 105 77c13 40 -15 55 -38 74c-17 13 -36 24 -53 35c-33 26 -66 28 -92 -13c-14 -21 -34 -21 -55 -12c-59 25 -105 67 -131 128c-12 26 -12 50 16 67c15 10 29 22 29 46c-3 26 -71 120 -98 130c-11 5 -23 5 -35 0c-62 -22 -88 -73 -64 -134
c76 -184 208 -313 390 -390c10 -7 21 -7 26 -8zM538 562c-9 0 -30 8 -30 -14c-1 -15 16 -11 25 -15c135 -20 195 -83 214 -218c0 -10 -5 -30 13 -30c20 0 13 17 13 30c3 126 -107 242 -235 247zM709 338c0 77 -67 149 -148 160c-14 2 -29 7 -33 -11c-4 -19 14 -17 27 -19
c83 -20 111 -49 125 -130c1 -12 -3 -29 17 -28c16 3 9 20 12 28zM647 352c0 38 -43 83 -79 81c-9 0 -17 0 -21 -9c-5 -14 6 -18 15 -20c34 -4 54 -26 55 -59c2 -7 8 -15 16 -15c14 2 14 13 14 22zM71 322c0 259 208 467 469 468c258 2 469 -208 469 -468
c0 -259 -210 -469 -469 -469s-469 210 -469 469zM41 322c0 -276 223 -499 499 -499s499 223 499 499c0 277 -224 500 -499 498c-277 -1 -499 -223 -499 -498z" />
    <glyph glyph-name="space" unicode=" " horiz-adv-x="200" 
 />
  </font>
</defs>
</svg>
