<?xml version="1.0" encoding="UTF-8"?>
<!DOCTYPE svg PUBLIC "-//W3C//DTD SVG 1.1//EN" "http://www.w3.org/Graphics/SVG/1.1/DTD/svg11.dtd">
<!-- Creator: CorelDRAW 2017 -->
<svg xmlns="http://www.w3.org/2000/svg" xml:space="preserve" width="500px" height="500px" version="1.1" style="shape-rendering:geometricPrecision; text-rendering:geometricPrecision; image-rendering:optimizeQuality; fill-rule:evenodd; clip-rule:evenodd"
viewBox="0 0 500 500"
 xmlns:xlink="http://www.w3.org/1999/xlink">
 <defs>
  <style type="text/css">
   <![CDATA[
    .str1 {stroke:#0F7699;stroke-width:20;stroke-miterlimit:22.9256}
    .str0 {stroke:#2B2A29;stroke-width:20;stroke-miterlimit:22.9256}
    .fil1 {fill:#0F7699}
    .fil0 {fill:#2B2A29}
    .fil2 {fill:#2B2A29}
    .fil3 {fill:#0F7699;fill-rule:nonzero}
   ]]>
  </style>
 </defs>
 <g id="Слой_x0020_1">
  <metadata id="CorelCorpID_0Corel-Layer"/>
  <path class="fil0 str0" d="M24.73 110.09l-0.16 -42.57c0,-5.29 4.32,-9.62 9.62,-9.62l0 0 0 0 140.15 0c4.25,0 7.74,3.5 7.74,7.75l0 38.01 286.93 0c3.55,0 6.43,2.88 6.43,6.43l0 325.58c0,3.55 -2.88,6.43 -6.43,6.43l-437.86 0c-3.54,0 -6.42,-2.88 -6.42,-6.43l0 -325.58z"/>
  <path class="fil1" d="M56.83 122.82l390.64 0c6.25,0 11.33,4.87 11.33,10.87l0 275.84c0,6 -5.08,10.87 -11.33,10.87l-390.64 0c-6.26,0 -11.33,-4.87 -11.33,-10.87l0 -275.84c0,-6 5.07,-10.87 11.33,-10.87z"/>
  <rect class="fil2" x="29.28" y="211.25" width="441.44" height="111.75"/>
  <path class="fil3" d="M57.55 280.76l8.86 -1.08c0.28,2.27 1.04,4 2.27,5.2 1.23,1.2 2.72,1.8 4.47,1.8 1.88,0 3.45,-0.72 4.74,-2.16 1.28,-1.43 1.92,-3.36 1.92,-5.81 0,-2.3 -0.61,-4.13 -1.84,-5.47 -1.23,-1.35 -2.73,-2.03 -4.51,-2.03 -1.17,0 -2.56,0.24 -4.18,0.69l1.01 -7.42c2.47,0.07 4.35,-0.48 5.65,-1.62 1.3,-1.14 1.94,-2.66 1.94,-4.56 0,-1.61 -0.48,-2.89 -1.43,-3.85 -0.96,-0.96 -2.23,-1.44 -3.81,-1.44 -1.57,0 -2.9,0.55 -4,1.64 -1.11,1.09 -1.78,2.68 -2.03,4.76l-8.4 -1.43c0.59,-2.91 1.47,-5.23 2.66,-6.98 1.18,-1.73 2.83,-3.1 4.94,-4.1 2.11,-0.99 4.49,-1.49 7.12,-1.49 4.48,0 8.08,1.44 10.8,4.31 2.23,2.36 3.35,5.03 3.35,7.99 0,4.2 -2.29,7.57 -6.88,10.07 2.74,0.59 4.91,1.9 6.56,3.95 1.63,2.04 2.45,4.51 2.45,7.39 0,4.19 -1.53,7.77 -4.58,10.73 -3.06,2.95 -6.86,4.43 -11.42,4.43 -4.31,0 -7.89,-1.24 -10.72,-3.74 -2.84,-2.49 -4.49,-5.75 -4.94,-9.78z"/>
  <path id="1" class="fil3" d="M96.96 245.68l17.58 0c3.96,0 6.98,0.3 9.06,0.91 2.79,0.82 5.19,2.29 7.18,4.4 2,2.1 3.51,4.68 4.55,7.73 1.04,3.05 1.56,6.82 1.56,11.28 0,3.94 -0.49,7.31 -1.47,10.16 -1.18,3.48 -2.88,6.29 -5.1,8.43 -1.66,1.63 -3.92,2.9 -6.75,3.81 -2.12,0.68 -4.96,1.01 -8.51,1.01l-18.1 0 0 -47.73zm9.66 8.07l0 31.6 7.17 0c2.68,0 4.61,-0.16 5.8,-0.46 1.57,-0.39 2.86,-1.05 3.88,-1.99 1.03,-0.93 1.87,-2.46 2.51,-4.6 0.65,-2.13 0.98,-5.05 0.98,-8.74 0,-3.69 -0.33,-6.51 -0.98,-8.49 -0.64,-1.98 -1.56,-3.51 -2.72,-4.62 -1.17,-1.1 -2.65,-1.86 -4.45,-2.25 -1.33,-0.3 -3.96,-0.45 -7.87,-0.45l-4.32 0z"/>
  <polygon id="2" class="fil3" points="163.49,293.41 163.49,245.68 177.97,245.68 186.52,278.24 194.98,245.68 209.49,245.68 209.49,293.41 200.56,293.41 200.52,255.84 191.11,293.41 181.82,293.41 172.46,255.84 172.42,293.41 "/>
  <path id="3" class="fil3" d="M217.16 269.84c0,-4.87 0.73,-8.96 2.19,-12.27 1.07,-2.43 2.56,-4.62 4.44,-6.56 1.88,-1.93 3.93,-3.36 6.17,-4.31 2.98,-1.25 6.41,-1.89 10.3,-1.89 7.04,0 12.66,2.19 16.9,6.56 4.22,4.38 6.33,10.46 6.33,18.24 0,7.73 -2.1,13.77 -6.29,18.13 -4.19,4.36 -9.8,6.54 -16.81,6.54 -7.1,0 -12.76,-2.17 -16.94,-6.51 -4.19,-4.33 -6.29,-10.31 -6.29,-17.93zm9.93 -0.33c0,5.41 1.26,9.52 3.76,12.31 2.5,2.79 5.67,4.19 9.52,4.19 3.85,0 7.01,-1.38 9.49,-4.15 2.46,-2.78 3.7,-6.94 3.7,-12.48 0,-5.48 -1.2,-9.57 -3.61,-12.25 -2.4,-2.7 -5.59,-4.05 -9.58,-4.05 -3.98,0 -7.19,1.37 -9.62,4.09 -2.44,2.73 -3.66,6.84 -3.66,12.34z"/>
  <path id="4" class="fil3" d="M274 245.68l32.94 0 0 39.67 4.19 0 0 18.46 -8.06 0 0 -10.4 -29.94 0 0 10.4 -8.06 0 0 -18.46 4.07 0c1.97,-4.08 3.28,-8.81 3.92,-14.19 0.63,-5.39 0.94,-12.2 0.94,-20.43l0 -5.05zm9.2 8.07c0,14.44 -1.33,24.98 -4,31.6l18.07 0 0 -31.6 -14.07 0z"/>
  <polygon id="5" class="fil3" points="317.62,293.41 317.62,245.68 352.96,245.68 352.96,253.75 327.29,253.75 327.29,264.35 351.16,264.35 351.16,272.41 327.29,272.41 327.29,285.35 353.89,285.35 353.89,293.41 "/>
  <path id="6" class="fil3" d="M365.52 245.68l33.44 0 0 47.73 -9.67 0 0 -39.66 -14.33 0 0 20.38c0,5.83 -0.2,9.91 -0.59,12.21 -0.39,2.31 -1.34,4.12 -2.85,5.41 -1.51,1.29 -3.86,1.93 -7.07,1.93 -1.14,0 -3.18,-0.11 -6.16,-0.32l0 -7.48 2.16 0.03c2.01,0 3.37,-0.26 4.06,-0.81 0.7,-0.54 1.05,-1.88 1.05,-4l-0.04 -8.2 0 -27.22z"/>
  <polygon id="7" class="fil3" points="409,245.68 418,245.68 418,277.46 437.33,245.68 446.93,245.68 446.93,293.41 437.93,293.41 437.93,262.15 418.6,293.41 409,293.41 "/>
  <path class="fil1 str1" d="M60.63 84.72l87.54 0c4.83,-0.02 4.83,-0.02 4.83,4.51l0 31.96 -97.5 0.81 0 -33.35c0,-3.07 2.95,-3.95 5.13,-3.93l0 0 0 0z"/>
 </g>
</svg>
