<?xml version="1.0" encoding="UTF-8"?>
<!DOCTYPE svg PUBLIC "-//W3C//DTD SVG 1.1//EN" "http://www.w3.org/Graphics/SVG/1.1/DTD/svg11.dtd">
<!-- Creator: CorelDRAW 2017 -->
<svg xmlns="http://www.w3.org/2000/svg" xml:space="preserve" width="500px" height="500px" version="1.1" style="shape-rendering:geometricPrecision; text-rendering:geometricPrecision; image-rendering:optimizeQuality; fill-rule:evenodd; clip-rule:evenodd"
viewBox="0 0 500 500"
 xmlns:xlink="http://www.w3.org/1999/xlink">
 <defs>
  <style type="text/css">
   <![CDATA[
    .str1 {stroke:#0F7699;stroke-width:20;stroke-miterlimit:22.9256}
    .str0 {stroke:#2B2A29;stroke-width:20;stroke-miterlimit:22.9256}
    .fil1 {fill:#0F7699}
    .fil0 {fill:#2B2A29}
    .fil2 {fill:#2B2A29}
    .fil3 {fill:#0F7699;fill-rule:nonzero}
   ]]>
  </style>
 </defs>
 <g id="Слой_x0020_1">
  <metadata id="CorelCorpID_0Corel-Layer"/>
  <path class="fil0 str0" d="M24.73 110.09l-0.16 -42.57c0,-5.29 4.32,-9.62 9.62,-9.62l0 0 0 0 140.15 0c4.25,0 7.74,3.5 7.74,7.75l0 38.01 286.93 0c3.55,0 6.43,2.88 6.43,6.43l0 325.58c0,3.55 -2.88,6.43 -6.43,6.43l-437.86 0c-3.54,0 -6.42,-2.88 -6.42,-6.43l0 -325.58z"/>
  <path class="fil1" d="M56.83 122.82l390.64 0c6.25,0 11.33,4.87 11.33,10.87l0 275.84c0,6 -5.08,10.87 -11.33,10.87l-390.64 0c-6.26,0 -11.33,-4.87 -11.33,-10.87l0 -275.84c0,-6 5.07,-10.87 11.33,-10.87z"/>
  <rect class="fil2" x="29.28" y="211.25" width="441.44" height="111.75"/>
  <path class="fil3" d="M145.79 293.41l-10.42 0 -4.12 -10.86 -19.14 0 -3.97 10.86 -10.22 0 18.53 -47.73 10.21 0 19.13 47.73zm-17.67 -18.93l-6.63 -17.67 -6.45 17.67 13.08 0z"/>
  <polygon id="1" class="fil3" points="150.93,293.41 150.93,245.68 160.28,245.68 179.93,277.67 179.93,245.68 188.86,245.68 188.86,293.41 179.21,293.41 159.86,262.04 159.86,293.41 "/>
  <path id="2" class="fil3" d="M199.07 245.68l17.58 0c3.97,0 6.99,0.3 9.07,0.91 2.79,0.82 5.19,2.29 7.18,4.4 2,2.1 3.51,4.68 4.55,7.73 1.03,3.05 1.56,6.82 1.56,11.28 0,3.94 -0.49,7.31 -1.47,10.16 -1.19,3.48 -2.89,6.29 -5.1,8.43 -1.67,1.63 -3.92,2.9 -6.76,3.81 -2.12,0.68 -4.95,1.01 -8.51,1.01l-18.1 0 0 -47.73zm9.67 8.07l0 31.6 7.17 0c2.67,0 4.61,-0.16 5.8,-0.46 1.56,-0.39 2.85,-1.05 3.87,-1.99 1.04,-0.93 1.87,-2.46 2.52,-4.6 0.65,-2.13 0.97,-5.05 0.97,-8.74 0,-3.69 -0.32,-6.51 -0.97,-8.49 -0.65,-1.98 -1.56,-3.51 -2.73,-4.62 -1.16,-1.1 -2.64,-1.86 -4.44,-2.25 -1.33,-0.3 -3.97,-0.45 -7.88,-0.45l-4.31 0z"/>
  <path id="3" class="fil3" d="M247.22 293.41l0 -47.73 20.3 0c5.1,0 8.81,0.43 11.12,1.29 2.32,0.86 4.17,2.38 5.56,4.57 1.38,2.2 2.08,4.7 2.08,7.52 0,3.59 -1.04,6.54 -3.14,8.88 -2.1,2.33 -5.23,3.8 -9.41,4.41 2.08,1.21 3.79,2.54 5.13,4 1.36,1.45 3.18,4.04 5.47,7.75l5.82 9.31 -11.52 0 -6.91 -10.42c-2.48,-3.7 -4.18,-6.03 -5.1,-7 -0.91,-0.95 -1.88,-1.62 -2.9,-1.98 -1.04,-0.35 -2.66,-0.53 -4.88,-0.53l-1.96 0 0 19.93 -9.66 0zm9.66 -27.53l7.14 0c4.62,0 7.5,-0.2 8.65,-0.59 1.15,-0.39 2.06,-1.06 2.7,-2.02 0.66,-0.96 0.98,-2.16 0.98,-3.59 0,-1.61 -0.43,-2.9 -1.29,-3.9 -0.85,-0.99 -2.07,-1.61 -3.62,-1.87 -0.79,-0.11 -3.13,-0.16 -7.03,-0.16l-7.53 0 0 12.13z"/>
  <path id="4" class="fil3" d="M293.36 269.84c0,-4.87 0.74,-8.96 2.19,-12.27 1.08,-2.43 2.57,-4.62 4.45,-6.56 1.87,-1.93 3.93,-3.36 6.16,-4.31 2.98,-1.25 6.41,-1.89 10.3,-1.89 7.05,0 12.67,2.19 16.9,6.56 4.22,4.38 6.34,10.46 6.34,18.24 0,7.73 -2.1,13.77 -6.29,18.13 -4.19,4.36 -9.8,6.54 -16.81,6.54 -7.1,0 -12.76,-2.17 -16.95,-6.51 -4.19,-4.33 -6.29,-10.31 -6.29,-17.93zm9.94 -0.33c0,5.41 1.25,9.52 3.75,12.31 2.5,2.79 5.68,4.19 9.52,4.19 3.86,0 7.01,-1.38 9.49,-4.15 2.47,-2.78 3.7,-6.94 3.7,-12.48 0,-5.48 -1.2,-9.57 -3.61,-12.25 -2.4,-2.7 -5.59,-4.05 -9.58,-4.05 -3.97,0 -7.19,1.37 -9.62,4.09 -2.43,2.73 -3.65,6.84 -3.65,12.34z"/>
  <polygon id="5" class="fil3" points="346.88,293.41 346.88,245.68 356.55,245.68 356.55,293.41 "/>
  <path id="6" class="fil3" d="M365.74 245.68l17.58 0c3.96,0 6.99,0.3 9.06,0.91 2.79,0.82 5.19,2.29 7.18,4.4 2,2.1 3.51,4.68 4.56,7.73 1.03,3.05 1.55,6.82 1.55,11.28 0,3.94 -0.49,7.31 -1.46,10.16 -1.19,3.48 -2.89,6.29 -5.1,8.43 -1.67,1.63 -3.93,2.9 -6.76,3.81 -2.12,0.68 -4.96,1.01 -8.51,1.01l-18.1 0 0 -47.73zm9.67 8.07l0 31.6 7.16 0c2.68,0 4.61,-0.16 5.8,-0.46 1.57,-0.39 2.86,-1.05 3.88,-1.99 1.03,-0.93 1.87,-2.46 2.51,-4.6 0.66,-2.13 0.98,-5.05 0.98,-8.74 0,-3.69 -0.32,-6.51 -0.98,-8.49 -0.64,-1.98 -1.55,-3.51 -2.72,-4.62 -1.17,-1.1 -2.64,-1.86 -4.44,-2.25 -1.34,-0.3 -3.97,-0.45 -7.88,-0.45l-4.31 0z"/>
  <path class="fil1 str1" d="M60.63 84.72l87.54 0c4.83,-0.02 4.83,-0.02 4.83,4.51l0 31.96 -97.5 0.81 0 -33.35c0,-3.07 2.95,-3.95 5.13,-3.93l0 0 0 0z"/>
 </g>
</svg>
