<?xml version="1.0" encoding="UTF-8"?>
<!DOCTYPE svg PUBLIC "-//W3C//DTD SVG 1.1//EN" "http://www.w3.org/Graphics/SVG/1.1/DTD/svg11.dtd">
<!-- Creator: CorelDRAW 2017 -->
<svg xmlns="http://www.w3.org/2000/svg" xml:space="preserve" width="500px" height="500px" version="1.1" style="shape-rendering:geometricPrecision; text-rendering:geometricPrecision; image-rendering:optimizeQuality; fill-rule:evenodd; clip-rule:evenodd"
viewBox="0 0 500 500"
 xmlns:xlink="http://www.w3.org/1999/xlink">
 <defs>
  <style type="text/css">
   <![CDATA[
    .str1 {stroke:#0F7699;stroke-width:20;stroke-miterlimit:22.9256}
    .str0 {stroke:#2B2A29;stroke-width:20;stroke-miterlimit:22.9256}
    .fil1 {fill:#0F7699}
    .fil0 {fill:#2B2A29}
    .fil2 {fill:#2B2A29}
    .fil3 {fill:#0F7699;fill-rule:nonzero}
   ]]>
  </style>
 </defs>
 <g id="Слой_x0020_1">
  <metadata id="CorelCorpID_0Corel-Layer"/>
  <path class="fil0 str0" d="M24.73 110.09l-0.16 -42.57c0,-5.29 4.32,-9.62 9.62,-9.62l0 0 0 0 140.15 0c4.25,0 7.74,3.5 7.74,7.75l0 38.01 286.93 0c3.55,0 6.43,2.88 6.43,6.43l0 325.58c0,3.55 -2.88,6.43 -6.43,6.43l-437.86 0c-3.54,0 -6.42,-2.88 -6.42,-6.43l0 -325.58z"/>
  <path class="fil1" d="M56.83 122.82l390.64 0c6.25,0 11.33,4.87 11.33,10.87l0 275.84c0,6 -5.08,10.87 -11.33,10.87l-390.64 0c-6.26,0 -11.33,-4.87 -11.33,-10.87l0 -275.84c0,-6 5.07,-10.87 11.33,-10.87z"/>
  <rect class="fil2" x="29.28" y="211.25" width="441.44" height="111.75"/>
  <path class="fil3" d="M45.64 245.68l33.43 0 0 47.73 -9.67 0 0 -39.66 -14.33 0 0 20.38c0,5.83 -0.2,9.91 -0.59,12.21 -0.39,2.31 -1.33,4.12 -2.84,5.41 -1.52,1.29 -3.87,1.93 -7.08,1.93 -1.14,0 -3.18,-0.11 -6.16,-0.32l0 -7.48 2.16 0.03c2.01,0 3.38,-0.26 4.06,-0.81 0.7,-0.54 1.05,-1.88 1.05,-4l-0.03 -8.2 0 -27.22z"/>
  <polygon id="1" class="fil3" points="89.11,245.68 98.11,245.68 98.11,277.46 117.45,245.68 127.05,245.68 127.05,293.41 118.05,293.41 118.05,262.15 98.71,293.41 89.11,293.41 "/>
  <polygon id="2" class="fil3" points="147.64,293.41 147.64,253.75 133.5,253.75 133.5,245.68 171.37,245.68 171.37,253.75 157.3,253.75 157.3,293.41 "/>
  <polygon id="3" class="fil3" points="177.62,293.41 177.62,245.68 212.96,245.68 212.96,253.75 187.29,253.75 187.29,264.35 211.16,264.35 211.16,272.41 187.29,272.41 187.29,285.35 213.89,285.35 213.89,293.41 "/>
  <path id="4" class="fil3" d="M222.09 293.41l0 -47.73 15.46 0c5.85,0 9.66,0.23 11.44,0.71 2.73,0.72 5.02,2.28 6.87,4.68 1.84,2.4 2.76,5.5 2.76,9.3 0,2.93 -0.53,5.39 -1.59,7.39 -1.06,2 -2.41,3.56 -4.04,4.71 -1.63,1.13 -3.3,1.89 -4.99,2.26 -2.3,0.45 -5.62,0.68 -9.98,0.68l-6.26 0 0 18 -9.67 0zm9.67 -39.66l0 13.6 5.25 0c3.79,0 6.31,-0.26 7.59,-0.76 1.28,-0.5 2.28,-1.28 3,-2.35 0.72,-1.07 1.09,-2.3 1.09,-3.73 0,-1.74 -0.51,-3.17 -1.52,-4.31 -1.02,-1.13 -2.3,-1.84 -3.87,-2.13 -1.14,-0.21 -3.44,-0.32 -6.91,-0.32l-4.63 0z"/>
  <path id="5" class="fil3" d="M303.7 293.41l-10.41 0 -4.12 -10.86 -19.15 0 -3.96 10.86 -10.23 0 18.54 -47.73 10.21 0 19.12 47.73zm-17.67 -18.93l-6.63 -17.67 -6.44 17.67 13.07 0z"/>
  <polygon id="6" class="fil3" points="316.26,293.41 316.26,253.75 302.12,253.75 302.12,245.68 339.99,245.68 339.99,253.75 325.92,253.75 325.92,293.41 "/>
  <path id="7" class="fil3" d="M341.35 245.68l10.85 0 11.11 24.71 9.51 -24.71 10.06 0 -16.15 36.28c-1.75,3.93 -3.54,6.92 -5.36,8.98 -1.82,2.05 -4.17,3.07 -7.06,3.07 -2.84,0 -5.07,-0.19 -6.66,-0.55l0 -7.18c1.36,0.09 2.6,0.13 3.69,0.13 2.23,0 3.83,-0.41 4.79,-1.22 0.96,-0.82 1.89,-2.59 2.77,-5.29l-17.55 -34.22z"/>
  <path id="8" class="fil3" d="M387.71 293.41l0 -47.73 15.46 0c5.85,0 9.66,0.23 11.44,0.71 2.74,0.72 5.02,2.28 6.87,4.68 1.84,2.4 2.77,5.5 2.77,9.3 0,2.93 -0.54,5.39 -1.59,7.39 -1.07,2 -2.42,3.56 -4.05,4.71 -1.63,1.13 -3.3,1.89 -4.99,2.26 -2.3,0.45 -5.62,0.68 -9.97,0.68l-6.27 0 0 18 -9.67 0zm9.67 -39.66l0 13.6 5.25 0c3.79,0 6.31,-0.26 7.59,-0.76 1.28,-0.5 2.28,-1.28 3,-2.35 0.72,-1.07 1.09,-2.3 1.09,-3.73 0,-1.74 -0.51,-3.17 -1.52,-4.31 -1.02,-1.13 -2.3,-1.84 -3.87,-2.13 -1.14,-0.21 -3.44,-0.32 -6.91,-0.32l-4.63 0z"/>
  <path id="9" class="fil3" d="M469.32 293.41l-10.41 0 -4.12 -10.86 -19.15 0 -3.96 10.86 -10.22 0 18.53 -47.73 10.21 0 19.12 47.73zm-17.67 -18.93l-6.63 -17.67 -6.44 17.67 13.07 0z"/>
  <path class="fil1 str1" d="M60.63 84.72l87.54 0c4.83,-0.02 4.83,-0.02 4.83,4.51l0 31.96 -97.5 0.81 0 -33.35c0,-3.07 2.95,-3.95 5.13,-3.93l0 0 0 0z"/>
 </g>
</svg>
