<?xml version="1.0" encoding="UTF-8"?>
<!DOCTYPE svg PUBLIC "-//W3C//DTD SVG 1.1//EN" "http://www.w3.org/Graphics/SVG/1.1/DTD/svg11.dtd">
<!-- Creator: CorelDRAW 2017 -->
<svg xmlns="http://www.w3.org/2000/svg" xml:space="preserve" width="500px" height="500px" version="1.1" style="shape-rendering:geometricPrecision; text-rendering:geometricPrecision; image-rendering:optimizeQuality; fill-rule:evenodd; clip-rule:evenodd"
viewBox="0 0 500 500"
 xmlns:xlink="http://www.w3.org/1999/xlink">
 <defs>
  <style type="text/css">
   <![CDATA[
    .str1 {stroke:#0F7699;stroke-width:20;stroke-miterlimit:22.9256}
    .str0 {stroke:#2B2A29;stroke-width:20;stroke-miterlimit:22.9256}
    .fil1 {fill:#0F7699}
    .fil0 {fill:#2B2A29}
    .fil2 {fill:#2B2A29}
    .fil3 {fill:#0F7699;fill-rule:nonzero}
   ]]>
  </style>
 </defs>
 <g id="Слой_x0020_1">
  <metadata id="CorelCorpID_0Corel-Layer"/>
  <path class="fil0 str0" d="M24.73 110.09l-0.16 -42.57c0,-5.29 4.32,-9.62 9.62,-9.62l0 0 0 0 140.15 0c4.25,0 7.74,3.5 7.74,7.75l0 38.01 286.93 0c3.55,0 6.43,2.88 6.43,6.43l0 325.58c0,3.55 -2.88,6.43 -6.43,6.43l-437.86 0c-3.54,0 -6.42,-2.88 -6.42,-6.43l0 -325.58z"/>
  <path class="fil1" d="M56.83 122.82l390.64 0c6.25,0 11.33,4.87 11.33,10.87l0 275.84c0,6 -5.08,10.87 -11.33,10.87l-390.64 0c-6.26,0 -11.33,-4.87 -11.33,-10.87l0 -275.84c0,-6 5.07,-10.87 11.33,-10.87z"/>
  <rect class="fil2" x="29.28" y="211.25" width="441.44" height="111.75"/>
  <path class="fil3" d="M113.88 293.41l0 -47.73 15.46 0c5.86,0 9.67,0.23 11.45,0.71 2.73,0.72 5.02,2.28 6.86,4.68 1.85,2.4 2.77,5.5 2.77,9.3 0,2.93 -0.54,5.39 -1.59,7.39 -1.07,2 -2.41,3.56 -4.05,4.71 -1.63,1.13 -3.3,1.89 -4.98,2.26 -2.3,0.45 -5.63,0.68 -9.98,0.68l-6.27 0 0 18 -9.67 0zm9.67 -39.66l0 13.6 5.26 0c3.79,0 6.31,-0.26 7.59,-0.76 1.27,-0.5 2.27,-1.28 3,-2.35 0.72,-1.07 1.09,-2.3 1.09,-3.73 0,-1.74 -0.52,-3.17 -1.53,-4.31 -1.02,-1.13 -2.3,-1.84 -3.86,-2.13 -1.15,-0.21 -3.45,-0.32 -6.91,-0.32l-4.64 0z"/>
  <path id="1" class="fil3" d="M188.88 275.81l9.34 2.87c-1.44,5.26 -3.82,9.16 -7.16,11.71 -3.33,2.55 -7.55,3.82 -12.68,3.82 -6.34,0 -11.55,-2.16 -15.64,-6.5 -4.08,-4.33 -6.12,-10.25 -6.12,-17.77 0,-7.95 2.05,-14.13 6.15,-18.53 4.1,-4.4 9.5,-6.6 16.19,-6.6 5.85,0 10.59,1.74 14.24,5.19 2.17,2.05 3.8,4.98 4.88,8.81l-9.53 2.27c-0.57,-2.47 -1.74,-4.42 -3.53,-5.85 -1.8,-1.44 -3.98,-2.15 -6.53,-2.15 -3.55,0 -6.43,1.27 -8.63,3.81 -2.21,2.54 -3.31,6.65 -3.31,12.33 0,6.03 1.09,10.33 3.26,12.88 2.17,2.57 5,3.85 8.47,3.85 2.57,0 4.78,-0.81 6.63,-2.45 1.84,-1.63 3.17,-4.19 3.97,-7.69z"/>
  <path id="2" class="fil3" d="M222.48 277.95l9.4 -0.94c0.57,3.15 1.7,5.45 3.43,6.93 1.72,1.47 4.04,2.21 6.96,2.21 3.09,0 5.43,-0.66 6.99,-1.97 1.57,-1.31 2.36,-2.84 2.36,-4.6 0,-1.13 -0.34,-2.09 -0.99,-2.89 -0.66,-0.79 -1.81,-1.48 -3.46,-2.05 -1.12,-0.4 -3.67,-1.09 -7.67,-2.09 -5.15,-1.29 -8.76,-2.87 -10.84,-4.75 -2.92,-2.63 -4.38,-5.84 -4.38,-9.63 0,-2.43 0.69,-4.72 2.06,-6.84 1.38,-2.13 3.36,-3.74 5.94,-4.85 2.59,-1.11 5.7,-1.67 9.37,-1.67 5.97,0 10.47,1.33 13.48,3.98 3.02,2.66 4.6,6.19 4.75,10.62l-9.66 0.34c-0.41,-2.47 -1.29,-4.24 -2.64,-5.31 -1.34,-1.08 -3.36,-1.63 -6.05,-1.63 -2.78,0 -4.96,0.58 -6.52,1.74 -1.01,0.74 -1.53,1.73 -1.53,2.97 0,1.14 0.48,2.1 1.44,2.91 1.21,1.03 4.15,2.1 8.83,3.21 4.68,1.1 8.13,2.25 10.37,3.43 2.24,1.19 4,2.8 5.26,4.85 1.27,2.06 1.9,4.59 1.9,7.61 0,2.73 -0.75,5.29 -2.27,7.68 -1.53,2.39 -3.67,4.17 -6.45,5.33 -2.78,1.16 -6.24,1.74 -10.39,1.74 -6.03,0 -10.66,-1.39 -13.9,-4.18 -3.23,-2.77 -5.15,-6.83 -5.79,-12.15z"/>
  <path id="3" class="fil3" d="M267.48 269.84c0,-4.87 0.74,-8.96 2.19,-12.27 1.08,-2.43 2.57,-4.62 4.45,-6.56 1.87,-1.93 3.93,-3.36 6.16,-4.31 2.98,-1.25 6.41,-1.89 10.3,-1.89 7.05,0 12.67,2.19 16.9,6.56 4.23,4.38 6.34,10.46 6.34,18.24 0,7.73 -2.1,13.77 -6.29,18.13 -4.19,4.36 -9.8,6.54 -16.81,6.54 -7.1,0 -12.76,-2.17 -16.95,-6.51 -4.19,-4.33 -6.29,-10.31 -6.29,-17.93zm9.94 -0.33c0,5.41 1.25,9.52 3.75,12.31 2.5,2.79 5.68,4.19 9.53,4.19 3.85,0 7.01,-1.38 9.48,-4.15 2.47,-2.78 3.7,-6.94 3.7,-12.48 0,-5.48 -1.2,-9.57 -3.61,-12.25 -2.4,-2.7 -5.59,-4.05 -9.57,-4.05 -3.98,0 -7.19,1.37 -9.63,4.09 -2.43,2.73 -3.65,6.84 -3.65,12.34z"/>
  <polygon id="4" class="fil3" points="321.34,293.41 321.34,245.68 354.14,245.68 354.14,253.75 331.01,253.75 331.01,265.08 351.01,265.08 351.01,273.15 331.01,273.15 331.01,293.41 "/>
  <polygon id="5" class="fil3" points="372.79,293.41 372.79,253.75 358.66,253.75 358.66,245.68 396.53,245.68 396.53,253.75 382.46,253.75 382.46,293.41 "/>
  <path class="fil1 str1" d="M60.63 84.72l87.54 0c4.83,-0.02 4.83,-0.02 4.83,4.51l0 31.96 -97.5 0.81 0 -33.35c0,-3.07 2.95,-3.95 5.13,-3.93l0 0 0 0z"/>
 </g>
</svg>
