<?xml version="1.0" encoding="UTF-8"?>
<!DOCTYPE svg PUBLIC "-//W3C//DTD SVG 1.1//EN" "http://www.w3.org/Graphics/SVG/1.1/DTD/svg11.dtd">
<!-- Creator: CorelDRAW 2017 -->
<svg xmlns="http://www.w3.org/2000/svg" xml:space="preserve" width="500px" height="500px" version="1.1" style="shape-rendering:geometricPrecision; text-rendering:geometricPrecision; image-rendering:optimizeQuality; fill-rule:evenodd; clip-rule:evenodd"
viewBox="0 0 500 500"
 xmlns:xlink="http://www.w3.org/1999/xlink">
 <defs>
  <style type="text/css">
   <![CDATA[
    .str1 {stroke:#0F7699;stroke-width:20;stroke-miterlimit:22.9256}
    .str0 {stroke:#2B2A29;stroke-width:20;stroke-miterlimit:22.9256}
    .fil1 {fill:#0F7699}
    .fil0 {fill:#2B2A29}
    .fil2 {fill:#2B2A29}
    .fil3 {fill:#0F7699;fill-rule:nonzero}
   ]]>
  </style>
 </defs>
 <g id="Слой_x0020_1">
  <metadata id="CorelCorpID_0Corel-Layer"/>
  <path class="fil0 str0" d="M24.73 110.09l-0.16 -42.57c0,-5.29 4.32,-9.62 9.62,-9.62l0 0 0 0 140.15 0c4.25,0 7.74,3.5 7.74,7.75l0 38.01 286.93 0c3.55,0 6.43,2.88 6.43,6.43l0 325.58c0,3.55 -2.88,6.43 -6.43,6.43l-437.86 0c-3.54,0 -6.42,-2.88 -6.42,-6.43l0 -325.58z"/>
  <path class="fil1" d="M56.83 122.82l390.64 0c6.25,0 11.33,4.87 11.33,10.87l0 275.84c0,6 -5.08,10.87 -11.33,10.87l-390.64 0c-6.26,0 -11.33,-4.87 -11.33,-10.87l0 -275.84c0,-6 5.07,-10.87 11.33,-10.87z"/>
  <rect class="fil2" x="29.28" y="211.25" width="441.44" height="111.75"/>
  <path class="fil3" d="M67.01 293.41l0 -47.73 15.45 0c5.86,0 9.67,0.23 11.45,0.71 2.73,0.72 5.02,2.28 6.86,4.68 1.85,2.4 2.77,5.5 2.77,9.3 0,2.93 -0.53,5.39 -1.59,7.39 -1.06,2 -2.41,3.56 -4.04,4.71 -1.64,1.13 -3.3,1.89 -4.99,2.26 -2.3,0.45 -5.62,0.68 -9.98,0.68l-6.26 0 0 18 -9.67 0zm9.67 -39.66l0 13.6 5.25 0c3.79,0 6.31,-0.26 7.59,-0.76 1.28,-0.5 2.28,-1.28 3,-2.35 0.72,-1.07 1.09,-2.3 1.09,-3.73 0,-1.74 -0.51,-3.17 -1.52,-4.31 -1.03,-1.13 -2.3,-1.84 -3.87,-2.13 -1.15,-0.21 -3.44,-0.32 -6.91,-0.32l-4.63 0z"/>
  <polygon id="1" class="fil3" points="111.61,245.68 120.61,245.68 120.61,277.46 139.94,245.68 149.54,245.68 149.54,293.41 140.54,293.41 140.54,262.15 121.21,293.41 111.61,293.41 "/>
  <polygon id="2" class="fil3" points="159.4,293.41 159.4,245.68 169.06,245.68 169.06,264.48 187.86,264.48 187.86,245.68 197.53,245.68 197.53,293.41 187.86,293.41 187.86,272.55 169.06,272.55 169.06,293.41 "/>
  <polygon id="3" class="fil3" points="208.01,245.68 240.34,245.68 240.34,253.75 217.67,253.75 217.67,293.41 208.01,293.41 "/>
  <polygon id="4" class="fil3" points="256.06,293.41 256.06,253.75 241.93,253.75 241.93,245.68 279.8,245.68 279.8,253.75 265.73,253.75 265.73,293.41 "/>
  <path id="5" class="fil3" d="M282.4 269.84c0,-4.87 0.73,-8.96 2.18,-12.27 1.08,-2.43 2.57,-4.62 4.45,-6.56 1.88,-1.93 3.93,-3.36 6.17,-4.31 2.97,-1.25 6.41,-1.89 10.3,-1.89 7.04,0 12.66,2.19 16.89,6.56 4.23,4.38 6.34,10.46 6.34,18.24 0,7.73 -2.1,13.77 -6.29,18.13 -4.19,4.36 -9.8,6.54 -16.81,6.54 -7.1,0 -12.76,-2.17 -16.95,-6.51 -4.18,-4.33 -6.28,-10.31 -6.28,-17.93zm9.93 -0.33c0,5.41 1.25,9.52 3.75,12.31 2.5,2.79 5.68,4.19 9.53,4.19 3.85,0 7.01,-1.38 9.49,-4.15 2.46,-2.78 3.7,-6.94 3.7,-12.48 0,-5.48 -1.2,-9.57 -3.62,-12.25 -2.4,-2.7 -5.58,-4.05 -9.57,-4.05 -3.98,0 -7.19,1.37 -9.63,4.09 -2.43,2.73 -3.65,6.84 -3.65,12.34z"/>
  <polygon id="6" class="fil3" points="336.25,293.41 336.25,245.68 345.92,245.68 345.92,264.48 364.72,264.48 364.72,245.68 374.38,245.68 374.38,293.41 364.72,293.41 364.72,272.55 345.92,272.55 345.92,293.41 "/>
  <path id="7" class="fil3" d="M384.66 245.68l9.67 0 0 19.07 12.88 0c3.37,0 6.28,0.46 8.72,1.39 2.43,0.92 4.46,2.56 6.1,4.94 1.62,2.38 2.43,5.11 2.43,8.2 0,3.23 -0.84,6.01 -2.53,8.36 -1.7,2.33 -3.58,3.87 -5.66,4.63 -2.06,0.77 -5.1,1.14 -9.09,1.14l-22.52 0 0 -47.73zm9.67 39.67l9.4 0c2.99,0 5.08,-0.15 6.26,-0.44 1.18,-0.28 2.24,-0.95 3.16,-1.99 0.92,-1.03 1.38,-2.28 1.38,-3.77 0,-2.11 -0.76,-3.7 -2.26,-4.76 -1.51,-1.05 -4.23,-1.58 -8.15,-1.58l-9.79 0 0 12.54zm35.66 -39.67l9.67 0 0 47.73 -9.67 0 0 -47.73z"/>
  <path class="fil1 str1" d="M60.63 84.72l87.54 0c4.83,-0.02 4.83,-0.02 4.83,4.51l0 31.96 -97.5 0.81 0 -33.35c0,-3.07 2.95,-3.95 5.13,-3.93l0 0 0 0z"/>
 </g>
</svg>
