<?xml version="1.0" encoding="UTF-8"?>
<!DOCTYPE svg PUBLIC "-//W3C//DTD SVG 1.1//EN" "http://www.w3.org/Graphics/SVG/1.1/DTD/svg11.dtd">
<!-- Creator: CorelDRAW 2017 -->
<svg xmlns="http://www.w3.org/2000/svg" xml:space="preserve" width="500px" height="500px" version="1.1" style="shape-rendering:geometricPrecision; text-rendering:geometricPrecision; image-rendering:optimizeQuality; fill-rule:evenodd; clip-rule:evenodd"
viewBox="0 0 500 500"
 xmlns:xlink="http://www.w3.org/1999/xlink">
 <defs>
  <style type="text/css">
   <![CDATA[
    .str1 {stroke:#0F7699;stroke-width:20;stroke-miterlimit:22.9256}
    .str0 {stroke:#2B2A29;stroke-width:20;stroke-miterlimit:22.9256}
    .fil1 {fill:#0F7699}
    .fil0 {fill:#2B2A29}
    .fil2 {fill:#2B2A29}
    .fil3 {fill:#0F7699;fill-rule:nonzero}
   ]]>
  </style>
 </defs>
 <g id="Слой_x0020_1">
  <metadata id="CorelCorpID_0Corel-Layer"/>
  <path class="fil0 str0" d="M24.73 110.09l-0.16 -42.57c0,-5.29 4.32,-9.62 9.62,-9.62l0 0 0 0 140.15 0c4.25,0 7.74,3.5 7.74,7.75l0 38.01 286.93 0c3.55,0 6.43,2.88 6.43,6.43l0 325.58c0,3.55 -2.88,6.43 -6.43,6.43l-437.86 0c-3.54,0 -6.42,-2.88 -6.42,-6.43l0 -325.58z"/>
  <path class="fil1" d="M56.83 122.82l390.64 0c6.25,0 11.33,4.87 11.33,10.87l0 275.84c0,6 -5.08,10.87 -11.33,10.87l-390.64 0c-6.26,0 -11.33,-4.87 -11.33,-10.87l0 -275.84c0,-6 5.07,-10.87 11.33,-10.87z"/>
  <rect class="fil2" x="29.28" y="211.25" width="441.44" height="111.75"/>
  <polygon class="fil3" points="50.06,293.41 38.84,245.68 48.77,245.68 55.87,278.47 64.59,245.68 76.07,245.68 84.41,279.03 91.67,245.68 101.37,245.68 89.87,293.41 79.55,293.41 70.14,257.73 60.66,293.41 "/>
  <polygon id="1" class="fil3" points="106.43,293.41 106.43,245.68 141.76,245.68 141.76,253.75 116.1,253.75 116.1,264.35 139.96,264.35 139.96,272.41 116.1,272.41 116.1,285.35 142.7,285.35 142.7,293.41 "/>
  <path id="2" class="fil3" d="M150.9 245.68l19.08 0c3.79,0 6.6,0.16 8.46,0.47 1.87,0.32 3.52,0.98 4.99,1.96 1.47,1 2.69,2.33 3.67,3.98 0.97,1.66 1.46,3.52 1.46,5.58 0,2.22 -0.6,4.28 -1.8,6.13 -1.2,1.87 -2.83,3.26 -4.89,4.19 2.9,0.86 5.13,2.3 6.69,4.35 1.56,2.04 2.34,4.44 2.34,7.21 0,2.17 -0.5,4.29 -1.52,6.34 -1.01,2.06 -2.38,3.7 -4.14,4.93 -1.74,1.23 -3.9,1.98 -6.47,2.27 -1.6,0.17 -5.47,0.28 -11.62,0.32l-16.25 0 0 -47.73zm9.66 7.93l0 11 6.31 0c3.75,0 6.08,-0.05 6.99,-0.16 1.65,-0.19 2.95,-0.76 3.89,-1.7 0.95,-0.95 1.41,-2.18 1.41,-3.71 0,-1.48 -0.41,-2.67 -1.22,-3.59 -0.81,-0.93 -2.02,-1.48 -3.62,-1.67 -0.96,-0.11 -3.7,-0.17 -8.22,-0.17l-5.54 0zm0 18.94l0 12.8 8.94 0c3.46,0 5.67,-0.1 6.61,-0.29 1.43,-0.27 2.6,-0.9 3.5,-1.91 0.9,-1.03 1.35,-2.37 1.35,-4.07 0,-1.44 -0.34,-2.66 -1.04,-3.65 -0.69,-1 -1.7,-1.74 -3.01,-2.19 -1.31,-0.46 -4.17,-0.69 -8.56,-0.69l-7.79 0z"/>
  <path id="3" class="fil3" d="M217.56 245.68l17.58 0c3.97,0 6.99,0.3 9.07,0.91 2.79,0.82 5.19,2.29 7.17,4.4 2.01,2.1 3.52,4.68 4.56,7.73 1.03,3.05 1.56,6.82 1.56,11.28 0,3.94 -0.49,7.31 -1.47,10.16 -1.19,3.48 -2.89,6.29 -5.1,8.43 -1.67,1.63 -3.92,2.9 -6.76,3.81 -2.12,0.68 -4.95,1.01 -8.51,1.01l-18.1 0 0 -47.73zm9.67 8.07l0 31.6 7.17 0c2.67,0 4.61,-0.16 5.8,-0.46 1.56,-0.39 2.85,-1.05 3.87,-1.99 1.04,-0.93 1.87,-2.46 2.51,-4.6 0.66,-2.13 0.98,-5.05 0.98,-8.74 0,-3.69 -0.32,-6.51 -0.98,-8.49 -0.64,-1.98 -1.55,-3.51 -2.72,-4.62 -1.16,-1.1 -2.64,-1.86 -4.44,-2.25 -1.33,-0.3 -3.97,-0.45 -7.88,-0.45l-4.31 0z"/>
  <polygon id="4" class="fil3" points="265.71,293.41 265.71,245.68 301.04,245.68 301.04,253.75 275.37,253.75 275.37,264.35 299.24,264.35 299.24,272.41 275.37,272.41 275.37,285.35 301.97,285.35 301.97,293.41 "/>
  <path id="5" class="fil3" d="M307.64 277.95l9.4 -0.94c0.57,3.15 1.7,5.45 3.42,6.93 1.72,1.47 4.05,2.21 6.97,2.21 3.09,0 5.42,-0.66 6.99,-1.97 1.56,-1.31 2.35,-2.84 2.35,-4.6 0,-1.13 -0.33,-2.09 -0.99,-2.89 -0.65,-0.79 -1.81,-1.48 -3.45,-2.05 -1.12,-0.4 -3.68,-1.09 -7.68,-2.09 -5.14,-1.29 -8.75,-2.87 -10.83,-4.75 -2.92,-2.63 -4.38,-5.84 -4.38,-9.63 0,-2.43 0.69,-4.72 2.06,-6.84 1.37,-2.13 3.35,-3.74 5.94,-4.85 2.59,-1.11 5.7,-1.67 9.37,-1.67 5.96,0 10.46,1.33 13.47,3.98 3.03,2.66 4.6,6.19 4.76,10.62l-9.67 0.34c-0.41,-2.47 -1.29,-4.24 -2.63,-5.31 -1.35,-1.08 -3.37,-1.63 -6.06,-1.63 -2.77,0 -4.95,0.58 -6.52,1.74 -1.01,0.74 -1.52,1.73 -1.52,2.97 0,1.14 0.48,2.1 1.43,2.91 1.21,1.03 4.16,2.1 8.84,3.21 4.67,1.1 8.13,2.25 10.36,3.43 2.25,1.19 4,2.8 5.27,4.85 1.27,2.06 1.9,4.59 1.9,7.61 0,2.73 -0.76,5.29 -2.28,7.68 -1.52,2.39 -3.66,4.17 -6.44,5.33 -2.78,1.16 -6.25,1.74 -10.39,1.74 -6.03,0 -10.67,-1.39 -13.9,-4.18 -3.23,-2.77 -5.16,-6.83 -5.79,-12.15z"/>
  <polygon id="6" class="fil3" points="354.31,293.41 354.31,245.68 363.97,245.68 363.97,293.41 "/>
  <polygon id="7" class="fil3" points="373.16,293.41 373.16,245.68 382.52,245.68 402.16,277.67 402.16,245.68 411.09,245.68 411.09,293.41 401.44,293.41 382.09,262.04 382.09,293.41 "/>
  <path id="8" class="fil3" d="M443.51 275.88l0 -8.07 20.73 0 0 19.05c-2.01,1.97 -4.94,3.69 -8.77,5.19 -3.82,1.49 -7.7,2.23 -11.63,2.23 -4.99,0 -9.33,-1.04 -13.05,-3.14 -3.69,-2.1 -6.48,-5.12 -8.35,-9.02 -1.87,-3.9 -2.8,-8.15 -2.8,-12.74 0,-4.98 1.04,-9.4 3.12,-13.28 2.09,-3.86 5.13,-6.84 9.15,-8.91 3.06,-1.59 6.86,-2.38 11.42,-2.38 5.92,0 10.55,1.25 13.89,3.74 3.32,2.5 5.46,5.93 6.42,10.33l-9.6 1.8c-0.67,-2.34 -1.93,-4.2 -3.79,-5.57 -1.84,-1.35 -4.16,-2.03 -6.93,-2.03 -4.2,0 -7.55,1.33 -10.03,4.01 -2.47,2.68 -3.72,6.65 -3.72,11.9 0,5.68 1.26,9.94 3.77,12.77 2.52,2.83 5.81,4.25 9.89,4.25 2.01,0 4.03,-0.4 6.05,-1.19 2.04,-0.78 3.77,-1.75 5.23,-2.88l0 -6.06 -11 0z"/>
  <path class="fil1 str1" d="M60.63 84.72l87.54 0c4.83,-0.02 4.83,-0.02 4.83,4.51l0 31.96 -97.5 0.81 0 -33.35c0,-3.07 2.95,-3.95 5.13,-3.93l0 0 0 0z"/>
 </g>
</svg>
