<?xml version="1.0" encoding="UTF-8"?>
<!DOCTYPE svg PUBLIC "-//W3C//DTD SVG 1.1//EN" "http://www.w3.org/Graphics/SVG/1.1/DTD/svg11.dtd">
<!-- Creator: CorelDRAW 2017 -->
<svg xmlns="http://www.w3.org/2000/svg" xml:space="preserve" width="500px" height="500px" version="1.1" style="shape-rendering:geometricPrecision; text-rendering:geometricPrecision; image-rendering:optimizeQuality; fill-rule:evenodd; clip-rule:evenodd"
viewBox="0 0 500 500"
 xmlns:xlink="http://www.w3.org/1999/xlink">
 <defs>
  <style type="text/css">
   <![CDATA[
    .str1 {stroke:#0F7699;stroke-width:20;stroke-miterlimit:22.9256}
    .str0 {stroke:#2B2A29;stroke-width:20;stroke-miterlimit:22.9256}
    .fil1 {fill:#0F7699}
    .fil0 {fill:#2B2A29}
    .fil2 {fill:#2B2A29}
    .fil3 {fill:#0F7699;fill-rule:nonzero}
   ]]>
  </style>
 </defs>
 <g id="Слой_x0020_1">
  <metadata id="CorelCorpID_0Corel-Layer"/>
  <path class="fil0 str0" d="M24.73 110.09l-0.16 -42.57c0,-5.29 4.32,-9.62 9.62,-9.62l0 0 0 0 140.15 0c4.25,0 7.74,3.5 7.74,7.75l0 38.01 286.93 0c3.55,0 6.43,2.88 6.43,6.43l0 325.58c0,3.55 -2.88,6.43 -6.43,6.43l-437.86 0c-3.54,0 -6.42,-2.88 -6.42,-6.43l0 -325.58z"/>
  <path class="fil1" d="M56.83 122.82l390.64 0c6.25,0 11.33,4.87 11.33,10.87l0 275.84c0,6 -5.08,10.87 -11.33,10.87l-390.64 0c-6.26,0 -11.33,-4.87 -11.33,-10.87l0 -275.84c0,-6 5.07,-10.87 11.33,-10.87z"/>
  <rect class="fil2" x="29.28" y="211.25" width="441.44" height="111.75"/>
  <path class="fil3" d="M156.56 269.84c0,-4.87 0.73,-8.96 2.19,-12.27 1.07,-2.43 2.56,-4.62 4.44,-6.56 1.88,-1.93 3.93,-3.36 6.17,-4.31 2.98,-1.25 6.41,-1.89 10.3,-1.89 7.04,0 12.66,2.19 16.9,6.56 4.22,4.38 6.33,10.46 6.33,18.24 0,7.73 -2.1,13.77 -6.29,18.13 -4.19,4.36 -9.8,6.54 -16.81,6.54 -7.1,0 -12.76,-2.17 -16.94,-6.51 -4.19,-4.33 -6.29,-10.31 -6.29,-17.93zm9.93 -0.33c0,5.41 1.26,9.52 3.76,12.31 2.5,2.79 5.67,4.19 9.52,4.19 3.85,0 7.01,-1.38 9.49,-4.15 2.46,-2.78 3.7,-6.94 3.7,-12.48 0,-5.48 -1.2,-9.57 -3.61,-12.25 -2.4,-2.7 -5.59,-4.05 -9.58,-4.05 -3.98,0 -7.19,1.37 -9.62,4.09 -2.44,2.73 -3.66,6.84 -3.66,12.34z"/>
  <path id="1" class="fil3" d="M210.61 245.68l35.67 0 0 8.07 -26 0 0 11.06 12.88 0c3.54,0 6.5,0.44 8.83,1.3 2.34,0.87 4.34,2.47 6,4.82 1.66,2.33 2.49,5.07 2.49,8.22 0,3.22 -0.83,5.99 -2.51,8.29 -1.67,2.29 -3.57,3.86 -5.71,4.71 -2.14,0.84 -5.18,1.26 -9.13,1.26l-22.52 0 0 -47.73zm9.67 39.67l9.37 0c2.98,0 5.09,-0.15 6.31,-0.44 1.21,-0.28 2.27,-0.94 3.17,-1.97 0.9,-1.03 1.35,-2.29 1.35,-3.79 0,-2.19 -0.79,-3.78 -2.36,-4.78 -1.58,-0.99 -4.25,-1.49 -8.05,-1.49l-9.79 0 0 12.47z"/>
  <path id="2" class="fil3" d="M256.33 269.84c0,-4.87 0.74,-8.96 2.19,-12.27 1.08,-2.43 2.57,-4.62 4.45,-6.56 1.88,-1.93 3.93,-3.36 6.16,-4.31 2.98,-1.25 6.41,-1.89 10.3,-1.89 7.05,0 12.67,2.19 16.9,6.56 4.23,4.38 6.34,10.46 6.34,18.24 0,7.73 -2.1,13.77 -6.29,18.13 -4.19,4.36 -9.8,6.54 -16.81,6.54 -7.1,0 -12.76,-2.17 -16.95,-6.51 -4.19,-4.33 -6.29,-10.31 -6.29,-17.93zm9.94 -0.33c0,5.41 1.25,9.52 3.75,12.31 2.5,2.79 5.68,4.19 9.53,4.19 3.85,0 7.01,-1.38 9.48,-4.15 2.47,-2.78 3.7,-6.94 3.7,-12.48 0,-5.48 -1.2,-9.57 -3.61,-12.25 -2.4,-2.7 -5.59,-4.05 -9.57,-4.05 -3.98,0 -7.19,1.37 -9.63,4.09 -2.43,2.73 -3.65,6.84 -3.65,12.34z"/>
  <polygon id="3" class="fil3" points="310.32,245.68 319.32,245.68 319.32,277.46 338.66,245.68 348.26,245.68 348.26,293.41 339.26,293.41 339.26,262.15 319.92,293.41 310.32,293.41 "/>
  <path class="fil1 str1" d="M60.63 84.72l87.54 0c4.83,-0.02 4.83,-0.02 4.83,4.51l0 31.96 -97.5 0.81 0 -33.35c0,-3.07 2.95,-3.95 5.13,-3.93l0 0 0 0z"/>
 </g>
</svg>
