<?xml version="1.0" encoding="UTF-8"?>
<!DOCTYPE svg PUBLIC "-//W3C//DTD SVG 1.1//EN" "http://www.w3.org/Graphics/SVG/1.1/DTD/svg11.dtd">
<!-- Creator: CorelDRAW 2017 -->
<svg xmlns="http://www.w3.org/2000/svg" xml:space="preserve" width="500px" height="500px" version="1.1" style="shape-rendering:geometricPrecision; text-rendering:geometricPrecision; image-rendering:optimizeQuality; fill-rule:evenodd; clip-rule:evenodd"
viewBox="0 0 500 500"
 xmlns:xlink="http://www.w3.org/1999/xlink">
 <defs>
  <style type="text/css">
   <![CDATA[
    .str1 {stroke:white;stroke-width:5;stroke-miterlimit:22.9256}
    .str0 {stroke:white;stroke-width:6.25;stroke-miterlimit:22.9256}
    .fil105 {fill:none}
    .fil0 {fill:#FFED00}
    .fil104 {fill:#008DD2}
    .fil103 {fill:#008ED3}
    .fil102 {fill:#008FD3}
    .fil101 {fill:#0090D4}
    .fil100 {fill:#0091D4}
    .fil99 {fill:#0092D5}
    .fil98 {fill:#0092D6}
    .fil97 {fill:#0094D6}
    .fil96 {fill:#0095D7}
    .fil95 {fill:#0096D7}
    .fil94 {fill:#0097D8}
    .fil93 {fill:#0098D8}
    .fil92 {fill:#0098D9}
    .fil91 {fill:#0099DA}
    .fil90 {fill:#009ADA}
    .fil89 {fill:#009CDB}
    .fil88 {fill:#009EDC}
    .fil87 {fill:#00A0DD}
    .fil86 {fill:#02A1DD}
    .fil85 {fill:#06A2DE}
    .fil84 {fill:#0CA3DE}
    .fil83 {fill:#10A4DE}
    .fil5 {fill:#145CD9}
    .fil82 {fill:#16A5DF}
    .fil81 {fill:#1AA6DF}
    .fil80 {fill:#22A7E0}
    .fil3 {fill:#2575CF}
    .fil79 {fill:#29A9E0}
    .fil78 {fill:#2EA9E1}
    .fil77 {fill:#35ABE1}
    .fil76 {fill:#3AACE2}
    .fil75 {fill:#41ADE2}
    .fil74 {fill:#46AEE3}
    .fil73 {fill:#4CAFE3}
    .fil72 {fill:#51B1E4}
    .fil71 {fill:#54B2E4}
    .fil70 {fill:#59B3E5}
    .fil69 {fill:#5CB4E5}
    .fil68 {fill:#61B5E6}
    .fil67 {fill:#64B6E6}
    .fil66 {fill:#68B8E7}
    .fil65 {fill:#6CB9E7}
    .fil64 {fill:#6FBAE8}
    .fil63 {fill:#73BBE8}
    .fil62 {fill:#75BCE9}
    .fil61 {fill:#79BDE9}
    .fil60 {fill:#7CBFEA}
    .fil59 {fill:#7FC0EA}
    .fil58 {fill:#83C1EB}
    .fil57 {fill:#85C2EB}
    .fil56 {fill:#89C4EC}
    .fil55 {fill:#8BC4EC}
    .fil54 {fill:#8EC6EC}
    .fil53 {fill:#92C7ED}
    .fil52 {fill:#94C8ED}
    .fil51 {fill:#97C9EE}
    .fil50 {fill:#99CBEE}
    .fil49 {fill:#9DCCEE}
    .fil48 {fill:#9FCDEF}
    .fil47 {fill:#A2CEEF}
    .fil46 {fill:#A5D0F0}
    .fil45 {fill:#A7D0F0}
    .fil44 {fill:#AAD2F1}
    .fil43 {fill:#ACD3F1}
    .fil42 {fill:#AFD4F2}
    .fil41 {fill:#B1D5F2}
    .fil40 {fill:#B4D7F2}
    .fil39 {fill:#B7D8F3}
    .fil38 {fill:#B9D9F3}
    .fil37 {fill:#BCDBF4}
    .fil36 {fill:#BEDBF4}
    .fil35 {fill:#C1DDF5}
    .fil34 {fill:#C2DEF5}
    .fil33 {fill:#C5DFF5}
    .fil32 {fill:#C8E0F6}
    .fil31 {fill:#CAE2F6}
    .fil30 {fill:#CCE3F6}
    .fil29 {fill:#CEE4F7}
    .fil28 {fill:#D1E5F7}
    .fil27 {fill:#D3E6F8}
    .fil26 {fill:#D5E7F8}
    .fil25 {fill:#D8E9F8}
    .fil24 {fill:#D9EAF9}
    .fil23 {fill:#DCEBF9}
    .fil22 {fill:#DEECF9}
    .fil21 {fill:#E0EEFA}
    .fil20 {fill:#E3EFFA}
    .fil19 {fill:#E5F0FB}
    .fil18 {fill:#E7F1FB}
    .fil17 {fill:#E9F2FB}
    .fil16 {fill:#EBF4FB}
    .fil15 {fill:#EDF5FC}
    .fil14 {fill:#EFF6FC}
    .fil13 {fill:#F2F7FD}
    .fil12 {fill:#F4F8FD}
    .fil11 {fill:#F6FAFD}
    .fil10 {fill:#F8FAFD}
    .fil9 {fill:#FAFCFE}
    .fil8 {fill:#FCFDFE}
    .fil7 {fill:#FEFEFE}
    .fil1 {fill:#256280;fill-rule:nonzero}
    .fil111 {fill:#256EC2;fill-rule:nonzero}
    .fil4 {fill:url(#id1)}
    .fil109 {fill:url(#id2)}
    .fil6 {fill:url(#id3)}
    .fil2 {fill:url(#id4)}
    .fil113 {fill:url(#id5)}
    .fil106 {fill:url(#id6)}
    .fil112 {fill:url(#id7);fill-rule:nonzero}
    .fil108 {fill:url(#id8);fill-rule:nonzero}
    .fil110 {fill:url(#id9);fill-rule:nonzero}
    .fil107 {fill:url(#id10);fill-rule:nonzero}
   ]]>
  </style>
     <clipPath id="id0">
      <path d="M74.75 362.39c1.98,0.8 8.48,4.74 12.25,3.34 4.1,-1.52 8.53,-4.06 12.45,-6.02l67.5 -34.18 -9.33 -3.23c-29.28,14.19 -48.9,24.49 -77.38,38.86 -1.26,0.64 -4.16,1.19 -5.49,1.23z"/>
     </clipPath>
  <radialGradient id="id1" gradientUnits="userSpaceOnUse" gradientTransform="matrix(0.966794 -0 -0 0.95189 3 15)" cx="78.53" cy="322.16" r="266.24" fx="78.53" fy="322.16">
   <stop offset="0" style="stop-opacity:1; stop-color:#DEDEDE"/>
   <stop offset="1" style="stop-opacity:1; stop-color:#008DD2"/>
  </radialGradient>
  <radialGradient id="id2" gradientUnits="userSpaceOnUse" gradientTransform="matrix(-0.966801 -0 -0 0.951894 543 15)" xlink:href="#id1" cx="276.22" cy="321.49" r="266.24" fx="276.22" fy="321.49">
  </radialGradient>
  <radialGradient id="id3" gradientUnits="userSpaceOnUse" gradientTransform="matrix(1.85856 -0 -0 0.809398 -99 77)" cx="115.03" cy="404.11" r="275.11" fx="115.03" fy="404.11">
   <stop offset="0" style="stop-opacity:1; stop-color:#D9D9D9"/>
   <stop offset="0.819608" style="stop-opacity:1; stop-color:#6CB3D5"/>
   <stop offset="1" style="stop-opacity:1; stop-color:#008DD2"/>
  </radialGradient>
  <radialGradient id="id4" gradientUnits="userSpaceOnUse" gradientTransform="matrix(1.02264 -0 -0 1.02263 -5 -6)" cx="241.07" cy="255.03" r="543.59" fx="241.07" fy="255.03">
   <stop offset="0" style="stop-opacity:1; stop-color:aqua"/>
   <stop offset="0.541176" style="stop-opacity:1; stop-color:#02A4BC"/>
   <stop offset="1" style="stop-opacity:1; stop-color:#03497A"/>
  </radialGradient>
  <radialGradient id="id5" gradientUnits="userSpaceOnUse" gradientTransform="matrix(1.8696 -0 -0 0.765353 -254 65)" cx="292.6" cy="278.07" r="106.68" fx="292.6" fy="278.07">
   <stop offset="0" style="stop-opacity:1; stop-color:#FEFEFE"/>
   <stop offset="1" style="stop-opacity:1; stop-color:#3671B5"/>
  </radialGradient>
  <radialGradient id="id6" gradientUnits="userSpaceOnUse" gradientTransform="matrix(2.43623 -0 -0 1.51417 -149 -191)" cx="104.01" cy="371.58" r="129.09" fx="104.01" fy="371.58">
   <stop offset="0" style="stop-opacity:1; stop-color:#FEFEFE"/>
   <stop offset="1" style="stop-opacity:1; stop-color:#008DD2"/>
  </radialGradient>
  <radialGradient id="id7" gradientUnits="userSpaceOnUse" gradientTransform="matrix(1.22719 -0.0256868 0.022354 1.06797 -73 -8)" cx="298.56" cy="227.86" r="66.65" fx="298.56" fy="227.86">
   <stop offset="0" style="stop-opacity:1; stop-color:white"/>
   <stop offset="1" style="stop-opacity:1; stop-color:#8578E3"/>
  </radialGradient>
  <radialGradient id="id8" gradientUnits="userSpaceOnUse" gradientTransform="matrix(1.00071 -0 -0 0.938403 0 15)" xlink:href="#id7" cx="71.13" cy="242.09" r="223.18" fx="71.13" fy="242.09">
  </radialGradient>
  <radialGradient id="id9" gradientUnits="userSpaceOnUse" gradientTransform="matrix(1.35362 -0 -0 1.9732 -100 -302)" cx="281.98" cy="310.75" r="191.35" fx="281.98" fy="310.75">
   <stop offset="0" style="stop-opacity:1; stop-color:white"/>
   <stop offset="1" style="stop-opacity:1; stop-color:#145CD9"/>
  </radialGradient>
  <radialGradient id="id10" gradientUnits="userSpaceOnUse" gradientTransform="matrix(1.21748 -0 -0 1.89269 -13 -307)" cx="59.4" cy="344" r="208.47" fx="59.4" fy="344">
   <stop offset="0" style="stop-opacity:1; stop-color:white"/>
   <stop offset="1" style="stop-opacity:1; stop-color:#256EC2"/>
  </radialGradient>
 </defs>
 <g id="Слой_x0020_1">
  <metadata id="CorelCorpID_0Corel-Layer"/>
  <g>
   <path class="fil0" d="M491.99 250c0,-133.65 -108.34,-241.99 -241.99,-241.99 -133.65,0 -241.99,108.34 -241.99,241.99 0,133.65 108.34,241.99 241.99,241.99 133.65,0 241.99,-108.34 241.99,-241.99z"/>
   <path id="1" class="fil1" d="M248.98 12.63l2.04 -9.24 0 0 12.65 0.32 12.47 0.95 12.29 1.56 12.09 2.16 11.87 2.74 11.64 3.3 11.4 3.86 11.13 4.39 10.86 4.91 10.57 5.41 10.26 5.9 9.95 6.37 9.6 6.84 9.26 7.27 8.89 7.7 8.51 8.11 8.11 8.52 7.71 8.89 7.27 9.26 6.84 9.61 6.38 9.95 5.91 10.28 5.42 10.58 4.91 10.87 4.4 11.15 3.86 11.42 3.31 11.67 2.75 11.9 2.16 12.11 1.57 12.33 0.95 12.51 0.32 12.68 -8.68 2.18 -0.31 -12.22 -0.92 -12.07 -1.51 -11.9 -2.09 -11.72 -2.66 -11.51 -3.21 -11.3 -3.74 -11.07 -4.27 -10.83 -4.78 -10.56 -5.27 -10.29 -5.74 -9.99 -6.21 -9.69 -6.66 -9.36 -7.09 -9.03 -7.51 -8.66 -7.91 -8.3 -8.3 -7.91 -8.67 -7.51 -9.03 -7.1 -9.37 -6.66 -9.69 -6.21 -10.01 -5.76 -10.3 -5.27 -10.57 -4.79 -10.85 -4.27 -11.09 -3.75 -11.33 -3.22 -11.54 -2.66 -11.75 -2.1 -11.93 -1.52 -12.1 -0.92 -12.26 -0.31 0 0zm-236.63 236.28l-8.68 2.18 0 0 0.32 -12.69 0.95 -12.54 1.57 -12.37 2.18 -12.17 2.76 -11.98 3.34 -11.75 3.9 -11.52 4.44 -11.26 4.96 -10.99 5.49 -10.7 5.98 -10.4 6.45 -10.08 6.93 -9.74 7.37 -9.38 7.81 -9.01 8.22 -8.62 8.62 -8.22 9 -7.8 9.37 -7.36 9.72 -6.91 10.05 -6.45 10.37 -5.96 10.67 -5.46 10.95 -4.96 11.23 -4.42 11.47 -3.88 11.71 -3.33 11.92 -2.75 12.14 -2.17 12.32 -1.56 12.49 -0.95 12.65 -0.32 -2.04 9.24 -12.26 0.31 -12.08 0.92 -11.9 1.51 -11.71 2.09 -11.48 2.65 -11.26 3.2 -11.01 3.73 -10.76 4.24 -10.49 4.74 -10.2 5.22 -9.9 5.69 -9.58 6.15 -9.26 6.58 -8.91 7.01 -8.56 7.41 -8.19 7.8 -7.8 8.19 -7.41 8.55 -6.99 8.9 -6.57 9.24 -6.13 9.56 -5.68 9.87 -5.2 10.16 -4.72 10.45 -4.23 10.72 -3.71 10.97 -3.19 11.21 -2.64 11.44 -2.08 11.66 -1.5 11.85 -0.92 12.05 -0.31 12.21 0 0zm238.67 238.46l-2.04 9.24 0 0 -12.65 -0.32 -12.47 -0.95 -12.29 -1.56 -12.09 -2.16 -11.87 -2.74 -11.64 -3.3 -11.4 -3.86 -11.13 -4.39 -10.86 -4.91 -10.57 -5.41 -10.26 -5.9 -9.95 -6.37 -9.6 -6.84 -9.26 -7.27 -8.89 -7.7 -8.51 -8.11 -8.11 -8.52 -7.71 -8.89 -7.27 -9.26 -6.84 -9.61 -6.38 -9.95 -5.91 -10.28 -5.42 -10.58 -4.91 -10.87 -4.4 -11.15 -3.86 -11.42 -3.31 -11.67 -2.75 -11.9 -2.16 -12.11 -1.57 -12.33 -0.95 -12.51 -0.32 -12.68 8.68 -2.18 0.31 12.22 0.92 12.07 1.51 11.9 2.09 11.72 2.66 11.51 3.21 11.3 3.74 11.07 4.27 10.83 4.78 10.56 5.27 10.29 5.74 9.99 6.21 9.69 6.66 9.36 7.09 9.03 7.51 8.66 7.91 8.3 8.3 7.91 8.67 7.51 9.03 7.1 9.37 6.66 9.69 6.21 10.01 5.76 10.3 5.27 10.57 4.79 10.85 4.27 11.09 3.75 11.33 3.22 11.54 2.66 11.75 2.1 11.93 1.52 12.1 0.92 12.26 0.31 0 0zm236.63 -236.28l8.68 -2.18 0 0 -0.32 12.69 -0.95 12.54 -1.57 12.37 -2.18 12.17 -2.76 11.98 -3.34 11.75 -3.9 11.52 -4.44 11.26 -4.96 10.99 -5.49 10.7 -5.98 10.4 -6.45 10.08 -6.93 9.74 -7.37 9.38 -7.81 9.01 -8.22 8.62 -8.62 8.22 -9 7.8 -9.37 7.36 -9.72 6.91 -10.05 6.45 -10.37 5.96 -10.67 5.46 -10.95 4.96 -11.23 4.42 -11.47 3.88 -11.71 3.33 -11.92 2.75 -12.14 2.17 -12.32 1.56 -12.49 0.95 -12.65 0.32 2.04 -9.24 12.26 -0.31 12.08 -0.92 11.9 -1.51 11.71 -2.09 11.48 -2.65 11.26 -3.2 11.01 -3.73 10.76 -4.24 10.49 -4.74 10.2 -5.22 9.9 -5.69 9.58 -6.15 9.26 -6.58 8.91 -7.01 8.56 -7.41 8.19 -7.8 7.8 -8.19 7.41 -8.55 6.99 -8.9 6.57 -9.24 6.13 -9.56 5.68 -9.87 5.2 -10.16 4.72 -10.45 4.23 -10.72 3.71 -10.97 3.19 -11.21 2.64 -11.44 2.08 -11.66 1.5 -11.85 0.92 -12.05 0.31 -12.21 0 0z"/>
  </g>
  <g>
   <ellipse class="fil2" cx="244.54" cy="255.03" rx="173.61" ry="184.13"/>
   <path class="fil3" d="M233.31 57.49c3.09,1.91 5.15,7.32 5.14,13.41 -0.02,33.44 -0.05,66.89 -0.09,100.3 -0.04,33.48 -0.11,66.89 -0.11,100.33 0,10.24 -5.72,21.47 -12.72,24.99 -22.79,11.47 -45.57,22.87 -68.33,34.27 -22.79,11.42 -45.56,22.83 -68.33,34.21 -2.87,1.43 -5.52,1.34 -7.65,0.02l-7.52 -3.06c-3.65,-1.85 -5.42,-6.27 -5.41,-13.38 0.05,-33.54 0.15,-67.11 0.24,-100.65 0.09,-33.54 0.22,-67.08 0.27,-100.65 0.02,-10.31 5.7,-21.57 12.7,-25.05 22.72,-11.27 45.44,-22.57 68.17,-33.92 22.72,-11.34 45.45,-22.67 68.19,-33.93 3.19,-1.57 4.38,-1.23 8.72,0.15l6.73 2.96 0 0z"/>
   <path class="fil4" d="M80.38 122.52c22.73,-11.28 45.45,-22.58 68.18,-33.92 22.72,-11.35 45.44,-22.68 68.19,-33.93 6.98,-3.46 12.69,2.21 12.68,12.48 -0.04,33.44 -0.06,66.89 -0.1,100.3 -0.04,33.47 -0.12,66.88 -0.12,100.32 0,10.24 -5.71,21.47 -12.7,24.99 -22.8,11.48 -45.57,22.87 -68.34,34.28 -22.79,11.41 -45.55,22.82 -68.33,34.2 -7,3.49 -12.69,-2.07 -12.67,-12.37 0.07,-33.54 0.16,-67.12 0.25,-100.66 0.08,-33.54 0.21,-67.08 0.27,-100.64 0.02,-10.31 5.69,-21.58 12.69,-25.05l0 0z"/>
   <path class="fil5" d="M262.11 57.15c-3.1,1.92 -5.16,7.32 -5.15,13.41 0.03,33.44 0.06,66.89 0.1,100.3 0.04,33.47 0.11,66.89 0.11,100.33 0,10.25 5.72,21.47 12.71,24.99 22.79,11.47 45.57,22.87 68.33,34.27 22.8,11.41 45.56,22.83 68.34,34.21 2.87,1.43 5.52,1.34 7.65,0.02l7.52 -3.06c3.65,-1.86 5.42,-6.28 5.41,-13.38 -0.06,-33.54 -0.16,-67.11 -0.25,-100.64 -0.08,-33.54 -0.21,-67.08 -0.27,-100.66 -0.02,-10.3 -11.39,-10.57 -18.4,-14.05 -22.72,-11.26 -62.4,-5.55 -85.13,-16.9 -22.72,-11.34 -22.78,-50.69 -45.53,-61.94 -3.19,-1.58 -4.37,-1.23 -8.72,0.14l-6.72 2.96 0 0z"/>
   <path class="fil3" d="M89.52 378.87c0.64,-2.05 2.73,-4.16 6.09,-5.81 23.44,-11.56 46.85,-23.09 70.14,-34.68 23.3,-11.59 46.52,-23.22 69.61,-34.92 7.12,-3.59 18.7,-3.63 25.91,-0.05 23.41,11.63 46.8,23.25 70.21,34.88 23.41,11.63 46.84,23.25 70.28,34.87 2.67,1.33 6.51,4.07 6.67,7.39l0.19 6.65c-0.47,1.45 -2.35,2.78 -5.18,3.74 -23.15,7.94 -46.38,15.81 -69.85,23.56 -23.5,7.75 -47.27,15.4 -71.39,22.93 -7.46,2.33 -19.75,2.28 -27.13,-0.06 -23.86,-7.61 -47.48,-15.3 -70.88,-23.08 -23.37,-7.76 -46.58,-15.63 -69.67,-23.55 -3.85,-1.32 -5.11,-3.05 -4.94,-5.2l-0.06 -6.67 0 0z"/>
   <path class="fil6" d="M89.52 386.74c0.64,-2.05 3.27,-4.58 6.55,-6.38 22.37,-12.27 46.37,-22.59 69.68,-34.11 23.34,-11.53 46.52,-23.21 69.61,-34.91 7.11,-3.61 18.69,-3.65 25.91,-0.07 23.41,11.63 46.8,23.27 70.21,34.9 23.41,11.63 46.84,23.24 70.28,34.87 2.67,1.32 6.51,4.06 6.67,7.38l-0.08 6.67c-0.47,1.45 -2.08,2.76 -4.91,3.73 -23.15,7.92 -46.38,15.8 -69.85,23.55 -23.5,7.76 -47.27,15.41 -71.39,22.93 -7.46,2.34 -19.75,2.28 -27.13,-0.07 -23.86,-7.6 -47.48,-15.29 -70.88,-23.06 -23.37,-7.77 -46.58,-15.63 -69.67,-23.56 -3.85,-1.32 -5.11,-3.05 -4.94,-5.21l-0.06 -6.66z"/>
   <g id="_2442778990608">
    <g>
    </g>
    <g style="clip-path:url(#id0)">
     <g id="_2442778992944">
      <path class="fil7" d="M88.34 362.96c0,-0.42 -0.72,-0.75 -1.61,-0.75 -0.88,0 -1.6,0.33 -1.6,0.75 0,0.42 0.72,0.77 1.6,0.77 0.89,0 1.61,-0.35 1.61,-0.77z"/>
      <path id="_1" class="fil8" d="M87.8 362.96c0,0.29 -0.47,0.51 -1.07,0.51 -0.58,0 -1.06,-0.22 -1.06,-0.51 0,-0.27 0.48,-0.51 1.06,-0.51 0.6,0 1.07,0.24 1.07,0.51zm1.61 0c0,-0.69 -1.2,-1.26 -2.68,-1.26 -1.47,0 -2.67,0.57 -2.67,1.26 0,0.71 1.2,1.27 2.67,1.27 1.48,0 2.68,-0.56 2.68,-1.27z"/>
      <path id="_2" class="fil9" d="M88.87 362.96c0,0.57 -0.95,1.02 -2.14,1.02 -1.18,0 -2.14,-0.45 -2.14,-1.02 0,-0.56 0.96,-1.01 2.14,-1.01 1.19,0 2.14,0.45 2.14,1.01zm1.61 0c0,-0.98 -1.67,-1.77 -3.75,-1.77 -2.06,0 -3.73,0.79 -3.73,1.77 0,0.99 1.67,1.78 3.73,1.78 2.08,0 3.75,-0.79 3.75,-1.78z"/>
      <path id="_3" class="fil10" d="M89.94 362.96c0,0.84 -1.44,1.53 -3.21,1.53 -1.77,0 -3.21,-0.69 -3.21,-1.53 0,-0.84 1.44,-1.51 3.21,-1.51 1.77,0 3.21,0.67 3.21,1.51zm1.61 0c0,-1.26 -2.16,-2.28 -4.82,-2.28 -2.66,0 -4.81,1.02 -4.81,2.28 0,1.26 2.15,2.29 4.81,2.29 2.66,0 4.82,-1.03 4.82,-2.29z"/>
      <path id="_4" class="fil11" d="M91.01 362.96c0,1.13 -1.91,2.04 -4.28,2.04 -2.35,0 -4.27,-0.91 -4.27,-2.04 0,-1.11 1.92,-2.02 4.27,-2.02 2.37,0 4.28,0.91 4.28,2.02zm1.61 0c0,-1.53 -2.64,-2.79 -5.89,-2.79 -3.24,0 -5.88,1.26 -5.88,2.79 0,1.55 2.64,2.8 5.88,2.8 3.25,0 5.89,-1.25 5.89,-2.8z"/>
      <path id="_5" class="fil12" d="M92.08 362.96c0,1.41 -2.39,2.55 -5.35,2.55 -2.95,0 -5.35,-1.14 -5.35,-2.55 0,-1.4 2.4,-2.53 5.35,-2.53 2.96,0 5.35,1.13 5.35,2.53zm1.61 0c0,-1.82 -3.11,-3.29 -6.96,-3.29 -3.83,0 -6.95,1.47 -6.95,3.29 0,1.82 3.12,3.3 6.95,3.3 3.85,0 6.96,-1.48 6.96,-3.3z"/>
      <path id="_6" class="fil13" d="M93.15 362.96c0,1.68 -2.88,3.04 -6.42,3.04 -3.54,0 -6.41,-1.36 -6.41,-3.04 0,-1.68 2.87,-3.04 6.41,-3.04 3.54,0 6.42,1.36 6.42,3.04zm1.6 0c0,-2.09 -3.59,-3.8 -8.02,-3.8 -4.43,0 -8.02,1.71 -8.02,3.8 0,2.1 3.59,3.81 8.02,3.81 4.43,0 8.02,-1.71 8.02,-3.81z"/>
      <path id="_7" class="fil14" d="M94.23 362.96c0,1.97 -3.36,3.55 -7.5,3.55 -4.12,0 -7.48,-1.58 -7.48,-3.55 0,-1.95 3.36,-3.55 7.48,-3.55 4.14,0 7.5,1.6 7.5,3.55zm1.6 0c0,-2.38 -4.08,-4.31 -9.1,-4.31 -5.02,0 -9.08,1.93 -9.08,4.31 0,2.39 4.06,4.32 9.08,4.32 5.02,0 9.1,-1.93 9.1,-4.32z"/>
      <path id="_8" class="fil15" d="M95.29 362.96c0,2.24 -3.83,4.06 -8.56,4.06 -4.72,0 -8.55,-1.82 -8.55,-4.06 0,-2.24 3.83,-4.06 8.55,-4.06 4.73,0 8.56,1.82 8.56,4.06zm1.61 0c0,-2.66 -4.55,-4.81 -10.17,-4.81 -5.6,0 -10.16,2.15 -10.16,4.81 0,2.66 4.56,4.82 10.16,4.82 5.62,0 10.17,-2.16 10.17,-4.82z"/>
      <path id="_9" class="fil16" d="M96.36 362.96c0,2.53 -4.31,4.57 -9.63,4.57 -5.31,0 -9.62,-2.04 -9.62,-4.57 0,-2.51 4.31,-4.56 9.62,-4.56 5.32,0 9.63,2.05 9.63,4.56zm1.6 0c0,-2.93 -5.03,-5.32 -11.23,-5.32 -6.2,0 -11.23,2.39 -11.23,5.32 0,2.95 5.03,5.33 11.23,5.33 6.2,0 11.23,-2.38 11.23,-5.33z"/>
      <path id="_10" class="fil17" d="M97.43 362.96c0,2.81 -4.79,5.08 -10.7,5.08 -5.9,0 -10.69,-2.27 -10.69,-5.08 0,-2.8 4.79,-5.06 10.69,-5.06 5.91,0 10.7,2.26 10.7,5.06zm1.61 0c0,-3.22 -5.51,-5.83 -12.31,-5.83 -6.79,0 -12.29,2.61 -12.29,5.83 0,3.23 5.5,5.84 12.29,5.84 6.8,0 12.31,-2.61 12.31,-5.84z"/>
      <path id="_11" class="fil18" d="M98.5 362.96c0,3.08 -5.27,5.59 -11.77,5.59 -6.49,0 -11.75,-2.51 -11.75,-5.59 0,-3.08 5.26,-5.57 11.75,-5.57 6.5,0 11.77,2.49 11.77,5.57zm1.6 0c0,-3.5 -5.98,-6.34 -13.37,-6.34 -7.38,0 -13.37,2.84 -13.37,6.34 0,3.5 5.99,6.35 13.37,6.35 7.39,0 13.37,-2.85 13.37,-6.35z"/>
      <path id="_12" class="fil19" d="M99.56 362.96c0,3.37 -5.74,6.1 -12.83,6.1 -7.08,0 -12.83,-2.73 -12.83,-6.1 0,-3.35 5.75,-6.08 12.83,-6.08 7.09,0 12.83,2.73 12.83,6.08zm1.61 0c0,-3.77 -6.47,-6.84 -14.44,-6.84 -7.97,0 -14.43,3.07 -14.43,6.84 0,3.79 6.46,6.85 14.43,6.85 7.97,0 14.44,-3.06 14.44,-6.85z"/>
      <path id="_13" class="fil20" d="M100.64 362.96c0,3.65 -6.23,6.59 -13.91,6.59 -7.68,0 -13.9,-2.94 -13.9,-6.59 0,-3.64 6.22,-6.59 13.9,-6.59 7.68,0 13.91,2.95 13.91,6.59zm1.61 0c0,-4.06 -6.95,-7.35 -15.52,-7.35 -8.55,0 -15.5,3.29 -15.5,7.35 0,4.07 6.95,7.36 15.5,7.36 8.57,0 15.52,-3.29 15.52,-7.36z"/>
      <path id="_14" class="fil21" d="M101.71 362.96c0,3.92 -6.7,7.1 -14.98,7.1 -8.26,0 -14.96,-3.18 -14.96,-7.1 0,-3.92 6.7,-7.1 14.96,-7.1 8.28,0 14.98,3.18 14.98,7.1zm1.6 0c0,-4.34 -7.42,-7.85 -16.58,-7.85 -9.15,0 -16.58,3.51 -16.58,7.85 0,4.35 7.43,7.87 16.58,7.87 9.16,0 16.58,-3.52 16.58,-7.87z"/>
      <path id="_15" class="fil22" d="M102.77 362.96c0,4.21 -7.18,7.61 -16.04,7.61 -8.86,0 -16.04,-3.4 -16.04,-7.61 0,-4.19 7.18,-7.61 16.04,-7.61 8.86,0 16.04,3.42 16.04,7.61zm1.61 0c0,-4.61 -7.9,-8.36 -17.65,-8.36 -9.74,0 -17.64,3.75 -17.64,8.36 0,4.63 7.9,8.37 17.64,8.37 9.75,0 17.65,-3.74 17.65,-8.37z"/>
      <path id="_16" class="fil23" d="M103.85 362.96c0,4.49 -7.67,8.12 -17.12,8.12 -9.45,0 -17.1,-3.63 -17.1,-8.12 0,-4.48 7.65,-8.11 17.1,-8.11 9.45,0 17.12,3.63 17.12,8.11zm1.6 0c0,-4.9 -8.38,-8.87 -18.72,-8.87 -10.33,0 -18.71,3.97 -18.71,8.87 0,4.91 8.37,8.88 18.71,8.88 10.34,0 18.72,-3.97 18.72,-8.88z"/>
      <path id="_17" class="fil24" d="M104.92 362.96c0,4.77 -8.14,8.63 -18.19,8.63 -10.03,0 -18.18,-3.86 -18.18,-8.63 0,-4.76 8.15,-8.62 18.18,-8.62 10.05,0 18.19,3.86 18.19,8.62zm1.6 0c0,-5.18 -8.86,-9.38 -19.79,-9.38 -10.92,0 -19.78,4.2 -19.78,9.38 0,5.19 8.86,9.39 19.78,9.39 10.93,0 19.79,-4.2 19.79,-9.39z"/>
      <path id="_18" class="fil25" d="M105.98 362.96c0,5.05 -8.62,9.14 -19.25,9.14 -10.63,0 -19.25,-4.09 -19.25,-9.14 0,-5.04 8.62,-9.12 19.25,-9.12 10.63,0 19.25,4.08 19.25,9.12zm1.61 0c0,-5.46 -9.33,-9.89 -20.86,-9.89 -11.51,0 -20.85,4.43 -20.85,9.89 0,5.47 9.34,9.9 20.85,9.9 11.53,0 20.86,-4.43 20.86,-9.9z"/>
      <path id="_19" class="fil26" d="M107.06 362.96c0,5.33 -9.1,9.65 -20.33,9.65 -11.22,0 -20.31,-4.32 -20.31,-9.65 0,-5.32 9.09,-9.63 20.31,-9.63 11.23,0 20.33,4.31 20.33,9.63zm1.6 0c0,-5.74 -9.82,-10.4 -21.93,-10.4 -12.11,0 -21.92,4.66 -21.92,10.4 0,5.74 9.81,10.4 21.92,10.4 12.11,0 21.93,-4.66 21.93,-10.4z"/>
      <path id="_20" class="fil27" d="M108.12 362.96c0,5.61 -9.57,10.15 -21.39,10.15 -11.81,0 -21.39,-4.54 -21.39,-10.15 0,-5.6 9.58,-10.14 21.39,-10.14 11.82,0 21.39,4.54 21.39,10.14zm1.61 0c0,-6.01 -10.29,-10.9 -23,-10.9 -12.69,0 -22.99,4.89 -22.99,10.9 0,6.03 10.3,10.91 22.99,10.91 12.71,0 23,-4.88 23,-10.91z"/>
      <path id="_21" class="fil28" d="M109.19 362.96c0,5.89 -10.06,10.65 -22.46,10.65 -12.4,0 -22.45,-4.76 -22.45,-10.65 0,-5.88 10.05,-10.65 22.45,-10.65 12.4,0 22.46,4.77 22.46,10.65zm1.6 0c0,-6.3 -10.77,-11.41 -24.06,-11.41 -13.29,0 -24.06,5.11 -24.06,11.41 0,6.31 10.77,11.42 24.06,11.42 13.29,0 24.06,-5.11 24.06,-11.42z"/>
      <path id="_22" class="fil29" d="M110.27 362.96c0,6.16 -10.54,11.16 -23.54,11.16 -12.99,0 -23.52,-5 -23.52,-11.16 0,-6.16 10.53,-11.16 23.52,-11.16 13,0 23.54,5 23.54,11.16zm1.6 0c0,-6.58 -11.26,-11.91 -25.14,-11.91 -13.88,0 -25.12,5.33 -25.12,11.91 0,6.58 11.24,11.93 25.12,11.93 13.88,0 25.14,-5.35 25.14,-11.93z"/>
      <path id="_23" class="fil30" d="M111.33 362.96c0,6.45 -11.01,11.67 -24.6,11.67 -13.58,0 -24.6,-5.22 -24.6,-11.67 0,-6.43 11.02,-11.66 24.6,-11.66 13.59,0 24.6,5.23 24.6,11.66zm1.61 0c0,-6.85 -11.73,-12.42 -26.21,-12.42 -14.46,0 -26.2,5.57 -26.2,12.42 0,6.87 11.74,12.43 26.2,12.43 14.48,0 26.21,-5.56 26.21,-12.43z"/>
      <path id="_24" class="fil31" d="M112.4 362.96c0,6.73 -11.49,12.18 -25.67,12.18 -14.17,0 -25.66,-5.45 -25.66,-12.18 0,-6.72 11.49,-12.17 25.66,-12.17 14.18,0 25.67,5.45 25.67,12.17zm1.6 0c0,-7.14 -12.2,-12.93 -27.27,-12.93 -15.06,0 -27.27,5.79 -27.27,12.93 0,7.15 12.21,12.94 27.27,12.94 15.07,0 27.27,-5.79 27.27,-12.94z"/>
      <path id="_25" class="fil32" d="M113.47 362.96c0,7 -11.97,12.69 -26.74,12.69 -14.76,0 -26.73,-5.69 -26.73,-12.69 0,-7 11.97,-12.67 26.73,-12.67 14.77,0 26.74,5.67 26.74,12.67zm1.61 0c0,-7.42 -12.7,-13.44 -28.35,-13.44 -15.65,0 -28.33,6.02 -28.33,13.44 0,7.43 12.68,13.44 28.33,13.44 15.65,0 28.35,-6.01 28.35,-13.44z"/>
      <path id="_26" class="fil33" d="M114.54 362.96c0,7.29 -12.45,13.2 -27.81,13.2 -15.35,0 -27.8,-5.91 -27.8,-13.2 0,-7.27 12.45,-13.18 27.8,-13.18 15.36,0 27.81,5.91 27.81,13.18zm1.6 0c0,-7.7 -13.16,-13.95 -29.41,-13.95 -16.23,0 -29.41,6.25 -29.41,13.95 0,7.71 13.18,13.95 29.41,13.95 16.25,0 29.41,-6.24 29.41,-13.95z"/>
      <path id="_27" class="fil34" d="M115.61 362.96c0,7.57 -12.92,13.69 -28.88,13.69 -15.94,0 -28.87,-6.12 -28.87,-13.69 0,-7.56 12.93,-13.69 28.87,-13.69 15.96,0 28.88,6.13 28.88,13.69zm1.6 0c0,-7.98 -13.64,-14.45 -30.48,-14.45 -16.83,0 -30.48,6.47 -30.48,14.45 0,7.99 13.65,14.46 30.48,14.46 16.84,0 30.48,-6.47 30.48,-14.46z"/>
      <path id="_28" class="fil35" d="M116.68 362.96c0,7.85 -13.41,14.2 -29.95,14.2 -16.54,0 -29.94,-6.35 -29.94,-14.2 0,-7.84 13.4,-14.2 29.94,-14.2 16.54,0 29.95,6.36 29.95,14.2zm1.61 0c0,-8.26 -14.13,-14.96 -31.56,-14.96 -17.42,0 -31.54,6.7 -31.54,14.96 0,8.27 14.12,14.97 31.54,14.97 17.43,0 31.56,-6.7 31.56,-14.97z"/>
      <path id="_29" class="fil36" d="M117.75 362.96c0,8.13 -13.89,14.71 -31.02,14.71 -17.12,0 -31.01,-6.58 -31.01,-14.71 0,-8.12 13.89,-14.71 31.01,-14.71 17.13,0 31.02,6.59 31.02,14.71zm1.6 0c0,-8.54 -14.6,-15.46 -32.62,-15.46 -18.01,0 -32.62,6.92 -32.62,15.46 0,8.55 14.61,15.47 32.62,15.47 18.02,0 32.62,-6.92 32.62,-15.47z"/>
      <path id="_30" class="fil37" d="M118.81 362.96c0,8.41 -14.35,15.22 -32.08,15.22 -17.71,0 -32.08,-6.81 -32.08,-15.22 0,-8.4 14.37,-15.21 32.08,-15.21 17.73,0 32.08,6.81 32.08,15.21zm1.61 0c0,-8.82 -15.08,-15.97 -33.69,-15.97 -18.6,0 -33.68,7.15 -33.68,15.97 0,8.83 15.08,15.98 33.68,15.98 18.61,0 33.69,-7.15 33.69,-15.98z"/>
      <path id="_31" class="fil38" d="M119.89 362.96c0,8.69 -14.85,15.73 -33.16,15.73 -18.31,0 -33.15,-7.04 -33.15,-15.73 0,-8.68 14.84,-15.72 33.15,-15.72 18.31,0 33.16,7.04 33.16,15.72zm1.6 0c0,-9.1 -15.56,-16.48 -34.76,-16.48 -19.19,0 -34.75,7.38 -34.75,16.48 0,9.11 15.56,16.49 34.75,16.49 19.2,0 34.76,-7.38 34.76,-16.49z"/>
      <path id="_32" class="fil39" d="M120.96 362.96c0,8.97 -15.32,16.24 -34.23,16.24 -18.89,0 -34.22,-7.27 -34.22,-16.24 0,-8.96 15.33,-16.23 34.22,-16.23 18.91,0 34.23,7.27 34.23,16.23zm1.6 0c0,-9.38 -16.04,-16.99 -35.83,-16.99 -19.78,0 -35.82,7.61 -35.82,16.99 0,9.39 16.04,17 35.82,17 19.79,0 35.83,-7.61 35.83,-17z"/>
      <path id="_33" class="fil40" d="M122.02 362.96c0,9.24 -15.79,16.75 -35.29,16.75 -19.49,0 -35.29,-7.51 -35.29,-16.75 0,-9.24 15.8,-16.73 35.29,-16.73 19.5,0 35.29,7.49 35.29,16.73zm1.61 0c0,-9.66 -16.52,-17.5 -36.9,-17.5 -20.37,0 -36.89,7.84 -36.89,17.5 0,9.67 16.52,17.5 36.89,17.5 20.38,0 36.9,-7.83 36.9,-17.5z"/>
      <path id="_34" class="fil41" d="M123.1 362.96c0,9.53 -16.29,17.26 -36.37,17.26 -20.08,0 -36.35,-7.73 -36.35,-17.26 0,-9.52 16.27,-17.24 36.35,-17.24 20.08,0 36.37,7.72 36.37,17.24zm1.6 0c0,-9.94 -17,-18 -37.97,-18 -20.96,0 -37.96,8.06 -37.96,18 0,9.95 17,18.01 37.96,18.01 20.97,0 37.97,-8.06 37.97,-18.01z"/>
      <path id="_35" class="fil42" d="M124.16 362.96c0,9.81 -16.75,17.75 -37.43,17.75 -20.66,0 -37.43,-7.94 -37.43,-17.75 0,-9.8 16.77,-17.75 37.43,-17.75 20.68,0 37.43,7.95 37.43,17.75zm1.61 0c0,-10.22 -17.48,-18.51 -39.04,-18.51 -21.55,0 -39.03,8.29 -39.03,18.51 0,10.23 17.48,18.52 39.03,18.52 21.56,0 39.04,-8.29 39.04,-18.52z"/>
      <path id="_36" class="fil43" d="M125.23 362.96c0,10.09 -17.23,18.26 -38.5,18.26 -21.26,0 -38.49,-8.17 -38.49,-18.26 0,-10.08 17.23,-18.26 38.49,-18.26 21.27,0 38.5,8.18 38.5,18.26zm1.6 0c0,-10.5 -17.94,-19.01 -40.1,-19.01 -22.14,0 -40.1,8.51 -40.1,19.01 0,10.51 17.96,19.03 40.1,19.03 22.16,0 40.1,-8.52 40.1,-19.03z"/>
      <path id="_37" class="fil44" d="M126.31 362.96c0,10.37 -17.73,18.77 -39.58,18.77 -21.85,0 -39.56,-8.4 -39.56,-18.77 0,-10.36 17.71,-18.76 39.56,-18.76 21.85,0 39.58,8.4 39.58,18.76zm1.6 0c0,-10.78 -18.44,-19.52 -41.18,-19.52 -22.74,0 -41.17,8.74 -41.17,19.52 0,10.79 18.43,19.53 41.17,19.53 22.74,0 41.18,-8.74 41.18,-19.53z"/>
      <path id="_38" class="fil45" d="M127.37 362.96c0,10.65 -18.19,19.28 -40.64,19.28 -22.43,0 -40.64,-8.63 -40.64,-19.28 0,-10.64 18.21,-19.27 40.64,-19.27 22.45,0 40.64,8.63 40.64,19.27zm1.61 0c0,-11.06 -18.92,-20.03 -42.25,-20.03 -23.32,0 -42.24,8.97 -42.24,20.03 0,11.07 18.91,20.04 42.24,20.04 23.33,0 42.25,-8.97 42.25,-20.04z"/>
      <path id="_39" class="fil46" d="M128.44 362.96c0,10.93 -18.67,19.79 -41.71,19.79 -23.03,0 -41.7,-8.86 -41.7,-19.79 0,-10.92 18.67,-19.78 41.7,-19.78 23.04,0 41.71,8.86 41.71,19.78zm1.6 0c0,-11.34 -19.38,-20.54 -43.31,-20.54 -23.91,0 -43.31,9.2 -43.31,20.54 0,11.35 19.4,20.55 43.31,20.55 23.93,0 43.31,-9.2 43.31,-20.55z"/>
      <path id="_40" class="fil47" d="M129.51 362.96c0,11.21 -19.15,20.3 -42.78,20.3 -23.62,0 -42.77,-9.09 -42.77,-20.3 0,-11.2 19.15,-20.28 42.77,-20.28 23.63,0 42.78,9.08 42.78,20.28zm1.61 0c0,-11.62 -19.88,-21.05 -44.39,-21.05 -24.51,0 -44.37,9.43 -44.37,21.05 0,11.63 19.86,21.05 44.37,21.05 24.51,0 44.39,-9.42 44.39,-21.05z"/>
      <path id="_41" class="fil48" d="M130.58 362.96c0,11.49 -19.63,20.8 -43.85,20.8 -24.22,0 -43.85,-9.31 -43.85,-20.8 0,-11.48 19.63,-20.79 43.85,-20.79 24.22,0 43.85,9.31 43.85,20.79zm1.6 0c0,-11.9 -20.34,-21.56 -45.45,-21.56 -25.1,0 -45.45,9.66 -45.45,21.56 0,11.91 20.35,21.56 45.45,21.56 25.11,0 45.45,-9.65 45.45,-21.56z"/>
      <path id="_42" class="fil49" d="M131.65 362.96c0,11.77 -20.11,21.3 -44.92,21.3 -24.8,0 -44.91,-9.53 -44.91,-21.3 0,-11.76 20.11,-21.3 44.91,-21.3 24.81,0 44.92,9.54 44.92,21.3zm1.6 0c0,-12.19 -20.82,-22.06 -46.52,-22.06 -25.69,0 -46.52,9.87 -46.52,22.06 0,12.19 20.83,22.07 46.52,22.07 25.7,0 46.52,-9.88 46.52,-22.07z"/>
      <path id="_43" class="fil50" d="M132.72 362.96c0,12.05 -20.59,21.81 -45.99,21.81 -25.39,0 -45.98,-9.76 -45.98,-21.81 0,-12.04 20.59,-21.81 45.98,-21.81 25.4,0 45.99,9.77 45.99,21.81zm1.61 0c0,-12.46 -21.32,-22.56 -47.6,-22.56 -26.28,0 -47.58,10.1 -47.58,22.56 0,12.47 21.3,22.58 47.58,22.58 26.28,0 47.6,-10.11 47.6,-22.58z"/>
      <path id="_44" class="fil51" d="M133.79 362.96c0,12.34 -21.07,22.32 -47.06,22.32 -25.99,0 -47.05,-9.98 -47.05,-22.32 0,-12.32 21.06,-22.32 47.05,-22.32 25.99,0 47.06,10 47.06,22.32zm1.6 0c0,-12.74 -21.78,-23.07 -48.66,-23.07 -26.87,0 -48.66,10.33 -48.66,23.07 0,12.75 21.79,23.08 48.66,23.08 26.88,0 48.66,-10.33 48.66,-23.08z"/>
      <path id="_45" class="fil52" d="M134.86 362.96c0,12.61 -21.55,22.83 -48.13,22.83 -26.57,0 -48.12,-10.22 -48.12,-22.83 0,-12.61 21.55,-22.82 48.12,-22.82 26.58,0 48.13,10.22 48.13,22.82zm1.6 0c0,-13.03 -22.26,-23.58 -49.73,-23.58 -27.46,0 -49.72,10.55 -49.72,23.58 0,13.03 22.26,23.59 49.72,23.59 27.47,0 49.73,-10.56 49.73,-23.59z"/>
      <path id="_46" class="fil53" d="M135.93 362.96c0,12.89 -22.03,23.34 -49.2,23.34 -27.16,0 -49.18,-10.45 -49.18,-23.34 0,-12.88 22.02,-23.33 49.18,-23.33 27.17,0 49.2,10.45 49.2,23.33zm1.61 0c0,-13.3 -22.76,-24.09 -50.81,-24.09 -28.05,0 -50.79,10.79 -50.79,24.09 0,13.31 22.74,24.1 50.79,24.1 28.05,0 50.81,-10.79 50.81,-24.1z"/>
      <path id="_47" class="fil54" d="M137 362.96c0,13.17 -22.51,23.85 -50.27,23.85 -27.76,0 -50.26,-10.68 -50.26,-23.85 0,-13.16 22.5,-23.83 50.26,-23.83 27.76,0 50.27,10.67 50.27,23.83zm1.6 0c0,-13.58 -23.22,-24.6 -51.87,-24.6 -28.65,0 -51.87,11.02 -51.87,24.6 0,13.59 23.22,24.6 51.87,24.6 28.65,0 51.87,-11.01 51.87,-24.6z"/>
      <path id="_48" class="fil55" d="M138.06 362.96c0,13.45 -22.97,24.35 -51.33,24.35 -28.34,0 -51.33,-10.9 -51.33,-24.35 0,-13.44 22.99,-24.34 51.33,-24.34 28.36,0 51.33,10.9 51.33,24.34zm1.61 0c0,-13.86 -23.7,-25.11 -52.94,-25.11 -29.23,0 -52.93,11.25 -52.93,25.11 0,13.87 23.7,25.11 52.93,25.11 29.24,0 52.94,-11.24 52.94,-25.11z"/>
      <path id="_49" class="fil56" d="M139.14 362.96c0,13.73 -23.47,24.86 -52.41,24.86 -28.94,0 -52.39,-11.13 -52.39,-24.86 0,-13.72 23.45,-24.85 52.39,-24.85 28.94,0 52.41,11.13 52.41,24.85zm1.6 0c0,-14.14 -24.18,-25.61 -54.01,-25.61 -29.82,0 -54,11.47 -54,25.61 0,14.15 24.18,25.62 54,25.62 29.83,0 54.01,-11.47 54.01,-25.62z"/>
      <path id="_50" class="fil57" d="M140.2 362.96c0,14.01 -23.94,25.36 -53.47,25.36 -29.53,0 -53.47,-11.35 -53.47,-25.36 0,-14 23.94,-25.36 53.47,-25.36 29.53,0 53.47,11.36 53.47,25.36zm1.61 0c0,-14.43 -24.66,-26.11 -55.08,-26.11 -30.42,0 -55.07,11.68 -55.07,26.11 0,14.43 24.65,26.13 55.07,26.13 30.42,0 55.08,-11.7 55.08,-26.13z"/>
      <path id="_51" class="fil58" d="M141.27 362.96c0,14.29 -24.41,25.87 -54.54,25.87 -30.12,0 -54.54,-11.58 -54.54,-25.87 0,-14.28 24.42,-25.86 54.54,-25.86 30.13,0 54.54,11.58 54.54,25.86zm1.61 0c0,-14.7 -25.14,-26.62 -56.15,-26.62 -31,0 -56.14,11.92 -56.14,26.62 0,14.71 25.14,26.63 56.14,26.63 31.01,0 56.15,-11.92 56.15,-26.63z"/>
      <path id="_52" class="fil59" d="M142.35 362.96c0,14.58 -24.91,26.38 -55.62,26.38 -30.71,0 -55.6,-11.8 -55.6,-26.38 0,-14.56 24.89,-26.37 55.6,-26.37 30.71,0 55.62,11.81 55.62,26.37zm1.6 0c0,-14.98 -25.61,-27.13 -57.22,-27.13 -31.59,0 -57.21,12.15 -57.21,27.13 0,15 25.62,27.14 57.21,27.14 31.61,0 57.22,-12.14 57.22,-27.14z"/>
      <path id="_53" class="fil60" d="M143.41 362.96c0,14.85 -25.37,26.89 -56.68,26.89 -31.3,0 -56.68,-12.04 -56.68,-26.89 0,-14.85 25.38,-26.88 56.68,-26.88 31.31,0 56.68,12.03 56.68,26.88zm1.61 0c0,-15.27 -26.1,-27.64 -58.29,-27.64 -32.19,0 -58.28,12.37 -58.28,27.64 0,15.27 26.09,27.65 58.28,27.65 32.19,0 58.29,-12.38 58.29,-27.65z"/>
      <path id="_54" class="fil61" d="M144.48 362.96c0,15.13 -25.85,27.4 -57.75,27.4 -31.89,0 -57.74,-12.27 -57.74,-27.4 0,-15.12 25.85,-27.38 57.74,-27.38 31.9,0 57.75,12.26 57.75,27.38zm1.6 0c0,-15.54 -26.56,-28.15 -59.35,-28.15 -32.77,0 -59.35,12.61 -59.35,28.15 0,15.55 26.58,28.15 59.35,28.15 32.79,0 59.35,-12.6 59.35,-28.15z"/>
      <path id="_55" class="fil62" d="M145.55 362.96c0,15.42 -26.34,27.91 -58.82,27.91 -32.48,0 -58.81,-12.49 -58.81,-27.91 0,-15.4 26.33,-27.89 58.81,-27.89 32.48,0 58.82,12.49 58.82,27.89zm1.61 0c0,-15.82 -27.05,-28.66 -60.43,-28.66 -33.37,0 -60.41,12.84 -60.41,28.66 0,15.83 27.04,28.66 60.41,28.66 33.38,0 60.43,-12.83 60.43,-28.66z"/>
      <path id="_56" class="fil63" d="M146.62 362.96c0,15.69 -26.81,28.41 -59.89,28.41 -33.07,0 -59.89,-12.72 -59.89,-28.41 0,-15.69 26.82,-28.4 59.89,-28.4 33.08,0 59.89,12.71 59.89,28.4zm1.61 0c0,-16.11 -27.54,-29.17 -61.5,-29.17 -33.96,0 -61.49,13.06 -61.49,29.17 0,16.11 27.53,29.17 61.49,29.17 33.96,0 61.5,-13.06 61.5,-29.17z"/>
      <path id="_57" class="fil64" d="M147.69 362.96c0,15.97 -27.29,28.91 -60.96,28.91 -33.66,0 -60.95,-12.94 -60.95,-28.91 0,-15.96 27.29,-28.91 60.95,-28.91 33.67,0 60.96,12.95 60.96,28.91zm1.6 0c0,-16.38 -28,-29.66 -62.56,-29.66 -34.54,0 -62.56,13.28 -62.56,29.66 0,16.39 28.02,29.68 62.56,29.68 34.56,0 62.56,-13.29 62.56,-29.68z"/>
      <path id="_58" class="fil65" d="M148.76 362.96c0,16.25 -27.76,29.42 -62.03,29.42 -34.25,0 -62.02,-13.17 -62.02,-29.42 0,-16.24 27.77,-29.42 62.02,-29.42 34.27,0 62.03,13.17 62.03,29.42zm1.61 0c0,-16.66 -28.49,-30.17 -63.64,-30.17 -35.14,0 -63.62,13.51 -63.62,30.17 0,16.67 28.48,30.19 63.62,30.19 35.15,0 63.64,-13.52 63.64,-30.19z"/>
      <path id="_59" class="fil66" d="M149.83 362.96c0,16.53 -28.25,29.93 -63.1,29.93 -34.85,0 -63.09,-13.4 -63.09,-29.93 0,-16.53 28.24,-29.92 63.09,-29.92 34.85,0 63.1,13.39 63.1,29.92zm1.6 0c0,-16.95 -28.96,-30.68 -64.7,-30.68 -35.73,0 -64.7,13.73 -64.7,30.68 0,16.95 28.97,30.69 64.7,30.69 35.74,0 64.7,-13.74 64.7,-30.69z"/>
      <path id="_60" class="fil67" d="M150.9 362.96c0,16.82 -28.73,30.44 -64.17,30.44 -35.43,0 -64.16,-13.62 -64.16,-30.44 0,-16.8 28.73,-30.43 64.16,-30.43 35.44,0 64.17,13.63 64.17,30.43zm1.6 0c0,-17.22 -29.44,-31.19 -65.77,-31.19 -36.32,0 -65.76,13.97 -65.76,31.19 0,17.24 29.44,31.2 65.76,31.2 36.33,0 65.77,-13.96 65.77,-31.2z"/>
      <path id="_61" class="fil68" d="M151.97 362.96c0,17.09 -29.2,30.95 -65.24,30.95 -36.02,0 -65.23,-13.86 -65.23,-30.95 0,-17.09 29.21,-30.94 65.23,-30.94 36.04,0 65.24,13.85 65.24,30.94zm1.61 0c0,-17.51 -29.93,-31.7 -66.85,-31.7 -36.91,0 -66.83,14.19 -66.83,31.7 0,17.51 29.92,31.7 66.83,31.7 36.92,0 66.85,-14.19 66.85,-31.7z"/>
      <path id="_62" class="fil69" d="M153.04 362.96c0,17.37 -29.69,31.45 -66.31,31.45 -36.62,0 -66.3,-14.08 -66.3,-31.45 0,-17.36 29.68,-31.44 66.3,-31.44 36.62,0 66.31,14.08 66.31,31.44zm1.6 0c0,-17.78 -30.4,-32.21 -67.91,-32.21 -37.5,0 -67.91,14.43 -67.91,32.21 0,17.79 30.41,32.21 67.91,32.21 37.51,0 67.91,-14.42 67.91,-32.21z"/>
      <path id="_63" class="fil70" d="M154.1 362.96c0,17.66 -30.16,31.96 -67.37,31.96 -37.2,0 -67.37,-14.3 -67.37,-31.96 0,-17.64 30.17,-31.95 67.37,-31.95 37.21,0 67.37,14.31 67.37,31.95zm1.61 0c0,-18.06 -30.88,-32.72 -68.98,-32.72 -38.09,0 -68.97,14.66 -68.97,32.72 0,18.08 30.88,32.72 68.97,32.72 38.1,0 68.98,-14.64 68.98,-32.72z"/>
      <path id="_64" class="fil71" d="M155.18 362.96c0,17.93 -30.64,32.46 -68.45,32.46 -37.79,0 -68.43,-14.53 -68.43,-32.46 0,-17.93 30.64,-32.46 68.43,-32.46 37.81,0 68.45,14.53 68.45,32.46zm1.6 0c0,-18.35 -31.36,-33.21 -70.05,-33.21 -38.68,0 -70.04,14.86 -70.04,33.21 0,18.35 31.36,33.23 70.04,33.23 38.69,0 70.05,-14.88 70.05,-33.23z"/>
      <path id="_65" class="fil72" d="M156.25 362.96c0,18.21 -31.13,32.97 -69.52,32.97 -38.39,0 -69.51,-14.76 -69.51,-32.97 0,-18.2 31.12,-32.96 69.51,-32.96 38.39,0 69.52,14.76 69.52,32.96zm1.6 0c0,-18.62 -31.84,-33.72 -71.12,-33.72 -39.27,0 -71.11,15.1 -71.11,33.72 0,18.63 31.84,33.74 71.11,33.74 39.28,0 71.12,-15.11 71.12,-33.74z"/>
      <path id="_66" class="fil73" d="M157.31 362.96c0,18.5 -31.59,33.48 -70.58,33.48 -38.97,0 -70.58,-14.98 -70.58,-33.48 0,-18.48 31.61,-33.47 70.58,-33.47 38.99,0 70.58,14.99 70.58,33.47zm1.61 0c0,-18.9 -32.32,-34.23 -72.19,-34.23 -39.86,0 -72.18,15.33 -72.18,34.23 0,18.91 32.32,34.24 72.18,34.24 39.87,0 72.19,-15.33 72.19,-34.24z"/>
      <path id="_67" class="fil74" d="M158.39 362.96c0,18.77 -32.08,33.99 -71.66,33.99 -39.57,0 -71.64,-15.22 -71.64,-33.99 0,-18.77 32.07,-33.98 71.64,-33.98 39.58,0 71.66,15.21 71.66,33.98zm1.6 0c0,-19.19 -32.79,-34.74 -73.26,-34.74 -40.45,0 -73.25,15.55 -73.25,34.74 0,19.19 32.8,34.75 73.25,34.75 40.47,0 73.26,-15.56 73.26,-34.75z"/>
      <path id="_68" class="fil75" d="M159.45 362.96c0,19.05 -32.56,34.5 -72.72,34.5 -40.16,0 -72.72,-15.45 -72.72,-34.5 0,-19.04 32.56,-34.49 72.72,-34.49 40.16,0 72.72,15.45 72.72,34.49zm1.61 0c0,-19.46 -33.28,-35.25 -74.33,-35.25 -41.05,0 -74.32,15.79 -74.32,35.25 0,19.48 33.27,35.25 74.32,35.25 41.05,0 74.33,-15.77 74.33,-35.25z"/>
      <path id="_69" class="fil76" d="M160.52 362.96c0,19.33 -33.03,35.01 -73.79,35.01 -40.74,0 -73.79,-15.68 -73.79,-35.01 0,-19.33 33.05,-34.99 73.79,-34.99 40.76,0 73.79,15.66 73.79,34.99zm1.6 0c0,-19.75 -33.75,-35.76 -75.39,-35.76 -41.63,0 -75.39,16.01 -75.39,35.76 0,19.75 33.76,35.76 75.39,35.76 41.64,0 75.39,-16.01 75.39,-35.76z"/>
      <path id="_70" class="fil77" d="M161.6 362.96c0,19.61 -33.52,35.51 -74.87,35.51 -41.34,0 -74.85,-15.9 -74.85,-35.51 0,-19.61 33.51,-35.5 74.85,-35.5 41.35,0 74.87,15.89 74.87,35.5zm1.6 0c0,-20.03 -34.23,-36.27 -76.47,-36.27 -42.22,0 -76.45,16.24 -76.45,36.27 0,20.03 34.23,36.27 76.45,36.27 42.24,0 76.47,-16.24 76.47,-36.27z"/>
      <path id="_71" class="fil78" d="M162.66 362.96c0,19.9 -33.99,36.02 -75.93,36.02 -41.93,0 -75.93,-16.12 -75.93,-36.02 0,-19.88 34,-36.01 75.93,-36.01 41.94,0 75.93,16.13 75.93,36.01zm1.61 0c0,-20.3 -34.72,-36.76 -77.54,-36.76 -42.82,0 -77.53,16.46 -77.53,36.76 0,20.32 34.71,36.78 77.53,36.78 42.82,0 77.54,-16.46 77.54,-36.78z"/>
      <path id="_72" class="fil79" d="M163.73 362.96c0,20.17 -34.47,36.52 -77,36.52 -42.52,0 -76.99,-16.35 -76.99,-36.52 0,-20.17 34.47,-36.52 76.99,-36.52 42.53,0 77,16.35 77,36.52zm1.6 0c0,-20.59 -35.19,-37.27 -78.6,-37.27 -43.4,0 -78.6,16.68 -78.6,37.27 0,20.59 35.2,37.29 78.6,37.29 43.41,0 78.6,-16.7 78.6,-37.29z"/>
      <path id="_73" class="fil80" d="M164.8 362.96c0,20.45 -34.95,37.03 -78.07,37.03 -43.11,0 -78.06,-16.58 -78.06,-37.03 0,-20.45 34.95,-37.02 78.06,-37.02 43.12,0 78.07,16.57 78.07,37.02zm1.61 0c0,-20.86 -35.67,-37.78 -79.68,-37.78 -43.99,0 -79.67,16.92 -79.67,37.78 0,20.87 35.68,37.8 79.67,37.8 44.01,0 79.68,-16.93 79.68,-37.8z"/>
      <path id="_74" class="fil81" d="M165.87 362.96c0,20.74 -35.43,37.54 -79.14,37.54 -43.7,0 -79.13,-16.8 -79.13,-37.54 0,-20.72 35.43,-37.53 79.13,-37.53 43.71,0 79.14,16.81 79.14,37.53zm1.6 0c0,-21.14 -36.15,-38.29 -80.74,-38.29 -44.59,0 -80.74,17.15 -80.74,38.29 0,21.16 36.15,38.3 80.74,38.3 44.59,0 80.74,-17.14 80.74,-38.3z"/>
      <path id="_75" class="fil82" d="M166.95 362.96c0,21.01 -35.92,38.05 -80.22,38.05 -44.3,0 -80.2,-17.04 -80.2,-38.05 0,-21.01 35.9,-38.04 80.2,-38.04 44.3,0 80.22,17.03 80.22,38.04zm1.59 0c0,-21.43 -36.62,-38.8 -81.81,-38.8 -45.18,0 -81.81,17.37 -81.81,38.8 0,21.43 36.63,38.8 81.81,38.8 45.19,0 81.81,-17.37 81.81,-38.8z"/>
      <path id="_76" class="fil83" d="M168.01 362.96c0,21.3 -36.39,38.55 -81.28,38.55 -44.88,0 -81.27,-17.25 -81.27,-38.55 0,-21.28 36.39,-38.54 81.27,-38.54 44.89,0 81.28,17.26 81.28,38.54zm1.61 0c0,-21.7 -37.11,-39.31 -82.89,-39.31 -45.77,0 -82.87,17.61 -82.87,39.31 0,21.72 37.1,39.31 82.87,39.31 45.78,0 82.89,-17.59 82.89,-39.31z"/>
      <path id="_77" class="fil84" d="M169.08 362.96c0,21.58 -36.87,39.06 -82.35,39.06 -45.48,0 -82.34,-17.48 -82.34,-39.06 0,-21.56 36.86,-39.05 82.34,-39.05 45.48,0 82.35,17.49 82.35,39.05zm1.6 0c0,-21.99 -37.59,-39.82 -83.95,-39.82 -46.36,0 -83.95,17.83 -83.95,39.82 0,22 37.59,39.82 83.95,39.82 46.36,0 83.95,-17.82 83.95,-39.82z"/>
      <path id="_78" class="fil85" d="M170.15 362.96c0,21.85 -37.35,39.57 -83.42,39.57 -46.07,0 -83.41,-17.72 -83.41,-39.57 0,-21.85 37.34,-39.56 83.41,-39.56 46.07,0 83.42,17.71 83.42,39.56zm1.6 0c0,-22.27 -38.06,-40.33 -85.02,-40.33 -46.95,0 -85.01,18.06 -85.01,40.33 0,22.27 38.06,40.33 85.01,40.33 46.96,0 85.02,-18.06 85.02,-40.33z"/>
      <path id="_79" class="fil86" d="M171.22 362.96c0,22.14 -37.82,40.07 -84.49,40.07 -46.65,0 -84.48,-17.93 -84.48,-40.07 0,-22.12 37.83,-40.07 84.48,-40.07 46.67,0 84.49,17.95 84.49,40.07zm1.6 0c0,-22.54 -38.54,-40.82 -86.09,-40.82 -47.54,0 -86.08,18.28 -86.08,40.82 0,22.56 38.54,40.84 86.08,40.84 47.55,0 86.09,-18.28 86.09,-40.84z"/>
      <path id="_80" class="fil87" d="M172.29 362.96c0,22.41 -38.31,40.58 -85.56,40.58 -47.25,0 -85.55,-18.17 -85.55,-40.58 0,-22.41 38.3,-40.57 85.55,-40.57 47.25,0 85.56,18.16 85.56,40.57zm1.6 0c0,-22.83 -39.01,-41.33 -87.16,-41.33 -48.13,0 -87.16,18.5 -87.16,41.33 0,22.83 39.03,41.35 87.16,41.35 48.15,0 87.16,-18.52 87.16,-41.35z"/>
      <path id="_81" class="fil88" d="M173.36 362.96c0,22.69 -38.79,41.09 -86.63,41.09 -47.84,0 -86.62,-18.4 -86.62,-41.09 0,-22.69 38.78,-41.08 86.62,-41.08 47.84,0 86.63,18.39 86.63,41.08zm1.6 0c0,-23.11 -39.5,-41.84 -88.23,-41.84 -48.73,0 -88.22,18.73 -88.22,41.84 0,23.11 39.49,41.85 88.22,41.85 48.73,0 88.23,-18.74 88.23,-41.85z"/>
      <path id="_82" class="fil88" d="M174.43 362.96c0,22.98 -39.26,41.6 -87.7,41.6 -48.42,0 -87.68,-18.62 -87.68,-41.6 0,-22.96 39.26,-41.59 87.68,-41.59 48.44,0 87.7,18.63 87.7,41.59zm1.6 0c0,-23.38 -39.98,-42.35 -89.3,-42.35 -49.31,0 -89.29,18.97 -89.29,42.35 0,23.4 39.98,42.35 89.29,42.35 49.32,0 89.3,-18.95 89.3,-42.35z"/>
      <path id="_83" class="fil89" d="M175.49 362.96c0,23.25 -39.73,42.11 -88.76,42.11 -49.02,0 -88.76,-18.86 -88.76,-42.11 0,-23.25 39.74,-42.1 88.76,-42.1 49.03,0 88.76,18.85 88.76,42.1zm1.61 0c0,-23.67 -40.46,-42.86 -90.37,-42.86 -49.9,0 -90.36,19.19 -90.36,42.86 0,23.67 40.46,42.86 90.36,42.86 49.91,0 90.37,-19.19 90.37,-42.86z"/>
      <path id="_84" class="fil89" d="M176.57 362.96c0,23.53 -40.22,42.61 -89.84,42.61 -49.61,0 -89.83,-19.08 -89.83,-42.61 0,-23.53 40.22,-42.6 89.83,-42.6 49.62,0 89.84,19.07 89.84,42.6zm1.6 0c0,-23.95 -40.94,-43.37 -91.44,-43.37 -50.5,0 -91.43,19.42 -91.43,43.37 0,23.95 40.93,43.37 91.43,43.37 50.5,0 91.44,-19.42 91.44,-43.37z"/>
      <path id="_85" class="fil90" d="M177.64 362.96c0,23.82 -40.7,43.12 -90.91,43.12 -50.2,0 -90.9,-19.3 -90.9,-43.12 0,-23.81 40.7,-43.11 90.9,-43.11 50.21,0 90.91,19.31 90.91,43.11zm1.6 0c0,-24.23 -41.41,-43.87 -92.51,-43.87 -51.08,0 -92.49,19.64 -92.49,43.87 0,24.24 41.41,43.88 92.49,43.88 51.1,0 92.51,-19.64 92.51,-43.88z"/>
      <path id="_86" class="fil91" d="M178.7 362.96c0,24.09 -41.18,43.63 -91.97,43.63 -50.79,0 -91.97,-19.54 -91.97,-43.63 0,-24.09 41.18,-43.62 91.97,-43.62 50.79,0 91.97,19.53 91.97,43.62zm1.61 0c0,-24.51 -41.89,-44.37 -93.58,-44.37 -51.68,0 -93.57,19.86 -93.57,44.37 0,24.51 41.89,44.39 93.57,44.39 51.69,0 93.58,-19.88 93.58,-44.39z"/>
      <path id="_87" class="fil92" d="M179.78 362.96c0,24.38 -41.66,44.13 -93.05,44.13 -51.38,0 -93.03,-19.75 -93.03,-44.13 0,-24.37 41.65,-44.12 93.03,-44.12 51.39,0 93.05,19.75 93.05,44.12zm1.6 0c0,-24.78 -42.38,-44.88 -94.65,-44.88 -52.27,0 -94.64,20.1 -94.64,44.88 0,24.8 42.37,44.9 94.64,44.9 52.27,0 94.65,-20.1 94.65,-44.9z"/>
      <path id="_88" class="fil93" d="M180.85 362.96c0,24.66 -42.14,44.64 -94.12,44.64 -51.97,0 -94.11,-19.98 -94.11,-44.64 0,-24.65 42.14,-44.63 94.11,-44.63 51.98,0 94.12,19.98 94.12,44.63zm1.6 0c0,-25.07 -42.85,-45.39 -95.72,-45.39 -52.85,0 -95.7,20.32 -95.7,45.39 0,25.08 42.85,45.41 95.7,45.41 52.87,0 95.72,-20.33 95.72,-45.41z"/>
      <path id="_89" class="fil94" d="M181.91 362.96c0,24.93 -42.6,45.15 -95.18,45.15 -52.56,0 -95.17,-20.22 -95.17,-45.15 0,-24.93 42.61,-45.14 95.17,-45.14 52.58,0 95.18,20.21 95.18,45.14zm1.61 0c0,-25.35 -43.33,-45.9 -96.79,-45.9 -53.45,0 -96.78,20.55 -96.78,45.9 0,25.35 43.33,45.91 96.78,45.91 53.46,0 96.79,-20.56 96.79,-45.91z"/>
      <path id="_90" class="fil95" d="M182.98 362.96c0,25.22 -43.09,45.66 -96.25,45.66 -53.16,0 -96.24,-20.44 -96.24,-45.66 0,-25.2 43.08,-45.65 96.24,-45.65 53.16,0 96.25,20.45 96.25,45.65zm1.61 0c0,-25.62 -43.82,-46.41 -97.86,-46.41 -54.04,0 -97.85,20.79 -97.85,46.41 0,25.64 43.81,46.41 97.85,46.41 54.04,0 97.86,-20.77 97.86,-46.41z"/>
      <path id="_91" class="fil96" d="M184.05 362.96c0,25.5 -43.57,46.16 -97.32,46.16 -53.74,0 -97.32,-20.66 -97.32,-46.16 0,-25.49 43.58,-46.15 97.32,-46.15 53.75,0 97.32,20.66 97.32,46.15zm1.61 0c0,-25.91 -44.29,-46.92 -98.93,-46.92 -54.62,0 -98.92,21.01 -98.92,46.92 0,25.92 44.3,46.92 98.92,46.92 54.64,0 98.93,-21 98.93,-46.92z"/>
      <path id="_92" class="fil97" d="M185.12 362.96c0,25.78 -44.04,46.67 -98.39,46.67 -54.33,0 -98.38,-20.89 -98.38,-46.67 0,-25.77 44.05,-46.66 98.38,-46.66 54.35,0 98.39,20.89 98.39,46.66zm1.6 0c0,-26.19 -44.76,-47.43 -99.99,-47.43 -55.22,0 -99.99,21.24 -99.99,47.43 0,26.2 44.77,47.43 99.99,47.43 55.23,0 99.99,-21.23 99.99,-47.43z"/>
      <path id="_93" class="fil98" d="M186.2 362.96c0,26.06 -44.54,47.18 -99.47,47.18 -54.93,0 -99.45,-21.12 -99.45,-47.18 0,-26.04 44.52,-47.17 99.45,-47.17 54.93,0 99.47,21.13 99.47,47.17zm1.6 0c0,-26.47 -45.25,-47.92 -101.07,-47.92 -55.81,0 -101.05,21.45 -101.05,47.92 0,26.48 45.24,47.94 101.05,47.94 55.82,0 101.07,-21.46 101.07,-47.94l0 0z"/>
      <path id="_94" class="fil99" d="M187.26 362.96c0,26.33 -45.01,47.68 -100.53,47.68 -55.51,0 -100.53,-21.35 -100.53,-47.68 0,-26.33 45.02,-47.67 100.53,-47.67 55.52,0 100.53,21.34 100.53,47.67zm1.61 0c0,-26.75 -45.73,-48.43 -102.14,-48.43 -56.4,0 -102.13,21.68 -102.13,48.43 0,26.75 45.73,48.45 102.13,48.45 56.41,0 102.14,-21.7 102.14,-48.45z"/>
      <path id="_95" class="fil100" d="M188.33 362.96c0,26.62 -45.48,48.19 -101.6,48.19 -56.1,0 -101.59,-21.57 -101.59,-48.19 0,-26.61 45.49,-48.18 101.59,-48.18 56.12,0 101.6,21.57 101.6,48.18zm1.6 0c0,-27.03 -46.2,-48.94 -103.2,-48.94 -56.99,0 -103.2,21.91 -103.2,48.94 0,27.04 46.21,48.96 103.2,48.96 57,0 103.2,-21.92 103.2,-48.96z"/>
      <path id="_96" class="fil101" d="M189.4 362.96c0,26.9 -45.97,48.7 -102.67,48.7 -56.7,0 -102.66,-21.8 -102.66,-48.7 0,-26.89 45.96,-48.69 102.66,-48.69 56.7,0 102.67,21.8 102.67,48.69zm1.61 0c0,-27.31 -46.69,-49.45 -104.28,-49.45 -57.58,0 -104.26,22.14 -104.26,49.45 0,27.32 46.68,49.45 104.26,49.45 57.59,0 104.28,-22.13 104.28,-49.45z"/>
      <path id="_97" class="fil102" d="M190.47 362.96c0,27.17 -46.44,49.21 -103.74,49.21 -57.28,0 -103.73,-22.04 -103.73,-49.21 0,-27.17 46.45,-49.2 103.73,-49.2 57.3,0 103.74,22.03 103.74,49.2zm1.6 0c0,-27.59 -47.16,-49.96 -105.34,-49.96 -58.17,0 -105.34,22.37 -105.34,49.96 0,27.59 47.17,49.96 105.34,49.96 58.18,0 105.34,-22.37 105.34,-49.96z"/>
      <path id="_98" class="fil103" d="M191.54 362.96c0,27.46 -46.92,49.71 -104.81,49.71 -57.88,0 -104.8,-22.25 -104.8,-49.71 0,-27.45 46.92,-49.7 104.8,-49.7 57.89,0 104.81,22.25 104.81,49.7zm1.6 0c0,-27.87 -47.63,-50.47 -106.41,-50.47 -58.76,0 -106.4,22.6 -106.4,50.47 0,27.88 47.64,50.47 106.4,50.47 58.78,0 106.41,-22.59 106.41,-50.47z"/>
      <path id="_99" class="fil104" d="M192.61 362.96c0,27.74 -47.41,50.22 -105.88,50.22 -58.47,0 -105.87,-22.48 -105.87,-50.22 0,-27.73 47.4,-50.21 105.87,-50.21 58.47,0 105.88,22.48 105.88,50.21zm1.61 0c0,-28.15 -48.13,-50.97 -107.49,-50.97 -59.36,0 -107.47,22.82 -107.47,50.97 0,28.16 48.11,50.98 107.47,50.98 59.36,0 107.49,-22.82 107.49,-50.98z"/>
      <path id="_100" class="fil103" d="M193.68 362.96c0,28.01 -47.88,50.73 -106.95,50.73 -59.05,0 -106.94,-22.72 -106.94,-50.73 0,-28.01 47.89,-50.72 106.94,-50.72 59.07,0 106.95,22.71 106.95,50.72zm1.6 0c0,-28.43 -48.6,-51.48 -108.55,-51.48 -59.94,0 -108.55,23.05 -108.55,51.48 0,28.43 48.61,51.49 108.55,51.49 59.95,0 108.55,-23.06 108.55,-51.49z"/>
      <path id="_101" class="fil102" d="M194.74 362.96c0,28.3 -48.35,51.24 -108.01,51.24 -59.65,0 -108.01,-22.94 -108.01,-51.24 0,-28.29 48.36,-51.22 108.01,-51.22 59.66,0 108.01,22.94 108.01,51.22zm1.61 0c0,-28.7 -49.07,-51.98 -109.62,-51.98 -60.53,0 -109.61,23.28 -109.61,51.98 0,28.72 49.08,52 109.61,52 60.55,0 109.62,-23.28 109.62,-52z"/>
      <path id="_102" class="fil101" d="M195.82 362.96c0,28.58 -48.85,51.74 -109.09,51.74 -60.24,0 -109.07,-23.16 -109.07,-51.74 0,-28.57 48.83,-51.73 109.07,-51.73 60.24,0 109.09,23.16 109.09,51.73zm1.6 0c0,-28.99 -49.56,-52.49 -110.69,-52.49 -61.13,0 -110.68,23.5 -110.68,52.49 0,29 49.55,52.51 110.68,52.51 61.13,0 110.69,-23.51 110.69,-52.51l0 0z"/>
      <path id="_103" class="fil100" d="M196.89 362.96c0,28.86 -49.32,52.25 -110.16,52.25 -60.82,0 -110.15,-23.39 -110.15,-52.25 0,-28.85 49.32,-52.24 110.15,-52.24 60.84,0 110.16,23.39 110.16,52.24zm1.6 0c0,-29.27 -50.04,-53 -111.76,-53 -61.72,0 -111.75,23.73 -111.75,53 0,29.28 50.03,53.01 111.75,53.01 61.72,0 111.76,-23.73 111.76,-53.01z"/>
      <path id="_104" class="fil99" d="M197.95 362.96c0,29.14 -49.79,52.76 -111.22,52.76 -61.42,0 -111.22,-23.62 -111.22,-52.76 0,-29.13 49.8,-52.75 111.22,-52.75 61.43,0 111.22,23.62 111.22,52.75zm1.61 0c0,-29.55 -50.51,-53.51 -112.83,-53.51 -62.3,0 -112.82,23.96 -112.82,53.51 0,29.56 50.52,53.51 112.82,53.51 62.32,0 112.83,-23.95 112.83,-53.51z"/>
      <path id="_105" class="fil98" d="M199.03 362.96c0,29.42 -50.28,53.26 -112.3,53.26 -62.01,0 -112.28,-23.84 -112.28,-53.26 0,-29.41 50.27,-53.26 112.28,-53.26 62.02,0 112.3,23.85 112.3,53.26zm1.6 0c0,-29.83 -51,-54.02 -113.9,-54.02 -62.9,0 -113.89,24.19 -113.89,54.02 0,29.83 50.99,54.02 113.89,54.02 62.9,0 113.9,-24.19 113.9,-54.02z"/>
      <path id="_106" class="fil97" d="M200.09 362.96c0,29.7 -50.75,53.77 -113.36,53.77 -62.6,0 -113.36,-24.07 -113.36,-53.77 0,-29.69 50.76,-53.76 113.36,-53.76 62.61,0 113.36,24.07 113.36,53.76zm1.61 0c0,-30.11 -51.47,-54.53 -114.97,-54.53 -63.49,0 -114.96,24.42 -114.96,54.53 0,30.12 51.47,54.53 114.96,54.53 63.5,0 114.97,-24.41 114.97,-54.53z"/>
      <path id="_107" class="fil96" d="M201.16 362.96c0,29.98 -51.23,54.28 -114.43,54.28 -63.19,0 -114.42,-24.3 -114.42,-54.28 0,-29.97 51.23,-54.27 114.42,-54.27 63.2,0 114.43,24.3 114.43,54.27zm1.6 0c0,-30.39 -51.94,-55.03 -116.03,-55.03 -64.08,0 -116.03,24.64 -116.03,55.03 0,30.4 51.95,55.04 116.03,55.04 64.09,0 116.03,-24.64 116.03,-55.04z"/>
      <path id="_108" class="fil95" d="M202.24 362.96c0,30.25 -51.72,54.78 -115.51,54.78 -63.78,0 -115.49,-24.53 -115.49,-54.78 0,-30.25 51.71,-54.77 115.49,-54.77 63.79,0 115.51,24.52 115.51,54.77zm1.6 0c0,-30.67 -52.44,-55.53 -117.11,-55.53 -64.67,0 -117.1,24.86 -117.1,55.53 0,30.67 52.43,55.55 117.1,55.55 64.67,0 117.11,-24.88 117.11,-55.55z"/>
      <path id="_109" class="fil94" d="M203.3 362.96c0,30.54 -52.19,55.29 -116.57,55.29 -64.38,0 -116.57,-24.75 -116.57,-55.29 0,-30.53 52.19,-55.28 116.57,-55.28 64.38,0 116.57,24.75 116.57,55.28zm1.61 0c0,-30.95 -52.91,-56.04 -118.18,-56.04 -65.26,0 -118.17,25.09 -118.17,56.04 0,30.96 52.91,56.06 118.17,56.06 65.27,0 118.18,-25.1 118.18,-56.06z"/>
      <path id="_110" class="fil93" d="M204.37 362.96c0,30.82 -52.66,55.8 -117.64,55.8 -64.96,0 -117.63,-24.98 -117.63,-55.8 0,-30.81 52.67,-55.79 117.63,-55.79 64.98,0 117.64,24.98 117.64,55.79zm1.07 0c0,-31.09 -53.15,-56.3 -118.71,-56.3 -65.56,0 -118.7,25.21 -118.7,56.3 0,31.1 53.14,56.31 118.7,56.31 65.56,0 118.71,-25.21 118.71,-56.31z"/>
     </g>
    </g>
    <path class="fil105" d="M74.75 362.39c1.98,0.8 8.48,4.74 12.25,3.34 4.1,-1.52 8.53,-4.06 12.45,-6.02l67.5 -34.18 -9.33 -3.23c-29.28,14.19 -48.9,24.49 -77.38,38.86 -1.26,0.64 -4.16,1.19 -5.49,1.23z"/>
   </g>
   <path class="fil106" d="M92.2 375.23c-3.56,2.73 -2.65,5.88 -2.59,11.26 2.1,-2.95 3.31,-3.88 7.39,-6.64 1.83,-1.24 7.86,-4.25 10.08,-5.32 2.67,-1.29 5.82,-2.71 9.39,-4.47 18.08,-8.93 38.23,-18.51 53.8,-26.05l-0.25 -7.24c-9.4,4.56 -39.92,20.01 -60.28,29.32 -8.34,3.82 -15.2,7.35 -17.54,9.14l0 0z"/>
   <path class="fil3" d="M326.61 316.37c-9.03,-4.89 -21.38,-10.91 -32.9,-16.5 -9.1,-4.42 -17.2,-8.89 -21.66,-14.92 -3.44,-4.67 -5.52,-7.71 -5.85,-18.05 -0.59,-19.18 -0.03,-38.9 -0.06,-58.21l-9.02 4.11c-0.51,20.57 0.03,36.7 0.22,57.26 0.1,10.8 5.25,22.06 11.68,25.64 13.65,7.63 29.12,15.12 43.03,21.52l14.56 -0.85 0 0z"/>
   <path class="fil5" d="M407.85 385.9c-0.05,-0.99 0.04,-4.34 0,-5.73 -0.16,-3.33 -4.52,-5.72 -7.19,-7.05 -23.43,-11.62 -46.87,-23.24 -70.27,-34.87 -6.22,-3.08 -12.43,-6.17 -18.64,-9.26l-0.04 6.76c-0.39,-0.02 71,34.71 92.97,46.59 2.36,1.27 3.17,2.97 3.17,3.56z"/>
   <path class="fil107" d="M158.65 129.24c-6.56,3.52 -13.11,7.07 -19.68,10.58 -11.74,6.27 -24.46,12.62 -36.21,19.09 0.04,7.54 -0.11,15.34 -0.07,22.87 -9.84,3.12 -18.48,5.81 -28.35,8.84l-20.29 -10.17c-0.06,-8.43 -0.38,-16.87 -0.16,-25.32 0.44,-17.14 6.38,-30.53 18.31,-37.9 15.86,-9.81 32.57,-17.86 48.84,-26.55 16.28,-8.69 32.69,-17.21 48.9,-26.06 7.88,-4.3 13.52,-6.18 16.61,-3.92l19.28 10.47c2.51,1.22 3.79,4.15 3.85,8.83 0.2,16.19 0.42,32.39 0.32,48.6 -0.08,13.15 -4.18,23.84 -12.12,32.07l9.52 4.81c4.04,2.77 6.14,9.03 6.2,18.76 0.12,16.12 -0.06,32.23 -0.19,48.33 -0.15,18.82 -6.87,31.71 -20.07,38.74 -16.95,9.03 -33.93,18.05 -50.88,27.07 -16.94,9.01 -33.92,18.06 -50.86,27.07 -3.28,1.75 -6.13,2.56 -8.52,2.45l-23.23 -10.87c-4.42,-2.1 -6.65,-8.76 -6.7,-20.01 -0.04,-9.77 -0.11,-19.51 -0.18,-29.28 9.67,-7.8 19.38,-15.64 29.09,-23.55l20.3 10.18c0,2.33 0.01,4.66 0.02,6.99 5.69,-3.04 11.37,-6.07 17.05,-9.09 12.42,-6.6 24.86,-13.24 37.3,-19.84 4.86,-2.58 7.32,-8.84 7.33,-18.67 0.01,-4.17 0.02,-8.34 0.04,-12.51 -4.2,2.24 -8.38,4.46 -12.56,6.7 -8.52,4.55 -17.02,9.06 -25.52,13.59l-20.29 -10.17c-0.05,-11.57 -0.09,-23.17 -0.15,-34.76 8.09,-4.34 16.16,-8.64 24.23,-12.94 8.07,-4.3 16.15,-8.59 24.23,-12.91 3.1,-3.54 4.66,-7.47 4.65,-11.81 -0.01,-3.24 -0.02,-6.47 -0.04,-9.71l0 0z"/>
   <path class="fil108 str0" d="M72.11 116.23c15.86,-9.82 32.57,-17.86 48.85,-26.55 16.27,-8.7 32.68,-17.2 48.89,-26.07 12.86,-7.02 19.3,-5.45 19.45,5.22 0.2,16.18 0.42,32.39 0.32,48.6 -0.11,17.35 -7.23,30.43 -20.91,39.2 16,-8.67 24.37,-3.21 24.51,16.44 0.12,16.12 -0.07,32.22 -0.2,48.31 -0.14,18.84 -6.86,31.71 -20.07,38.76 -16.95,9.03 -33.93,18.05 -50.88,27.06 -16.94,9.02 -33.91,18.06 -50.85,27.07 -12.05,6.41 -18.07,0.32 -18.15,-18.25 -0.05,-9.77 -0.12,-19.51 -0.19,-29.29 9.67,-7.79 19.38,-15.63 29.09,-23.54 0.03,9.36 0.09,18.69 0.12,28 12.42,-6.66 24.83,-13.32 37.25,-19.93 12.42,-6.59 24.87,-13.22 37.3,-19.83 4.86,-2.58 7.31,-8.84 7.33,-18.67 0.01,-7.66 0.05,-15.33 0.06,-22.97 0.01,-7.04 -2.45,-9.23 -7.33,-6.63 -8.53,4.55 -17.06,9.07 -25.55,13.62 -8.51,4.55 -17.02,9.05 -25.51,13.59 -0.05,-11.57 -0.09,-23.17 -0.15,-34.77 8.09,-4.33 16.16,-8.63 24.23,-12.93 8.07,-4.3 16.15,-8.6 24.23,-12.91 3.1,-3.54 4.66,-7.47 4.65,-11.81 -0.02,-7.56 -0.06,-15.12 -0.09,-22.65 -0.03,-5.1 -1.66,-7.04 -4.7,-5.46 -11.82,6.15 -23.49,12.53 -35.23,18.81 -11.74,6.27 -23.47,12.55 -35.22,19.01 0.04,7.53 0.1,15.04 0.13,22.56 -9.82,3.12 -19.66,6.2 -29.53,9.23 -0.06,-8.43 -0.37,-16.87 -0.16,-25.32 0.44,-17.14 6.38,-30.52 18.31,-37.9l0 0z"/>
   <path class="fil109" d="M345.73 87.92c-22.72,-11.34 -45.44,-22.67 -68.19,-33.93 -6.99,-3.45 -12.69,2.21 -12.68,12.48 0.04,33.44 0.06,66.89 0.1,100.31 0.04,33.47 0.11,66.88 0.11,100.32 0,10.24 5.72,21.47 12.71,24.99 22.8,11.47 45.57,22.87 68.34,34.27 22.79,11.42 45.55,22.83 68.33,34.21 6.99,3.49 12.69,-2.08 12.67,-12.38 -0.07,-33.54 -0.16,-67.11 -0.25,-100.65 -0.09,-33.54 -0.21,-67.08 -0.27,-100.65 -0.08,-10.21 -8.84,-21.04 -15.57,-25.89 0,0.04 -57.99,-29.43 -65.3,-33.08z"/>
   <path class="fil110" d="M422.43 309.52c3.83,-1.33 7.18,-3.75 10.07,-7.25 8.69,-10.53 13.26,-30.98 13.55,-61.31 0.04,-6.34 0.07,-12.65 0.06,-18.99 -0.09,-29.87 -4.33,-54.42 -12.59,-73.63 -8.28,-19.2 -20.64,-33.03 -37,-41.7 -11.42,-6.03 -22.79,-12.17 -34.18,-18.29 -4.87,-2.61 -50.57,-26.88 -55.44,-29.49l-22.26 14.16c0.04,33.24 -0.39,56.58 -0.38,89.79 0,33.16 -0.35,68.7 -0.65,101.76 13.98,7.48 27.79,12.37 41.77,19.85 13.98,7.48 27.96,14.97 41.95,22.44 7.66,4.09 14.32,6.25 20.21,6.43l34.89 -3.77 0 0z"/>
   <path class="fil111" d="M338.47 132.63c0.02,33.89 0.05,67.73 -0.33,101.61 7.04,3.76 14.07,7.52 21.12,11.29 7.03,3.76 14.08,7.53 21.16,11.31 6.06,-8.57 9.87,-25.51 9.97,-49.21 0.13,-31.44 -9.49,-52.28 -28.61,-62.5 -7.76,-4.15 -15.54,-8.33 -23.31,-12.5z"/>
   <path class="fil112 str1" d="M308.28 62.46c14.65,7.23 28.54,13.69 43.02,21.05 14.49,7.38 29.04,15.46 43.56,22.76 16.54,8.32 29.1,21.26 37.77,40.29 8.68,19.03 13.43,43.5 14.14,73.35 0.15,6.34 0.26,12.65 0.33,18.99 0.35,30.32 -3.78,50.86 -12.25,61.58 -8.48,10.72 -21.37,11.71 -38.71,2.9 -14.14,-7.19 -28.27,-14.37 -42.41,-21.56 -14.13,-7.18 -28.28,-15.94 -42.4,-23.13 -0.4,-33.05 -0.56,-64.44 -1.26,-97.59 -0.17,-8.3 -1.56,-86.55 -1.79,-98.64zm28.66 53.76c0.41,19.71 0.84,39.51 1.27,59.23 0.41,19.71 0.68,39.38 0.87,58.99 7.12,3.6 14.23,7.22 21.35,10.85 7.11,3.61 14.24,7.23 21.34,10.83 12.09,6.14 21.1,4.86 27.01,-3.88 5.89,-8.7 8.74,-24.86 8.34,-48.55 -0.52,-31.44 -10.57,-52.07 -29.9,-61.89 -8.39,-4.26 -16.77,-8.53 -25.15,-12.8 -8.38,-4.28 -16.76,-8.55 -25.13,-12.78z"/>
   <path class="fil113" d="M381.22 316.03c-32.81,-15.27 -65.94,-34.42 -97.61,-51.46l25.23 -4.37c15.97,7.53 31.03,16.09 45.48,24.15 14.29,7.97 28.84,16.15 44.5,22.85 4.3,1.84 8.85,2.53 13.21,4.16 -30.81,4.67 0,0 -30.81,4.67l0 0z"/>
  </g>
 </g>
</svg>
