<?xml version="1.0" encoding="UTF-8"?>
<!DOCTYPE svg PUBLIC "-//W3C//DTD SVG 1.1//EN" "http://www.w3.org/Graphics/SVG/1.1/DTD/svg11.dtd">
<!-- Creator: CorelDRAW 2017 -->
<svg xmlns="http://www.w3.org/2000/svg" xml:space="preserve" width="500px" height="500px" version="1.1" style="shape-rendering:geometricPrecision; text-rendering:geometricPrecision; image-rendering:optimizeQuality; fill-rule:evenodd; clip-rule:evenodd"
viewBox="0 0 500 500"
 xmlns:xlink="http://www.w3.org/1999/xlink">
 <defs>
  <style type="text/css">
   <![CDATA[
    .str0 {stroke:white;stroke-width:2;stroke-miterlimit:22.9256}
    .fil8 {fill:#FEFEFE}
    .fil9 {fill:#FDFDFD}
    .fil10 {fill:#FCFCFB}
    .fil11 {fill:#FBFBFB}
    .fil12 {fill:#FAFAFA}
    .fil13 {fill:#F9F9F9}
    .fil14 {fill:#F8F8F8}
    .fil15 {fill:#F6F6F6}
    .fil16 {fill:#F6F5F5}
    .fil17 {fill:#F4F4F4}
    .fil18 {fill:#F3F3F3}
    .fil19 {fill:#F2F2F2}
    .fil20 {fill:#F1F0F0}
    .fil21 {fill:#EFEFEF}
    .fil22 {fill:#EEEEEE}
    .fil23 {fill:#EDEDED}
    .fil24 {fill:#ECECEC}
    .fil25 {fill:#EAEAEA}
    .fil26 {fill:#EAE9E9}
    .fil27 {fill:#E8E7E8}
    .fil28 {fill:#E7E7E7}
    .fil29 {fill:#E7E6E6}
    .fil30 {fill:#E5E4E5}
    .fil31 {fill:#E4E3E4}
    .fil32 {fill:#E3E2E2}
    .fil33 {fill:#E2E1E2}
    .fil34 {fill:#E1E0E0}
    .fil35 {fill:#E0DFDF}
    .fil36 {fill:#DFDEDE}
    .fil37 {fill:#DEDCDD}
    .fil38 {fill:#DDDBDC}
    .fil39 {fill:#DBDADB}
    .fil40 {fill:#DBD9DA}
    .fil41 {fill:#DAD8D9}
    .fil42 {fill:#D8D7D7}
    .fil43 {fill:#D8D6D6}
    .fil44 {fill:#D6D5D5}
    .fil45 {fill:#D5D4D4}
    .fil46 {fill:#D4D3D3}
    .fil47 {fill:#D2D1D2}
    .fil48 {fill:#D2D0D1}
    .fil49 {fill:#D0CECF}
    .fil50 {fill:#CFCECF}
    .fil51 {fill:#CFCDCE}
    .fil52 {fill:#CDCCCC}
    .fil53 {fill:#CCCBCB}
    .fil54 {fill:#CBC9CA}
    .fil55 {fill:#CAC9CA}
    .fil56 {fill:#CAC8C9}
    .fil57 {fill:#C8C7C7}
    .fil58 {fill:#C7C6C6}
    .fil59 {fill:#C6C4C5}
    .fil60 {fill:#C5C3C4}
    .fil61 {fill:#C5C3C4}
    .fil62 {fill:#C3C2C2}
    .fil63 {fill:#C3C1C1}
    .fil64 {fill:#C1BFBF}
    .fil65 {fill:#C0BEBE}
    .fil66 {fill:#C0BEBE}
    .fil67 {fill:#BEBDBD}
    .fil68 {fill:#BEBCBC}
    .fil69 {fill:#BCBABA}
    .fil70 {fill:#BBB9B9}
    .fil71 {fill:#BAB8B8}
    .fil72 {fill:#B9B8B8}
    .fil73 {fill:#B8B7B7}
    .fil74 {fill:#B7B5B6}
    .fil75 {fill:#B6B4B5}
    .fil76 {fill:#B5B4B4}
    .fil77 {fill:#B4B3B3}
    .fil78 {fill:#B3B2B2}
    .fil79 {fill:#B2B1B1}
    .fil80 {fill:#B1B0B0}
    .fil81 {fill:#B0AFAF}
    .fil82 {fill:#AFAEAE}
    .fil83 {fill:#AEADAD}
    .fil84 {fill:#ADACAC}
    .fil85 {fill:#ACABAB}
    .fil86 {fill:#ABAAAA}
    .fil87 {fill:#AAA9A9}
    .fil88 {fill:darkgray}
    .fil89 {fill:#A8A7A7}
    .fil90 {fill:#A7A6A6}
    .fil91 {fill:#A6A5A5}
    .fil92 {fill:#A5A4A4}
    .fil93 {fill:#A4A3A3}
    .fil94 {fill:#A3A3A3}
    .fil95 {fill:#A2A1A2}
    .fil96 {fill:#A0A0A0}
    .fil97 {fill:#A09FA0}
    .fil98 {fill:#9F9F9F}
    .fil99 {fill:#9E9E9E}
    .fil100 {fill:#9D9D9D}
    .fil101 {fill:#9C9C9C}
    .fil102 {fill:#9B9B9B}
    .fil103 {fill:#9A9A9A}
    .fil104 {fill:#999999}
    .fil105 {fill:#989899}
    .fil106 {fill:#979797}
    .fil107 {fill:#969697}
    .fil0 {fill:#575757}
    .fil110 {fill:#575757}
    .fil6 {fill:#727271}
    .fil5 {fill:#898989}
    .fil2 {fill:#898989}
    .fil3 {fill:#9C9C9C}
    .fil4 {fill:#9C9C9C}
    .fil109 {fill:#B2B3B3}
    .fil114 {fill:#898989;fill-rule:nonzero}
    .fil116 {fill:url(#id1)}
    .fil7 {fill:url(#id2)}
    .fil108 {fill:url(#id3)}
    .fil1 {fill:url(#id4)}
    .fil112 {fill:url(#id5);fill-rule:nonzero}
    .fil111 {fill:url(#id6);fill-rule:nonzero}
    .fil115 {fill:url(#id7);fill-rule:nonzero}
    .fil113 {fill:url(#id8);fill-rule:nonzero}
   ]]>
  </style>
    <clipPath id="id0">
     <path d="M73.17 364.9c2.02,0.81 8.67,4.84 12.52,3.41 4.19,-1.55 8.72,-4.15 12.73,-6.15l69.01 -34.95 -9.53 -3.3c-29.94,14.51 -50,25.04 -79.12,39.73 -1.29,0.65 -4.25,1.21 -5.61,1.26z"/>
    </clipPath>
  <radialGradient id="id1" gradientUnits="userSpaceOnUse" gradientTransform="matrix(1.85188 -0 -0 0.77917 -253 62)" cx="297.53" cy="280.44" r="34.97" fx="297.53" fy="280.44">
   <stop offset="0" style="stop-opacity:1; stop-color:#FEFEFE"/>
   <stop offset="1" style="stop-opacity:1; stop-color:#ADADAD"/>
  </radialGradient>
  <radialGradient id="id2" gradientUnits="userSpaceOnUse" gradientTransform="matrix(1.85185 -0 -0 0.815136 -97 76)" cx="114.36" cy="408.97" r="224.75" fx="114.36" fy="408.97">
   <stop offset="0" style="stop-opacity:1; stop-color:#D9D9D9"/>
   <stop offset="0.819608" style="stop-opacity:1; stop-color:#B7B7B7"/>
   <stop offset="1" style="stop-opacity:1; stop-color:#969696"/>
  </radialGradient>
  <radialGradient id="id3" gradientUnits="userSpaceOnUse" gradientTransform="matrix(1.66664 -0 -0 1.02541 -68 -10)" cx="102.25" cy="375.3" r="61.23" fx="102.25" fy="375.3">
   <stop offset="0" style="stop-opacity:1; stop-color:#FEFEFE"/>
   <stop offset="1" style="stop-opacity:1; stop-color:#ABABAB"/>
  </radialGradient>
  <radialGradient id="id4" gradientUnits="userSpaceOnUse" gradientTransform="matrix(1.5625 -0 -0 1.5625 -81 -200)" cx="143.81" cy="356.27" r="207.36" fx="143.81" fy="356.27">
   <stop offset="0" style="stop-opacity:1; stop-color:#FEFEFE"/>
   <stop offset="1" style="stop-opacity:1; stop-color:dimgray"/>
  </radialGradient>
  <radialGradient id="id5" gradientUnits="userSpaceOnUse" gradientTransform="matrix(1.00717 -0 -0 0.96847 0 8)" cx="68.03" cy="250" r="71.42" fx="68.03" fy="250">
   <stop offset="0" style="stop-opacity:1; stop-color:white"/>
   <stop offset="1" style="stop-opacity:1; stop-color:#7F7E80"/>
  </radialGradient>
  <radialGradient id="id6" gradientUnits="userSpaceOnUse" gradientTransform="matrix(1.2312 -0 -0 1.92307 -13 -318)" cx="57.47" cy="345.04" r="66.71" fx="57.47" fy="345.04">
   <stop offset="0" style="stop-opacity:1; stop-color:white"/>
   <stop offset="1" style="stop-opacity:1; stop-color:#BDBDBD"/>
  </radialGradient>
  <radialGradient id="id7" gradientUnits="userSpaceOnUse" gradientTransform="matrix(1.24873 -0 -0 1.0388 -75 -9)" cx="300.94" cy="234.75" r="67.43" fx="300.94" fy="234.75">
   <stop offset="0" style="stop-opacity:1; stop-color:white"/>
   <stop offset="1" style="stop-opacity:1; stop-color:dimgray"/>
  </radialGradient>
  <radialGradient id="id8" gradientUnits="userSpaceOnUse" gradientTransform="matrix(1.38283 -0 -0 2 -108 -315)" cx="283.22" cy="314.86" r="60.13" fx="283.22" fy="314.86">
   <stop offset="0" style="stop-opacity:1; stop-color:white"/>
   <stop offset="1" style="stop-opacity:1; stop-color:#939496"/>
  </radialGradient>
 </defs>
 <g id="Слой_x0020_1">
  <metadata id="CorelCorpID_0Corel-Layer"/>
  <circle class="fil0" cx="250" cy="250" r="240.06"/>
  <circle class="fil1" cx="246.76" cy="260.42" r="177.5"/>
  <path class="fil2" d="M235.28 53.17c3.16,1.95 5.27,7.48 5.26,13.71 -0.03,34.19 -0.06,68.38 -0.1,102.54 -0.04,34.23 -0.11,68.39 -0.11,102.58 0,10.47 -5.85,21.95 -13,25.55 -23.3,11.73 -46.59,23.38 -69.86,35.04 -23.31,11.67 -46.58,23.34 -69.87,34.97 -2.93,1.47 -5.64,1.37 -7.82,0.02l-7.69 -3.12c-3.73,-1.9 -5.54,-6.42 -5.53,-13.68 0.06,-34.29 0.16,-68.62 0.25,-102.91 0.09,-34.29 0.22,-68.58 0.28,-102.9 0.02,-10.54 5.82,-22.06 12.98,-25.61 23.23,-11.53 46.46,-23.08 69.7,-34.68 23.23,-11.6 46.46,-23.18 69.71,-34.69 3.27,-1.61 4.48,-1.26 8.92,0.15l6.88 3.03z"/>
  <path class="fil3" d="M78.93 119.65c23.23,-11.53 46.46,-23.08 69.7,-34.68 23.23,-11.6 46.46,-23.18 69.72,-34.69 7.14,-3.53 12.97,2.26 12.96,12.76 -0.04,34.19 -0.06,68.39 -0.1,102.55 -0.04,34.22 -0.12,68.38 -0.12,102.57 0,10.47 -5.84,21.95 -12.99,25.55 -23.31,11.73 -46.59,23.38 -69.87,35.04 -23.3,11.67 -46.57,23.34 -69.86,34.97 -7.15,3.57 -12.97,-2.12 -12.95,-12.65 0.07,-34.29 0.16,-68.62 0.25,-102.91 0.09,-34.29 0.22,-68.58 0.28,-102.9 0.02,-10.54 5.82,-22.06 12.98,-25.61z"/>
  <path class="fil4" d="M264.72 52.82c-3.16,1.96 -5.27,7.48 -5.26,13.71 0.03,34.19 0.06,68.39 0.1,102.55 0.04,34.22 0.11,68.38 0.11,102.57 0,10.48 5.85,21.95 13,25.55 23.3,11.73 46.59,23.38 69.86,35.04 23.31,11.67 46.58,23.34 69.87,34.98 2.93,1.46 5.64,1.37 7.82,0.02l7.69 -3.13c3.73,-1.9 5.54,-6.42 5.53,-13.68 -0.06,-34.29 -0.16,-68.61 -0.25,-102.9 -0.09,-34.29 -0.22,-68.58 -0.28,-102.91 -0.02,-10.53 -5.82,-22.06 -12.98,-25.61 -23.23,-11.52 -46.46,-23.08 -69.7,-34.68 -23.23,-11.6 -46.46,-23.18 -69.72,-34.68 -3.26,-1.62 -4.47,-1.26 -8.91,0.14l-6.88 3.03z"/>
  <path class="fil5" d="M421.05 120.41c-23.24,-11.83 -46.45,-23.69 -69.7,-35.53 -23.2,-11.81 -46.45,-23.46 -69.7,-34.94 -7.15,-3.53 -12.97,2.25 -12.96,12.75 0.04,34.2 0.06,68.39 0.1,102.55 0.04,34.22 0.12,68.38 0.12,102.58 0,10.47 5.84,21.94 12.99,25.54 23.31,11.74 46.59,23.39 69.87,35.04 23.3,11.67 46.57,23.34 69.86,34.98 7.15,3.57 12.97,-2.06 12.95,-12.56 -0.07,-34.13 -0.16,-68.26 -0.27,-102.35 -0.1,-34.13 -0.23,-68.29 -0.3,-102.38 -0.01,-10.51 -5.81,-22.04 -12.96,-25.68z"/>
  <path class="fil6" d="M88.27 381.74c0.65,-2.09 2.79,-4.25 6.23,-5.94 23.96,-11.81 47.9,-23.6 71.71,-35.45 23.82,-11.85 47.56,-23.74 71.17,-35.7 7.27,-3.68 19.11,-3.72 26.49,-0.06 23.93,11.89 47.85,23.78 71.78,35.67 23.93,11.89 47.89,23.77 71.85,35.65 2.73,1.36 6.66,4.16 6.82,7.55l0.2 6.8c-0.48,1.48 -2.41,2.84 -5.3,3.83 -23.67,8.11 -47.42,16.16 -71.41,24.08 -24.03,7.93 -48.33,15.75 -72.99,23.45 -7.63,2.38 -20.2,2.33 -27.74,-0.07 -24.4,-7.78 -48.54,-15.64 -72.47,-23.59 -23.89,-7.94 -47.62,-15.98 -71.23,-24.08 -3.93,-1.35 -5.22,-3.12 -5.05,-5.32l-0.06 -6.82z"/>
  <path class="fil7" d="M88.27 389.79c0.65,-2.1 3.34,-4.68 6.7,-6.52 22.87,-12.55 47.41,-23.1 71.24,-34.88 23.86,-11.78 47.56,-23.73 71.17,-35.69 7.27,-3.69 19.11,-3.73 26.49,-0.07 23.93,11.89 47.85,23.79 71.78,35.68 23.93,11.89 47.89,23.76 71.85,35.65 2.73,1.35 6.66,4.15 6.82,7.55l-0.08 6.82c-0.48,1.48 -2.13,2.82 -5.02,3.81 -23.67,8.1 -47.42,16.16 -71.41,24.08 -24.03,7.93 -48.33,15.75 -72.99,23.44 -7.63,2.39 -20.2,2.33 -27.74,-0.07 -24.4,-7.77 -48.54,-15.63 -72.47,-23.58 -23.89,-7.94 -47.62,-15.98 -71.23,-24.08 -3.93,-1.35 -5.22,-3.12 -5.05,-5.33l-0.06 -6.81z"/>
  <g>
   <g style="clip-path:url(#id0)">
    <path class="fil8" d="M87.06 365.48c0,-0.43 -0.73,-0.77 -1.64,-0.77 -0.9,0 -1.64,0.34 -1.64,0.77 0,0.43 0.74,0.78 1.64,0.78 0.91,0 1.64,-0.35 1.64,-0.78z"/>
    <path id="1" class="fil9" d="M86.51 365.48c0,0.29 -0.48,0.52 -1.09,0.52 -0.6,0 -1.09,-0.23 -1.09,-0.52 0,-0.28 0.49,-0.52 1.09,-0.52 0.61,0 1.09,0.24 1.09,0.52zm1.65 0c0,-0.71 -1.23,-1.29 -2.74,-1.29 -1.51,0 -2.73,0.58 -2.73,1.29 0,0.72 1.22,1.3 2.73,1.3 1.51,0 2.74,-0.58 2.74,-1.3z"/>
    <path id="2" class="fil10" d="M87.61 365.48c0,0.58 -0.98,1.04 -2.19,1.04 -1.21,0 -2.19,-0.46 -2.19,-1.04 0,-0.57 0.98,-1.03 2.19,-1.03 1.21,0 2.19,0.46 2.19,1.03zm1.64 0c0,-1 -1.71,-1.81 -3.83,-1.81 -2.11,0 -3.82,0.81 -3.82,1.81 0,1.01 1.71,1.82 3.82,1.82 2.12,0 3.83,-0.81 3.83,-1.82z"/>
    <path id="3" class="fil11" d="M88.7 365.48c0,0.86 -1.47,1.56 -3.28,1.56 -1.81,0 -3.28,-0.7 -3.28,-1.56 0,-0.86 1.47,-1.55 3.28,-1.55 1.81,0 3.28,0.69 3.28,1.55zm1.64 0c0,-1.29 -2.2,-2.33 -4.92,-2.33 -2.72,0 -4.92,1.04 -4.92,2.33 0,1.29 2.2,2.34 4.92,2.34 2.72,0 4.92,-1.05 4.92,-2.34z"/>
    <path id="4" class="fil12" d="M89.79 365.48c0,1.15 -1.95,2.08 -4.37,2.08 -2.41,0 -4.37,-0.93 -4.37,-2.08 0,-1.14 1.96,-2.07 4.37,-2.07 2.42,0 4.37,0.93 4.37,2.07zm1.65 0c0,-1.57 -2.7,-2.85 -6.02,-2.85 -3.32,0 -6.01,1.28 -6.01,2.85 0,1.58 2.69,2.86 6.01,2.86 3.32,0 6.02,-1.28 6.02,-2.86z"/>
    <path id="5" class="fil13" d="M90.89 365.48c0,1.44 -2.45,2.6 -5.47,2.6 -3.02,0 -5.47,-1.16 -5.47,-2.6 0,-1.43 2.45,-2.59 5.47,-2.59 3.02,0 5.47,1.16 5.47,2.59zm1.64 0c0,-1.86 -3.18,-3.37 -7.11,-3.37 -3.92,0 -7.11,1.51 -7.11,3.37 0,1.86 3.19,3.37 7.11,3.37 3.93,0 7.11,-1.51 7.11,-3.37z"/>
    <path id="6" class="fil14" d="M91.98 365.48c0,1.72 -2.94,3.11 -6.56,3.11 -3.62,0 -6.56,-1.39 -6.56,-3.11 0,-1.72 2.94,-3.11 6.56,-3.11 3.62,0 6.56,1.39 6.56,3.11zm1.64 0c0,-2.14 -3.67,-3.89 -8.2,-3.89 -4.53,0 -8.2,1.75 -8.2,3.89 0,2.15 3.67,3.89 8.2,3.89 4.53,0 8.2,-1.74 8.2,-3.89z"/>
    <path id="7" class="fil15" d="M93.08 365.48c0,2.01 -3.43,3.63 -7.66,3.63 -4.22,0 -7.65,-1.62 -7.65,-3.63 0,-2 3.43,-3.63 7.65,-3.63 4.23,0 7.66,1.63 7.66,3.63zm1.64 0c0,-2.43 -4.17,-4.41 -9.3,-4.41 -5.13,0 -9.29,1.98 -9.29,4.41 0,2.44 4.16,4.41 9.29,4.41 5.13,0 9.3,-1.97 9.3,-4.41z"/>
    <path id="8" class="fil16" d="M94.17 365.48c0,2.29 -3.92,4.15 -8.75,4.15 -4.83,0 -8.74,-1.86 -8.74,-4.15 0,-2.29 3.91,-4.15 8.74,-4.15 4.83,0 8.75,1.86 8.75,4.15zm1.64 0c0,-2.72 -4.65,-4.92 -10.39,-4.92 -5.73,0 -10.39,2.2 -10.39,4.92 0,2.72 4.66,4.93 10.39,4.93 5.74,0 10.39,-2.21 10.39,-4.93z"/>
    <path id="9" class="fil17" d="M95.26 365.48c0,2.58 -4.4,4.67 -9.84,4.67 -5.43,0 -9.84,-2.09 -9.84,-4.67 0,-2.57 4.41,-4.66 9.84,-4.66 5.44,0 9.84,2.09 9.84,4.66zm1.64 0c0,-3 -5.14,-5.44 -11.48,-5.44 -6.34,0 -11.48,2.44 -11.48,5.44 0,3.01 5.14,5.45 11.48,5.45 6.34,0 11.48,-2.44 11.48,-5.45z"/>
    <path id="10" class="fil18" d="M96.36 365.48c0,2.87 -4.9,5.19 -10.94,5.19 -6.04,0 -10.93,-2.32 -10.93,-5.19 0,-2.86 4.89,-5.18 10.93,-5.18 6.04,0 10.94,2.32 10.94,5.18zm1.64 0c0,-3.29 -5.63,-5.96 -12.58,-5.96 -6.94,0 -12.57,2.67 -12.57,5.96 0,3.3 5.63,5.97 12.57,5.97 6.95,0 12.58,-2.67 12.58,-5.97z"/>
    <path id="11" class="fil19" d="M97.45 365.48c0,3.15 -5.39,5.71 -12.03,5.71 -6.64,0 -12.02,-2.56 -12.02,-5.71 0,-3.15 5.38,-5.7 12.02,-5.7 6.64,0 12.03,2.55 12.03,5.7zm1.64 0c0,-3.58 -6.12,-6.48 -13.67,-6.48 -7.55,0 -13.67,2.9 -13.67,6.48 0,3.58 6.12,6.49 13.67,6.49 7.55,0 13.67,-2.91 13.67,-6.49z"/>
    <path id="12" class="fil20" d="M98.54 365.48c0,3.44 -5.87,6.23 -13.12,6.23 -7.24,0 -13.12,-2.79 -13.12,-6.23 0,-3.43 5.88,-6.22 13.12,-6.22 7.25,0 13.12,2.79 13.12,6.22zm1.64 0c0,-3.86 -6.61,-7 -14.76,-7 -8.15,0 -14.76,3.14 -14.76,7 0,3.87 6.61,7 14.76,7 8.15,0 14.76,-3.13 14.76,-7z"/>
    <path id="13" class="fil21" d="M99.64 365.48c0,3.73 -6.37,6.74 -14.22,6.74 -7.85,0 -14.21,-3.01 -14.21,-6.74 0,-3.72 6.36,-6.74 14.21,-6.74 7.85,0 14.22,3.02 14.22,6.74zm1.64 0c0,-4.15 -7.1,-7.52 -15.86,-7.52 -8.75,0 -15.85,3.37 -15.85,7.52 0,4.16 7.1,7.52 15.85,7.52 8.76,0 15.86,-3.36 15.86,-7.52z"/>
    <path id="14" class="fil22" d="M100.73 365.48c0,4.01 -6.85,7.26 -15.31,7.26 -8.45,0 -15.3,-3.25 -15.3,-7.26 0,-4.01 6.85,-7.26 15.3,-7.26 8.46,0 15.31,3.25 15.31,7.26zm1.64 0c0,-4.44 -7.59,-8.03 -16.95,-8.03 -9.36,0 -16.95,3.59 -16.95,8.03 0,4.44 7.59,8.04 16.95,8.04 9.36,0 16.95,-3.6 16.95,-8.04z"/>
    <path id="15" class="fil23" d="M101.82 365.48c0,4.3 -7.34,7.78 -16.4,7.78 -9.06,0 -16.4,-3.48 -16.4,-7.78 0,-4.29 7.34,-7.78 16.4,-7.78 9.06,0 16.4,3.49 16.4,7.78zm1.64 0c0,-4.72 -8.08,-8.55 -18.04,-8.55 -9.96,0 -18.04,3.83 -18.04,8.55 0,4.73 8.08,8.56 18.04,8.56 9.96,0 18.04,-3.83 18.04,-8.56z"/>
    <path id="16" class="fil24" d="M102.92 365.48c0,4.59 -7.84,8.3 -17.5,8.3 -9.66,0 -17.49,-3.71 -17.49,-8.3 0,-4.58 7.83,-8.29 17.49,-8.29 9.66,0 17.5,3.71 17.5,8.29zm1.64 0c0,-5.01 -8.57,-9.07 -19.14,-9.07 -10.57,0 -19.13,4.06 -19.13,9.07 0,5.02 8.56,9.08 19.13,9.08 10.57,0 19.14,-4.06 19.14,-9.08z"/>
    <path id="17" class="fil25" d="M104.01 365.48c0,4.87 -8.32,8.82 -18.59,8.82 -10.26,0 -18.59,-3.95 -18.59,-8.82 0,-4.87 8.33,-8.81 18.59,-8.81 10.27,0 18.59,3.94 18.59,8.81zm1.64 0c0,-5.3 -9.06,-9.59 -20.23,-9.59 -11.17,0 -20.23,4.29 -20.23,9.59 0,5.3 9.06,9.6 20.23,9.6 11.17,0 20.23,-4.3 20.23,-9.6z"/>
    <path id="18" class="fil26" d="M105.1 365.48c0,5.16 -8.81,9.34 -19.68,9.34 -10.87,0 -19.68,-4.18 -19.68,-9.34 0,-5.15 8.81,-9.33 19.68,-9.33 10.87,0 19.68,4.18 19.68,9.33zm1.64 0c0,-5.58 -9.54,-10.11 -21.32,-10.11 -11.77,0 -21.32,4.53 -21.32,10.11 0,5.59 9.55,10.12 21.32,10.12 11.78,0 21.32,-4.53 21.32,-10.12z"/>
    <path id="19" class="fil27" d="M106.2 365.48c0,5.45 -9.3,9.86 -20.78,9.86 -11.47,0 -20.77,-4.41 -20.77,-9.86 0,-5.44 9.3,-9.85 20.77,-9.85 11.48,0 20.78,4.41 20.78,9.85zm1.64 0c0,-5.87 -10.04,-10.63 -22.42,-10.63 -12.38,0 -22.41,4.76 -22.41,10.63 0,5.87 10.03,10.63 22.41,10.63 12.38,0 22.42,-4.76 22.42,-10.63z"/>
    <path id="20" class="fil28" d="M107.29 365.48c0,5.73 -9.79,10.38 -21.87,10.38 -12.08,0 -21.87,-4.65 -21.87,-10.38 0,-5.73 9.79,-10.37 21.87,-10.37 12.08,0 21.87,4.64 21.87,10.37zm1.64 0c0,-6.15 -10.52,-11.15 -23.51,-11.15 -12.98,0 -23.51,5 -23.51,11.15 0,6.16 10.53,11.15 23.51,11.15 12.99,0 23.51,-4.99 23.51,-11.15z"/>
    <path id="21" class="fil29" d="M108.38 365.48c0,6.02 -10.28,10.89 -22.96,10.89 -12.68,0 -22.96,-4.87 -22.96,-10.89 0,-6.01 10.28,-10.89 22.96,-10.89 12.68,0 22.96,4.88 22.96,10.89zm1.64 0c0,-6.44 -11.01,-11.67 -24.6,-11.67 -13.59,0 -24.6,5.23 -24.6,11.67 0,6.45 11.01,11.67 24.6,11.67 13.59,0 24.6,-5.22 24.6,-11.67z"/>
    <path id="22" class="fil30" d="M109.48 365.48c0,6.3 -10.77,11.41 -24.06,11.41 -13.28,0 -24.05,-5.11 -24.05,-11.41 0,-6.3 10.77,-11.41 24.05,-11.41 13.29,0 24.06,5.11 24.06,11.41zm1.64 0c0,-6.73 -11.51,-12.18 -25.7,-12.18 -14.19,0 -25.69,5.45 -25.69,12.18 0,6.73 11.5,12.19 25.69,12.19 14.19,0 25.7,-5.46 25.7,-12.19z"/>
    <path id="23" class="fil31" d="M110.57 365.48c0,6.59 -11.26,11.93 -25.15,11.93 -13.89,0 -25.15,-5.34 -25.15,-11.93 0,-6.58 11.26,-11.92 25.15,-11.92 13.89,0 25.15,5.34 25.15,11.92zm1.64 0c0,-7.01 -11.99,-12.7 -26.79,-12.7 -14.79,0 -26.79,5.69 -26.79,12.7 0,7.02 12,12.71 26.79,12.71 14.8,0 26.79,-5.69 26.79,-12.71z"/>
    <path id="24" class="fil32" d="M111.66 365.48c0,6.88 -11.75,12.45 -26.24,12.45 -14.49,0 -26.24,-5.57 -26.24,-12.45 0,-6.87 11.75,-12.44 26.24,-12.44 14.49,0 26.24,5.57 26.24,12.44zm1.64 0c0,-7.3 -12.48,-13.22 -27.88,-13.22 -15.4,0 -27.88,5.92 -27.88,13.22 0,7.31 12.48,13.23 27.88,13.23 15.4,0 27.88,-5.92 27.88,-13.23z"/>
    <path id="25" class="fil33" d="M112.76 365.48c0,7.16 -12.24,12.97 -27.34,12.97 -15.09,0 -27.33,-5.81 -27.33,-12.97 0,-7.16 12.24,-12.96 27.33,-12.96 15.1,0 27.34,5.8 27.34,12.96zm1.64 0c0,-7.59 -12.98,-13.74 -28.98,-13.74 -16,0 -28.97,6.15 -28.97,13.74 0,7.59 12.97,13.74 28.97,13.74 16,0 28.98,-6.15 28.98,-13.74z"/>
    <path id="26" class="fil34" d="M113.85 365.48c0,7.45 -12.73,13.49 -28.43,13.49 -15.7,0 -28.43,-6.04 -28.43,-13.49 0,-7.44 12.73,-13.48 28.43,-13.48 15.7,0 28.43,6.04 28.43,13.48zm1.64 0c0,-7.87 -13.46,-14.26 -30.07,-14.26 -16.6,0 -30.07,6.39 -30.07,14.26 0,7.88 13.47,14.26 30.07,14.26 16.61,0 30.07,-6.38 30.07,-14.26z"/>
    <path id="27" class="fil35" d="M114.94 365.48c0,7.74 -13.21,14 -29.52,14 -16.3,0 -29.52,-6.26 -29.52,-14 0,-7.73 13.22,-14 29.52,-14 16.31,0 29.52,6.27 29.52,14zm1.64 0c0,-8.16 -13.95,-14.78 -31.16,-14.78 -17.21,0 -31.16,6.62 -31.16,14.78 0,8.17 13.95,14.78 31.16,14.78 17.21,0 31.16,-6.61 31.16,-14.78z"/>
    <path id="28" class="fil36" d="M116.04 365.48c0,8.02 -13.71,14.52 -30.62,14.52 -16.91,0 -30.61,-6.5 -30.61,-14.52 0,-8.02 13.7,-14.52 30.61,-14.52 16.91,0 30.62,6.5 30.62,14.52zm1.64 0c0,-8.45 -14.44,-15.3 -32.26,-15.3 -17.81,0 -32.25,6.85 -32.25,15.3 0,8.45 14.44,15.3 32.25,15.3 17.82,0 32.26,-6.85 32.26,-15.3z"/>
    <path id="29" class="fil37" d="M117.13 365.48c0,8.31 -14.2,15.04 -31.71,15.04 -17.51,0 -31.71,-6.73 -31.71,-15.04 0,-8.3 14.2,-15.04 31.71,-15.04 17.51,0 31.71,6.74 31.71,15.04zm1.64 0c0,-8.73 -14.93,-15.81 -33.35,-15.81 -18.42,0 -33.35,7.08 -33.35,15.81 0,8.74 14.93,15.82 33.35,15.82 18.42,0 33.35,-7.08 33.35,-15.82z"/>
    <path id="30" class="fil38" d="M118.22 365.48c0,8.6 -14.68,15.56 -32.8,15.56 -18.11,0 -32.8,-6.96 -32.8,-15.56 0,-8.59 14.69,-15.55 32.8,-15.55 18.12,0 32.8,6.96 32.8,15.55zm1.64 0c0,-9.02 -15.42,-16.33 -34.44,-16.33 -19.02,0 -34.44,7.31 -34.44,16.33 0,9.03 15.42,16.34 34.44,16.34 19.02,0 34.44,-7.31 34.44,-16.34z"/>
    <path id="31" class="fil39" d="M119.32 365.48c0,8.88 -15.18,16.08 -33.9,16.08 -18.72,0 -33.89,-7.2 -33.89,-16.08 0,-8.88 15.17,-16.07 33.89,-16.07 18.72,0 33.9,7.19 33.9,16.07zm1.64 0c0,-9.31 -15.91,-16.85 -35.54,-16.85 -19.62,0 -35.53,7.54 -35.53,16.85 0,9.31 15.91,16.86 35.53,16.86 19.63,0 35.54,-7.55 35.54,-16.86z"/>
    <path id="32" class="fil40" d="M120.41 365.48c0,9.17 -15.66,16.6 -34.99,16.6 -19.32,0 -34.99,-7.43 -34.99,-16.6 0,-9.16 15.67,-16.59 34.99,-16.59 19.33,0 34.99,7.43 34.99,16.59zm1.64 0c0,-9.59 -16.4,-17.37 -36.63,-17.37 -20.23,0 -36.63,7.78 -36.63,17.37 0,9.6 16.4,17.38 36.63,17.38 20.23,0 36.63,-7.78 36.63,-17.38z"/>
    <path id="33" class="fil41" d="M121.5 365.48c0,9.45 -16.15,17.12 -36.08,17.12 -19.93,0 -36.08,-7.67 -36.08,-17.12 0,-9.45 16.15,-17.11 36.08,-17.11 19.93,0 36.08,7.66 36.08,17.11zm1.64 0c0,-9.88 -16.89,-17.89 -37.72,-17.89 -20.83,0 -37.72,8.01 -37.72,17.89 0,9.88 16.89,17.89 37.72,17.89 20.83,0 37.72,-8.01 37.72,-17.89z"/>
    <path id="34" class="fil42" d="M122.6 365.48c0,9.74 -16.65,17.64 -37.18,17.64 -20.53,0 -37.17,-7.9 -37.17,-17.64 0,-9.74 16.64,-17.63 37.17,-17.63 20.53,0 37.18,7.89 37.18,17.63zm1.64 0c0,-10.16 -17.38,-18.41 -38.82,-18.41 -21.43,0 -38.81,8.25 -38.81,18.41 0,10.17 17.38,18.41 38.81,18.41 21.44,0 38.82,-8.24 38.82,-18.41z"/>
    <path id="35" class="fil43" d="M123.69 365.48c0,10.03 -17.13,18.15 -38.27,18.15 -21.13,0 -38.27,-8.12 -38.27,-18.15 0,-10.02 17.14,-18.15 38.27,-18.15 21.14,0 38.27,8.13 38.27,18.15zm1.64 0c0,-10.45 -17.87,-18.93 -39.91,-18.93 -22.04,0 -39.91,8.48 -39.91,18.93 0,10.46 17.87,18.93 39.91,18.93 22.04,0 39.91,-8.47 39.91,-18.93z"/>
    <path id="36" class="fil44" d="M124.78 365.48c0,10.31 -17.62,18.67 -39.36,18.67 -21.74,0 -39.36,-8.36 -39.36,-18.67 0,-10.31 17.62,-18.67 39.36,-18.67 21.74,0 39.36,8.36 39.36,18.67zm1.64 0c0,-10.74 -18.35,-19.44 -41,-19.44 -22.64,0 -41,8.7 -41,19.44 0,10.74 18.36,19.45 41,19.45 22.65,0 41,-8.71 41,-19.45z"/>
    <path id="37" class="fil45" d="M125.88 365.48c0,10.6 -18.12,19.19 -40.46,19.19 -22.34,0 -40.45,-8.59 -40.45,-19.19 0,-10.59 18.11,-19.18 40.45,-19.18 22.34,0 40.46,8.59 40.46,19.18zm1.64 0c0,-11.02 -18.85,-19.96 -42.1,-19.96 -23.25,0 -42.09,8.94 -42.09,19.96 0,11.03 18.84,19.97 42.09,19.97 23.25,0 42.1,-8.94 42.1,-19.97z"/>
    <path id="38" class="fil46" d="M126.97 365.48c0,10.89 -18.6,19.71 -41.55,19.71 -22.94,0 -41.55,-8.82 -41.55,-19.71 0,-10.88 18.61,-19.7 41.55,-19.7 22.95,0 41.55,8.82 41.55,19.7zm1.64 0c0,-11.31 -19.34,-20.48 -43.19,-20.48 -23.85,0 -43.19,9.17 -43.19,20.48 0,11.32 19.34,20.49 43.19,20.49 23.85,0 43.19,-9.17 43.19,-20.49z"/>
    <path id="39" class="fil47" d="M128.06 365.48c0,11.17 -19.09,20.23 -42.64,20.23 -23.55,0 -42.64,-9.06 -42.64,-20.23 0,-11.17 19.09,-20.22 42.64,-20.22 23.55,0 42.64,9.05 42.64,20.22zm1.64 0c0,-11.6 -19.82,-21 -44.28,-21 -24.45,0 -44.28,9.4 -44.28,21 0,11.6 19.83,21.01 44.28,21.01 24.46,0 44.28,-9.41 44.28,-21.01z"/>
    <path id="40" class="fil48" d="M129.16 365.48c0,11.46 -19.58,20.75 -43.74,20.75 -24.15,0 -43.73,-9.29 -43.73,-20.75 0,-11.45 19.58,-20.74 43.73,-20.74 24.16,0 43.74,9.29 43.74,20.74zm1.64 0c0,-11.88 -20.32,-21.52 -45.38,-21.52 -25.06,0 -45.37,9.64 -45.37,21.52 0,11.89 20.31,21.52 45.37,21.52 25.06,0 45.38,-9.63 45.38,-21.52z"/>
    <path id="41" class="fil49" d="M130.25 365.48c0,11.75 -20.07,21.26 -44.83,21.26 -24.76,0 -44.83,-9.51 -44.83,-21.26 0,-11.74 20.07,-21.26 44.83,-21.26 24.76,0 44.83,9.52 44.83,21.26zm1.64 0c0,-12.17 -20.8,-22.04 -46.47,-22.04 -25.66,0 -46.47,9.87 -46.47,22.04 0,12.18 20.81,22.04 46.47,22.04 25.67,0 46.47,-9.86 46.47,-22.04z"/>
    <path id="42" class="fil50" d="M131.34 365.48c0,12.03 -20.56,21.78 -45.92,21.78 -25.36,0 -45.92,-9.75 -45.92,-21.78 0,-12.03 20.56,-21.78 45.92,-21.78 25.36,0 45.92,9.75 45.92,21.78zm1.64 0c0,-12.46 -21.29,-22.56 -47.56,-22.56 -26.27,0 -47.56,10.1 -47.56,22.56 0,12.46 21.29,22.56 47.56,22.56 26.27,0 47.56,-10.1 47.56,-22.56z"/>
    <path id="43" class="fil51" d="M132.44 365.48c0,12.32 -21.05,22.3 -47.02,22.3 -25.96,0 -47.01,-9.98 -47.01,-22.3 0,-12.31 21.05,-22.3 47.01,-22.3 25.97,0 47.02,9.99 47.02,22.3zm1.64 0c0,-12.74 -21.79,-23.07 -48.66,-23.07 -26.87,0 -48.65,10.33 -48.65,23.07 0,12.75 21.78,23.08 48.65,23.08 26.87,0 48.66,-10.33 48.66,-23.08z"/>
    <path id="44" class="fil52" d="M133.53 365.48c0,12.61 -21.54,22.82 -48.11,22.82 -26.57,0 -48.11,-10.21 -48.11,-22.82 0,-12.6 21.54,-22.82 48.11,-22.82 26.57,0 48.11,10.22 48.11,22.82zm1.64 0c0,-13.03 -22.27,-23.59 -49.75,-23.59 -27.47,0 -49.75,10.56 -49.75,23.59 0,13.03 22.28,23.6 49.75,23.6 27.48,0 49.75,-10.57 49.75,-23.6z"/>
    <path id="45" class="fil53" d="M134.62 365.48c0,12.89 -22.03,23.34 -49.2,23.34 -27.17,0 -49.2,-10.45 -49.2,-23.34 0,-12.89 22.03,-23.33 49.2,-23.33 27.17,0 49.2,10.44 49.2,23.33zm1.64 0c0,-13.32 -22.76,-24.11 -50.84,-24.11 -28.08,0 -50.84,10.79 -50.84,24.11 0,13.32 22.76,24.12 50.84,24.12 28.08,0 50.84,-10.8 50.84,-24.12z"/>
    <path id="46" class="fil54" d="M135.72 365.48c0,13.18 -22.52,23.86 -50.3,23.86 -27.77,0 -50.29,-10.68 -50.29,-23.86 0,-13.17 22.52,-23.85 50.29,-23.85 27.78,0 50.3,10.68 50.3,23.85zm1.64 0c0,-13.6 -23.26,-24.63 -51.94,-24.63 -28.68,0 -51.93,11.03 -51.93,24.63 0,13.61 23.25,24.64 51.93,24.64 28.68,0 51.94,-11.03 51.94,-24.64z"/>
    <path id="47" class="fil55" d="M136.81 365.48c0,13.46 -23.01,24.38 -51.39,24.38 -28.38,0 -51.39,-10.92 -51.39,-24.38 0,-13.46 23.01,-24.37 51.39,-24.37 28.38,0 51.39,10.91 51.39,24.37zm1.64 0c0,-13.89 -23.74,-25.15 -53.03,-25.15 -29.29,0 -53.03,11.26 -53.03,25.15 0,13.89 23.74,25.15 53.03,25.15 29.29,0 53.03,-11.26 53.03,-25.15z"/>
    <path id="48" class="fil56" d="M137.9 365.48c0,13.75 -23.49,24.89 -52.48,24.89 -28.98,0 -52.48,-11.14 -52.48,-24.89 0,-13.74 23.5,-24.89 52.48,-24.89 28.99,0 52.48,11.15 52.48,24.89zm1.64 0c0,-14.17 -24.23,-25.67 -54.12,-25.67 -29.89,0 -54.12,11.5 -54.12,25.67 0,14.18 24.23,25.67 54.12,25.67 29.89,0 54.12,-11.49 54.12,-25.67z"/>
    <path id="49" class="fil57" d="M139 365.48c0,14.04 -23.99,25.41 -53.58,25.41 -29.59,0 -53.57,-11.37 -53.57,-25.41 0,-14.03 23.98,-25.41 53.57,-25.41 29.59,0 53.58,11.38 53.58,25.41zm1.64 0c0,-14.46 -24.72,-26.19 -55.22,-26.19 -30.49,0 -55.21,11.73 -55.21,26.19 0,14.47 24.72,26.19 55.21,26.19 30.5,0 55.22,-11.72 55.22,-26.19z"/>
    <path id="50" class="fil58" d="M140.09 365.48c0,14.32 -24.48,25.93 -54.67,25.93 -30.19,0 -54.67,-11.61 -54.67,-25.93 0,-14.32 24.48,-25.93 54.67,-25.93 30.19,0 54.67,11.61 54.67,25.93zm1.64 0c0,-14.75 -25.21,-26.7 -56.31,-26.7 -31.1,0 -56.31,11.95 -56.31,26.7 0,14.75 25.21,26.71 56.31,26.71 31.1,0 56.31,-11.96 56.31,-26.71z"/>
    <path id="51" class="fil59" d="M141.18 365.48c0,14.61 -24.96,26.45 -55.76,26.45 -30.8,0 -55.76,-11.84 -55.76,-26.45 0,-14.6 24.96,-26.44 55.76,-26.44 30.8,0 55.76,11.84 55.76,26.44zm1.64 0c0,-15.03 -25.7,-27.22 -57.4,-27.22 -31.7,0 -57.4,12.19 -57.4,27.22 0,15.04 25.7,27.23 57.4,27.23 31.7,0 57.4,-12.19 57.4,-27.23z"/>
    <path id="52" class="fil60" d="M142.28 365.48c0,14.9 -25.46,26.97 -56.86,26.97 -31.4,0 -56.85,-12.07 -56.85,-26.97 0,-14.89 25.45,-26.96 56.85,-26.96 31.4,0 56.86,12.07 56.86,26.96zm1.64 0c0,-15.32 -26.19,-27.74 -58.5,-27.74 -32.3,0 -58.49,12.42 -58.49,27.74 0,15.33 26.19,27.75 58.49,27.75 32.31,0 58.5,-12.42 58.5,-27.75z"/>
    <path id="53" class="fil61" d="M143.37 365.48c0,15.18 -25.94,27.49 -57.95,27.49 -32,0 -57.95,-12.31 -57.95,-27.49 0,-15.18 25.95,-27.48 57.95,-27.48 32.01,0 57.95,12.3 57.95,27.48zm1.64 0c0,-15.61 -26.68,-28.26 -59.59,-28.26 -32.91,0 -59.59,12.65 -59.59,28.26 0,15.61 26.68,28.27 59.59,28.27 32.91,0 59.59,-12.66 59.59,-28.27z"/>
    <path id="54" class="fil62" d="M144.46 365.48c0,15.47 -26.43,28.01 -59.04,28.01 -32.61,0 -59.04,-12.54 -59.04,-28.01 0,-15.46 26.43,-28 59.04,-28 32.61,0 59.04,12.54 59.04,28zm1.64 0c0,-15.89 -27.16,-28.78 -60.68,-28.78 -33.51,0 -60.68,12.89 -60.68,28.78 0,15.9 27.17,28.78 60.68,28.78 33.52,0 60.68,-12.88 60.68,-28.78z"/>
    <path id="55" class="fil63" d="M145.56 365.48c0,15.76 -26.93,28.53 -60.14,28.53 -33.21,0 -60.13,-12.77 -60.13,-28.53 0,-15.75 26.92,-28.52 60.13,-28.52 33.21,0 60.14,12.77 60.14,28.52zm1.64 0c0,-16.18 -27.66,-29.3 -61.78,-29.3 -34.12,0 -61.77,13.12 -61.77,29.3 0,16.18 27.65,29.3 61.77,29.3 34.12,0 61.78,-13.12 61.78,-29.3z"/>
    <path id="56" class="fil64" d="M146.65 365.48c0,16.04 -27.41,29.04 -61.23,29.04 -33.81,0 -61.23,-13 -61.23,-29.04 0,-16.04 27.42,-29.04 61.23,-29.04 33.82,0 61.23,13 61.23,29.04zm1.64 0c0,-16.47 -28.15,-29.82 -62.87,-29.82 -34.72,0 -62.87,13.35 -62.87,29.82 0,16.47 28.15,29.82 62.87,29.82 34.72,0 62.87,-13.35 62.87,-29.82z"/>
    <path id="57" class="fil65" d="M147.74 365.48c0,16.33 -27.9,29.56 -62.32,29.56 -34.42,0 -62.32,-13.23 -62.32,-29.56 0,-16.32 27.9,-29.56 62.32,-29.56 34.42,0 62.32,13.24 62.32,29.56zm1.64 0c0,-16.75 -28.63,-30.33 -63.96,-30.33 -35.32,0 -63.96,13.58 -63.96,30.33 0,16.76 28.64,30.34 63.96,30.34 35.33,0 63.96,-13.58 63.96,-30.34z"/>
    <path id="58" class="fil66" d="M148.84 365.48c0,16.61 -28.39,30.08 -63.42,30.08 -35.02,0 -63.41,-13.47 -63.41,-30.08 0,-16.61 28.39,-30.08 63.41,-30.08 35.03,0 63.42,13.47 63.42,30.08zm1.64 0c0,-17.04 -29.13,-30.85 -65.06,-30.85 -35.93,0 -65.05,13.81 -65.05,30.85 0,17.04 29.12,30.86 65.05,30.86 35.93,0 65.06,-13.82 65.06,-30.86z"/>
    <path id="59" class="fil67" d="M149.93 365.48c0,16.9 -28.88,30.6 -64.51,30.6 -35.63,0 -64.51,-13.7 -64.51,-30.6 0,-16.9 28.88,-30.59 64.51,-30.59 35.63,0 64.51,13.69 64.51,30.59zm1.64 0c0,-17.33 -29.61,-31.37 -66.15,-31.37 -36.53,0 -66.15,14.04 -66.15,31.37 0,17.33 29.62,31.38 66.15,31.38 36.54,0 66.15,-14.05 66.15,-31.38z"/>
    <path id="60" class="fil68" d="M151.02 365.48c0,17.19 -29.37,31.12 -65.6,31.12 -36.23,0 -65.6,-13.93 -65.6,-31.12 0,-17.18 29.37,-31.11 65.6,-31.11 36.23,0 65.6,13.93 65.6,31.11zm1.64 0c0,-17.61 -30.1,-31.89 -67.24,-31.89 -37.14,0 -67.24,14.28 -67.24,31.89 0,17.62 30.1,31.9 67.24,31.9 37.14,0 67.24,-14.28 67.24,-31.9z"/>
    <path id="61" class="fil69" d="M152.12 365.48c0,17.47 -29.86,31.64 -66.7,31.64 -36.83,0 -66.69,-14.17 -66.69,-31.64 0,-17.47 29.86,-31.63 66.69,-31.63 36.84,0 66.7,14.16 66.7,31.63zm1.64 0c0,-17.9 -30.6,-32.41 -68.34,-32.41 -37.74,0 -68.33,14.51 -68.33,32.41 0,17.9 30.59,32.41 68.33,32.41 37.74,0 68.34,-14.51 68.34,-32.41z"/>
    <path id="62" class="fil70" d="M153.21 365.48c0,17.76 -30.35,32.15 -67.79,32.15 -37.44,0 -67.79,-14.39 -67.79,-32.15 0,-17.75 30.35,-32.15 67.79,-32.15 37.44,0 67.79,14.4 67.79,32.15zm1.64 0c0,-18.18 -31.08,-32.93 -69.43,-32.93 -38.34,0 -69.43,14.75 -69.43,32.93 0,18.19 31.09,32.93 69.43,32.93 38.35,0 69.43,-14.74 69.43,-32.93z"/>
    <path id="63" class="fil71" d="M154.3 365.48c0,18.05 -30.84,32.67 -68.88,32.67 -38.04,0 -68.88,-14.62 -68.88,-32.67 0,-18.04 30.84,-32.67 68.88,-32.67 38.04,0 68.88,14.63 68.88,32.67zm1.64 0c0,-18.47 -31.57,-33.45 -70.52,-33.45 -38.95,0 -70.52,14.98 -70.52,33.45 0,18.48 31.57,33.45 70.52,33.45 38.95,0 70.52,-14.97 70.52,-33.45z"/>
    <path id="64" class="fil72" d="M155.4 365.48c0,18.33 -31.33,33.19 -69.98,33.19 -38.64,0 -69.97,-14.86 -69.97,-33.19 0,-18.33 31.33,-33.19 69.97,-33.19 38.65,0 69.98,14.86 69.98,33.19zm1.64 0c0,-18.76 -32.07,-33.96 -71.62,-33.96 -39.55,0 -71.61,15.2 -71.61,33.96 0,18.76 32.06,33.97 71.61,33.97 39.55,0 71.62,-15.21 71.62,-33.97z"/>
    <path id="65" class="fil73" d="M156.49 365.48c0,18.62 -31.82,33.71 -71.07,33.71 -39.25,0 -71.07,-15.09 -71.07,-33.71 0,-18.61 31.82,-33.7 71.07,-33.7 39.25,0 71.07,15.09 71.07,33.7zm1.64 0c0,-19.04 -32.55,-34.48 -72.71,-34.48 -40.15,0 -72.71,15.44 -72.71,34.48 0,19.05 32.56,34.49 72.71,34.49 40.16,0 72.71,-15.44 72.71,-34.49z"/>
    <path id="66" class="fil74" d="M157.58 365.48c0,18.91 -32.3,34.23 -72.16,34.23 -39.85,0 -72.16,-15.32 -72.16,-34.23 0,-18.9 32.31,-34.22 72.16,-34.22 39.86,0 72.16,15.32 72.16,34.22zm1.64 0c0,-19.33 -33.04,-35 -73.8,-35 -40.76,0 -73.8,15.67 -73.8,35 0,19.33 33.04,35.01 73.8,35.01 40.76,0 73.8,-15.68 73.8,-35.01z"/>
    <path id="67" class="fil75" d="M158.68 365.48c0,19.19 -32.8,34.75 -73.26,34.75 -40.46,0 -73.25,-15.56 -73.25,-34.75 0,-19.19 32.79,-34.74 73.25,-34.74 40.46,0 73.26,15.55 73.26,34.74zm1.64 0c0,-19.62 -33.53,-35.52 -74.9,-35.52 -41.36,0 -74.89,15.9 -74.89,35.52 0,19.62 33.53,35.53 74.89,35.53 41.37,0 74.9,-15.91 74.9,-35.53z"/>
    <path id="68" class="fil76" d="M159.77 365.48c0,19.48 -33.29,35.27 -74.35,35.27 -41.06,0 -74.35,-15.79 -74.35,-35.27 0,-19.47 33.29,-35.26 74.35,-35.26 41.06,0 74.35,15.79 74.35,35.26zm1.64 0c0,-19.9 -34.02,-36.04 -75.99,-36.04 -41.97,0 -75.99,16.14 -75.99,36.04 0,19.91 34.02,36.04 75.99,36.04 41.97,0 75.99,-16.13 75.99,-36.04z"/>
    <path id="69" class="fil77" d="M160.86 365.48c0,19.76 -33.77,35.79 -75.44,35.79 -41.66,0 -75.44,-16.03 -75.44,-35.79 0,-19.76 33.78,-35.78 75.44,-35.78 41.67,0 75.44,16.02 75.44,35.78zm1.64 0c0,-20.19 -34.51,-36.56 -77.08,-36.56 -42.57,0 -77.08,16.37 -77.08,36.56 0,20.19 34.51,36.56 77.08,36.56 42.57,0 77.08,-16.37 77.08,-36.56z"/>
    <path id="70" class="fil78" d="M161.96 365.48c0,20.05 -34.27,36.3 -76.54,36.3 -42.27,0 -76.53,-16.25 -76.53,-36.3 0,-20.05 34.26,-36.3 76.53,-36.3 42.27,0 76.54,16.25 76.54,36.3zm1.64 0c0,-20.48 -35,-37.08 -78.18,-37.08 -43.17,0 -78.17,16.6 -78.17,37.08 0,20.48 35,37.08 78.17,37.08 43.18,0 78.18,-16.6 78.18,-37.08z"/>
    <path id="71" class="fil79" d="M163.05 365.48c0,20.34 -34.75,36.82 -77.63,36.82 -42.87,0 -77.63,-16.48 -77.63,-36.82 0,-20.33 34.76,-36.82 77.63,-36.82 42.88,0 77.63,16.49 77.63,36.82zm1.64 0c0,-20.76 -35.49,-37.59 -79.27,-37.59 -43.78,0 -79.27,16.83 -79.27,37.59 0,20.77 35.49,37.6 79.27,37.6 43.78,0 79.27,-16.83 79.27,-37.6z"/>
    <path id="72" class="fil80" d="M164.14 365.48c0,20.62 -35.24,37.34 -78.72,37.34 -43.48,0 -78.72,-16.72 -78.72,-37.34 0,-20.62 35.24,-37.34 78.72,-37.34 43.48,0 78.72,16.72 78.72,37.34zm1.64 0c0,-21.05 -35.98,-38.11 -80.36,-38.11 -44.38,0 -80.36,17.06 -80.36,38.11 0,21.05 35.98,38.12 80.36,38.12 44.38,0 80.36,-17.07 80.36,-38.12z"/>
    <path id="73" class="fil81" d="M165.24 365.48c0,20.91 -35.74,37.86 -79.82,37.86 -44.08,0 -79.81,-16.95 -79.81,-37.86 0,-20.91 35.73,-37.85 79.81,-37.85 44.08,0 79.82,16.94 79.82,37.85zm1.64 0c0,-21.33 -36.47,-38.63 -81.46,-38.63 -44.98,0 -81.46,17.3 -81.46,38.63 0,21.34 36.48,38.64 81.46,38.64 44.99,0 81.46,-17.3 81.46,-38.64z"/>
    <path id="74" class="fil82" d="M166.33 365.48c0,21.2 -36.22,38.38 -80.91,38.38 -44.68,0 -80.91,-17.18 -80.91,-38.38 0,-21.19 36.23,-38.37 80.91,-38.37 44.69,0 80.91,17.18 80.91,38.37zm1.64 0c0,-21.62 -36.96,-39.15 -82.55,-39.15 -45.59,0 -82.55,17.53 -82.55,39.15 0,21.63 36.96,39.16 82.55,39.16 45.59,0 82.55,-17.53 82.55,-39.16z"/>
    <path id="75" class="fil83" d="M167.43 365.48c0,21.48 -36.72,38.9 -82.01,38.9 -45.29,0 -82,-17.42 -82,-38.9 0,-21.48 36.71,-38.89 82,-38.89 45.29,0 82.01,17.41 82.01,38.89zm1.63 0c0,-21.91 -37.44,-39.67 -83.64,-39.67 -46.19,0 -83.64,17.76 -83.64,39.67 0,21.91 37.45,39.67 83.64,39.67 46.2,0 83.64,-17.76 83.64,-39.67z"/>
    <path id="76" class="fil84" d="M168.52 365.48c0,21.77 -37.21,39.41 -83.1,39.41 -45.89,0 -83.09,-17.64 -83.09,-39.41 0,-21.76 37.2,-39.41 83.09,-39.41 45.89,0 83.1,17.65 83.1,39.41zm1.64 0c0,-22.19 -37.94,-40.19 -84.74,-40.19 -46.8,0 -84.73,18 -84.73,40.19 0,22.2 37.93,40.19 84.73,40.19 46.8,0 84.74,-17.99 84.74,-40.19z"/>
    <path id="77" class="fil85" d="M169.61 365.48c0,22.06 -37.69,39.93 -84.19,39.93 -46.5,0 -84.19,-17.87 -84.19,-39.93 0,-22.05 37.69,-39.93 84.19,-39.93 46.5,0 84.19,17.88 84.19,39.93zm1.64 0c0,-22.48 -38.43,-40.71 -85.83,-40.71 -47.4,0 -85.83,18.23 -85.83,40.71 0,22.49 38.43,40.71 85.83,40.71 47.4,0 85.83,-18.22 85.83,-40.71z"/>
    <path id="78" class="fil86" d="M170.71 365.48c0,22.34 -38.19,40.45 -85.29,40.45 -47.1,0 -85.28,-18.11 -85.28,-40.45 0,-22.34 38.18,-40.45 85.28,-40.45 47.1,0 85.29,18.11 85.29,40.45zm1.63 0c0,-22.77 -38.91,-41.23 -86.92,-41.23 -48,0 -86.92,18.46 -86.92,41.23 0,22.77 38.92,41.23 86.92,41.23 48.01,0 86.92,-18.46 86.92,-41.23z"/>
    <path id="79" class="fil87" d="M171.8 365.48c0,22.63 -38.67,40.97 -86.38,40.97 -47.7,0 -86.37,-18.34 -86.37,-40.97 0,-22.62 38.67,-40.97 86.37,-40.97 47.71,0 86.38,18.35 86.38,40.97zm1.64 0c0,-23.05 -39.41,-41.74 -88.02,-41.74 -48.61,0 -88.01,18.69 -88.01,41.74 0,23.06 39.4,41.75 88.01,41.75 48.61,0 88.02,-18.69 88.02,-41.75z"/>
    <path id="80" class="fil88" d="M172.89 365.48c0,22.91 -39.16,41.49 -87.47,41.49 -48.31,0 -87.47,-18.58 -87.47,-41.49 0,-22.91 39.16,-41.48 87.47,-41.48 48.31,0 87.47,18.57 87.47,41.48zm1.64 0c0,-23.34 -39.89,-42.26 -89.11,-42.26 -49.21,0 -89.11,18.92 -89.11,42.26 0,23.34 39.9,42.27 89.11,42.27 49.22,0 89.11,-18.93 89.11,-42.27z"/>
    <path id="81" class="fil89" d="M173.99 365.48c0,23.2 -39.66,42.01 -88.57,42.01 -48.91,0 -88.56,-18.81 -88.56,-42.01 0,-23.2 39.65,-42 88.56,-42 48.91,0 88.57,18.8 88.57,42zm1.63 0c0,-23.63 -40.38,-42.78 -90.2,-42.78 -49.82,0 -90.2,19.15 -90.2,42.78 0,23.63 40.38,42.79 90.2,42.79 49.82,0 90.2,-19.16 90.2,-42.79z"/>
    <path id="82" class="fil90" d="M175.08 365.48c0,23.49 -40.14,42.53 -89.66,42.53 -49.51,0 -89.65,-19.04 -89.65,-42.53 0,-23.48 40.14,-42.52 89.65,-42.52 49.52,0 89.66,19.04 89.66,42.52zm1.64 0c0,-23.91 -40.88,-43.3 -91.3,-43.3 -50.42,0 -91.29,19.39 -91.29,43.3 0,23.92 40.87,43.3 91.29,43.3 50.42,0 91.3,-19.38 91.3,-43.3z"/>
    <path id="83" class="fil91" d="M176.17 365.48c0,23.77 -40.63,43.05 -90.75,43.05 -50.12,0 -90.75,-19.28 -90.75,-43.05 0,-23.77 40.63,-43.04 90.75,-43.04 50.12,0 90.75,19.27 90.75,43.04zm1.64 0c0,-24.2 -41.36,-43.82 -92.39,-43.82 -51.02,0 -92.39,19.62 -92.39,43.82 0,24.2 41.37,43.82 92.39,43.82 51.03,0 92.39,-19.62 92.39,-43.82z"/>
    <path id="84" class="fil92" d="M177.27 365.48c0,24.06 -41.12,43.56 -91.85,43.56 -50.72,0 -91.84,-19.5 -91.84,-43.56 0,-24.06 41.12,-43.56 91.84,-43.56 50.73,0 91.85,19.5 91.85,43.56zm1.64 0c0,-24.49 -41.86,-44.34 -93.49,-44.34 -51.63,0 -93.48,19.85 -93.48,44.34 0,24.49 41.85,44.34 93.48,44.34 51.63,0 93.49,-19.85 93.49,-44.34z"/>
    <path id="85" class="fil93" d="M178.36 365.48c0,24.35 -41.61,44.08 -92.94,44.08 -51.33,0 -92.94,-19.73 -92.94,-44.08 0,-24.34 41.61,-44.08 92.94,-44.08 51.33,0 92.94,19.74 92.94,44.08zm1.64 0c0,-24.77 -42.34,-44.85 -94.58,-44.85 -52.23,0 -94.57,20.08 -94.57,44.85 0,24.78 42.34,44.86 94.57,44.86 52.24,0 94.58,-20.08 94.58,-44.86z"/>
    <path id="86" class="fil94" d="M179.45 365.48c0,24.63 -42.1,44.6 -94.03,44.6 -51.93,0 -94.03,-19.97 -94.03,-44.6 0,-24.63 42.1,-44.6 94.03,-44.6 51.93,0 94.03,19.97 94.03,44.6zm1.64 0c0,-25.06 -42.83,-45.37 -95.67,-45.37 -52.84,0 -95.67,20.31 -95.67,45.37 0,25.06 42.83,45.38 95.67,45.38 52.84,0 95.67,-20.32 95.67,-45.38z"/>
    <path id="87" class="fil95" d="M180.55 365.48c0,24.92 -42.59,45.12 -95.13,45.12 -52.53,0 -95.12,-20.2 -95.12,-45.12 0,-24.92 42.59,-45.11 95.12,-45.11 52.54,0 95.13,20.19 95.13,45.11zm1.64 0c0,-25.34 -43.33,-45.89 -96.77,-45.89 -53.44,0 -96.76,20.55 -96.76,45.89 0,25.35 43.32,45.9 96.76,45.9 53.44,0 96.77,-20.55 96.77,-45.9z"/>
    <path id="88" class="fil96" d="M181.64 365.48c0,25.21 -43.08,45.64 -96.22,45.64 -53.14,0 -96.22,-20.43 -96.22,-45.64 0,-25.2 43.08,-45.63 96.22,-45.63 53.14,0 96.22,20.43 96.22,45.63zm1.64 0c0,-25.63 -43.81,-46.41 -97.86,-46.41 -54.04,0 -97.85,20.78 -97.85,46.41 0,25.64 43.81,46.42 97.85,46.42 54.05,0 97.86,-20.78 97.86,-46.42z"/>
    <path id="89" class="fil97" d="M182.73 365.48c0,25.49 -43.56,46.16 -97.31,46.16 -53.74,0 -97.31,-20.67 -97.31,-46.16 0,-25.49 43.57,-46.15 97.31,-46.15 53.75,0 97.31,20.66 97.31,46.15zm1.64 0c0,-25.92 -44.3,-46.93 -98.95,-46.93 -54.65,0 -98.95,21.01 -98.95,46.93 0,25.92 44.3,46.94 98.95,46.94 54.65,0 98.95,-21.02 98.95,-46.94z"/>
    <path id="90" class="fil98" d="M183.82 365.48c0,25.78 -44.05,46.68 -98.4,46.68 -54.35,0 -98.4,-20.9 -98.4,-46.68 0,-25.77 44.05,-46.67 98.4,-46.67 54.35,0 98.4,20.9 98.4,46.67zm1.65 0c0,-26.2 -44.8,-47.45 -100.05,-47.45 -55.25,0 -100.04,21.25 -100.04,47.45 0,26.21 44.79,47.45 100.04,47.45 55.25,0 100.05,-21.24 100.05,-47.45z"/>
    <path id="91" class="fil99" d="M184.92 365.48c0,26.07 -44.55,47.19 -99.5,47.19 -54.95,0 -99.5,-21.12 -99.5,-47.19 0,-26.06 44.55,-47.19 99.5,-47.19 54.95,0 99.5,21.13 99.5,47.19zm1.64 0c0,-26.49 -45.28,-47.97 -101.14,-47.97 -55.85,0 -101.14,21.48 -101.14,47.97 0,26.5 45.29,47.97 101.14,47.97 55.86,0 101.14,-21.47 101.14,-47.97z"/>
    <path id="92" class="fil100" d="M186.01 365.48c0,26.35 -45.03,47.71 -100.59,47.71 -55.55,0 -100.59,-21.36 -100.59,-47.71 0,-26.35 45.04,-47.71 100.59,-47.71 55.56,0 100.59,21.36 100.59,47.71zm1.64 0c0,-26.78 -45.77,-48.49 -102.23,-48.49 -56.46,0 -102.23,21.71 -102.23,48.49 0,26.78 45.77,48.49 102.23,48.49 56.46,0 102.23,-21.71 102.23,-48.49z"/>
    <path id="93" class="fil101" d="M187.11 365.48c0,26.64 -45.53,48.23 -101.69,48.23 -56.16,0 -101.68,-21.59 -101.68,-48.23 0,-26.63 45.52,-48.23 101.68,-48.23 56.16,0 101.69,21.6 101.69,48.23zm1.64 0c0,-27.06 -46.26,-49 -103.33,-49 -57.06,0 -103.32,21.94 -103.32,49 0,27.07 46.26,49.01 103.32,49.01 57.07,0 103.33,-21.94 103.33,-49.01z"/>
    <path id="94" class="fil102" d="M188.2 365.48c0,26.92 -46.02,48.75 -102.78,48.75 -56.76,0 -102.78,-21.83 -102.78,-48.75 0,-26.92 46.02,-48.74 102.78,-48.74 56.76,0 102.78,21.82 102.78,48.74zm1.64 0c0,-27.35 -46.75,-49.52 -104.42,-49.52 -57.67,0 -104.42,22.17 -104.42,49.52 0,27.35 46.75,49.53 104.42,49.53 57.67,0 104.42,-22.18 104.42,-49.53z"/>
    <path id="95" class="fil103" d="M189.29 365.48c0,27.21 -46.5,49.27 -103.87,49.27 -57.36,0 -103.87,-22.06 -103.87,-49.27 0,-27.21 46.51,-49.26 103.87,-49.26 57.37,0 103.87,22.05 103.87,49.26zm1.64 0c0,-27.64 -47.24,-50.04 -105.51,-50.04 -58.27,0 -105.51,22.4 -105.51,50.04 0,27.64 47.24,50.05 105.51,50.05 58.27,0 105.51,-22.41 105.51,-50.05z"/>
    <path id="96" class="fil104" d="M190.39 365.48c0,27.5 -47,49.79 -104.97,49.79 -57.97,0 -104.96,-22.29 -104.96,-49.79 0,-27.49 46.99,-49.78 104.96,-49.78 57.97,0 104.97,22.29 104.97,49.78zm1.64 0c0,-27.92 -47.73,-50.56 -106.61,-50.56 -58.87,0 -106.6,22.64 -106.6,50.56 0,27.93 47.73,50.56 106.6,50.56 58.88,0 106.61,-22.63 106.61,-50.56z"/>
    <path id="97" class="fil105" d="M191.48 365.48c0,27.78 -47.48,50.31 -106.06,50.31 -58.57,0 -106.06,-22.53 -106.06,-50.31 0,-27.78 47.49,-50.3 106.06,-50.3 58.58,0 106.06,22.52 106.06,50.3zm1.64 0c0,-28.21 -48.22,-51.08 -107.7,-51.08 -59.48,0 -107.7,22.87 -107.7,51.08 0,28.21 48.22,51.08 107.7,51.08 59.48,0 107.7,-22.87 107.7,-51.08z"/>
    <path id="98" class="fil106" d="M192.57 365.48c0,28.07 -47.97,50.82 -107.15,50.82 -59.18,0 -107.15,-22.75 -107.15,-50.82 0,-28.07 47.97,-50.82 107.15,-50.82 59.18,0 107.15,22.75 107.15,50.82zm1.64 0c0,-28.5 -48.7,-51.6 -108.79,-51.6 -60.08,0 -108.79,23.1 -108.79,51.6 0,28.5 48.71,51.6 108.79,51.6 60.09,0 108.79,-23.1 108.79,-51.6z"/>
    <path id="99" class="fil107" d="M193.67 365.48c0,28.36 -48.47,51.34 -108.25,51.34 -59.78,0 -108.24,-22.98 -108.24,-51.34 0,-28.35 48.46,-51.34 108.24,-51.34 59.78,0 108.25,22.99 108.25,51.34zm1.64 0c0,-28.78 -49.2,-52.11 -109.89,-52.11 -60.69,0 -109.88,23.33 -109.88,52.11 0,28.79 49.19,52.12 109.88,52.12 60.69,0 109.89,-23.33 109.89,-52.12z"/>
    <path id="100" class="fil106" d="M194.76 365.48c0,28.64 -48.95,51.86 -109.34,51.86 -60.38,0 -109.34,-23.22 -109.34,-51.86 0,-28.64 48.96,-51.86 109.34,-51.86 60.39,0 109.34,23.22 109.34,51.86zm1.64 0c0,-29.07 -49.69,-52.63 -110.98,-52.63 -61.29,0 -110.98,23.56 -110.98,52.63 0,29.07 49.69,52.64 110.98,52.64 61.29,0 110.98,-23.57 110.98,-52.64z"/>
    <path id="101" class="fil105" d="M195.85 365.48c0,28.93 -49.44,52.38 -110.43,52.38 -60.99,0 -110.43,-23.45 -110.43,-52.38 0,-28.92 49.44,-52.37 110.43,-52.37 60.99,0 110.43,23.45 110.43,52.37zm1.64 0c0,-29.35 -50.17,-53.15 -112.07,-53.15 -61.89,0 -112.07,23.8 -112.07,53.15 0,29.36 50.18,53.16 112.07,53.16 61.9,0 112.07,-23.8 112.07,-53.16z"/>
    <path id="102" class="fil104" d="M196.95 365.48c0,29.22 -49.94,52.9 -111.53,52.9 -61.59,0 -111.52,-23.68 -111.52,-52.9 0,-29.21 49.93,-52.89 111.52,-52.89 61.59,0 111.53,23.68 111.53,52.89zm1.64 0c0,-29.64 -50.67,-53.67 -113.17,-53.67 -62.5,0 -113.16,24.03 -113.16,53.67 0,29.65 50.66,53.68 113.16,53.68 62.5,0 113.17,-24.03 113.17,-53.68z"/>
    <path id="103" class="fil103" d="M198.04 365.48c0,29.5 -50.42,53.42 -112.62,53.42 -62.19,0 -112.62,-23.92 -112.62,-53.42 0,-29.5 50.43,-53.41 112.62,-53.41 62.2,0 112.62,23.91 112.62,53.41zm1.64 0c0,-29.93 -51.16,-54.19 -114.26,-54.19 -63.1,0 -114.26,24.26 -114.26,54.19 0,29.93 51.16,54.2 114.26,54.2 63.1,0 114.26,-24.27 114.26,-54.2z"/>
    <path id="104" class="fil102" d="M199.13 365.48c0,29.79 -50.91,53.94 -113.71,53.94 -62.8,0 -113.71,-24.15 -113.71,-53.94 0,-29.78 50.91,-53.93 113.71,-53.93 62.8,0 113.71,24.15 113.71,53.93zm1.64 0c0,-30.21 -51.64,-54.71 -115.35,-54.71 -63.7,0 -115.35,24.5 -115.35,54.71 0,30.22 51.65,54.71 115.35,54.71 63.71,0 115.35,-24.49 115.35,-54.71z"/>
    <path id="105" class="fil101" d="M200.23 365.48c0,30.08 -51.4,54.45 -114.81,54.45 -63.4,0 -114.8,-24.37 -114.8,-54.45 0,-30.07 51.4,-54.45 114.8,-54.45 63.41,0 114.81,24.38 114.81,54.45zm1.64 0c0,-30.5 -52.14,-55.23 -116.45,-55.23 -64.31,0 -116.44,24.73 -116.44,55.23 0,30.5 52.13,55.23 116.44,55.23 64.31,0 116.45,-24.73 116.45,-55.23z"/>
    <path id="106" class="fil100" d="M201.32 365.48c0,30.36 -51.89,54.97 -115.9,54.97 -64.01,0 -115.9,-24.61 -115.9,-54.97 0,-30.36 51.89,-54.97 115.9,-54.97 64.01,0 115.9,24.61 115.9,54.97zm1.64 0c0,-30.79 -52.62,-55.75 -117.54,-55.75 -64.91,0 -117.54,24.96 -117.54,55.75 0,30.79 52.63,55.75 117.54,55.75 64.92,0 117.54,-24.96 117.54,-55.75z"/>
    <path id="107" class="fil99" d="M202.41 365.48c0,30.65 -52.38,55.49 -116.99,55.49 -64.61,0 -116.99,-24.84 -116.99,-55.49 0,-30.64 52.38,-55.49 116.99,-55.49 64.61,0 116.99,24.85 116.99,55.49zm1.64 0c0,-31.07 -53.11,-56.26 -118.63,-56.26 -65.52,0 -118.63,25.19 -118.63,56.26 0,31.08 53.11,56.27 118.63,56.27 65.52,0 118.63,-25.19 118.63,-56.27z"/>
    <path id="108" class="fil98" d="M203.51 365.48c0,30.93 -52.87,56.01 -118.09,56.01 -65.21,0 -118.08,-25.08 -118.08,-56.01 0,-30.93 52.87,-56 118.08,-56 65.22,0 118.09,25.07 118.09,56zm1.64 0c0,-31.36 -53.61,-56.78 -119.73,-56.78 -66.12,0 -119.72,25.42 -119.72,56.78 0,31.36 53.6,56.79 119.72,56.79 66.12,0 119.73,-25.43 119.73,-56.79z"/>
    <path id="109" class="fil97" d="M204.6 365.48c0,31.22 -53.36,56.53 -119.18,56.53 -65.82,0 -119.18,-25.31 -119.18,-56.53 0,-31.22 53.36,-56.52 119.18,-56.52 65.82,0 119.18,25.3 119.18,56.52zm1.64 0c0,-31.65 -54.09,-57.3 -120.82,-57.3 -66.72,0 -120.82,25.65 -120.82,57.3 0,31.65 54.1,57.31 120.82,57.31 66.73,0 120.82,-25.66 120.82,-57.31z"/>
    <path id="110" class="fil96" d="M205.69 365.48c0,31.51 -53.84,57.05 -120.27,57.05 -66.42,0 -120.27,-25.54 -120.27,-57.05 0,-31.5 53.85,-57.04 120.27,-57.04 66.43,0 120.27,25.54 120.27,57.04zm1.1 0c0,-31.79 -54.34,-57.56 -121.37,-57.56 -67.03,0 -121.36,25.77 -121.36,57.56 0,31.79 54.33,57.57 121.36,57.57 67.03,0 121.37,-25.78 121.37,-57.57z"/>
   </g>
  </g>
  <path class="fil108" d="M91.01 378.02c-3.64,2.79 -2.71,6.01 -2.65,11.52 2.15,-3.02 3.39,-3.97 7.56,-6.79 1.87,-1.27 8.03,-4.35 10.3,-5.44 2.73,-1.32 5.95,-2.77 9.6,-4.57 18.49,-9.13 39.09,-18.93 55.01,-26.64l-0.26 -7.4c-9.61,4.66 -40.81,20.46 -61.63,29.98 -8.52,3.9 -15.54,7.51 -17.93,9.34z"/>
  <path class="fil109" d="M330.67 317.84c-9.23,-5 -21.86,-11.15 -33.64,-16.87 -9.3,-4.51 -17.58,-9.08 -22.14,-15.25 -3.52,-4.77 -5.65,-7.88 -5.98,-18.45 -0.61,-19.61 -0.03,-39.77 -0.06,-59.52l-9.23 4.2c-0.52,21.04 0.03,37.53 0.23,58.55 0.1,11.04 5.37,22.55 11.94,26.21 13.96,7.8 29.77,15.46 43.99,22l14.89 -0.87z"/>
  <path class="fil110" d="M413.73 388.93c-0.05,-1.01 0.04,-4.44 0,-5.86 -0.16,-3.4 -4.62,-5.84 -7.35,-7.2 -23.96,-11.88 -47.92,-23.76 -71.85,-35.65 -6.35,-3.15 -12.7,-6.31 -19.05,-9.47l-0.04 6.91c-0.4,-0.02 72.59,35.49 95.05,47.63 2.41,1.3 3.24,3.04 3.24,3.64z"/>
  <path class="fil111" d="M158.95 139.56c-6.71,3.37 -13.41,6.76 -20.12,10.12 -12.01,6 -25.01,12.08 -37.02,18.27 0.04,7.21 -0.12,14.67 -0.08,21.88 -10.06,2.98 -18.89,5.56 -28.98,8.46l-20.75 -9.73c-0.06,-8.07 -0.38,-16.14 -0.16,-24.23 0.45,-16.4 6.52,-29.21 18.72,-36.26 16.22,-9.39 33.3,-17.09 49.94,-25.4 16.64,-8.32 33.42,-16.47 49.99,-24.94 8.06,-4.11 13.82,-5.91 16.98,-3.75l19.72 10.02c2.56,1.17 3.87,3.97 3.93,8.45 0.21,15.49 0.43,30.99 0.33,46.5 -0.08,12.58 -4.28,22.81 -12.39,30.68l9.73 4.6c4.13,2.65 6.28,8.64 6.34,17.95 0.12,15.43 -0.06,30.84 -0.2,46.24 -0.15,18.01 -7.02,30.34 -20.52,37.07 -17.33,8.64 -34.69,17.27 -52.01,25.9 -17.32,8.62 -34.68,17.28 -52,25.9 -3.36,1.67 -6.27,2.45 -8.71,2.34l-23.75 -10.4c-4.52,-2 -6.8,-8.38 -6.85,-19.14 -0.05,-9.35 -0.12,-18.67 -0.19,-28.02 9.89,-7.46 19.81,-14.96 29.74,-22.53l20.76 9.74c0,2.23 0.01,4.46 0.02,6.69 5.81,-2.91 11.62,-5.81 17.43,-8.7 12.7,-6.31 25.42,-12.66 38.13,-18.98 4.97,-2.47 7.49,-8.46 7.5,-17.86 0.01,-3.99 0.02,-7.98 0.04,-11.97 -4.29,2.14 -8.57,4.27 -12.84,6.41 -8.71,4.35 -17.4,8.67 -26.09,13l-20.75 -9.73c-0.05,-11.07 -0.09,-22.17 -0.15,-33.26 8.27,-4.15 16.52,-8.26 24.77,-12.38 8.25,-4.11 16.51,-8.22 24.77,-12.35 3.17,-3.39 4.77,-7.15 4.76,-11.3 -0.01,-3.1 -0.02,-6.19 -0.04,-9.29z"/>
  <path class="fil112 str0" d="M70.47 127.11c16.22,-9.39 33.3,-17.09 49.94,-25.4 16.64,-8.32 33.42,-16.46 49.99,-24.94 13.15,-6.72 19.73,-5.22 19.88,4.99 0.21,15.48 0.43,30.99 0.33,46.5 -0.11,16.6 -7.39,29.11 -21.38,37.51 16.36,-8.3 24.92,-3.08 25.06,15.72 0.12,15.43 -0.07,30.83 -0.2,46.23 -0.15,18.02 -7.02,30.34 -20.52,37.08 -17.33,8.64 -34.69,17.27 -52.02,25.89 -17.32,8.63 -34.67,17.28 -51.99,25.9 -12.32,6.13 -18.47,0.31 -18.56,-17.46 -0.05,-9.35 -0.12,-18.67 -0.19,-28.02 9.89,-7.46 19.81,-14.96 29.74,-22.53 0.03,8.96 0.09,17.89 0.12,26.79 12.7,-6.37 25.39,-12.74 38.09,-19.06 12.7,-6.31 25.42,-12.65 38.13,-18.98 4.97,-2.47 7.48,-8.46 7.5,-17.86 0.01,-7.33 0.05,-14.67 0.06,-21.98 0.01,-6.73 -2.51,-8.83 -7.5,-6.34 -8.72,4.35 -17.44,8.68 -26.12,13.03 -8.7,4.35 -17.4,8.66 -26.08,13 -0.05,-11.07 -0.09,-22.17 -0.15,-33.26 8.27,-4.15 16.52,-8.26 24.77,-12.38 8.25,-4.11 16.51,-8.22 24.77,-12.35 3.17,-3.39 4.77,-7.15 4.76,-11.3 -0.02,-7.23 -0.06,-14.46 -0.1,-21.67 -0.03,-4.88 -1.69,-6.73 -4.8,-5.22 -12.09,5.88 -24.02,11.99 -36.02,17.99 -12,6 -24,12.01 -36.01,18.19 0.04,7.21 0.1,14.39 0.14,21.59 -10.05,2.98 -20.11,5.93 -30.2,8.83 -0.06,-8.07 -0.38,-16.14 -0.16,-24.23 0.45,-16.4 6.52,-29.2 18.72,-36.26z"/>
  <path class="fil113" d="M428.64 311.23c3.91,-1.28 7.34,-3.61 10.29,-6.98 8.89,-10.14 13.56,-29.82 13.85,-59.02 0.05,-6.1 0.08,-12.18 0.07,-18.28 -0.1,-28.75 -4.43,-52.39 -12.88,-70.88 -8.46,-18.48 -21.1,-31.8 -37.83,-40.14 -11.67,-5.81 -23.3,-11.72 -34.94,-17.61 -4.98,-2.51 -48,-24.21 -52.98,-26.72l-26.46 11.96c0.04,32 -0.4,54.47 -0.39,86.44 0,31.92 -0.52,63.65 -0.83,95.47 14.29,7.2 28.58,14.4 42.87,21.6 14.3,7.2 28.59,14.41 42.89,21.6 7.83,3.94 14.64,6.02 20.66,6.19l35.68 -3.63z"/>
  <path class="fil114" d="M342.8 140.95c0.02,32.62 0.05,65.2 -0.34,97.81 7.2,3.62 14.38,7.24 21.59,10.87 7.19,3.62 14.4,7.25 21.63,10.89 6.2,-8.25 10.1,-24.56 10.2,-47.37 0.13,-30.27 -9.7,-50.33 -29.25,-60.17 -7.94,-4 -15.89,-8.02 -23.83,-12.03z"/>
  <path class="fil115 str0" d="M314.14 71c14.64,7.38 29.32,14.77 43.96,22.15 14.66,7.39 29.28,14.86 43.96,22.18 16.73,8.34 29.37,21.65 37.83,40.14 8.46,18.49 12.79,42.13 12.88,70.88 0.02,6.1 -0.01,12.18 -0.07,18.28 -0.29,29.19 -4.95,48.87 -13.84,59.02 -8.9,10.15 -22.09,10.84 -39.63,2.01 -14.3,-7.2 -28.59,-14.4 -42.89,-21.6 -14.29,-7.2 -28.58,-14.4 -42.86,-21.6 0.3,-31.82 0.82,-63.55 0.82,-95.47 -0.01,-31.97 -0.11,-63.99 -0.16,-95.99zm28.58 53.34c0,18.98 0.02,38.04 0.03,57.03 0,18.98 -0.14,37.91 -0.37,56.79 7.2,3.61 14.39,7.24 21.59,10.87 7.19,3.62 14.4,7.25 21.59,10.86 12.22,6.15 21.46,5.1 27.69,-3.19 6.2,-8.26 9.46,-23.75 9.56,-46.56 0.14,-30.27 -9.69,-50.33 -29.24,-60.17 -8.48,-4.27 -16.96,-8.55 -25.43,-12.83 -8.48,-4.28 -16.95,-8.56 -25.42,-12.8z"/>
  <path class="fil116" d="M386.5 317.5c-33.54,-14.7 -65.65,-34.65 -98.03,-51.06l23.53 -3.44c16.33,7.25 32.23,16.24 47,24 14.61,7.67 29.49,15.55 45.5,22 4.39,1.77 9.05,2.43 13.5,4 -31.5,4.5 0,0 -31.5,4.5z"/>
 </g>
</svg>
