<?xml version="1.0" encoding="UTF-8"?>
<!DOCTYPE svg PUBLIC "-//W3C//DTD SVG 1.1//EN" "http://www.w3.org/Graphics/SVG/1.1/DTD/svg11.dtd">
<!-- Creator: CorelDRAW 2017 -->
<svg xmlns="http://www.w3.org/2000/svg" xml:space="preserve" width="500px" height="500px" version="1.1" style="shape-rendering:geometricPrecision; text-rendering:geometricPrecision; image-rendering:optimizeQuality; fill-rule:evenodd; clip-rule:evenodd"
viewBox="0 0 500 500"
 xmlns:xlink="http://www.w3.org/1999/xlink">
 <defs>
  <style type="text/css">
   <![CDATA[
    .str0 {stroke:#98AB3B;stroke-width:16;stroke-miterlimit:22.9256}
    .fil2 {fill:none}
    .fil8 {fill:#EF7F1A}
    .fil5 {fill:#7FBA33}
    .fil1 {fill:#002665}
    .fil6 {fill:#6B9CE0}
    .fil0 {fill:#98AB3B}
    .fil3 {fill:#ED2B2B}
    .fil4 {fill:#EFC79A}
    .fil7 {fill:#FFED00}
   ]]>
  </style>
 </defs>
 <g id="Слой_x0020_1">
  <metadata id="CorelCorpID_0Corel-Layer"/>
  <circle class="fil0" cx="250" cy="250" r="232.5"/>
  <g id="_2297927881168">
   <path class="fil1" d="M143.52 138.18c-15.13,0.87 -22.09,3.32 -39.09,5.47 -19.51,0 -39.18,11.88 -39.18,28.88l0 171.1 129.78 0c9.54,0 18.16,7.89 29,11.45 61.66,20.21 99.41,-11.45 113.02,-11.45l90.6 0c0,-16.38 4.08,-33.65 4.88,-48.91 1.8,-34.48 7.6,-103.39 -11.86,-133.62 -5.98,-9.29 -9.87,-10.39 -19.95,-15.23 4.15,-16.18 6.57,-17.04 -23,-23.57 -34.64,-7.65 -37.22,-14.96 -43.12,8.01l-4.9 0c-2.67,-10.43 -17.29,-35.55 -36.73,-35.55 -54.68,0 -69.33,-6.79 -87.27,25.24 -6.08,10.84 -3.18,11.04 -17.68,12.84 -8.48,1.06 -37.16,3.49 -44.5,5.34z"/>
   <path class="fil1" d="M188.96 359.18l-123.71 0c0,28.57 28.62,46.66 51.96,46.66l252.37 0c32.8,0 56.91,-23.17 56.91,-48.88 -43.96,9.19 -70.15,-7.99 -101.1,6.95 -4.96,2.39 -10.74,4.58 -15.51,6.1 -58.23,18.6 -89.24,-4.57 -110.85,-10.85 -11.14,0.02 0.8,0.02 -10.07,0.02z"/>
   <path class="fil1" d="M108.67 113.17l36.89 -5.24c3.67,-0.52 7.11,2.06 7.63,5.73l2.61 18.38 -50.25 7.14 -2.61 -18.38c-0.53,-3.67 2.05,-7.1 5.73,-7.63z"/>
   <rect class="fil0" x="229.93" y="104.81" width="71.42" height="31.87" rx="7.52" ry="7.08"/>
  </g>
  <circle class="fil2 str0" cx="269.34" cy="272.42" r="98.92"/>
 </g>
 <g id="Слой_x0020_1_0">
  <metadata id="CorelCorpID_1Corel-Layer"/>
  <g id="_2297927945744">
   <path class="fil3" d="M293.93 261.13l7.69 -10.16c4.98,-8.82 16.91,-27.42 17.74,-34.24 -13.89,-14.05 -35.23,-20.59 -60.25,-19.1 2.87,12.31 28.05,48.41 34.82,63.5z"/>
   <path class="fil4" d="M291.81 289.88l50.17 -0.26c6.1,-28.58 -1.88,-43.93 -12.91,-63.15 -5.43,4.03 -34.42,55.17 -37.26,63.41z"/>
   <path class="fil5" d="M209.71 318.38c5,-4.68 33.57,-54.38 36.99,-63.25l-50.2 0.13c-5.45,27.64 1.3,44.73 13.21,63.12z"/>
   <path class="fil6" d="M219.3 328.31c14.35,13.84 35.18,20.31 60.13,18.93 -3.95,-13.49 -28.6,-47.87 -34.65,-63.58l-7.85 10.34c-2,3.7 -4.13,7.12 -6.31,10.97 -3.8,6.71 -10.28,15.7 -11.32,23.34z"/>
   <path class="fil7" d="M200.77 244.75l71.38 -0.12c-3.35,-12.6 -19.44,-30.74 -23.2,-44.03 -18.98,3.85 -46.83,27.19 -48.18,44.15z"/>
   <path class="fil8" d="M290.43 343.95c19.19,-4.1 44.74,-25.55 47.4,-43.65l-71.48 -0.03 24.08 43.68z"/>
  </g>
 </g>
</svg>
