<?xml version="1.0" encoding="UTF-8"?>
<!DOCTYPE svg PUBLIC "-//W3C//DTD SVG 1.1//EN" "http://www.w3.org/Graphics/SVG/1.1/DTD/svg11.dtd">
<!-- Creator: CorelDRAW 2017 -->
<svg xmlns="http://www.w3.org/2000/svg" xml:space="preserve" width="500px" height="500px" version="1.1" style="shape-rendering:geometricPrecision; text-rendering:geometricPrecision; image-rendering:optimizeQuality; fill-rule:evenodd; clip-rule:evenodd"
viewBox="0 0 500 500"
 xmlns:xlink="http://www.w3.org/1999/xlink">
 <defs>
  <style type="text/css">
   <![CDATA[
    .str0 {stroke:#575757;stroke-width:16;stroke-miterlimit:22.9256}
    .fil0 {fill:#FEFEFE}
    .fil1 {fill:#88B919}
   ]]>
  </style>
 </defs>
 <g id="Слой_x0020_1">
  <metadata id="CorelCorpID_0Corel-Layer"/>
  <circle class="fil0 str0" cx="250" cy="250" r="239.39"/>
  <path class="fil1" d="M167.61 218.6l-36.66 0.01c0.37,0.4 2.32,0.85 3.03,1.19 3.41,1.66 5.83,2.94 6.27,7.43 0.24,2.44 -0.58,5.22 -2.08,6.6 -1.63,1.51 -4.25,1.71 -6.97,2.09l-31.22 4.81c0,8.87 -0.84,6.49 3.48,7.11l26.86 0.05c0,1.38 -0.15,3.89 0.21,4.85 0.55,-0.02 2,-0.3 2.53,-0.42 -0.08,0.88 -0.45,1.58 -0.71,2.45l-1.49 4.83c-0.27,0.94 -0.84,1.74 -0.54,2.62 0,7.99 -1.44,6.53 6.11,6.53 6.46,0 12.92,0 19.38,0 0.03,-0.02 0.06,-0.09 0.07,-0.07 0.12,0.47 -0.03,0.06 0.27,-0.42 0.02,-0.03 0.05,-0.1 0.09,-0.14 0.48,5.82 1.27,10.15 3.37,14.33 6.02,12.04 19.33,15.71 31.69,17.4 2.73,0.37 7.12,0.62 11.58,0.72l8.11 0c1.53,-0.04 2.91,-0.1 4.04,-0.2 0.7,-0.06 1.59,-0.01 2.31,-0.01 1.41,0 3.04,0.07 4.43,0 0.92,-0.05 0.88,-0.19 1.89,-0.22 0.76,-0.02 1.57,0.04 2.33,0.02l8.38 -0.68c6.21,-0.66 12.82,-1.44 14.97,-7.36 0.48,-1.31 1.5,-5.93 1.5,-7.56 0.56,0.37 1.19,1.34 1.66,1.92 1.1,1.37 4.23,4.15 5.63,5.12 2.85,1.96 5.98,3.6 9.54,4.78 3.68,1.22 7.15,2.11 11.53,2.81 12.8,2.05 28.83,0.89 41.81,0.96l10.17 -0.57c3.47,-0.46 5.54,-0.16 9.38,-1.37 1.65,-0.53 3.52,-1.52 4.57,-2.81 1.47,-1.82 3.07,-7.91 3.81,-10.51 0.31,-1.07 0.49,-1.76 0.77,-2.82 0.25,-0.96 0.66,-1.83 -0.37,-2.45 -1.42,-0.87 -20.36,0.75 -23.69,0.72 -1.46,-0.01 -2.23,0.15 -3.38,0.21 -1.14,0.07 -2.43,-0.08 -3.57,0.01 -3.94,0.33 -10.06,0.43 -14.13,0.42 -1.36,0 -1.89,-0.23 -3.36,-0.22 -4.73,0.03 -9.31,-0.36 -13.32,-1.02 -2.01,-0.33 -3.92,-0.84 -5.51,-1.64 -3.52,-1.78 -5.58,-3.39 -6.97,-7.37 -0.58,-1.66 -0.97,-4.25 -0.97,-6.4 1.54,0 10.86,-1.4 13.29,-1.67 4.5,-0.51 9,-1.08 13.46,-1.71 11.6,-1.65 28.79,-3.12 39.46,-6.06 6.66,-1.83 10.31,-3.2 16.39,-6.36 2.3,-1.2 3.78,-2.34 5.69,-3.8l2.05 -1.74c0.47,-0.45 0.58,-0.46 1.05,-0.85l3.64 -3.94 -0.21 -0.21c0.01,-0.03 0.09,-0.48 0.21,-0.63l30.55 0c0.47,-1.06 0.93,-3 1.27,-4.22 0.45,-1.62 0.93,-2.88 1.69,-4.2 1.83,-3.18 4.74,-5.1 8,-6.54 4.41,-1.94 8.43,-1.77 12.63,-2.12 1.76,-0.15 3.63,-0.23 5.71,-0.21 1.17,0.01 1.34,0.21 2.51,0.23l8.86 -0.01c4.11,0 7.68,0.21 11.6,0.22 4.04,0.01 4.56,-2.32 5.86,-5.93 1.05,-2.89 2.56,-5.86 2.56,-9.04l-20.44 0c-1.01,0 -6.62,0.33 -6.81,-0.41 -0.01,-0.06 -0.04,-0.14 -0.05,-0.21l-0.09 -2.54c0,-0.98 0,-1.97 0,-2.95l-9.04 0c-0.28,0.02 -0.54,0.05 -0.78,0.09 -1.56,0.23 -3.03,0.23 -4.6,0.45 -1.74,0.24 -2.99,0.35 -4.7,0.57 -12.93,1.72 -27.14,7.65 -35.34,18.18l-3.28 4.52 0 -3.16 -32.87 0c0.5,0.65 5.21,2.28 4.22,7.8 -2.09,11.75 -25.57,14.15 -35.04,15.53l-30.46 4.31c-0.73,0.1 -1.99,0.37 -2.77,0.38 0.36,-1.54 1.09,-3.93 1.68,-5.26 -2.46,0 -4.91,0 -7.37,0 -2.58,0 -4.57,-0.22 -6.95,-0.22l-10.75 0c-1.82,0.01 -3.16,0.35 -3.16,-0.42 -2.15,4.83 -5.51,16.82 -5.49,22.12 0.01,1.21 -0.08,1.69 -0.18,2.58 -0.13,1.16 0.19,1.48 0.2,2.69 0.03,4.38 0.82,6.02 1.68,9.7 -5.57,0 -12.4,0.9 -18.13,1.05 -1.08,0.02 -1.29,0.22 -2.52,0.22l-10.54 0.42c-6.74,-0.03 -13.56,-0.35 -19.98,-1.94 -10.45,-2.6 -13.4,-8.65 -11.39,-20.37 0.5,-2.93 1.24,-6.26 2.06,-8.91 2.94,-9.5 7.19,-17.32 15.49,-22.85 1.77,-1.19 5.17,-3.12 7.11,-3.85 10.48,-3.93 20.15,-4.39 31.79,-4.04 1.08,0.03 1.3,0.22 2.52,0.22 4.74,0.01 12.05,1 15.61,0.85 0.99,-0.04 1.37,-0.26 1.76,-0.98 0.27,-0.5 0.56,-1.48 0.52,-2.16l-1.32 -9.64c-1.62,-6.44 -7.97,-7.71 -14.25,-7.67 -1.99,0.01 -3.17,-0.2 -5.08,-0.21l-0.32 0c-13.96,0.03 -21.33,-0.21 -35.1,3.33 -9.09,2.33 -15.48,5.52 -22.67,10.41 -6.04,4.11 -11.33,10.12 -15.42,16.19 -0.13,0.18 -0.09,0.14 -0.26,0.37 -0.18,0.24 -0.22,0.29 -0.38,0.46 0.04,-1.64 0.42,-1.84 0.43,-5.9 0,-3.51 -0.24,-2.94 -0.64,-5.69zm-11.8 50.15c-6.46,0 -12.92,0 -19.38,0 -7.55,0 -6.11,1.46 -6.11,-6.53 -0.58,0.46 -0.5,0.76 -0.98,2.19l-5.13 16.56 -10.54 1.06c-9.46,0.5 -24.56,0.88 -33.38,-0.75 -1.44,-0.27 -2.46,-0.59 -3.7,-0.94 -1.12,-0.3 -2.36,-0.74 -3.44,-1.19 -1.85,-0.79 -3.89,-2.73 -4.63,-4.64 -0.97,-2.5 0.26,-5.86 1.28,-7.49 1.17,-1.85 2.74,-3.5 4.61,-4.66 5.07,-3.13 8.62,-3.23 14.49,-4.05 2.9,-0.41 5.57,-0.75 8.35,-1.13l33.28 -4.44c-0.36,-0.96 -0.21,-3.47 -0.21,-4.85l-26.86 -0.05c-4.32,-0.62 -3.48,1.76 -3.48,-7.11l-14.81 2.05c-8.59,1.41 -19.65,4.07 -27.27,8.34 -3.06,1.72 -6.34,3.36 -8.87,5.88l-3.05 3.06c-1.53,1.58 -3.18,4.37 -4.16,6.37 -1.25,2.54 -2.24,5.81 -2.53,9.21l0 3.94c0.23,2.52 0.93,4.98 2.28,7.13 3.31,5.29 9.25,8.14 15.24,10.04 15.82,5.03 45.34,3.86 62.33,2.54 4.97,-0.39 10.1,-0.99 14.88,-1.76 5.23,-0.84 9.41,-1.38 12.77,-4.09 2.59,-2.09 3.78,-7.81 5.05,-11.6 0.7,-2.08 1.26,-4.22 2,-6.42 0.38,-1.15 0.61,-2.07 1,-3.22 0.37,-1.09 0.79,-2.3 0.97,-3.45zm96.3 -26.55c0,0.77 1.34,0.43 3.16,0.42l10.75 0c2.38,0 4.37,0.22 6.95,0.22 2.46,0 4.91,0 7.37,0 3.59,-11.77 10.08,-20.49 22.04,-23.48 9.81,-2.45 26.28,-3.08 35.91,-0.76 1.77,0.43 2.85,0.96 4.42,1.48l32.87 0c0,-3.62 -1.51,-6.57 -3.1,-8.7 -1.46,-1.96 -4.03,-4.13 -6.31,-5.28 -0.74,-0.37 -1.12,-0.67 -1.78,-0.95 -8.63,-3.66 -17.03,-5.05 -26.73,-5.51 -0.86,-0.04 -1.22,-0.18 -2.14,-0.21l-12.97 0c-3.03,0.04 -5.78,0.14 -7.5,0.36 -11.31,1.47 -16.44,1.74 -28.36,6.62 -6.16,2.53 -11.37,5.88 -16.28,9.85 -0.62,0.5 -0.86,0.83 -1.57,1.38 -4.31,3.33 -10.11,11.47 -12.87,16.41 -1.15,2.06 -3.1,5.86 -3.86,8.15zm117.15 -4.21c0.47,0.14 0.58,-0.01 0.21,0.21 -0.02,0.77 -0.98,3.79 -1.24,4.66l-14.52 50.38c-2.3,8.24 -1.28,6.91 14.5,6.91 2.41,0 10.08,0.31 11.63,-0.17 3.18,-1 3.53,-4.35 4.38,-7.42 1.72,-6.13 3.56,-12.21 5.27,-18.33l7.89 -27.51c0.45,-1.6 0.94,-3.13 1.34,-4.56 0.42,-1.52 1.07,-3.3 1.3,-4.8l-30.55 0c-0.12,0.15 -0.2,0.6 -0.21,0.63zm-238.31 -19.38l36.66 -0.01c-1.51,-4.96 -3.31,-7.79 -7.07,-10.62 -6.51,-4.91 -14.91,-6.86 -23.11,-7.86 -3.67,-0.45 -6.92,-0.63 -10.16,-0.69l-11.28 0 -0.55 0c-11.53,0 -23.27,0.14 -33.43,1.41 -3.05,0.39 -4.85,0.56 -7.18,1.68 -5.19,2.49 -5.56,5.31 -7.28,10.42 -1.15,3.43 -1.02,4.2 -1.71,7.14 1.58,0 2.45,0.35 3.92,0.12 2.69,-0.41 9.33,-0.66 12.01,-1.05l13.99 -1.18c4.78,-0.24 10.06,-0.63 14.75,-0.63 5.32,0 5.35,-0.57 12.47,0.18l5.84 0.69c0.79,0.14 1.2,0.34 2.13,0.4zm329.76 -13.07c-0.29,-1.8 -2.39,-3.83 -3.93,-4.49 -1.94,-0.83 -4.46,-0.97 -6.91,-1.32 -1.27,-0.18 -2.56,0.01 -3.82,-0.18 -0.41,-0.06 -1.34,-0.1 -2.53,-0.12l-10.1 0 -0.1 0c0,0.98 0,1.97 0,2.95l0.09 2.54c0.01,0.07 0.04,0.15 0.05,0.21 0.19,0.74 5.8,0.41 6.81,0.41l20.44 0z"/>
 </g>
</svg>
