<?xml version="1.0" encoding="UTF-8"?>
<!DOCTYPE svg PUBLIC "-//W3C//DTD SVG 1.1//EN" "http://www.w3.org/Graphics/SVG/1.1/DTD/svg11.dtd">
<!-- Creator: CorelDRAW 2017 -->
<svg xmlns="http://www.w3.org/2000/svg" xml:space="preserve" width="500px" height="500px" version="1.1" style="shape-rendering:geometricPrecision; text-rendering:geometricPrecision; image-rendering:optimizeQuality; fill-rule:evenodd; clip-rule:evenodd"
viewBox="0 0 500 500"
 xmlns:xlink="http://www.w3.org/1999/xlink">
 <defs>
  <style type="text/css">
   <![CDATA[
    .fil0 {fill:#4F4F4F}
    .fil5 {fill:#66191B}
    .fil6 {fill:#C09C9D}
    .fil3 {fill:#E6082B}
    .fil4 {fill:#F41D37}
    .fil2 {fill:#F51E39}
    .fil1 {fill:#FEFEFE}
   ]]>
  </style>
 </defs>
 <g id="Слой_x0020_1">
  <metadata id="CorelCorpID_0Corel-Layer"/>
  <circle class="fil0" cx="250" cy="250" r="217.06"/>
  <g id="_2334260096880">
   <path class="fil1" d="M230.4 109.14c-17.73,3.04 -32.03,7.46 -46.1,15.23 -2.4,5.34 -7.24,11.64 -10.83,17.58 -20.46,33.83 -40.81,78.19 -51.29,116.72 -1.32,4.87 -4.13,17.95 -5.99,21.27 1.11,11.01 10.02,28.99 14.92,37.27 3.45,5.82 6.69,10.37 10.68,15.31 4.15,5.14 9.18,9.5 12.8,14.07l49.03 -0.19 86.47 0.04 -15.8 -49.29 -102.26 0.26 5.87 -15.1 -4.28 -0.68c-0.24,-0.07 -0.54,-0.19 -0.74,-0.26l-1.32 -0.66c7.35,-20.05 27.39,-60.93 37.5,-81.16 5.51,-11.02 36.59,-70.97 42.34,-76.16 11.54,10.42 65.47,122.83 74.67,144.83 7.02,16.78 15.15,36.47 20.46,54.14l5.88 16.31c6.69,-6.36 20.63,-24.88 23.87,-36.9 3.4,-23.46 -25.79,-109.04 -39.29,-137.43 -3.18,-6.68 -5.89,-13.2 -9.36,-19.69 -3.03,-5.65 -8.17,-13.58 -10.3,-19.08 -8.61,-6.96 -28.8,-12.31 -40.93,-15.3 -8.04,-1.91 -12.34,-2.38 -22,-2.37 -4.01,0.01 -8.01,0.01 -12.02,-0.01 -6.26,-0.04 -6.9,0.65 -11.98,1.25z"/>
   <path class="fil2" d="M171.56 280.71c10.47,1.55 85.21,0.45 102.58,0.45 4.44,10.82 19.74,54.76 21.51,64.92l-5.56 0.36 -86.47 -0.04 1.18 0.99c0.68,0.41 1.43,0.84 2.04,1.09 1.28,0.53 3.24,0.99 4.62,1.37 36.31,10.02 72.42,6.91 106.15,-9.78 9.78,-4.84 26.32,-17.17 28.92,-17.71 -5.31,-17.67 -13.44,-37.36 -20.46,-54.14 -9.2,-22 -63.13,-134.41 -74.67,-144.83 -5.75,5.19 -36.83,65.14 -42.34,76.16 -10.11,20.23 -30.15,61.11 -37.5,81.16z"/>
   <path class="fil3" d="M203.62 346.4l-49.03 0.19c-20.79,0.59 -30.74,0.73 -49.24,7.19 0.72,4.47 5.97,9.63 9.09,13.12 1.79,2 3.89,3.42 5.73,5.23 2.28,2.24 3.86,3.8 5.84,6.14 4.61,5.45 19.7,16.05 25.91,20.09 51.64,33.56 126.93,38.63 182.57,9.64l28.91 -17.09c0,-5.03 -1,-5.94 -1,-11.71 -0.14,-0.24 -0.29,-0.57 -0.36,-0.76l-9.63 -39.77 -5.88 -16.31c-2.6,0.54 -19.14,12.87 -28.92,17.71 -33.73,16.69 -69.84,19.8 -106.15,9.78 -1.38,-0.38 -3.34,-0.84 -4.62,-1.37 -0.61,-0.25 -1.36,-0.68 -2.04,-1.09l-1.18 -0.99z"/>
   <path class="fil4" d="M400.43 246.64c8.13,-7.96 12.83,-50.2 15.24,-57.34 15.25,24.62 18.58,72.31 11.44,104.32l-10.43 29.81c-0.07,-0.16 -0.31,0.42 -0.49,0.61l-0.84 15.86c0.75,-0.82 0.22,-0.05 1.42,-1.61 5.19,-6.77 13.59,-30.91 15.63,-38.38 8.93,-32.67 9.79,-67.98 0.8,-100.81 -9.96,-36.36 -21.41,-51.58 -42.64,-78.36 -1.19,-1.5 -2,-2.21 -3.41,-3.59 -2.58,-2.56 -4.41,-4.46 -6.98,-7.02l-11.34 -9.65c-22.11,-17.05 -44.12,-29.22 -71.86,-36.14 -3.89,-0.97 -9,-2.36 -12.72,-2.44 1.94,2.04 3.46,2.64 5.85,4.3 1.95,1.36 3.31,2.58 5.1,3.91l18.82 19.19c34.6,42.27 55.26,78.25 76.76,130.23 3.61,8.71 6.08,18.25 9.65,27.11z"/>
   <path class="fil5" d="M97.2 230.91c-3.9,15.84 -12.96,34.32 -17.66,58.12l-2.24 8.1c0.79,6.65 -1.68,15.36 -0.61,24.77 0.37,3.96 2.78,6.7 4.9,9.82 5.19,7.63 10.88,13.27 18.22,18.76l4.59 3.48 0.95 -0.18c18.5,-6.46 28.45,-6.6 49.24,-7.19 -3.62,-4.57 -8.65,-8.93 -12.8,-14.07 -3.99,-4.94 -7.23,-9.49 -10.68,-15.31 -4.9,-8.28 -13.81,-26.26 -14.92,-37.27 -5.7,-10.62 -5.19,-38.79 -3.32,-52.52 2.26,-16.6 7.13,-30.92 13.87,-44.17 12.53,-24.65 33.53,-46.71 57.56,-58.88 14.07,-7.77 28.37,-12.19 46.1,-15.23l-1.05 -12.19c-0.36,-4.76 -2.79,-30.13 -4.95,-34.48 -38.17,12.18 -85.57,86.74 -103.47,119 -4.59,8.26 -8.76,15.93 -12.53,24.43 -1.62,3.65 -9.82,23.41 -11.2,25.01z"/>
   <path class="fil4" d="M76.69 321.9c-1.07,-9.41 1.4,-18.12 0.61,-24.77 -4.68,-18.72 -5.92,-38.59 -3.65,-58.1 1.65,-14.22 8,-40.12 14.63,-50.01 1.28,8.22 5.25,36.89 8.92,41.89 1.38,-1.6 9.58,-21.36 11.2,-25.01 3.77,-8.5 7.94,-16.17 12.53,-24.43 17.9,-32.26 65.3,-106.82 103.47,-119 -8.17,-2.93 -36.15,6.08 -44.15,9.29 -13.4,5.38 -24.78,11.36 -36.06,18.93 -30.92,20.76 -53.1,48.6 -68.45,82.55 -6.39,14.14 -13.57,39.49 -14.34,54.66 -1.64,32.19 -2.15,39.84 7.42,73.59l5.24 15.74c0.5,1.25 0.35,1.01 0.92,2.09l1.25 1.96c0.09,0.14 0.29,0.43 0.46,0.62z"/>
   <path class="fil5" d="M276.4 110.27c12.13,2.99 32.32,8.34 40.93,15.3 6.62,2.89 14.93,9.11 19.52,12.89 12.67,10.43 21.18,19.67 30.18,33.81 19.31,30.37 26.2,69.06 17.75,105.07 -1.44,6.13 -4.8,20.59 -8.5,24.43 -3.24,12.02 -17.18,30.54 -23.87,36.9l9.63 39.77c0.07,0.19 0.22,0.52 0.36,0.76 5.97,-2.24 10.81,-4.72 16,-7.29l14.61 -8.4c7.34,-4.91 20.47,-14.63 22.34,-23.61l0.84 -15.86c-1.45,-29.05 -8.99,-51.48 -15.76,-77.4 -3.57,-8.86 -6.04,-18.4 -9.65,-27.11 -21.5,-51.98 -42.16,-87.96 -76.76,-130.23l-18.82 -19.19c-1.79,-1.33 -3.15,-2.55 -5.1,-3.91 -2.39,-1.66 -3.91,-2.26 -5.85,-4.3 -3.07,2.5 -1.15,-0.18 -2.16,4.68 -0.3,1.42 -0.68,3.54 -1.12,5.9 -1.55,8.27 -4.57,30.09 -4.57,37.79z"/>
   <path class="fil6" d="M376.28 301.77c3.7,-3.84 7.06,-18.3 8.5,-24.43 8.45,-36.01 1.56,-74.7 -17.75,-105.07 -9,-14.14 -17.51,-23.38 -30.18,-33.81 -4.59,-3.78 -12.9,-10 -19.52,-12.89 2.13,5.5 7.27,13.43 10.3,19.08 3.47,6.49 6.18,13.01 9.36,19.69 13.5,28.39 42.69,113.97 39.29,137.43z"/>
   <path class="fil4" d="M363.4 390.91l-28.91 17.09c-55.64,28.99 -130.93,23.92 -182.57,-9.64 -6.21,-4.04 -21.3,-14.64 -25.91,-20.09 -1.98,-2.34 -3.56,-3.9 -5.84,-6.14 -1.84,-1.81 -3.94,-3.23 -5.73,-5.23 -3.12,-3.49 -8.37,-8.65 -9.09,-13.12l-0.95 0.18 -7 5.94c1.39,2.63 2.46,4.1 4.41,6.59l5.34 6.66c3.71,4.18 7.96,7.97 12,12 9.78,9.79 15.66,14.02 26.65,21.35 19.86,13.26 40.01,21.85 67.19,27.81 49.63,10.88 105.82,-2.25 146.53,-31.29 2.54,-1.81 0.69,-1.27 3.88,-2.12l0 -9.99z"/>
   <path class="fil6" d="M116.19 279.94c1.86,-3.32 4.67,-16.4 5.99,-21.27 10.48,-38.53 30.83,-82.89 51.29,-116.72 3.59,-5.94 8.43,-12.24 10.83,-17.58 -24.03,12.17 -45.03,34.23 -57.56,58.88 -6.74,13.25 -11.61,27.57 -13.87,44.17 -1.87,13.73 -2.38,41.9 3.32,52.52z"/>
   <path class="fil3" d="M400.43 246.64c6.77,25.92 14.31,48.35 15.76,77.4 0.18,-0.19 0.42,-0.77 0.49,-0.61l10.43 -29.81c7.14,-32.01 3.81,-79.7 -11.44,-104.32 -2.41,7.14 -7.11,49.38 -15.24,57.34z"/>
   <path class="fil6" d="M290.09 346.44l5.56 -0.36c-1.77,-10.16 -17.07,-54.1 -21.51,-64.92 -17.37,0 -92.11,1.1 -102.58,-0.45l1.32 0.66c0.2,0.07 0.5,0.19 0.74,0.26l4.28 0.68 -5.87 15.1 102.26 -0.26 15.8 49.29z"/>
   <path class="fil3" d="M77.3 297.13l2.24 -8.1c4.7,-23.8 13.76,-42.28 17.66,-58.12 -3.67,-5 -7.64,-33.67 -8.92,-41.89 -6.63,9.89 -12.98,35.79 -14.63,50.01 -2.27,19.51 -1.03,39.38 3.65,58.1z"/>
  </g>
 </g>
</svg>
