<?xml version="1.0" encoding="UTF-8"?>
<!DOCTYPE svg PUBLIC "-//W3C//DTD SVG 1.1//EN" "http://www.w3.org/Graphics/SVG/1.1/DTD/svg11.dtd">
<!-- Creator: CorelDRAW 2017 -->
<svg xmlns="http://www.w3.org/2000/svg" xml:space="preserve" width="500px" height="500px" version="1.1" style="shape-rendering:geometricPrecision; text-rendering:geometricPrecision; image-rendering:optimizeQuality; fill-rule:evenodd; clip-rule:evenodd"
viewBox="0 0 500 500"
 xmlns:xlink="http://www.w3.org/1999/xlink">
 <defs>
  <style type="text/css">
   <![CDATA[
    .str0 {stroke:black;stroke-width:35;stroke-miterlimit:22.9256}
    .fil1 {fill:black}
    .fil0 {fill:url(#id0)}
   ]]>
  </style>
  <radialGradient id="id0" gradientUnits="userSpaceOnUse" gradientTransform="matrix(1 -0 -0 1 0 0)" cx="250" cy="250" r="555.14" fx="250" fy="250">
   <stop offset="0" style="stop-opacity:1; stop-color:#FEC118"/>
   <stop offset="0.811765" style="stop-opacity:1; stop-color:#FCAB15"/>
   <stop offset="1" style="stop-opacity:1; stop-color:#FA9513"/>
  </radialGradient>
 </defs>
 <g id="Слой_x0020_1">
  <metadata id="CorelCorpID_0Corel-Layer"/>
  <circle class="fil0 str0" cx="250" cy="250" r="211.7"/>
  <path class="fil1" d="M103.09 335.81l188.69 0c-0.48,-5.78 -16.57,-36.24 -20.22,-43.12l-83.56 0 14.75 -25.69c4.75,-7.94 44.55,-72.31 45.9,-78.09l2.7 0c1.29,5.53 7.09,13.01 10.21,18.09 4.04,6.56 7.68,12.33 11.29,18.36l67.45 110.45 56.61 0c-1.55,-6.64 -31.29,-50.47 -35.96,-58.38 -26.23,-44.46 -65.9,-100.56 -91.65,-144.21l-19.3 -29.22c-2.66,1.95 -7.23,10.14 -9.45,13.46 -3.22,4.85 -6.18,9.94 -9.43,14.83 -6.31,9.48 -11.72,19.01 -18.32,28.85 -17.87,26.57 -37.12,59.97 -54.98,86.54l-46.08 72.52c-3.44,5.23 -7.16,9.26 -8.65,15.61z"/>
 </g>
</svg>
