<?xml version="1.0" encoding="UTF-8"?>
<!DOCTYPE svg PUBLIC "-//W3C//DTD SVG 1.1//EN" "http://www.w3.org/Graphics/SVG/1.1/DTD/svg11.dtd">
<!-- Creator: CorelDRAW 2017 -->
<svg xmlns="http://www.w3.org/2000/svg" xml:space="preserve" width="500px" height="500px" version="1.1" style="shape-rendering:geometricPrecision; text-rendering:geometricPrecision; image-rendering:optimizeQuality; fill-rule:evenodd; clip-rule:evenodd"
viewBox="0 0 500 500"
 xmlns:xlink="http://www.w3.org/1999/xlink">
 <defs>
  <style type="text/css">
   <![CDATA[
    .fil8 {fill:#EBECEC}
    .fil1 {fill:#EBECEC}
    .fil7 {fill:#2B2A29}
    .fil3 {fill:black}
    .fil5 {fill:#040404}
    .fil0 {fill:#4F4F4F}
    .fil4 {fill:#828282}
    .fil2 {fill:#D7D7D8}
    .fil6 {fill:whitesmoke}
   ]]>
  </style>
 </defs>
 <g id="Слой_x0020_1">
  <metadata id="CorelCorpID_0Corel-Layer"/>
  <circle class="fil0" cx="250" cy="250" r="236"/>
  <path class="fil1" d="M186.43 408.79c-21.69,-18.2 -25.8,-36.76 -25.8,-64.18 0.01,-29.95 0,-59.91 0.01,-89.86 0,-29.82 0.9,-61.09 -0.11,-90.73l-0.13 0.52 0.01 160.75 -21.87 -0.17c-0.26,8.17 -0.08,16.57 -0.08,24.77 0,7.33 2.05,17.32 -4.75,18.95 -2.05,1.22 0.95,0.77 -3.59,0.26l-10.72 -2.59c-0.17,-0.08 -0.54,-0.09 -0.66,-0.41 -0.13,-0.33 -0.45,-0.28 -0.66,-0.44 -4.17,-1.31 -10.27,-2.6 -12.83,-6.14 -3.89,-1.78 -5.79,-3.18 -7.57,-6.74 -3.28,-1.15 -2.79,-3.07 -4.79,-5.68 -2.15,-3.62 -1.26,-15.69 -1.26,-20.99 0,-7.06 0,-14.11 -0.02,-21.09l-4.83 -1.82c0,-16.29 -1.25,-56.21 -0.19,-62.3 1.12,-6.44 0.31,-45.76 0.29,-51.2 -0.02,-3.93 -0.11,-8.34 1.28,-13.59 1.25,-4.7 1.87,-6.21 4.79,-10.28 3.04,-4.24 11.04,-9.74 15.44,-11.65l9.98 -3.59c0.08,-0.03 0.3,-0.13 0.38,-0.15 0.08,-0.03 0.3,-0.13 0.39,-0.15l18.51 -2.48c6.4,0.08 20.93,-0.4 29.35,-0.81 0.2,2.77 0.45,5.26 1,7 1.1,3.47 10,9 10,9 0.1,-0.18 -7.2,2.82 -7,3 0.54,-19.46 -10.49,-45.88 4.46,-63.06 12.28,-14.12 22.62,-17.8 42.69,-21.62l3.97 -3.08c-3.78,-1.66 -0.43,-1.69 -3.29,-1.44 -16.6,1.52 -42.08,1.04 -63.83,6.56 -6.94,1.76 -12.2,3.79 -18.27,6.4 -34.11,14.71 -56.54,49.32 -60.4,85.83 -1.02,9.69 -0.17,130.37 -0.15,146.14 0.01,13.42 5.01,29.45 9.34,39.11 14.86,33.12 50.52,59.43 85.8,60.44 15.1,0.43 44.19,2.72 52.95,2.45 275.57,-26.12 -27.78,-34.27 -37.84,-14.94z"/>
  <path class="fil2" d="M218.84 77.24c3.44,3.85 12.77,4.33 16.75,8.31 -9.9,4.52 -21.59,17.13 -26.97,27.75 -7.8,15.36 -7.8,27.67 -7.8,46.31l0.01 162.97c0,30.67 -3.58,62.57 24.06,84.77 18.47,14.83 18.95,10.48 36.95,16.62l100.67 -0.22c17.76,1.08 40.79,-15.4 51.27,-32.27 0.93,-1.49 1.3,-2.39 2.2,-3.98 1.21,-2.15 1.26,-1.74 2.28,-3.87 6.19,-12.96 5.91,-26.78 5.91,-41.67l0 -192.92c0.02,-17.29 -3.29,-28.15 -9.69,-38.93 -3.41,0.32 -0.59,-1.07 -2.47,1.05 2.48,6.47 5.71,11.06 5.73,19.12l-14.09 -5.27c-5.98,-2.07 -3.7,-3.03 -8.08,-3.45l-4.57 -1.86c-0.05,0 -0.27,-0.01 -0.32,-0.02l-3.93 -1.16c-4.61,-1.67 -4.3,-0.71 -6.27,-1.2 -0.02,-0.01 -1.16,-0.5 -1.46,-0.63 -0.12,-0.05 -0.35,-0.19 -0.47,-0.24 -0.12,-0.06 -0.36,-0.17 -0.47,-0.22 -4.88,-2.01 -4.49,-2.43 -7.57,-2.72l-19.73 -7.01c-6.87,-1.27 -0.98,-3.74 -8.53,-1.9l0 -1.72c-7.42,-1.57 -12.63,-7.13 -18.17,-7.27 -7.61,-0.2 1.92,-1.21 -10.18,-5.47 -0.11,-0.03 -0.35,-0.12 -0.46,-0.16 -0.11,-0.05 -0.35,-0.15 -0.46,-0.2l-5.82 -2.55c-1.54,-1.01 -1.28,-1.17 -3.16,-2.19 -3.94,-2.14 -1.05,-0.27 -3.68,-1.06l-6.7 -3.16c-2.54,-0.98 0.36,1.36 -2.28,-1.08 6.47,-2.32 65.32,-1.8 74.93,-0.14 18.96,3.28 36.78,15.58 44.69,30.68 2.53,-1.69 3.54,2.12 1.59,-2.64 -6.36,-15.3 -33.1,-29.98 -51.66,-31.46 -17.07,-1.37 -89.56,-0.25 -113.78,-0.25l-28.28 0.87 0.01 0.44z"/>
  <path class="fil3" d="M369.15 248.99c-1.61,16.82 -4.85,29.5 -13.64,39.3 -5.08,5.3 -8.25,8.9 -15.83,13.24 -5.85,3.35 -14.45,6.1 -22.46,6.73 -8.29,0.65 -18.18,-0.42 -25.25,-3.22 -5.61,-2.22 -14.52,-6.82 -16.3,-12.91 2.22,-1.32 26.89,-18.57 22.92,-23.62 -4.88,-3.29 -50.92,-1.99 -60.3,-1.51 -4.28,1.28 -3.48,1.37 -3.36,6.05 -0.16,10.63 0.03,21.29 -0.05,31.92 -0.05,5.28 -0.01,10.57 -0.06,15.85 -0.05,5.84 -1.99,11.91 4.48,11.18 7.44,-4.52 8.28,-9.61 14.05,-14.81 0.94,-1.61 3.97,-5.58 5.02,-6.8 7.3,3.45 19.87,17.85 46.88,20.08 14.32,1.18 30.06,-1.57 42.46,-7.72 4.12,-2.05 7.86,-4.75 11.49,-6.26 1.85,-2.85 29.93,-19.42 33.85,-57.4 1.17,-11.41 0.27,-17.91 -12.05,-17.47 -6.72,0.52 -10,1.85 -11.85,7.37z"/>
  <path class="fil4" d="M160.49 158.73l0.04 5.29c1.05,29.64 0.12,60.91 0.11,90.73 0,29.95 0.01,59.91 0,89.86 -0.01,27.42 3.26,45.98 25.79,64.18 22.18,17.93 56.24,16.07 84.51,15.16 -18.69,-6.14 -23.65,-3.75 -42.84,-18.58 -28.7,-22.2 -25.71,-52.12 -25.71,-82.79l-0.01 -162.97c0,-18.64 0,-30.95 8.1,-46.31 5.59,-10.62 20.81,-21.47 31.08,-26 -4.13,-3.98 -15.27,-7.08 -20.46,-10.06 -20.86,3.81 -32.31,11.58 -45.06,25.7 -15.53,17.18 -15,36.33 -15.55,55.79z"/>
  <path class="fil3" d="M379.52 178.58c-1.3,4.73 -6.67,8.42 -8.67,13.16 -5.77,-2.24 -11.15,-9.75 -28.8,-16.06 -31.15,-11.13 -67.77,-0.55 -88.42,24.82 -1.34,1.65 -3.4,4.39 -4.72,5.5 -5.05,10.42 -10.25,16.74 -12.71,30.9 -3.09,17.77 -3.08,24.36 16.21,23.18 6.37,-4.2 6.79,-3.39 7.36,-12.94 0.36,-5.87 1.57,-11.36 3.61,-16.59 3.71,-9.48 11.09,-20.69 17.25,-24.1 10.42,-12.52 39.85,-16.97 58.57,-8.57 5.23,2.35 12.08,7.01 13.46,11.06 -2.17,2.65 -3.88,3.84 -6.4,4.68 -1.89,4.59 -12.92,10.06 -16.75,16.88 -0.23,3.45 0.1,2.84 2.48,3.95 3.95,0.47 56.44,1 59.42,0.05 2.04,-0.66 0.7,0.04 1.94,-1.08 2.16,-3.24 0.6,-29.47 0.56,-35.7 0.03,-7.66 1.43,-23 -1.68,-28.05 -7.22,0.11 -7.72,6.31 -12.71,8.91z"/>
  <path class="fil5" d="M120.21 166.85c-4.57,0.98 -10.09,3.8 -12.73,6.42 -2.51,2.5 -6.03,9.36 -2.99,14.15 3.02,-2.3 7.67,-4.89 12.76,-6.34l0.61 10.55 -4.23 3.36 1.56 1.4c7.36,4.3 14.19,7.32 23.11,10.06l0.24 118.67 21.87 0.17 -0.01 -160.75 -3.81 0.77c-11.88,-2.25 -24.83,-0.01 -36.38,1.54z"/>
  <path class="fil3" d="M363.67 75.86c-11.05,-0.93 -81.71,-3.23 -88.64,-0.74 1.61,8.05 120.46,56.6 148.34,59.81 0.36,-31.35 -32.49,-56.36 -59.7,-59.07z"/>
  <path class="fil3" d="M133.58 212.62l0.13 156.22c6.8,-1.63 4.75,-11.62 4.75,-18.95 0,-8.2 -0.18,-16.6 0.08,-24.77l-0.24 -118.67c-0.97,1.96 -3.03,4.94 -4.72,6.17z"/>
  <path class="fil6" d="M106.34 351.8c5.23,2.01 10.08,5.18 16.47,5.19l0.1 -21.96c-2.95,-0.26 -3.2,-0.24 -5.66,-1.77 -1.46,-0.35 -1.26,-0.18 -2.51,-0.86 -1.32,-0.73 -0.84,-0.52 -1.66,-1.38 -2.07,-0.06 -2.58,-0.23 -4.34,-1.25 -0.43,-0.24 -1.64,-1.17 -2.09,-1.58 -1.01,-0.92 -0.62,-0.56 -1.41,-1.57 -1.18,-0.32 -0.25,0.43 -2.55,-0.85l0.22 23.96c1.08,0.8 1.93,1.6 3.43,2.07z"/>
  <path class="fil7" d="M106.03 232.34l7.18 3.18 9.3 1.75 -0.49 -21.85 -3.56 -1.34c-0.23,-0.09 -0.55,-0.24 -0.73,-0.32 -0.2,-0.08 -0.52,-0.21 -0.76,-0.34 -1.74,-0.43 -3.08,-0.92 -4.85,-1.6 -0.08,-0.03 -2.41,-1 -2.46,-1.03 -2.23,-1.37 -1.14,-0.81 -2.09,-1.99l-4.87 -2.72 0.12 23.97c1.27,0.87 2.05,1.6 3.21,2.29z"/>
  <polygon class="fil8" points="137.46,191.18 158.23,190.93 158.18,175.75 137.79,175.39 "/>
  <path class="fil6" d="M104.49 187.42l2.93 3.41c0.16,0.13 0.4,0.15 0.47,0.42 0.07,0.27 0.38,0.33 0.47,0.42 0.23,0.2 1.25,1.13 1.41,1.25 1.61,1.22 1.65,1.15 3.86,2.07l4.23 -3.36 -0.61 -10.55c-5.09,1.45 -9.74,4.04 -12.76,6.34z"/>
 </g>
</svg>
