<?xml version="1.0" encoding="UTF-8"?>
<!DOCTYPE svg PUBLIC "-//W3C//DTD SVG 1.1//EN" "http://www.w3.org/Graphics/SVG/1.1/DTD/svg11.dtd">
<!-- Creator: CorelDRAW 2017 -->
<svg xmlns="http://www.w3.org/2000/svg" xml:space="preserve" width="500px" height="500px" version="1.1" style="shape-rendering:geometricPrecision; text-rendering:geometricPrecision; image-rendering:optimizeQuality; fill-rule:evenodd; clip-rule:evenodd"
viewBox="0 0 500 500"
 xmlns:xlink="http://www.w3.org/1999/xlink">
 <defs>
  <style type="text/css">
   <![CDATA[
    .fil9 {fill:#040404}
    .fil17 {fill:#047AAC}
    .fil10 {fill:#153C6A}
    .fil0 {fill:#2BAD93}
    .fil15 {fill:#2D73AC}
    .fil5 {fill:#30495B}
    .fil19 {fill:#3985BD}
    .fil1 {fill:#3E3F44}
    .fil13 {fill:#5AA7D7}
    .fil11 {fill:#95DBF2}
    .fil6 {fill:#9FCEDF}
    .fil16 {fill:#B65C16}
    .fil12 {fill:#B7EFFF}
    .fil14 {fill:#CDCFD0}
    .fil8 {fill:#E16C06}
    .fil18 {fill:#E7FCFE}
    .fil3 {fill:#FB7C25}
    .fil2 {fill:#FE972D}
    .fil4 {fill:#FF8C07}
    .fil7 {fill:white}
   ]]>
  </style>
 </defs>
 <g id="Слой_x0020_1">
  <metadata id="CorelCorpID_0Corel-Layer"/>
  <circle class="fil0" cx="250" cy="250" r="236"/>
  <g id="_2566735756480">
   <path class="fil1" d="M186.43 408.79c-21.69,-18.2 -25.8,-36.76 -25.8,-64.18 0.01,-29.95 0,-59.91 0.01,-89.86 0,-29.82 0.9,-61.09 -0.11,-90.73l-0.13 0.52 0.01 160.75 -21.87 -0.17c-0.26,8.17 -0.08,16.57 -0.08,24.77 0,7.33 2.05,17.32 -4.75,18.95 -2.05,1.22 0.95,0.77 -3.59,0.26l-10.72 -2.59c-0.17,-0.08 -0.54,-0.09 -0.66,-0.41 -0.13,-0.33 -0.45,-0.28 -0.66,-0.44 -4.17,-1.31 -10.27,-2.6 -12.83,-6.14 -3.89,-1.78 -5.79,-3.18 -7.57,-6.74 -3.28,-1.15 -2.79,-3.07 -4.79,-5.68 -2.15,-3.62 -1.26,-15.69 -1.26,-20.99 0,-7.06 0,-14.11 -0.02,-21.09l-4.83 -1.82c0,-16.29 -1.25,-56.21 -0.19,-62.3 1.12,-6.44 0.31,-45.76 0.29,-51.2 -0.02,-3.93 -0.11,-8.34 1.28,-13.59 1.25,-4.7 1.87,-6.21 4.79,-10.28 3.04,-4.24 11.04,-9.74 15.44,-11.65l9.98 -3.59c0.08,-0.03 0.3,-0.13 0.38,-0.15 0.08,-0.03 0.3,-0.13 0.39,-0.15l18.51 -2.48c6.4,0.08 9.3,-0.87 17.72,-1.29 0.19,2.77 0.75,5.52 1.31,7.26 1.1,3.48 3.17,4.47 3.17,4.47 0.1,-0.18 0.44,0.3 0.64,0.48 0.53,-19.46 0.02,-38.61 14.97,-55.79 12.28,-14.12 22.62,-17.8 42.69,-21.62l3.97 -3.08c-3.78,-1.66 -0.43,-1.69 -3.29,-1.44 -16.6,1.52 -42.08,1.04 -63.83,6.56 -6.94,1.76 -12.2,3.79 -18.27,6.4 -34.11,14.71 -56.54,49.32 -60.4,85.83 -1.02,9.69 -0.17,130.37 -0.15,146.14 0.01,13.42 5.01,29.45 9.34,39.11 14.86,33.12 50.52,59.43 85.8,60.44 15.1,0.43 44.19,2.72 52.95,2.45 275.57,-26.12 -27.78,-34.27 -37.84,-14.94z"/>
   <path class="fil2" d="M218.84 77.24c3.44,3.85 12.77,4.33 16.75,8.31 -9.9,4.52 -21.59,17.13 -26.97,27.75 -7.8,15.36 -7.8,27.67 -7.8,46.31l0.01 162.97c0,30.67 -3.58,62.57 24.06,84.77 18.47,14.83 18.95,10.48 36.95,16.62l100.67 -0.22c17.76,1.08 40.79,-15.4 51.27,-32.27 0.93,-1.49 1.3,-2.39 2.2,-3.98 1.21,-2.15 1.26,-1.74 2.28,-3.87 6.19,-12.96 5.91,-26.78 5.91,-41.67l0 -192.92c0.02,-17.29 -3.29,-28.15 -9.69,-38.93 -3.41,0.32 -0.59,-1.07 -2.47,1.05 2.48,6.47 5.71,11.06 5.73,19.12l-14.09 -5.27c-5.98,-2.07 -3.7,-3.03 -8.08,-3.45l-4.57 -1.86c-0.05,0 -0.27,-0.01 -0.32,-0.02l-3.93 -1.16c-4.61,-1.67 -4.3,-0.71 -6.27,-1.2 -0.02,-0.01 -1.16,-0.5 -1.46,-0.63 -0.12,-0.05 -0.35,-0.19 -0.47,-0.24 -0.12,-0.06 -0.36,-0.17 -0.47,-0.22 -4.88,-2.01 -4.49,-2.43 -7.57,-2.72l-19.73 -7.01c-6.87,-1.27 -0.98,-3.74 -8.53,-1.9l0 -1.72c-7.42,-1.57 -12.63,-7.13 -18.17,-7.27 -7.61,-0.2 1.92,-1.21 -10.18,-5.47 -0.11,-0.03 -0.35,-0.12 -0.46,-0.16 -0.11,-0.05 -0.35,-0.15 -0.46,-0.2l-5.82 -2.55c-1.54,-1.01 -1.28,-1.17 -3.16,-2.19 -3.94,-2.14 -1.05,-0.27 -3.68,-1.06l-6.7 -3.16c-2.54,-0.98 0.36,1.36 -2.28,-1.08 6.47,-2.32 65.32,-1.8 74.93,-0.14 18.96,3.28 36.78,15.58 44.69,30.68 2.53,-1.69 3.54,2.12 1.59,-2.64 -6.36,-15.3 -33.1,-29.98 -51.66,-31.46 -17.07,-1.37 -89.56,-0.25 -113.78,-0.25l-28.28 0.87 0.01 0.44z"/>
   <path class="fil3" d="M331.99 234.45c2.99,1.46 48.73,0.83 56.27,0.83 -0.34,6.85 -1.5,5.27 -7.26,5.57l0 0.77c12.32,-0.44 13.22,6.06 12.05,17.47 -3.92,37.98 -32,54.55 -33.85,57.4 -2.7,5.09 -15.68,12.04 -22.59,14.55 -20.44,7.42 -40.4,8.29 -60.6,-0.32 -15.41,-6.56 -18.6,-11.68 -22.66,-13.53 -5.77,5.2 -6.61,10.29 -14.05,14.81 -1.51,3.28 -4.78,7 -9.59,6.11 -1.63,-4.08 -1.55,-58.06 -0.64,-64.58l5.86 -0.48c-0.12,-4.68 -0.92,-4.77 3.36,-6.05l0 -0.95c-10.2,-0.64 -9.94,-6.94 -9.11,-16.61 -1.25,1.29 0.02,0.21 -1.58,1.08 -4.62,2.48 -1.99,-0.09 -3.64,2.71 -2.07,3.54 -2.29,1.02 -5.72,4.35 -5.06,4.91 -1.97,0.73 -2.62,3.58l-1.11 1.54c-0.97,0.63 -3.06,1.07 -3.96,1.3 1.31,0.48 0.94,1.19 0.94,1.18 0.02,-0.14 -0.04,0.39 -0.06,0.58l-7.89 2.64c0,-6.06 1.31,-26.09 -0.59,-29.95 1.06,12.29 -0.05,64.78 -0.05,81.49 0.01,29.34 -2.85,48.41 10,70.39 8.59,14.7 27.13,29.06 50.22,31.72 9.48,1.09 68,0.35 82.65,0.37 23.18,0.02 43.59,-4.45 58.54,-21.91 18.63,-21.78 17.33,-38.07 17.33,-65.59 0,-23.86 1.9,-58.37 -1.47,-80.6 -2.32,-15.37 -17.67,-53.45 -26.26,-56.6 0.04,6.23 1.6,32.46 -0.56,35.7 -1.24,1.12 0.1,0.42 -1.94,1.08 -2.98,0.95 -55.47,0.42 -59.42,-0.05z"/>
   <path class="fil4" d="M202.95 238.45c1.9,3.86 0.59,23.89 0.59,29.95l7.89 -2.64c0.02,-0.19 0.08,-0.72 0.06,-0.58 0,0.01 0.37,-0.7 -0.94,-1.18 0.9,-0.23 2.99,-0.67 3.96,-1.3l1.11 -1.54c0.65,-2.85 -2.44,1.33 2.62,-3.58 3.43,-3.33 3.65,-0.81 5.72,-4.35 1.65,-2.8 -0.98,-0.23 3.64,-2.71 1.6,-0.87 0.33,0.21 1.58,-1.08 0.97,-9.34 3.4,-17.57 6.96,-25.07l8.91 -14.86c1.33,-1.82 2.42,-3.63 3.86,-3.51 1.32,-1.11 3.38,-3.85 4.72,-5.5 20.65,-25.37 57.27,-35.95 88.42,-24.82 17.65,6.31 23.03,13.82 28.8,16.06 2,-4.74 7.37,-8.43 8.67,-13.16l-26.71 -24.21c-24.72,-21.4 -67.48,-47 -97.99,-60.74 -13.89,-6.25 -16.51,-12.19 -32.87,4.7 -24.23,25.02 -19.17,51.89 -19.17,86.83 0,17.18 -0.76,36.35 0.17,53.29z"/>
   <path class="fil3" d="M280.63 206.45c-6.16,3.41 -13.54,14.62 -17.25,24.1 -2.04,5.23 -3.25,10.72 -3.61,16.59 -0.57,9.55 -0.99,8.74 -7.36,12.94 1.52,4.46 -8.77,7 -14.12,5.97l0 0.95c9.38,-0.48 55.42,-1.78 60.3,1.51 3.97,5.05 -20.7,22.3 -22.92,23.62 1.78,6.09 10.69,10.69 16.3,12.91 7.07,2.8 16.96,3.87 25.25,3.22 8.01,-0.63 16.61,-3.38 22.46,-6.73 7.58,-4.34 10.75,-7.94 15.83,-13.24 -2.11,-1.43 -0.31,-1.29 2.73,-8.71 7.65,-18.65 0.37,-27.15 10.91,-30.59 1.85,-5.52 5.13,-6.85 11.85,-7.37l0 -0.77c-11.66,0.47 -48.24,1.28 -57.45,-0.87 -0.68,-4.74 2.74,-8.28 5.96,-9.48 3.83,-6.82 14.86,-12.29 16.75,-16.88 -5.59,-4.34 -5.72,-5.93 -12.6,-9.31 -5.03,-2.47 -11.39,-4.04 -17.6,-4.54 -10.02,-0.79 -19.62,0.31 -28.77,4.44 -1.27,0.58 -2.47,1.36 -3.56,1.84 -3.56,1.58 -2.93,0.49 -3.1,0.4z"/>
   <path class="fil5" d="M93.03 348.67c-0.66,-18.61 -1.48,-162.19 1.12,-165.94 0.19,-5.71 6.55,-16.6 10.46,-17.27 1.67,-3.08 4.91,-4 9.75,-5.48 13.8,-4.23 26,-2.52 41.64,-2.5l0.59 7.83 3.81 -0.77 0.13 -0.52 4.82 -5.4c-0.2,-0.17 0.1,-0.17 0,0 0,0 3.91,-2.13 2.8,-5.6 -0.55,-1.75 -4.29,-3.96 -4.48,-6.73 -8.42,0.42 -19.62,1.6 -26.02,1.52l-18.51 2.48c-0.09,0.02 -0.31,0.12 -0.39,0.15 -0.08,0.02 -0.3,0.12 -0.38,0.15l-9.98 3.59c-4.4,1.91 -12.4,7.41 -15.44,11.65 -2.92,4.07 -3.54,5.58 -4.79,10.28 -1.39,5.25 -2.43,10.54 -2.42,14.47 0.24,49.8 0.44,98.61 0.57,148.56 0.01,2.86 0.14,3.24 6.72,9.53z"/>
   <path class="fil6" d="M104.61 165.46c4.41,1.18 11.89,-1.43 15.6,1.39 11.55,-1.55 29.68,-2.9 41.78,-2.06l-1.13 -7.85c-15.63,-0.01 -32.7,-1.19 -46.5,3.04 -4.84,1.48 -8.08,2.4 -9.75,5.48z"/>
   <path class="fil7" d="M369.15 248.99c-1.61,16.82 -4.85,29.5 -13.64,39.3 -5.08,5.3 -8.25,8.9 -15.83,13.24 -5.85,3.35 -14.45,6.1 -22.46,6.73 -8.29,0.65 -18.18,-0.42 -25.25,-3.22 -5.61,-2.22 -14.52,-6.82 -16.3,-12.91 2.22,-1.32 26.89,-18.57 22.92,-23.62 -4.88,-3.29 -50.92,-1.99 -60.3,-1.51 -4.28,1.28 -3.48,1.37 -3.36,6.05 -0.16,10.63 0.03,21.29 -0.05,31.92 -0.05,5.28 -0.01,10.57 -0.06,15.85 -0.05,5.84 -1.99,11.91 4.48,11.18 7.44,-4.52 8.28,-9.61 14.05,-14.81 0.94,-1.61 3.97,-5.58 5.02,-6.8 7.3,3.45 19.87,17.85 46.88,20.08 14.32,1.18 30.06,-1.57 42.46,-7.72 4.12,-2.05 7.86,-4.75 11.49,-6.26 1.85,-2.85 29.93,-19.42 33.85,-57.4 1.17,-11.41 0.27,-17.91 -12.05,-17.47 -6.72,0.52 -10,1.85 -11.85,7.37z"/>
   <path class="fil8" d="M160.49 158.73l0.04 5.29c1.05,29.64 0.12,60.91 0.11,90.73 0,29.95 0.01,59.91 0,89.86 -0.01,27.42 4.26,45.98 26.79,64.18 22.19,17.93 52.24,16.09 80.51,15.18 -18.69,-6.15 -20.65,-3.77 -39.84,-18.6 -28.7,-22.2 -25.71,-52.12 -25.71,-82.79l-0.01 -162.97c0,-18.64 0,-30.95 8.1,-46.31 5.59,-10.62 20.81,-21.47 31.08,-26 -4.13,-3.98 -15.27,-7.08 -20.46,-10.06 -20.86,3.81 -32.31,11.58 -45.06,25.7 -15.53,17.18 -15,36.33 -15.55,55.79z"/>
   <path class="fil7" d="M379.52 178.58c-1.3,4.73 -6.67,8.42 -8.67,13.16 -5.77,-2.24 -11.15,-9.75 -28.8,-16.06 -31.15,-11.13 -67.77,-0.55 -88.42,24.82 -1.34,1.65 -3.4,4.39 -4.72,5.5 -5.05,10.42 -10.25,16.74 -12.71,30.9 -3.09,17.77 -3.08,24.36 16.21,23.18 6.37,-4.2 6.79,-3.39 7.36,-12.94 0.36,-5.87 1.57,-11.36 3.61,-16.59 3.71,-9.48 11.09,-20.69 17.25,-24.1 10.42,-12.52 39.85,-16.97 58.57,-8.57 5.23,2.35 12.08,7.01 13.46,11.06 -2.17,2.65 -3.88,3.84 -6.4,4.68 -1.89,4.59 -12.92,10.06 -16.75,16.88 -0.23,3.45 0.1,2.84 2.48,3.95 3.95,0.47 56.44,1 59.42,0.05 2.04,-0.66 0.7,0.04 1.94,-1.08 2.16,-3.24 0.6,-29.47 0.56,-35.7 0.03,-7.66 1.43,-23 -1.68,-28.05 -7.22,0.11 -7.72,6.31 -12.71,8.91z"/>
   <path class="fil9" d="M120.21 166.85c-4.57,0.98 -10.09,3.8 -12.73,6.42 -2.51,2.5 -6.03,9.36 -2.99,14.15 3.02,-2.3 7.67,-4.89 12.76,-6.34l0.61 10.55 -4.23 3.36 1.56 1.4c7.36,4.3 14.19,7.32 23.11,10.06l0.24 118.67 21.87 0.17 -0.01 -160.75 -3.81 0.77c-11.88,-2.25 -24.83,-0.01 -36.38,1.54z"/>
   <path class="fil4" d="M366.27 79.6c-9.61,-1.66 -72.8,-2.35 -79.27,-0.02 1.5,7.52 104.7,47.7 130.74,50.7 -0.06,-26.85 -26.36,-46.34 -51.47,-50.68z"/>
   <path class="fil10" d="M116.97 213.42c0.24,0.13 0.56,0.26 0.76,0.34 0.18,0.08 0.5,0.23 0.73,0.32l3.56 1.34 0.49 21.85c0.03,2.2 -0.64,1.03 -1.02,4.35l-0.07 91.89 -4.17 -0.25c2.46,1.53 2.71,1.51 5.66,1.77 0.12,0.18 0.23,0.27 0.26,0.58 0.03,0.32 0.2,0.46 0.24,0.6l0.38 19c-0.98,7.2 -2.64,-1.61 -2.64,10.56l-3.07 -0.11c0.21,0.16 0.53,0.11 0.66,0.44 0.12,0.32 0.49,0.33 0.66,0.41l10.72 2.59c4.54,0.51 1.54,0.96 3.59,-0.26l-0.13 -156.22 -14.84 -3.31c-1.7,2.48 1.34,-3.03 -0.03,1.49 -0.93,3.04 2,1.01 -1.74,2.62z"/>
   <path class="fil11" d="M97.68 352.78c1.78,3.56 3.68,4.96 7.57,6.74 1.51,-1.39 0.74,-0.04 1.15,-2.61 0.2,-1.29 -0.01,-3.79 -0.06,-5.11 -1.5,-0.47 -2.35,-1.27 -3.43,-2.07l-0.22 -23.96c2.3,1.28 1.37,0.53 2.55,0.85l1.71 -0.08c-2.06,-4.56 -0.9,-89.85 -0.92,-94.2 -1.16,-0.69 -1.94,-1.42 -3.21,-2.29l-0.12 -23.97 4.87 2.72c1.73,-1.91 0.54,0.3 0.45,-4.17l7.61 2.74c1.72,0.72 0.24,-0.03 1.29,0.56 1.23,0.69 1.08,0.71 1.82,1.38l14.84 3.31c1.69,-1.23 3.75,-4.21 4.72,-6.17 -8.92,-2.74 -15.75,-5.76 -23.11,-10.06 -1.16,2.49 2.11,1.98 -2.86,1.98 0.4,-0.98 2.85,-0.07 -2.57,-1.24l-11.21 0.36 0 117.16c0,5.94 1.62,35.58 -0.87,38.13z"/>
   <path class="fil12" d="M92.89 347.1c2,2.61 1.51,4.53 4.79,5.68 2.49,-2.55 0.87,-32.19 0.87,-38.13l0 -117.16 11.21 -0.36c5.42,1.17 2.97,0.26 2.57,1.24 4.97,0 1.7,0.51 2.86,-1.98l-1.56 -1.4c-2.21,-0.92 -2.25,-0.85 -3.86,-2.07 -0.16,-0.12 -1.18,-1.05 -1.41,-1.25 -0.09,-0.09 -0.4,-0.15 -0.47,-0.42 -0.07,-0.27 -0.31,-0.29 -0.47,-0.42 -2.32,2.31 -1.74,0.78 -4.24,0.11 -2.81,-0.74 -6.78,0.66 -8.96,-0.01 -0.47,-4.89 -1.81,-6.47 -0.21,-11.84 -2.96,4.25 -1.27,72.33 -1.27,83.59 0,27.71 -0.83,56.89 0.15,84.42z"/>
   <path class="fil13" d="M105.24 326.62c0.79,1.01 0.4,0.65 1.41,1.57 0.45,0.41 1.66,1.34 2.09,1.58 1.76,1.02 2.27,1.19 4.34,1.25 2.27,-2.96 0.89,-40.33 0.89,-47.2 0,-8.86 1.2,-42.3 -0.76,-48.3l-7.18 -3.18c0.02,4.35 -1.14,89.64 0.92,94.2l-1.71 0.08z"/>
   <path class="fil14" d="M133.58 212.62l0.13 156.22c6.8,-1.63 4.75,-11.62 4.75,-18.95 0,-8.2 -0.18,-16.6 0.08,-24.77l-0.24 -118.67c-0.97,1.96 -3.03,4.94 -4.72,6.17z"/>
   <path class="fil15" d="M113.08 331.02c0.82,0.86 0.34,0.65 1.66,1.38 1.25,0.68 1.05,0.51 2.51,0.86l4.17 0.25 0.07 -91.89c0.38,-3.32 1.05,-2.15 1.02,-4.35l-9.3 -1.75c1.96,6 0.76,39.44 0.76,48.3 0,6.87 1.38,44.24 -0.89,47.2z"/>
   <path class="fil16" d="M253.35 317.19c4.06,1.85 7.25,6.97 22.66,13.53 20.2,8.61 40.16,7.74 60.6,0.32 6.91,-2.51 19.89,-9.46 22.59,-14.55 -3.63,1.51 -7.37,4.21 -11.49,6.26 -12.4,6.15 -28.14,8.9 -42.46,7.72 -27.01,-2.23 -39.58,-16.63 -46.88,-20.08 -1.05,1.22 -4.08,5.19 -5.02,6.8z"/>
   <path class="fil9" d="M106.34 351.8c5.23,2.01 10.08,5.18 16.47,5.19l0.1 -21.96c-2.95,-0.26 -3.2,-0.24 -5.66,-1.77 -1.46,-0.35 -1.26,-0.18 -2.51,-0.86 -1.32,-0.73 -0.84,-0.52 -1.66,-1.38 -2.07,-0.06 -2.58,-0.23 -4.34,-1.25 -0.43,-0.24 -1.64,-1.17 -2.09,-1.58 -1.01,-0.92 -0.62,-0.56 -1.41,-1.57 -1.18,-0.32 -0.25,0.43 -2.55,-0.85l0.22 23.96c1.08,0.8 1.93,1.6 3.43,2.07z"/>
   <path class="fil16" d="M280.63 206.45c0.17,0.09 -0.46,1.18 3.1,-0.4 1.09,-0.48 2.29,-1.26 3.56,-1.84 9.15,-4.13 18.75,-5.23 28.77,-4.44 6.21,0.5 12.57,2.07 17.6,4.54 6.88,3.38 7.01,4.97 12.6,9.31 2.52,-0.84 4.23,-2.03 6.4,-4.68 -1.38,-4.05 -8.23,-8.71 -13.46,-11.06 -18.72,-8.4 -48.15,-3.95 -58.57,8.57z"/>
   <path class="fil9" d="M106.03 232.34l7.18 3.18 9.3 1.75 -0.49 -21.85 -3.56 -1.34c-0.23,-0.09 -0.55,-0.24 -0.73,-0.32 -0.2,-0.08 -0.52,-0.21 -0.76,-0.34 -1.74,-0.43 -3.08,-0.92 -4.85,-1.6 -0.08,-0.03 -2.41,-1 -2.46,-1.03 -2.23,-1.37 -1.14,-0.81 -2.09,-1.99l-4.87 -2.72 0.12 23.97c1.27,0.87 2.05,1.6 3.21,2.29z"/>
   <path class="fil16" d="M239.3 332c-6.47,0.73 -4.53,-5.34 -4.48,-11.18 0.05,-5.28 0.01,-10.57 0.06,-15.85 0.08,-10.63 -0.11,-21.29 0.05,-31.92l-5.86 0.48c-0.91,6.52 -0.99,60.5 0.64,64.58 4.81,0.89 8.08,-2.83 9.59,-6.11z"/>
   <path class="fil16" d="M381 240.85c5.76,-0.3 6.92,1.28 7.26,-5.57 -7.54,0 -53.28,0.63 -56.27,-0.83 -2.38,-1.11 -2.71,-0.5 -2.48,-3.95 -3.22,1.2 -6.64,4.74 -5.96,9.48 9.21,2.15 45.79,1.34 57.45,0.87z"/>
   <path class="fil16" d="M229.18 249.44c-0.83,9.67 -1.09,15.97 9.11,16.61 5.35,1.03 15.64,-1.51 14.12,-5.97 -19.29,1.18 -19.3,-5.41 -16.21,-23.18 2.46,-14.16 7.66,-20.48 12.71,-30.9 -1.44,-0.12 -2.53,1.69 -3.86,3.51l-8.91 14.86c-3.56,7.5 -5.99,15.73 -6.96,25.07z"/>
   <polygon class="fil17" points="137.46,191.18 158.23,190.93 158.18,175.75 137.79,175.39 "/>
   <path class="fil18" d="M94.01 179.09c-1.6,5.37 -0.26,6.95 0.21,11.84 2.18,0.67 6.15,-0.73 8.96,0.01 2.5,0.67 1.92,2.2 4.24,-0.11l-2.93 -3.41c-3.04,-4.79 0.48,-11.65 2.99,-14.15 2.64,-2.62 8.16,-5.44 12.73,-6.42 -3.71,-2.81 -11.19,-0.21 -15.6,-1.39 -3.91,0.67 -10.41,7.92 -10.6,13.63z"/>
   <path class="fil19" d="M106.34 351.8c0.05,1.32 0.26,3.82 0.06,5.11 -0.41,2.57 0.36,1.22 -1.15,2.61 2.56,3.54 8.66,4.83 12.83,6.14l3.07 0.11c0,-12.17 1.66,-3.36 2.64,-10.56l-0.38 -19c-0.04,-0.14 -0.21,-0.28 -0.24,-0.6 -0.03,-0.31 -0.14,-0.4 -0.26,-0.58l-0.1 21.96c-6.39,-0.01 -11.24,-3.18 -16.47,-5.19z"/>
   <path class="fil16" d="M355.51 288.29c8.79,-9.8 12.03,-22.48 13.64,-39.3 -10.54,3.44 -3.26,11.94 -10.91,30.59 -3.04,7.42 -4.84,7.28 -2.73,8.71z"/>
   <path class="fil17" d="M104.49 187.42l2.93 3.41c0.16,0.13 0.4,0.15 0.47,0.42 0.07,0.27 0.38,0.33 0.47,0.42 0.23,0.2 1.25,1.13 1.41,1.25 1.61,1.22 1.65,1.15 3.86,2.07l4.23 -3.36 -0.61 -10.55c-5.09,1.45 -9.74,4.04 -12.76,6.34z"/>
   <path class="fil19" d="M107.57 208.8c0.95,1.18 -0.14,0.62 2.09,1.99 0.05,0.03 2.38,1 2.46,1.03 1.77,0.68 3.11,1.17 4.85,1.6 3.74,-1.61 0.81,0.42 1.74,-2.62 1.37,-4.52 -1.67,0.99 0.03,-1.49 -0.74,-0.67 -0.59,-0.69 -1.82,-1.38 -1.05,-0.59 0.43,0.16 -1.29,-0.56l-7.61 -2.74c0.09,4.47 1.28,2.26 -0.45,4.17z"/>
  </g>
 </g>
</svg>
