<?xml version="1.0" encoding="UTF-8"?>
<!DOCTYPE svg PUBLIC "-//W3C//DTD SVG 1.1//EN" "http://www.w3.org/Graphics/SVG/1.1/DTD/svg11.dtd">
<!-- Creator: CorelDRAW 2017 -->
<svg xmlns="http://www.w3.org/2000/svg" xml:space="preserve" width="500px" height="500px" version="1.1" style="shape-rendering:geometricPrecision; text-rendering:geometricPrecision; image-rendering:optimizeQuality; fill-rule:evenodd; clip-rule:evenodd"
viewBox="0 0 500 500"
 xmlns:xlink="http://www.w3.org/1999/xlink">
 <defs>
  <style type="text/css">
   <![CDATA[
    .str0 {stroke:#9FD200;stroke-width:25;stroke-miterlimit:22.9256}
    .fil3 {fill:#2B2A29}
    .fil2 {fill:#6DA200}
    .fil1 {fill:#9FD200}
    .fil0 {fill:white}
   ]]>
  </style>
 </defs>
 <g id="Слой_x0020_1">
  <metadata id="CorelCorpID_0Corel-Layer"/>
  <circle class="fil0 str0" cx="250" cy="250" r="232.45"/>
 </g>
 <g id="Слой_x0020_1_0">
  <metadata id="CorelCorpID_1Corel-Layer"/>
  <g id="_2490634671792">
   <g>
    <path class="fil1" d="M393.12 233.16c-6.66,-16.42 -15.32,-27.51 -27.5,-39.57 -1.32,-1.3 -1.67,-1.42 -3,-2.49 -10.16,-8.21 -19.19,-13.92 -31.87,-18.73 -2.66,-1.01 -6,-2.63 -8.89,-2.7 0.27,-3.34 6.01,-12.13 7.93,-15.84l14.62 -26.84c3.75,-7.25 10.16,-15.29 9.02,-23.62 -2.84,-20.9 -28.83,-20.94 -37.48,-4.84 -1.97,3.67 -3.71,7.32 -5.71,10.75l-8.5 15.89c-1.02,1.97 -2.02,3.39 -3.06,5.47l-17.07 32.33 -63.41 0 -28.4 -53.31c-1.12,-1.87 -1.77,-3.47 -2.69,-5.24 -1.01,-1.94 -2,-3.45 -3.04,-5.49 -8.39,-16.31 -34.21,-16.78 -37.6,3.9 -0.86,5.28 1.15,10.02 2.82,13.2 1.83,3.47 3.97,6.93 5.91,10.55l20.29 37.02c0.99,1.69 2.27,3.73 2.47,6.07 -8.01,0.18 -25.47,10.51 -33.17,15.61 -9.99,6.62 -17.81,15 -24.93,24.46 -18.69,24.79 -25.51,59.94 -26.04,90.66l0 28.94c0.54,19.05 10.38,31.87 29.24,33.47 7.44,0.63 45.1,0.15 54.29,0.15l181.09 0c5.62,0 12.42,0.34 17.89,-0.09 7.52,-0.6 9.1,-2.73 14.43,-4.18 4.56,-0.11 10.79,-11.06 12.2,-14.62 4.34,-10.91 3.04,-29.79 3.04,-41.96 -0.25,-24.62 -3.59,-46.03 -12.88,-68.95z"/>
    <path class="fil2" d="M390.76 358.69c-5.33,1.45 -6.91,3.58 -14.43,4.18 -5.47,0.43 -12.27,0.09 -17.89,0.09l-181.09 0c-9.19,0 -46.85,0.48 -54.29,-0.15 -7.26,-0.62 -8.84,-2.71 -14,-4.12 1.65,3.77 7.75,6.31 11.38,8.13 15.57,7.83 34.51,5.28 52.64,5.28 51.22,0 102.44,0 153.65,0 21.24,0 41,3.12 58.55,-8.52l5.48 -4.89z"/>
   </g>
   <path class="fil2" d="M233.39 286.48c-5.41,10.02 -7.91,13.9 -16.02,19.74 -6.91,4.98 -16.38,8.73 -27.19,8.72 -10.82,-0.01 -20.27,-3.71 -27.22,-8.72 -8.09,-5.83 -10.63,-9.72 -16.01,-19.74 -0.01,0.01 -1.03,-0.43 0.09,2.69 0.34,0.96 1.01,2.41 1.5,3.42 12.9,26.41 48.12,34.26 70.04,16.09 4.34,-3.6 5.9,-5.06 9.29,-9.67l5.24 -9.39c1.13,-2.88 0.62,-2.65 0.28,-3.14z"/>
   <g>
    <circle class="fil0" cx="190.18" cy="268.39" r="46.81"/>
    <path class="fil3" d="M194.32 243.51c3.01,-1.85 6.42,-3.16 10.13,-3.75 15.08,-2.43 29.28,7.83 31.71,22.92 2.42,15.09 -7.84,29.29 -22.93,31.71 -15.09,2.43 -29.28,-7.84 -31.71,-22.92 -1.15,-7.16 0.56,-14.12 4.28,-19.72l14.8 7.98 -6.28 -16.22z"/>
   </g>
   <path class="fil2" d="M355.49 286.48c-5.4,10.02 -7.91,13.9 -16.01,19.74 -6.92,4.98 -16.39,8.73 -27.19,8.72 -10.83,-0.01 -20.27,-3.71 -27.23,-8.72 -8.08,-5.83 -10.62,-9.72 -16.01,-19.74 0,0.01 -1.03,-0.43 0.09,2.69 0.35,0.96 1.01,2.41 1.51,3.42 12.9,26.41 48.11,34.26 70.03,16.09 4.34,-3.6 5.91,-5.06 9.29,-9.67l5.24 -9.39c1.13,-2.88 0.63,-2.65 0.28,-3.14z"/>
   <g>
    <circle class="fil0" cx="312.21" cy="268.39" r="46.81"/>
    <path class="fil3" d="M316.35 243.51c3,-1.85 6.42,-3.16 10.12,-3.75 15.09,-2.43 29.29,7.83 31.72,22.92 2.42,15.09 -7.84,29.29 -22.93,31.71 -15.09,2.43 -29.29,-7.84 -31.71,-22.92 -1.15,-7.16 0.55,-14.12 4.28,-19.72l14.8 7.98 -6.28 -16.22z"/>
   </g>
  </g>
 </g>
</svg>
