<?xml version="1.0" encoding="UTF-8"?>
<!DOCTYPE svg PUBLIC "-//W3C//DTD SVG 1.1//EN" "http://www.w3.org/Graphics/SVG/1.1/DTD/svg11.dtd">
<!-- Creator: CorelDRAW 2017 -->
<svg xmlns="http://www.w3.org/2000/svg" xml:space="preserve" width="500px" height="500px" version="1.1" style="shape-rendering:geometricPrecision; text-rendering:geometricPrecision; image-rendering:optimizeQuality; fill-rule:evenodd; clip-rule:evenodd"
viewBox="0 0 500 500"
 xmlns:xlink="http://www.w3.org/1999/xlink">
 <defs>
  <style type="text/css">
   <![CDATA[
    .str0 {stroke:#2B2A29;stroke-width:2.36;stroke-miterlimit:22.9256}
    .fil47 {fill:none}
    .fil45 {fill:#898989}
    .fil43 {fill:black}
    .fil51 {fill:#0069B1}
    .fil46 {fill:#121212}
    .fil0 {fill:#13D0F3}
    .fil49 {fill:#186901}
    .fil42 {fill:#575757}
    .fil50 {fill:#599613}
    .fil1 {fill:#6D6D6D}
    .fil48 {fill:#82F303}
    .fil2 {fill:#848484}
    .fil12 {fill:#8C8C8C}
    .fil11 {fill:#979797}
    .fil3 {fill:#9A9A9A}
    .fil13 {fill:#9E9E9E}
    .fil10 {fill:#ACACAC}
    .fil41 {fill:#ADADAD}
    .fil14 {fill:#B1B1B1}
    .fil4 {fill:#B3B3B3}
    .fil40 {fill:#BABABA}
    .fil32 {fill:#BDBDBD}
    .fil23 {fill:#BEBEBE}
    .fil24 {fill:silver}
    .fil9 {fill:#C1C1C1}
    .fil33 {fill:#C2C2C2}
    .fil15 {fill:#C4C4C4}
    .fil39 {fill:#C7C7C7}
    .fil22 {fill:#C9C9C9}
    .fil31 {fill:#CACACA}
    .fil25 {fill:#CDCDCD}
    .fil5 {fill:lightgrey}
    .fil21 {fill:#D4D4D4}
    .fil16 {fill:#D7D7D7}
    .fil8 {fill:#D8D8D8}
    .fil26 {fill:#DADADA}
    .fil20 {fill:#DFDFDF}
    .fil38 {fill:#E0E0E0}
    .fil34 {fill:#E3E3E3}
    .fil30 {fill:#E4E4E4}
    .fil27 {fill:#E7E7E7}
    .fil17 {fill:#EAEAEA}
    .fil35 {fill:#EDEDED}
    .fil7 {fill:#F0F0F0}
    .fil29 {fill:#F1F1F1}
    .fil6 {fill:#F3F3F3}
    .fil28 {fill:#F4F4F4}
    .fil19 {fill:whitesmoke}
    .fil36 {fill:#F8F8F8}
    .fil37 {fill:#FAFAFA}
    .fil18 {fill:#FDFDFD}
    .fil44 {fill:#525252;fill-rule:nonzero}
    .fil52 {fill:url(#id1)}
    .fil53 {fill:url(#id2)}
   ]]>
  </style>
    <clipPath id="id0">
     <path d="M454.53 250c0,-112.96 -91.57,-204.53 -204.53,-204.53 -112.96,0 -204.53,91.57 -204.53,204.53 0,112.96 91.57,204.53 204.53,204.53 112.96,0 204.53,-91.57 204.53,-204.53z"/>
    </clipPath>
  <radialGradient id="id1" gradientUnits="userSpaceOnUse" gradientTransform="matrix(1.74863 -0 -0 1.85184 -192 -303)" cx="256.04" cy="355.47" r="44.86" fx="256.04" fy="355.47">
   <stop offset="0" style="stop-opacity:1; stop-color:#FEFEFE"/>
   <stop offset="0.419608" style="stop-opacity:1; stop-color:#88E7F8"/>
   <stop offset="1" style="stop-opacity:1; stop-color:#13D0F3"/>
  </radialGradient>
  <radialGradient id="id2" gradientUnits="userSpaceOnUse" gradientTransform="matrix(1.60448 -0 -0 1.92309 -153 -112)" cx="252.77" cy="121.67" r="49.74" fx="252.77" fy="121.67">
   <stop offset="0" style="stop-opacity:1; stop-color:#FEFEFE"/>
   <stop offset="1" style="stop-opacity:1; stop-color:#82F303"/>
  </radialGradient>
 </defs>
 <g id="Слой_x0020_1">
  <metadata id="CorelCorpID_0Corel-Layer"/>
  <circle class="fil0" cx="250" cy="250" r="241.99"/>
  <g>
   <g style="clip-path:url(#id0)">
    <polygon class="fil1" points="250,250 -39.54,245.36 -37.76,217.58 "/>
    <polygon id="1" class="fil2" points="250,250 -38.05,222.21 -35.09,199.21 "/>
    <polygon id="2" class="fil3" points="250,250 -35.68,203.81 -31.25,181.05 "/>
    <polygon id="3" class="fil4" points="250,250 -32.14,185.6 -26.25,163.17 "/>
    <polygon id="4" class="fil5" points="250,250 -27.43,167.66 -20.12,145.65 "/>
    <polygon id="5" class="fil6" points="250,250 -21.58,150.05 -12.88,128.56 "/>
    <polygon id="6" class="fil7" points="250,250 -14.62,132.86 -4.56,111.96 "/>
    <polygon id="7" class="fil8" points="250,250 -6.57,116.15 4.81,95.94 "/>
    <polygon id="8" class="fil9" points="250,250 2.53,99.98 15.18,80.54 "/>
    <polygon id="9" class="fil10" points="250,250 12.65,84.43 26.52,65.85 "/>
    <polygon id="10" class="fil11" points="250,250 23.74,69.57 38.78,51.91 "/>
    <polygon id="11" class="fil12" points="250,250 35.77,55.44 51.91,38.78 "/>
    <polygon id="12" class="fil13" points="250,250 48.68,42.12 65.85,26.52 "/>
    <polygon id="13" class="fil14" points="250,250 62.41,29.64 80.54,15.18 "/>
    <polygon id="14" class="fil15" points="250,250 76.91,18.08 95.94,4.81 "/>
    <polygon id="15" class="fil16" points="250,250 92.13,7.46 111.96,-4.56 "/>
    <polygon id="16" class="fil17" points="250,250 107.99,-2.15 128.56,-12.88 "/>
    <polygon id="17" class="fil18" points="250,250 124.44,-10.73 145.65,-20.12 "/>
    <polygon id="18" class="fil19" points="250,250 141.4,-18.24 163.17,-26.25 "/>
    <polygon id="19" class="fil17" points="250,250 158.81,-24.65 181.05,-31.25 "/>
    <polygon id="20" class="fil20" points="250,250 176.59,-29.93 199.21,-35.09 "/>
    <polygon id="21" class="fil21" points="250,250 194.68,-34.05 217.58,-37.76 "/>
    <polygon id="22" class="fil22" points="250,250 212.99,-37.01 236.08,-39.24 "/>
    <polygon id="23" class="fil23" points="250,250 231.46,-38.8 254.64,-39.54 "/>
    <polygon id="24" class="fil4" points="250,250 250,-39.39 273.18,-38.65 "/>
    <polygon id="25" class="fil24" points="250,250 268.54,-38.8 291.63,-36.57 "/>
    <polygon id="26" class="fil25" points="250,250 287.01,-37.01 309.9,-33.31 "/>
    <polygon id="27" class="fil26" points="250,250 305.32,-34.05 327.93,-28.89 "/>
    <polygon id="28" class="fil27" points="250,250 323.41,-29.93 345.64,-23.33 "/>
    <polygon id="29" class="fil28" points="250,250 341.19,-24.65 362.96,-16.64 "/>
    <polygon id="30" class="fil18" points="250,250 358.6,-18.24 379.81,-8.85 "/>
    <polygon id="31" class="fil29" points="250,250 375.56,-10.73 396.13,0 "/>
    <polygon id="32" class="fil30" points="250,250 392.01,-2.15 411.84,9.87 "/>
    <polygon id="33" class="fil16" points="250,250 407.87,7.46 426.9,20.74 "/>
    <polygon id="34" class="fil31" points="250,250 423.09,18.08 441.22,32.54 "/>
    <polygon id="35" class="fil32" points="250,250 437.59,29.64 454.76,45.24 "/>
    <polygon id="36" class="fil33" points="250,250 451.32,42.12 467.46,58.78 "/>
    <polygon id="37" class="fil25" points="250,250 464.23,55.44 479.26,73.1 "/>
    <polygon id="38" class="fil8" points="250,250 476.26,69.57 490.13,88.16 "/>
    <polygon id="39" class="fil34" points="250,250 487.35,84.43 500,103.87 "/>
    <polygon id="40" class="fil35" points="250,250 497.47,99.98 508.85,120.19 "/>
    <polygon id="41" class="fil36" points="250,250 506.57,116.15 516.64,137.04 "/>
    <polygon id="42" class="fil37" points="250,250 514.62,132.86 523.33,154.36 "/>
    <polygon id="43" class="fil35" points="250,250 521.58,150.05 528.89,172.07 "/>
    <polygon id="44" class="fil38" points="250,250 527.43,167.66 533.31,190.1 "/>
    <polygon id="45" class="fil21" points="250,250 532.14,185.6 536.57,208.37 "/>
    <polygon id="46" class="fil39" points="250,250 535.68,203.81 538.65,226.82 "/>
    <polygon id="47" class="fil40" points="250,250 538.05,222.21 539.54,245.36 "/>
    <polygon id="48" class="fil41" points="250,250 539.24,240.72 539.24,263.92 "/>
    <polygon id="49" class="fil40" points="250,250 539.24,259.28 537.76,282.42 "/>
    <polygon id="50" class="fil39" points="250,250 538.05,277.79 535.09,300.79 "/>
    <polygon id="51" class="fil21" points="250,250 535.68,296.19 531.25,318.95 "/>
    <polygon id="52" class="fil38" points="250,250 532.14,314.4 526.25,336.83 "/>
    <polygon id="53" class="fil35" points="250,250 527.43,332.34 520.12,354.35 "/>
    <polygon id="54" class="fil37" points="250,250 521.58,349.95 512.88,371.44 "/>
    <polygon id="55" class="fil36" points="250,250 514.62,367.14 504.56,388.04 "/>
    <polygon id="56" class="fil35" points="250,250 506.57,383.85 495.19,404.06 "/>
    <polygon id="57" class="fil34" points="250,250 497.47,400.02 484.82,419.46 "/>
    <polygon id="58" class="fil8" points="250,250 487.35,415.57 473.48,434.15 "/>
    <polygon id="59" class="fil25" points="250,250 476.26,430.43 461.22,448.09 "/>
    <polygon id="60" class="fil33" points="250,250 464.23,444.56 448.09,461.22 "/>
    <polygon id="61" class="fil32" points="250,250 451.32,457.88 434.15,473.48 "/>
    <polygon id="62" class="fil31" points="250,250 437.59,470.36 419.46,484.82 "/>
    <polygon id="63" class="fil16" points="250,250 423.09,481.92 404.06,495.19 "/>
    <polygon id="64" class="fil30" points="250,250 407.87,492.54 388.04,504.56 "/>
    <polygon id="65" class="fil29" points="250,250 392.01,502.15 371.44,512.88 "/>
    <polygon id="66" class="fil18" points="250,250 375.56,510.73 354.35,520.12 "/>
    <polygon id="67" class="fil28" points="250,250 358.6,518.24 336.83,526.25 "/>
    <polygon id="68" class="fil27" points="250,250 341.19,524.65 318.95,531.25 "/>
    <polygon id="69" class="fil26" points="250,250 323.41,529.93 300.79,535.09 "/>
    <polygon id="70" class="fil25" points="250,250 305.32,534.05 282.42,537.76 "/>
    <polygon id="71" class="fil24" points="250,250 287.01,537.01 263.92,539.24 "/>
    <polygon id="72" class="fil4" points="250,250 268.54,538.8 245.36,539.54 "/>
    <polygon id="73" class="fil23" points="250,250 250,539.39 226.82,538.65 "/>
    <polygon id="74" class="fil22" points="250,250 231.46,538.8 208.37,536.57 "/>
    <polygon id="75" class="fil21" points="250,250 212.99,537.01 190.1,533.31 "/>
    <polygon id="76" class="fil20" points="250,250 194.68,534.05 172.07,528.89 "/>
    <polygon id="77" class="fil17" points="250,250 176.59,529.93 154.36,523.33 "/>
    <polygon id="78" class="fil19" points="250,250 158.81,524.65 137.04,516.64 "/>
    <polygon id="79" class="fil18" points="250,250 141.4,518.24 120.19,508.85 "/>
    <polygon id="80" class="fil17" points="250,250 124.44,510.73 103.87,500 "/>
    <polygon id="81" class="fil16" points="250,250 107.99,502.15 88.16,490.13 "/>
    <polygon id="82" class="fil15" points="250,250 92.13,492.54 73.1,479.26 "/>
    <polygon id="83" class="fil14" points="250,250 76.91,481.92 58.78,467.46 "/>
    <polygon id="84" class="fil13" points="250,250 62.41,470.36 45.24,454.76 "/>
    <polygon id="85" class="fil12" points="250,250 48.68,457.88 32.54,441.22 "/>
    <polygon id="86" class="fil11" points="250,250 35.77,444.56 20.74,426.9 "/>
    <polygon id="87" class="fil10" points="250,250 23.74,430.43 9.87,411.84 "/>
    <polygon id="88" class="fil9" points="250,250 12.65,415.57 0,396.13 "/>
    <polygon id="89" class="fil8" points="250,250 2.53,400.02 -8.85,379.81 "/>
    <polygon id="90" class="fil7" points="250,250 -6.57,383.85 -16.64,362.96 "/>
    <polygon id="91" class="fil6" points="250,250 -14.62,367.14 -23.33,345.64 "/>
    <polygon id="92" class="fil5" points="250,250 -21.58,349.95 -28.89,327.93 "/>
    <polygon id="93" class="fil4" points="250,250 -27.43,332.34 -33.31,309.9 "/>
    <polygon id="94" class="fil3" points="250,250 -32.14,314.4 -36.57,291.63 "/>
    <polygon id="95" class="fil2" points="250,250 -35.68,296.19 -38.65,273.18 "/>
    <polygon id="96" class="fil1" points="250,250 -38.05,277.79 -39.54,254.64 "/>
    <polygon id="97" class="fil42" points="250,250 -39.24,259.28 -39.24,240.72 "/>
   </g>
  </g>
  <circle class="fil43 str0" transform="matrix(0.377774 0.419175 -0.419175 0.377774 250.803 249.892)" r="53.5"/>
  <g>
   <path class="fil44" d="M249.8 191.71l0.4 -1.85 0 0 3.09 0.08 3.04 0.23 3 0.38 2.95 0.53 2.9 0.67 2.84 0.81 2.79 0.94 2.71 1.07 2.65 1.2 2.58 1.32 2.51 1.44 2.43 1.55 2.34 1.67 2.26 1.78 2.17 1.88 2.08 1.98 1.98 2.08 1.88 2.17 1.78 2.26 1.67 2.35 1.55 2.42 1.45 2.51 1.32 2.59 1.2 2.65 1.07 2.72 0.94 2.79 0.81 2.84 0.67 2.91 0.53 2.95 0.38 3.01 0.23 3.05 0.08 3.09 -1.73 0.44 -0.08 -3 -0.23 -2.97 -0.37 -2.92 -0.51 -2.87 -0.65 -2.83 -0.79 -2.77 -0.92 -2.72 -1.05 -2.66 -1.17 -2.59 -1.29 -2.52 -1.41 -2.45 -1.52 -2.38 -1.64 -2.3 -1.74 -2.21 -1.84 -2.12 -1.94 -2.04 -2.03 -1.94 -2.13 -1.84 -2.22 -1.74 -2.29 -1.64 -2.38 -1.52 -2.45 -1.41 -2.53 -1.3 -2.6 -1.17 -2.66 -1.05 -2.72 -0.92 -2.77 -0.79 -2.84 -0.65 -2.88 -0.52 -2.93 -0.37 -2.97 -0.22 -3 -0.08 0 0zm-58.15 58.07l-1.73 0.44 0 0 0.08 -3.1 0.23 -3.05 0.38 -3.02 0.53 -2.97 0.68 -2.91 0.81 -2.87 0.95 -2.8 1.08 -2.75 1.21 -2.67 1.34 -2.61 1.45 -2.53 1.58 -2.46 1.68 -2.37 1.8 -2.29 1.9 -2.19 2 -2.1 2.1 -2 2.19 -1.9 2.29 -1.8 2.36 -1.68 2.45 -1.57 2.53 -1.45 2.6 -1.33 2.67 -1.21 2.73 -1.08 2.8 -0.94 2.86 -0.82 2.91 -0.67 2.95 -0.53 3.01 -0.38 3.05 -0.23 3.08 -0.08 -0.4 1.85 -3.01 0.08 -2.97 0.22 -2.92 0.37 -2.87 0.52 -2.82 0.65 -2.77 0.78 -2.7 0.92 -2.65 1.04 -2.57 1.16 -2.51 1.29 -2.43 1.4 -2.36 1.51 -2.27 1.62 -2.19 1.72 -2.11 1.82 -2.01 1.92 -1.92 2.01 -1.82 2.1 -1.72 2.19 -1.62 2.27 -1.5 2.36 -1.4 2.42 -1.28 2.5 -1.16 2.57 -1.04 2.63 -0.91 2.7 -0.78 2.76 -0.65 2.81 -0.51 2.86 -0.37 2.92 -0.23 2.95 -0.08 3 0 0zm58.55 58.51l-0.4 1.85 0 0 -3.09 -0.08 -3.04 -0.23 -3 -0.38 -2.95 -0.53 -2.9 -0.67 -2.84 -0.81 -2.79 -0.94 -2.71 -1.07 -2.65 -1.2 -2.58 -1.32 -2.51 -1.44 -2.43 -1.55 -2.34 -1.67 -2.26 -1.78 -2.17 -1.88 -2.08 -1.98 -1.98 -2.08 -1.88 -2.17 -1.78 -2.26 -1.67 -2.35 -1.55 -2.42 -1.45 -2.51 -1.32 -2.59 -1.2 -2.65 -1.07 -2.72 -0.94 -2.79 -0.81 -2.84 -0.67 -2.91 -0.53 -2.95 -0.38 -3.01 -0.23 -3.05 -0.08 -3.09 1.73 -0.44 0.08 3 0.23 2.97 0.37 2.92 0.51 2.87 0.65 2.83 0.79 2.77 0.92 2.72 1.05 2.66 1.17 2.59 1.29 2.52 1.41 2.45 1.52 2.38 1.64 2.3 1.74 2.21 1.84 2.12 1.94 2.04 2.03 1.94 2.13 1.84 2.22 1.74 2.29 1.64 2.38 1.52 2.45 1.41 2.53 1.3 2.6 1.17 2.66 1.05 2.72 0.92 2.77 0.79 2.84 0.65 2.88 0.52 2.93 0.37 2.97 0.22 3 0.08 0 0zm58.15 -58.07l1.73 -0.44 0 0 -0.08 3.1 -0.23 3.05 -0.38 3.02 -0.53 2.97 -0.68 2.91 -0.81 2.87 -0.95 2.8 -1.08 2.75 -1.21 2.67 -1.34 2.61 -1.45 2.53 -1.58 2.46 -1.68 2.37 -1.8 2.29 -1.9 2.19 -2 2.1 -2.1 2 -2.19 1.9 -2.29 1.8 -2.36 1.68 -2.45 1.57 -2.53 1.45 -2.6 1.33 -2.67 1.21 -2.73 1.08 -2.8 0.94 -2.86 0.82 -2.91 0.67 -2.95 0.53 -3.01 0.38 -3.05 0.23 -3.08 0.08 0.4 -1.85 3.01 -0.08 2.97 -0.22 2.92 -0.37 2.87 -0.52 2.82 -0.65 2.77 -0.78 2.7 -0.92 2.65 -1.04 2.57 -1.16 2.51 -1.29 2.43 -1.4 2.36 -1.51 2.27 -1.62 2.19 -1.72 2.11 -1.82 2.01 -1.92 1.92 -2.01 1.82 -2.1 1.72 -2.19 1.62 -2.27 1.5 -2.36 1.4 -2.42 1.28 -2.5 1.16 -2.57 1.04 -2.63 0.91 -2.7 0.78 -2.76 0.65 -2.81 0.51 -2.86 0.37 -2.92 0.23 -2.95 0.08 -3 0 0z"/>
  </g>
  <g>
   <path class="fil44" d="M249.8 155.52l0.4 -1.85 0 0 4.95 0.12 4.88 0.38 4.82 0.61 4.73 0.84 4.65 1.07 4.56 1.3 4.46 1.51 4.36 1.72 4.26 1.92 4.14 2.12 4.02 2.32 3.89 2.49 3.77 2.68 3.62 2.85 3.49 3.02 3.33 3.18 3.18 3.33 3.02 3.49 2.85 3.62 2.68 3.77 2.5 3.9 2.31 4.02 2.12 4.14 1.93 4.26 1.72 4.37 1.51 4.46 1.3 4.57 1.07 4.65 0.85 4.74 0.61 4.82 0.37 4.89 0.13 4.95 -1.74 0.44 -0.12 -4.87 -0.37 -4.8 -0.6 -4.73 -0.83 -4.66 -1.06 -4.58 -1.27 -4.49 -1.49 -4.39 -1.7 -4.3 -1.89 -4.2 -2.1 -4.08 -2.28 -3.97 -2.46 -3.85 -2.64 -3.71 -2.82 -3.58 -2.98 -3.44 -3.13 -3.29 -3.3 -3.14 -3.44 -2.98 -3.58 -2.82 -3.72 -2.64 -3.84 -2.46 -3.97 -2.29 -4.09 -2.09 -4.2 -1.9 -4.3 -1.69 -4.4 -1.49 -4.5 -1.28 -4.58 -1.06 -4.67 -0.83 -4.74 -0.6 -4.8 -0.37 -4.87 -0.12 0 0zm-94.34 94.26l-1.74 0.44 0 0 0.13 -4.96 0.37 -4.89 0.62 -4.83 0.84 -4.75 1.08 -4.67 1.3 -4.58 1.52 -4.49 1.73 -4.39 1.94 -4.28 2.13 -4.16 2.33 -4.05 2.51 -3.92 2.7 -3.8 2.87 -3.65 3.04 -3.51 3.2 -3.35 3.36 -3.2 3.5 -3.04 3.65 -2.87 3.79 -2.69 3.92 -2.51 4.04 -2.33 4.16 -2.13 4.27 -1.93 4.38 -1.73 4.48 -1.51 4.57 -1.3 4.66 -1.08 4.74 -0.84 4.82 -0.61 4.89 -0.38 4.94 -0.12 -0.4 1.85 -4.88 0.12 -4.8 0.37 -4.73 0.6 -4.66 0.83 -4.57 1.05 -4.48 1.28 -4.39 1.48 -4.28 1.69 -4.18 1.89 -4.07 2.08 -3.95 2.27 -3.82 2.45 -3.7 2.63 -3.56 2.8 -3.41 2.96 -3.27 3.12 -3.12 3.27 -2.96 3.41 -2.79 3.56 -2.63 3.69 -2.45 3.82 -2.26 3.94 -2.08 4.06 -1.89 4.17 -1.69 4.28 -1.48 4.38 -1.27 4.47 -1.05 4.57 -0.83 4.64 -0.6 4.72 -0.37 4.8 -0.12 4.86 0 0zm94.74 94.7l-0.4 1.85 0 0 -4.95 -0.12 -4.88 -0.37 -4.82 -0.62 -4.73 -0.84 -4.65 -1.07 -4.56 -1.3 -4.46 -1.51 -4.36 -1.72 -4.25 -1.92 -4.15 -2.12 -4.02 -2.31 -3.89 -2.5 -3.77 -2.68 -3.62 -2.85 -3.49 -3.02 -3.33 -3.18 -3.18 -3.33 -3.02 -3.48 -2.85 -3.63 -2.68 -3.77 -2.5 -3.9 -2.31 -4.02 -2.12 -4.14 -1.93 -4.26 -1.72 -4.37 -1.51 -4.46 -1.3 -4.57 -1.07 -4.65 -0.85 -4.74 -0.61 -4.82 -0.37 -4.89 -0.13 -4.95 1.74 -0.44 0.12 4.87 0.37 4.8 0.6 4.73 0.83 4.66 1.06 4.58 1.27 4.49 1.49 4.4 1.7 4.29 1.9 4.2 2.09 4.08 2.28 3.97 2.46 3.85 2.64 3.71 2.82 3.58 2.98 3.44 3.13 3.29 3.3 3.14 3.44 2.98 3.58 2.82 3.72 2.64 3.84 2.47 3.97 2.28 4.09 2.09 4.2 1.9 4.3 1.7 4.4 1.49 4.5 1.27 4.58 1.06 4.67 0.83 4.74 0.61 4.8 0.36 4.87 0.12 0 0zm94.34 -94.26l1.74 -0.44 0 0 -0.13 4.96 -0.37 4.89 -0.61 4.83 -0.85 4.75 -1.08 4.67 -1.3 4.58 -1.52 4.49 -1.73 4.39 -1.94 4.28 -2.13 4.16 -2.33 4.05 -2.51 3.92 -2.7 3.8 -2.87 3.65 -3.04 3.51 -3.2 3.35 -3.35 3.2 -3.51 3.04 -3.65 2.87 -3.79 2.69 -3.91 2.51 -4.05 2.33 -4.16 2.13 -4.27 1.93 -4.38 1.73 -4.48 1.51 -4.57 1.3 -4.66 1.08 -4.74 0.84 -4.82 0.62 -4.89 0.37 -4.94 0.12 0.4 -1.85 4.88 -0.12 4.8 -0.36 4.73 -0.61 4.66 -0.83 4.57 -1.05 4.48 -1.27 4.39 -1.49 4.29 -1.69 4.17 -1.89 4.07 -2.08 3.95 -2.27 3.82 -2.45 3.7 -2.63 3.56 -2.8 3.42 -2.96 3.26 -3.12 3.12 -3.27 2.96 -3.41 2.8 -3.56 2.62 -3.69 2.45 -3.82 2.27 -3.94 2.08 -4.06 1.88 -4.17 1.69 -4.28 1.48 -4.38 1.27 -4.47 1.05 -4.56 0.83 -4.65 0.6 -4.72 0.37 -4.8 0.12 -4.86 0 0z"/>
  </g>
  <g>
   <path class="fil44" d="M249.8 171.11l0.4 -1.85 0 0 4.15 0.11 4.09 0.31 4.03 0.51 3.97 0.71 3.89 0.9 3.82 1.08 3.74 1.27 3.65 1.44 3.56 1.61 3.47 1.77 3.37 1.94 3.26 2.09 3.16 2.25 3.04 2.38 2.91 2.53 2.8 2.66 2.66 2.8 2.53 2.91 2.39 3.04 2.24 3.16 2.09 3.26 1.94 3.37 1.78 3.47 1.61 3.57 1.44 3.66 1.27 3.74 1.08 3.82 0.9 3.9 0.71 3.97 0.52 4.04 0.31 4.1 0.1 4.15 -1.73 0.44 -0.11 -4.06 -0.3 -4.01 -0.5 -3.95 -0.7 -3.89 -0.88 -3.83 -1.07 -3.75 -1.24 -3.67 -1.42 -3.59 -1.58 -3.51 -1.75 -3.41 -1.9 -3.31 -2.06 -3.22 -2.21 -3.1 -2.35 -2.99 -2.49 -2.88 -2.62 -2.75 -2.75 -2.62 -2.88 -2.49 -2.99 -2.35 -3.1 -2.21 -3.22 -2.06 -3.31 -1.9 -3.42 -1.75 -3.51 -1.59 -3.59 -1.42 -3.68 -1.24 -3.76 -1.07 -3.82 -0.88 -3.9 -0.7 -3.96 -0.5 -4.02 -0.31 -4.06 -0.1 0 0zm-78.75 78.67l-1.73 0.44 0 0 0.1 -4.16 0.32 -4.1 0.51 -4.05 0.71 -3.98 0.9 -3.91 1.1 -3.84 1.27 -3.77 1.45 -3.68 1.62 -3.59 1.79 -3.49 1.95 -3.4 2.11 -3.29 2.26 -3.18 2.41 -3.06 2.55 -2.94 2.68 -2.82 2.82 -2.68 2.94 -2.55 3.06 -2.4 3.18 -2.26 3.28 -2.11 3.39 -1.95 3.49 -1.78 3.58 -1.62 3.67 -1.45 3.76 -1.27 3.83 -1.09 3.9 -0.9 3.98 -0.71 4.03 -0.51 4.1 -0.31 4.14 -0.11 -0.4 1.85 -4.07 0.1 -4.01 0.31 -3.96 0.5 -3.88 0.7 -3.82 0.88 -3.74 1.06 -3.67 1.24 -3.57 1.41 -3.49 1.58 -3.4 1.74 -3.29 1.89 -3.2 2.05 -3.08 2.19 -2.97 2.33 -2.85 2.47 -2.73 2.6 -2.6 2.73 -2.47 2.85 -2.33 2.97 -2.19 3.08 -2.04 3.18 -1.89 3.29 -1.74 3.39 -1.57 3.48 -1.41 3.57 -1.24 3.66 -1.06 3.73 -0.87 3.81 -0.7 3.88 -0.5 3.94 -0.3 4 -0.11 4.06 0 0zm79.15 79.11l-0.4 1.85 0 0 -4.15 -0.11 -4.09 -0.31 -4.03 -0.51 -3.97 -0.71 -3.89 -0.9 -3.82 -1.08 -3.74 -1.27 -3.65 -1.44 -3.56 -1.61 -3.47 -1.77 -3.37 -1.94 -3.26 -2.09 -3.16 -2.24 -3.03 -2.39 -2.92 -2.53 -2.8 -2.66 -2.66 -2.8 -2.53 -2.91 -2.38 -3.04 -2.25 -3.16 -2.09 -3.26 -1.94 -3.37 -1.78 -3.47 -1.61 -3.57 -1.44 -3.66 -1.27 -3.74 -1.08 -3.82 -0.9 -3.9 -0.71 -3.97 -0.51 -4.04 -0.32 -4.1 -0.1 -4.15 1.73 -0.44 0.11 4.06 0.3 4.01 0.51 3.95 0.69 3.89 0.88 3.83 1.07 3.75 1.24 3.67 1.42 3.6 1.58 3.5 1.75 3.41 1.9 3.32 2.06 3.21 2.21 3.1 2.35 2.99 2.49 2.88 2.62 2.75 2.75 2.62 2.88 2.49 2.99 2.35 3.1 2.21 3.22 2.06 3.32 1.91 3.41 1.74 3.51 1.59 3.59 1.42 3.68 1.24 3.76 1.07 3.82 0.88 3.9 0.7 3.96 0.5 4.02 0.31 4.06 0.1 0 0zm78.75 -78.67l1.73 -0.44 0 0 -0.1 4.16 -0.31 4.1 -0.52 4.05 -0.71 3.98 -0.9 3.91 -1.09 3.84 -1.28 3.77 -1.45 3.68 -1.62 3.59 -1.79 3.49 -1.95 3.4 -2.11 3.29 -2.26 3.18 -2.41 3.06 -2.55 2.94 -2.68 2.82 -2.82 2.68 -2.94 2.55 -3.06 2.4 -3.18 2.26 -3.28 2.11 -3.39 1.95 -3.49 1.78 -3.58 1.62 -3.67 1.45 -3.75 1.27 -3.84 1.09 -3.9 0.9 -3.98 0.71 -4.03 0.51 -4.1 0.31 -4.14 0.11 0.4 -1.85 4.07 -0.1 4.01 -0.31 3.96 -0.5 3.88 -0.69 3.82 -0.88 3.74 -1.07 3.67 -1.24 3.58 -1.41 3.48 -1.58 3.4 -1.73 3.29 -1.9 3.2 -2.04 3.08 -2.2 2.97 -2.33 2.85 -2.47 2.73 -2.6 2.6 -2.73 2.47 -2.85 2.33 -2.97 2.19 -3.08 2.04 -3.18 1.89 -3.29 1.74 -3.39 1.57 -3.48 1.41 -3.57 1.24 -3.66 1.06 -3.73 0.88 -3.81 0.69 -3.88 0.5 -3.94 0.3 -4 0.11 -4.06 0 0z"/>
  </g>
  <g>
   <path class="fil44" d="M249.49 140.35l1.02 -4.62 0 0 5.86 0.15 5.78 0.44 5.69 0.72 5.6 1 5.5 1.27 5.39 1.53 5.28 1.79 5.15 2.03 5.03 2.28 4.9 2.5 4.75 2.74 4.6 2.95 4.45 3.16 4.29 3.37 4.12 3.57 3.94 3.75 3.76 3.95 3.56 4.12 3.37 4.28 3.17 4.46 2.95 4.6 2.74 4.76 2.51 4.9 2.28 5.04 2.03 5.17 1.79 5.28 1.54 5.41 1.27 5.51 1 5.61 0.73 5.71 0.44 5.8 0.15 5.88 -4.34 1.08 -0.15 -5.64 -0.42 -5.58 -0.7 -5.49 -0.97 -5.42 -1.22 -5.32 -1.49 -5.22 -1.73 -5.11 -1.97 -5.01 -2.21 -4.88 -2.43 -4.75 -2.66 -4.62 -2.87 -4.48 -3.07 -4.32 -3.28 -4.17 -3.47 -4.01 -3.66 -3.83 -3.83 -3.66 -4.01 -3.47 -4.17 -3.28 -4.33 -3.08 -4.48 -2.87 -4.63 -2.66 -4.76 -2.44 -4.89 -2.21 -5.01 -1.97 -5.12 -1.74 -5.24 -1.49 -5.33 -1.23 -5.43 -0.97 -5.51 -0.7 -5.6 -0.42 -5.66 -0.15 0 0zm-109.27 109.11l-4.35 1.08 0 0 0.15 -5.88 0.44 -5.81 0.73 -5.73 1.01 -5.64 1.28 -5.55 1.55 -5.45 1.8 -5.33 2.06 -5.23 2.31 -5.09 2.54 -4.96 2.77 -4.82 2.99 -4.67 3.21 -4.52 3.42 -4.35 3.62 -4.18 3.81 -3.99 4 -3.81 4.17 -3.62 4.35 -3.41 4.5 -3.21 4.66 -2.98 4.8 -2.77 4.95 -2.53 5.08 -2.29 5.2 -2.05 5.31 -1.8 5.43 -1.54 5.53 -1.28 5.62 -1 5.7 -0.73 5.79 -0.44 5.86 -0.15 -1.02 4.62 -5.66 0.15 -5.59 0.42 -5.49 0.7 -5.41 0.97 -5.31 1.22 -5.2 1.48 -5.08 1.72 -4.97 1.96 -4.85 2.19 -4.7 2.41 -4.58 2.63 -4.42 2.84 -4.28 3.03 -4.11 3.24 -3.95 3.42 -3.78 3.6 -3.6 3.78 -3.42 3.95 -3.23 4.11 -3.03 4.26 -2.83 4.42 -2.62 4.55 -2.41 4.7 -2.18 4.82 -1.95 4.95 -1.71 5.06 -1.47 5.18 -1.22 5.28 -0.96 5.39 -0.7 5.47 -0.42 5.56 -0.14 5.65 0 0zm110.29 110.19l-1.02 4.62 0 0 -5.86 -0.15 -5.78 -0.44 -5.69 -0.72 -5.6 -1 -5.5 -1.27 -5.39 -1.53 -5.27 -1.79 -5.16 -2.03 -5.03 -2.28 -4.9 -2.5 -4.75 -2.73 -4.6 -2.96 -4.45 -3.16 -4.29 -3.37 -4.12 -3.57 -3.94 -3.75 -3.75 -3.94 -3.57 -4.12 -3.37 -4.29 -3.17 -4.45 -2.95 -4.61 -2.74 -4.76 -2.51 -4.9 -2.28 -5.04 -2.03 -5.16 -1.79 -5.29 -1.54 -5.41 -1.27 -5.51 -1 -5.61 -0.73 -5.71 -0.44 -5.8 -0.15 -5.88 4.35 -1.08 0.14 5.64 0.42 5.58 0.7 5.49 0.97 5.42 1.22 5.32 1.49 5.22 1.73 5.11 1.97 5.01 2.21 4.88 2.43 4.75 2.66 4.62 2.87 4.48 3.07 4.32 3.28 4.17 3.47 4.01 3.66 3.84 3.83 3.65 4.01 3.47 4.17 3.28 4.33 3.08 4.48 2.87 4.63 2.66 4.76 2.44 4.89 2.21 5.01 1.98 5.12 1.73 5.24 1.49 5.33 1.23 5.43 0.97 5.51 0.7 5.6 0.42 5.66 0.15 0 0zm109.28 -109.11l4.34 -1.08 0 0 -0.15 5.88 -0.44 5.81 -0.73 5.73 -1.01 5.64 -1.28 5.55 -1.55 5.45 -1.8 5.34 -2.06 5.22 -2.3 5.09 -2.55 4.96 -2.77 4.82 -2.99 4.68 -3.21 4.51 -3.42 4.35 -3.62 4.18 -3.81 3.99 -4 3.82 -4.17 3.61 -4.35 3.41 -4.5 3.21 -4.66 2.98 -4.8 2.77 -4.95 2.53 -5.08 2.29 -5.2 2.06 -5.31 1.79 -5.43 1.54 -5.53 1.28 -5.62 1 -5.7 0.73 -5.79 0.44 -5.86 0.15 1.02 -4.62 5.66 -0.15 5.59 -0.42 5.5 -0.7 5.4 -0.97 5.31 -1.22 5.2 -1.48 5.08 -1.72 4.97 -1.96 4.85 -2.19 4.71 -2.41 4.57 -2.63 4.42 -2.83 4.28 -3.04 4.11 -3.24 3.95 -3.42 3.78 -3.6 3.61 -3.78 3.41 -3.95 3.23 -4.11 3.04 -4.26 2.83 -4.42 2.62 -4.55 2.4 -4.7 2.18 -4.82 1.95 -4.95 1.71 -5.06 1.47 -5.18 1.22 -5.28 0.97 -5.39 0.69 -5.47 0.42 -5.56 0.15 -5.65 0 0z"/>
  </g>
  <g>
   <path class="fil44" d="M249.49 120.15l1.02 -4.62 0 0 6.9 0.17 6.8 0.52 6.71 0.85 6.59 1.18 6.48 1.49 6.35 1.81 6.21 2.1 6.08 2.39 5.92 2.68 5.77 2.96 5.6 3.22 5.42 3.47 5.24 3.73 5.05 3.97 4.85 4.2 4.65 4.43 4.42 4.64 4.21 4.85 3.97 5.05 3.73 5.25 3.47 5.43 3.23 5.6 2.95 5.77 2.69 5.93 2.39 6.09 2.11 6.22 1.81 6.37 1.5 6.49 1.18 6.61 0.85 6.72 0.52 6.82 0.17 6.92 -4.34 1.08 -0.17 -6.68 -0.5 -6.6 -0.83 -6.51 -1.14 -6.41 -1.45 -6.3 -1.76 -6.18 -2.05 -6.05 -2.33 -5.92 -2.61 -5.78 -2.88 -5.62 -3.15 -5.47 -3.39 -5.29 -3.64 -5.12 -3.88 -4.94 -4.1 -4.74 -4.33 -4.53 -4.54 -4.33 -4.74 -4.1 -4.93 -3.88 -5.12 -3.65 -5.31 -3.39 -5.47 -3.15 -5.63 -2.88 -5.78 -2.62 -5.93 -2.34 -6.06 -2.05 -6.2 -1.76 -6.31 -1.45 -6.42 -1.15 -6.53 -0.83 -6.62 -0.5 -6.7 -0.17 0 0zm-129.48 129.31l-4.34 1.08 0 0 0.17 -6.92 0.52 -6.83 0.86 -6.74 1.18 -6.64 1.51 -6.53 1.82 -6.41 2.12 -6.27 2.42 -6.14 2.71 -5.99 2.99 -5.83 3.26 -5.67 3.52 -5.49 3.77 -5.31 4.02 -5.11 4.25 -4.91 4.48 -4.7 4.7 -4.48 4.91 -4.25 5.1 -4.01 5.3 -3.77 5.48 -3.51 5.65 -3.25 5.82 -2.98 5.97 -2.7 6.12 -2.41 6.25 -2.12 6.39 -1.81 6.5 -1.51 6.62 -1.18 6.72 -0.85 6.81 -0.52 6.9 -0.17 -1.02 4.62 -6.7 0.17 -6.61 0.5 -6.51 0.83 -6.4 1.14 -6.29 1.45 -6.16 1.75 -6.02 2.04 -5.89 2.32 -5.74 2.59 -5.58 2.86 -5.41 3.12 -5.25 3.36 -5.06 3.6 -4.88 3.84 -4.69 4.05 -4.48 4.28 -4.27 4.48 -4.06 4.68 -3.82 4.87 -3.6 5.06 -3.35 5.23 -3.11 5.4 -2.85 5.57 -2.59 5.71 -2.31 5.87 -2.03 6 -1.74 6.14 -1.45 6.26 -1.14 6.38 -0.82 6.49 -0.5 6.58 -0.17 6.69 0 0zm130.5 130.39l-1.02 4.62 0 0 -6.9 -0.17 -6.8 -0.52 -6.71 -0.85 -6.59 -1.18 -6.48 -1.49 -6.35 -1.81 -6.21 -2.1 -6.08 -2.39 -5.92 -2.68 -5.77 -2.95 -5.6 -3.22 -5.42 -3.48 -5.24 -3.73 -5.05 -3.97 -4.85 -4.2 -4.65 -4.43 -4.42 -4.64 -4.2 -4.85 -3.98 -5.05 -3.73 -5.25 -3.47 -5.43 -3.23 -5.6 -2.95 -5.77 -2.69 -5.93 -2.39 -6.09 -2.11 -6.22 -1.81 -6.37 -1.5 -6.49 -1.18 -6.61 -0.85 -6.72 -0.52 -6.82 -0.17 -6.92 4.34 -1.08 0.17 6.68 0.5 6.6 0.83 6.51 1.14 6.41 1.45 6.3 1.76 6.18 2.05 6.05 2.33 5.92 2.61 5.78 2.88 5.62 3.15 5.47 3.39 5.29 3.64 5.12 3.88 4.94 4.1 4.74 4.33 4.53 4.54 4.33 4.74 4.1 4.93 3.88 5.12 3.65 5.31 3.39 5.47 3.15 5.63 2.88 5.78 2.62 5.93 2.34 6.06 2.05 6.2 1.76 6.31 1.45 6.42 1.15 6.53 0.83 6.62 0.5 6.7 0.17 0 0zm129.48 -129.31l4.34 -1.08 0 0 -0.17 6.92 -0.52 6.83 -0.86 6.74 -1.18 6.64 -1.51 6.53 -1.82 6.41 -2.12 6.27 -2.42 6.14 -2.71 5.99 -2.99 5.83 -3.26 5.67 -3.52 5.49 -3.77 5.31 -4.02 5.11 -4.25 4.91 -4.48 4.7 -4.7 4.48 -4.91 4.25 -5.1 4.02 -5.3 3.76 -5.48 3.51 -5.65 3.26 -5.82 2.97 -5.97 2.7 -6.12 2.42 -6.25 2.11 -6.39 1.81 -6.5 1.51 -6.62 1.18 -6.72 0.85 -6.81 0.52 -6.9 0.17 1.02 -4.62 6.7 -0.17 6.61 -0.5 6.51 -0.83 6.4 -1.14 6.29 -1.45 6.16 -1.75 6.02 -2.04 5.89 -2.32 5.74 -2.59 5.58 -2.86 5.41 -3.12 5.25 -3.36 5.07 -3.6 4.88 -3.83 4.68 -4.06 4.48 -4.27 4.27 -4.49 4.06 -4.68 3.83 -4.87 3.59 -5.06 3.36 -5.23 3.1 -5.4 2.85 -5.56 2.59 -5.72 2.31 -5.87 2.03 -6 1.74 -6.14 1.45 -6.26 1.14 -6.38 0.82 -6.49 0.5 -6.58 0.17 -6.69 0 0z"/>
  </g>
  <g>
   <path class="fil44" d="M249.49 100.94l1.02 -4.62 0 0 7.89 0.2 7.78 0.59 7.66 0.98 7.54 1.34 7.41 1.71 7.26 2.07 7.11 2.4 6.94 2.74 6.78 3.06 6.59 3.38 6.41 3.68 6.2 3.98 5.99 4.26 5.78 4.54 5.55 4.8 5.31 5.07 5.06 5.31 4.8 5.55 4.54 5.77 4.27 6 3.98 6.21 3.68 6.41 3.38 6.6 3.07 6.78 2.74 6.95 2.41 7.12 2.07 7.28 1.71 7.42 1.35 7.55 0.97 7.68 0.6 7.8 0.2 7.91 -4.34 1.08 -0.2 -7.67 -0.57 -7.58 -0.95 -7.47 -1.32 -7.35 -1.66 -7.23 -2.02 -7.09 -2.35 -6.94 -2.68 -6.8 -2.99 -6.62 -3.31 -6.46 -3.6 -6.27 -3.9 -6.07 -4.17 -5.87 -4.45 -5.66 -4.71 -5.44 -4.96 -5.2 -5.2 -4.96 -5.44 -4.71 -5.66 -4.45 -5.88 -4.18 -6.08 -3.9 -6.27 -3.6 -6.46 -3.31 -6.64 -3 -6.8 -2.68 -6.95 -2.36 -7.11 -2.02 -7.24 -1.67 -7.37 -1.31 -7.48 -0.95 -7.6 -0.58 -7.69 -0.2 0 0zm-148.69 148.52l-4.34 1.08 0 0 0.2 -7.9 0.6 -7.81 0.97 -7.71 1.36 -7.58 1.72 -7.46 2.08 -7.32 2.43 -7.17 2.76 -7.01 3.09 -6.84 3.41 -6.66 3.72 -6.47 4.02 -6.27 4.31 -6.06 4.59 -5.84 4.86 -5.61 5.11 -5.36 5.37 -5.12 5.6 -4.85 5.83 -4.58 6.05 -4.31 6.26 -4.01 6.46 -3.71 6.64 -3.4 6.83 -3.09 6.98 -2.75 7.15 -2.42 7.3 -2.07 7.43 -1.72 7.56 -1.35 7.68 -0.98 7.79 -0.59 7.89 -0.2 -1.02 4.62 -7.69 0.2 -7.59 0.58 -7.47 0.94 -7.34 1.32 -7.22 1.66 -7.07 2.01 -6.92 2.34 -6.75 2.66 -6.59 2.98 -6.41 3.28 -6.22 3.58 -6.03 3.86 -5.81 4.14 -5.61 4.41 -5.38 4.66 -5.15 4.91 -4.91 5.14 -4.65 5.38 -4.4 5.6 -4.14 5.81 -3.85 6.01 -3.57 6.21 -3.27 6.39 -2.97 6.57 -2.66 6.74 -2.33 6.89 -2 7.05 -1.66 7.19 -1.31 7.32 -0.95 7.45 -0.57 7.57 -0.2 7.67 0 0zm149.71 149.6l-1.02 4.62 0 0 -7.89 -0.2 -7.78 -0.59 -7.66 -0.98 -7.54 -1.34 -7.41 -1.71 -7.26 -2.07 -7.11 -2.4 -6.94 -2.74 -6.78 -3.06 -6.59 -3.38 -6.41 -3.68 -6.2 -3.98 -5.99 -4.26 -5.78 -4.54 -5.55 -4.8 -5.31 -5.07 -5.06 -5.31 -4.8 -5.55 -4.54 -5.77 -4.27 -6 -3.98 -6.21 -3.68 -6.41 -3.38 -6.6 -3.07 -6.78 -2.74 -6.95 -2.41 -7.12 -2.07 -7.28 -1.71 -7.42 -1.35 -7.55 -0.97 -7.68 -0.6 -7.8 -0.2 -7.91 4.34 -1.08 0.2 7.67 0.57 7.58 0.95 7.47 1.32 7.35 1.66 7.23 2.02 7.09 2.35 6.94 2.68 6.8 2.99 6.62 3.31 6.46 3.6 6.27 3.9 6.07 4.17 5.87 4.45 5.66 4.71 5.44 4.96 5.2 5.2 4.96 5.44 4.71 5.66 4.45 5.88 4.18 6.08 3.9 6.27 3.6 6.46 3.31 6.64 3 6.8 2.68 6.95 2.36 7.11 2.02 7.24 1.67 7.37 1.31 7.48 0.95 7.6 0.58 7.69 0.2 0 0zm148.69 -148.52l4.34 -1.08 0 0 -0.2 7.9 -0.6 7.81 -0.97 7.71 -1.36 7.58 -1.72 7.46 -2.08 7.32 -2.43 7.17 -2.76 7.01 -3.09 6.84 -3.41 6.66 -3.72 6.47 -4.02 6.27 -4.31 6.06 -4.59 5.84 -4.86 5.61 -5.11 5.36 -5.37 5.12 -5.6 4.85 -5.83 4.58 -6.05 4.31 -6.26 4.01 -6.46 3.71 -6.64 3.4 -6.83 3.09 -6.98 2.75 -7.15 2.42 -7.3 2.07 -7.43 1.72 -7.56 1.35 -7.68 0.98 -7.79 0.59 -7.89 0.2 1.02 -4.62 7.69 -0.2 7.59 -0.58 7.47 -0.94 7.34 -1.32 7.22 -1.66 7.07 -2.01 6.92 -2.34 6.75 -2.66 6.59 -2.98 6.41 -3.28 6.22 -3.58 6.03 -3.86 5.81 -4.14 5.61 -4.41 5.38 -4.66 5.15 -4.91 4.91 -5.14 4.65 -5.38 4.4 -5.6 4.14 -5.81 3.85 -6.01 3.57 -6.21 3.27 -6.39 2.97 -6.57 2.66 -6.74 2.33 -6.89 2 -7.05 1.66 -7.19 1.31 -7.32 0.95 -7.45 0.57 -7.57 0.2 -7.67 0 0z"/>
  </g>
  <g>
   <path class="fil44" d="M249.18 81.29l1.64 -7.4 0 0 9.02 0.23 8.91 0.68 8.77 1.11 8.63 1.54 8.47 1.96 8.31 2.36 8.13 2.75 7.94 3.13 7.75 3.51 7.55 3.86 7.32 4.21 7.09 4.55 6.86 4.87 6.6 5.19 6.34 5.5 6.08 5.79 5.79 6.07 5.49 6.35 5.2 6.6 4.87 6.86 4.56 7.1 4.21 7.34 3.87 7.55 3.51 7.76 3.14 7.96 2.76 8.15 2.36 8.33 1.96 8.49 1.55 8.65 1.11 8.8 0.68 8.93 0.23 9.06 -6.95 1.74 -0.21 -8.69 -0.66 -8.57 -1.07 -8.46 -1.49 -8.33 -1.89 -8.19 -2.28 -8.04 -2.66 -7.87 -3.04 -7.7 -3.4 -7.51 -3.74 -7.32 -4.09 -7.11 -4.42 -6.88 -4.73 -6.66 -5.05 -6.42 -5.34 -6.17 -5.62 -5.9 -5.91 -5.63 -6.17 -5.34 -6.42 -5.05 -6.66 -4.73 -6.9 -4.43 -7.12 -4.09 -7.32 -3.75 -7.53 -3.4 -7.71 -3.04 -7.89 -2.67 -8.05 -2.29 -8.21 -1.9 -8.36 -1.49 -8.48 -1.08 -8.61 -0.65 -8.72 -0.22 0 0zm-168.11 167.84l-6.95 1.74 0 0 0.23 -9.06 0.68 -8.96 1.12 -8.83 1.55 -8.7 1.98 -8.55 2.38 -8.4 2.79 -8.23 3.17 -8.05 3.55 -7.85 3.92 -7.65 4.27 -7.43 4.62 -7.2 4.95 -6.96 5.27 -6.71 5.58 -6.44 5.87 -6.16 6.16 -5.87 6.44 -5.58 6.69 -5.26 6.95 -4.94 7.18 -4.6 7.41 -4.26 7.62 -3.9 7.82 -3.54 8.02 -3.16 8.19 -2.77 8.36 -2.38 8.52 -1.96 8.66 -1.55 8.8 -1.12 8.92 -0.68 9.03 -0.23 -1.64 7.4 -8.71 0.22 -8.6 0.65 -8.45 1.08 -8.32 1.48 -8.17 1.89 -8 2.27 -7.83 2.65 -7.64 3.01 -7.45 3.37 -7.25 3.71 -7.03 4.05 -6.81 4.36 -6.57 4.67 -6.33 4.98 -6.08 5.26 -5.82 5.55 -5.54 5.81 -5.26 6.07 -4.96 6.32 -4.67 6.56 -4.35 6.79 -4.03 7.01 -3.7 7.22 -3.35 7.42 -3 7.61 -2.64 7.79 -2.26 7.97 -1.88 8.13 -1.47 8.28 -1.07 8.42 -0.66 8.56 -0.21 8.68 0 0zm169.75 169.58l-1.64 7.4 0 0 -9.02 -0.23 -8.91 -0.68 -8.77 -1.11 -8.63 -1.54 -8.47 -1.96 -8.31 -2.36 -8.13 -2.75 -7.94 -3.13 -7.75 -3.51 -7.55 -3.86 -7.32 -4.21 -7.09 -4.55 -6.86 -4.87 -6.6 -5.19 -6.34 -5.5 -6.08 -5.79 -5.79 -6.07 -5.49 -6.35 -5.2 -6.6 -4.87 -6.86 -4.56 -7.1 -4.21 -7.34 -3.87 -7.55 -3.51 -7.76 -3.14 -7.96 -2.76 -8.15 -2.36 -8.33 -1.96 -8.49 -1.55 -8.65 -1.11 -8.8 -0.68 -8.93 -0.23 -9.06 6.95 -1.74 0.21 8.69 0.66 8.57 1.07 8.46 1.49 8.33 1.89 8.19 2.28 8.04 2.66 7.87 3.04 7.7 3.4 7.51 3.74 7.32 4.09 7.11 4.42 6.88 4.73 6.66 5.05 6.42 5.34 6.17 5.62 5.9 5.91 5.63 6.17 5.34 6.42 5.05 6.66 4.73 6.9 4.43 7.12 4.09 7.32 3.75 7.53 3.4 7.71 3.04 7.89 2.67 8.05 2.29 8.21 1.9 8.36 1.49 8.48 1.08 8.61 0.65 8.72 0.22 0 0zm168.11 -167.84l6.95 -1.74 0 0 -0.23 9.06 -0.68 8.96 -1.12 8.83 -1.55 8.7 -1.98 8.55 -2.38 8.4 -2.79 8.23 -3.17 8.05 -3.55 7.85 -3.92 7.65 -4.27 7.43 -4.62 7.2 -4.95 6.96 -5.27 6.71 -5.58 6.44 -5.87 6.16 -6.16 5.87 -6.44 5.58 -6.69 5.26 -6.95 4.94 -7.18 4.6 -7.41 4.26 -7.62 3.9 -7.82 3.54 -8.02 3.16 -8.19 2.77 -8.36 2.38 -8.52 1.96 -8.66 1.55 -8.8 1.12 -8.92 0.68 -9.03 0.23 1.64 -7.4 8.71 -0.22 8.6 -0.65 8.45 -1.08 8.32 -1.48 8.17 -1.89 8 -2.27 7.83 -2.65 7.64 -3.01 7.45 -3.37 7.25 -3.71 7.03 -4.05 6.81 -4.36 6.57 -4.67 6.33 -4.98 6.08 -5.26 5.82 -5.55 5.54 -5.81 5.26 -6.07 4.96 -6.32 4.67 -6.56 4.35 -6.79 4.03 -7.01 3.7 -7.22 3.35 -7.42 3 -7.61 2.64 -7.79 2.26 -7.97 1.88 -8.13 1.47 -8.28 1.07 -8.42 0.66 -8.56 0.21 -8.68 0 0z"/>
  </g>
  <circle class="fil45" transform="matrix(0.669471 0.742839 -0.742839 0.669471 245.013 368.192)" r="53.5"/>
  <circle class="fil43 str0" transform="matrix(0.669471 0.742839 -0.742839 0.669471 132.656 243.521)" r="53.5"/>
  <circle class="fil43 str0" transform="matrix(0.669471 0.742839 -0.742839 0.669471 369.41 256.079)" r="53.5"/>
  <circle class="fil43 str0" transform="matrix(0.719512 0.69448 -0.69448 0.719512 247.859 131.245)" r="53.5"/>
  <circle class="fil45" transform="matrix(0.669471 -0.742839 -0.742839 -0.669471 245.032 130.552)" r="53.5"/>
  <g>
   <circle class="fil46" transform="matrix(0.690325 -0.742839 -0.765978 -0.669471 246.531 130.194)" r="53.5"/>
   <path class="fil43" d="M301.22 137.07c-34.19,-20.38 -75.28,-20.63 -109.12,4.43 3.46,11.13 4.24,16.06 10.38,22.66 25.98,27.94 62.73,26.61 87.33,-0.38 6.01,-6.59 10.31,-17.5 11.41,-26.71z"/>
  </g>
  <circle class="fil47 str0" transform="matrix(0.669471 0.742839 -0.742839 0.669471 132.656 243.521)" r="53.5"/>
  <circle class="fil45" transform="matrix(-0.577945 0.816076 -0.816076 -0.577945 131.306 243.68)" r="53.5"/>
  <g>
   <circle class="fil46" transform="matrix(-0.573372 0.836422 -0.82115 -0.600521 131.286 245.221)" r="53.5"/>
   <path class="fil43" d="M149.98 297.07c-27.37,-28.89 -36.63,-68.92 -19.6,-107.43 11.62,0.93 16.6,0.61 24.39,5.16 32.95,19.21 39.71,55.36 18.78,85.28 -5.11,7.31 -14.82,13.9 -23.57,16.99z"/>
  </g>
  <path class="fil48" d="M99.5 288c36.26,20.59 66.46,11.36 83.92,-24.35 1.53,-32.52 15.8,-56.98 40.2,-73.06l35.32 24.69 -0.35 -107.78 -129.86 4.77 36.59 27.58c-48.74,36.86 -67.99,88.51 -65.82,148.15z"/>
  <path class="fil49" d="M183.82 262.85l39.41 -50.09 33.67 25.16 2.1 -22.13 -35.33 -24.7c-27.39,16.68 -37.86,42.59 -39.85,71.76z"/>
  <path class="fil50" d="M223.23 212.76l35 25.5 0.42 -23.17c-3.04,-2.12 -34.95,-24.87 -35.2,-24.71l-0.22 22.38z"/>
  <path class="fil50" d="M127.85 134.04l23.06 18.67 14.66 -12.72c-3.04,-2.11 -36.3,-27.72 -37.84,-27.73l0.12 21.78z"/>
  <g>
   <circle class="fil46" transform="matrix(0.690325 0.742839 -0.765978 0.669471 246.512 368.55)" r="53.5"/>
   <path class="fil43" d="M301.2 361.68c-34.19,20.37 -75.28,20.63 -109.12,-4.43 3.46,-11.14 4.24,-16.06 10.38,-22.67 25.98,-27.94 62.73,-26.6 87.33,0.38 6.01,6.59 10.31,17.5 11.41,26.72z"/>
  </g>
  <circle class="fil45" transform="matrix(0.947381 -0.320107 0.320107 0.947381 369.298 257.033)" r="53.5"/>
  <g>
   <circle class="fil46" transform="matrix(0.955649 -0.339252 0.310933 0.968625 370.221 255.799)" r="53.5"/>
   <path class="fil43" d="M385.59 202.87c5.15,39.47 -10.9,77.28 -47.33,98.42 -8.85,-7.59 -13.06,-10.26 -16.68,-18.52 -15.36,-34.92 0.44,-68.13 34.96,-80.02 8.44,-2.9 20.16,-2.53 29.05,0.12z"/>
  </g>
  <path class="fil51" d="M402.86 212.99c3.06,52.16 -4.8,96.39 -43.39,135.88l19.95 14.18 -1.57 28.26 -131 6.51 -0.56 -137.54 35.33 24.69c19.5,-9.76 34.62,-30.99 39.12,-53.96 2.89,-5.71 8.14,-11.19 13.18,-15.74 19.66,-17.71 48.86,-18.15 68.94,-2.28z"/>
  <path class="fil0" d="M402.86 212.99c1.98,43.56 -24.04,96.08 -62,121.84l36.78 26.94 -131 6.5 -0.55 -108.97 35.33 24.7c18.99,-9.52 33.23,-30.98 38.12,-53.31 5.95,-8.49 12.5,-14.39 18.73,-18.95 3.57,-2.61 6.25,-4.38 10.03,-5.76 16.5,-6 34.21,-5.93 54.56,7.01z"/>
  <g>
   <path class="fil44" d="M249.18 51.97l1.64 -7.4 0 0 10.53 0.27 10.4 0.79 10.23 1.3 10.08 1.8 9.89 2.28 9.7 2.76 9.49 3.21 9.28 3.66 9.05 4.09 8.8 4.51 8.55 4.92 8.29 5.3 8 5.7 7.71 6.06 7.41 6.41 7.09 6.77 6.76 7.09 6.42 7.41 6.06 7.71 5.7 8.01 5.31 8.29 4.92 8.56 4.52 8.82 4.1 9.06 3.66 9.29 3.22 9.51 2.76 9.72 2.28 9.91 1.81 10.1 1.3 10.26 0.79 10.42 0.27 10.57 -6.95 1.74 -0.25 -10.19 -0.77 -10.07 -1.26 -9.93 -1.75 -9.77 -2.21 -9.61 -2.68 -9.42 -3.12 -9.24 -3.56 -9.03 -3.99 -8.81 -4.39 -8.58 -4.8 -8.34 -5.17 -8.08 -5.56 -7.81 -5.91 -7.52 -6.27 -7.23 -6.59 -6.92 -6.92 -6.6 -7.24 -6.26 -7.53 -5.92 -7.81 -5.56 -8.08 -5.18 -8.35 -4.8 -8.59 -4.4 -8.82 -3.99 -9.05 -3.56 -9.25 -3.14 -9.45 -2.68 -9.62 -2.22 -9.8 -1.75 -9.95 -1.26 -10.1 -0.77 -10.23 -0.26 0 0zm-197.43 197.16l-6.95 1.74 0 0 0.27 -10.57 0.79 -10.44 1.31 -10.3 1.81 -10.15 2.3 -9.97 2.78 -9.79 3.25 -9.59 3.7 -9.38 4.13 -9.15 4.57 -8.91 4.98 -8.66 5.38 -8.4 5.76 -8.1 6.15 -7.82 6.49 -7.5 6.85 -7.18 7.18 -6.85 7.5 -6.49 7.8 -6.13 8.09 -5.76 8.38 -5.37 8.63 -4.96 8.89 -4.55 9.12 -4.13 9.35 -3.68 9.55 -3.23 9.76 -2.78 9.93 -2.29 10.11 -1.8 10.26 -1.31 10.41 -0.79 10.54 -0.27 -1.64 7.4 -10.22 0.26 -10.08 0.76 -9.93 1.27 -9.76 1.74 -9.58 2.21 -9.4 2.67 -9.19 3.11 -8.97 3.54 -8.75 3.95 -8.51 4.36 -8.26 4.75 -8 5.13 -7.72 5.49 -7.44 5.85 -7.14 6.18 -6.84 6.52 -6.51 6.83 -6.18 7.13 -5.84 7.43 -5.48 7.71 -5.11 7.98 -4.74 8.23 -4.34 8.49 -3.94 8.71 -3.53 8.95 -3.1 9.15 -2.66 9.36 -2.2 9.55 -1.74 9.72 -1.25 9.89 -0.77 10.05 -0.25 10.19 0 0zm199.07 198.9l-1.64 7.39 0 0 -10.53 -0.26 -10.39 -0.79 -10.24 -1.3 -10.07 -1.8 -9.9 -2.28 -9.69 -2.76 -9.5 -3.21 -9.28 -3.66 -9.04 -4.09 -8.81 -4.51 -8.55 -4.92 -8.28 -5.31 -8.01 -5.69 -7.71 -6.06 -7.41 -6.42 -7.09 -6.76 -6.76 -7.09 -6.42 -7.41 -6.06 -7.71 -5.7 -8.01 -5.31 -8.29 -4.92 -8.56 -4.52 -8.82 -4.09 -9.06 -3.67 -9.29 -3.22 -9.51 -2.76 -9.72 -2.28 -9.91 -1.81 -10.1 -1.3 -10.26 -0.79 -10.42 -0.27 -10.57 6.95 -1.74 0.25 10.19 0.77 10.07 1.26 9.93 1.75 9.77 2.21 9.61 2.68 9.42 3.13 9.24 3.56 9.03 3.98 8.81 4.39 8.58 4.8 8.34 5.18 8.08 5.55 7.8 5.91 7.53 6.27 7.23 6.59 6.92 6.93 6.6 7.23 6.26 7.53 5.92 7.81 5.56 8.09 5.18 8.34 4.8 8.59 4.4 8.82 3.99 9.05 3.56 9.25 3.13 9.45 2.69 9.63 2.22 9.79 1.75 9.96 1.26 10.09 0.77 10.23 0.26 0 0zm197.43 -197.16l6.95 -1.74 0 0 -0.27 10.57 -0.79 10.44 -1.31 10.3 -1.81 10.15 -2.3 9.97 -2.78 9.79 -3.25 9.59 -3.7 9.38 -4.13 9.15 -4.57 8.91 -4.98 8.66 -5.38 8.39 -5.76 8.11 -6.14 7.82 -6.5 7.5 -6.85 7.18 -7.18 6.85 -7.5 6.49 -7.8 6.13 -8.09 5.76 -8.38 5.37 -8.63 4.96 -8.89 4.55 -9.12 4.13 -9.34 3.68 -9.56 3.23 -9.75 2.77 -9.94 2.3 -10.11 1.8 -10.26 1.31 -10.41 0.79 -10.54 0.26 1.64 -7.39 10.22 -0.26 10.08 -0.77 9.93 -1.26 9.76 -1.74 9.59 -2.21 9.39 -2.67 9.19 -3.11 8.97 -3.54 8.75 -3.95 8.51 -4.36 8.26 -4.75 8 -5.13 7.72 -5.49 7.44 -5.85 7.14 -6.18 6.84 -6.52 6.51 -6.83 6.18 -7.13 5.84 -7.43 5.48 -7.71 5.11 -7.98 4.74 -8.23 4.34 -8.49 3.95 -8.71 3.52 -8.95 3.1 -9.15 2.66 -9.36 2.2 -9.55 1.74 -9.72 1.25 -9.89 0.77 -10.05 0.25 -10.19 0 0z"/>
  </g>
  <path class="fil51" d="M403.41 213.48c3.05,52.16 -4.81,96.38 -43.4,135.88l19.96 14.17 -1.58 28.27 -130.99 6.51 -0.57 -137.54 35.33 24.69c19.5,-9.77 34.62,-30.99 39.12,-53.96 2.9,-5.71 8.14,-11.2 13.18,-15.74 19.66,-17.72 48.86,-18.16 68.95,-2.28z"/>
  <path class="fil52" d="M403.41 213.48c1.97,43.55 -24.05,96.07 -62.01,121.83l36.78 26.94 -130.99 6.51 -0.56 -108.97 35.33 24.69c18.99,-9.51 33.23,-30.97 38.12,-53.3 5.95,-8.49 12.5,-14.39 18.73,-18.95 3.57,-2.62 6.25,-4.39 10.03,-5.76 16.5,-6 34.22,-5.93 54.57,7.01z"/>
  <g>
   <path class="fil53" d="M99.71 288.78c36.26,20.58 66.46,11.35 83.92,-24.35 1.53,-32.53 15.8,-56.98 40.19,-73.06l35.33 24.69 -0.35 -107.78 -129.86 4.77 36.58 27.58c-48.73,36.86 -67.98,88.51 -65.81,148.15z"/>
   <path class="fil49" d="M184.02 263.63l39.42 -50.09 33.66 25.16 2.11 -22.14 -35.33 -24.69c-27.4,16.67 -37.86,42.59 -39.86,71.76z"/>
   <path class="fil50" d="M223.44 213.54l35 25.5 0.41 -23.18c-3.04,-2.11 -34.94,-24.86 -35.2,-24.7l-0.21 22.38z"/>
   <path class="fil50" d="M128.06 134.81l23.05 18.67 14.66 -12.71c-3.03,-2.12 -36.3,-27.72 -37.83,-27.73l0.12 21.77z"/>
  </g>
 </g>
</svg>
