<?xml version="1.0" encoding="UTF-8"?>
<!DOCTYPE svg PUBLIC "-//W3C//DTD SVG 1.1//EN" "http://www.w3.org/Graphics/SVG/1.1/DTD/svg11.dtd">
<!-- Creator: CorelDRAW 2017 -->
<svg xmlns="http://www.w3.org/2000/svg" xml:space="preserve" width="500px" height="500px" version="1.1" style="shape-rendering:geometricPrecision; text-rendering:geometricPrecision; image-rendering:optimizeQuality; fill-rule:evenodd; clip-rule:evenodd"
viewBox="0 0 500 500"
 xmlns:xlink="http://www.w3.org/1999/xlink">
 <defs>
  <style type="text/css">
   <![CDATA[
    .fil1 {fill:#0082EF}
    .fil0 {fill:#3BA3F8}
    .fil3 {fill:#B2B3B3}
    .fil2 {fill:white}
   ]]>
  </style>
 </defs>
 <g id="Слой_x0020_1">
  <metadata id="CorelCorpID_0Corel-Layer"/>
  <circle class="fil0" cx="250" cy="250" r="226.5"/>
  <path class="fil1" d="M367.02 135.41l106.48 80.09c1.91,12.69 3.74,25.84 3.44,39.11 -2.56,111.39 -78.94,195.39 -182.94,216.89l-114.38 -75.59c-44.44,-29.32 -70.71,-80.58 -69.4,-137.74 2.04,-88.34 75.3,-158.31 163.64,-156.28 36.69,0.85 64.42,11.9 93.16,33.52z"/>
  <g id="_1709101018784">
   <g>
    <path class="fil2" d="M407.39 256.68c-0.85,86.19 -70.99,155.81 -157.39,155.81 -86.92,0 -157.39,-70.47 -157.39,-157.39 0,-86.46 69.71,-156.63 155.98,-157.39l0.15 -30.21 99.59 52.46 -99.73 51.38 0.12 -31.32c-62.96,0.68 -113.8,51.94 -113.8,115.08 0,63.55 51.52,115.08 115.08,115.08 63.18,0 114.46,-50.9 115.08,-113.92l42.31 0.42zm-158.65 -158.95l-0.15 -0.02 0.15 0.02z"/>
   </g>
   <g>
    <path class="fil3" d="M385.49 256.47c-0.81,74.94 -60.4,135.43 -133.79,135.43 -73.9,0 -133.8,-61.33 -133.8,-136.99 0,-75.66 59.9,-136.99 133.8,-136.99 23.91,0 96,2.05 96,2.05l-99.47 51.38 0.13 -31.33c-62.8,0.69 -113.5,51.95 -113.5,115.08 0,63.56 51.38,115.09 114.77,115.09 63.01,0 114.16,-50.9 114.78,-113.92l21.08 0.2zm-137.12 -158.73l-0.14 -0.02 0.14 0.02z"/>
   </g>
  </g>
 </g>
</svg>
