<?xml version="1.0" encoding="UTF-8"?>
<!DOCTYPE svg PUBLIC "-//W3C//DTD SVG 1.1//EN" "http://www.w3.org/Graphics/SVG/1.1/DTD/svg11.dtd">
<!-- Creator: CorelDRAW 2017 -->
<svg xmlns="http://www.w3.org/2000/svg" xml:space="preserve" width="500px" height="500px" version="1.1" style="shape-rendering:geometricPrecision; text-rendering:geometricPrecision; image-rendering:optimizeQuality; fill-rule:evenodd; clip-rule:evenodd"
viewBox="0 0 500 500"
 xmlns:xlink="http://www.w3.org/1999/xlink">
 <defs>
  <style type="text/css">
   <![CDATA[
    .str0 {stroke:#575757;stroke-width:16;stroke-miterlimit:22.9256}
    .fil0 {fill:#FEFEFE}
    .fil2 {fill:#00529B}
    .fil3 {fill:#2B649B}
    .fil4 {fill:#89B4D7}
    .fil1 {fill:white}
   ]]>
  </style>
 </defs>
 <g id="Слой_x0020_1">
  <metadata id="CorelCorpID_0Corel-Layer"/>
  <circle class="fil0 str0" cx="250" cy="250" r="239.39"/>
  <g id="_2001539318912">
   <polygon class="fil1" points="34.67,294.68 465.33,294.68 465.33,205.32 34.67,205.32 "/>
   <path class="fil2" d="M240.06 261.58c0.13,-2.09 -3.7,-8.25 -5.21,-10.13 -6.43,-7.99 -12.19,-8.48 -21.79,-9.14 -4.76,-0.33 -9.84,-0.91 -14.39,-1.21 -4.94,-0.33 -9.63,-0.7 -14.48,-1.1 -4.77,-0.4 -9.8,-0.69 -14.51,-1.15 -6.99,-0.68 -14.52,-1.19 -21.56,-1.73 -2.35,-0.18 -5.07,-0.51 -7.4,-0.53 0.08,2.63 2.11,6.85 3.29,8.69 3.19,4.94 8.47,8.34 14.39,9.72 2.97,0.7 7.6,0.97 10.85,1.18 7.4,0.46 14.87,1.24 22.24,1.83 7.37,0.6 14.99,1.06 22.28,1.83 1.91,0.2 3.46,0.06 4.8,1.17 0.99,0.8 1.83,2.71 1.23,4.57 -1.22,3.81 -4.8,3.1 -8.92,3.1l-60.25 0c-3.73,0 -8.38,0.25 -12,-0.03 -0.06,-2.51 0.19,-31.1 -0.11,-32.28l-21.23 -1.54 -0.03 55.12 99.41 0c3.74,0 4.67,-0.13 7.84,-1.23 4.5,-1.56 8,-4.45 10.53,-7.6 2.86,-3.55 4.29,-7.33 5.05,-13.01 0.14,1.96 0.2,2.78 0.67,4.53 0.31,1.18 0.9,2.8 1.43,3.89 3.43,7.04 9.69,12.2 18.03,13.36 2.83,0.4 38.25,0.15 42.05,0.15 6.96,0 12.25,0.78 18.78,-2.25 4.93,-2.29 8.58,-5.1 10.96,-10 2.71,-5.58 2.08,-11.89 2.08,-18.95 0,-3.04 0.2,-19.57 -0.08,-21.08l-21.53 -1.27c-0.17,1.68 -0.04,18.81 -0.04,22.04 0,2.74 0.18,4.5 -0.87,6.63 -2.15,4.33 -5.96,3.69 -11.18,3.68l-29.58 0c-2.7,0 -4.18,-0.04 -6.02,-1.32 -1.42,-0.99 -2.55,-2.68 -2.71,-4.76 -0.21,-2.56 -0.03,-18.31 -0.03,-22.23 0,-0.45 0.19,-7.04 -0.2,-7.36 -0.27,-0.13 -20.6,-1.7 -21.65,-1.55 -0.22,4.09 0.25,27.81 -0.14,29.96z"/>
   <path class="fil2" d="M334.32 268.52l-0.08 21.63c10.55,0.13 21.18,0 31.72,0 13.2,0 26.39,0 39.59,0 2.48,0 5.54,0.16 7.95,-0.05 8.61,-0.73 15.52,-4.94 19.34,-12.42 2.18,-4.29 2.9,-7.37 2.87,-13.05 -0.03,-5.32 -1.92,-8.09 -4.1,-11.66 -1.75,-2.87 -5.15,-5.94 -8.16,-7.64 -4.27,-2.4 -7.5,-2.5 -12.9,-2.92 -9.85,-0.75 -19.95,-1.25 -29.88,-1.89l-15.02 -0.91c-5.14,-0.2 -9.9,-0.7 -15.03,-0.86 -2.43,-0.08 -4.97,-0.33 -7.36,-0.47 -2.63,-0.17 -5.09,-0.25 -7.69,-0.44 0.07,2.28 2.62,6.7 3.76,8.2 3.57,4.71 8.77,7.74 14.78,9.15 1.29,0.3 14.19,1.28 16.55,1.46 1.75,0.12 3.7,0.24 5.45,0.45 3.59,0.44 7.5,0.58 11.19,0.92 3.66,0.33 7.42,0.59 11.11,0.91 3.59,0.31 7.53,0.73 11.05,0.95 1.98,0.13 3.6,0.07 4.87,1.14 1.15,0.97 1.67,2.81 1.1,4.57 -1.19,3.72 -5.87,2.93 -9.1,2.93 -7.98,0.02 -15.96,0 -23.94,0 -16,0 -32.08,0.16 -48.07,0z"/>
   <path class="fil2" d="M139.69 227.52c-0.1,-1.01 0.01,-18.74 -0.25,-18.99 -0.28,-0.27 -21.76,-0.13 -24.64,-0.13l-13.31 0c-7.22,0 -8.81,4.02 -11.95,8.75 -1.04,1.58 -7.81,12.14 -7.9,12.86l154.53 0c0.22,-6.07 0.03,-14.59 0.03,-20.62l0 -1.06c-2.76,-0.23 -25.52,-0.04 -28.92,-0.04l-43.35 0c-6.08,0 -11.8,1.9 -15.96,5.8 -1.18,1.1 -2.53,2.3 -3.59,3.61 -1.6,1.97 -2.81,4.62 -3.74,7.04 -0.33,0.86 -0.58,1.97 -0.95,2.78z"/>
   <path class="fil2" d="M334.53 227.28l-0.12 0.96 0.09 1.76 101.4 0.06 0.05 -21.77c-25,-0.15 -50.13,0 -75.16,0 -5.23,0 -8.68,0.26 -12.8,2.21 -3.37,1.6 -6.12,4.09 -8.43,6.61 -1.98,2.17 -4.79,7.82 -5.03,10.17z"/>
   <path class="fil2" d="M42.88 289.92l1.81 0.03c7.79,-0.05 16.43,0.18 24.06,-0.02 0.64,-1.12 1.46,-2.26 2.21,-3.42l24.99 -38.53c1,-1.57 8.93,-13.41 8.95,-14.12l-24.3 -2.57 -9.47 14.71c-3.15,4.94 -6.3,9.86 -9.42,14.68l-16.53 25.57c-0.61,0.95 -2.1,3.07 -2.3,3.67z"/>
   <path class="fil2" d="M312.25 230.02l22.25 -0.02 -0.09 -1.76c-0.62,0.01 -0.42,-1.01 -0.41,-2.26 0.02,-3.32 0.18,-16.17 -0.07,-17.49l-21.7 0c-0.2,1.08 -0.18,20.6 0.02,21.53z"/>
   <path class="fil2" d="M239.93 229.82c5.24,0.05 14.03,0.15 19.32,0.01l2.54 -0.04 0.04 -21.02c-0.91,-0.25 -19.41,-0.13 -21.88,-0.09l-0.02 21.14z"/>
   <path class="fil3" d="M239.95 208.68c2.47,-0.04 20.97,-0.16 21.88,0.09l-0.04 21.02 -2.54 0.04c-5.29,0.14 -14.08,0.04 -19.32,-0.01 0.09,0.4 4.45,0.22 5.22,0.22l15.5 0.01c0.29,0 1.11,0.02 1.27,-0.16 0.19,-0.2 0.33,-22.34 -0.15,-21.44 -0.02,0.04 -0.08,-0.03 -0.11,-0.04 -0.74,-0.16 -20.27,-0.05 -20.89,-0.05 -0.88,0 -0.56,-0.15 -0.82,0.32z"/>
   <path class="fil4" d="M312.25 230.02c-0.2,-0.93 -0.22,-20.45 -0.02,-21.53l21.7 0c0.25,1.32 0.09,14.17 0.07,17.49 -0.01,1.25 -0.21,2.27 0.41,2.26l0.12 -0.96c-0.61,0.03 -0.36,-0.91 -0.36,-2.08 0,-3.47 0.19,-15.2 -0.06,-16.82 -0.68,-0.23 -20.84,-0.28 -22.09,-0.03 -0.29,1.34 -0.09,15.42 -0.09,19.04l-0.02 2.05c0.14,1.06 -0.12,0.31 0.34,0.58z"/>
  </g>
 </g>
</svg>
