<?xml version="1.0" encoding="UTF-8"?>
<!DOCTYPE svg PUBLIC "-//W3C//DTD SVG 1.1//EN" "http://www.w3.org/Graphics/SVG/1.1/DTD/svg11.dtd">
<!-- Creator: CorelDRAW 2017 -->
<svg xmlns="http://www.w3.org/2000/svg" xml:space="preserve" width="500px" height="500px" version="1.1" style="shape-rendering:geometricPrecision; text-rendering:geometricPrecision; image-rendering:optimizeQuality; fill-rule:evenodd; clip-rule:evenodd"
viewBox="0 0 500 500"
 xmlns:xlink="http://www.w3.org/1999/xlink">
 <defs>
  <style type="text/css">
   <![CDATA[
    .fil0 {fill:#0F7699}
    .fil1 {fill:white}
   ]]>
  </style>
 </defs>
 <g id="Слой_x0020_1">
  <metadata id="CorelCorpID_0Corel-Layer"/>
  <circle class="fil0" cx="250" cy="250" r="239.39"/>
 </g>
 <g id="Слой_x0020_1_0">
  <metadata id="CorelCorpID_1Corel-Layer"/>
  <g id="_2298559479168">
   <path class="fil1" d="M264.46 98.92l0 16.62c26.36,2.71 50.53,12.79 70.43,28.14l18.44 -17.88 20.13 20.77 -17.61 17.08c20.7,24.26 33.19,55.74 33.19,90.13 0,76.76 -62.23,138.99 -138.99,138.99 -76.75,0 -138.98,-62.23 -138.98,-138.99 0,-30.45 9.79,-58.61 26.4,-81.51l-26.51 -25.7 20.14 -20.77 25.7 24.92c21.29,-19.27 48.58,-32.04 78.74,-35.17l0 -16.63 -21.87 0 0 -28.92 72.66 0 0 28.92 -21.87 0zm-14.41 47.1c59.52,0 107.77,48.25 107.77,107.76 0,59.52 -48.25,107.77 -107.77,107.77 -59.51,0 -107.76,-48.25 -107.76,-107.77 0,-59.51 48.25,-107.76 107.76,-107.76z"/>
   <path class="fil1" d="M278.27 239.78c5.58,11.82 3.5,26.36 -6.25,36.16 -9.75,9.8 -24.29,11.94 -36.13,6.41l-17.49 17.57 -15.36 -15.3 17.49 -17.57c-5.58,-11.81 -3.51,-26.36 6.25,-36.15 9.75,-9.8 24.28,-11.94 36.13,-6.41l46.86 -47.08 15.37 15.3 -46.87 47.07zm-40.51 2.05c6.4,-6.43 16.8,-6.46 23.23,-0.05 6.43,6.4 6.45,16.8 0.05,23.23 -6.4,6.43 -16.8,6.45 -23.23,0.05 -6.43,-6.4 -6.46,-16.8 -0.05,-23.23z"/>
  </g>
 </g>
</svg>
