<?xml version="1.0" encoding="UTF-8"?>
<!DOCTYPE svg PUBLIC "-//W3C//DTD SVG 1.1//EN" "http://www.w3.org/Graphics/SVG/1.1/DTD/svg11.dtd">
<!-- Creator: CorelDRAW 2017 -->
<svg xmlns="http://www.w3.org/2000/svg" xml:space="preserve" width="500px" height="500px" version="1.1" style="shape-rendering:geometricPrecision; text-rendering:geometricPrecision; image-rendering:optimizeQuality; fill-rule:evenodd; clip-rule:evenodd"
viewBox="0 0 500 500"
 xmlns:xlink="http://www.w3.org/1999/xlink">
 <defs>
  <style type="text/css">
   <![CDATA[
    .fil2 {fill:#00BAEC}
    .fil1 {fill:#D2D2D1}
    .fil0 {fill:#E92323}
    .fil3 {fill:#F6F6F7}
   ]]>
  </style>
 </defs>
 <g id="Слой_x0020_1">
  <metadata id="CorelCorpID_0Corel-Layer"/>
  <path class="fil0" d="M260.81 84.88c-36.21,0 -68.82,10.24 -91.82,23.5 -23.02,13.28 -46.16,32.35 -61.01,54.31 -28.69,42.42 -39.6,80.72 -34.31,134.56 1.04,10.66 12.36,46.88 12.36,47.1 0,3.45 -25.3,39.76 -28.83,45.05 -5.12,7.68 -9.68,14.51 -15.14,22.7 -5.25,7.88 -13.11,17.19 -13.69,24.15 7,-1.63 15.42,-6.84 22.2,-10.23 7.95,-3.98 14.26,-6.16 22.25,-10.19 7.64,-3.85 13.91,-7.41 21.7,-10.73 7.43,-3.17 17.52,-8.8 23.94,-10.3 12.09,22.84 57.45,48.27 83.52,57.03 40.34,13.56 96.76,10.16 133.92,-7.16l36.13 -21.53c4.01,-2.99 7.64,-6.05 11.31,-8.51 11.76,3.14 77.64,42.2 88.29,45.04 -0.72,-8.71 -30.25,-73.98 -34.18,-82.93 -13.07,-29.81 -8.66,-17.88 -0.68,-42.02 20.26,-61.31 9.51,-125.04 -28.44,-175.73 -42.82,-57.18 -87.92,-57.26 -94.08,-69.89l-6.84 -16.58c-2.09,-5.05 -4.62,-10.98 -7.01,-16.42 -2.23,-5.11 -4.58,-11.41 -7.15,-16.27 -4.87,1.77 -5.44,4.29 -8.68,9.34l-23.76 35.71z"/>
  <path class="fil1" d="M283.93 92.13c-0.07,5.26 -3.16,40.85 -3.93,46.87l-62.56 113.29c-17,33.45 -3.53,7.81 -16.44,34.71 -16.3,14.67 -81.21,70.41 -97.11,85.49 8.18,-2.65 122.56,-57.95 123.85,-59.25 9.44,-9.52 39.26,-122.24 49.16,-134.34 3.1,-39.9 1.57,-24.58 3.1,-39.9 11.87,39.4 77.2,182.48 81.33,201.27 -11.22,-4.19 -80.28,-30.05 -84.19,-35.9 -0.14,-18.37 -4.14,-52.37 -5.64,-78.87 -6.31,16.52 -17.14,66.36 -24.25,87.55l174.83 89.11c-21.32,-51.5 -44.8,-103.48 -67.95,-154.72 -10.12,-22.4 -62.19,-146.46 -70.2,-155.31l0 0z"/>
  <path class="fil2" d="M278.3 359.71c-12.12,1.16 -27.03,0.94 -36.99,-1.12l-15.17 -4.66c-0.22,-0.09 -0.72,-0.29 -0.93,-0.38l-5.33 -2.73c-1.03,-0.43 -2.06,-0.32 -5.39,-2.11 -9.28,1.1 -44.31,19.53 -54.6,24.07 10.69,18.59 54.42,37.72 81.58,41.23 19.03,2.46 38.6,0.85 56.2,-3.99 8.45,-2.33 15.1,-4.76 22.48,-8.19 6.84,-3.18 15.09,-6.62 18.96,-13 -16.01,-5.53 -46.63,-26.75 -60.81,-29.12z"/>
  <path class="fil3" d="M103.89 372.49c6.81,-3.27 0.25,-0.24 20.11,-17.49 19,-15.74 60.14,-51.48 77,-68 10.82,-23.6 -12.37,26.69 0,0l79 -148c0.48,-6.22 5.1,-41.94 3.93,-46.87 -29.73,45.39 -60.18,92.44 -88.68,138 -28.47,45.51 -63.1,96.45 -91.36,142.36z"/>
  <path class="fil3" d="M276.9 178.9l18.31 111.57 -23.71 -64.97c-0.17,7.89 3.08,70.75 3.5,78.5 3.91,5.85 76.79,33.81 88,38 -52,-130.5 -68.82,-163.82 -83,-203 -1.68,14.68 -2.24,24.17 -3.1,39.9z"/>
  <path class="fil2" d="M119.68 295.85c7.66,-5.57 50.13,-72.7 55.35,-80.51 8.11,-12.15 51.03,-74.15 52.8,-80.94 -64.31,13.27 -120.56,78.86 -108.15,161.45z"/>
  <path class="fil2" d="M398.82 289.38c9.17,-20.78 -3.44,-62.2 -11.47,-78.83 -7.42,-15.37 -29.08,-44.98 -43.99,-51.68l55.46 130.51z"/>
  <path class="fil2" d="M207.08 350.88c8.82,8.79 79.16,18.23 85.79,14.24 -8.7,-5.12 -36.04,-18.4 -45.59,-23.47 -6.56,-3.49 -5.54,-5.31 -13.28,-2.15 -5.11,3.31 -21.94,7.73 -26.92,11.38z"/>
 </g>
</svg>
