<?xml version="1.0" encoding="UTF-8"?>
<!DOCTYPE svg PUBLIC "-//W3C//DTD SVG 1.1//EN" "http://www.w3.org/Graphics/SVG/1.1/DTD/svg11.dtd">
<!-- Creator: CorelDRAW 2017 -->
<svg xmlns="http://www.w3.org/2000/svg" xml:space="preserve" width="500px" height="500px" version="1.1" style="shape-rendering:geometricPrecision; text-rendering:geometricPrecision; image-rendering:optimizeQuality; fill-rule:evenodd; clip-rule:evenodd"
viewBox="0 0 500 500"
 xmlns:xlink="http://www.w3.org/1999/xlink">
 <defs>
  <style type="text/css">
   <![CDATA[
    .str1 {stroke:black;stroke-width:4;stroke-miterlimit:22.9256}
    .str0 {stroke:#949494;stroke-width:16;stroke-miterlimit:22.9256}
    .fil0 {fill:#0F7699}
    .fil1 {fill:#383838}
    .fil3 {fill:#FDFDFD}
    .fil2 {fill:#FF7F00}
    .fil6 {fill:url(#id0)}
    .fil4 {fill:url(#id1)}
    .fil5 {fill:url(#id2)}
    .fil7 {fill:url(#id3)}
    .fil8 {fill:url(#id4)}
    .fil10 {fill:url(#id5)}
    .fil9 {fill:url(#id6)}
   ]]>
  </style>
  <radialGradient id="id0" gradientUnits="userSpaceOnUse" gradientTransform="matrix(4.27141 -0 -0 3.45747 -1063 -905)" cx="324.84" cy="368.23" r="134.06" fx="324.84" fy="368.23">
   <stop offset="0" style="stop-opacity:1; stop-color:white"/>
   <stop offset="1" style="stop-opacity:1; stop-color:#383838"/>
  </radialGradient>
  <radialGradient id="id1" gradientUnits="userSpaceOnUse" gradientTransform="matrix(4.56387 -0 -0 3.4883 -919 -918)" xlink:href="#id0" cx="257.78" cy="368.74" r="138.26" fx="257.78" fy="368.74">
  </radialGradient>
  <radialGradient id="id2" gradientUnits="userSpaceOnUse" gradientTransform="matrix(4.48681 -0 -0 3.45128 -420 -904)" xlink:href="#id0" cx="120.48" cy="368.74" r="138.22" fx="120.48" fy="368.74">
  </radialGradient>
  <radialGradient id="id3" gradientUnits="userSpaceOnUse" gradientTransform="matrix(4.53706 -0 -0 3.17114 -685 -801)" xlink:href="#id0" cx="193.56" cy="368.72" r="153.86" fx="193.56" fy="368.72">
  </radialGradient>
  <radialGradient id="id4" gradientUnits="userSpaceOnUse" gradientTransform="matrix(1.95256 -0 -0 4.53684 -358 -1277)" xlink:href="#id0" cx="375.5" cy="360.92" r="143.98" fx="375.5" fy="360.92">
  </radialGradient>
  <radialGradient id="id5" gradientUnits="userSpaceOnUse" gradientTransform="matrix(2.67927 -0 -0 2.95927 -675 -750)" xlink:href="#id0" cx="401.93" cy="382.56" r="33.39" fx="401.93" fy="382.56">
  </radialGradient>
  <radialGradient id="id6" gradientUnits="userSpaceOnUse" gradientTransform="matrix(1.0201 -0 -0 4.11001 -8 -1087)" xlink:href="#id0" cx="399.93" cy="349.55" r="102.88" fx="399.93" fy="349.55">
  </radialGradient>
 </defs>
 <g id="Слой_x0020_1">
  <metadata id="CorelCorpID_0Corel-Layer"/>
  <circle class="fil0 str0" cx="250" cy="250" r="235.2"/>
  <path class="fil1" d="M272.33 159.49c-8.15,-1.91 -14.68,-4.74 -24.85,-5.23 -20.1,-0.99 -33.16,0.91 -50.73,8.77 -2,0.89 -2.58,1.52 -4.63,2.56l-13.96 9.59c-2.94,-1.98 -5.09,-4.19 -7.94,-6.43 -10.93,-8.63 -6.32,-18.92 -18.23,-26.25 -12.61,-7.76 -32.68,-0.67 -32.68,18.94 0,7.67 4.68,14.26 10.31,17.82 4,2.51 9.4,1.57 17.16,11.61 1.9,2.46 2.82,2.45 4.02,5.79 4.2,11.72 2.7,3.8 -4.28,24.7 -4.22,12.64 -5,34.33 -2.2,47.82 2.07,9.97 1.54,5.57 -7.73,17.45 -3.5,4.48 -6.92,6.36 -10.56,9.71 -6.9,6.31 -19.42,5.03 -29.62,12.23 -6.39,4.51 -12.45,12.52 -14.53,20.13 -0.42,1.58 -0.91,3.4 -1.13,5.45 -0.37,3.39 -0.21,3.08 -0.08,5.84 0.53,11.11 2.78,16.6 9.76,24.95 3.67,4.37 15.13,11.65 23.65,11.65 9.19,0 15.51,-0.12 23.42,-5.34 8.11,-5.35 10.14,-9.65 15.53,-16.53l9.93 -11.65c8.48,-8.39 9.17,-8.5 20.17,-12.6 3.93,-1.47 6.46,2.74 13.63,5.96 19.94,8.97 27.59,8.77 48.76,8.77 9.07,0 20.2,-3.02 27.01,-5.69 11.45,-4.47 13.26,-7.02 21.38,-11.31 4.84,7.22 9.01,6.63 12.34,26.9 1.66,10.21 3.23,25.7 5.77,32.15 1.02,2.59 1.69,4.46 3.08,6.73l3.85 5.96c4.66,5.72 4.29,4.91 9.79,9.83 16.15,14.48 46.33,15.16 63.08,2.61 7.05,-5.28 11.79,-9.93 16.42,-17.6 16.05,-26.64 4.28,-64.18 -27.16,-76.58 -7.64,-3.02 -9.05,-1.28 -20.71,-5.45 -8.85,-3.16 -9.52,-3.29 -16.27,-9.24l-14.19 -15.89c-1.31,-1.64 -0.22,-1.28 -2.65,-1.92 8.96,-16.94 8.31,-49.56 1.39,-68.75 -0.73,-2.03 -2.95,-6.44 -2.94,-7.66 0.05,-4.42 6.79,-17.75 9.6,-22.79 1.53,-2.75 2.32,-4.57 4.52,-6.6l11.79 -9.78c4.09,-2.92 8.29,-4.54 13.09,-9.14 28.14,-27.02 9.97,-78 -29.61,-78 -12.42,0 -20.05,1.89 -28.77,8.5 -6.86,5.2 -11.43,10.79 -15.08,18.93 -4.41,9.88 -2.37,18.13 -6.11,27.88 -4.89,12.78 -1.12,5.94 -9.26,16.24 -1.45,1.83 -2.93,2.67 -3.55,4.96l0 0 0 0z"/>
  <path class="fil2" d="M265.15 145.31c-8.16,-1.91 -13.34,-4.41 -23.52,-4.92 -20.11,-0.98 -33.18,0.92 -50.73,8.78 -2.01,0.9 -2.57,1.52 -4.64,2.56l-13.95 9.59c-2.95,-1.97 -5.09,-4.19 -7.95,-6.43 -10.92,-8.63 -6.31,-18.92 -18.23,-26.25 -12.61,-7.75 -32.67,-0.66 -32.67,18.94 0,7.67 4.67,14.26 10.31,17.82 4,2.52 9.4,1.57 17.15,11.62 12.81,12.09 7.05,8.84 -0.25,30.48 -4.22,12.64 -5.01,34.32 -2.21,47.83 2.08,9.96 1.55,5.57 -7.72,17.44 -3.5,4.48 -6.91,6.36 -10.57,9.7 -6.89,6.32 -19.4,5.04 -29.61,12.24 -6.39,4.51 -12.46,12.53 -14.52,20.14 -0.44,1.58 -0.93,3.39 -1.14,5.44 -0.38,3.39 -0.21,3.08 -0.08,5.84 0.52,11.11 2.78,16.6 9.76,24.95 3.65,4.37 15.12,11.66 23.65,11.66 9.19,0 15.52,-0.13 23.43,-5.35 8.1,-5.35 10.13,-9.65 15.52,-16.52l9.92 -11.65c8.48,-8.4 9.17,-8.5 20.18,-12.6 3.92,-1.47 6.45,2.73 13.62,5.95 19.95,8.97 27.59,8.77 48.77,8.77 9.07,0 20.2,-3.03 27,-5.69 11.46,-4.47 13.28,-7.01 21.38,-11.31 4.85,7.23 9.03,6.64 12.34,26.91 1.67,10.2 3.24,25.69 5.78,32.15 1.02,2.58 1.68,4.45 3.08,6.72l3.84 5.97c4.67,5.71 4.3,4.9 9.79,9.82 16.15,14.48 46.34,15.16 63.09,2.61 7.05,-5.28 11.79,-9.93 16.41,-17.59 16.05,-26.65 4.29,-64.2 -27.15,-76.59 -7.64,-3.02 -9.06,-1.28 -20.72,-5.45 -8.84,-3.16 -9.51,-3.29 -16.26,-9.24 -3.01,-3.37 -14.22,-15.09 -16.84,-17.81 8.96,-16.94 8.31,-49.56 1.39,-68.75 -0.73,-2.03 -8.63,-16.72 -8.61,-17.94 2.61,-4.78 22.47,-23.81 28.62,-29.18 4.08,-2.93 11.25,-4.25 16.05,-8.86 28.14,-27 9.97,-77.99 -29.61,-77.99 -12.42,0 -20.06,1.89 -28.77,8.5 -6.86,5.21 -11.43,10.79 -15.07,18.93 -4.43,9.88 -2.38,18.13 -6.12,27.88 -3.71,9.68 -13.37,17.99 -14.14,20.88l0 0 0 0z"/>
  <path class="fil3" d="M223.45 173.57c-32.03,4.49 -59.16,34.38 -53.38,73.11 4.75,31.83 35.15,58.78 73.35,53.07 15.54,-2.34 30.85,-11.64 39.84,-23.56 9.79,-12.96 16.08,-28.23 12.91,-49.76 -4.71,-32.03 -34.63,-58.21 -72.72,-52.86l0 0z"/>
  <path class="fil1" d="M243.11 281.17l8.74 -18.12c-7.38,-0.86 -19.31,0.91 -25.24,-1.07 -22.18,-7.39 -24.21,-38.25 -4.43,-48.81 6.13,-3.26 14.9,-4.1 22.13,-1.57 19.35,6.8 13.34,20.98 13.8,39.97 0.2,8.88 0.03,17.96 0.04,26.87 4.31,-2.86 11.85,-12.83 17.94,-17.07 0.27,-12.42 -0.09,-24.86 0.03,-37.28 0.09,-9.99 -6.55,-18.09 -14.15,-23.61 -39.1,-28.4 -87.92,12.89 -68.58,55.52 3.99,8.82 10.86,15.21 18.17,19.74 9.01,5.58 19.42,6.43 31.55,5.43l0 0 0 0z"/>
  <g id="_1918184502192">
   <path class="fil4 str1" d="M267.81 392.37c0.09,-2.04 0.29,-4.71 -0.2,-6.25 -1.81,-0.69 -14.26,-0.37 -16.27,-0.36 -5.68,0.02 -9.67,-0.18 -9.85,-6.65 -0.16,-5.54 0.02,-11.31 0,-16.88 -0.05,-13.14 3.44,-10.5 22.62,-10.54 15.88,-0.03 7.55,7.63 9.92,40.77l13.93 0.02c0.69,-7.2 0.19,-16.88 0.17,-24.31 -0.02,-9.13 0.91,-14.69 -5.1,-19.85 -5.4,-4.64 -13.17,-3.36 -21.2,-3.36 -4.56,0 -20.92,-0.53 -24.13,0.48 -5.84,1.84 -10.2,6.9 -10.31,13.63 -0.1,5.05 -0.54,19.82 0.67,23.67 2.12,6.76 8.21,9.74 15.08,9.71 7.57,-0.03 17.41,0.58 24.67,-0.08l0 0z"/>
   <path class="fil5 str1" d="M130.53 392.35l0.03 -6.42c-4.73,-0.54 -11.56,-0.19 -16.44,-0.17 -12.35,0.03 -9.86,-3.96 -9.87,-23.53 -0.01,-13.01 2.58,-10.52 22.63,-10.54 6.31,-0.01 9.57,0.39 9.73,6.88 0.26,11.04 -0.62,23.01 0.12,33.89l13.93 0c0.73,-6.74 0.12,-17.2 0.12,-24.29 0,-8.46 1.03,-14.65 -4.99,-19.83 -5.34,-4.6 -13.27,-3.4 -21.19,-3.38 -5.53,0.01 -19.74,-0.61 -23.98,0.48 -5.84,1.49 -10.37,6.78 -10.52,13.58 -0.09,4.91 -0.54,20.29 0.67,23.85 0.95,2.74 3.07,5.37 5.3,7 3.12,2.28 5.8,2.57 9.83,2.59 7.41,0.02 17.54,0.56 24.63,-0.11l0 0 0 0z"/>
   <path class="fil6 str1" d="M309.14 378.34l-13.85 -0.09c-0.15,6.97 4.54,12.35 10.66,13.83 4.21,1.01 18.72,0.36 24.27,0.37 8.65,0.03 14.88,1.26 20.66,-4.09 4.68,-4.33 4.81,-13.34 0.21,-18.27 -5.16,-5.53 -12.22,-4.29 -20.42,-4.29 -8.24,0 -18.59,1.57 -20.8,-3.72 -1.33,-3.16 -0.51,-7.34 1.9,-9.18 2.54,-1.91 7.47,-1.28 11.16,-1.28 9.55,0 16.8,-2.41 17.48,7.65l13.99 -0.07c-0.03,-7.23 -4.88,-12.55 -10.81,-13.92 -4.04,-0.94 -19.1,-0.28 -24.32,-0.27 -8.22,0.01 -15.06,-1.11 -20.35,4.18 -4.73,4.72 -4.92,12.84 -0.58,18.46 4.46,5.78 11.41,4.74 20.02,4.76 12.06,0.02 23.63,-2.47 21.9,8.48 -0.29,1.87 -1.1,2.81 -2.56,3.86 -2.57,1.85 -7.43,1.16 -11.13,1.16 -12.58,0 -15.93,1.95 -17.43,-7.57l0 0z"/>
   <path class="fil7 str1" d="M177.03 392.46c9.01,0 14.85,0.74 20.56,-4.67 4.12,-3.92 7.2,-9.39 10.32,-13.8 2.97,-4.23 19.33,-27.18 19.64,-28.98l-14 0c-1.75,2.9 -26.11,38.02 -28.28,40.05 -1.88,1.74 -5.35,3.67 -8.63,1.75 -3.39,-1.98 -2.92,-5.29 -2.92,-9.52 0,-6.55 0.02,-13.08 0.02,-19.61 0,-8.97 1.79,-12.73 -8.1,-12.73 -7.09,0 -6.02,5.21 -6.02,11.36 0,5.92 0,11.85 0,17.77 -0.02,12.62 3.82,18.38 17.41,18.38l0 0 0 0z"/>
   <path class="fil8 str1" d="M361.52 351.75l0 26.44c0,6.58 3.63,10.55 7.92,12.83 3.81,2.03 14.5,1.96 19.49,1.28l-0.06 -6.51c-9.69,-1 -13.26,2.29 -13.26,-9.88 0,-23.36 -2.09,-24.28 11.53,-24.28l0.11 -6.68c-10.63,0.01 -14.93,-1.18 -22.36,4.47 1.73,-5.32 9.47,-7.41 10.73,-8.15 0.04,-2.45 0.57,-7.43 -0.48,-9.42 -1.72,-3.23 -4.37,-2.72 -8.45,-2.72 -5.54,0 -5.17,4.06 -5.17,8.94 0,4.56 0,9.12 0,13.68l0 0 0 0z"/>
   <path class="fil9 str1" d="M394.6 334.88l0.01 32.37c0,3.15 0.21,6.16 3.6,6.85 13.64,2.79 10.46,-7.44 10.46,-21.89 0,-19.79 2.63,-23.56 -9.19,-23.08 -3.51,0.15 -4.88,2.08 -4.88,5.75l0 0 0 0z"/>
   <path class="fil10 str1" d="M397.9 378.72c-5.15,1.57 -6.56,17.46 7.41,13.51 4.62,-1.3 5.36,-12.5 -0.37,-13.61 -1.96,-0.38 -5.44,-0.38 -7.04,0.1l0 0 0 0z"/>
  </g>
 </g>
</svg>
