<?xml version="1.0" encoding="UTF-8"?>
<!DOCTYPE svg PUBLIC "-//W3C//DTD SVG 1.1//EN" "http://www.w3.org/Graphics/SVG/1.1/DTD/svg11.dtd">
<!-- Creator: CorelDRAW 2017 -->
<svg xmlns="http://www.w3.org/2000/svg" xml:space="preserve" width="500px" height="500px" version="1.1" style="shape-rendering:geometricPrecision; text-rendering:geometricPrecision; image-rendering:optimizeQuality; fill-rule:evenodd; clip-rule:evenodd"
viewBox="0 0 500 500"
 xmlns:xlink="http://www.w3.org/1999/xlink">
 <defs>
  <style type="text/css">
   <![CDATA[
    .str1 {stroke:black;stroke-width:4;stroke-miterlimit:22.9256}
    .str2 {stroke:#424242;stroke-width:4;stroke-miterlimit:22.9256}
    .str3 {stroke:#787878;stroke-width:4;stroke-miterlimit:22.9256}
    .str4 {stroke:#DFDFDF;stroke-width:4;stroke-miterlimit:22.9256}
    .str0 {stroke:#454545;stroke-width:16;stroke-miterlimit:22.9256}
    .fil7 {fill:none}
    .fil1 {fill:#FEFEFE}
    .fil4 {fill:black}
    .fil3 {fill:#1B1B1B}
    .fil2 {fill:#1F1B20}
    .fil0 {fill:#2CACC9}
    .fil5 {fill:#FEFEFE}
    .fil8 {fill:#DBDBDB;fill-rule:nonzero}
    .fil6 {fill:#E6E6E6;fill-rule:nonzero}
   ]]>
  </style>
 </defs>
 <g id="Слой_x0020_1">
  <metadata id="CorelCorpID_0Corel-Layer"/>
  <circle class="fil0 str0" cx="250" cy="250" r="239.39"/>
 </g>
 <g id="Слой_x0020_1_0">
  <metadata id="CorelCorpID_1Corel-Layer"/>
  <path class="fil1 str1" d="M378.26 119.75l-13.05 -42.52c0,0 -249.68,77.82 -275.06,86.29l13.31 42.43 274.8 -86.2z"/>
  <polygon class="fil2" points="229.92,166.28 186.05,180.04 139.53,147.81 182.7,134.11 "/>
  <polygon class="fil2" points="148.92,191.69 103.46,205.95 90.07,163.26 101.7,159.52 "/>
  <path class="fil2" d="M314.68 92.71c0,0 50.38,-15.94 50.38,-15.94 0,0 13.2,42.98 13.2,42.98 0,0 -16.37,5.13 -16.37,5.13 -15.59,-10.46 -47.21,-32.17 -47.21,-32.17z"/>
  <polygon class="fil2" points="316.84,139.01 272.97,152.77 226.45,120.54 269.62,106.84 "/>
  <path class="fil3 str2" d="M125.2 237.57l244.94 0c9.37,0 16.97,6.33 16.97,14.13l0 142.99c0.3,4.35 -1.93,8.33 -4.37,10.31 -2.81,2.29 -7.43,3.82 -12.6,3.82l-244.94 0c-9.37,0 -16.96,-6.33 -16.96,-14.13l0 -142.99c0,-7.8 7.59,-14.13 16.96,-14.13z"/>
  <path class="fil1 str1" d="M391.53 208.94l0.27 44.47c0,0 -261.52,0.49 -288.27,0l0 -44.47 288 0z"/>
  <polygon class="fil2" points="236.06,208.94 190.09,208.94 155.35,253.62 200.64,253.77 "/>
  <polygon class="fil2" points="151.18,208.94 103.53,208.94 103.53,253.68 115.75,253.77 "/>
  <path class="fil2" d="M338.96 253.77c0,0 52.84,0.13 52.84,0.13 0,0 -0.27,-44.96 -0.27,-44.96 0,0 -17.15,0 -17.15,0 -11.75,14.65 -35.42,44.83 -35.42,44.83z"/>
  <polygon class="fil2" points="327.17,208.94 281.19,208.94 246.45,253.62 291.74,253.77 "/>
  <path class="fil4 str3" d="M134.55 161.22c20.59,21.3 41.19,42.6 61.79,63.91 6.89,6.61 6.36,16.09 -5.2,15.61l-73.9 -0.21c-0.08,-40.17 1.16,-39.73 0.54,-72.95 -0.21,-11.39 12.57,-12.31 16.77,-6.36l0 0z"/>
  <circle class="fil5" cx="129.26" cy="170.76" r="4.78"/>
  <circle class="fil5" cx="182.81" cy="228.02" r="4.78"/>
  <circle class="fil5" cx="128.97" cy="229.99" r="4.78"/>
  <path class="fil6" d="M132.97 262.11l1.33 0c1.62,3.52 3.91,9.06 6.88,16.62 1.37,3.47 2.3,5.58 2.82,6.32 0.51,0.73 1.33,1.18 2.45,1.35 0.37,0.05 0.55,0.2 0.55,0.48 0,0.39 -0.24,0.57 -0.72,0.57 -0.26,0 -0.92,-0.04 -2.01,-0.13 -1.28,-0.11 -2.36,-0.17 -3.22,-0.17 -0.86,0 -1.97,0.05 -3.33,0.15 -1.02,0.08 -1.69,0.12 -2.01,0.12 -0.57,0 -0.85,-0.18 -0.85,-0.53 0,-0.27 0.2,-0.42 0.59,-0.46 1.52,-0.14 2.27,-0.73 2.27,-1.8 0,-0.5 -0.23,-1.41 -0.67,-2.73 -0.45,-1.32 -0.93,-2.52 -1.44,-3.6 -0.79,-0.01 -1.42,-0.02 -1.86,-0.02 -2.47,0 -4.39,0.01 -5.77,0.02 -1.06,2.91 -1.6,4.83 -1.6,5.77 0,0.67 0.27,1.19 0.8,1.56 0.53,0.37 1.1,0.59 1.72,0.65 0.47,0.05 0.7,0.24 0.7,0.57 0,0.33 -0.25,0.49 -0.75,0.49 -0.2,0 -0.72,-0.02 -1.56,-0.07 -1.09,-0.08 -1.88,-0.12 -2.37,-0.12 -0.97,0 -1.9,0.06 -2.77,0.18 -0.22,0.03 -0.41,0.05 -0.56,0.05 -0.46,0 -0.69,-0.19 -0.69,-0.56 0,-0.27 0.16,-0.45 0.45,-0.54 0.74,-0.21 1.32,-0.46 1.74,-0.77 0.42,-0.3 0.87,-0.89 1.36,-1.75 0.49,-0.87 1.07,-2.26 1.74,-4.18 1.52,-4.31 3.78,-10.13 6.78,-17.47zm-1.27 6.43l-3.14 8.25 6.47 -0.1c-0.35,-0.95 -0.88,-2.27 -1.59,-3.94 -0.78,-1.82 -1.35,-3.23 -1.74,-4.21zm22.99 13.71c0.8,-1.72 1.54,-3.52 2.23,-5.41 0.69,-1.89 1.04,-3.07 1.04,-3.53 0,-0.51 -0.29,-0.83 -0.85,-0.98 -0.55,-0.15 -0.82,-0.35 -0.82,-0.61 0,-0.3 0.22,-0.45 0.67,-0.45 0.22,0 0.68,0.03 1.37,0.1 0.63,0.06 1.06,0.09 1.31,0.09 0.55,0 1.05,-0.05 1.52,-0.13 0.26,-0.05 0.46,-0.06 0.61,-0.06 0.39,0 0.57,0.17 0.57,0.53 0,0.26 -0.25,0.44 -0.77,0.53 -1.17,0.18 -2.15,1.26 -2.93,3.25 -0.88,2.25 -1.73,4.34 -2.53,6.26 -0.81,1.92 -1.42,3.31 -1.85,4.16 -0.43,0.86 -0.69,1.32 -0.78,1.39 -0.09,0.07 -0.21,0.1 -0.34,0.1 -0.17,0 -0.34,-0.12 -0.5,-0.35 -0.15,-0.23 -0.79,-1.47 -1.9,-3.71l-4.24 -8.5c-0.61,-1.22 -1.08,-1.95 -1.4,-2.19 -0.32,-0.24 -0.6,-0.39 -0.83,-0.45 -0.48,-0.11 -0.72,-0.28 -0.72,-0.51 0,-0.34 0.23,-0.51 0.7,-0.51 0.2,0 0.5,0.01 0.92,0.05 1,0.09 1.97,0.14 2.92,0.14 0.38,0 0.81,-0.02 1.29,-0.06 0.87,-0.09 1.4,-0.13 1.57,-0.13 0.82,0 1.22,0.14 1.22,0.42 0,0.35 -0.23,0.55 -0.68,0.6 -0.64,0.06 -0.97,0.36 -0.97,0.91 0,0.31 0.52,1.58 1.55,3.8 1.03,2.22 1.9,3.96 2.62,5.25zm15.26 -17.58c0,0.73 -0.27,1.35 -0.79,1.87 -0.52,0.53 -1.15,0.79 -1.88,0.79 -0.74,0 -1.37,-0.26 -1.89,-0.79 -0.52,-0.52 -0.78,-1.14 -0.78,-1.87 0,-0.75 0.26,-1.37 0.78,-1.9 0.52,-0.51 1.15,-0.77 1.89,-0.77 0.73,0 1.36,0.26 1.88,0.77 0.52,0.53 0.79,1.15 0.79,1.9zm0.26 6.22c0.05,1.73 0.08,4.8 0.08,9.23l-0.06 3.98c0,0.8 0.13,1.34 0.4,1.61 0.27,0.27 0.7,0.45 1.3,0.53 0.69,0.09 1.04,0.29 1.04,0.6 0,0.33 -0.27,0.5 -0.81,0.5 -0.26,0 -0.71,-0.02 -1.35,-0.06 -1.36,-0.08 -2.7,-0.13 -4.03,-0.13 -0.65,0 -1.32,0.04 -2,0.11 -0.4,0.06 -0.68,0.08 -0.83,0.08 -0.54,0 -0.81,-0.16 -0.81,-0.49 0,-0.31 0.36,-0.51 1.08,-0.57 0.95,-0.09 1.48,-0.4 1.59,-0.95 0.11,-0.55 0.16,-1.66 0.16,-3.33 0,-2.17 -0.03,-4.16 -0.1,-5.97 -0.07,-1.82 -0.19,-2.85 -0.37,-3.11 -0.19,-0.26 -0.67,-0.43 -1.45,-0.52 -0.61,-0.06 -0.91,-0.24 -0.91,-0.54 0,-0.3 0.31,-0.47 0.93,-0.52l0.38 -0.04 5.76 -0.41zm16.8 1.81c0,-3.56 -0.02,-5.94 -0.06,-7.13 -0.03,-1.19 -0.13,-1.89 -0.28,-2.09 -0.16,-0.21 -0.59,-0.37 -1.29,-0.5 -0.47,-0.07 -0.71,-0.24 -0.71,-0.51 0,-0.21 0.08,-0.33 0.25,-0.39 0.16,-0.06 0.7,-0.08 1.59,-0.08l4.89 0 -0.04 13.11 -0.09 8.15c0,1.25 0.1,2.04 0.32,2.37 0.21,0.34 0.7,0.55 1.47,0.65 0.46,0.05 0.68,0.22 0.68,0.51 0,0.32 -0.24,0.48 -0.72,0.48l-6.01 0 0 -2.53c-0.53,0.94 -1.17,1.66 -1.93,2.12 -0.76,0.48 -1.64,0.71 -2.65,0.71 -1.88,0 -3.53,-0.73 -4.94,-2.2 -1.42,-1.46 -2.13,-3.34 -2.13,-5.65 0,-2.53 0.81,-4.61 2.43,-6.24 1.62,-1.63 3.42,-2.44 5.41,-2.44 0.75,0 1.44,0.14 2.07,0.42 0.63,0.27 1.21,0.69 1.74,1.24zm-6.66 6.49c0,2.35 0.31,4.07 0.94,5.16 0.62,1.09 1.4,1.63 2.37,1.63 0.92,0 1.71,-0.52 2.36,-1.56 0.66,-1.04 0.99,-2.92 0.99,-5.64 0,-2.21 -0.28,-3.88 -0.83,-4.98 -0.55,-1.11 -1.39,-1.66 -2.5,-1.66 -1.11,0 -1.94,0.58 -2.49,1.76 -0.56,1.17 -0.84,2.94 -0.84,5.29zm20.79 -0.43c-0.01,0.36 -0.01,0.61 -0.01,0.77 0,1.75 0.42,3.23 1.28,4.44 0.86,1.22 2.01,1.82 3.47,1.82 1.49,0 2.96,-0.64 4.4,-1.92 0.3,-0.26 0.5,-0.39 0.62,-0.39 0.32,0 0.49,0.17 0.49,0.52 0,0.27 -0.37,0.75 -1.11,1.45 -0.74,0.7 -1.65,1.23 -2.72,1.58 -1.07,0.36 -2.17,0.54 -3.32,0.54 -2.51,0 -4.48,-0.77 -5.9,-2.3 -1.42,-1.54 -2.13,-3.35 -2.13,-5.43 0,-2.5 0.81,-4.6 2.44,-6.3 1.64,-1.69 3.67,-2.54 6.11,-2.54 2.29,0 4.03,0.77 5.23,2.32 1.2,1.54 1.8,3 1.8,4.4 0,0.44 -0.12,0.71 -0.35,0.8 -0.23,0.08 -0.99,0.12 -2.27,0.12l-8.03 0.12zm0.12 -1.37c1.82,0.03 2.87,0.04 3.16,0.04 1.38,0 2.23,-0.1 2.55,-0.3 0.32,-0.19 0.47,-0.59 0.47,-1.19 0,-1.01 -0.29,-1.91 -0.87,-2.68 -0.58,-0.78 -1.27,-1.16 -2.07,-1.16 -1.89,0 -2.97,1.76 -3.24,5.29zm19.23 -3.6c0.9,-0.96 1.8,-1.68 2.71,-2.15 0.91,-0.47 1.84,-0.71 2.78,-0.71 0.66,0 1.38,0.14 2.12,0.41 0.74,0.27 1.55,0.9 2.43,1.9 0.89,-0.78 1.79,-1.35 2.72,-1.73 0.93,-0.39 1.89,-0.58 2.87,-0.58 1.68,0 2.91,0.45 3.69,1.36 0.77,0.93 1.16,2.31 1.16,4.12l-0.09 6.26c0,1.77 0.09,2.78 0.26,3.04 0.17,0.27 0.63,0.46 1.4,0.57 0.43,0.08 0.65,0.24 0.65,0.49 0,0.38 -0.26,0.57 -0.76,0.57 -0.09,0 -0.21,0 -0.37,-0.02 -1.03,-0.11 -2.16,-0.17 -3.37,-0.17 -0.67,0 -1.47,0.04 -2.4,0.12 -0.58,0.05 -0.91,0.07 -1,0.07 -0.61,0 -0.92,-0.18 -0.92,-0.52 0,-0.31 0.2,-0.49 0.61,-0.54 0.69,-0.1 1.12,-0.22 1.28,-0.37 0.16,-0.14 0.28,-0.72 0.37,-1.71 0.08,-0.99 0.13,-2.67 0.13,-5.03 0,-2.15 -0.06,-3.64 -0.17,-4.44 -0.11,-0.8 -0.36,-1.41 -0.75,-1.84 -0.39,-0.43 -0.88,-0.64 -1.47,-0.64 -0.53,0 -1.06,0.2 -1.6,0.6 -0.55,0.4 -1.11,1 -1.68,1.82 -0.39,1.9 -0.57,4.65 -0.57,8.24 0,1.52 0.1,2.44 0.32,2.76 0.22,0.32 0.73,0.52 1.51,0.61 0.47,0.05 0.7,0.21 0.7,0.49 0,0.38 -0.3,0.57 -0.89,0.57 -0.13,0 -0.61,-0.02 -1.42,-0.08 -1.12,-0.07 -1.91,-0.11 -2.39,-0.11 -0.8,0 -1.74,0.05 -2.84,0.15 -0.28,0.03 -0.5,0.04 -0.65,0.04 -0.54,0 -0.81,-0.18 -0.81,-0.53 0,-0.31 0.26,-0.49 0.78,-0.53 0.7,-0.05 1.14,-0.44 1.32,-1.18 0.19,-0.73 0.28,-3.31 0.28,-7.73 0,-1.81 -0.16,-3.07 -0.48,-3.75 -0.32,-0.69 -0.84,-1.03 -1.58,-1.03 -1.26,0 -2.25,0.67 -2.98,2 -0.72,1.33 -1.09,3.91 -1.09,7.73 0,1.8 0.12,2.9 0.34,3.3 0.23,0.4 0.65,0.62 1.28,0.66 0.46,0.03 0.69,0.19 0.69,0.48 0,0.39 -0.25,0.58 -0.76,0.58 -0.09,0 -0.27,-0.02 -0.51,-0.06 -0.64,-0.08 -1.73,-0.13 -3.27,-0.13 -1.38,0 -2.44,0.05 -3.19,0.15 -0.3,0.03 -0.52,0.04 -0.67,0.04 -0.4,0 -0.6,-0.18 -0.6,-0.53 0,-0.33 0.23,-0.5 0.69,-0.53 0.73,-0.04 1.19,-0.16 1.36,-0.39 0.17,-0.22 0.31,-0.84 0.39,-1.86 0.09,-1.02 0.13,-2.94 0.13,-5.75 0,-2.2 -0.03,-3.58 -0.08,-4.14 -0.06,-0.55 -0.26,-0.98 -0.61,-1.28 -0.36,-0.29 -0.84,-0.45 -1.46,-0.46 -0.51,-0.01 -0.76,-0.18 -0.76,-0.5 0,-0.32 0.25,-0.49 0.75,-0.52 0.66,-0.04 1.62,-0.13 2.9,-0.26 1.28,-0.13 2.39,-0.19 3.33,-0.19 0.15,0.35 0.22,0.95 0.22,1.77 0,0.21 0.01,0.58 0.02,1.09zm30.42 -2.49c0.07,1.27 0.1,2.99 0.1,5.18 0,3.32 0.03,5.44 0.09,6.37 0.06,0.92 0.31,1.62 0.73,2.09 0.43,0.47 0.91,0.7 1.45,0.7 0.65,0 1.3,-0.24 1.96,-0.72 0.66,-0.48 1.15,-1.11 1.46,-1.88 0.32,-0.77 0.47,-2.04 0.47,-3.8l0.04 -4.07c0,-1.09 -0.05,-1.8 -0.17,-2.14 -0.12,-0.34 -0.52,-0.53 -1.18,-0.55 -0.74,-0.04 -1.11,-0.23 -1.11,-0.58 0,-0.21 0.09,-0.34 0.27,-0.4 0.17,-0.06 0.65,-0.08 1.4,-0.08 1.71,0 3.29,-0.04 4.76,-0.12 0.05,0.48 0.08,3.11 0.08,7.89 0,3.84 0.04,5.93 0.11,6.29 0.07,0.35 0.48,0.55 1.21,0.61 0.43,0.05 0.65,0.23 0.65,0.53 0,0.36 -0.25,0.53 -0.74,0.53 -0.1,0 -0.25,0 -0.46,-0.01 -0.35,-0.02 -0.75,-0.02 -1.22,-0.02 -1.64,0 -2.54,0 -2.72,0.01 -0.19,0.02 -0.35,0.02 -0.49,0.02 -0.24,0 -0.38,-0.03 -0.43,-0.12 -0.06,-0.08 -0.09,-0.32 -0.09,-0.72 0,-0.65 0.04,-1.3 0.13,-1.96 -0.85,1.04 -1.74,1.81 -2.68,2.33 -0.95,0.52 -1.94,0.77 -2.97,0.77 -3.14,0 -4.71,-1.75 -4.71,-5.26l0 -5.7c0,-1.96 -0.07,-3.12 -0.22,-3.45 -0.14,-0.34 -0.51,-0.55 -1.12,-0.64 -0.55,-0.07 -0.82,-0.23 -0.82,-0.48 0,-0.34 0.24,-0.5 0.72,-0.5 3.3,0 5.14,-0.04 5.5,-0.12zm24.34 5.81l0.92 -1.09c1.06,-1.26 1.68,-2.04 1.87,-2.32 0.19,-0.28 0.29,-0.54 0.29,-0.74 0,-0.36 -0.43,-0.6 -1.28,-0.71 -0.43,-0.05 -0.64,-0.23 -0.64,-0.53 0,-0.33 0.29,-0.49 0.89,-0.49 0.17,0 0.46,0.02 0.88,0.07 0.53,0.08 1.08,0.12 1.64,0.12 0.57,0 1.1,-0.04 1.59,-0.11 0.32,-0.06 0.52,-0.08 0.61,-0.08 0.47,0 0.7,0.16 0.7,0.46 0,0.31 -0.31,0.5 -0.92,0.56 -0.45,0.04 -0.82,0.14 -1.12,0.31 -0.3,0.17 -0.74,0.58 -1.32,1.24l-1.95 2.25 -1.51 1.87 4.29 5.63c0.69,0.89 1.28,1.52 1.79,1.89 0.51,0.38 1.08,0.63 1.71,0.77 0.54,0.11 0.81,0.3 0.81,0.57 0,0.37 -0.28,0.56 -0.85,0.56 -0.3,0 -0.81,-0.04 -1.55,-0.11 -0.68,-0.05 -1.67,-0.08 -2.99,-0.08 -1.23,0 -2.32,0.05 -3.27,0.13 -0.39,0.04 -0.68,0.06 -0.85,0.06 -0.49,0 -0.74,-0.18 -0.74,-0.52 0,-0.3 0.3,-0.49 0.88,-0.58 0.76,-0.13 1.14,-0.38 1.14,-0.77 0,-0.28 -0.28,-0.76 -0.83,-1.43 -0.47,-0.61 -0.75,-0.99 -0.84,-1.15 -0.1,-0.12 -0.2,-0.26 -0.31,-0.41l-1.07 -1.39 -1.98 2.34c-0.78,0.94 -1.18,1.57 -1.18,1.92 0,0.29 0.11,0.49 0.34,0.6 0.23,0.12 0.72,0.23 1.47,0.33 0.43,0.06 0.64,0.24 0.64,0.53 0,0.35 -0.29,0.53 -0.87,0.53 -0.14,0 -0.35,-0.02 -0.6,-0.04 -0.62,-0.1 -1.39,-0.15 -2.31,-0.15 -0.59,0 -1.47,0.07 -2.64,0.19 -0.11,0.01 -0.19,0.02 -0.25,0.02 -0.52,0 -0.78,-0.19 -0.78,-0.56 0,-0.3 0.33,-0.48 0.98,-0.56 0.65,-0.08 1.24,-0.29 1.76,-0.61 0.52,-0.33 1.08,-0.88 1.67,-1.65 0.07,-0.11 0.16,-0.22 0.26,-0.32l2.84 -3.38 -4.4 -5.75c-0.63,-0.81 -1.1,-1.35 -1.42,-1.63 -0.32,-0.27 -0.77,-0.49 -1.34,-0.65 -0.41,-0.11 -0.62,-0.27 -0.62,-0.49 0,-0.35 0.25,-0.53 0.74,-0.53 0.18,0 0.6,0.02 1.22,0.07 0.8,0.08 1.42,0.12 1.86,0.12 1.73,0 3.1,-0.05 4.12,-0.15 0.26,-0.03 0.47,-0.04 0.63,-0.04 0.44,0 0.66,0.18 0.66,0.53 0,0.26 -0.33,0.45 -1,0.57 -0.5,0.1 -0.75,0.26 -0.75,0.49 0,0.34 0.32,0.88 0.97,1.64 0.13,0.15 0.25,0.31 0.34,0.46l1.67 2.19z"/>
  <line class="fil7 str4" x1="121" y1="294.6" x2="374.66" y2= "294.6" />
  <line class="fil7 str4" x1="121.34" y1="325.5" x2="246.08" y2= "325.5" />
  <line class="fil7 str4" x1="121.34" y1="352.98" x2="375" y2= "352.98" />
  <line class="fil7 str4" x1="121.34" y1="378.5" x2="375" y2= "378.5" />
  <line class="fil7 str4" x1="246.08" y1="352.98" x2="246.08" y2= "294" />
  <path class="fil8" d="M122 310.06l2.56 -0.25c0.15,0.85 0.46,1.48 0.93,1.88 0.46,0.4 1.1,0.6 1.89,0.6 0.84,0 1.48,-0.18 1.9,-0.54 0.43,-0.35 0.64,-0.77 0.64,-1.25 0,-0.3 -0.09,-0.56 -0.27,-0.78 -0.18,-0.22 -0.49,-0.4 -0.94,-0.56 -0.3,-0.11 -1,-0.3 -2.08,-0.57 -1.4,-0.35 -2.39,-0.78 -2.95,-1.29 -0.8,-0.71 -1.19,-1.59 -1.19,-2.62 0,-0.66 0.19,-1.28 0.56,-1.86 0.37,-0.58 0.91,-1.01 1.61,-1.32 0.71,-0.3 1.55,-0.45 2.55,-0.45 1.62,0 2.85,0.36 3.67,1.08 0.82,0.72 1.25,1.68 1.29,2.89l-2.63 0.09c-0.11,-0.67 -0.35,-1.15 -0.72,-1.44 -0.36,-0.3 -0.91,-0.44 -1.64,-0.44 -0.76,0 -1.35,0.15 -1.78,0.47 -0.27,0.2 -0.41,0.47 -0.41,0.81 0,0.31 0.13,0.57 0.39,0.79 0.33,0.28 1.13,0.57 2.4,0.87 1.27,0.3 2.21,0.61 2.82,0.93 0.61,0.33 1.09,0.76 1.43,1.32 0.35,0.56 0.52,1.25 0.52,2.07 0,0.74 -0.21,1.44 -0.62,2.09 -0.41,0.65 -1,1.13 -1.75,1.45 -0.76,0.31 -1.7,0.47 -2.83,0.47 -1.64,0 -2.9,-0.38 -3.78,-1.14 -0.88,-0.75 -1.4,-1.85 -1.57,-3.3zm21.08 -0.58l2.54 0.78c-0.39,1.43 -1.04,2.49 -1.95,3.18 -0.9,0.7 -2.05,1.04 -3.44,1.04 -1.73,0 -3.15,-0.59 -4.26,-1.76 -1.11,-1.18 -1.66,-2.79 -1.66,-4.84 0,-2.16 0.56,-3.84 1.67,-5.03 1.12,-1.2 2.58,-1.8 4.4,-1.8 1.59,0 2.88,0.47 3.87,1.41 0.59,0.56 1.04,1.35 1.33,2.4l-2.59 0.61c-0.16,-0.67 -0.48,-1.2 -0.96,-1.59 -0.49,-0.39 -1.08,-0.58 -1.78,-0.58 -0.96,0 -1.74,0.34 -2.34,1.04 -0.6,0.68 -0.9,1.8 -0.9,3.35 0,1.64 0.29,2.81 0.88,3.5 0.59,0.7 1.36,1.04 2.31,1.04 0.7,0 1.3,-0.22 1.8,-0.66 0.5,-0.44 0.86,-1.14 1.08,-2.09zm4.79 4.79l0 -12.98 9.6 0 0 2.19 -6.97 0 0 2.88 6.49 0 0 2.19 -6.49 0 0 3.52 7.23 0 0 2.2 -9.86 0zm12.09 0l0 -12.98 2.54 0 5.34 8.69 0 -8.69 2.43 0 0 12.98 -2.62 0 -5.26 -8.54 0 8.54 -2.43 0zm16.01 0l0 -10.79 -3.85 0 0 -2.19 10.3 0 0 2.19 -3.83 0 0 10.79 -2.62 0z"/>
  <path class="fil8" d="M252.61 313.87l0 -12.79 4.14 0c1.57,0 2.59,0.07 3.06,0.19 0.74,0.2 1.35,0.61 1.84,1.26 0.5,0.64 0.74,1.47 0.74,2.49 0,0.78 -0.14,1.44 -0.42,1.98 -0.29,0.53 -0.65,0.95 -1.08,1.26 -0.44,0.3 -0.89,0.5 -1.34,0.6 -0.62,0.12 -1.51,0.19 -2.67,0.19l-1.68 0 0 4.82 -2.59 0zm2.59 -10.63l0 3.65 1.41 0c1.01,0 1.69,-0.07 2.03,-0.21 0.34,-0.13 0.61,-0.34 0.8,-0.63 0.2,-0.28 0.29,-0.61 0.29,-0.99 0,-0.47 -0.13,-0.86 -0.4,-1.16 -0.28,-0.3 -0.62,-0.49 -1.04,-0.57 -0.31,-0.06 -0.92,-0.09 -1.85,-0.09l-1.24 0zm9.32 10.63l0 -12.79 5.44 0c1.36,0 2.36,0.12 2.98,0.35 0.62,0.23 1.11,0.63 1.48,1.22 0.38,0.59 0.56,1.26 0.56,2.02 0,0.96 -0.28,1.75 -0.84,2.37 -0.56,0.63 -1.4,1.02 -2.52,1.18 0.56,0.33 1.01,0.69 1.37,1.08 0.37,0.39 0.86,1.08 1.47,2.07l1.56 2.5 -3.09 0 -1.85 -2.79c-0.66,-0.99 -1.12,-1.62 -1.36,-1.88 -0.25,-0.25 -0.51,-0.43 -0.78,-0.53 -0.28,-0.09 -0.71,-0.14 -1.31,-0.14l-0.52 0 0 5.34 -2.59 0zm2.59 -7.38l1.91 0c1.24,0 2.01,-0.05 2.32,-0.15 0.3,-0.11 0.55,-0.29 0.72,-0.55 0.18,-0.25 0.26,-0.57 0.26,-0.96 0,-0.43 -0.11,-0.77 -0.34,-1.04 -0.23,-0.27 -0.56,-0.43 -0.97,-0.5 -0.21,-0.03 -0.84,-0.05 -1.89,-0.05l-2.01 0 0 3.25zm10.21 7.38l0 -12.79 2.6 0 0 12.79 -2.6 0zm4.38 -4.15l2.52 -0.25c0.15,0.85 0.45,1.46 0.91,1.86 0.46,0.39 1.09,0.59 1.87,0.59 0.82,0 1.45,-0.17 1.87,-0.52 0.42,-0.36 0.63,-0.77 0.63,-1.24 0,-0.3 -0.09,-0.56 -0.26,-0.77 -0.18,-0.21 -0.49,-0.4 -0.93,-0.55 -0.3,-0.11 -0.98,-0.29 -2.06,-0.56 -1.37,-0.35 -2.34,-0.77 -2.9,-1.27 -0.78,-0.71 -1.17,-1.57 -1.17,-2.58 0,-0.65 0.18,-1.27 0.55,-1.84 0.37,-0.56 0.9,-1 1.59,-1.29 0.7,-0.3 1.53,-0.45 2.51,-0.45 1.6,0 2.8,0.35 3.61,1.07 0.81,0.71 1.23,1.65 1.27,2.84l-2.58 0.09c-0.11,-0.66 -0.35,-1.13 -0.71,-1.42 -0.36,-0.29 -0.9,-0.44 -1.62,-0.44 -0.75,0 -1.33,0.16 -1.75,0.47 -0.27,0.2 -0.41,0.46 -0.41,0.8 0,0.3 0.13,0.56 0.39,0.77 0.32,0.28 1.11,0.56 2.36,0.86 1.26,0.3 2.18,0.61 2.78,0.92 0.6,0.32 1.07,0.75 1.41,1.3 0.34,0.55 0.51,1.23 0.51,2.04 0,0.73 -0.2,1.42 -0.61,2.06 -0.41,0.64 -0.98,1.11 -1.73,1.42 -0.74,0.32 -1.67,0.47 -2.78,0.47 -1.61,0 -2.86,-0.37 -3.72,-1.12 -0.87,-0.74 -1.38,-1.83 -1.55,-3.26zm12.59 4.15l0 -12.79 9.46 0 0 2.16 -6.87 0 0 2.84 6.39 0 0 2.16 -6.39 0 0 3.47 7.12 0 0 2.16 -9.71 0z"/>
  <path class="fil8" d="M251.15 342.91l2.67 -0.27c0.16,0.9 0.49,1.55 0.98,1.97 0.48,0.42 1.14,0.63 1.97,0.63 0.88,0 1.54,-0.19 1.99,-0.56 0.44,-0.37 0.67,-0.81 0.67,-1.31 0,-0.32 -0.1,-0.59 -0.28,-0.82 -0.19,-0.22 -0.52,-0.42 -0.99,-0.58 -0.31,-0.12 -1.04,-0.31 -2.18,-0.59 -1.46,-0.37 -2.48,-0.82 -3.07,-1.35 -0.83,-0.75 -1.24,-1.66 -1.24,-2.74 0,-0.69 0.19,-1.34 0.58,-1.94 0.39,-0.6 0.95,-1.06 1.69,-1.38 0.73,-0.31 1.62,-0.47 2.66,-0.47 1.69,0 2.97,0.38 3.82,1.13 0.86,0.75 1.31,1.76 1.36,3.02l-2.75 0.09c-0.12,-0.7 -0.37,-1.2 -0.75,-1.51 -0.38,-0.3 -0.95,-0.46 -1.72,-0.46 -0.79,0 -1.41,0.17 -1.85,0.49 -0.29,0.21 -0.43,0.5 -0.43,0.85 0,0.32 0.13,0.6 0.4,0.82 0.35,0.3 1.19,0.6 2.51,0.92 1.33,0.31 2.31,0.64 2.95,0.97 0.64,0.34 1.13,0.79 1.49,1.38 0.36,0.58 0.54,1.3 0.54,2.16 0,0.77 -0.21,1.5 -0.64,2.18 -0.44,0.68 -1.05,1.18 -1.83,1.51 -0.79,0.33 -1.78,0.5 -2.95,0.5 -1.72,0 -3.03,-0.4 -3.95,-1.19 -0.92,-0.79 -1.47,-1.94 -1.65,-3.45zm12.78 -2.3c0,-1.39 0.21,-2.55 0.62,-3.49 0.31,-0.69 0.73,-1.31 1.27,-1.86 0.53,-0.55 1.11,-0.96 1.75,-1.22 0.84,-0.36 1.82,-0.54 2.92,-0.54 2,0 3.6,0.62 4.8,1.86 1.2,1.24 1.8,2.97 1.8,5.18 0,2.2 -0.6,3.91 -1.78,5.15 -1.19,1.24 -2.79,1.86 -4.78,1.86 -2.01,0 -3.62,-0.62 -4.81,-1.85 -1.19,-1.23 -1.79,-2.93 -1.79,-5.09zm2.82 -0.1c0,1.54 0.36,2.71 1.07,3.5 0.71,0.79 1.61,1.19 2.71,1.19 1.09,0 1.99,-0.39 2.69,-1.18 0.7,-0.79 1.05,-1.97 1.05,-3.54 0,-1.56 -0.34,-2.72 -1.02,-3.48 -0.69,-0.77 -1.59,-1.15 -2.72,-1.15 -1.14,0 -2.05,0.38 -2.74,1.16 -0.69,0.77 -1.04,1.94 -1.04,3.5zm12.48 6.79l0 -13.55 2.66 0 5.57 9.08 0 -9.08 2.54 0 0 13.55 -2.74 0 -5.5 -8.91 0 8.91 -2.53 0z"/>
  <path class="fil8" d="M121.5 330.5l2.49 0c0.57,0 0.99,0.04 1.29,0.13 0.4,0.12 0.74,0.32 1.02,0.62 0.28,0.3 0.5,0.67 0.64,1.1 0.15,0.43 0.22,0.97 0.22,1.6 0,0.56 -0.06,1.04 -0.2,1.44 -0.17,0.5 -0.41,0.89 -0.73,1.2 -0.23,0.23 -0.55,0.41 -0.95,0.54 -0.31,0.1 -0.71,0.14 -1.21,0.14l-2.57 0 0 -6.77zm1.37 1.15l0 4.48 1.02 0c0.38,0 0.65,-0.02 0.82,-0.07 0.22,-0.05 0.41,-0.15 0.55,-0.28 0.15,-0.13 0.27,-0.35 0.36,-0.65 0.09,-0.3 0.14,-0.72 0.14,-1.24 0,-0.53 -0.05,-0.93 -0.14,-1.21 -0.09,-0.28 -0.22,-0.49 -0.39,-0.65 -0.17,-0.16 -0.38,-0.27 -0.63,-0.32 -0.19,-0.04 -0.56,-0.06 -1.12,-0.06l-0.61 0zm11.56 5.62l-1.48 0 -0.58 -1.54 -2.72 0 -0.56 1.54 -1.45 0 2.63 -6.77 1.45 0 2.71 6.77zm-2.51 -2.68l-0.94 -2.51 -0.91 2.51 1.85 0zm4.06 2.68l0 -5.62 -2 0 0 -1.15 5.37 0 0 1.15 -2 0 0 5.62 -1.37 0zm4.26 0l0 -6.77 5.01 0 0 1.15 -3.64 0 0 1.5 3.38 0 0 1.14 -3.38 0 0 1.84 3.77 0 0 1.14 -5.14 0z"/>
  <path class="fil8" d="M121.24 372.15l0 -13.41 5.7 0c1.43,0 2.48,0.12 3.13,0.36 0.65,0.25 1.17,0.67 1.55,1.29 0.4,0.62 0.59,1.32 0.59,2.11 0,1.01 -0.29,1.84 -0.88,2.49 -0.59,0.66 -1.47,1.07 -2.64,1.24 0.58,0.34 1.06,0.71 1.44,1.12 0.38,0.41 0.89,1.14 1.53,2.18l1.64 2.62 -3.24 0 -1.94 -2.93c-0.69,-1.04 -1.17,-1.7 -1.43,-1.97 -0.26,-0.26 -0.53,-0.45 -0.81,-0.55 -0.29,-0.1 -0.75,-0.15 -1.37,-0.15l-0.55 0 0 5.6 -2.72 0zm2.72 -7.74l2 0c1.3,0 2.11,-0.05 2.43,-0.16 0.32,-0.11 0.58,-0.3 0.76,-0.57 0.18,-0.27 0.27,-0.6 0.27,-1.01 0,-0.45 -0.12,-0.81 -0.36,-1.09 -0.24,-0.28 -0.58,-0.45 -1.02,-0.53 -0.22,-0.03 -0.88,-0.04 -1.97,-0.04l-2.11 0 0 3.4zm10.8 7.74l0 -13.41 9.92 0 0 2.27 -7.21 0 0 2.98 6.71 0 0 2.26 -6.71 0 0 3.63 7.47 0 0 2.27 -10.18 0zm24.56 0l-2.93 0 -1.15 -3.06 -5.38 0 -1.11 3.06 -2.87 0 5.2 -13.41 2.87 0 5.37 13.41zm-4.96 -5.32l-1.87 -4.96 -1.8 4.96 3.67 0zm6.48 5.32l0 -13.29 2.71 0 0 11.02 6.72 0 0 2.27 -9.43 0zm11.26 0l0 -13.41 2.72 0 0 13.41 -2.72 0zm4.59 -4.35l2.63 -0.26c0.16,0.88 0.48,1.53 0.97,1.94 0.48,0.42 1.13,0.63 1.95,0.63 0.87,0 1.52,-0.19 1.96,-0.56 0.44,-0.37 0.66,-0.8 0.66,-1.29 0,-0.32 -0.09,-0.59 -0.27,-0.81 -0.19,-0.22 -0.51,-0.41 -0.97,-0.58 -0.32,-0.11 -1.04,-0.3 -2.16,-0.58 -1.44,-0.37 -2.46,-0.81 -3.04,-1.34 -0.82,-0.73 -1.23,-1.64 -1.23,-2.7 0,-0.68 0.19,-1.33 0.58,-1.92 0.38,-0.6 0.94,-1.05 1.67,-1.36 0.72,-0.31 1.6,-0.47 2.63,-0.47 1.67,0 2.93,0.37 3.78,1.12 0.85,0.74 1.29,1.73 1.34,2.98l-2.72 0.09c-0.11,-0.69 -0.36,-1.19 -0.74,-1.49 -0.38,-0.3 -0.94,-0.45 -1.7,-0.45 -0.78,0 -1.39,0.16 -1.83,0.48 -0.28,0.21 -0.43,0.49 -0.43,0.84 0,0.32 0.14,0.59 0.41,0.81 0.34,0.29 1.16,0.59 2.48,0.9 1.31,0.31 2.28,0.64 2.91,0.97 0.63,0.33 1.12,0.78 1.48,1.36 0.35,0.58 0.53,1.29 0.53,2.14 0,0.76 -0.21,1.48 -0.64,2.15 -0.43,0.68 -1.03,1.17 -1.81,1.5 -0.78,0.33 -1.75,0.49 -2.92,0.49 -1.69,0 -2.99,-0.39 -3.9,-1.17 -0.91,-0.78 -1.45,-1.92 -1.62,-3.42zm25.26 4.35l-2.92 0 -1.16 -3.06 -5.37 0 -1.12 3.06 -2.86 0 5.2 -13.41 2.87 0 5.36 13.41zm-4.96 -5.32l-1.86 -4.96 -1.81 4.96 3.67 0zm8.03 5.32l0 -11.14 -3.97 0 0 -2.27 10.64 0 0 2.27 -3.95 0 0 11.14 -2.72 0zm8.42 0l0 -13.41 9.92 0 0 2.27 -7.2 0 0 2.98 6.7 0 0 2.26 -6.7 0 0 3.63 7.47 0 0 2.27 -10.19 0zm12.49 -13.41l2.71 0 0 7.27c0,1.15 0.04,1.9 0.1,2.24 0.12,0.54 0.39,0.99 0.82,1.32 0.43,0.33 1.02,0.5 1.77,0.5 0.76,0 1.33,-0.16 1.72,-0.47 0.39,-0.32 0.62,-0.7 0.7,-1.16 0.07,-0.46 0.11,-1.22 0.11,-2.28l0 -7.42 2.72 0 0 7.05c0,1.61 -0.07,2.75 -0.22,3.41 -0.15,0.67 -0.41,1.23 -0.81,1.69 -0.39,0.46 -0.91,0.82 -1.57,1.09 -0.65,0.27 -1.51,0.41 -2.57,0.41 -1.27,0 -2.24,-0.15 -2.9,-0.44 -0.66,-0.3 -1.18,-0.68 -1.56,-1.16 -0.39,-0.47 -0.63,-0.97 -0.76,-1.49 -0.17,-0.76 -0.26,-1.9 -0.26,-3.4l0 -7.16zm13.52 13.41l0 -13.41 5.7 0c1.43,0 2.47,0.12 3.12,0.36 0.65,0.25 1.17,0.67 1.56,1.29 0.39,0.62 0.58,1.32 0.58,2.11 0,1.01 -0.29,1.84 -0.88,2.49 -0.59,0.66 -1.47,1.07 -2.64,1.24 0.58,0.34 1.06,0.71 1.44,1.12 0.38,0.41 0.89,1.14 1.54,2.18l1.63 2.62 -3.24 0 -1.94 -2.93c-0.69,-1.04 -1.17,-1.7 -1.43,-1.97 -0.25,-0.26 -0.53,-0.45 -0.81,-0.55 -0.29,-0.1 -0.75,-0.15 -1.37,-0.15l-0.55 0 0 5.6 -2.71 0zm2.71 -7.74l2 0c1.3,0 2.11,-0.05 2.43,-0.16 0.32,-0.11 0.58,-0.3 0.76,-0.57 0.19,-0.27 0.27,-0.6 0.27,-1.01 0,-0.45 -0.12,-0.81 -0.36,-1.09 -0.24,-0.28 -0.58,-0.45 -1.01,-0.53 -0.23,-0.03 -0.88,-0.04 -1.98,-0.04l-2.11 0 0 3.4z"/>
  <path class="fil8" d="M129.74 392.87l2.52 0.78c-0.39,1.42 -1.04,2.47 -1.94,3.16 -0.9,0.69 -2.04,1.03 -3.42,1.03 -1.71,0 -3.12,-0.58 -4.23,-1.75 -1.1,-1.17 -1.65,-2.77 -1.65,-4.8 0,-2.15 0.56,-3.82 1.66,-5.01 1.11,-1.19 2.57,-1.78 4.38,-1.78 1.57,0 2.85,0.47 3.84,1.4 0.59,0.55 1.02,1.35 1.32,2.38l-2.57 0.61c-0.16,-0.66 -0.48,-1.19 -0.96,-1.58 -0.49,-0.38 -1.07,-0.58 -1.76,-0.58 -0.96,0 -1.74,0.35 -2.33,1.03 -0.6,0.69 -0.9,1.8 -0.9,3.33 0,1.63 0.3,2.79 0.88,3.48 0.59,0.69 1.35,1.04 2.29,1.04 0.7,0 1.29,-0.22 1.79,-0.66 0.5,-0.44 0.86,-1.13 1.08,-2.08zm16.36 4.76l-2.81 0 -1.11 -2.94 -5.17 0 -1.07 2.94 -2.76 0 5 -12.9 2.76 0 5.16 12.9zm-4.77 -5.12l-1.79 -4.77 -1.74 4.77 3.53 0zm6.13 5.12l0 -12.9 3.91 0 2.31 8.8 2.28 -8.8 3.92 0 0 12.9 -2.41 0 -0.01 -10.15 -2.54 10.15 -2.51 0 -2.53 -10.15 -0.01 10.15 -2.41 0zm15.03 0l0 -12.9 9.54 0 0 2.18 -6.93 0 0 2.87 6.45 0 0 2.17 -6.45 0 0 3.5 7.18 0 0 2.18 -9.79 0zm12.01 0l0 -12.9 5.48 0c1.38,0 2.38,0.12 3,0.35 0.63,0.23 1.13,0.64 1.5,1.24 0.38,0.59 0.57,1.27 0.57,2.03 0,0.97 -0.28,1.76 -0.85,2.4 -0.57,0.62 -1.41,1.02 -2.54,1.19 0.56,0.32 1.02,0.68 1.38,1.08 0.37,0.39 0.86,1.09 1.48,2.09l1.57 2.52 -3.11 0 -1.87 -2.82c-0.67,-1 -1.12,-1.63 -1.37,-1.89 -0.25,-0.26 -0.51,-0.44 -0.79,-0.53 -0.28,-0.1 -0.71,-0.15 -1.31,-0.15l-0.53 0 0 5.39 -2.61 0zm2.61 -7.44l1.92 0c1.25,0 2.03,-0.05 2.34,-0.16 0.31,-0.1 0.56,-0.29 0.73,-0.54 0.18,-0.26 0.27,-0.59 0.27,-0.97 0,-0.44 -0.12,-0.79 -0.35,-1.06 -0.23,-0.27 -0.56,-0.43 -0.98,-0.5 -0.21,-0.03 -0.85,-0.05 -1.9,-0.05l-2.03 0 0 3.28zm22 7.44l-2.81 0 -1.11 -2.94 -5.17 0 -1.07 2.94 -2.77 0 5.01 -12.9 2.76 0 5.16 12.9zm-4.77 -5.12l-1.79 -4.77 -1.74 4.77 3.53 0zm6.13 5.12l0 -12.9 3.91 0 2.31 8.8 2.28 -8.8 3.92 0 0 12.9 -2.41 0 -0.01 -10.15 -2.55 10.15 -2.5 0 -2.53 -10.15 -0.01 10.15 -2.41 0zm26.64 0l-2.81 0 -1.11 -2.94 -5.17 0 -1.08 2.94 -2.76 0 5.01 -12.9 2.76 0 5.16 12.9zm-4.77 -5.12l-1.79 -4.77 -1.74 4.77 3.53 0zm6.16 5.12l0 -12.9 2.53 0 5.3 8.64 0 -8.64 2.41 0 0 12.9 -2.6 0 -5.23 -8.48 0 8.48 -2.41 0z"/>
 </g>
</svg>
