<?xml version="1.0" encoding="UTF-8"?>
<!DOCTYPE svg PUBLIC "-//W3C//DTD SVG 1.1//EN" "http://www.w3.org/Graphics/SVG/1.1/DTD/svg11.dtd">
<!-- Creator: CorelDRAW 2017 -->
<svg xmlns="http://www.w3.org/2000/svg" xml:space="preserve" width="500px" height="500px" version="1.1" style="shape-rendering:geometricPrecision; text-rendering:geometricPrecision; image-rendering:optimizeQuality; fill-rule:evenodd; clip-rule:evenodd"
viewBox="0 0 500 500"
 xmlns:xlink="http://www.w3.org/1999/xlink">
 <defs>
  <style type="text/css">
   <![CDATA[
    .str0 {stroke:#575757;stroke-width:20;stroke-miterlimit:22.9256}
    .fil0 {fill:#FA2525}
    .fil2 {fill:#FEFEFE}
    .fil1 {fill:#FEFEFE;fill-rule:nonzero}
   ]]>
  </style>
 </defs>
 <g id="Слой_x0020_1">
  <metadata id="CorelCorpID_0Corel-Layer"/>
  <circle class="fil0 str0" cx="250" cy="250" r="231.53"/>
  <path class="fil1" d="M170.73 375.09l-15.51 0 -6.13 -16.18 -28.52 0 -5.9 16.18 -15.22 0 27.6 -71.09 15.21 0 28.47 71.09zm-26.31 -28.2l-9.88 -26.31 -9.6 26.31 19.48 0zm44.79 28.2l-25.43 -71.09 15.56 0 18.04 52.62 17.33 -52.62 15.29 0 -25.29 71.09 -15.5 0 0 0zm47.54 0l0 -71.09 14.39 0 0 71.09 -14.39 0zm28.07 0l0 -71.09 30.23 0c7.6,0 13.13,0.65 16.57,1.92 3.45,1.28 6.2,3.55 8.27,6.8 2.06,3.28 3.11,7 3.11,11.21 0,5.34 -1.55,9.74 -4.68,13.21 -3.13,3.48 -7.79,5.66 -14.02,6.57 3.1,1.81 5.64,3.8 7.65,5.96 2.01,2.16 4.73,6.03 8.14,11.55l8.66 13.87 -17.15 0 -10.3 -15.52c-3.68,-5.51 -6.21,-8.99 -7.59,-10.42 -1.35,-1.43 -2.79,-2.43 -4.32,-2.95 -1.54,-0.53 -3.95,-0.8 -7.25,-0.8l-2.92 0 0 29.69 -14.4 0 0 0zm14.4 -41l10.62 0c6.89,0 11.17,-0.3 12.89,-0.88 1.7,-0.58 3.06,-1.59 4.02,-3.02 0.98,-1.41 1.45,-3.2 1.45,-5.34 0,-2.4 -0.64,-4.32 -1.91,-5.8 -1.27,-1.47 -3.08,-2.41 -5.39,-2.78 -1.18,-0.17 -4.67,-0.25 -10.48,-0.25l-11.2 0 0 18.07 0 0zm121.33 41l-15.51 0 -6.13 -16.18 -28.51 0 -5.91 16.18 -15.22 0 27.6 -71.09 15.21 0 28.47 71.09zm-26.31 -28.2l-9.88 -26.31 -9.59 26.31 19.47 0z"/>
  <g id="_2960971839424">
   <path class="fil2" d="M329.7 118.81l-66.18 65.91 47.34 50.4c2.2,3.23 5.91,5.35 10.12,5.35 6.77,0 12.26,-5.49 12.26,-12.26 0,-4.03 -1.94,-7.62 -4.94,-9.85l18.13 -17.53c7.36,6.85 11.93,16.62 11.93,27.46 0,20.71 -16.79,37.49 -37.5,37.49 -12.14,0 -22.94,-5.77 -29.79,-14.72l-45.51 -48.46 84.14 -83.79 0 0zm-84.14 83.79l-72.02 71.72c-19.72,-19.9 -31.9,-47.29 -31.9,-77.53 0,-60.87 49.34,-110.2 110.2,-110.2 30.39,0 57.92,12.31 77.86,32.22l-84.14 83.78 0 0.01zm41.01 -80.56l-109.62 109.17c-4.82,-10.48 -7.51,-22.13 -7.51,-34.42 0,-45.51 36.89,-82.4 82.4,-82.4 12.41,0 24.18,2.74 34.73,7.65z"/>
  </g>
 </g>
</svg>
