<?xml version="1.0" encoding="UTF-8"?>
<!DOCTYPE svg PUBLIC "-//W3C//DTD SVG 1.1//EN" "http://www.w3.org/Graphics/SVG/1.1/DTD/svg11.dtd">
<!-- Creator: CorelDRAW X7 -->
<svg xmlns="http://www.w3.org/2000/svg" xml:space="preserve" width="100px" height="100px" version="1.1" style="shape-rendering:geometricPrecision; text-rendering:geometricPrecision; image-rendering:optimizeQuality; fill-rule:evenodd; clip-rule:evenodd"
viewBox="0 0 100 100"
 xmlns:xlink="http://www.w3.org/1999/xlink">
 <defs>
  <style type="text/css">
   <![CDATA[
    .str0 {stroke:black;stroke-width:3.00002}
    .fil0 {fill:black}
   ]]>
  </style>
 </defs>
 <g id="Слой_x0020_1">
  <metadata id="CorelCorpID_0Corel-Layer"/>
  <g id="_2421777861872">
   <path class="fil0 str0" d="M15 47l35 -36c2,-2 5,-2 7,0 2,2 2,5 0,7l-32 33 33 31c2,2 2,5 0,7 -2,2 -5,2 -7,0l-35 -34c-2,-2 -3,-6 -1,-8z"/>
   <path class="fil0 str0" d="M42 47l35 -36c1,-2 4,-2 6,0 2,2 2,5 0,7l-31 33 33 31c1,2 1,5 0,7 -2,2 -5,2 -7,0l-36 -34c-2,-2 -2,-6 0,-8z"/>
  </g>
 </g>
</svg>
