<?xml version="1.0" encoding="UTF-8"?>
<!DOCTYPE svg PUBLIC "-//W3C//DTD SVG 1.1//EN" "http://www.w3.org/Graphics/SVG/1.1/DTD/svg11.dtd">
<!-- Creator: CorelDRAW 2017 -->
<svg xmlns="http://www.w3.org/2000/svg" xml:space="preserve" width="500px" height="500px" version="1.1" style="shape-rendering:geometricPrecision; text-rendering:geometricPrecision; image-rendering:optimizeQuality; fill-rule:evenodd; clip-rule:evenodd"
viewBox="0 0 500 500"
 xmlns:xlink="http://www.w3.org/1999/xlink">
 <defs>
  <style type="text/css">
   <![CDATA[
    .str0 {stroke:#0082EF;stroke-width:25;stroke-miterlimit:22.9256}
    .fil1 {fill:#0082EF}
    .fil2 {fill:#56575A}
    .fil0 {fill:white}
    .fil3 {fill:#DE1010;fill-rule:nonzero}
   ]]>
  </style>
 </defs>
 <g id="Слой_x0020_1">
  <metadata id="CorelCorpID_0Corel-Layer"/>
  <circle class="fil0 str0" cx="250" cy="250" r="232.45"/>
 </g>
 <g id="Слой_x0020_1_0">
  <metadata id="CorelCorpID_1Corel-Layer"/>
  <path class="fil1" d="M251.38 220.27c0.39,2 1.26,2.06 1.49,5.31 0.15,2.2 0,4.83 -0.01,7.08 0,3.71 -0.61,11.04 -0.48,13.29 -0.25,4.48 -4.81,6.47 -8.95,6.63l-14.41 -0.27c0,0 0.05,-35.87 0.05,-35.87 0,0 21.09,-1.42 22.31,3.83zm-22.58 -34.1l0.2 -33.17c23.5,0 23.5,0.5 23.49,19.14 0.02,6.55 -0.58,11.49 -5.68,13.37 -2.94,1.08 -14.21,0.91 -18.01,0.66zm-95.63 98.51l123.17 0.15c21.42,0.02 36.49,-10.91 36.49,-32.19l0 -27.03c0,-23.39 -21.98,-22.74 -25.91,-25.09 5.73,-0.69 12.97,-4.14 16.1,-6.98 8.44,-7.64 6.31,-24.44 6.31,-37.85 0.01,-24.99 -13.46,-30.53 -35.93,-30.52l-117.75 0.1 26.99 27.16c2.91,3.01 5.93,5.79 9.08,9.14 6.06,6.44 12.23,12.01 18.22,18.2 5.85,6.04 11.57,13.45 10.71,26.47 -0.77,11.52 -6.64,17.16 -13.06,23.49 -6.91,6.83 -12.7,12.74 -18.22,18.21l-36.2 36.74z"/>
  <path class="fil1" d="M353.3 252.47c-6.63,0.13 -39.96,-0.42 -39.96,-0.42 0,0 0,31.73 0,31.73 0,0 52.47,-0.01 61.11,-0.25 10.18,-0.28 20.3,-0.97 28.19,-8.57 11.01,-10.61 8.91,-25.57 8.92,-40.53 0.01,-25.88 0.73,-36.3 -21.97,-43.38 -8.4,-2.62 -17.12,-4.92 -25.58,-7.31 -10.7,-3.04 -16.4,-3.48 -15.81,-16.33 0.55,-11.81 12.13,-9.23 23.31,-9.23 10.2,0 22.4,0.61 32.4,-0.14l-0.09 -32.79c-27.23,0.29 -77.4,-7.94 -92.75,16.44 -5.18,8.22 -2.63,22.55 -2.63,33.39 -0.01,12.49 -0.94,22.79 6.26,30.37 11.4,11.99 34.04,12.8 51.44,20.82 5.94,2.73 5,5.96 5.01,13.44 0.02,13.46 -7.24,12.57 -17.85,12.76z"/>
  <path class="fil2" d="M97.21 284.23c2.79,-3.03 4.82,-4.64 8.11,-8.08 7.39,-7.72 16.47,-16.03 23.71,-23.9 1.39,-1.52 2.8,-2.29 4.29,-3.93l27.8 -28.03c18.93,-18.85 18.99,-14.27 -1.33,-34.46 -10.74,-10.68 -21.55,-21.16 -31.99,-32.06 -5.42,-5.67 -10.45,-10.7 -15.97,-16.32 -11.52,-11.72 -11,-13.67 -18.8,-10.54 -6.91,2.77 -13.04,9.23 -14.67,17.69 -1.2,6.18 -0.44,85.02 -0.44,95.11 0,8.84 -1.13,22.83 1.85,30.26 2.6,6.48 9.41,12.89 17.44,14.26z"/>
  <path class="fil3" d="M166.71 370.3c0,3.14 -1.19,5.78 -3.59,7.87 -2.4,2.11 -5.4,3.16 -8.97,3.16l-13.05 0 0 19.28 -8 0 0 -70.16 8 0 0 1.43c3.12,-0.36 6.24,-0.69 9.36,-1.05 3.94,-0.46 7.04,-0.7 9.27,-0.7 4.66,0 6.98,2.02 6.98,6.07l0 34.1zm-8 -0.93l0 -32.7 -17.61 0.46 0 38.1 11.06 0c4.37,0 6.55,-1.95 6.55,-5.86zm29.17 11.96l-7.88 0 0 -81.83 7.88 0 0 81.83zm46.67 0l-7.88 0 0 -1.39c-3.16,0.37 -6.31,0.75 -9.5,1.09 -3.91,0.41 -7.07,0.62 -9.45,0.62 -4.35,0 -6.53,-2.01 -6.53,-6.07l0 -17.96c0.04,-4.01 2.18,-6.03 6.38,-6.07l19.23 0 0 -15.31 -17.24 0 0 8.57 -7.75 0 0 -8.47c0.04,-3.9 2.15,-5.87 6.36,-5.89l19.4 0c4.64,0.02 6.96,2 6.98,5.97l0 44.91zm-7.75 -6.32l0 -17.99 -17.85 0 0 18.31 17.85 -0.32zm53.67 -44.56l-14.04 50.45 -5.78 19.71 -7.88 0 5.91 -19.71 -14.4 -50.45 8.24 0 9.91 40.06 10.03 -40.06 8.01 0zm42.61 44.94c-0.05,3.94 -2.36,5.92 -6.98,5.94l-18.79 0c-4.62,0 -6.94,-2.01 -6.98,-6.07l0 -38.74c0.04,-4.05 2.36,-6.07 6.98,-6.07l18.79 0c4.62,0 6.95,2.02 6.98,6.07l0 18.14 -2.71 2.47 -22.28 0 0 18.42 17.23 0 0 -9.43 7.76 0 0 9.27zm-7.76 -23.84l0 -15.31 -17.23 0 0 15.31 17.23 0zm51.58 -4.28l-7.88 0 0 -10.6 -14.77 0.44 0 44.22 -8 0 0 -50.88 8 0 0 1.43c2.64,-0.36 5.31,-0.71 8,-1.1 3.2,-0.43 5.87,-0.65 8,-0.65 4.41,0 6.63,2.02 6.65,6.07l0 11.07z"/>
 </g>
</svg>
