<?xml version="1.0" encoding="UTF-8"?>
<!DOCTYPE svg PUBLIC "-//W3C//DTD SVG 1.1//EN" "http://www.w3.org/Graphics/SVG/1.1/DTD/svg11.dtd">
<!-- Creator: CorelDRAW 2017 -->
<svg xmlns="http://www.w3.org/2000/svg" xml:space="preserve" width="500px" height="500px" version="1.1" style="shape-rendering:geometricPrecision; text-rendering:geometricPrecision; image-rendering:optimizeQuality; fill-rule:evenodd; clip-rule:evenodd"
viewBox="0 0 500 500"
 xmlns:xlink="http://www.w3.org/1999/xlink">
 <defs>
  <style type="text/css">
   <![CDATA[
    .str1 {stroke:#F20000;stroke-width:10;stroke-miterlimit:22.9256}
    .str0 {stroke:#F20000;stroke-width:20;stroke-miterlimit:22.9256}
    .fil4 {fill:#2980B9}
    .fil5 {fill:#3498DB}
    .fil2 {fill:#F1C30F}
    .fil1 {fill:#F20000}
    .fil3 {fill:#F39C12}
    .fil0 {fill:white}
   ]]>
  </style>
 </defs>
 <g id="Слой_x0020_1">
  <metadata id="CorelCorpID_0Corel-Layer"/>
  <g id="_2298557257424">
   <circle class="fil0 str0" cx="249.4" cy="250" r="208.1"/>
   <g>
    <path class="fil1 str1" d="M399.48 324.18l-47.69 -26.51 -29.35 -16.32c-12.46,24.5 -37.91,41.28 -67.28,41.28 -41.66,0 -75.43,-33.77 -75.43,-75.43 0,-41.66 33.77,-75.44 75.43,-75.44 29.4,0 54.87,16.82 67.32,41.36l29.31 -16.29 47.73 -26.53c-27.52,-51.55 -81.84,-86.63 -144.36,-86.63 -90.31,0 -163.52,73.21 -163.52,163.53 0,90.31 73.21,163.53 163.52,163.53 62.49,0 116.79,-35.05 144.32,-86.55z"/>
    <g>
     <path class="fil2" d="M29.32 328.66c-1.63,0.44 -19.76,3.01 -19.87,3.18 -3.06,14.12 24.85,50.58 35.58,58.15 5.71,-1.03 22.5,-6.73 22.9,-6.77 -0.3,0.38 -0.77,1.33 -1.16,1.89 -1.13,1.63 -9.87,13.78 -9.89,14.37 8.24,4.34 18.26,11.13 28.35,16.48 4.59,-1.38 23.13,-17.84 28.43,-22.15 5.47,-4.46 14.14,-13.77 19.13,-18.79l11.86 -13.5c1.84,-2.46 3.69,-4.58 5.66,-7.14 3.55,-4.61 7.16,-9.67 10.5,-14.87 5.16,-8.05 9.51,-15.52 13.61,-24.28 1.1,-2.35 3.36,-6.63 3.9,-9.06 -3.06,-1.53 -29.31,-18.33 -33.63,-20.95l-33.68 -20.94c-0.54,0.23 -3.57,4.48 -4.22,5.34 -18.54,24.29 -48.93,51.4 -77.47,59.04z"/>
     <path class="fil3" d="M85.23 415.96c2.11,0.58 26.01,0.07 32.05,0.11 3.04,0.02 3.02,-0.39 4.93,-1.68 1.35,-0.94 6.22,-5.34 6.73,-5.57 -0.93,3.38 -3.37,5.89 -3.96,7.51 4.38,-1.4 25.89,0.8 29.32,-0.73 18.28,-14.15 50.3,-50.76 66.17,-100.91l-42 -8.44 -0.15 -0.08c-0.54,2.43 -2.8,6.71 -3.9,9.06 -4.1,8.76 -8.45,16.23 -13.61,24.28 -3.34,5.2 -6.95,10.26 -10.5,14.87 -1.97,2.56 -3.82,4.68 -5.66,7.14l-11.86 13.5c-4.99,5.02 -13.66,14.33 -19.13,18.79 -5.3,4.31 -23.84,20.77 -28.43,22.15z"/>
     <path class="fil4" d="M169.7 242.48c6.74,2.57 13.43,5.24 20.17,7.82 4.01,1.54 6.35,2.58 7.64,6.41 1.38,4.14 -0.94,7.38 -2.32,10.62 -2.8,6.58 -5.5,12.88 -8.4,19.53 -1.4,3.22 -2.79,6.42 -4.17,9.65 -1.31,3.07 -3.18,6.73 -4.15,9.74l42 8.44c0.93,-1.02 8.96,-42.81 8.74,-46.11 -0.28,-4.02 -2.78,-5.67 -6.02,-7.04 -7.44,-2.74 -18.88,-6.15 -26.27,-9.56 14.53,-35.74 29.87,-71.15 44.33,-106.93 0.92,-2.27 1.79,-4.51 2.67,-6.78 1.07,-2.74 2.33,-3.91 1.87,-7.48 -0.65,-5.03 -4.22,-8.83 -9.01,-9.85 -10.37,-2.21 -13.2,7 -15.66,12.45l-8.97 19.22c-5.92,12.59 -12.05,26.3 -18.03,38.6 -8,16.44 -15.57,33.35 -23.3,49.96 -0.61,1.31 -0.63,1.14 -1.12,1.31z"/>
     <path class="fil5" d="M111.01 264.28c20.18,12.54 47.26,31.81 67.31,41.89l0.15 0.08c3.6,-11.18 21.64,-41.66 19.25,-48.77 -1.28,-3.83 -1.73,-4.78 -7.85,-7.18 -15.71,-6.03 -32.09,-13.43 -47.75,-18.6 -3.61,-1.2 -7.92,1.2 -9.34,2.93 -2.88,3.48 -21.5,28.8 -21.77,29.65z"/>
    </g>
   </g>
  </g>
 </g>
</svg>
