<?xml version="1.0" encoding="UTF-8"?>
<!DOCTYPE svg PUBLIC "-//W3C//DTD SVG 1.1//EN" "http://www.w3.org/Graphics/SVG/1.1/DTD/svg11.dtd">
<!-- Creator: CorelDRAW 2017 -->
<svg xmlns="http://www.w3.org/2000/svg" xml:space="preserve" width="500px" height="500px" version="1.1" style="shape-rendering:geometricPrecision; text-rendering:geometricPrecision; image-rendering:optimizeQuality; fill-rule:evenodd; clip-rule:evenodd"
viewBox="0 0 500 500"
 xmlns:xlink="http://www.w3.org/1999/xlink">
 <defs>
  <style type="text/css">
   <![CDATA[
    .str0 {stroke:#4A4A4A;stroke-width:6;stroke-miterlimit:22.9256}
    .fil4 {fill:#2EA700}
    .fil5 {fill:#4A4A4A}
    .fil0 {fill:#7293DB}
    .fil3 {fill:#7293DB}
    .fil2 {fill:#9A9A9A}
    .fil1 {fill:whitesmoke}
    .fil6 {fill:#4A4A4A;fill-rule:nonzero}
   ]]>
  </style>
 </defs>
 <g id="Слой_x0020_1">
  <metadata id="CorelCorpID_0Corel-Layer"/>
  <circle class="fil0" cx="250" cy="250" r="236"/>
  <path class="fil1 str0" d="M250 82c-92.78,0 -168,75.22 -168,168 0,92.78 75.22,168 168,168 92.78,0 168,-75.22 168,-168 0,-92.78 -75.22,-168 -168,-168z"/>
  <path class="fil2" d="M250 208.5c22.92,0 41.5,18.58 41.5,41.5 0,22.92 -18.58,41.5 -41.5,41.5 -22.92,0 -41.5,-18.58 -41.5,-41.5 0,-22.92 18.58,-41.5 41.5,-41.5z"/>
  <path class="fil3" d="M250 230.89c10.55,0 19.11,8.56 19.11,19.11 0,10.55 -8.56,19.11 -19.11,19.11 -10.55,0 -19.11,-8.56 -19.11,-19.11 0,-10.55 8.56,-19.11 19.11,-19.11z"/>
  <path class="fil4" d="M220.94 412.57c9.53,1.73 19.35,2.61 29.39,2.64 91.36,0.27 165.39,-74.14 164.88,-166.6 -0.51,-91.1 -72.47,-162.07 -162.29,-163.52 47.5,35.04 78.44,88.68 78.44,152.65 0,77.44 -45.21,144.21 -110.42,174.83z"/>
  <path class="fil5" d="M260.61 106.69c14.03,2.95 20.62,12.22 19.91,25.29 -0.81,14.89 -12.69,34.36 -24.93,51 7.11,-19.72 19.69,-65.85 5.02,-76.29z"/>
  <path class="fil5" d="M240.86 106.69c-14.03,2.95 -20.62,12.22 -19.91,25.29 0.81,14.89 12.39,34.5 24.64,51.14 -7.11,-19.71 -19.4,-65.99 -4.73,-76.43z"/>
  <path class="fil5" d="M241.16 183.7c-18.23,-21.73 -43.97,-55.83 -15.01,-73.48 -22.85,21.31 -0.64,49.92 15.01,73.48z"/>
  <path class="fil5" d="M260.17 183.7c18.22,-21.73 43.97,-55.83 15.01,-73.48 22.84,21.31 0.64,49.92 -15.01,73.48z"/>
  <polygon class="fil4" points="242.9,189.15 257.1,189.15 255.07,199.1 245.24,199.1 "/>
  <path class="fil5" d="M251.91 182.68c12.21,-45.36 12.51,-76.12 -0.8,-76.42 -0.74,-0.01 -1.61,-0.01 -2.35,0 -13.31,0.28 -12.44,31.06 -0.23,76.42l3.38 0z"/>
  <path class="fil6" d="M128.13 318.32l2.78 0.82c-0.58,2.66 -1.62,4.68 -3.13,6.07 -1.51,1.4 -3.35,2.1 -5.53,2.1 -2.25,0 -4.08,-0.54 -5.5,-1.61 -1.41,-1.07 -2.48,-2.63 -3.22,-4.66 -0.73,-2.04 -1.11,-4.22 -1.11,-6.56 0,-2.54 0.42,-4.76 1.25,-6.66 0.84,-1.89 2.02,-3.33 3.56,-4.32 1.53,-0.98 3.22,-1.47 5.07,-1.47 2.09,0 3.85,0.62 5.28,1.87 1.42,1.24 2.42,2.99 2.98,5.24l-2.72 0.76c-0.48,-1.78 -1.19,-3.08 -2.11,-3.89 -0.92,-0.81 -2.08,-1.22 -3.48,-1.22 -1.61,0 -2.95,0.45 -4.03,1.35 -1.08,0.9 -1.84,2.12 -2.27,3.63 -0.44,1.52 -0.66,3.09 -0.66,4.7 0,2.08 0.26,3.89 0.78,5.44 0.51,1.56 1.32,2.71 2.41,3.48 1.09,0.77 2.27,1.15 3.54,1.15 1.55,0 2.86,-0.52 3.93,-1.57 1.08,-1.04 1.8,-2.59 2.18,-4.65zm4.92 -0.29c0,-3.27 0.78,-5.7 2.34,-7.27 1.31,-1.31 2.9,-1.97 4.78,-1.97 2.08,0 3.79,0.8 5.11,2.39 1.32,1.59 1.99,3.8 1.99,6.6 0,2.28 -0.3,4.07 -0.88,5.37 -0.59,1.3 -1.44,2.32 -2.56,3.04 -1.12,0.72 -2.34,1.08 -3.66,1.08 -2.13,0 -3.84,-0.79 -5.16,-2.38 -1.31,-1.58 -1.96,-3.87 -1.96,-6.86zm2.63 0.01c0,2.26 0.43,3.96 1.28,5.08 0.85,1.13 1.92,1.69 3.21,1.69 1.28,0 2.34,-0.56 3.19,-1.69 0.85,-1.14 1.27,-2.86 1.27,-5.18 0,-2.19 -0.43,-3.84 -1.28,-4.96 -0.85,-1.13 -1.91,-1.69 -3.18,-1.69 -1.29,0 -2.36,0.55 -3.21,1.67 -0.85,1.13 -1.28,2.82 -1.28,5.08zm14.57 8.86l0 -17.73 2.31 0 0 2.71c0.59,-1.26 1.14,-2.09 1.64,-2.49 0.5,-0.4 1.06,-0.6 1.66,-0.6 0.86,0 1.74,0.32 2.64,0.95l-0.91 2.77c-0.63,-0.41 -1.25,-0.61 -1.88,-0.61 -0.56,0 -1.06,0.2 -1.5,0.59 -0.45,0.39 -0.76,0.94 -0.95,1.64 -0.29,1.07 -0.43,2.23 -0.43,3.5l0 9.27 -2.58 0zm20.13 -5.74l2.66 0.41c-0.42,1.8 -1.19,3.21 -2.32,4.21 -1.13,0.99 -2.58,1.49 -4.34,1.49 -2.21,0 -3.96,-0.79 -5.26,-2.39 -1.3,-1.59 -1.95,-3.82 -1.95,-6.7 0,-2.97 0.66,-5.28 1.97,-6.92 1.31,-1.65 3.01,-2.47 5.1,-2.47 2.03,0 3.68,0.8 4.96,2.41 1.28,1.62 1.93,3.88 1.93,6.8 0,0.18 -0.01,0.45 -0.02,0.8l-11.3 0c0.09,1.94 0.56,3.44 1.41,4.47 0.84,1.03 1.9,1.54 3.16,1.54 0.95,0 1.75,-0.29 2.41,-0.87 0.67,-0.58 1.2,-1.51 1.59,-2.78zm-8.43 -4.82l8.46 0c-0.12,-1.49 -0.44,-2.61 -0.97,-3.35 -0.82,-1.16 -1.88,-1.74 -3.18,-1.74 -1.18,0 -2.17,0.46 -2.98,1.39 -0.8,0.92 -1.24,2.15 -1.33,3.7zm14.28 10.56l0 -24.46 2.58 0 0 24.46 -2.58 0zm6.76 -24.46l7.72 0c1.74,0 3.06,0.15 3.97,0.46 1.23,0.42 2.28,1.18 3.15,2.26 0.88,1.07 1.54,2.4 2,3.96 0.45,1.56 0.68,3.49 0.68,5.78 0,2.02 -0.21,3.75 -0.64,5.21 -0.52,1.78 -1.27,3.22 -2.24,4.32 -0.73,0.83 -1.72,1.48 -2.96,1.95 -0.93,0.35 -2.18,0.52 -3.73,0.52l-7.95 0 0 -24.46zm4.24 4.13l0 16.19 3.15 0c1.17,0 2.02,-0.08 2.54,-0.23 0.69,-0.2 1.26,-0.54 1.71,-1.02 0.45,-0.48 0.81,-1.26 1.1,-2.36 0.29,-1.09 0.43,-2.59 0.43,-4.48 0,-1.89 -0.14,-3.33 -0.43,-4.35 -0.29,-1.01 -0.69,-1.8 -1.2,-2.37 -0.51,-0.56 -1.16,-0.95 -1.95,-1.15 -0.58,-0.15 -1.74,-0.23 -3.45,-0.23l-1.9 0zm16.89 20.33l0 -24.46 8.9 0c2.24,0 3.87,0.22 4.88,0.66 1.02,0.44 1.83,1.22 2.44,2.34 0.61,1.13 0.92,2.41 0.92,3.85 0,1.84 -0.46,3.36 -1.38,4.55 -0.92,1.2 -2.3,1.95 -4.13,2.26 0.91,0.62 1.66,1.31 2.25,2.05 0.59,0.75 1.39,2.08 2.4,3.98l2.55 4.77 -5.05 0 -3.03 -5.34c-1.09,-1.9 -1.84,-3.09 -2.24,-3.59 -0.4,-0.49 -0.83,-0.83 -1.27,-1.01 -0.46,-0.19 -1.17,-0.28 -2.14,-0.28l-0.86 0 0 10.22 -4.24 0zm4.24 -14.11l3.13 0c2.02,0 3.29,-0.1 3.79,-0.3 0.51,-0.2 0.91,-0.55 1.19,-1.04 0.29,-0.49 0.43,-1.1 0.43,-1.84 0,-0.83 -0.19,-1.49 -0.57,-2 -0.37,-0.5 -0.9,-0.82 -1.59,-0.95 -0.34,-0.06 -1.37,-0.09 -3.08,-0.09l-3.3 0 0 6.22zm35.75 14.11l-4.57 0 -1.81 -5.57 -8.4 0 -1.74 5.57 -4.49 0 8.14 -24.46 4.48 0 8.39 24.46zm-7.76 -9.7l-2.91 -9.06 -2.82 9.06 5.73 0zm11.27 9.7l-4.92 -24.46 4.36 0 3.11 16.8 3.83 -16.8 5.04 0 3.65 17.08 3.19 -17.08 4.26 0 -5.05 24.46 -4.53 0 -4.13 -18.29 -4.16 18.29 -4.65 0z"/>
  <path class="fil6" d="M174.29 337.99l0 -1.4 4.58 0 0 4.42c-0.7,0.61 -1.42,1.08 -2.17,1.39 -0.75,0.31 -1.52,0.47 -2.31,0.47 -1.06,0 -2.02,-0.25 -2.89,-0.76 -0.87,-0.5 -1.53,-1.22 -1.97,-2.17 -0.44,-0.95 -0.66,-2.01 -0.66,-3.18 0,-1.16 0.21,-2.24 0.66,-3.25 0.44,-1 1.07,-1.75 1.9,-2.24 0.82,-0.48 1.77,-0.73 2.85,-0.73 0.78,0 1.49,0.14 2.13,0.42 0.63,0.28 1.12,0.67 1.48,1.17 0.36,0.5 0.63,1.15 0.82,1.95l-1.29 0.39c-0.17,-0.61 -0.37,-1.08 -0.61,-1.43 -0.24,-0.35 -0.58,-0.63 -1.03,-0.84 -0.45,-0.2 -0.94,-0.31 -1.49,-0.31 -0.65,0 -1.22,0.11 -1.69,0.33 -0.48,0.22 -0.86,0.51 -1.16,0.87 -0.29,0.36 -0.52,0.75 -0.68,1.18 -0.27,0.74 -0.41,1.54 -0.41,2.4 0,1.07 0.16,1.96 0.49,2.68 0.34,0.71 0.82,1.25 1.45,1.6 0.64,0.34 1.31,0.52 2.02,0.52 0.62,0 1.23,-0.14 1.82,-0.4 0.59,-0.27 1.03,-0.55 1.34,-0.85l0 -2.23 -3.18 0zm6.52 4.67l0 -8.64 1.19 0 0 1.33c0.31,-0.62 0.59,-1.02 0.85,-1.22 0.26,-0.19 0.54,-0.29 0.85,-0.29 0.45,0 0.91,0.15 1.37,0.46l-0.47 1.35c-0.33,-0.2 -0.65,-0.3 -0.97,-0.3 -0.29,0 -0.55,0.1 -0.78,0.29 -0.23,0.19 -0.39,0.46 -0.49,0.8 -0.15,0.52 -0.22,1.09 -0.22,1.71l0 4.51 -1.33 0zm10.17 -1.08c-0.49,0.47 -0.97,0.79 -1.43,0.98 -0.45,0.19 -0.94,0.29 -1.46,0.29 -0.87,0 -1.53,-0.23 -1.99,-0.7 -0.47,-0.46 -0.7,-1.05 -0.7,-1.77 0,-0.42 0.09,-0.8 0.27,-1.15 0.17,-0.35 0.4,-0.63 0.68,-0.84 0.29,-0.21 0.6,-0.37 0.96,-0.48 0.26,-0.08 0.66,-0.15 1.18,-0.22 1.08,-0.14 1.87,-0.31 2.38,-0.5 0,-0.2 0.01,-0.33 0.01,-0.38 0,-0.6 -0.13,-1.02 -0.38,-1.26 -0.34,-0.33 -0.85,-0.5 -1.52,-0.5 -0.63,0 -1.09,0.13 -1.39,0.37 -0.3,0.24 -0.52,0.67 -0.66,1.28l-1.3 -0.2c0.12,-0.61 0.31,-1.11 0.58,-1.48 0.28,-0.38 0.67,-0.67 1.18,-0.88 0.51,-0.2 1.11,-0.3 1.79,-0.3 0.67,0 1.21,0.08 1.63,0.26 0.42,0.17 0.73,0.39 0.93,0.65 0.2,0.27 0.34,0.6 0.42,1 0.04,0.25 0.06,0.7 0.06,1.35l0 1.94c0,1.36 0.03,2.22 0.08,2.58 0.06,0.37 0.17,0.71 0.33,1.04l-1.39 0c-0.14,-0.3 -0.22,-0.66 -0.26,-1.08zm-0.1 -3.25c-0.49,0.22 -1.21,0.41 -2.18,0.56 -0.55,0.08 -0.94,0.18 -1.17,0.29 -0.22,0.1 -0.4,0.26 -0.52,0.47 -0.12,0.21 -0.19,0.44 -0.19,0.69 0,0.39 0.14,0.71 0.41,0.97 0.27,0.26 0.66,0.39 1.18,0.39 0.51,0 0.96,-0.12 1.36,-0.37 0.4,-0.24 0.7,-0.58 0.88,-1 0.15,-0.33 0.22,-0.82 0.22,-1.46l0.01 -0.54zm3.38 7.65l0 -11.96 1.21 0 0 1.14c0.29,-0.44 0.61,-0.77 0.97,-0.99 0.36,-0.22 0.79,-0.33 1.31,-0.33 0.67,0 1.26,0.19 1.77,0.57 0.51,0.37 0.89,0.91 1.16,1.6 0.26,0.69 0.39,1.44 0.39,2.27 0,0.88 -0.15,1.67 -0.43,2.38 -0.29,0.71 -0.71,1.25 -1.26,1.62 -0.55,0.38 -1.12,0.57 -1.73,0.57 -0.44,0 -0.84,-0.1 -1.19,-0.31 -0.35,-0.2 -0.64,-0.46 -0.87,-0.78l0 4.22 -1.33 0zm1.21 -7.58c0,1.1 0.21,1.92 0.61,2.45 0.41,0.53 0.9,0.8 1.48,0.8 0.59,0 1.1,-0.27 1.52,-0.83 0.42,-0.54 0.63,-1.39 0.63,-2.55 0,-1.09 -0.21,-1.92 -0.62,-2.46 -0.41,-0.55 -0.9,-0.82 -1.47,-0.82 -0.56,0 -1.06,0.29 -1.49,0.87 -0.44,0.58 -0.66,1.43 -0.66,2.54zm7.2 4.26l0 -11.92 1.33 0 0 4.29c0.62,-0.79 1.4,-1.19 2.34,-1.19 0.58,0 1.08,0.12 1.51,0.38 0.42,0.25 0.73,0.6 0.91,1.04 0.19,0.44 0.28,1.09 0.28,1.94l0 5.46 -1.33 0 0 -5.46c0,-0.73 -0.15,-1.26 -0.43,-1.6 -0.29,-0.33 -0.69,-0.5 -1.22,-0.5 -0.39,0 -0.76,0.12 -1.1,0.34 -0.35,0.23 -0.59,0.53 -0.74,0.92 -0.14,0.38 -0.22,0.91 -0.22,1.59l0 4.71 -1.33 0zm8.41 -10.25l0 -1.67 1.33 0 0 1.67 -1.33 0zm0 10.25l0 -8.64 1.33 0 0 8.64 -1.33 0zm8.48 -3.16l1.3 0.2c-0.14,0.99 -0.5,1.76 -1.09,2.31 -0.59,0.56 -1.31,0.84 -2.16,0.84 -1.08,0 -1.94,-0.39 -2.59,-1.16 -0.65,-0.77 -0.98,-1.88 -0.98,-3.31 0,-0.94 0.15,-1.75 0.43,-2.45 0.28,-0.7 0.7,-1.22 1.28,-1.57 0.57,-0.35 1.19,-0.52 1.87,-0.52 0.84,0 1.54,0.23 2.08,0.71 0.54,0.47 0.89,1.15 1.04,2.02l-1.28 0.22c-0.13,-0.58 -0.34,-1.02 -0.66,-1.31 -0.31,-0.3 -0.69,-0.44 -1.13,-0.44 -0.67,0 -1.22,0.26 -1.64,0.79 -0.41,0.53 -0.62,1.36 -0.62,2.5 0,1.17 0.2,2.01 0.6,2.53 0.41,0.53 0.93,0.79 1.58,0.79 0.52,0 0.96,-0.18 1.31,-0.53 0.35,-0.35 0.57,-0.89 0.66,-1.62zm1.91 0.58l1.31 -0.23c0.08,0.58 0.28,1.03 0.62,1.34 0.34,0.3 0.81,0.46 1.42,0.46 0.61,0 1.06,-0.14 1.36,-0.41 0.29,-0.27 0.44,-0.59 0.44,-0.96 0,-0.33 -0.13,-0.6 -0.39,-0.78 -0.19,-0.14 -0.64,-0.3 -1.37,-0.5 -0.97,-0.27 -1.64,-0.5 -2.02,-0.7 -0.37,-0.2 -0.66,-0.47 -0.85,-0.82 -0.2,-0.35 -0.3,-0.73 -0.3,-1.16 0,-0.38 0.09,-0.74 0.24,-1.07 0.17,-0.32 0.38,-0.6 0.66,-0.81 0.2,-0.17 0.49,-0.31 0.84,-0.43 0.36,-0.11 0.74,-0.17 1.15,-0.17 0.61,0 1.15,0.1 1.61,0.29 0.47,0.2 0.81,0.46 1.04,0.8 0.22,0.33 0.37,0.78 0.45,1.34l-1.3 0.2c-0.06,-0.45 -0.23,-0.8 -0.51,-1.05 -0.28,-0.26 -0.68,-0.38 -1.2,-0.38 -0.6,0 -1.04,0.11 -1.3,0.33 -0.26,0.22 -0.39,0.48 -0.39,0.78 0,0.19 0.05,0.36 0.16,0.51 0.11,0.16 0.28,0.29 0.51,0.39 0.13,0.06 0.52,0.18 1.17,0.38 0.94,0.27 1.59,0.5 1.97,0.67 0.37,0.18 0.66,0.44 0.87,0.77 0.22,0.34 0.32,0.75 0.32,1.25 0,0.49 -0.12,0.95 -0.38,1.38 -0.26,0.43 -0.64,0.76 -1.12,1 -0.49,0.23 -1.04,0.35 -1.66,0.35 -1.02,0 -1.79,-0.23 -2.33,-0.7 -0.53,-0.46 -0.87,-1.15 -1.02,-2.07zm11.99 -1.25l1.34 -0.13c0.06,0.6 0.21,1.09 0.45,1.48 0.23,0.38 0.59,0.69 1.08,0.93 0.5,0.24 1.05,0.36 1.67,0.36 0.54,0 1.02,-0.09 1.44,-0.27 0.42,-0.18 0.73,-0.43 0.93,-0.74 0.21,-0.32 0.31,-0.66 0.31,-1.03 0,-0.37 -0.1,-0.69 -0.29,-0.97 -0.2,-0.28 -0.53,-0.51 -0.98,-0.7 -0.29,-0.13 -0.93,-0.32 -1.93,-0.58 -0.99,-0.27 -1.69,-0.52 -2.09,-0.75 -0.51,-0.3 -0.89,-0.67 -1.15,-1.11 -0.25,-0.44 -0.38,-0.94 -0.38,-1.49 0,-0.6 0.16,-1.17 0.47,-1.69 0.31,-0.52 0.76,-0.92 1.36,-1.19 0.59,-0.27 1.25,-0.41 1.98,-0.41 0.8,0 1.51,0.14 2.12,0.43 0.62,0.28 1.09,0.7 1.42,1.26 0.33,0.55 0.5,1.18 0.53,1.88l-1.38 0.11c-0.07,-0.75 -0.32,-1.32 -0.74,-1.7 -0.43,-0.39 -1.06,-0.58 -1.89,-0.58 -0.87,0 -1.5,0.18 -1.9,0.52 -0.39,0.35 -0.59,0.78 -0.59,1.27 0,0.43 0.14,0.78 0.42,1.06 0.28,0.27 0.99,0.56 2.16,0.85 1.16,0.29 1.96,0.54 2.39,0.76 0.63,0.32 1.1,0.72 1.4,1.21 0.3,0.49 0.45,1.05 0.45,1.69 0,0.64 -0.17,1.23 -0.5,1.79 -0.33,0.56 -0.8,1 -1.42,1.31 -0.61,0.31 -1.31,0.47 -2.08,0.47 -0.98,0 -1.8,-0.16 -2.46,-0.48 -0.66,-0.31 -1.18,-0.78 -1.55,-1.42 -0.38,-0.62 -0.57,-1.34 -0.59,-2.14zm15.51 3.83l0 -1.28c-0.61,0.98 -1.44,1.47 -2.49,1.47 -0.46,0 -0.89,-0.1 -1.29,-0.29 -0.4,-0.2 -0.7,-0.44 -0.89,-0.74 -0.19,-0.29 -0.33,-0.66 -0.41,-1.08 -0.05,-0.29 -0.08,-0.75 -0.08,-1.37l0 -5.35 1.33 0 0 4.79c0,0.76 0.03,1.27 0.08,1.54 0.08,0.38 0.26,0.68 0.53,0.9 0.27,0.22 0.61,0.33 1,0.33 0.4,0 0.77,-0.11 1.12,-0.33 0.35,-0.23 0.6,-0.54 0.74,-0.92 0.15,-0.39 0.22,-0.95 0.22,-1.69l0 -4.62 1.33 0 0 8.64 -1.19 0zm3.28 -10.25l0 -1.67 1.33 0 0 1.67 -1.33 0zm0 10.25l0 -8.64 1.33 0 0 8.64 -1.33 0zm6.24 -1.3l0.19 1.29c-0.38,0.09 -0.71,0.13 -1,0.13 -0.49,0 -0.86,-0.08 -1.12,-0.25 -0.27,-0.17 -0.46,-0.39 -0.56,-0.66 -0.11,-0.28 -0.17,-0.86 -0.17,-1.74l0 -4.98 -0.98 0 0 -1.13 0.98 0 0 -2.14 1.33 -0.88 0 3.02 1.33 0 0 1.13 -1.33 0 0 5.07c0,0.42 0.03,0.69 0.08,0.8 0.04,0.12 0.12,0.22 0.22,0.29 0.11,0.07 0.26,0.11 0.46,0.11 0.14,0 0.33,-0.02 0.57,-0.06zm6.67 -1.49l1.38 0.2c-0.22,0.88 -0.62,1.56 -1.2,2.05 -0.59,0.48 -1.33,0.73 -2.24,0.73 -1.15,0 -2.06,-0.39 -2.73,-1.17 -0.67,-0.77 -1,-1.86 -1,-3.26 0,-1.45 0.34,-2.58 1.01,-3.38 0.68,-0.8 1.56,-1.2 2.64,-1.2 1.05,0 1.9,0.39 2.56,1.18 0.67,0.78 1,1.89 1,3.31 0,0.09 0,0.22 -0.01,0.39l-5.84 0c0.05,0.94 0.29,1.67 0.73,2.17 0.44,0.51 0.98,0.76 1.64,0.76 0.48,0 0.9,-0.14 1.24,-0.42 0.35,-0.29 0.62,-0.74 0.82,-1.36zm-4.36 -2.35l4.37 0c-0.05,-0.73 -0.22,-1.27 -0.5,-1.64 -0.42,-0.56 -0.97,-0.84 -1.64,-0.84 -0.61,0 -1.12,0.22 -1.54,0.67 -0.41,0.45 -0.64,1.05 -0.69,1.81z"/>
  <path class="fil6" d="M298.06 337.82l0 4.7 -22.92 0c-0.03,-1.19 0.14,-2.32 0.5,-3.42 0.59,-1.8 1.53,-3.58 2.83,-5.32 1.3,-1.75 3.15,-3.76 5.56,-6.04 3.75,-3.57 6.29,-6.39 7.63,-8.48 1.33,-2.08 2,-4.06 2,-5.92 0,-1.95 -0.6,-3.59 -1.81,-4.93 -1.21,-1.33 -2.79,-2 -4.73,-2 -2.06,0 -3.7,0.71 -4.94,2.12 -1.23,1.41 -1.85,3.36 -1.87,5.87l-4.35 -0.5c0.3,-3.77 1.43,-6.64 3.38,-8.61 1.96,-1.97 4.58,-2.96 7.87,-2.96 3.32,0 5.96,1.06 7.9,3.19 1.94,2.14 2.9,4.78 2.9,7.93 0,1.6 -0.28,3.18 -0.85,4.72 -0.56,1.56 -1.51,3.19 -2.82,4.9 -1.32,1.71 -3.51,4.07 -6.55,7.05 -2.56,2.47 -4.2,4.15 -4.93,5.04 -0.72,0.88 -1.32,1.77 -1.8,2.66l17 0zm4.61 -15.05c0,-4.73 0.41,-8.55 1.25,-11.43 0.85,-2.9 2.1,-5.13 3.76,-6.68 1.65,-1.56 3.74,-2.33 6.25,-2.33 1.86,0 3.49,0.43 4.9,1.29 1.4,0.87 2.56,2.12 3.46,3.75 0.91,1.62 1.62,3.6 2.13,5.94 0.53,2.34 0.78,5.5 0.78,9.46 0,4.69 -0.42,8.49 -1.25,11.38 -0.83,2.9 -2.07,5.12 -3.74,6.69 -1.65,1.56 -3.74,2.35 -6.28,2.35 -3.33,0 -5.94,-1.37 -7.85,-4.12 -2.28,-3.35 -3.41,-8.79 -3.41,-16.3zm4.35 0.02c0,6.58 0.66,10.96 1.99,13.12 1.33,2.17 2.97,3.25 4.92,3.25 1.96,0 3.6,-1.09 4.93,-3.26 1.33,-2.18 1.99,-6.55 1.99,-13.11 0,-6.59 -0.66,-10.97 -1.99,-13.13 -1.32,-2.17 -2.98,-3.25 -4.97,-3.25 -1.95,0 -3.52,0.96 -4.69,2.87 -1.46,2.43 -2.18,6.94 -2.18,13.51zm38.5 19.73l-4.25 0 0 -31.32c-1.03,1.13 -2.37,2.26 -4.03,3.39 -1.66,1.12 -3.16,1.97 -4.48,2.53l0 -4.75c2.37,-1.29 4.45,-2.85 6.24,-4.69 1.78,-1.84 3.04,-3.62 3.78,-5.35l2.74 0 0 40.19zm11.18 -34.83l0 -4.69 22.4 0 0 3.8c-2.2,2.71 -4.4,6.32 -6.56,10.81 -2.16,4.5 -3.83,9.13 -5.02,13.89 -0.84,3.35 -1.39,7.03 -1.63,11.02l-4.35 0c0.05,-3.15 0.58,-6.96 1.61,-11.43 1.02,-4.47 2.48,-8.77 4.39,-12.92 1.91,-4.14 3.94,-7.63 6.09,-10.48l-16.93 0z"/>
 </g>
</svg>
