<?xml version="1.0" encoding="UTF-8"?>
<!DOCTYPE svg PUBLIC "-//W3C//DTD SVG 1.1//EN" "http://www.w3.org/Graphics/SVG/1.1/DTD/svg11.dtd">
<!-- Creator: CorelDRAW 2017 -->
<svg xmlns="http://www.w3.org/2000/svg" xml:space="preserve" width="500px" height="500px" version="1.1" style="shape-rendering:geometricPrecision; text-rendering:geometricPrecision; image-rendering:optimizeQuality; fill-rule:evenodd; clip-rule:evenodd"
viewBox="0 0 500 500"
 xmlns:xlink="http://www.w3.org/1999/xlink">
 <defs>
  <style type="text/css">
   <![CDATA[
    .str0 {stroke:#2CA9E1;stroke-width:25;stroke-miterlimit:22.9256}
    .fil1 {fill:#2CA9E1}
    .fil0 {fill:white}
   ]]>
  </style>
 </defs>
 <g id="Слой_x0020_1">
  <metadata id="CorelCorpID_0Corel-Layer"/>
  <circle class="fil0 str0" cx="250" cy="250" r="232.45"/>
 </g>
 <g id="Слой_x0020_1_0">
  <metadata id="CorelCorpID_1Corel-Layer"/>
  <path class="fil1" d="M232.46 340.53l34.95 -0.08c0.48,5.18 -1.9,8.58 -4.66,10.8 -3.85,3.1 -6.94,2.81 -12.84,2.81 -5.89,0 -9.03,0.34 -12.84,-2.8 -2.6,-2.14 -5.09,-5.67 -4.61,-10.73zm50.91 -59.99c-3.19,-27.43 16.37,-48.88 40.3,-51.71 27,-3.2 48.68,16.73 51.29,40.51 2.95,26.91 -16.68,48.36 -40.35,51.08 -26.8,3.09 -48.54,-16.68 -51.24,-39.88zm-67.11 1.3c-3.56,22.55 -24.78,42.78 -52.43,38.44 -23.33,-3.66 -42.75,-24.93 -38.55,-53.11 3.42,-23 25.64,-42.29 52.65,-38.12 23.48,3.62 42.63,25.53 38.33,52.79zm-78.03 -109.88c-7.05,5.5 -42.31,11.99 -42.31,59.17l0 90.37c0,32.07 17.38,50.59 46.54,59.95 38.93,12.48 80.06,11.97 121.75,11.97 29.64,-0.01 70.26,-3.43 93.63,-12.14 26.82,-9.99 46.24,-24.77 46.24,-59.78l0 -90.37c0,-26.96 -11.61,-44.05 -33.6,-54.87 -2.77,-1.36 -6.31,-2.33 -8.83,-4.3 0.53,-3.86 4.77,-12.8 6.46,-16.97 2.11,-5.19 4.76,-11.24 6.83,-16.61 2.22,-5.74 4.43,-10.74 6.77,-16.63 2.41,-6.05 0.54,-12.88 -5.86,-14.67 -8.32,-2.33 -11.45,3.97 -13.66,9.34l-13.6 33.23c-2.14,5.18 -4.64,12.19 -6.83,16.54 -5.9,-0.48 -13.31,-2.44 -20.16,-3.42 -6.65,-0.95 -14.88,-1.98 -21.64,-2.35 -42.67,-2.39 -78.26,-2.94 -121.15,2.3 -7.16,0.88 -14.37,2.91 -20.73,3.44l-20.18 -49.36c-2.22,-5.27 -4.96,-11.74 -13.39,-9.81 -14.36,3.28 -3.1,22.74 0.46,31.31 2.03,4.87 13,30.56 13.26,33.66z"/>
 </g>
</svg>
