<?xml version="1.0" encoding="UTF-8"?>
<!DOCTYPE svg PUBLIC "-//W3C//DTD SVG 1.1//EN" "http://www.w3.org/Graphics/SVG/1.1/DTD/svg11.dtd">
<!-- Creator: CorelDRAW 2017 -->
<svg xmlns="http://www.w3.org/2000/svg" xml:space="preserve" width="500px" height="500px" version="1.1" style="shape-rendering:geometricPrecision; text-rendering:geometricPrecision; image-rendering:optimizeQuality; fill-rule:evenodd; clip-rule:evenodd"
viewBox="0 0 500 500"
 xmlns:xlink="http://www.w3.org/1999/xlink">
 <defs>
  <style type="text/css">
   <![CDATA[
    .str0 {stroke:#D91A1A;stroke-width:25;stroke-miterlimit:22.9256}
    .str1 {stroke:#2B2A29;stroke-width:2.36;stroke-miterlimit:22.9256}
    .fil0 {fill:#B2B3B3}
    .fil2 {fill:#DE1010}
    .fil1 {fill:white}
   ]]>
  </style>
 </defs>
 <g id="Слой_x0020_1">
  <metadata id="CorelCorpID_0Corel-Layer"/>
  <circle class="fil0 str0" cx="250" cy="250" r="232.45"/>
 </g>
 <g id="Слой_x0020_1_0">
  <metadata id="CorelCorpID_1Corel-Layer"/>
  <g id="_2331710918592">
   <path class="fil1 str1" d="M211.68 192.18c-2.96,2.85 -6.76,2.44 -10.5,4 -6.1,2.55 -12.31,6.58 -16.5,10.5 -10.82,10.17 -16.82,22.08 -24,30 -6.47,7.15 -12.7,11.79 -16.99,16 -6.5,6.38 -9.5,10.5 -9.5,10.5l-3 21 2 12 12 20 1.99 41 6 35 14.01 16 42.99 11 34.01 -4 39 -7 51 -30 31 -29 3 -16 -6 -58 -18 -43 -12 -3 -18 0 -20 -14 -20 -22 -5.5 -10 3.5 -66 -2 -19 -4 -11 -17 -11 -17 2 -10.01 10 -7.99 15 3 65 -1.01 21 -4.5 3z"/>
   <g>
    <path class="fil2" d="M302.75 384.47c-13.06,-8.75 -18.68,-53.17 -18.49,-71.15 0.09,-8.3 -1.3,-15.52 -1.45,-20.61 -0.41,-13.84 -0.26,-31.96 3.48,-44.23 8.69,-28.47 42.4,-14.04 35.48,39.03 -2.16,16.52 -0.02,28.07 -4.35,45.45 -5.88,23.57 -1.97,13.55 -4.37,28.36 -1.19,7.3 -5.48,19.62 -10.3,23.15zm-110.8 43.4l-5.09 0c-7.72,-0.07 -12.59,-0.8 -20.43,-6.69 -25.72,-19.3 -19.83,-80.23 -23.68,-99.4 -1.44,-7.21 -3.98,-12.27 -7.8,-17.1 -2.13,-2.69 -3.28,-3.66 -4.8,-7.29 -4.49,-10.68 -3.29,-30.06 2.96,-39.16l11.16 -12.33c2.13,-2.15 4.07,-3.64 6.45,-5.64 17.8,-14.96 14.57,-21.69 38.04,-42.36 4.72,-4.16 8.63,-5.93 16.43,-7.05 10.27,-1.47 8.63,-10.73 8.63,-21.96l-2.14 -59.05c0,-10.02 3.65,-20.54 7.81,-26.35 4.22,-5.89 11.96,-11.36 22.08,-11.36 9.73,0 16.03,1.38 23.39,10.76 13.04,16.62 9.28,23.82 9.34,44.74 0.02,9.61 -1.43,16.56 -1.43,26.32l0.71 27.04c0.42,12.67 4.64,1.54 22.47,24.49l9.01 10.2c18.75,18.71 17.89,7.28 28.29,7.28 16.64,0 24.69,27.59 28.89,40.12 3.06,9.1 7.54,31.66 8.76,42.47 2.09,18.54 3.72,34.85 -6.64,52.3 -2.6,4.37 -4.19,6.68 -7.22,10.57 -1.72,2.2 -2.36,2.6 -4.04,4.5 -4.03,4.56 -8.35,8.71 -13.64,12.68 -23.93,17.92 -55.78,28.67 -85.26,34.98 -10,2.15 -19.8,3.46 -29.93,4.94 -9.62,1.4 -21.33,2.35 -31.8,2.35l-0.52 0zm-46.43 -123.8c-2.2,-0.58 -8.38,-8.04 -9.29,-9.93 -1.86,-3.92 -0.7,-12.47 -0.16,-16.59 0.38,-2.9 0.27,-6.68 0.66,-8.59 0.82,-3.94 4.17,-5.41 9.21,-14.98 1.47,-2.8 0.37,-1.82 2.42,-2.56 2.15,3.83 -0.55,9.92 -1.45,13.5 -2.25,9.04 -1.39,29.49 -1.39,39.15zm182.14 -64.74l0.71 -6.41c8.61,0 18.87,14.31 21.77,21.64 1.19,3 1.5,4.95 2.88,7.78 5.58,11.48 5.31,13.01 5.22,28.22 -0.04,6.42 0.86,14.24 1.75,20.31 0.88,6.06 2.8,24.44 1.14,30.23 -2.6,9.07 -3.23,9.06 -8.38,13.68 -1.69,1.51 -5.14,3.37 -8.02,3.37 -10.79,0 -11.98,-18.38 -12.1,-27.04 -0.06,-4.83 -0.7,-7.4 -0.7,-12.81 0,-14.38 0.68,-28.01 1.42,-41.98 0.46,-8.81 1.46,-11.01 -1,-19.63 -1.48,-5.18 -4.69,-11.65 -4.69,-17.36zm-130.92 -14.94c-7.26,0 -14.76,0.37 -20.63,-3.56l11.2 -12.99c3.63,-3.58 8.5,-9.78 15.13,-9.78 8.55,0 7.82,10.41 7.82,15.65 0,7.64 -5.99,10.68 -13.52,10.68zm29.17 -117.4c0,-11.82 -0.76,-24.19 18.5,-24.19 17.56,0 14.22,33.93 11.2,37.52 -4.05,4.79 -23.26,2.67 -26.16,0.92 -2.8,-1.69 -3.54,-9.6 -3.54,-14.25zm39.14 -14.94l1.42 0c0.24,10.93 4.25,4.57 1.54,30 -0.52,4.93 -0.56,6.44 -1.54,10.56 -6.25,26.11 0.73,16.21 -1.32,34.25 -1.09,9.65 2.03,20.24 2.03,24.8 0,13.58 -4.07,5.12 1.14,23.05 3.98,13.73 -0.5,25.56 2.39,36.74 2.78,10.79 2.49,5.41 2.85,18.49l0.74 20.61c0,7.34 -0.12,14.77 -0.03,22.09 0.05,4.11 0.77,5.36 0.75,9.91 -0.07,17.64 2.02,31.52 4.87,48.5 1.64,9.78 2.23,13.12 2.23,23.38 0,3.15 -5.4,3.25 -9.11,7.26 -3.18,3.44 -3.08,7.68 -9.39,7.68 -4.36,0 -4.98,-3.96 -5.95,-7.56 -1.94,-7.16 0.49,-9.51 -6.14,-9.51 -6.5,0 -8.43,10.67 -12.91,14.83 -2.08,1.93 -1.78,1.59 -5.54,1.58 -25.25,-0.1 -68.53,6.61 -78.48,-28.35 -2,-7.03 -5.16,-45.51 -3.31,-54.15 0.53,-2.48 1.27,-3.14 1.78,-6.04l1.7 -29.61c-0.03,-6.82 -0.72,-32.76 1.39,-37.74 0.22,-0.52 1.13,-1.86 1.32,-2.24 2.16,-4.35 -0.18,-7.87 8.17,-11.75 7.69,-3.57 13.72,-3.06 21.84,-3.06 20.32,0 18.73,20.9 19.32,26.22l0.59 17.91c-0.05,10.97 4.07,45.47 6.11,57.92 0.77,4.67 1.74,11.84 4.58,13.92 6.55,-4.8 2.69,-51.16 2.09,-59.01 -0.57,-7.47 -3.15,-22.66 -3.03,-28.39l3.46 -82.26c0.21,-1.42 0.33,-2.96 0.6,-4.37 0.82,-4.23 2.57,-3.64 2.57,-14.51 0,-22.12 -0.93,-12.98 -5.27,-31.73 -1.19,-5.16 -0.59,-7.57 -1.33,-12.9 -0.81,-5.86 0.2,-7.16 0.2,-13l0.47 0.95c0.62,1.61 -0.11,-0.66 0.4,1.02 0.34,1.15 0.25,0.87 0.46,2.38 0.3,2.09 0.52,3.5 0.68,5.02 0.92,8.63 0.42,12.15 6.5,16.27 9,6.1 29.67,2.84 37.63,-9.38 2.89,-4.44 2.57,-8.11 3.02,-14.83 0.59,-8.78 -1.49,-7.24 -1.49,-14.95z"/>
    <path class="fil2" d="M225.2 222.25c0,5.79 11.19,-1.55 14.88,-1.41 12.95,0.49 3.26,2.83 19.99,2.83 2.71,0 4.5,-1.03 3.68,-3 -2.05,-4.9 -22.94,-9.27 -30.42,-6.65 -0.8,0.28 -8.13,4.31 -8.13,8.23z"/>
    <path class="fil2" d="M243.7 232.21c-4.11,0 -5.62,-2.84 -9.25,-2.84 -5.56,0 -1.76,9.96 7.12,9.96 3.87,0 7.47,-0.38 10.98,-1.11 1.89,-0.4 2.74,-0.63 4.3,-1.39 2.26,-1.11 0.85,-0.31 1.72,-1.13 3.75,-3.51 -0.23,-6.26 -2.77,-8.47 -3.14,1.66 -7.72,4.98 -12.1,4.98z"/>
   </g>
  </g>
 </g>
</svg>
