<?xml version="1.0" encoding="UTF-8"?>
<!DOCTYPE svg PUBLIC "-//W3C//DTD SVG 1.1//EN" "http://www.w3.org/Graphics/SVG/1.1/DTD/svg11.dtd">
<!-- Creator: CorelDRAW 2017 -->
<svg xmlns="http://www.w3.org/2000/svg" xml:space="preserve" width="500px" height="500px" version="1.1" style="shape-rendering:geometricPrecision; text-rendering:geometricPrecision; image-rendering:optimizeQuality; fill-rule:evenodd; clip-rule:evenodd"
viewBox="0 0 500 500"
 xmlns:xlink="http://www.w3.org/1999/xlink">
 <defs>
  <style type="text/css">
   <![CDATA[
    .str0 {stroke:#F18826;stroke-width:20;stroke-miterlimit:22.9256}
    .fil1 {fill:#F18826}
    .fil2 {fill:#E6A519}
    .fil0 {fill:white}
    .fil3 {fill:white;fill-rule:nonzero}
   ]]>
  </style>
 </defs>
 <g id="Слой_x0020_1">
  <metadata id="CorelCorpID_0Corel-Layer"/>
  <circle class="fil0 str0" cx="250" cy="250" r="229.7"/>
 </g>
 <g id="Слой_x0020_1_0">
  <metadata id="CorelCorpID_1Corel-Layer"/>
  <path class="fil1" d="M377.79 175.06l-67.18 0c-8.28,-0.07 -11.77,-1.72 -16.13,-6.21 -7.98,-8.24 -6.21,-25.26 -6.21,-38.54 0,-14.93 0.06,-29.87 -0.01,-44.8 -39.24,0.56 -78.89,0.03 -118.17,0.03 -9.59,0 -18.13,-0.41 -24.97,4.26 -5.02,3.42 -10.26,10.03 -10.98,18.75 -0.69,8.43 -0.12,47.41 -0.12,59.07l0 206.45c-0.02,11.15 1.29,16.24 7.47,22.38 5.98,5.94 10.87,7.49 21.75,7.47l177.23 -0.01c10.48,0 17.97,1.03 25.84,-4.01 14.65,-9.4 11.47,-27.48 11.47,-47.59 0,-58.8 -0.52,-118.71 0.01,-177.25z"/>
  <path class="fil2" d="M377.79 175.06c-0.12,-13 1.16,-9.49 -5.87,-16.51l-67.17 -67.14c-7.04,-7.04 -3.53,-5.73 -16.49,-5.9 0.07,14.93 0.01,29.87 0.01,44.8 0,13.28 -1.77,30.3 6.21,38.54 4.36,4.49 7.85,6.14 16.13,6.21l67.18 0z"/>
  <path class="fil3" d="M209.8 330.66l-12.7 0 0 -7.62c-2.12,2.97 -4.63,5.19 -7.52,6.69 -2.88,1.48 -5.8,2.23 -8.73,2.23 -5.98,0 -11.1,-2.4 -15.37,-7.22 -4.25,-4.81 -6.38,-11.51 -6.38,-20.13 0,-8.8 2.07,-15.5 6.22,-20.08 4.15,-4.59 9.38,-6.87 15.71,-6.87 5.8,0 10.84,2.42 15.07,7.23l0 -25.83 13.7 0 0 71.6zm-36.6 -26.95c0,5.55 0.77,9.57 2.28,12.05 2.22,3.6 5.3,5.4 9.27,5.4 3.15,0 5.83,-1.35 8.03,-4.05 2.22,-2.7 3.32,-6.72 3.32,-12.08 0,-5.99 -1.07,-10.29 -3.22,-12.92 -2.15,-2.63 -4.88,-3.95 -8.23,-3.95 -3.25,0 -5.97,1.3 -8.17,3.9 -2.18,2.6 -3.28,6.48 -3.28,11.65z"/>
  <path id="1" class="fil3" d="M222.98 271.76l0 -12.7 13.7 0 0 12.7 -13.7 0zm13.7 7l0 50.25c0,6.6 -0.43,11.27 -1.3,13.98 -0.85,2.72 -2.51,4.85 -4.98,6.37 -2.45,1.53 -5.58,2.3 -9.4,2.3 -1.37,0 -2.83,-0.12 -4.42,-0.37 -1.58,-0.23 -3.28,-0.6 -5.1,-1.1l2.35 -11.66c0.65,0.11 1.27,0.23 1.85,0.31 0.57,0.09 1.1,0.12 1.6,0.12 1.4,0 2.57,-0.3 3.47,-0.9 0.9,-0.6 1.5,-1.33 1.78,-2.18 0.3,-0.85 0.45,-3.39 0.45,-7.62l0 -49.5 13.7 0z"/>
  <path id="2" class="fil3" d="M265.33 330.66l-20.91 -51.9 14.4 0 9.76 26.48 2.84 8.85c0.75,-2.25 1.23,-3.73 1.41,-4.45 0.47,-1.46 0.95,-2.93 1.49,-4.4l9.9 -26.48 14.1 0 -20.62 51.9 -12.37 0z"/>
  <path id="3" class="fil3" d="M340.98 330.66l0 -7.77c-1.9,2.77 -4.38,4.97 -7.46,6.62 -3.09,1.63 -6.34,2.45 -9.75,2.45 -3.5,0 -6.64,-0.77 -9.4,-2.3 -2.79,-1.53 -4.79,-3.7 -6.02,-6.47 -1.25,-2.78 -1.87,-6.61 -1.87,-11.51l0 -32.92 13.7 0 0 23.9c0,7.32 0.25,11.78 0.77,13.43 0.5,1.65 1.42,2.97 2.77,3.92 1.33,0.97 3.03,1.45 5.1,1.45 2.35,0 4.45,-0.65 6.31,-1.93 1.87,-1.29 3.14,-2.89 3.82,-4.8 0.68,-1.92 1.03,-6.59 1.03,-14.04l0 -21.93 13.7 0 0 51.9 -12.7 0z"/>
 </g>
</svg>
