<?xml version="1.0" encoding="UTF-8"?>
<!DOCTYPE svg PUBLIC "-//W3C//DTD SVG 1.1//EN" "http://www.w3.org/Graphics/SVG/1.1/DTD/svg11.dtd">
<!-- Creator: CorelDRAW 2017 -->
<svg xmlns="http://www.w3.org/2000/svg" xml:space="preserve" width="500px" height="500px" version="1.1" style="shape-rendering:geometricPrecision; text-rendering:geometricPrecision; image-rendering:optimizeQuality; fill-rule:evenodd; clip-rule:evenodd"
viewBox="0 0 500 500"
 xmlns:xlink="http://www.w3.org/1999/xlink">
 <defs>
  <style type="text/css">
   <![CDATA[
    .str1 {stroke:#F08B21;stroke-width:2;stroke-miterlimit:22.9256}
    .str0 {stroke:#F08B21;stroke-width:16;stroke-miterlimit:22.9256}
    .fil0 {fill:white}
    .fil1 {fill:#F08B21;fill-rule:nonzero}
   ]]>
  </style>
 </defs>
 <g id="Слой_x0020_1">
  <metadata id="CorelCorpID_0Corel-Layer"/>
  <circle class="fil0 str0" cx="250" cy="250" r="239.39"/>
 </g>
 <g id="Слой_x0020_1_0">
  <metadata id="CorelCorpID_1Corel-Layer"/>
  <path class="fil1" d="M70.07 159.46l48.09 0c10.85,0 19.11,0.61 24.8,1.87 7.62,1.69 14.19,4.71 19.63,9.06 5.47,4.32 9.61,9.62 12.46,15.91 2.83,6.27 4.26,14.02 4.26,23.21 0,8.09 -1.34,15.05 -4.02,20.9 -3.24,7.15 -7.9,12.94 -13.95,17.35 -4.55,3.36 -10.73,5.97 -18.48,7.85 -5.8,1.39 -13.55,2.08 -23.27,2.08l-49.52 0 0 -98.23zm26.45 16.6l0 65.03 19.6 0c7.33,0 12.61,-0.32 15.86,-0.94 4.29,-0.8 7.82,-2.17 10.61,-4.1 2.83,-1.91 5.11,-5.07 6.87,-9.46 1.8,-4.39 2.67,-10.41 2.67,-17.99 0,-7.6 -0.87,-13.41 -2.67,-17.48 -1.76,-4.06 -4.25,-7.22 -7.44,-9.51 -3.2,-2.26 -7.24,-3.82 -12.16,-4.62 -3.65,-0.61 -10.85,-0.93 -21.55,-0.93l-11.79 0zm105.24 81.63l0 -98.23 25.6 0 53.73 65.83 0 -65.83 24.44 0 0 98.23 -26.41 0 -52.92 -64.58 0 64.58 -24.44 0zm124.77 -31.83l25.71 -1.92c1.55,6.47 4.65,11.2 9.36,14.24 4.71,3.04 11.06,4.55 19.06,4.55 8.45,0 14.83,-1.35 19.11,-4.04 4.29,-2.7 6.45,-5.86 6.45,-9.47 0,-2.33 -0.91,-4.3 -2.71,-5.95 -1.79,-1.62 -4.95,-3.04 -9.45,-4.23 -3.07,-0.82 -10.06,-2.24 -21,-4.29 -14.07,-2.66 -23.95,-5.91 -29.63,-9.77 -8,-5.42 -11.98,-12.03 -11.98,-19.82 0,-5.01 1.89,-9.72 5.62,-14.09 3.77,-4.37 9.18,-7.68 16.27,-9.97 7.08,-2.28 15.59,-3.43 25.61,-3.43 16.33,0 28.64,2.72 36.87,8.19 8.27,5.46 12.59,12.73 13.01,21.86l-26.44 0.68c-1.13,-5.07 -3.52,-8.71 -7.2,-10.93 -3.68,-2.21 -9.21,-3.33 -16.57,-3.33 -7.6,0 -13.55,1.18 -17.84,3.56 -2.77,1.54 -4.16,3.57 -4.16,6.13 0,2.33 1.3,4.32 3.92,5.97 3.31,2.12 11.37,4.32 24.16,6.61 12.8,2.26 22.25,4.64 28.36,7.06 6.14,2.45 10.94,5.76 14.4,10 3.47,4.22 5.2,9.44 5.2,15.64 0,5.62 -2.06,10.9 -6.23,15.82 -4.17,4.91 -10.03,8.57 -17.63,10.95 -7.6,2.4 -17.08,3.59 -28.42,3.59 -16.5,0 -29.17,-2.86 -38.02,-8.6 -8.84,-5.71 -14.1,-14.06 -15.83,-25.01z"/>
  <g id="_1897327752096">
   <path class="fil1 str1" d="M160.35 314.59c0,0.13 -0.03,0.23 -0.09,0.32 -0.06,0.08 -0.17,0.16 -0.33,0.21 -0.16,0.06 -0.38,0.11 -0.66,0.14 -0.28,0.03 -0.64,0.04 -1.07,0.04 -0.42,0 -0.78,-0.01 -1.05,-0.04 -0.28,-0.03 -0.5,-0.08 -0.67,-0.14 -0.17,-0.05 -0.29,-0.13 -0.36,-0.21 -0.07,-0.09 -0.1,-0.2 -0.1,-0.32l0 -5.75 -16.17 0c-0.44,0 -0.79,-0.13 -1.05,-0.38 -0.26,-0.26 -0.39,-0.66 -0.39,-1.18l0 -22.25c0,-0.13 0.04,-0.24 0.13,-0.33 0.08,-0.1 0.22,-0.18 0.4,-0.24 0.19,-0.06 0.44,-0.11 0.76,-0.14 0.32,-0.04 0.73,-0.05 1.2,-0.05 0.49,0 0.89,0.01 1.2,0.05 0.32,0.03 0.57,0.08 0.76,0.14 0.18,0.06 0.32,0.14 0.39,0.24 0.08,0.09 0.12,0.2 0.12,0.33l0 19.71 9.05 0 0 -19.71c0,-0.13 0.04,-0.24 0.12,-0.33 0.09,-0.1 0.22,-0.18 0.41,-0.24 0.19,-0.06 0.44,-0.11 0.76,-0.14 0.32,-0.04 0.72,-0.05 1.2,-0.05 0.48,0 0.89,0.01 1.2,0.05 0.31,0.03 0.57,0.08 0.75,0.14 0.19,0.06 0.33,0.14 0.4,0.24 0.07,0.09 0.11,0.2 0.11,0.33l0 19.71 2.15 0c0.32,0 0.54,0.07 0.65,0.22 0.12,0.14 0.18,0.41 0.18,0.8l0 8.83zm23.4 -6.39c0,0.13 -0.04,0.24 -0.12,0.33 -0.09,0.1 -0.22,0.18 -0.41,0.24 -0.19,0.06 -0.44,0.11 -0.77,0.14 -0.32,0.04 -0.72,0.05 -1.2,0.05 -0.47,0 -0.87,-0.01 -1.2,-0.05 -0.32,-0.03 -0.57,-0.08 -0.75,-0.14 -0.19,-0.06 -0.32,-0.14 -0.39,-0.24 -0.07,-0.09 -0.11,-0.2 -0.11,-0.33l0 -12.89c0,-0.49 0,-0.97 0.02,-1.44 0.01,-0.48 0.03,-0.9 0.05,-1.26l-0.03 0c-0.11,0.17 -0.22,0.38 -0.37,0.61 -0.14,0.24 -0.29,0.48 -0.44,0.74 -0.16,0.26 -0.33,0.52 -0.5,0.79 -0.18,0.27 -0.36,0.54 -0.53,0.79l-8.5 12.68c-0.1,0.14 -0.2,0.26 -0.31,0.36 -0.11,0.1 -0.24,0.18 -0.41,0.24 -0.17,0.05 -0.38,0.09 -0.62,0.11 -0.25,0.02 -0.57,0.03 -0.96,0.03 -0.49,0 -0.89,-0.01 -1.19,-0.05 -0.3,-0.03 -0.54,-0.08 -0.7,-0.14 -0.18,-0.06 -0.29,-0.15 -0.35,-0.24 -0.07,-0.11 -0.1,-0.23 -0.1,-0.37l0 -23.13c0,-0.13 0.04,-0.24 0.12,-0.33 0.09,-0.1 0.22,-0.18 0.42,-0.24 0.19,-0.06 0.45,-0.11 0.76,-0.14 0.31,-0.04 0.71,-0.05 1.19,-0.05 0.48,0 0.89,0.01 1.2,0.05 0.31,0.03 0.57,0.08 0.75,0.14 0.19,0.06 0.33,0.14 0.4,0.24 0.07,0.09 0.11,0.2 0.11,0.33l0 12.97c0,0.39 0,0.83 -0.02,1.28 -0.01,0.46 -0.03,0.89 -0.05,1.32l0.03 0c0.22,-0.37 0.49,-0.83 0.82,-1.36 0.33,-0.53 0.67,-1.05 1.02,-1.55l8.51 -12.68c0.09,-0.13 0.18,-0.24 0.28,-0.33 0.11,-0.1 0.24,-0.18 0.41,-0.24 0.17,-0.06 0.38,-0.1 0.63,-0.13 0.25,-0.03 0.58,-0.04 0.97,-0.04 0.48,0 0.86,0.01 1.16,0.05 0.3,0.03 0.53,0.08 0.71,0.14 0.17,0.06 0.3,0.14 0.37,0.24 0.07,0.09 0.1,0.21 0.1,0.34l0 23.16zm29.25 -12.33c0,1.38 -0.22,2.62 -0.66,3.74 -0.43,1.11 -1.07,2.07 -1.92,2.89 -0.86,0.81 -1.92,1.47 -3.18,1.96 -1.27,0.5 -2.73,0.81 -4.38,0.94l0 2.84c0,0.12 -0.04,0.23 -0.13,0.33 -0.08,0.09 -0.21,0.17 -0.39,0.23 -0.19,0.05 -0.44,0.09 -0.76,0.12 -0.32,0.03 -0.72,0.04 -1.18,0.04 -0.48,0 -0.87,-0.01 -1.18,-0.04 -0.31,-0.03 -0.56,-0.07 -0.75,-0.12 -0.18,-0.06 -0.32,-0.13 -0.4,-0.22 -0.09,-0.09 -0.13,-0.2 -0.13,-0.34l0 -2.84c-1.66,-0.08 -3.12,-0.32 -4.39,-0.73 -1.27,-0.41 -2.33,-1 -3.17,-1.77 -0.85,-0.76 -1.48,-1.72 -1.92,-2.85 -0.43,-1.13 -0.65,-2.46 -0.65,-3.99 0,-1.3 0.22,-2.49 0.65,-3.58 0.44,-1.09 1.07,-2.04 1.92,-2.85 0.86,-0.81 1.91,-1.48 3.18,-1.99 1.26,-0.51 2.72,-0.83 4.38,-0.97l0 -2.67c0,-0.13 0.04,-0.23 0.13,-0.32 0.08,-0.09 0.22,-0.16 0.4,-0.21 0.19,-0.05 0.44,-0.09 0.76,-0.12 0.31,-0.03 0.71,-0.05 1.17,-0.05 0.46,0 0.86,0.02 1.18,0.05 0.32,0.03 0.57,0.07 0.76,0.12 0.18,0.05 0.31,0.12 0.39,0.21 0.09,0.09 0.13,0.19 0.13,0.32l0 2.67c1.66,0.09 3.12,0.34 4.38,0.77 1.27,0.42 2.32,1 3.18,1.76 0.85,0.76 1.49,1.69 1.92,2.81 0.44,1.12 0.66,2.4 0.66,3.86zm-5 0.21c0,-0.79 -0.09,-1.52 -0.26,-2.17 -0.18,-0.64 -0.47,-1.21 -0.88,-1.69 -0.4,-0.48 -0.93,-0.87 -1.6,-1.17 -0.66,-0.3 -1.49,-0.51 -2.48,-0.63l0 11.23c0.96,-0.12 1.78,-0.33 2.44,-0.66 0.67,-0.32 1.2,-0.73 1.62,-1.22 0.41,-0.49 0.71,-1.05 0.89,-1.68 0.18,-0.63 0.27,-1.3 0.27,-2.01zm-9.98 -5.66c-0.97,0.11 -1.79,0.32 -2.46,0.65 -0.67,0.33 -1.2,0.73 -1.6,1.21 -0.41,0.48 -0.71,1.03 -0.89,1.63 -0.18,0.62 -0.27,1.27 -0.27,1.94 0,0.84 0.09,1.58 0.27,2.25 0.18,0.66 0.48,1.24 0.89,1.72 0.4,0.48 0.93,0.88 1.6,1.19 0.67,0.31 1.49,0.52 2.46,0.64l0 -11.23zm35.82 1.4c0,1.38 -0.21,2.59 -0.65,3.65 -0.42,1.06 -1.05,1.95 -1.87,2.67 -0.82,0.73 -1.83,1.28 -3.02,1.66 -1.19,0.38 -2.6,0.57 -4.22,0.57l-2.04 0 0 7.79c0,0.13 -0.04,0.24 -0.12,0.35 -0.09,0.09 -0.22,0.18 -0.41,0.24 -0.19,0.07 -0.44,0.11 -0.76,0.15 -0.31,0.04 -0.71,0.06 -1.2,0.06 -0.47,0 -0.87,-0.02 -1.2,-0.06 -0.32,-0.04 -0.57,-0.09 -0.76,-0.15 -0.18,-0.06 -0.32,-0.15 -0.39,-0.24 -0.08,-0.11 -0.12,-0.22 -0.12,-0.35l0 -21.99c0,-0.6 0.16,-1.04 0.47,-1.34 0.31,-0.29 0.71,-0.44 1.22,-0.44l5.76 0c0.58,0 1.14,0.02 1.66,0.06 0.52,0.05 1.15,0.14 1.88,0.29 0.73,0.14 1.47,0.41 2.22,0.8 0.75,0.39 1.4,0.89 1.92,1.48 0.53,0.6 0.94,1.3 1.22,2.11 0.27,0.8 0.41,1.69 0.41,2.69zm-5.19 0.36c0,-0.86 -0.15,-1.57 -0.45,-2.12 -0.31,-0.56 -0.68,-0.97 -1.13,-1.24 -0.44,-0.26 -0.91,-0.43 -1.39,-0.5 -0.49,-0.07 -0.99,-0.1 -1.51,-0.1l-2.13 0 0 8.32 2.24 0c0.8,0 1.47,-0.11 2.01,-0.33 0.53,-0.21 0.98,-0.51 1.32,-0.9 0.34,-0.38 0.6,-0.84 0.78,-1.38 0.17,-0.53 0.26,-1.12 0.26,-1.75zm31 4.15c0,2.03 -0.25,3.84 -0.75,5.44 -0.5,1.6 -1.25,2.96 -2.25,4.07 -0.99,1.11 -2.23,1.96 -3.69,2.55 -1.47,0.59 -3.17,0.88 -5.09,0.88 -1.91,0 -3.56,-0.25 -4.98,-0.75 -1.42,-0.5 -2.6,-1.25 -3.54,-2.28 -0.95,-1.02 -1.65,-2.31 -2.13,-3.89 -0.47,-1.57 -0.7,-3.43 -0.7,-5.59 0,-1.97 0.25,-3.75 0.75,-5.33 0.5,-1.58 1.25,-2.92 2.25,-4.03 0.99,-1.11 2.23,-1.96 3.69,-2.55 1.47,-0.59 3.17,-0.89 5.11,-0.89 1.85,0 3.49,0.25 4.9,0.74 1.42,0.49 2.6,1.24 3.55,2.27 0.96,1.02 1.67,2.3 2.16,3.85 0.48,1.56 0.72,3.4 0.72,5.51zm-5.22 0.25c0,-1.28 -0.1,-2.45 -0.3,-3.5 -0.2,-1.05 -0.54,-1.95 -1.03,-2.7 -0.48,-0.75 -1.13,-1.33 -1.93,-1.74 -0.81,-0.41 -1.81,-0.62 -3.02,-0.62 -1.22,0 -2.24,0.24 -3.05,0.69 -0.82,0.46 -1.49,1.08 -1.99,1.85 -0.5,0.77 -0.86,1.66 -1.06,2.69 -0.21,1.03 -0.31,2.11 -0.31,3.26 0,1.34 0.1,2.54 0.3,3.6 0.2,1.06 0.54,1.97 1.02,2.73 0.48,0.76 1.12,1.33 1.92,1.73 0.81,0.4 1.82,0.6 3.04,0.6 1.22,0 2.24,-0.23 3.05,-0.69 0.82,-0.45 1.48,-1.07 1.99,-1.85 0.5,-0.78 0.86,-1.69 1.06,-2.73 0.21,-1.04 0.31,-2.14 0.31,-3.32zm27.1 4.92c0,0.87 -0.12,1.66 -0.36,2.37 -0.24,0.7 -0.57,1.33 -0.99,1.87 -0.42,0.54 -0.93,1.01 -1.51,1.4 -0.58,0.39 -1.23,0.71 -1.93,0.97 -0.7,0.25 -1.46,0.44 -2.26,0.55 -0.8,0.12 -1.69,0.18 -2.67,0.18l-6.49 0c-0.42,0 -0.77,-0.12 -1.05,-0.37 -0.28,-0.24 -0.42,-0.64 -0.42,-1.19l0 -21.33c0,-0.55 0.14,-0.95 0.42,-1.19 0.28,-0.25 0.63,-0.37 1.05,-0.37l6.12 0c1.5,0 2.76,0.13 3.8,0.38 1.04,0.25 1.91,0.63 2.62,1.14 0.72,0.51 1.26,1.15 1.63,1.93 0.38,0.78 0.57,1.7 0.57,2.76 0,0.59 -0.08,1.15 -0.23,1.67 -0.15,0.52 -0.37,1 -0.65,1.42 -0.29,0.43 -0.65,0.81 -1.08,1.14 -0.41,0.33 -0.89,0.59 -1.43,0.79 0.69,0.13 1.33,0.35 1.92,0.67 0.59,0.31 1.09,0.72 1.53,1.21 0.44,0.5 0.78,1.09 1.03,1.75 0.25,0.67 0.38,1.42 0.38,2.25zm-6.42 -10.3c0,-0.49 -0.08,-0.93 -0.23,-1.32 -0.15,-0.39 -0.37,-0.72 -0.68,-0.98 -0.3,-0.26 -0.68,-0.45 -1.14,-0.59 -0.46,-0.14 -1.07,-0.21 -1.84,-0.21l-2.5 0 0 6.35 2.77 0c0.71,0 1.29,-0.09 1.71,-0.26 0.43,-0.17 0.78,-0.4 1.07,-0.7 0.28,-0.29 0.49,-0.64 0.63,-1.04 0.13,-0.39 0.21,-0.81 0.21,-1.25zm1.27 10.48c0,-0.56 -0.09,-1.07 -0.28,-1.53 -0.19,-0.44 -0.47,-0.81 -0.83,-1.12 -0.36,-0.3 -0.83,-0.53 -1.4,-0.7 -0.56,-0.16 -1.3,-0.24 -2.21,-0.24l-2.94 0 0 6.96 3.59 0c0.69,0 1.27,-0.07 1.74,-0.22 0.48,-0.14 0.88,-0.36 1.23,-0.64 0.34,-0.29 0.61,-0.64 0.81,-1.06 0.2,-0.42 0.29,-0.91 0.29,-1.45zm28.73 5.31c0.15,0.45 0.24,0.81 0.28,1.08 0.04,0.26 -0.01,0.46 -0.15,0.6 -0.14,0.13 -0.38,0.21 -0.74,0.24 -0.35,0.04 -0.84,0.05 -1.45,0.05 -0.65,0 -1.15,-0.01 -1.5,-0.03 -0.36,-0.02 -0.63,-0.06 -0.83,-0.11 -0.19,-0.06 -0.31,-0.14 -0.39,-0.24 -0.08,-0.1 -0.14,-0.23 -0.19,-0.4l-1.6 -4.91 -9.23 0 -1.54 4.78c-0.05,0.18 -0.11,0.33 -0.2,0.44 -0.07,0.13 -0.21,0.22 -0.39,0.29 -0.18,0.07 -0.44,0.11 -0.78,0.14 -0.33,0.03 -0.77,0.04 -1.31,0.04 -0.58,0 -1.03,-0.02 -1.36,-0.06 -0.33,-0.04 -0.56,-0.13 -0.68,-0.27 -0.13,-0.15 -0.17,-0.36 -0.13,-0.62 0.04,-0.26 0.13,-0.61 0.28,-1.06l7.53 -21.7c0.07,-0.21 0.16,-0.38 0.27,-0.51 0.09,-0.14 0.25,-0.24 0.47,-0.31 0.23,-0.07 0.53,-0.11 0.93,-0.13 0.38,-0.02 0.9,-0.03 1.54,-0.03 0.75,0 1.34,0.01 1.78,0.03 0.44,0.02 0.78,0.06 1.03,0.13 0.24,0.07 0.42,0.18 0.53,0.31 0.1,0.14 0.2,0.33 0.27,0.57l7.56 21.68zm-11.22 -17.95l-0.02 0 -3.41 10.4 6.86 0 -3.43 -10.4zm31.51 19.16c0,0.13 -0.04,0.24 -0.11,0.33 -0.07,0.1 -0.2,0.18 -0.39,0.24 -0.18,0.06 -0.43,0.11 -0.76,0.14 -0.32,0.04 -0.72,0.05 -1.19,0.05 -0.5,0 -0.9,-0.01 -1.22,-0.05 -0.31,-0.03 -0.56,-0.08 -0.76,-0.14 -0.2,-0.06 -0.33,-0.14 -0.4,-0.24 -0.08,-0.09 -0.12,-0.2 -0.12,-0.33l0 -9.15 -1.84 0c-0.75,0 -1.33,0.08 -1.73,0.23 -0.4,0.15 -0.75,0.39 -1.06,0.7 -0.31,0.31 -0.58,0.71 -0.83,1.18 -0.23,0.47 -0.47,1.03 -0.69,1.67l-1.86 5.3c-0.06,0.14 -0.14,0.27 -0.25,0.38 -0.1,0.11 -0.25,0.2 -0.46,0.27 -0.21,0.07 -0.48,0.11 -0.82,0.14 -0.34,0.03 -0.77,0.04 -1.3,0.04 -0.58,0 -1.03,-0.02 -1.37,-0.06 -0.33,-0.04 -0.59,-0.09 -0.77,-0.16 -0.17,-0.07 -0.28,-0.15 -0.33,-0.23 -0.05,-0.09 -0.08,-0.19 -0.08,-0.29 0,-0.13 0.02,-0.28 0.07,-0.46 0.04,-0.19 0.13,-0.46 0.27,-0.83l1.83 -4.8c0.24,-0.63 0.49,-1.17 0.74,-1.65 0.25,-0.46 0.53,-0.88 0.84,-1.25 0.31,-0.37 0.64,-0.69 0.98,-0.94 0.35,-0.25 0.73,-0.45 1.14,-0.61 -0.78,-0.21 -1.47,-0.48 -2.07,-0.83 -0.6,-0.35 -1.1,-0.77 -1.52,-1.27 -0.4,-0.49 -0.71,-1.07 -0.92,-1.72 -0.21,-0.64 -0.31,-1.37 -0.31,-2.18 0,-1.11 0.19,-2.11 0.57,-3.01 0.39,-0.9 0.96,-1.67 1.72,-2.3 0.75,-0.63 1.7,-1.12 2.83,-1.46 1.12,-0.35 2.7,-0.52 4.72,-0.52l6 0c0.4,0 0.74,0.12 1.03,0.37 0.28,0.24 0.42,0.64 0.42,1.19l0 22.25zm-4.95 -19.98l-2.57 0c-1.07,0 -1.87,0.08 -2.41,0.24 -0.53,0.16 -0.96,0.4 -1.29,0.71 -0.34,0.31 -0.59,0.68 -0.74,1.12 -0.15,0.43 -0.23,0.91 -0.23,1.44 0,0.52 0.09,0.99 0.25,1.43 0.17,0.43 0.42,0.81 0.76,1.13 0.34,0.32 0.78,0.57 1.31,0.74 0.53,0.18 1.29,0.27 2.28,0.27l2.64 0 0 -7.08zm38.93 19.98c0,0.13 -0.04,0.24 -0.12,0.33 -0.09,0.1 -0.22,0.18 -0.41,0.24 -0.18,0.06 -0.44,0.11 -0.76,0.14 -0.33,0.04 -0.73,0.05 -1.2,0.05 -0.48,0 -0.88,-0.01 -1.2,-0.05 -0.33,-0.03 -0.58,-0.08 -0.76,-0.14 -0.19,-0.06 -0.31,-0.14 -0.38,-0.24 -0.08,-0.09 -0.12,-0.2 -0.12,-0.33l0 -12.89c0,-0.49 0.01,-0.97 0.02,-1.44 0.01,-0.48 0.03,-0.9 0.06,-1.26l-0.04 0c-0.11,0.17 -0.22,0.38 -0.36,0.61 -0.15,0.24 -0.29,0.48 -0.45,0.74 -0.16,0.26 -0.33,0.52 -0.5,0.79 -0.18,0.27 -0.36,0.54 -0.53,0.79l-8.49 12.68c-0.11,0.14 -0.21,0.26 -0.31,0.36 -0.11,0.1 -0.25,0.18 -0.42,0.24 -0.17,0.05 -0.38,0.09 -0.62,0.11 -0.25,0.02 -0.57,0.03 -0.96,0.03 -0.49,0 -0.89,-0.01 -1.18,-0.05 -0.31,-0.03 -0.54,-0.08 -0.71,-0.14 -0.18,-0.06 -0.29,-0.15 -0.35,-0.24 -0.07,-0.11 -0.1,-0.23 -0.1,-0.37l0 -23.13c0,-0.13 0.04,-0.24 0.13,-0.33 0.08,-0.1 0.21,-0.18 0.41,-0.24 0.19,-0.06 0.45,-0.11 0.77,-0.14 0.31,-0.04 0.71,-0.05 1.18,-0.05 0.49,0 0.89,0.01 1.2,0.05 0.32,0.03 0.57,0.08 0.76,0.14 0.18,0.06 0.32,0.14 0.39,0.24 0.08,0.09 0.12,0.2 0.12,0.33l0 12.97c0,0.39 -0.01,0.83 -0.02,1.28 -0.02,0.46 -0.04,0.89 -0.06,1.32l0.04 0c0.22,-0.37 0.49,-0.83 0.82,-1.36 0.33,-0.53 0.67,-1.05 1.01,-1.55l8.51 -12.68c0.09,-0.13 0.18,-0.24 0.29,-0.33 0.1,-0.1 0.23,-0.18 0.4,-0.24 0.17,-0.06 0.38,-0.1 0.63,-0.13 0.26,-0.03 0.58,-0.04 0.97,-0.04 0.48,0 0.86,0.01 1.16,0.05 0.3,0.03 0.53,0.08 0.71,0.14 0.18,0.06 0.3,0.14 0.37,0.24 0.07,0.09 0.1,0.21 0.1,0.34l0 23.16zm-253.45 40.29c0,1.11 -0.19,2.12 -0.57,3.04 -0.38,0.93 -0.95,1.72 -1.71,2.4 -0.77,0.67 -1.73,1.2 -2.91,1.58 -1.16,0.38 -2.68,0.56 -4.55,0.56l-6.45 0c-0.46,0 -0.82,-0.12 -1.11,-0.36 -0.28,-0.25 -0.42,-0.67 -0.42,-1.26l0 -21.26c0,-0.56 0.14,-0.96 0.42,-1.2 0.29,-0.25 0.63,-0.37 1.05,-0.37l13.85 0c0.12,0 0.23,0.03 0.33,0.1 0.1,0.05 0.17,0.16 0.24,0.32 0.07,0.16 0.13,0.36 0.16,0.61 0.03,0.25 0.04,0.56 0.04,0.93 0,0.35 -0.01,0.65 -0.04,0.9 -0.03,0.25 -0.09,0.45 -0.16,0.6 -0.07,0.16 -0.14,0.27 -0.24,0.34 -0.1,0.08 -0.2,0.11 -0.32,0.11l-10.38 0 0 6.07 4.08 0c1.57,0 2.87,0.15 3.9,0.45 1.02,0.31 1.89,0.76 2.59,1.35 0.71,0.59 1.25,1.32 1.63,2.18 0.38,0.85 0.57,1.83 0.57,2.91zm-5.03 0.32c0,-0.54 -0.09,-1.03 -0.27,-1.46 -0.18,-0.44 -0.43,-0.81 -0.78,-1.12 -0.34,-0.31 -0.78,-0.55 -1.32,-0.71 -0.54,-0.16 -1.26,-0.24 -2.16,-0.24l-3.21 0 0 7.04 3.27 0c0.81,0 1.48,-0.08 2.01,-0.23 0.52,-0.15 0.96,-0.38 1.32,-0.67 0.35,-0.31 0.63,-0.68 0.84,-1.12 0.2,-0.44 0.3,-0.94 0.3,-1.49zm34.39 6.63c0,0.12 -0.04,0.23 -0.13,0.32 -0.08,0.1 -0.22,0.18 -0.4,0.24 -0.19,0.06 -0.45,0.11 -0.77,0.15 -0.32,0.03 -0.72,0.04 -1.2,0.04 -0.48,0 -0.88,-0.01 -1.19,-0.04 -0.32,-0.04 -0.57,-0.09 -0.76,-0.15 -0.2,-0.06 -0.34,-0.14 -0.42,-0.24 -0.09,-0.09 -0.13,-0.2 -0.13,-0.32l0 -23.18c0,-0.12 0.04,-0.23 0.13,-0.33 0.08,-0.1 0.22,-0.18 0.42,-0.24 0.19,-0.06 0.45,-0.11 0.77,-0.14 0.32,-0.03 0.72,-0.05 1.18,-0.05 0.48,0 0.88,0.02 1.2,0.05 0.32,0.03 0.58,0.08 0.77,0.14 0.18,0.06 0.32,0.14 0.4,0.24 0.09,0.1 0.13,0.21 0.13,0.33l0 23.18zm-7.98 -7.43c0,1.16 -0.18,2.22 -0.53,3.18 -0.36,0.96 -0.93,1.8 -1.7,2.52 -0.76,0.72 -1.77,1.29 -3.01,1.72 -1.24,0.43 -2.93,0.64 -5.07,0.64l-5.76 0c-0.22,0 -0.42,-0.02 -0.6,-0.08 -0.18,-0.06 -0.34,-0.15 -0.48,-0.28 -0.14,-0.14 -0.25,-0.3 -0.33,-0.49 -0.08,-0.2 -0.12,-0.44 -0.12,-0.71l0 -22.25c0,-0.12 0.04,-0.23 0.12,-0.33 0.08,-0.1 0.22,-0.18 0.41,-0.24 0.2,-0.06 0.45,-0.11 0.78,-0.14 0.32,-0.03 0.71,-0.05 1.18,-0.05 0.48,0 0.89,0.02 1.2,0.05 0.31,0.03 0.56,0.08 0.75,0.14 0.19,0.06 0.32,0.14 0.4,0.24 0.07,0.1 0.11,0.21 0.11,0.33l0 8.45 3.08 0c1.84,0 3.29,0.16 4.38,0.47 1.09,0.32 2.02,0.78 2.78,1.4 0.76,0.62 1.36,1.39 1.78,2.31 0.42,0.92 0.63,1.96 0.63,3.12zm-5.1 0.41c0,-0.6 -0.09,-1.14 -0.27,-1.62 -0.17,-0.48 -0.44,-0.88 -0.81,-1.22 -0.37,-0.34 -0.83,-0.6 -1.4,-0.79 -0.57,-0.19 -1.41,-0.29 -2.51,-0.29l-2.56 0 0 7.74 2.63 0c1.16,0 2.03,-0.11 2.62,-0.34 0.59,-0.24 1.04,-0.54 1.37,-0.91 0.33,-0.37 0.57,-0.78 0.71,-1.23 0.15,-0.45 0.22,-0.9 0.22,-1.34zm34.64 -14.76c0,0.37 -0.01,0.67 -0.05,0.94 -0.03,0.26 -0.07,0.46 -0.14,0.62 -0.06,0.16 -0.14,0.28 -0.24,0.35 -0.09,0.07 -0.2,0.11 -0.3,0.11l-6.12 0 0 19.72c0,0.12 -0.04,0.24 -0.12,0.34 -0.09,0.1 -0.22,0.18 -0.41,0.24 -0.18,0.06 -0.44,0.11 -0.76,0.15 -0.33,0.04 -0.73,0.06 -1.2,0.06 -0.48,0 -0.88,-0.02 -1.2,-0.06 -0.33,-0.04 -0.58,-0.09 -0.77,-0.15 -0.19,-0.06 -0.32,-0.14 -0.41,-0.24 -0.08,-0.1 -0.12,-0.22 -0.12,-0.34l0 -19.72 -6.11 0c-0.13,0 -0.24,-0.04 -0.33,-0.11 -0.08,-0.07 -0.16,-0.19 -0.22,-0.35 -0.06,-0.16 -0.11,-0.36 -0.14,-0.62 -0.04,-0.27 -0.05,-0.57 -0.05,-0.94 0,-0.38 0.01,-0.7 0.05,-0.96 0.03,-0.27 0.08,-0.48 0.14,-0.64 0.06,-0.16 0.14,-0.27 0.22,-0.34 0.09,-0.07 0.2,-0.1 0.33,-0.1l17.22 0c0.1,0 0.21,0.03 0.3,0.1 0.1,0.07 0.18,0.18 0.24,0.34 0.07,0.16 0.11,0.37 0.14,0.64 0.04,0.26 0.05,0.58 0.05,0.96zm24.02 9.9c0,2.03 -0.25,3.84 -0.76,5.44 -0.5,1.6 -1.25,2.96 -2.25,4.07 -0.99,1.12 -2.22,1.97 -3.69,2.55 -1.47,0.59 -3.16,0.88 -5.09,0.88 -1.9,0 -3.56,-0.25 -4.97,-0.75 -1.42,-0.49 -2.6,-1.25 -3.55,-2.27 -0.94,-1.02 -1.65,-2.32 -2.12,-3.89 -0.47,-1.58 -0.71,-3.44 -0.71,-5.6 0,-1.97 0.25,-3.75 0.75,-5.33 0.51,-1.58 1.25,-2.92 2.25,-4.03 1,-1.11 2.23,-1.96 3.69,-2.55 1.47,-0.59 3.18,-0.89 5.12,-0.89 1.85,0 3.48,0.25 4.9,0.74 1.41,0.49 2.6,1.24 3.54,2.27 0.96,1.02 1.68,2.3 2.16,3.86 0.48,1.56 0.73,3.39 0.73,5.5zm-5.23 0.25c0,-1.28 -0.1,-2.45 -0.3,-3.5 -0.2,-1.05 -0.54,-1.95 -1.02,-2.7 -0.49,-0.75 -1.13,-1.33 -1.94,-1.74 -0.81,-0.41 -1.81,-0.61 -3.02,-0.61 -1.22,0 -2.23,0.23 -3.05,0.69 -0.82,0.45 -1.48,1.07 -1.98,1.84 -0.51,0.77 -0.86,1.66 -1.07,2.69 -0.2,1.03 -0.31,2.12 -0.31,3.26 0,1.34 0.11,2.54 0.31,3.6 0.19,1.07 0.54,1.98 1.01,2.74 0.48,0.75 1.12,1.33 1.93,1.72 0.8,0.4 1.81,0.6 3.03,0.6 1.22,0 2.24,-0.23 3.05,-0.69 0.82,-0.45 1.49,-1.07 1.99,-1.85 0.5,-0.78 0.86,-1.69 1.07,-2.72 0.2,-1.04 0.3,-2.15 0.3,-3.33zm27.1 4.93c0,0.87 -0.12,1.65 -0.36,2.36 -0.24,0.7 -0.57,1.33 -0.98,1.87 -0.43,0.54 -0.93,1.01 -1.51,1.4 -0.59,0.4 -1.24,0.71 -1.94,0.97 -0.7,0.25 -1.46,0.44 -2.26,0.55 -0.8,0.13 -1.69,0.18 -2.67,0.18l-6.49 0c-0.41,0 -0.76,-0.12 -1.04,-0.36 -0.29,-0.25 -0.43,-0.65 -0.43,-1.2l0 -21.32c0,-0.56 0.14,-0.96 0.43,-1.2 0.28,-0.25 0.63,-0.37 1.04,-0.37l6.13 0c1.49,0 2.76,0.13 3.79,0.38 1.04,0.25 1.91,0.63 2.62,1.14 0.72,0.51 1.26,1.16 1.64,1.94 0.37,0.78 0.56,1.69 0.56,2.75 0,0.59 -0.08,1.15 -0.22,1.67 -0.15,0.52 -0.38,1 -0.66,1.43 -0.29,0.43 -0.65,0.8 -1.07,1.13 -0.42,0.33 -0.9,0.59 -1.44,0.79 0.69,0.13 1.33,0.35 1.92,0.67 0.59,0.31 1.1,0.72 1.53,1.22 0.44,0.49 0.78,1.08 1.03,1.74 0.25,0.68 0.38,1.42 0.38,2.26zm-6.42 -10.31c0,-0.49 -0.08,-0.93 -0.23,-1.32 -0.14,-0.39 -0.37,-0.72 -0.67,-0.98 -0.31,-0.25 -0.69,-0.45 -1.15,-0.59 -0.45,-0.14 -1.07,-0.21 -1.83,-0.21l-2.51 0 0 6.35 2.77 0c0.72,0 1.29,-0.08 1.72,-0.26 0.42,-0.17 0.78,-0.4 1.06,-0.69 0.28,-0.3 0.49,-0.65 0.63,-1.04 0.14,-0.4 0.21,-0.82 0.21,-1.26zm1.28 10.49c0,-0.57 -0.1,-1.08 -0.29,-1.53 -0.18,-0.45 -0.46,-0.82 -0.83,-1.12 -0.36,-0.31 -0.83,-0.54 -1.39,-0.71 -0.57,-0.16 -1.31,-0.24 -2.22,-0.24l-2.94 0 0 6.96 3.59 0c0.69,0 1.27,-0.07 1.75,-0.22 0.47,-0.14 0.88,-0.36 1.22,-0.64 0.34,-0.29 0.62,-0.64 0.81,-1.06 0.2,-0.42 0.3,-0.9 0.3,-1.44z"/>
   <path class="fil1 str1" d="M226.32 354.22c0.15,0.45 0.24,0.82 0.28,1.08 0.04,0.26 -0.01,0.46 -0.15,0.6 -0.14,0.13 -0.38,0.21 -0.74,0.25 -0.34,0.03 -0.83,0.04 -1.45,0.04 -0.64,0 -1.14,-0.01 -1.5,-0.03 -0.36,-0.01 -0.63,-0.05 -0.82,-0.11 -0.19,-0.06 -0.32,-0.14 -0.4,-0.24 -0.08,-0.1 -0.14,-0.23 -0.19,-0.39l-1.6 -4.92 -9.22 0 -1.55 4.78c-0.05,0.18 -0.11,0.33 -0.19,0.45 -0.08,0.12 -0.22,0.21 -0.4,0.28 -0.18,0.07 -0.44,0.11 -0.77,0.14 -0.34,0.03 -0.78,0.04 -1.32,0.04 -0.58,0 -1.03,-0.02 -1.36,-0.06 -0.33,-0.04 -0.55,-0.13 -0.68,-0.27 -0.12,-0.15 -0.17,-0.35 -0.13,-0.62 0.04,-0.26 0.13,-0.61 0.28,-1.05l7.54 -21.71c0.07,-0.21 0.16,-0.38 0.26,-0.51 0.1,-0.14 0.26,-0.23 0.48,-0.3 0.22,-0.08 0.53,-0.12 0.92,-0.14 0.39,-0.02 0.9,-0.03 1.55,-0.03 0.74,0 1.33,0.01 1.77,0.03 0.45,0.02 0.79,0.06 1.03,0.14 0.25,0.07 0.42,0.17 0.53,0.3 0.1,0.15 0.2,0.33 0.27,0.57l7.56 21.68zm-11.22 -17.95l-0.02 0 -3.41 10.4 6.87 0 -3.44 -10.4zm31.51 19.17c0,0.12 -0.03,0.23 -0.11,0.32 -0.07,0.1 -0.2,0.18 -0.39,0.24 -0.18,0.06 -0.43,0.11 -0.75,0.15 -0.32,0.03 -0.72,0.04 -1.2,0.04 -0.49,0 -0.9,-0.01 -1.21,-0.04 -0.32,-0.04 -0.57,-0.09 -0.77,-0.15 -0.19,-0.06 -0.33,-0.14 -0.4,-0.24 -0.08,-0.09 -0.12,-0.2 -0.12,-0.32l0 -9.16 -1.84 0c-0.75,0 -1.33,0.08 -1.72,0.23 -0.4,0.16 -0.76,0.39 -1.07,0.7 -0.31,0.31 -0.58,0.71 -0.82,1.18 -0.24,0.47 -0.47,1.04 -0.7,1.67l-1.86 5.3c-0.06,0.15 -0.14,0.28 -0.24,0.39 -0.1,0.1 -0.26,0.19 -0.47,0.26 -0.2,0.07 -0.47,0.11 -0.82,0.14 -0.34,0.03 -0.77,0.04 -1.3,0.04 -0.58,0 -1.03,-0.02 -1.37,-0.06 -0.33,-0.04 -0.58,-0.09 -0.76,-0.16 -0.18,-0.07 -0.29,-0.15 -0.34,-0.23 -0.05,-0.09 -0.08,-0.19 -0.08,-0.28 0,-0.13 0.02,-0.29 0.07,-0.47 0.04,-0.19 0.13,-0.46 0.28,-0.82l1.83 -4.81c0.24,-0.62 0.48,-1.17 0.73,-1.64 0.26,-0.47 0.53,-0.89 0.84,-1.26 0.31,-0.37 0.64,-0.69 0.98,-0.94 0.35,-0.25 0.73,-0.45 1.14,-0.6 -0.78,-0.22 -1.47,-0.49 -2.07,-0.84 -0.6,-0.35 -1.1,-0.77 -1.51,-1.27 -0.41,-0.49 -0.72,-1.07 -0.93,-1.72 -0.21,-0.64 -0.31,-1.37 -0.31,-2.18 0,-1.11 0.19,-2.11 0.57,-3.01 0.39,-0.9 0.96,-1.67 1.72,-2.29 0.75,-0.64 1.7,-1.13 2.83,-1.47 1.13,-0.35 2.7,-0.52 4.72,-0.52l6 0c0.4,0 0.75,0.12 1.03,0.37 0.28,0.24 0.42,0.64 0.42,1.2l0 22.25zm-4.95 -19.99l-2.56 0c-1.08,0 -1.88,0.08 -2.42,0.25 -0.52,0.16 -0.96,0.4 -1.29,0.7 -0.34,0.31 -0.58,0.68 -0.74,1.12 -0.15,0.43 -0.22,0.92 -0.22,1.45 0,0.51 0.08,0.98 0.24,1.42 0.17,0.43 0.42,0.81 0.76,1.13 0.34,0.32 0.78,0.57 1.31,0.75 0.54,0.17 1.3,0.26 2.29,0.26l2.63 0 0 -7.08zm35.3 -1.79c0,0.37 -0.02,0.67 -0.05,0.94 -0.03,0.26 -0.07,0.46 -0.14,0.62 -0.06,0.16 -0.14,0.28 -0.24,0.35 -0.09,0.07 -0.2,0.11 -0.31,0.11l-6.11 0 0 19.72c0,0.12 -0.04,0.24 -0.12,0.34 -0.09,0.1 -0.22,0.18 -0.41,0.24 -0.19,0.06 -0.44,0.11 -0.77,0.15 -0.32,0.04 -0.72,0.06 -1.2,0.06 -0.47,0 -0.87,-0.02 -1.2,-0.06 -0.32,-0.04 -0.58,-0.09 -0.76,-0.15 -0.19,-0.06 -0.33,-0.14 -0.41,-0.24 -0.08,-0.1 -0.12,-0.22 -0.12,-0.34l0 -19.72 -6.12 0c-0.12,0 -0.23,-0.04 -0.32,-0.11 -0.08,-0.07 -0.16,-0.19 -0.22,-0.35 -0.06,-0.16 -0.11,-0.36 -0.15,-0.62 -0.03,-0.27 -0.04,-0.57 -0.04,-0.94 0,-0.38 0.01,-0.7 0.04,-0.96 0.04,-0.27 0.09,-0.48 0.15,-0.64 0.06,-0.16 0.14,-0.27 0.22,-0.34 0.09,-0.07 0.2,-0.1 0.32,-0.1l17.22 0c0.11,0 0.22,0.03 0.31,0.1 0.1,0.07 0.18,0.18 0.24,0.34 0.07,0.16 0.11,0.37 0.14,0.64 0.03,0.26 0.05,0.58 0.05,0.96zm17.38 20.46c0,0.37 -0.02,0.67 -0.05,0.92 -0.03,0.25 -0.08,0.45 -0.14,0.6 -0.06,0.15 -0.14,0.26 -0.24,0.33 -0.09,0.07 -0.2,0.1 -0.31,0.1l-12.26 0c-0.42,0 -0.76,-0.12 -1.05,-0.36 -0.28,-0.25 -0.42,-0.65 -0.42,-1.2l0 -21.32c0,-0.56 0.14,-0.96 0.42,-1.2 0.29,-0.25 0.63,-0.37 1.05,-0.37l12.21 0c0.1,0 0.21,0.03 0.3,0.1 0.08,0.06 0.16,0.17 0.22,0.32 0.06,0.17 0.11,0.37 0.14,0.61 0.04,0.25 0.05,0.56 0.05,0.94 0,0.36 -0.01,0.65 -0.05,0.91 -0.03,0.24 -0.07,0.44 -0.14,0.59 -0.06,0.15 -0.14,0.26 -0.22,0.33 -0.09,0.08 -0.2,0.11 -0.3,0.11l-8.73 0 0 5.96 7.35 0c0.12,0 0.22,0.03 0.31,0.1 0.1,0.07 0.17,0.17 0.24,0.32 0.06,0.14 0.11,0.34 0.14,0.59 0.03,0.24 0.05,0.54 0.05,0.89 0,0.37 -0.02,0.67 -0.05,0.91 -0.03,0.24 -0.08,0.43 -0.14,0.57 -0.07,0.15 -0.14,0.25 -0.24,0.31 -0.09,0.07 -0.19,0.1 -0.31,0.1l-7.35 0 0 6.89 8.78 0c0.12,0 0.22,0.03 0.31,0.1 0.1,0.07 0.18,0.18 0.24,0.33 0.06,0.15 0.11,0.35 0.14,0.6 0.03,0.25 0.05,0.55 0.05,0.92zm21.83 0.08c0.23,0.45 0.38,0.8 0.45,1.06 0.07,0.27 0.03,0.47 -0.12,0.61 -0.16,0.14 -0.43,0.22 -0.82,0.26 -0.4,0.04 -0.95,0.06 -1.65,0.06 -0.59,0 -1.06,-0.01 -1.4,-0.04 -0.34,-0.03 -0.6,-0.06 -0.8,-0.12 -0.19,-0.06 -0.33,-0.14 -0.42,-0.24 -0.09,-0.1 -0.16,-0.23 -0.23,-0.37l-4.6 -8.83 -4.57 8.83c-0.08,0.14 -0.15,0.27 -0.24,0.37 -0.09,0.1 -0.24,0.18 -0.43,0.24 -0.2,0.06 -0.47,0.09 -0.82,0.12 -0.35,0.03 -0.8,0.04 -1.37,0.04 -0.66,0 -1.17,-0.02 -1.53,-0.06 -0.35,-0.04 -0.6,-0.12 -0.73,-0.26 -0.12,-0.14 -0.15,-0.34 -0.07,-0.61 0.07,-0.26 0.23,-0.61 0.47,-1.06l5.85 -10.68 -5.44 -10.03c-0.23,-0.46 -0.38,-0.82 -0.47,-1.09 -0.07,-0.27 -0.05,-0.47 0.1,-0.61 0.14,-0.12 0.41,-0.21 0.8,-0.24 0.39,-0.03 0.95,-0.05 1.66,-0.05 0.6,0 1.07,0.02 1.42,0.04 0.34,0.03 0.62,0.07 0.81,0.13 0.21,0.05 0.35,0.13 0.43,0.23 0.08,0.1 0.16,0.23 0.24,0.38l4.31 8.09 4.16 -8.09c0.08,-0.15 0.16,-0.28 0.24,-0.38 0.08,-0.1 0.21,-0.18 0.39,-0.23 0.19,-0.06 0.44,-0.1 0.76,-0.13 0.32,-0.02 0.77,-0.04 1.33,-0.04 0.63,0 1.13,0.02 1.49,0.05 0.37,0.03 0.62,0.12 0.76,0.26 0.13,0.13 0.17,0.34 0.1,0.6 -0.07,0.27 -0.21,0.62 -0.42,1.08l-5.45 9.98 5.81 10.73zm22.96 1.2c0,0.12 -0.04,0.24 -0.12,0.34 -0.08,0.1 -0.22,0.18 -0.41,0.24 -0.18,0.06 -0.44,0.11 -0.75,0.15 -0.31,0.04 -0.71,0.06 -1.18,0.06 -0.49,0 -0.9,-0.02 -1.22,-0.06 -0.32,-0.04 -0.57,-0.09 -0.76,-0.15 -0.18,-0.06 -0.3,-0.14 -0.39,-0.24 -0.08,-0.1 -0.12,-0.22 -0.12,-0.34l0 -9.89 -9.17 0 0 9.89c0,0.12 -0.04,0.24 -0.12,0.34 -0.07,0.1 -0.2,0.18 -0.39,0.24 -0.19,0.06 -0.44,0.11 -0.76,0.15 -0.3,0.04 -0.71,0.06 -1.2,0.06 -0.47,0 -0.87,-0.02 -1.19,-0.06 -0.33,-0.04 -0.58,-0.09 -0.76,-0.15 -0.19,-0.06 -0.33,-0.14 -0.41,-0.24 -0.09,-0.1 -0.12,-0.22 -0.12,-0.34l0 -23.1c0,-0.13 0.03,-0.24 0.12,-0.35 0.08,-0.09 0.22,-0.18 0.41,-0.24 0.18,-0.06 0.43,-0.11 0.76,-0.15 0.32,-0.04 0.72,-0.06 1.19,-0.06 0.49,0 0.9,0.02 1.2,0.06 0.32,0.04 0.57,0.09 0.76,0.15 0.19,0.06 0.32,0.15 0.39,0.24 0.08,0.11 0.12,0.22 0.12,0.35l0 8.99 9.17 0 0 -8.99c0,-0.13 0.04,-0.24 0.12,-0.35 0.09,-0.09 0.21,-0.18 0.39,-0.24 0.19,-0.06 0.44,-0.11 0.76,-0.15 0.32,-0.04 0.73,-0.06 1.22,-0.06 0.47,0 0.87,0.02 1.18,0.06 0.31,0.04 0.57,0.09 0.75,0.15 0.19,0.06 0.33,0.15 0.41,0.24 0.08,0.11 0.12,0.22 0.12,0.35l0 23.1zm25.22 0.04c0,0.12 -0.03,0.23 -0.12,0.32 -0.08,0.1 -0.22,0.18 -0.4,0.24 -0.19,0.06 -0.45,0.11 -0.77,0.15 -0.32,0.03 -0.72,0.04 -1.2,0.04 -0.48,0 -0.88,-0.01 -1.2,-0.04 -0.32,-0.04 -0.58,-0.09 -0.76,-0.15 -0.18,-0.06 -0.31,-0.14 -0.38,-0.24 -0.08,-0.09 -0.12,-0.2 -0.12,-0.32l0 -12.9c0,-0.49 0.01,-0.97 0.02,-1.44 0.01,-0.48 0.03,-0.9 0.06,-1.26l-0.04 0c-0.1,0.18 -0.22,0.38 -0.36,0.62 -0.14,0.23 -0.29,0.47 -0.45,0.73 -0.16,0.26 -0.32,0.52 -0.5,0.79 -0.18,0.27 -0.35,0.54 -0.53,0.79l-8.49 12.69c-0.1,0.13 -0.21,0.25 -0.31,0.35 -0.11,0.1 -0.25,0.18 -0.42,0.24 -0.17,0.06 -0.37,0.1 -0.62,0.11 -0.24,0.02 -0.57,0.03 -0.95,0.03 -0.49,0 -0.89,-0.01 -1.19,-0.04 -0.3,-0.04 -0.54,-0.09 -0.71,-0.15 -0.17,-0.06 -0.29,-0.15 -0.35,-0.24 -0.06,-0.11 -0.1,-0.23 -0.1,-0.36l0 -23.14c0,-0.12 0.04,-0.23 0.13,-0.33 0.08,-0.1 0.22,-0.18 0.41,-0.24 0.19,-0.06 0.45,-0.11 0.77,-0.14 0.31,-0.03 0.71,-0.05 1.18,-0.05 0.49,0 0.89,0.02 1.2,0.05 0.32,0.03 0.57,0.08 0.76,0.14 0.19,0.06 0.32,0.14 0.39,0.24 0.08,0.1 0.12,0.21 0.12,0.33l0 12.97c0,0.4 -0.01,0.83 -0.02,1.28 -0.01,0.46 -0.03,0.9 -0.06,1.32l0.04 0c0.22,-0.37 0.49,-0.83 0.82,-1.36 0.33,-0.53 0.67,-1.04 1.02,-1.55l8.5 -12.68c0.09,-0.12 0.18,-0.23 0.29,-0.33 0.1,-0.1 0.24,-0.17 0.4,-0.24 0.17,-0.06 0.38,-0.1 0.64,-0.13 0.25,-0.02 0.57,-0.04 0.96,-0.04 0.48,0 0.87,0.02 1.16,0.05 0.3,0.03 0.53,0.08 0.71,0.14 0.18,0.06 0.3,0.14 0.37,0.24 0.07,0.1 0.1,0.21 0.1,0.35l0 23.16zm23.45 -0.02c0,0.13 -0.04,0.25 -0.12,0.34 -0.07,0.1 -0.21,0.18 -0.41,0.24 -0.19,0.06 -0.45,0.11 -0.78,0.15 -0.33,0.03 -0.75,0.04 -1.27,0.04 -0.55,0 -0.98,-0.01 -1.31,-0.04 -0.34,-0.04 -0.61,-0.09 -0.81,-0.16 -0.2,-0.07 -0.35,-0.16 -0.46,-0.28 -0.09,-0.12 -0.17,-0.27 -0.22,-0.45l-1.97 -5.45c-0.28,-0.8 -0.57,-1.46 -0.87,-2 -0.3,-0.53 -0.64,-0.97 -1.01,-1.31 -0.36,-0.32 -0.78,-0.56 -1.24,-0.71 -0.47,-0.13 -0.99,-0.2 -1.57,-0.2l-1.12 0 0 9.81c0,0.13 -0.04,0.25 -0.12,0.35 -0.07,0.09 -0.2,0.17 -0.39,0.24 -0.19,0.07 -0.44,0.12 -0.75,0.16 -0.31,0.03 -0.72,0.04 -1.2,0.04 -0.48,0 -0.88,-0.01 -1.2,-0.04 -0.33,-0.04 -0.58,-0.09 -0.76,-0.16 -0.19,-0.07 -0.33,-0.15 -0.41,-0.24 -0.08,-0.1 -0.12,-0.22 -0.12,-0.35l0 -23.12c0,-0.14 0.04,-0.25 0.12,-0.35 0.08,-0.1 0.22,-0.18 0.41,-0.24 0.18,-0.06 0.43,-0.11 0.76,-0.14 0.32,-0.03 0.72,-0.05 1.2,-0.05 0.48,0 0.89,0.02 1.2,0.05 0.31,0.03 0.56,0.08 0.75,0.14 0.19,0.06 0.32,0.14 0.39,0.24 0.08,0.09 0.12,0.21 0.12,0.35l0 9.17 1.12 0c0.56,0 1.07,-0.08 1.49,-0.23 0.43,-0.15 0.82,-0.39 1.17,-0.71 0.35,-0.33 0.66,-0.76 0.95,-1.28 0.28,-0.52 0.55,-1.17 0.82,-1.94l1.65 -4.87c0.06,-0.17 0.13,-0.32 0.22,-0.43 0.09,-0.13 0.23,-0.22 0.43,-0.29 0.19,-0.07 0.45,-0.12 0.77,-0.15 0.32,-0.03 0.75,-0.05 1.29,-0.05 0.49,0 0.9,0.02 1.21,0.05 0.33,0.03 0.58,0.08 0.76,0.13 0.19,0.06 0.31,0.13 0.37,0.23 0.06,0.1 0.09,0.21 0.09,0.35 0,0.16 -0.02,0.37 -0.08,0.6 -0.06,0.24 -0.16,0.56 -0.3,0.95l-1.64 4.34c-0.3,0.8 -0.6,1.49 -0.9,2.05 -0.31,0.57 -0.62,1.05 -0.96,1.45 -0.33,0.4 -0.68,0.72 -1.06,0.97 -0.36,0.25 -0.78,0.46 -1.23,0.63l0 0.01c0.51,0.22 0.96,0.46 1.37,0.73 0.41,0.28 0.8,0.62 1.16,1.03 0.36,0.42 0.7,0.93 1.03,1.54 0.32,0.6 0.66,1.34 1,2.23l2.01 5.07c0.2,0.52 0.32,0.87 0.36,1.07 0.04,0.2 0.06,0.36 0.06,0.49zm23.69 -1.2c0.15,0.45 0.25,0.82 0.29,1.08 0.04,0.26 -0.01,0.46 -0.15,0.6 -0.14,0.13 -0.39,0.21 -0.74,0.25 -0.35,0.03 -0.84,0.04 -1.45,0.04 -0.65,0 -1.15,-0.01 -1.5,-0.03 -0.37,-0.01 -0.64,-0.05 -0.83,-0.11 -0.19,-0.06 -0.32,-0.14 -0.39,-0.24 -0.08,-0.1 -0.14,-0.23 -0.19,-0.39l-1.61 -4.92 -9.22 0 -1.54 4.78c-0.05,0.18 -0.12,0.33 -0.2,0.45 -0.08,0.12 -0.21,0.21 -0.39,0.28 -0.18,0.07 -0.44,0.11 -0.78,0.14 -0.33,0.03 -0.77,0.04 -1.31,0.04 -0.58,0 -1.03,-0.02 -1.36,-0.06 -0.33,-0.04 -0.56,-0.13 -0.68,-0.27 -0.13,-0.15 -0.17,-0.35 -0.14,-0.62 0.04,-0.26 0.14,-0.61 0.29,-1.05l7.53 -21.71c0.07,-0.21 0.16,-0.38 0.27,-0.51 0.09,-0.14 0.25,-0.23 0.47,-0.3 0.23,-0.08 0.53,-0.12 0.93,-0.14 0.38,-0.02 0.9,-0.03 1.54,-0.03 0.74,0 1.34,0.01 1.78,0.03 0.44,0.02 0.78,0.06 1.03,0.14 0.24,0.07 0.42,0.17 0.53,0.3 0.1,0.15 0.2,0.33 0.27,0.57l7.55 21.68zm-11.22 -17.95l-0.01 0 -3.41 10.4 6.86 0 -3.44 -10.4z"/>
  </g>
 </g>
</svg>
