<?xml version="1.0" encoding="UTF-8"?>
<!DOCTYPE svg PUBLIC "-//W3C//DTD SVG 1.1//EN" "http://www.w3.org/Graphics/SVG/1.1/DTD/svg11.dtd">
<!-- Creator: CorelDRAW 2017 -->
<svg xmlns="http://www.w3.org/2000/svg" xml:space="preserve" width="500px" height="500px" version="1.1" style="shape-rendering:geometricPrecision; text-rendering:geometricPrecision; image-rendering:optimizeQuality; fill-rule:evenodd; clip-rule:evenodd"
viewBox="0 0 500 500"
 xmlns:xlink="http://www.w3.org/1999/xlink">
 <defs>
  <style type="text/css">
   <![CDATA[
    .str0 {stroke:#0082EF;stroke-width:20;stroke-miterlimit:22.9256}
    .fil1 {fill:#0082EF}
    .fil2 {fill:#055CA3}
    .fil0 {fill:white}
    .fil3 {fill:white;fill-rule:nonzero}
   ]]>
  </style>
 </defs>
 <g id="Слой_x0020_1">
  <metadata id="CorelCorpID_0Corel-Layer"/>
  <circle class="fil0 str0" cx="250" cy="250" r="229.7"/>
 </g>
 <g id="Слой_x0020_1_0">
  <metadata id="CorelCorpID_1Corel-Layer"/>
  <path class="fil1" d="M377.79 175.06l-67.18 0c-8.28,-0.07 -11.77,-1.72 -16.13,-6.21 -7.98,-8.24 -6.21,-25.26 -6.21,-38.54 0,-14.93 0.06,-29.87 -0.01,-44.8 -39.24,0.56 -78.89,0.03 -118.17,0.03 -9.59,0 -18.13,-0.41 -24.97,4.26 -5.02,3.42 -10.26,10.03 -10.98,18.75 -0.69,8.43 -0.12,47.41 -0.12,59.07l0 206.45c-0.02,11.15 1.29,16.24 7.47,22.38 5.98,5.94 10.87,7.49 21.75,7.47l177.23 -0.01c10.48,0 17.97,1.03 25.84,-4.01 14.65,-9.4 11.47,-27.48 11.47,-47.59 0,-58.8 -0.52,-118.71 0.01,-177.25z"/>
  <path class="fil2" d="M377.79 175.06c-0.12,-13 1.16,-9.49 -5.87,-16.51l-67.17 -67.14c-7.04,-7.04 -3.53,-5.73 -16.49,-5.9 0.07,14.93 0.01,29.87 0.01,44.8 0,13.28 -1.77,30.3 6.21,38.54 4.36,4.49 7.85,6.14 16.13,6.21l67.18 0z"/>
  <path class="fil3" d="M143.84 255.77l32.01 0c12.22,-0.05 18.41,6.14 18.58,18.58l0 3.92c-0.17,12.72 -6.64,19.08 -19.42,19.08l-31.17 0 0 -41.58zm10.42 8.42l0 24.75 15.67 0c8.94,0 13.44,-4.97 13.5,-14.92 0,-6.55 -3.56,-9.83 -10.67,-9.83l-18.5 0z"/>
  <path id="1" class="fil3" d="M208.93 255.77l35.42 0c3.83,0 5.77,2.17 5.83,6.5l0 28.92c-0.11,4.11 -2.06,6.16 -5.83,6.16l-35.17 0c-4.11,0 -6.17,-1.86 -6.17,-5.58l0 -30.92c0,-3.39 1.97,-5.08 5.92,-5.08zm3.67 7.83l0 25.92 28.08 0 0 -25.92 -28.08 0z"/>
  <path id="2" class="fil3" d="M265.85 255.77l32.58 0c4.33,0 6.47,2.33 6.42,7l0 7.58 -10.09 1.75 0 -7.91 -25.33 0 0 24.75 25.33 0 0 -8.42 10.09 1.67 0 8.16c0,4.67 -2.14,7 -6.42,7l-32.58 0c-4.34,0 -6.5,-2.33 -6.5,-7l0 -27.58c0,-4.61 2.16,-6.94 6.5,-7z"/>
  <polygon id="3" class="fil3" points="313.1,255.77 324.93,255.77 338.1,269.52 350.18,255.77 361.18,255.77 344.26,275.44 365.93,297.35 352.43,297.35 337.68,281.6 324.35,297.35 313.1,297.35 331.68,276.02 "/>
 </g>
</svg>
