<?xml version="1.0" encoding="UTF-8"?>
<!DOCTYPE svg PUBLIC "-//W3C//DTD SVG 1.1//EN" "http://www.w3.org/Graphics/SVG/1.1/DTD/svg11.dtd">
<!-- Creator: CorelDRAW 2017 -->
<svg xmlns="http://www.w3.org/2000/svg" xml:space="preserve" width="500px" height="500px" version="1.1" style="shape-rendering:geometricPrecision; text-rendering:geometricPrecision; image-rendering:optimizeQuality; fill-rule:evenodd; clip-rule:evenodd"
viewBox="0 0 500 500"
 xmlns:xlink="http://www.w3.org/1999/xlink">
 <defs>
  <style type="text/css">
   <![CDATA[
    .str0 {stroke:#E31E24;stroke-width:20;stroke-miterlimit:22.9256}
    .str3 {stroke:#2B2A2A;stroke-width:2;stroke-miterlimit:22.9256}
    .str5 {stroke:#C4161E;stroke-width:2;stroke-miterlimit:22.9256}
    .str4 {stroke:#D81D26;stroke-width:2;stroke-miterlimit:22.9256}
    .str6 {stroke:#2B2A29;stroke-width:2.36;stroke-miterlimit:22.9256}
    .str7 {stroke:#424242;stroke-width:3;stroke-miterlimit:22.9256}
    .str8 {stroke:#757575;stroke-width:3;stroke-miterlimit:22.9256}
    .str2 {stroke:#9E9E9E;stroke-width:3;stroke-miterlimit:22.9256}
    .str1 {stroke:#C4161E;stroke-width:3;stroke-miterlimit:22.9256}
    .fil1 {fill:none}
    .fil3 {fill:#9D9E9E}
    .fil6 {fill:black}
    .fil2 {fill:#080808}
    .fil5 {fill:#C4161E}
    .fil4 {fill:#C4161E}
    .fil7 {fill:#D81D26}
    .fil8 {fill:#D81D26}
    .fil0 {fill:white}
   ]]>
  </style>
 </defs>
 <g id="Слой_x0020_1">
  <metadata id="CorelCorpID_0Corel-Layer"/>
  <circle class="fil0 str0" cx="250" cy="250" r="229.7"/>
  <line class="fil1 str1" x1="204.56" y1="241.66" x2="295.88" y2= "221.63" />
 </g>
 <g id="Слой_x0020_1_0">
  <metadata id="CorelCorpID_1Corel-Layer"/>
  <path class="fil0 str2" d="M164.81 140.04l106.17 -23.27c5.63,-1.24 11.38,1.79 12.79,6.72l48.01 168.13c1.41,4.93 -2.04,9.97 -7.67,11.21l-106.17 23.27c-5.63,1.24 -11.39,-1.79 -12.8,-6.72l-48 -168.13c-1.41,-4.93 2.04,-9.97 7.67,-11.21z"/>
  <line class="fil1 str1" x1="179" y1="158.49" x2="237.93" y2= "145.21" />
  <line class="fil1 str1" x1="184.94" y1="176" x2="276.26" y2= "155.98" />
  <line class="fil1 str1" x1="187.26" y1="187.65" x2="278.57" y2= "167.63" />
  <line class="fil1 str1" x1="191.29" y1="197.9" x2="282.61" y2= "177.88" />
  <line class="fil1 str1" x1="194.17" y1="209.51" x2="285.49" y2= "189.49" />
  <line class="fil1 str1" x1="198.21" y1="219.76" x2="289.53" y2= "199.74" />
  <line class="fil1 str1" x1="200.52" y1="231.41" x2="291.84" y2= "211.39" />
  <path class="fil2 str3" d="M170.56 151.7l60.14 -12.38 -0.89 57.92c-2.88,-1.2 -6.15,-1.88 -9.62,-1.88 -11.48,0 -20.79,7.43 -20.79,16.59 0,9.17 9.31,16.6 20.79,16.6 12.57,0 20.45,-7.93 20.63,-17.53l0.49 -100.11 -83.17 17.13 0.28 85.9c-2.87,-1.2 -6.14,-1.88 -9.61,-1.88 -11.49,0 -20.79,7.43 -20.79,16.59 0,9.16 9.3,16.59 20.79,16.59 11.48,0 20.57,-8.08 20.57,-17.24l1.18 -76.3z"/>
  <line class="fil1 str1" x1="200.52" y1="243.1" x2="291.84" y2= "223.08" />
  <path class="fil3" d="M81.67 249.2l77.16 -56.94c4.09,-3.02 9.9,-2.15 12.92,1.94l102.92 139.44c3.02,4.09 2.14,9.91 -1.95,12.93l-77.15 56.95c-4.1,3.02 -9.91,2.14 -12.93,-1.95l-102.92 -139.44c-3.02,-4.09 -2.14,-9.91 1.95,-12.93z"/>
  <path class="fil0" d="M94.21 251.88l64.59 -47.68c3.43,-2.53 8.3,-1.79 10.83,1.63l86.16 116.74c2.53,3.42 1.79,8.29 -1.63,10.82l-64.6 47.68c-3.42,2.53 -8.29,1.79 -10.82,-1.63l-86.16 -116.74c-2.53,-3.43 -1.8,-8.29 1.63,-10.82z"/>
  <circle class="fil4" cx="106.67" cy="260.37" r="9.24"/>
  <line class="fil1 str4" x1="110.71" y1="248.24" x2="113.02" y2= "242.22" />
  <line class="fil1 str4" x1="136.13" y1="237.26" x2="116.43" y2= "252.47" />
  <line class="fil1 str4" x1="141.47" y1="260.86" x2="120.79" y2= "260.41" />
  <line class="fil1 str4" x1="129.19" y1="286.48" x2="116.41" y2= "269.88" />
  <line class="fil1 str4" x1="102.9" y1="273.68" x2="104.37" y2= "271.39" />
  <path class="fil4" d="M169.71 227.07c1.56,-1.18 3.79,-3.53 6.09,-2.89 3.32,0.92 5.48,7.47 9.86,9.69 7.54,3.83 8.81,16.34 2.1,17.21 -4.66,0.6 -4.66,1.47 -4.91,1.6 -3.71,2.02 -7.87,0.73 -12.25,-3.66 -0.82,-0.82 0.16,-3.64 -0.58,-4.62 -0.77,-1.03 -1.74,-1.26 -2.31,-2.31 -3.13,-5.76 -1.23,-12.6 2,-15.02z"/>
  <path class="fil5" d="M167.58 286.54c1.56,-1.17 -2.31,-9.24 0.58,-12.71 1.12,-1.35 13.78,-13.62 21.95,-19.64 12.33,-9.09 8.09,-2.31 19.64,8.09 0,0 21.96,28.3 21.38,28.88 0,0 -35,24.13 -35.24,24.26 -3.71,2.02 -39.52,33.28 -43.91,28.89 -0.81,-0.82 -14.71,-20.24 -15.45,-21.22 -0.77,-1.03 17.18,-19.32 16.61,-20.38 -3.13,-5.75 11.22,-13.75 14.44,-16.17z"/>
  <line class="fil1 str5" x1="191.87" y1="258.4" x2="185.51" y2= "248" />
  <g id="_2769879081696">
   <rect class="fil6 str6" x="262.71" y="130.89" width="119.98" height="151.28" rx="9.32" ry="8.35"/>
   <rect class="fil4 str6" x="287.35" y="136.11" width="71.34" height="61.38" rx="5.54" ry="3.39"/>
   <rect class="fil4 str6" x="288.52" y="205.14" width="71.34" height="61.38" rx="5.54" ry="3.39"/>
   <rect class="fil0" x="267.92" y="136.1" width="14.93" height="12.85" rx="1.16" ry="0.71"/>
   <rect class="fil0" x="363.58" y="136.1" width="14.93" height="12.85" rx="1.16" ry="0.71"/>
   <rect class="fil0" x="267.92" y="155.93" width="14.93" height="12.85" rx="1.16" ry="0.71"/>
   <rect class="fil0" x="363.58" y="155.93" width="14.93" height="12.85" rx="1.16" ry="0.71"/>
   <rect class="fil0" x="267.92" y="175.42" width="14.93" height="12.85" rx="1.16" ry="0.71"/>
   <rect class="fil0" x="363.58" y="175.42" width="14.93" height="12.85" rx="1.16" ry="0.71"/>
   <rect class="fil0" x="267.92" y="194.53" width="14.93" height="12.85" rx="1.16" ry="0.71"/>
   <rect class="fil0" x="363.58" y="194.53" width="14.93" height="12.85" rx="1.16" ry="0.71"/>
   <rect class="fil0" x="267.92" y="214.35" width="14.93" height="12.85" rx="1.16" ry="0.71"/>
   <rect class="fil0" x="363.58" y="214.35" width="14.93" height="12.85" rx="1.16" ry="0.71"/>
   <rect class="fil0" x="267.92" y="233.85" width="14.93" height="12.85" rx="1.16" ry="0.71"/>
   <rect class="fil0" x="363.58" y="233.85" width="14.93" height="12.85" rx="1.16" ry="0.71"/>
  </g>
  <path class="fil7 str7" d="M189.14 422.83c-33.36,-31.07 -54.24,-67.76 -72.21,-108.03 85.24,-39.76 176.67,-73.51 268.05,-97.05 16.18,40.44 17.57,82.33 16.18,125.94 -60.34,38.77 -133.57,65.73 -212.02,79.14z"/>
  <circle class="fil0" transform="matrix(1.03381 -0.678316 0.678316 1.03381 277.729 325.887)" r="49"/>
  <rect class="fil8" transform="matrix(1.03381 -0.678316 0.678316 1.03381 240.405 294.921)" width="23" height="75" rx="14" ry="14"/>
  <rect class="fil8" transform="matrix(-0.678316 -1.03381 1.03381 -0.678316 246.763 363.214)" width="23" height="75" rx="14" ry="14"/>
  <line class="fil1 str8" x1="167.43" y1="131.47" x2="236.05" y2= "115.99" />
 </g>
</svg>
