<?xml version="1.0" encoding="UTF-8"?>
<!DOCTYPE svg PUBLIC "-//W3C//DTD SVG 1.1//EN" "http://www.w3.org/Graphics/SVG/1.1/DTD/svg11.dtd">
<!-- Creator: CorelDRAW 2017 -->
<svg xmlns="http://www.w3.org/2000/svg" xml:space="preserve" width="500px" height="500px" version="1.1" style="shape-rendering:geometricPrecision; text-rendering:geometricPrecision; image-rendering:optimizeQuality; fill-rule:evenodd; clip-rule:evenodd"
viewBox="0 0 500 500"
 xmlns:xlink="http://www.w3.org/1999/xlink">
 <defs>
  <style type="text/css">
   <![CDATA[
    .str0 {stroke:#0082EF;stroke-width:20;stroke-miterlimit:22.9256}
    .str1 {stroke:#2B2A29;stroke-width:7.37;stroke-miterlimit:22.9256}
    .fil1 {fill:black}
    .fil2 {fill:#0082EF}
    .fil3 {fill:#FCD844}
    .fil0 {fill:white}
   ]]>
  </style>
 </defs>
 <g id="Слой_x0020_1">
  <metadata id="CorelCorpID_0Corel-Layer"/>
  <circle class="fil0 str0" cx="251.91" cy="250" r="217.46"/>
  <circle class="fil1 str1" cx="248.7" cy="249.81" r="131.23"/>
  <path class="fil2" d="M248.84 129.01c66.72,0 120.8,54.08 120.8,120.8 0,66.72 -54.08,120.8 -120.8,120.8 -66.72,0 -120.8,-54.08 -120.8,-120.8 0,-66.72 54.08,-120.8 120.8,-120.8l0 0zm118.02 51.7c-23.16,-40.46 -67.74,-67.65 -118.02,-67.65 -50.68,0 -94.93,27.57 -118.55,68.54 -23.63,40.88 -53.01,69.05 -103.64,69.05 49.02,0 79.59,25.44 104.06,67.69 23.68,40.75 67.6,68.21 118.13,68.21 50.5,0 94.62,-27.38 118.3,-68.11 23.65,-40.85 55.61,-68.93 106.21,-68.93 -49.41,-0.05 -82.21,-26.01 -106.49,-68.8l0 0z"/>
 </g>
 <g id="Слой_x0020_1_0">
  <metadata id="CorelCorpID_1Corel-Layer"/>
  <polygon class="fil3" points="327.16,248.21 265.69,211.34 204.23,174.47 204.23,248.21 204.23,321.95 265.69,285.08 "/>
 </g>
</svg>
