<?xml version="1.0" encoding="UTF-8"?>
<!DOCTYPE svg PUBLIC "-//W3C//DTD SVG 1.1//EN" "http://www.w3.org/Graphics/SVG/1.1/DTD/svg11.dtd">
<!-- Creator: CorelDRAW 2017 -->
<svg xmlns="http://www.w3.org/2000/svg" xml:space="preserve" width="500px" height="500px" version="1.1" style="shape-rendering:geometricPrecision; text-rendering:geometricPrecision; image-rendering:optimizeQuality; fill-rule:evenodd; clip-rule:evenodd"
viewBox="0 0 500 500"
 xmlns:xlink="http://www.w3.org/1999/xlink">
 <defs>
  <style type="text/css">
   <![CDATA[
    .str0 {stroke:#87EB06;stroke-width:25;stroke-miterlimit:22.9256}
    .fil0 {fill:#3B4A35}
    .fil1 {fill:#87EB06;fill-rule:nonzero}
   ]]>
  </style>
 </defs>
 <g id="Слой_x0020_1">
  <metadata id="CorelCorpID_0Corel-Layer"/>
  <circle class="fil0 str0" cx="250" cy="250" r="230.97"/>
 </g>
 <g id="Слой_x0020_1_0">
  <metadata id="CorelCorpID_1Corel-Layer"/>
  <path class="fil1" d="M99.32 127l59.47 0c13.42,0 23.65,1.01 30.68,3.08 9.43,2.78 17.55,7.75 24.28,14.89 6.77,7.1 11.88,15.82 15.41,26.16 3.5,10.3 5.27,23.05 5.27,38.16 0,13.31 -1.66,24.74 -4.97,34.36 -4.02,11.77 -9.77,21.28 -17.25,28.53 -5.64,5.53 -13.27,9.81 -22.86,12.9 -7.18,2.29 -16.76,3.42 -28.79,3.42l-61.24 0 0 -161.5zm32.71 27.29l0 106.92 24.24 0c9.06,0 15.6,-0.53 19.63,-1.55 5.3,-1.31 9.66,-3.57 13.11,-6.72 3.5,-3.16 6.32,-8.35 8.5,-15.57 2.22,-7.22 3.31,-17.1 3.31,-29.58 0,-12.48 -1.09,-22.03 -3.31,-28.72 -2.18,-6.7 -5.26,-11.88 -9.21,-15.64 -3.95,-3.73 -8.95,-6.28 -15.04,-7.6 -4.51,-1.01 -13.42,-1.54 -26.65,-1.54l-14.58 0zm151.61 134.21l-37 -117.07 30.08 0 21.92 76.73 20.18 -76.73 29.85 0 19.44 76.73 22.36 -76.73 30.53 0 -37.59 117.07 -29.7 0 -20.11 -75.3 -19.85 75.3 -30.11 0z"/>
  <path class="fil1" d="M185.23 375.39l16.62 -2.03c0.52,4.25 1.94,7.5 4.25,9.75 2.32,2.25 5.11,3.38 8.38,3.38 3.52,0 6.48,-1.35 8.89,-4.04 2.4,-2.69 3.61,-6.31 3.61,-10.9 0,-4.31 -1.15,-7.75 -3.46,-10.27 -2.31,-2.52 -5.12,-3.79 -8.46,-3.79 -2.19,0 -4.79,0.44 -7.83,1.29l1.89 -13.92c4.63,0.13 8.15,-0.89 10.59,-3.04 2.44,-2.12 3.64,-4.98 3.64,-8.54 0,-3.02 -0.89,-5.42 -2.68,-7.23 -1.8,-1.79 -4.17,-2.69 -7.15,-2.69 -2.94,0 -5.44,1.03 -7.5,3.07 -2.08,2.04 -3.33,5.02 -3.79,8.93l-15.75 -2.68c1.1,-5.46 2.75,-9.82 4.98,-13.09 2.21,-3.25 5.31,-5.81 9.27,-7.68 3.96,-1.86 8.42,-2.8 13.33,-2.8 8.42,0 15.17,2.69 20.25,8.09 4.19,4.42 6.29,9.41 6.29,14.98 0,7.87 -4.29,14.18 -12.89,18.87 5.12,1.11 9.21,3.56 12.29,7.4 3.06,3.83 4.6,8.46 4.6,13.87 0,7.86 -2.87,14.57 -8.6,20.11 -5.73,5.54 -12.85,8.31 -21.4,8.31 -8.08,0 -14.79,-2.33 -20.1,-7.02 -5.33,-4.67 -8.42,-10.77 -9.27,-18.33z"/>
  <path id="1" class="fil1" d="M313.25 383.24l0 15.87 -60.12 0c0.64,-6.04 2.6,-11.75 5.85,-17.14 3.25,-5.4 9.69,-12.56 19.27,-21.5 7.73,-7.21 12.46,-12.11 14.21,-14.67 2.35,-3.54 3.54,-7.04 3.54,-10.52 0,-3.83 -1.02,-6.77 -3.08,-8.83 -2.05,-2.06 -4.88,-3.09 -8.48,-3.09 -3.59,0 -6.42,1.09 -8.54,3.25 -2.11,2.15 -3.32,5.73 -3.65,10.75l-17.13 -1.7c1.03,-9.46 4.21,-16.25 9.59,-20.38 5.37,-4.1 12.08,-6.17 20.14,-6.17 8.84,0 15.77,2.4 20.84,7.17 5.04,4.77 7.56,10.71 7.56,17.81 0,4.05 -0.73,7.88 -2.17,11.55 -1.43,3.64 -3.73,7.45 -6.87,11.45 -2.06,2.67 -5.84,6.48 -11.25,11.46 -5.44,4.98 -8.88,8.27 -10.31,9.92 -1.46,1.62 -2.63,3.23 -3.53,4.77l34.13 0z"/>
 </g>
</svg>
