<?xml version="1.0" encoding="UTF-8"?>
<!DOCTYPE svg PUBLIC "-//W3C//DTD SVG 1.1//EN" "http://www.w3.org/Graphics/SVG/1.1/DTD/svg11.dtd">
<!-- Creator: CorelDRAW 2017 -->
<svg xmlns="http://www.w3.org/2000/svg" xml:space="preserve" width="500px" height="500px" version="1.1" style="shape-rendering:geometricPrecision; text-rendering:geometricPrecision; image-rendering:optimizeQuality; fill-rule:evenodd; clip-rule:evenodd"
viewBox="0 0 500 500"
 xmlns:xlink="http://www.w3.org/1999/xlink">
 <defs>
  <style type="text/css">
   <![CDATA[
    .str0 {stroke:#87EB06;stroke-width:25;stroke-miterlimit:22.9256}
    .fil0 {fill:#3B4A35}
    .fil1 {fill:#87EB06;fill-rule:nonzero}
   ]]>
  </style>
 </defs>
 <g id="Слой_x0020_1">
  <metadata id="CorelCorpID_0Corel-Layer"/>
  <circle class="fil0 str0" cx="250" cy="250" r="230.97"/>
 </g>
 <g id="Слой_x0020_1_0">
  <metadata id="CorelCorpID_1Corel-Layer"/>
  <path class="fil1" d="M99.32 127l59.47 0c13.42,0 23.65,1.01 30.68,3.08 9.43,2.78 17.55,7.75 24.28,14.89 6.77,7.1 11.88,15.82 15.41,26.16 3.5,10.3 5.27,23.05 5.27,38.16 0,13.31 -1.66,24.74 -4.97,34.36 -4.02,11.77 -9.77,21.28 -17.25,28.53 -5.64,5.53 -13.27,9.81 -22.86,12.9 -7.18,2.29 -16.76,3.42 -28.79,3.42l-61.24 0 0 -161.5zm32.71 27.29l0 106.92 24.24 0c9.06,0 15.6,-0.53 19.63,-1.55 5.3,-1.31 9.66,-3.57 13.11,-6.72 3.5,-3.16 6.32,-8.35 8.5,-15.57 2.22,-7.22 3.31,-17.1 3.31,-29.58 0,-12.48 -1.09,-22.03 -3.31,-28.72 -2.18,-6.7 -5.26,-11.88 -9.21,-15.64 -3.95,-3.73 -8.95,-6.28 -15.04,-7.6 -4.51,-1.01 -13.42,-1.54 -26.65,-1.54l-14.58 0zm151.61 134.21l-37 -117.07 30.08 0 21.92 76.73 20.18 -76.73 29.85 0 19.44 76.73 22.36 -76.73 30.53 0 -37.59 117.07 -29.7 0 -20.11 -75.3 -19.85 75.3 -30.11 0z"/>
  <path class="fil1" d="M243.85 331.53l-16.62 1.83c-0.4,-3.41 -1.46,-5.93 -3.17,-7.56 -1.71,-1.62 -3.91,-2.44 -6.64,-2.44 -3.63,0 -6.69,1.63 -9.19,4.88 -2.5,3.25 -4.06,10.02 -4.71,20.31 4.27,-5.04 9.56,-7.56 15.92,-7.56 7.14,0 13.29,2.73 18.39,8.19 5.11,5.48 7.65,12.52 7.65,21.16 0,9.17 -2.69,16.55 -8.06,22.09 -5.38,5.54 -12.27,8.31 -20.69,8.31 -9.02,0 -16.46,-3.52 -22.27,-10.56 -5.81,-7.04 -8.73,-18.57 -8.73,-34.61 0,-16.43 3.04,-28.29 9.1,-35.56 6.07,-7.27 13.94,-10.9 23.63,-10.9 6.79,0 12.41,1.92 16.87,5.76 4.46,3.81 7.3,9.37 8.52,16.66zm-38.87 37.46c0,5.58 1.29,9.9 3.85,12.94 2.57,3.04 5.48,4.56 8.79,4.56 3.17,0 5.82,-1.25 7.94,-3.73 2.11,-2.5 3.17,-6.58 3.17,-12.25 0,-5.83 -1.15,-10.1 -3.42,-12.83 -2.29,-2.71 -5.12,-4.07 -8.54,-4.07 -3.31,0 -6.08,1.3 -8.37,3.9 -2.28,2.58 -3.42,6.42 -3.42,11.48z"/>
  <path id="1" class="fil1" d="M288.87 399.11l0 -18 -36.49 0 0 -14.93 38.7 -56.94 14.42 0 0 56.87 11.13 0 0 15 -11.13 0 0 18 -16.63 0zm0 -33l0 -30.56 -20.45 30.56 20.45 0z"/>
 </g>
</svg>
