<?xml version="1.0" encoding="UTF-8"?>
<!DOCTYPE svg PUBLIC "-//W3C//DTD SVG 1.1//EN" "http://www.w3.org/Graphics/SVG/1.1/DTD/svg11.dtd">
<!-- Creator: CorelDRAW 2017 -->
<svg xmlns="http://www.w3.org/2000/svg" xml:space="preserve" width="500px" height="500px" version="1.1" style="shape-rendering:geometricPrecision; text-rendering:geometricPrecision; image-rendering:optimizeQuality; fill-rule:evenodd; clip-rule:evenodd"
viewBox="0 0 500 500"
 xmlns:xlink="http://www.w3.org/1999/xlink">
 <defs>
  <style type="text/css">
   <![CDATA[
    .str3 {stroke:#1745D1;stroke-width:10;stroke-miterlimit:22.9256}
    .str1 {stroke:#0F7699;stroke-width:4;stroke-miterlimit:22.9256}
    .str0 {stroke:#0F7699;stroke-width:25;stroke-miterlimit:22.9256}
    .str2 {stroke:black;stroke-width:2.36;stroke-miterlimit:22.9256}
    .fil2 {fill:none;fill-rule:nonzero}
    .fil4 {fill:#1745D1}
    .fil3 {fill:#E6E6E6}
    .fil5 {fill:#EB3232}
    .fil1 {fill:#E6E6E6;fill-rule:nonzero}
    .fil0 {fill:url(#id0)}
   ]]>
  </style>
  <linearGradient id="id0" gradientUnits="userSpaceOnUse" x1="430.42" y1="382.17" x2="56.83" y2="119.83">
   <stop offset="0" style="stop-opacity:1; stop-color:#F77474"/>
   <stop offset="0.129412" style="stop-opacity:1; stop-color:#F5AC82"/>
   <stop offset="0.25098" style="stop-opacity:1; stop-color:yellow"/>
   <stop offset="0.368627" style="stop-opacity:1; stop-color:#5EF25E"/>
   <stop offset="0.490196" style="stop-opacity:1; stop-color:#7474F2"/>
   <stop offset="0.619608" style="stop-opacity:1; stop-color:#C77BF2"/>
   <stop offset="0.74902" style="stop-opacity:1; stop-color:#F77474"/>
   <stop offset="0.870588" style="stop-opacity:1; stop-color:#F5AC82"/>
   <stop offset="1" style="stop-opacity:1; stop-color:yellow"/>
  </linearGradient>
 </defs>
 <g id="Слой_x0020_1">
  <metadata id="CorelCorpID_0Corel-Layer"/>
  <path class="fil0 str0" d="M384.55 65.62c101.83,74.31 124.14,217.1 49.83,318.93 -74.31,101.83 -217.1,124.14 -318.93,49.83 -101.83,-74.31 -124.14,-217.1 -49.83,-318.92 74.31,-101.83 217.1,-124.15 318.93,-49.84z"/>
  <path class="fil1" d="M180.92 391.77c1.29,-3.8 3.15,-6.28 5.57,-7.44 2.43,-1.16 5.57,-1.08 9.45,0.23 2.37,0.81 4.94,1.69 7.71,2.62 2.77,0.94 5.34,1.81 7.72,2.62 2.77,0.95 5.44,2.14 8.04,3.6l-2.57 7.57c-2.69,-0.92 -5.32,-1.81 -7.9,-2.68 -2.2,-0.76 -4.53,-1.55 -6.96,-2.38 -2.43,-0.81 -4.6,-1.55 -6.5,-2.19 -0.91,-0.31 -1.71,-0.31 -2.42,0.01 -0.71,0.34 -1.21,0.93 -1.5,1.79l-0.77 2.26c-0.77,2.26 0.03,3.79 2.4,4.6l14.25 4.83 -2.81 8.28 -13.06 -4.43c-2.37,-0.81 -3.97,-0.02 -4.77,2.36l-0.41 1.2c-0.81,2.38 -0.02,3.97 2.35,4.78l18.98 6.45 -2.81 8.28 -21.95 -7.45c-3.87,-1.32 -6.43,-3.17 -7.64,-5.56 -1.22,-2.38 -1.22,-5.38 0,-8.99 0.81,-2.38 2.02,-4.13 3.61,-5.25 1.59,-1.12 3.38,-1.68 5.36,-1.66 -0.79,-0.53 -1.54,-1.2 -2.23,-1.99 -0.7,-0.8 -1.24,-1.74 -1.59,-2.81 -0.37,-1.07 -0.55,-2.29 -0.55,-3.65 -0.01,-1.36 0.26,-2.84 0.8,-4.42l0.2 -0.58z"/>
  <path id="1" class="fil1" d="M173.38 373.04l10.34 6.5 -37.38 28.35 -10.61 -6.65 9.26 -46 10.35 6.49 -1.79 8.15 13.27 8.32 6.56 -5.16zm-13.29 10.6l-8.5 -5.33 -3.45 14.95 11.95 -9.62z"/>
  <path id="2" class="fil1" d="M108.07 376.44l-15.28 -21.43c-2.55,-3.57 -3.59,-6.74 -3.13,-9.51 0.47,-2.76 2.48,-5.43 6.05,-7.96l5.09 -3.64c3.57,-2.53 6.74,-3.57 9.5,-3.12 2.77,0.47 5.42,2.49 7.96,6.06l8.73 12.24 10.21 -7.27 6.56 9.18 -35.69 25.45zm-5.82 -29.72c-2.05,1.46 -2.34,3.21 -0.89,5.25l7.28 10.21 11.24 -8.02 -7.28 -10.2c-1.46,-2.05 -3.2,-2.33 -5.25,-0.88l-5.1 3.64z"/>
  <path id="3" class="fil1" d="M80.6 335.3l-4.48 -11.7 16.76 -18.48 -24.13 -0.84 -4.47 -11.71 37.86 2.65c1.74,0.1 3.32,0.33 4.79,0.68 1.45,0.37 2.77,0.9 3.96,1.61 1.19,0.71 2.24,1.64 3.17,2.78 0.93,1.15 1.71,2.56 2.35,4.23 0.31,0.82 0.58,1.63 0.81,2.41 0.24,0.78 0.44,1.49 0.6,2.15 0.2,0.73 0.35,1.43 0.47,2.1l-7.88 3.01 -2.01 -5.26c-0.22,-0.59 -0.53,-1.03 -0.94,-1.32 -0.41,-0.29 -0.84,-0.47 -1.31,-0.51 -0.46,-0.05 -0.92,0.01 -1.36,0.19 -0.45,0.16 -0.81,0.41 -1.09,0.75l-23.1 27.26z"/>
  <path id="4" class="fil1" d="M78.35 262.67l0 -15.04c-0.01,-4.38 0.98,-7.56 2.96,-9.55 1.98,-1.99 5.17,-2.98 9.55,-2.98l1.88 -0.01c4.39,0 7.58,0.99 9.57,2.97 1.99,1.99 2.98,5.17 2.98,9.56l0.02 26.32 -43.87 0.04 -0.02 -34.78 8.77 -0.02 0.01 23.5 8.15 -0.01zm12.53 -16.29c-2.51,0 -3.76,1.25 -3.76,3.76l0.01 12.53 9.39 -0.01 0 -12.53c0,-2.51 -1.25,-3.76 -3.76,-3.76l-1.88 0.01z"/>
  <polygon id="5" class="fil1" points="113.74,195.59 106.05,229.48 63.31,219.79 71,185.9 79.57,187.83 74.38,210.74 82.58,212.6 86.66,194.58 95.24,196.52 91.15,214.54 99.97,216.54 105.17,193.64 "/>
  <path id="6" class="fil1" d="M88.89 170.72c-0.52,-0.04 -1.09,0.06 -1.69,0.27 -0.61,0.22 -1.07,0.59 -1.4,1.11l-1.33 2.12 -7.19 -4.5c0.23,-0.5 0.46,-1.05 0.69,-1.63 0.23,-0.51 0.48,-1.06 0.79,-1.66 0.31,-0.6 0.65,-1.2 1.02,-1.8 1.17,-1.88 2.59,-3.09 4.25,-3.65 1.67,-0.57 3.48,-0.77 5.46,-0.61l13.41 1.01 2.32 -3.7 -14.61 -9.18 5.98 -9.55 14.62 9.17 2.34 -3.71 -6.76 -11.63c-0.99,-1.71 -1.6,-3.44 -1.82,-5.17 -0.22,-1.75 0.27,-3.55 1.44,-5.43 0.38,-0.59 0.77,-1.16 1.18,-1.7 0.4,-0.54 0.78,-1.01 1.13,-1.43 0.44,-0.46 0.83,-0.9 1.19,-1.33l7.18 4.51 -1.33 2.12c-0.33,0.53 -0.47,1.12 -0.4,1.76 0.07,0.63 0.23,1.17 0.49,1.63l6.4 11.04 25.33 1.47 -6.32 10.08 -20.28 -1.26 -2.33 3.72 15.12 9.48 -5.99 9.55 -15.12 -9.49 -2.33 3.72 9.96 17.71 -6.32 10.08 -12.35 -22.16 -12.73 -0.96z"/>
  <polygon id="7" class="fil1" points="185.71,118.81 176.19,124.87 166.61,109.82 153.4,118.23 162.98,133.28 153.48,139.34 129.92,102.36 139.43,96.3 148.7,110.86 161.92,102.45 152.65,87.89 162.16,81.83 "/>
  <path id="8" class="fil1" d="M197.54 83.37l14.11 -2.9c4.3,-0.89 7.6,-0.55 9.95,0.99 2.35,1.54 3.96,4.46 4.84,8.76l0.75 3.68c0.89,4.29 0.57,7.6 -0.98,9.95 -1.54,2.34 -4.46,3.95 -8.75,4.84l-25.15 5.17 -8.83 -42.93 11.03 -2.26 3.03 14.7zm48.12 19.51l-11.03 2.28 -8.83 -42.9 11.04 -2.27 8.82 42.89zm-30.25 -10.4c-0.51,-2.44 -1.99,-3.42 -4.45,-2.92l-11.65 2.4 2.28 11.04 11.65 -2.4c2.45,-0.5 3.42,-1.98 2.92,-4.44l-0.75 -3.68z"/>
  <polygon id="9" class="fil1" points="287.84,110.04 253.79,102.99 262.69,60.04 296.74,67.1 294.96,75.68 271.95,70.91 270.23,79.24 288.32,82.98 286.54,91.56 268.45,87.82 266.61,96.71 289.62,101.47 "/>
  <path id="10" class="fil1" d="M333.71 80l22.36 13.86c3.73,2.3 5.92,4.83 6.56,7.56 0.64,2.74 -0.2,5.96 -2.51,9.69l-3.3 5.34c-2.32,3.72 -4.84,5.91 -7.57,6.56 -2.73,0.64 -5.96,-0.19 -9.68,-2.49l-12.78 -7.92 -6.59 10.64 -9.59 -5.93 23.1 -37.31zm16.82 25.19c1.31,-2.12 0.9,-3.85 -1.23,-5.16l-10.64 -6.59 -7.24 11.67 10.66 6.6c2.12,1.31 3.85,0.91 5.17,-1.21l3.28 -5.31z"/>
  <polygon id="11" class="fil1" points="371.94,171.43 365,162.55 385.86,146.23 355.73,150.72 348.4,141.35 382.9,114.36 389.85,123.23 368.45,139.98 399.1,135.06 406.44,144.44 "/>
  <polygon id="12" class="fil1" points="391.02,212.89 387.04,202.33 403.8,196.01 398.27,181.35 381.52,187.67 377.54,177.11 418.61,161.62 422.6,172.19 406.47,178.26 411.99,192.92 428.12,186.85 432.1,197.4 "/>
  <polygon id="13" class="fil1" points="393.94,231.53 393.06,220.3 436.75,216.87 439.41,250.9 430.7,251.58 428.92,228.79 "/>
  <polygon id="14" class="fil1" points="391.75,279.8 394.01,268.74 428.41,275.8 431.05,262.9 439.63,264.66 432.08,301.51 423.5,299.76 426.15,286.86 "/>
  <path id="15" class="fil1" d="M403.87 337.31c2.22,1.17 3.91,0.66 5.08,-1.56l4.99 -9.41c1.18,-2.22 0.66,-3.91 -1.55,-5.09l-17.69 -9.38c-2.21,-1.17 -3.9,-0.66 -5.08,1.56l-5 9.41c-1.16,2.22 -0.65,3.91 1.56,5.09l17.69 9.38zm-22.99 0.58c-3.88,-2.07 -6.23,-4.44 -7.05,-7.12 -0.83,-2.68 -0.21,-5.96 1.85,-9.84l7.34 -13.84c2.06,-3.87 4.42,-6.22 7.11,-7.04 2.68,-0.83 5.96,-0.21 9.84,1.85l17.72 9.4c3.88,2.06 6.23,4.43 7.06,7.11 0.81,2.68 0.2,5.96 -1.85,9.84l-7.34 13.84c-2.07,3.87 -4.44,6.23 -7.12,7.04 -2.69,0.83 -5.97,0.22 -9.84,-1.85l-17.72 -9.39z"/>
  <polygon id="16" class="fil1" points="340.43,365.34 348.12,357.09 361.19,369.24 371.86,357.79 358.79,345.62 366.47,337.37 398.57,367.25 390.9,375.5 378.27,363.75 367.6,375.22 380.23,386.97 372.54,395.23 "/>
  <path id="17" class="fil1" d="M335.73 402.09l-13.22 5.73c-4.02,1.73 -7.33,2.09 -9.94,1.06 -2.61,-1.03 -4.79,-3.56 -6.53,-7.59l-1.49 -3.44c-1.74,-4.02 -2.09,-7.34 -1.07,-9.95 1.04,-2.61 3.56,-4.79 7.59,-6.52l23.56 -10.2 17.42 40.22 -10.35 4.47 -5.97 -13.78zm-51.1 -9.27l10.34 -4.48 17.41 40.19 -10.34 4.48 -17.41 -40.19zm31.76 4c0.99,2.3 2.64,2.96 4.94,1.96l10.92 -4.73 -4.48 -10.36 -10.93 4.73c-2.29,1 -2.95,2.65 -1.95,4.95l1.5 3.45z"/>
  <path id="18" class="fil2 str1" d="M180.92 391.77c1.29,-3.8 3.15,-6.28 5.57,-7.44 2.43,-1.16 5.57,-1.08 9.45,0.23 2.37,0.81 4.94,1.69 7.71,2.62 2.77,0.94 5.34,1.81 7.72,2.62 2.77,0.95 5.44,2.14 8.04,3.6l-2.57 7.57c-2.69,-0.92 -5.32,-1.81 -7.9,-2.68 -2.2,-0.76 -4.53,-1.55 -6.96,-2.38 -2.43,-0.81 -4.6,-1.55 -6.5,-2.19 -0.91,-0.31 -1.71,-0.31 -2.42,0.01 -0.71,0.34 -1.21,0.93 -1.5,1.79l-0.77 2.26c-0.77,2.26 0.03,3.79 2.4,4.6l14.25 4.83 -2.81 8.28 -13.06 -4.43c-2.37,-0.81 -3.97,-0.02 -4.77,2.36l-0.41 1.2c-0.81,2.38 -0.02,3.97 2.35,4.78l18.98 6.45 -2.81 8.28 -21.95 -7.45c-3.87,-1.32 -6.43,-3.17 -7.64,-5.56 -1.22,-2.38 -1.22,-5.38 0,-8.99 0.81,-2.38 2.02,-4.13 3.61,-5.25 1.59,-1.12 3.38,-1.68 5.36,-1.66 -0.79,-0.53 -1.54,-1.2 -2.23,-1.99 -0.7,-0.8 -1.24,-1.74 -1.59,-2.81 -0.37,-1.07 -0.55,-2.29 -0.55,-3.65 -0.01,-1.36 0.26,-2.84 0.8,-4.42l0.2 -0.58z"/>
  <path id="19" class="fil2 str1" d="M173.38 373.04l10.34 6.5 -37.38 28.35 -10.61 -6.65 9.26 -46 10.35 6.49 -1.79 8.15 13.27 8.32 6.56 -5.16zm-13.29 10.6l-8.5 -5.33 -3.45 14.95 11.95 -9.62z"/>
  <path id="20" class="fil2 str1" d="M108.07 376.44l-15.28 -21.43c-2.55,-3.57 -3.59,-6.74 -3.13,-9.51 0.47,-2.76 2.48,-5.43 6.05,-7.96l5.09 -3.64c3.57,-2.53 6.74,-3.57 9.5,-3.12 2.77,0.47 5.42,2.49 7.96,6.06l8.73 12.24 10.21 -7.27 6.56 9.18 -35.69 25.45zm-5.82 -29.72c-2.05,1.46 -2.34,3.21 -0.89,5.25l7.28 10.21 11.24 -8.02 -7.28 -10.2c-1.46,-2.05 -3.2,-2.33 -5.25,-0.88l-5.1 3.64z"/>
  <path id="21" class="fil2 str1" d="M80.6 335.3l-4.48 -11.7 16.76 -18.48 -24.13 -0.84 -4.47 -11.71 37.86 2.65c1.74,0.1 3.32,0.33 4.79,0.68 1.45,0.37 2.77,0.9 3.96,1.61 1.19,0.71 2.24,1.64 3.17,2.78 0.93,1.15 1.71,2.56 2.35,4.23 0.31,0.82 0.58,1.63 0.81,2.41 0.24,0.78 0.44,1.49 0.6,2.15 0.2,0.73 0.35,1.43 0.47,2.1l-7.88 3.01 -2.01 -5.26c-0.22,-0.59 -0.53,-1.03 -0.94,-1.32 -0.41,-0.29 -0.84,-0.47 -1.31,-0.51 -0.46,-0.05 -0.92,0.01 -1.36,0.19 -0.45,0.16 -0.81,0.41 -1.09,0.75l-23.1 27.26z"/>
  <path id="22" class="fil2 str1" d="M78.35 262.67l0 -15.04c-0.01,-4.38 0.98,-7.56 2.96,-9.55 1.98,-1.99 5.17,-2.98 9.55,-2.98l1.88 -0.01c4.39,0 7.58,0.99 9.57,2.97 1.99,1.99 2.98,5.17 2.98,9.56l0.02 26.32 -43.87 0.04 -0.02 -34.78 8.77 -0.02 0.01 23.5 8.15 -0.01zm12.53 -16.29c-2.51,0 -3.76,1.25 -3.76,3.76l0.01 12.53 9.39 -0.01 0 -12.53c0,-2.51 -1.25,-3.76 -3.76,-3.76l-1.88 0.01z"/>
  <polygon id="23" class="fil2 str1" points="113.74,195.59 106.05,229.48 63.31,219.79 71,185.9 79.57,187.83 74.38,210.74 82.58,212.6 86.66,194.58 95.24,196.52 91.15,214.54 99.97,216.54 105.17,193.64 "/>
  <path id="24" class="fil2 str1" d="M88.89 170.72c-0.52,-0.04 -1.09,0.06 -1.69,0.27 -0.61,0.22 -1.07,0.59 -1.4,1.11l-1.33 2.12 -7.19 -4.5c0.23,-0.5 0.46,-1.05 0.69,-1.63 0.23,-0.51 0.48,-1.06 0.79,-1.66 0.31,-0.6 0.65,-1.2 1.02,-1.8 1.17,-1.88 2.59,-3.09 4.25,-3.65 1.67,-0.57 3.48,-0.77 5.46,-0.61l13.41 1.01 2.32 -3.7 -14.61 -9.18 5.98 -9.55 14.62 9.17 2.34 -3.71 -6.76 -11.63c-0.99,-1.71 -1.6,-3.44 -1.82,-5.17 -0.22,-1.75 0.27,-3.55 1.44,-5.43 0.38,-0.59 0.77,-1.16 1.18,-1.7 0.4,-0.54 0.78,-1.01 1.13,-1.43 0.44,-0.46 0.83,-0.9 1.19,-1.33l7.18 4.51 -1.33 2.12c-0.33,0.53 -0.47,1.12 -0.4,1.76 0.07,0.63 0.23,1.17 0.49,1.63l6.4 11.04 25.33 1.47 -6.32 10.08 -20.28 -1.26 -2.33 3.72 15.12 9.48 -5.99 9.55 -15.12 -9.49 -2.33 3.72 9.96 17.71 -6.32 10.08 -12.35 -22.16 -12.73 -0.96z"/>
  <polygon id="25" class="fil2 str1" points="185.71,118.81 176.19,124.87 166.61,109.82 153.4,118.23 162.98,133.28 153.48,139.34 129.92,102.36 139.43,96.3 148.7,110.86 161.92,102.45 152.65,87.89 162.16,81.83 "/>
  <path id="26" class="fil2 str1" d="M197.54 83.37l14.11 -2.9c4.3,-0.89 7.6,-0.55 9.95,0.99 2.35,1.54 3.96,4.46 4.84,8.76l0.75 3.68c0.89,4.29 0.57,7.6 -0.98,9.95 -1.54,2.34 -4.46,3.95 -8.75,4.84l-25.15 5.17 -8.83 -42.93 11.03 -2.26 3.03 14.7zm48.12 19.51l-11.03 2.28 -8.83 -42.9 11.04 -2.27 8.82 42.89zm-30.25 -10.4c-0.51,-2.44 -1.99,-3.42 -4.45,-2.92l-11.65 2.4 2.28 11.04 11.65 -2.4c2.45,-0.5 3.42,-1.98 2.92,-4.44l-0.75 -3.68z"/>
  <polygon id="27" class="fil2 str1" points="287.84,110.04 253.79,102.99 262.69,60.04 296.74,67.1 294.96,75.68 271.95,70.91 270.23,79.24 288.32,82.98 286.54,91.56 268.45,87.82 266.61,96.71 289.62,101.47 "/>
  <path id="28" class="fil2 str1" d="M333.71 80l22.36 13.86c3.73,2.3 5.92,4.83 6.56,7.56 0.64,2.74 -0.2,5.96 -2.51,9.69l-3.3 5.34c-2.32,3.72 -4.84,5.91 -7.57,6.56 -2.73,0.64 -5.96,-0.19 -9.68,-2.49l-12.78 -7.92 -6.59 10.64 -9.59 -5.93 23.1 -37.31zm16.82 25.19c1.31,-2.12 0.9,-3.85 -1.23,-5.16l-10.64 -6.59 -7.24 11.67 10.66 6.6c2.12,1.31 3.85,0.91 5.17,-1.21l3.28 -5.31z"/>
  <polygon id="29" class="fil2 str1" points="371.94,171.43 365,162.55 385.86,146.23 355.73,150.72 348.4,141.35 382.9,114.36 389.85,123.23 368.45,139.98 399.1,135.06 406.44,144.44 "/>
  <polygon id="30" class="fil2 str1" points="391.02,212.89 387.04,202.33 403.8,196.01 398.27,181.35 381.52,187.67 377.54,177.11 418.61,161.62 422.6,172.19 406.47,178.26 411.99,192.92 428.12,186.85 432.1,197.4 "/>
  <polygon id="31" class="fil2 str1" points="393.94,231.53 393.06,220.3 436.75,216.87 439.41,250.9 430.7,251.58 428.92,228.79 "/>
  <polygon id="32" class="fil2 str1" points="391.75,279.8 394.01,268.74 428.41,275.8 431.05,262.9 439.63,264.66 432.08,301.51 423.5,299.76 426.15,286.86 "/>
  <path id="33" class="fil2 str1" d="M403.87 337.31c2.22,1.17 3.91,0.66 5.08,-1.56l4.99 -9.41c1.18,-2.22 0.66,-3.91 -1.55,-5.09l-17.69 -9.38c-2.21,-1.17 -3.9,-0.66 -5.08,1.56l-5 9.41c-1.16,2.22 -0.65,3.91 1.56,5.09l17.69 9.38zm-22.99 0.58c-3.88,-2.07 -6.23,-4.44 -7.05,-7.12 -0.83,-2.68 -0.21,-5.96 1.85,-9.84l7.34 -13.84c2.06,-3.87 4.42,-6.22 7.11,-7.04 2.68,-0.83 5.96,-0.21 9.84,1.85l17.72 9.4c3.88,2.06 6.23,4.43 7.06,7.11 0.81,2.68 0.2,5.96 -1.85,9.84l-7.34 13.84c-2.07,3.87 -4.44,6.23 -7.12,7.04 -2.69,0.83 -5.97,0.22 -9.84,-1.85l-17.72 -9.39z"/>
  <polygon id="34" class="fil2 str1" points="340.43,365.34 348.12,357.09 361.19,369.24 371.86,357.79 358.79,345.62 366.47,337.37 398.57,367.25 390.9,375.5 378.27,363.75 367.6,375.22 380.23,386.97 372.54,395.23 "/>
  <path id="35" class="fil2 str1" d="M335.73 402.09l-13.22 5.73c-4.02,1.73 -7.33,2.09 -9.94,1.06 -2.61,-1.03 -4.79,-3.56 -6.53,-7.59l-1.49 -3.44c-1.74,-4.02 -2.09,-7.34 -1.07,-9.95 1.04,-2.61 3.56,-4.79 7.59,-6.52l23.56 -10.2 17.42 40.22 -10.35 4.47 -5.97 -13.78zm-51.1 -9.27l10.34 -4.48 17.41 40.19 -10.34 4.48 -17.41 -40.19zm31.76 4c0.99,2.3 2.64,2.96 4.94,1.96l10.92 -4.73 -4.48 -10.36 -10.93 4.73c-2.29,1 -2.95,2.65 -1.95,4.95l1.5 3.45z"/>
  <ellipse class="fil3 str2" cx="250.55" cy="340.1" rx="18.84" ry="19.95"/>
  <path class="fil4 str3" d="M198.67 138l102.66 0c5.18,0 9.42,4.08 9.42,9.07l0 205.86c0,4.99 -4.24,9.07 -9.42,9.07l-102.66 0c-5.18,0 -9.42,-4.08 -9.42,-9.07l0 -205.86c0,-4.99 4.24,-9.07 9.42,-9.07zm8.19 14.06l86.28 0c4.35,0 7.91,3.42 7.91,7.62l0 149.81c0,4.19 -3.56,7.62 -7.91,7.62l-86.28 0c-4.35,0 -7.91,-3.43 -7.91,-7.62l0 -149.81c0,-4.2 3.56,-7.62 7.91,-7.62zm43.14 166.86c11.7,0 21.19,9.14 21.19,20.41 0,11.27 -9.49,20.4 -21.19,20.4 -11.7,0 -21.19,-9.13 -21.19,-20.4 0,-11.27 9.49,-20.41 21.19,-20.41z"/>
  <rect class="fil3" x="194.74" y="141.71" width="109.26" height="170.49" rx="7.53" ry="7.25"/>
  <g>
   <path class="fil5" d="M273.86 258.22l-19.75 -0.04 0.18 -0.09 0.28 -0.1 0.36 -0.18 0.19 -0.09 0.27 -0.18 0.28 -0.09 0.18 -0.05 0.09 -0.23 0.41 -0.23 0.14 -0.23 0.55 -0.04 0 -0.19 0.18 -0.04 0.19 -0.09 0.27 -0.19 0.23 -0.13 0.09 -0.19 0.14 -0.23 0.46 -0.27 0.18 -0.05 0 -0.27 1.51 -1.19 0.09 -0.18 0.1 -0.19 0.04 -0.18 0.23 -0.09 0.37 -0.64 0.18 -0.28 0.09 -0.18 0.19 -0.37 0.09 -0.27 0.09 -0.19 0.09 -0.18 0.09 -0.18 0.18 -0.28 0.1 -0.18 0.18 -0.28 0.09 -0.27 0.18 -0.37 0.1 -0.18 0.09 -0.18 0.18 -0.46 0.09 -0.18 0.09 -0.37 0.09 -0.28 0.1 -0.27 0.09 -0.18 0.09 -0.37 0.09 -0.28 0.19 -0.27 0.09 -0.46 0.09 -0.27 0.09 -0.19 0.09 -0.36 0.09 -0.37 0.09 -0.37 0.05 -0.73 0.18 0 0.05 -0.55 0.14 -0.68 9.03 -0.05 0 15.75zm-25.34 -15.84l10.31 0.18 0 2.75 -0.09 0.91 -0.09 0.55 -0.1 0.55 -0.09 0.28 -0.09 0.27 -0.09 0.19 -0.09 0.64 -0.1 0.37 -0.18 0.36 -0.04 0.37 -0.19 0 -0.04 0.27 -0.1 0.28 -0.09 0.27 -0.09 0.19 -0.18 0.36 -0.18 0.28 -0.19 0.27 -0.18 0.28 -0.18 0.27 -0.46 0.55 -0.87 0.96 -0.46 0.37 -0.28 0.18 -0.27 0.19 -0.27 0.18 -0.19 0.09 -0.27 0.18 -0.19 0.1 -0.18 0.09 -0.27 0.18 -0.37 0.18 -0.27 0.09 -0.19 0.1 -0.18 0.09 -0.19 0.09 -0.4 -0.14 -0.1 -0.18 -0.09 -0.37 -0.09 -0.82 -0.09 -0.46 -0.09 -0.64 -0.1 -0.46 -0.09 -0.37 -0.09 -0.54 -0.09 -0.56 -0.09 -0.27 -0.09 -0.55 -0.09 -0.55 -0.1 -0.55 -0.09 -0.46 -0.09 -0.27 -0.09 -0.46 -0.09 -0.64 -0.09 -0.46 -0.1 -0.37 -0.09 -0.55 -0.09 -0.55 -0.09 -0.27 -0.09 -0.46 -0.09 -0.36 -0.1 -0.37 -0.09 -0.37 -0.09 -0.27 -0.09 -0.46 -0.05 -0.73zm-26.37 0.09l3.75 -0.05 2.75 -0.04 0.05 0.18 0.09 0.64 0.18 0.64 0.09 0.19 0.09 0.45 0.09 0.19 0.1 0.18 0.09 0.28 0.09 0.18 0.09 0.36 0.09 0.19 0.28 0.46 0.09 0.18 0.09 0.27 0.09 0.19 0.09 0.18 0.19 0.28 0.09 0.18 0.18 0.27 0.19 0.28 0.09 0.27 0.27 0.37 0.09 0.18 0.19 0.28 0.18 0.27 0.18 0.28 0.19 0.27 0.18 0.28 0.27 0.36 0.37 0.46 1.51 1.61 0.28 0.18 0.36 0.27 0.19 0.1 0.27 0.18 0.18 0.09 0.28 0.18 0.27 0.19 0.28 0.18 1 0.92 0.37 0.27 0.18 0.09 1.1 0 0.28 -0.09 0.32 -0.14 0.04 -0.18 0.19 0 0.04 -0.37 0 -1 -0.18 -0.46 -0.18 -0.28 -1.47 -1.56 -0.46 -0.54 -0.45 -0.55 -0.28 -0.37 -0.27 -0.37 -0.28 -0.36 -0.09 -0.19 -0.18 -0.27 -0.19 -0.28 -0.09 -0.18 -0.09 -0.18 -0.18 -0.28 -0.09 -0.27 -0.09 -0.19 -0.1 -0.36 -0.09 -0.28 -0.09 -0.27 -0.09 -0.46 -0.09 -0.46 -0.09 -1.1 0 -1.19 0.09 -0.36 0.23 -0.42 4.48 0 4.99 0.14 0.1 0.55 0.09 0.37 0.09 0.36 0.09 0.46 0.09 0.55 0.09 0.55 0.1 0.27 0.09 0.55 0.09 0.55 0.09 0.28 0.09 0.55 0.09 0.55 0.1 0.37 0.09 0.55 0.09 0.45 0.09 0.28 0.09 0.55 0.09 0.64 0.1 0.46 0.09 0.36 0.09 0.37 0.09 0.55 0.09 0.37 0.09 0.45 0.1 0.55 0.09 0.55 0.09 0.55 0.09 0.28 0.09 0.55 0.05 1.1 -0.55 0.04 -0.46 0.09 -0.46 0.1 -0.27 0.09 -0.37 0.09 -0.18 0.09 -0.55 0.09 -0.28 0.09 -0.36 0.09 -0.83 0.09 -0.46 0.1 -5.49 0 -0.92 -0.1 -0.64 -0.09 -0.55 -0.09 -0.18 -0.09 -0.37 -0.09 -0.27 -0.09 -0.37 -0.09 -0.27 -0.09 -0.18 -0.1 -0.28 -0.09 -0.27 -0.09 -0.28 -0.09 -0.18 -0.09 -0.19 -0.09 -0.18 -0.1 -0.27 -0.09 -0.19 -0.09 -0.18 -0.09 -0.18 -0.09 -0.28 -0.19 -0.18 -0.09 -0.19 -0.09 -0.27 -0.18 -0.27 -0.19 -0.28 -0.18 -0.46 -0.36 -0.73 -0.65 -0.87 -0.77 -0.64 -0.74 -0.37 -0.46 -0.36 -0.45 -0.19 -0.28 -0.27 -0.37 -0.19 -0.27 -0.18 -0.27 -0.18 -0.28 -0.18 -0.27 -0.1 -0.19 -0.18 -0.27 -0.09 -0.19 -0.09 -0.18 -0.18 -0.27 -0.1 -0.19 -0.09 -0.18 -0.09 -0.18 -0.09 -0.19 -0.09 -0.18 -0.09 -0.18 -0.1 -0.19 -0.18 -0.36 -0.09 -0.28 -0.09 -0.18 -0.1 -0.28 -0.09 -0.18 -0.09 -0.18 -0.09 -0.19 -0.09 -0.27 -0.09 -0.18 -0.09 -0.37 -0.09 -0.18 -0.1 -0.19 -0.09 -0.36 -0.09 -0.19 -0.09 -0.27 -0.09 -0.46 -0.09 -0.18 -0.1 -0.64 -0.04 -0.46zm13.74 -4.03l0.13 -0.18 0.09 -0.19 0.1 -0.18 0.18 -0.28 0.09 -0.18 0.28 -0.37 0.36 -0.45 0.73 -0.83 0.05 -0.18 0.23 -0.09 0.04 -0.19 0.24 -0.09 0.04 -0.18 0.82 -0.69 0.46 -0.36 0.37 -0.28 0.36 -0.27 0.28 -0.19 0.18 -0.09 0.28 -0.09 0.27 -0.09 0.28 -0.09 0.27 -0.19 0.18 -0.09 0.19 -0.09 0.36 -0.05 0.05 0.28 0.09 0.37 0.09 0.27 0.09 0.46 0.1 0.55 0.09 0.36 0.09 0.28 0.09 0.55 0.09 0.27 0.09 0.37 0.1 0.46 0.09 0.36 0.09 0.28 0.09 0.27 0.09 0.37 0.09 0.37 0.1 0.36 0.04 0.83 -8.38 -0.09 -0.04 -1.01zm10.44 -7.15l2.47 0.05 0.46 0.09 0.36 0.09 0.55 0.09 0.28 0.1 0.27 0.09 0.28 0.09 0.27 0.09 0.27 0.09 0.28 0.09 0.18 0.1 0.19 0.09 0.18 0.09 0.18 0.09 0.19 0.09 0.18 0.09 0.27 0.19 0.28 0.18 0.18 0.09 0.37 0.28 0.36 0.27 0.83 0.73 0.18 0.05 0.78 0.91 0.28 0.37 0.27 0.37 0.18 0.27 0.19 0.28 0.09 0.18 0.18 0.28 0.09 0.18 0.19 0.27 0.09 0.19 0.09 0.18 0.09 0.18 0.09 0.19 0.09 0.27 0.1 0.18 0.09 0.28 0.04 0.46 -10.53 0 -0.04 -0.92 -0.1 -0.73 -0.09 -0.55 -0.09 -0.18 -0.09 -0.46 -0.09 -0.55 -0.09 -0.19 -0.09 -0.36 -0.1 -0.55 -0.09 -0.28 -0.09 -0.36 -0.09 -0.64 -0.09 -0.37 -0.09 -0.37 -0.1 -0.45 -0.09 -0.56 -0.04 -0.73zm27.53 8.06l-8.94 0 -0.05 -2.1 -0.09 -0.55 -0.09 -0.92 -0.09 -0.18 -0.09 -0.28 -0.1 -0.27 -0.09 -0.46 -0.09 -0.36 -0.09 -0.28 -0.09 -0.28 -0.09 -0.18 -0.19 -0.46 -0.09 -0.18 -0.09 -0.18 -0.09 -0.28 -0.09 -0.27 -0.1 -0.19 -0.09 -0.18 -0.09 -0.18 -0.09 -0.19 -0.05 -0.18 -0.18 0 -0.04 -0.27 -0.1 -0.19 -0.18 -0.27 -0.09 -0.18 -0.28 -0.37 -0.09 -0.18 -0.18 -0.28 -0.05 -0.18 -0.18 0 -0.04 -0.19 -0.28 -0.36 -0.27 -0.37 -0.05 -0.18 -0.19 0 -0.41 -0.55 -0.04 -0.18 -0.18 0 -0.1 -0.23 -0.18 -0.05 -0.18 -0.32 -0.92 -0.82 -0.18 -0.1 -0.64 -0.54 -0.19 -0.1 -0.18 -0.09 -0.18 -0.04 0 -0.19 -0.37 -0.23 -0.27 -0.04 -0.09 -0.23 -0.28 -0.18 -0.55 -0.37 18.01 -0.05 0 15.48zm-36.78 -15.29l-0.19 0.04 -0.18 0.1 -0.18 0.09 -0.28 0.09 -0.27 0.18 -0.37 0.18 -0.18 0.1 -0.19 0.09 -0.27 0.18 -0.27 0.18 -0.28 0.19 -0.37 0.27 -0.54 0.46 -1.06 0.96 -0.46 0.55 -0.27 0.37 -0.28 0.36 -0.18 0.28 -0.09 0.18 -0.18 0.28 -0.1 0.18 -0.09 0.18 -0.09 0.19 -0.09 0.18 -0.09 0.18 -0.19 0.28 -0.09 0.27 -0.09 0.18 -0.09 0.19 -0.09 0.27 -0.09 0.19 -0.09 0.27 -0.1 0.27 -0.09 0.28 -0.09 0.37 -0.09 0.18 -0.09 0.46 -0.1 0.36 -0.09 0.28 -0.09 0.55 -0.09 0.46 -0.09 0.55 -0.09 0.45 -0.09 0.74 -0.09 1.65 -0.05 0.91 -0.18 0.05 -0.28 0.09 -0.28 0.09 -6.27 -0.04 0 -2.84 0.09 -0.74 0.1 -0.55 0.09 -0.55 0.09 -0.27 0.09 -0.46 0.09 -0.37 0.09 -0.36 0.1 -0.18 0.09 -0.28 0.09 -0.37 0.09 -0.18 0.09 -0.18 0.09 -0.19 0.1 -0.27 0.09 -0.18 0.09 -0.28 0.09 -0.18 0.09 -0.19 0.09 -0.18 0.09 -0.18 0.09 -0.18 0.1 -0.19 0.09 -0.18 0.09 -0.18 0.18 -0.28 0.1 -0.18 0.18 -0.28 0.18 -0.27 0.19 -0.28 0.18 -0.27 0.18 -0.27 0.18 -0.28 0.28 -0.37 0.36 -0.46 0.56 -0.64 0.91 -1 0.83 -0.92 0.41 -0.5 8.79 -0.05 0 0.27 -0.18 0.1zm-5.68 -3.58l5.36 -5.22 0.04 -0.18 0.23 -0.09 0.05 -0.19 0.82 -0.68 0.55 -0.46 0.32 -0.05 0.09 0.19 0.09 0.46 0.1 0.27 0.09 0.55 0.09 0.46 0.09 0.37 0.09 0.54 0.09 0.37 0.09 0.27 0.09 0.46 0.1 0.19 0.09 0.36 0.09 0.55 0.09 0.28 0.09 0.27 0.1 0.46 0.09 0.36 0.09 0.28 0.04 0.46 -0.18 0.05 -0.46 0 -8.38 -0.14 -0.04 -0.19zm42.46 0.28l-29.64 0 -0.05 -0.64 -0.09 -0.28 -0.09 -0.27 -0.09 -0.73 -0.09 -0.19 -0.09 -0.46 -0.1 -0.36 -0.09 -0.64 -0.09 -0.19 -0.18 -0.91 -0.09 -0.46 -0.1 -0.55 -0.09 -0.55 -0.09 -0.27 -0.09 -0.37 -0.09 -0.46 -0.09 -0.55 -0.09 -0.27 -0.1 -0.37 -0.09 -0.55 -0.09 -0.37 -0.05 -1 0.19 0 0.46 -0.6 1.83 -1.74 0.23 -0.14 0.13 -0.32 1.24 -1.05 0.83 -0.92 0.04 -0.18 0.28 -0.14 0.18 -0.04 0.18 -0.32 0.18 -0.1 25.89 -0.04 0 16.03zm0 -19.15l-22.95 0 0 -0.18 0.27 0 0.32 -0.46 0.18 -0.27 0.1 -0.18 0.27 -0.37 0.09 -0.19 0.09 -0.18 0.28 -0.36 0.09 -0.19 0.27 -0.46 0.1 -0.27 0.04 -0.19 0.18 0 0.05 -0.18 0.19 -0.36 0.08 -0.19 0.1 -0.27 0.18 -0.28 0.18 -0.36 0.09 -0.19 0.1 -0.27 0.18 -0.37 0.09 -0.27 0.09 -0.28 0.19 -0.46 0.09 -0.18 0.09 -0.27 0.18 -0.37 0.09 -0.46 0.1 -0.18 0.09 -0.27 0.09 -0.19 0.09 -0.36 0.09 -0.19 0.09 -0.27 0.1 -0.46 0.09 -0.37 0.09 -0.18 0.09 -0.55 0.09 -0.37 0.09 -0.36 0.09 -0.46 0.1 -0.28 0.09 -0.45 0.09 -0.28 0.09 -0.55 0.09 -0.55 0.09 -0.55 0.14 -0.41 16.82 -0.05 0 15.39zm-24.24 -14.74l-0.23 0.27 -0.18 0.37 -0.18 0.27 -0.19 0.28 -0.18 0.27 -0.18 0.28 -0.19 0.27 -0.27 0.37 -0.18 0.27 -0.19 0.28 -0.27 0.36 -0.18 0.28 -0.28 0.36 -0.27 0.37 -0.46 0.55 -0.73 0.83 -0.23 0.32 -0.83 0.73 -0.55 0.46 -0.55 0.46 -0.55 0.45 -0.45 0.37 -0.37 0.27 -0.37 0.28 -0.45 0.36 -0.19 0.1 -0.41 -0.05 -0.09 -0.37 -0.09 -0.27 -0.09 -0.28 -0.1 -0.55 -0.09 -0.27 -0.09 -0.55 -0.09 -0.55 -0.09 -0.73 0 -4.12 0.09 -0.83 0.09 -0.91 0.09 -0.37 0.14 -0.32 2.84 0 6.69 0.04 -0.05 0.37 -0.05 0.28zm3.76 -7.97l-0.14 0.36 -0.09 0.28 -0.09 0.36 -0.09 0.19 -0.1 0.27 -0.09 0.37 -0.09 0.18 -0.09 0.18 -0.09 0.37 -0.09 0.18 -0.1 0.37 -0.09 0.27 -0.09 0.37 -0.09 0.18 -0.23 0.42 -0.18 0.09 -7.24 0 -3.48 -0.09 -0.18 -0.05 0.05 -0.55 0.09 -0.18 0.09 -0.27 0.09 -0.28 0.09 -0.18 0.09 -0.19 0.09 -0.18 0.1 -0.28 0.09 -0.27 0.09 -0.18 0.09 -0.28 0.09 -0.27 0.09 -0.19 0.1 -0.27 0.09 -0.19 0.09 -0.27 0.09 -0.18 0.09 -0.19 0.19 -0.36 0.09 -0.28 0.09 -0.18 0.09 -0.18 0.09 -0.19 0.18 -0.27 0.1 -0.18 0.09 -0.19 0.09 -0.18 0.18 -0.28 0.09 -0.18 0.19 -0.28 0.09 -0.18 0.18 -0.27 0.19 -0.28 0.18 -0.27 0.18 -0.28 0.28 -0.36 0.18 -0.28 0.27 -0.36 0.37 -0.46 0.37 -0.46 0.55 -0.64 0.55 -0.64 1.14 -1.24 0.37 -0.27 0.36 -0.28 0.19 -0.09 0.36 -0.18 0.28 -0.09 0.27 -0.1 0.28 0 0.36 0.1 0.28 0.09 0.18 0.09 0.27 0.18 0.24 0.14 0.27 0.37 0.09 0.18 0.09 0.18 0.09 0.18 0.1 0.19 0.09 0.36 0.09 0.28 0.09 0.37 0.09 0.45 0.09 0.28 0.1 0.27 0.09 0.55 0.09 0.28 0.09 0.64 0.09 0.27 0.1 0.83 0 2.65 -0.05 0.65zm20.48 4.21l-16.64 0 0.05 -1.28 0 -2.57 -0.09 -1.28 -0.09 -0.37 -0.09 -0.82 -0.1 -0.55 -0.09 -0.64 -0.09 -0.64 -0.09 -0.55 -0.09 -0.55 -0.09 -0.28 -0.1 -0.55 -0.09 -0.27 -0.09 -0.46 -0.09 -0.64 -0.09 -0.28 -0.09 -0.36 -0.09 -0.46 -0.1 -0.27 -0.09 -0.28 -0.09 -0.27 -0.09 -0.28 -0.09 -0.37 -0.09 -0.18 -0.1 -0.46 -0.09 -0.18 -0.09 -0.18 -0.09 -0.37 -0.18 -0.46 -0.1 -0.36 -0.09 -0.19 -0.09 -0.18 -0.09 -0.37 -0.09 -0.18 -0.09 -0.18 -0.1 -0.37 -0.18 -0.27 -0.18 -0.46 -0.09 -0.19 -0.1 -0.18 -0.08 -0.18 -0.19 -0.37 -0.18 -0.27 -0.19 -0.37 -0.09 -0.18 -0.18 -0.28 -0.18 -0.37 -0.1 -0.18 -0.18 -0.27 -0.09 -0.19 -0.18 -0.27 -0.19 -0.27 -0.18 -0.28 -1.33 -1.42 -0.27 -0.18 -0.28 -0.19 -0.18 -0.09 -0.18 -0.09 -0.19 -0.09 -0.27 -0.09 -0.19 -0.1 -0.36 -0.09 -1.1 0 -0.18 0.09 -0.46 0.1 -0.28 0.18 -0.18 0.09 -0.27 0.19 -1.61 1.51 -0.36 0.46 -0.37 0.45 -0.27 0.37 -0.28 0.36 -0.27 0.37 -0.28 0.37 -0.36 0.46 -0.28 0.36 -0.27 0.37 -0.28 0.36 -0.27 0.37 -0.19 0.28 -0.27 0.36 -0.18 0.28 -0.19 0.27 -0.18 0.28 -0.09 0.18 -0.19 0.28 -0.18 0.27 -0.27 0.37 -0.19 0.36 -0.09 0.19 -0.18 0.27 -0.19 0.37 -0.18 0.27 -0.09 0.19 -0.18 0.27 -0.09 0.28 -0.19 0.27 -0.09 0.18 -0.09 0.19 -0.09 0.18 -0.09 0.18 -0.09 0.18 -0.1 0.19 -0.18 0.37 -0.09 0.18 -0.09 0.28 -0.09 0.18 -0.09 0.18 -0.1 0.27 -0.09 0.19 -0.09 0.18 -0.09 0.28 -0.09 0.27 -0.1 0.18 -0.09 0.37 -0.09 0.18 -0.09 0.19 -0.09 0.27 -0.09 0.28 -0.09 0.27 -0.1 0.37 -0.09 0.27 -0.09 0.37 -0.09 0.46 -0.09 0.18 -0.09 0.55 -0.1 0.46 -0.09 0.36 -0.09 0.55 -0.09 0.55 -0.09 0.83 -0.05 3.02 -0.18 0.05 -31.87 0.09 -0.23 0.14 -0.09 0.27 0.04 2.34 3.03 0 1.37 -0.1 20.24 0 7.78 0.19 0.19 0.04 0.04 1.01 0.09 1.01 0.1 0.64 0.09 1.1 0.09 0.46 0.09 0.82 0.09 0.28 0.09 0.73 0.1 0.28 0.09 0.64 0.09 0.45 0.09 0.64 0.09 0.28 0.09 0.64 0.09 0.46 0.1 0.37 0.09 0.18 0.09 0.37 0.09 0.45 0.09 0.46 0.1 0.37 0.09 0.18 0.18 0.46 0.09 0.37 0.09 0.36 0.09 0.28 0 0.55 -0.59 0.68 -0.46 0.37 -0.37 0.27 -0.18 0.1 -0.18 0.09 -0.19 0.09 -31.96 0.09 -1.23 0.14 0.04 2.79 1.19 0 2.66 -0.09 18.68 0 6.78 0.09 0.27 0.19 -0.55 0.45 -0.55 0.46 -0.64 0.55 -0.73 0.64 -1.19 1.1 -0.23 0.14 -0.82 0.92 -0.46 0.54 -0.28 0.37 -0.27 0.37 -0.28 0.36 -0.18 0.28 -0.18 0.27 -0.28 0.37 -0.27 0.37 -0.18 0.27 -0.28 0.37 -0.18 0.27 -0.19 0.28 -0.27 0.36 -0.19 0.28 -0.18 0.27 -0.18 0.28 -0.18 0.27 -0.19 0.28 -0.18 0.27 -0.18 0.28 -0.09 0.18 -0.19 0.28 -0.18 0.27 -0.18 0.28 -0.1 0.18 -0.18 0.27 -0.18 0.28 -0.18 0.27 -0.1 0.19 -0.18 0.27 -0.27 0.37 -0.19 0.36 -0.18 0.28 -0.09 0.18 -0.19 0.28 -0.09 0.18 -0.18 0.36 -0.09 0.19 -0.19 0.37 -0.13 0.23 -0.74 0 -8.15 0 -8.15 0.04 -0.04 0.37 -0.09 0.36 -0.05 2.11 15.75 0.14 0.19 0.04 -0.05 0.19 -0.18 0.27 -0.1 0.19 -0.09 0.18 -0.09 0.64 -0.09 0.37 -0.09 0.27 -0.09 0.37 -0.1 0.45 -0.09 0.55 -0.09 0.28 -0.09 0.37 -0.09 0.45 -0.09 0.92 -0.1 0.46 -0.09 0.55 -0.09 1 -0.09 0.37 -0.09 1.38 -0.09 0.54 0 3.58 0.09 1.1 0.09 0.55 -0.05 0.5 -14.05 0.14 -0.09 0.27 0 1.56 0.13 1.05 0.64 0 8.52 0 5.4 0.05 0.05 0.27 0.09 0.64 0.09 0.37 0.09 0.28 0.1 0.36 0.09 0.19 0.09 0.27 0.09 0.37 0.09 0.18 0.09 0.27 0.1 0.28 0.09 0.27 0.09 0.19 0.09 0.18 0.09 0.18 0.09 0.28 0.19 0.27 0.09 0.28 0.09 0.18 0.18 0.37 0.09 0.18 0.1 0.19 0.18 0.27 0.09 0.18 0.09 0.19 0.19 0.27 0.09 0.18 0.18 0.28 0.18 0.27 0.1 0.19 0.18 0.27 0.18 0.28 0.28 0.36 0.18 0.28 0.28 0.37 0.18 0.27 0.18 0.27 0.28 0.37 0.27 0.37 0.37 0.46 0.46 0.54 1.69 1.79 0.46 0.37 0.36 0.27 0.55 0.46 0.37 0.28 0.28 0.18 0.27 0.18 0.27 0.18 0.28 0.19 0.18 0.09 -25 0.09 -0.32 0.14 -0.09 0.27 -0.05 2.57 8.15 -0.05 38.1 -0.05 0.05 0.19 0.09 0.18 0.09 0.46 0.09 0.37 0.09 0.55 0.09 0.82 0.1 0.55 0.09 0.92 0.09 0.55 0.09 0.55 0.09 0.73 0.09 1.1 0.1 0.36 0.09 1.84 0.09 1.65 0 3.75 -0.09 0.19 -0.09 0.36 -0.1 0.18 -0.09 0.19 -0.18 0.46 -0.09 0.18 -0.19 0.37 -0.18 0.27 -0.18 0.28 -0.19 0.27 -0.18 0.28 -0.18 0.27 -0.37 0.46 -0.36 0.46 -0.92 1 -0.23 0.32 -1.19 1.1 -0.55 0.46 -0.36 0.28 -0.37 0.27 -0.28 0.18 -0.27 0.19 -0.28 0.18 -0.18 0.09 -0.27 0.19 -0.19 0.09 -0.27 0.18 -0.18 0.09 -0.19 0.09 -0.18 0.09 -0.18 0.1 -0.19 0.09 -0.18 0.09 -0.18 0.09 -0.55 0.18 -0.28 0.1 -0.46 0.09 -0.18 0.09 -1.65 0 -0.64 -0.09 -0.27 -0.09 -0.46 -0.1 -0.18 -0.09 -0.37 -0.09 -0.18 -0.09 -0.19 -0.09 -0.27 -0.09 -0.28 -0.1 -0.27 -0.09 -0.28 -0.18 -0.18 -0.09 -0.18 -0.09 -0.18 -0.09 -0.19 -0.1 -0.27 -0.18 -0.19 -0.09 -0.27 -0.18 -0.18 -0.1 -0.28 -0.18 -0.37 -0.27 -0.18 -0.05 0 -0.27 0.55 0.04 1.1 0 0.37 -0.09 0.73 -0.09 0.27 -0.09 0.28 -0.09 0.27 -0.1 0.37 -0.09 0.37 -0.09 0.27 -0.09 0.18 -0.09 0.19 -0.09 0.36 -0.19 0.19 -0.09 0.18 -0.09 0.27 -0.19 0.37 -0.27 1.24 -1.14 0.27 -0.37 0.09 -0.18 0.09 -0.19 0.19 -0.27 0.09 -0.18 0.09 -0.28 0.09 -0.18 0.09 -0.19 0.1 -0.27 0.09 -0.18 0.09 -0.28 0.09 -0.37 0.09 -0.18 0.09 -0.37 0.1 -0.64 0.09 -0.36 0 -2.57 -0.09 -0.36 -0.1 -0.65 -0.09 -0.27 -0.09 -0.18 -0.09 -0.28 -0.09 -0.18 -0.09 -0.19 -0.1 -0.18 -0.09 -0.18 -0.18 -0.28 -0.28 -0.36 -0.96 -1.06 -0.36 -0.27 -0.28 -0.18 -0.18 -0.1 -0.28 -0.18 -0.18 -0.09 -0.18 -0.09 -0.18 -0.09 -0.19 -0.09 -0.27 -0.1 -0.28 -0.09 -0.27 -0.09 -0.37 -0.09 -0.46 -0.09 -0.27 -0.1 -0.92 -0.09 -2.65 0 -0.19 0.09 -0.91 0.1 -0.46 0.09 -0.28 0.09 -0.36 0.09 -0.19 0.09 -0.18 0.1 -0.27 0.18 -0.19 0.09 -0.36 0.27 -0.46 0.37 -0.78 0.69 -0.46 0.55 -0.27 0.36 -0.19 0.28 -0.09 0.18 -0.18 0.28 -0.09 0.18 -0.18 0.27 -0.1 0.19 -0.09 0.18 -0.09 0.18 -0.09 0.28 -0.09 0.18 -0.09 0.28 -0.09 0.18 -0.1 0.18 -0.09 0.28 -0.09 0.27 -0.09 0.28 -0.09 0.37 -0.09 0.45 -0.1 0.28 -0.09 0.55 0 2.93 0.09 0.55 0.1 0.36 0.09 0.46 0.09 0.19 0.09 0.27 0.09 0.37 0.09 0.18 0.1 0.18 0.09 0.28 0.09 0.18 0.09 0.18 0.09 0.19 0.18 0.27 0.1 0.19 0.18 0.27 0.09 0.18 0.27 0.37 0.28 0.37 0.46 0.55 0.78 0.87 0.54 0.45 0.46 0.37 0.28 0.18 0.36 0.28 0.28 0.18 0.18 0.09 0.28 0.19 0.18 0.09 0.18 0.09 0.28 0.18 0.18 0.09 0.18 0.1 0.19 0.09 0.18 0.09 0.18 0.09 0.19 0.09 0.18 0.1 0.28 0.09 0.27 0.18 0.28 0.09 0.27 0.09 0.18 0.09 0.37 0.1 0.18 0.09 0.37 0.09 0.18 0.09 0.37 0.09 0.27 0.09 0.46 0.09 0.37 0.1 0.36 0.09 4.12 0 1.01 -0.09 0.55 -0.1 0.28 -0.09 0.55 -0.09 0.36 -0.09 0.37 -0.09 0.37 -0.09 0.27 -0.09 0.18 -0.1 0.37 -0.09 0.18 -0.09 0.19 -0.09 0.27 -0.09 0.18 -0.09 0.28 -0.09 0.18 -0.1 0.19 -0.09 0.18 -0.09 0.27 -0.18 0.19 -0.1 0.27 -0.18 0.18 -0.09 0.37 -0.27 0.28 -0.19 0.36 -0.27 0.73 -0.64 1.06 -0.96 0.36 -0.46 0.28 -0.37 0.27 -0.37 0.19 -0.27 0.04 -0.37 0.19 0 0.23 -0.36 0.09 -0.28 0.18 -0.37 0.18 -0.27 0.09 -0.37 0.1 -0.18 0.09 -0.18 0.18 -0.37 0.09 -0.27 0.09 -0.37 0.09 -0.28 0.1 -0.27 0.09 -0.55 0.09 -0.27 0.09 -0.55 0.09 -0.55 0.09 -0.28 0.1 -0.64 0.09 -0.46 0.09 -0.82 0.09 -0.92 0.09 -1.01 0 -5.22 -0.09 -1.83 -0.09 -0.73 -0.09 -0.37 -0.09 -0.64 -0.1 -0.73 -0.09 -0.28 -0.09 -0.55 -0.09 -0.55 -0.09 -0.55 -0.05 -0.27 21.4 0 0 -78.14z"/>
  </g>
  <path class="fil5" d="M298.81 239.39l0 3.11 -48.66 0 0 -3.11 48.66 0zm0 -37.64l0 3.09 -6.55 -0.04 -0.23 0.42 -0.09 0.18 -0.09 0.18 -0.05 0.28 -0.18 0 -0.05 0.46 -0.18 0.36 -0.32 0.23 -1.1 0.09 -0.55 -0.41 0.04 -1.19 0.05 -0.64 -12.55 0 0.05 8.15 0.09 0.64 0 4.31 -0.09 1.1 -0.09 0.37 -0.09 0.64 -0.05 0.73 22.03 -0.03 0 3.23 -23.68 0 0 0.19 -0.18 0 -0.05 0.37 -0.36 0.45 -0.28 0.37 -0.27 0.37 -0.37 0.45 -0.46 0.55 -0.87 0.74 -0.04 0.18 -0.97 0.87 -0.36 0.23 0 0.18 -0.18 0.05 -0.37 0.27 -0.37 0.23 0 0.18 -0.18 0.05 -0.46 0.18 -0.09 0.23 -0.28 0.05 -0.36 0.18 -0.18 0.09 -0.19 0.1 -0.18 0.09 -0.18 0.09 -0.37 0.18 -0.18 0.09 -0.28 0.09 -0.18 0.1 -0.46 0.09 -0.18 0.09 -0.37 0.09 -0.55 0.09 -0.36 0.09 -0.74 0.09 -3.48 0 -0.64 -0.09 -0.64 -0.09 -0.18 -0.09 -0.37 -0.09 -0.73 -0.09 -0.28 -0.09 -0.36 -0.1 -0.19 -0.09 -0.27 -0.09 -0.18 -0.09 -0.37 -0.18 -0.18 -0.09 -0.28 -0.1 -0.27 -0.18 -0.28 -0.09 -0.13 -0.23 -0.32 -0.23 -0.37 -0.14 0 -0.18 -0.19 -0.05 -0.09 -0.23 -0.27 -0.04 -0.5 -0.6 -0.28 -0.46 -0.09 -0.18 -0.28 -0.36 -0.22 -0.1 -0.05 -0.18 -0.09 -0.27 -0.09 -0.28 -0.1 -0.37 -0.09 -0.27 -0.09 -0.46 -0.09 -0.27 -0.09 -0.28 -0.09 -0.27 -0.05 -0.74 -1.81 0 0 -3.11 2.18 0 0.04 -0.46 0.09 -0.36 0.19 -0.55 0.09 -0.19 0.09 -0.27 0.09 -0.28 0.09 -0.18 0.1 -0.18 0.18 -0.28 0.05 -0.18 0.18 0 0.04 -0.28 0.1 -0.18 0.22 -0.09 0.05 -0.27 0.46 -0.56 0.36 -0.45 0.33 -0.09 0 -0.28 0.27 -0.04 0.64 -0.55 0.37 -0.51 0.18 -0.04 0.09 -0.23 0.28 0 0.04 -0.19 0.32 -0.13 0.19 -0.32 0.18 -0.05 0.37 -0.23 0 -0.18 0.27 -0.05 0.37 -0.27 0.27 -0.1 0.55 -0.45 0.18 -0.09 0.19 -0.1 0.18 -0.09 0.18 -0.09 0.55 -0.37 0.19 -0.09 0.18 -0.09 0.18 -0.09 0.19 -0.09 0.45 -0.09 0.19 -0.1 0.45 -0.18 0.28 -0.04 0 -0.19 0.64 -0.04 0.28 -0.1 0.27 -0.09 0.46 -0.04 0 -0.19 0.55 -0.04 2.84 0 0.55 0.09 1.28 0.09 0.27 0.09 0.28 0.09 0.73 0.1 0.37 0.09 0.36 0.09 0.46 0.09 0.28 0.09 0.36 0.09 0.28 0.1 0.18 0.09 0.37 0.09 0.27 0.09 0.18 0.09 0.19 0.05 -0.05 -6.69 -24.11 -0.09 0 -3.12 24.07 0 -0.05 -9.52 -0.05 -5.86 -23.97 0 0 -3.12 24.07 0 -0.05 -3.94 -0.09 -14.84 -0.09 -0.82 -0.09 -8.98 0 -2.01 2.42 -0.05 0.14 0.78 0.09 1.19 0.09 0.64 0.09 0.46 0.1 0.55 0.09 0.46 0.09 0.36 0.09 0.28 0.09 0.46 0.09 0.36 0.1 0.18 0.09 0.28 0.09 0.37 0.09 0.18 0.09 0.27 0.09 0.19 0.09 0.27 0.1 0.28 0.09 0.18 0.09 0.18 0.09 0.19 0.09 0.18 0.09 0.18 0.1 0.19 0.09 0.18 0.09 0.18 0.18 0.28 0.19 0.27 0.18 0.28 0.18 0.27 0.28 0.37 0.27 0.37 0.37 0.45 0.36 0.46 0.55 0.64 0.37 0.46 0.55 0.64 0.55 0.64 0.27 0.37 0.37 0.46 0.27 0.36 0.37 0.46 0.28 0.37 0.36 0.45 0.28 0.37 0.36 0.46 0.28 0.37 0.36 0.45 0.37 0.46 0.28 0.37 0.27 0.36 0.28 0.37 0.18 0.28 0.27 0.36 0.19 0.28 0.18 0.27 0.27 0.37 0.28 0.36 0.37 0.46 0.91 1.01 0.18 0.28 0.28 0.36 0.18 0.28 0.18 0.27 0.19 0.28 0.09 0.18 0.18 0.27 0.09 0.19 0.19 0.27 0.09 0.28 0.18 0.27 0.09 0.28 0.19 0.27 0.09 0.28 0.18 0.27 0.09 0.18 0.09 0.28 0.1 0.18 0.09 0.28 0.09 0.18 0.09 0.18 0.09 0.19 0.1 0.27 0.09 0.46 0.09 0.37 0.09 0.27 0.09 0.28 0.05 0.27 0.27 0.05 0.28 0.09 2.29 0 2.61 0 0 2.92 -4.08 0.01 -0.37 0.09 -0.18 0.09 -0.05 0.23 0.1 0.18 0.09 0.46 0.09 0.28 0.09 0.55 0.09 2.01 0.09 1.1 0 4.22 -0.09 0.82 -0.09 0.55 -0.09 0.37 -0.09 0.55 -0.09 0.45 -0.1 0.28 -0.09 0.36 -0.09 0.46 -0.09 0.28 -0.09 0.36 -0.09 0.19 -0.09 0.45 -0.1 0.19 -0.09 0.46 -0.09 0.18 0 0.37 5.5 0.01zm-7.01 -5.24l-0.14 0.46 -0.09 0.37 -0.09 0.27 -0.09 0.28 -0.09 0.55 -0.1 0.36 -0.09 0.28 -0.09 0.46 -0.09 0.55 -0.09 0.27 -0.19 0.55 -0.09 0.37 -0.04 0.36 -13.65 0 0 -15.38 14.33 0.09 0.19 0.45 0.09 0.46 0.09 0.55 0.09 0.92 0.09 0.55 0.1 1.65 0 4.94 -0.05 0.64zm-15.11 -22.53l0.09 -0.37 0.18 -0.04 0.28 -0.18 0.36 -0.19 1.2 0 0.82 0.09 0.27 0.1 0.28 0.09 0.27 0.09 0.28 0.09 0.18 0.05 0 0.18 0.28 0.04 0.27 0.1 0.27 0.09 0.28 0.09 0.18 0.09 0.28 0.18 0.18 0.05 0 0.18 0.28 0.14 0.22 0.14 0.05 0.18 0.37 0.23 0.73 0.64 2.15 2.06 0.55 0.64 0.05 0.19 0.18 0 0 0.18 0.18 0 0 0.18 0.19 0 0.23 0.37 0.04 0.18 0.18 0 0.1 0.32 0.32 0.23 0.18 0.37 0.09 0.18 0.19 0.28 0.04 0.27 0.18 0 0 0.28 0.19 0 0.13 0.27 0.19 0.28 0.09 0.18 0.09 0.27 0.09 0.19 0.05 0.18 -13.1 0 -0.04 -0.27 -0.1 -5.23 -0.04 -3.66zm22.12 87.39l-48.66 -0.09 0 -3.02 48.16 -0.05 0.5 0 0 3.16z"/>
 </g>
</svg>
