<?xml version="1.0" encoding="UTF-8"?>
<!DOCTYPE svg PUBLIC "-//W3C//DTD SVG 1.1//EN" "http://www.w3.org/Graphics/SVG/1.1/DTD/svg11.dtd">
<!-- Creator: CorelDRAW 2017 -->
<svg xmlns="http://www.w3.org/2000/svg" xml:space="preserve" width="500px" height="500px" version="1.1" style="shape-rendering:geometricPrecision; text-rendering:geometricPrecision; image-rendering:optimizeQuality; fill-rule:evenodd; clip-rule:evenodd"
viewBox="0 0 500 500"
 xmlns:xlink="http://www.w3.org/1999/xlink">
 <defs>
  <style type="text/css">
   <![CDATA[
    .str1 {stroke:#065E66;stroke-width:20;stroke-miterlimit:22.9256}
    .str0 {stroke:#065E66;stroke-width:16;stroke-miterlimit:22.9256}
    .fil1 {fill:none}
    .fil2 {fill:#065E66}
    .fil0 {fill:white}
    .fil4 {fill:#065E66;fill-rule:nonzero}
    .fil3 {fill:white;fill-rule:nonzero}
   ]]>
  </style>
 </defs>
 <g id="Слой_x0020_1">
  <metadata id="CorelCorpID_0Corel-Layer"/>
  <circle class="fil0 str0" cx="250" cy="250" r="239.39"/>
 </g>
 <g id="Слой_x0020_1_0">
  <metadata id="CorelCorpID_1Corel-Layer"/>
  <g id="_2960970303248">
   <rect class="fil1 str1" x="53.24" y="182.25" width="393.53" height="135.5" rx="62.31" ry="55.4"/>
   <path class="fil2 str1" d="M257.37 183.77l138.56 -1.4c27.96,-0.28 50.83,24.91 50.83,55.35l0 24.68c0,30.44 -22.87,55.48 -50.83,55.35l-138.08 -0.66 -0.48 -133.32z"/>
   <g>
    <path class="fil3" d="M314.49 264l18.32 3.08c-2.34,6.71 -6.06,11.82 -11.12,15.34 -5.09,3.5 -11.44,5.26 -19.04,5.26 -12.07,0 -21.01,-3.94 -26.78,-11.84 -4.57,-6.33 -6.87,-14.31 -6.87,-23.97 0,-11.5 3.01,-20.53 9.01,-27.04 6,-6.53 13.6,-9.79 22.79,-9.79 10.3,0 18.44,3.41 24.41,10.23 5.95,6.83 8.81,17.28 8.54,31.38l-45.88 0c0.13,5.44 1.6,9.67 4.43,12.71 2.81,3.03 6.33,4.54 10.53,4.54 2.87,0 5.28,-0.78 7.22,-2.34 1.96,-1.56 3.43,-4.08 4.44,-7.56zm1.07 -18.59c-0.14,-5.33 -1.5,-9.39 -4.11,-12.15 -2.6,-2.79 -5.77,-4.18 -9.51,-4.18 -4,0 -7.3,1.48 -9.91,4.4 -2.61,2.92 -3.88,6.91 -3.83,11.93l27.36 0z"/>
    <polygon class="fil3" points="361.14,287.91 361.65,230.5 340.67,230.61 340.67,215.67 399.53,215.67 399.53,230.61 379.09,230.5 379.06,287.91 "/>
   </g>
   <path class="fil4" d="M136.06 263.78l18.69 3.14c-2.39,6.84 -6.19,12.05 -11.35,15.64 -5.18,3.57 -11.66,5.37 -19.42,5.37 -12.3,0 -21.42,-4.03 -27.3,-12.08 -4.67,-6.46 -7.01,-14.6 -7.01,-24.44 0,-11.73 3.07,-20.94 9.19,-27.58 6.11,-6.66 13.87,-9.98 23.24,-9.98 10.5,0 18.8,3.47 24.9,10.43 6.06,6.96 8.97,17.62 8.7,31.99l-46.79 0c0.13,5.55 1.64,9.87 4.52,12.97 2.87,3.09 6.46,4.63 10.74,4.63 2.93,0 5.38,-0.79 7.36,-2.38 2,-1.6 3.5,-4.16 4.53,-7.71zm1.09 -18.97c-0.14,-5.43 -1.52,-9.57 -4.19,-12.39 -2.65,-2.84 -5.88,-4.25 -9.7,-4.25 -4.07,0 -7.44,1.5 -10.1,4.48 -2.66,2.98 -3.96,7.05 -3.91,12.16l27.9 0zm27.17 21.42l18.83 -2.86c0.8,3.61 2.41,6.37 4.86,8.23 2.44,1.89 5.87,2.82 10.26,2.82 4.84,0 8.48,-0.89 10.93,-2.66 1.64,-1.25 2.46,-2.93 2.46,-5.02 0,-1.42 -0.45,-2.6 -1.34,-3.53 -0.93,-0.89 -3.02,-1.73 -6.25,-2.48 -15.12,-3.34 -24.7,-6.39 -28.74,-9.14 -5.62,-3.84 -8.42,-9.16 -8.42,-15.96 0,-6.16 2.44,-11.32 7.28,-15.51 4.84,-4.18 12.35,-6.27 22.51,-6.27 9.69,0 16.89,1.58 21.6,4.75 4.71,3.18 7.96,7.86 9.73,14.07l-17.6 3.27c-0.75,-2.77 -2.2,-4.91 -4.32,-6.38 -2.11,-1.48 -5.14,-2.21 -9.07,-2.21 -4.96,0 -8.5,0.68 -10.67,2.07 -1.43,0.98 -2.13,2.25 -2.13,3.8 0,1.34 0.61,2.48 1.86,3.41 1.71,1.25 7.55,3 17.56,5.27 10,2.28 16.98,5.05 20.94,8.35 3.93,3.32 5.89,7.98 5.89,13.94 0,6.48 -2.71,12.07 -8.14,16.73 -5.41,4.67 -13.44,7.01 -24.08,7.01 -9.64,0 -17.28,-1.96 -22.92,-5.85 -5.62,-3.88 -9.3,-9.16 -11.03,-15.85z"/>
  </g>
 </g>
</svg>
