<?xml version="1.0" encoding="UTF-8"?>
<!DOCTYPE svg PUBLIC "-//W3C//DTD SVG 1.1//EN" "http://www.w3.org/Graphics/SVG/1.1/DTD/svg11.dtd">
<!-- Creator: CorelDRAW 2017 -->
<svg xmlns="http://www.w3.org/2000/svg" xml:space="preserve" width="500px" height="500px" version="1.1" style="shape-rendering:geometricPrecision; text-rendering:geometricPrecision; image-rendering:optimizeQuality; fill-rule:evenodd; clip-rule:evenodd"
viewBox="0 0 500 500"
 xmlns:xlink="http://www.w3.org/1999/xlink">
 <defs>
  <style type="text/css">
   <![CDATA[
    .str2 {stroke:#699B22;stroke-width:4;stroke-miterlimit:22.9256}
    .str1 {stroke:#699B22;stroke-width:5;stroke-miterlimit:22.9256}
    .str0 {stroke:#699B22;stroke-width:25;stroke-miterlimit:22.9256}
    .fil106 {fill:none}
    .fil109 {fill:#2B2A29}
    .fil107 {fill:#5D8C1C}
    .fil108 {fill:#5D8C1C}
    .fil1 {fill:#699B22}
    .fil2 {fill:#699B22}
    .fil8 {fill:#699C1D}
    .fil7 {fill:#6A9D1D}
    .fil6 {fill:#6B9D1E}
    .fil9 {fill:#6C9E1E}
    .fil10 {fill:#6D9F1F}
    .fil11 {fill:#6EA01F}
    .fil12 {fill:#6FA020}
    .fil13 {fill:#70A120}
    .fil14 {fill:#71A221}
    .fil15 {fill:#72A221}
    .fil16 {fill:#73A322}
    .fil17 {fill:#74A422}
    .fil18 {fill:#75A423}
    .fil19 {fill:#76A523}
    .fil20 {fill:#77A624}
    .fil21 {fill:#78A724}
    .fil22 {fill:#79A725}
    .fil23 {fill:#7AA825}
    .fil24 {fill:#7BA926}
    .fil25 {fill:#7CA926}
    .fil26 {fill:#7DAA27}
    .fil27 {fill:#7EAB27}
    .fil28 {fill:#7FAC28}
    .fil29 {fill:#80AC28}
    .fil30 {fill:#81AD29}
    .fil31 {fill:#82AE29}
    .fil32 {fill:#83AE2A}
    .fil33 {fill:#84AF2A}
    .fil34 {fill:#85B02B}
    .fil35 {fill:#86B02B}
    .fil36 {fill:#87B12C}
    .fil37 {fill:#88B22C}
    .fil38 {fill:#89B32D}
    .fil39 {fill:#8AB32D}
    .fil40 {fill:#8BB42E}
    .fil41 {fill:#8CB52E}
    .fil4 {fill:#8DB32F}
    .fil42 {fill:#8DB52F}
    .fil43 {fill:#8EB62F}
    .fil44 {fill:#8FB730}
    .fil45 {fill:#90B730}
    .fil46 {fill:#91B831}
    .fil47 {fill:#92B931}
    .fil48 {fill:#93BA32}
    .fil49 {fill:#94BA32}
    .fil50 {fill:#95BB33}
    .fil51 {fill:#96BC33}
    .fil52 {fill:#97BC34}
    .fil53 {fill:#98BD34}
    .fil54 {fill:#99BE35}
    .fil55 {fill:#9ABE35}
    .fil56 {fill:#9BBF36}
    .fil57 {fill:#9CC036}
    .fil58 {fill:#9DC037}
    .fil59 {fill:#9EC137}
    .fil60 {fill:#9FC237}
    .fil61 {fill:#A0C238}
    .fil62 {fill:#A1C338}
    .fil63 {fill:#A2C439}
    .fil64 {fill:#A3C439}
    .fil65 {fill:#A4C53A}
    .fil66 {fill:#A5C63A}
    .fil67 {fill:#A6C63B}
    .fil68 {fill:#A7C73B}
    .fil69 {fill:#A7C83C}
    .fil70 {fill:#A8C83C}
    .fil71 {fill:#A9C93C}
    .fil72 {fill:#AACA3D}
    .fil73 {fill:#ABCA3D}
    .fil74 {fill:#ACCB3E}
    .fil75 {fill:#ADCB3E}
    .fil76 {fill:#AECC3F}
    .fil77 {fill:#AFCD3F}
    .fil78 {fill:#B0CD40}
    .fil79 {fill:#B1CE40}
    .fil80 {fill:#B2CF41}
    .fil81 {fill:#B3CF41}
    .fil82 {fill:#B4D042}
    .fil83 {fill:#B4D142}
    .fil84 {fill:#B5D142}
    .fil85 {fill:#B6D243}
    .fil86 {fill:#B7D343}
    .fil87 {fill:#B8D344}
    .fil88 {fill:#B9D444}
    .fil89 {fill:#BAD545}
    .fil3 {fill:#BAE33D}
    .fil90 {fill:#BBD545}
    .fil91 {fill:#BCD646}
    .fil92 {fill:#BDD746}
    .fil93 {fill:#BED747}
    .fil94 {fill:#BFD847}
    .fil95 {fill:#C0D847}
    .fil96 {fill:#C1D948}
    .fil97 {fill:#C2DA48}
    .fil98 {fill:#C2DA49}
    .fil99 {fill:#C3DB49}
    .fil100 {fill:#C4DC4A}
    .fil101 {fill:#C5DC4A}
    .fil102 {fill:#C6DD4B}
    .fil103 {fill:#C7DE4B}
    .fil104 {fill:#C8DE4C}
    .fil105 {fill:#C9DF4C}
    .fil0 {fill:white}
    .fil5 {fill:url(#id1)}
   ]]>
  </style>
     <clipPath id="id0">
      <path d="M136.02 234.3c98.78,-24.36 174.09,-30.53 234.33,-11.92l-0.65 155.33c-57.77,54.73 -160.53,68.02 -234.01,4.21l0.33 -147.62z"/>
     </clipPath>
  <linearGradient id="id1" gradientUnits="userSpaceOnUse" x1="134.69" y1="153.21" x2="374.39" y2="153.21">
   <stop offset="0" style="stop-opacity:1; stop-color:#80A828"/>
   <stop offset="0.341176" style="stop-opacity:1; stop-color:#A8C73C"/>
   <stop offset="1" style="stop-opacity:1; stop-color:#D0E751"/>
  </linearGradient>
 </defs>
 <g id="Слой_x0020_1">
  <metadata id="CorelCorpID_0Corel-Layer"/>
  <circle class="fil0 str0" cx="250" cy="250" r="232.45"/>
 </g>
 <g id="Слой_x0020_1_0">
  <metadata id="CorelCorpID_1Corel-Layer"/>
  <g id="_2490635047600">
   <path class="fil1" d="M376.61 192.36c-7.98,46.95 -94.29,15.7 -143.84,24.64 58,-23.93 75.13,-34.11 143.84,-24.64z"/>
   <path class="fil2" d="M250 75.43c96.41,0 174.57,78.16 174.57,174.57 0,96.41 -78.16,174.57 -174.57,174.57 -96.41,0 -174.57,-78.16 -174.57,-174.57 0,-96.41 78.16,-174.57 174.57,-174.57zm0 -22.91c109.06,0 197.48,88.42 197.48,197.48 0,109.06 -88.42,197.48 -197.48,197.48 -109.06,0 -197.48,-88.42 -197.48,-197.48 0,-109.06 88.42,-197.48 197.48,-197.48z"/>
   <path class="fil3 str1" d="M279.99 87.43c-5.8,-0.59 -11.48,-1.64 -17.28,-2.22 3.84,-13.29 2.92,-13.87 9.31,-26.13 3.39,-6.53 16.41,-3.73 14.54,3.38l-6.57 24.97z"/>
   <path class="fil4 str1" d="M208.67 93.65l-14.25 -18.94c-2.63,-3.51 -7.66,-4.22 -11.16,-1.58 -3.51,2.64 -4.22,7.66 -1.58,11.16l12.61 16.77 14.38 -7.41z"/>
   <path class="fil5 str1" d="M134.69 225.89c0,0 0.71,-22.05 0.71,-30.88 0,-63.22 55.47,-114.48 123.9,-114.48 65.52,0 110.66,50.99 115.09,110.5 -42.23,-3.96 -74.69,-2.72 -109.75,15.34 -38.09,19.62 -87.72,17.5 -129.95,19.52z"/>
   <g>
    <g style="clip-path:url(#id0)">
     <polygon class="fil6" points="138.42,193.64 139.34,193.7 124.76,440.75 123.84,440.69 "/>
     <polygon id="1" class="fil7" points="138.17,193.63 141.68,193.83 127.1,440.88 123.59,440.68 "/>
     <polygon id="2" class="fil8" points="140.51,193.76 144.02,193.97 129.44,441.02 125.93,440.81 "/>
     <polygon id="3" class="fil7" points="142.85,193.9 146.36,194.11 131.78,441.16 128.27,440.95 "/>
     <polygon id="4" class="fil6" points="145.19,194.04 148.71,194.25 134.12,441.3 130.61,441.09 "/>
     <polygon id="5" class="fil9" points="147.53,194.18 151.05,194.39 136.47,441.44 132.95,441.23 "/>
     <polygon id="6" class="fil10" points="149.88,194.32 153.39,194.52 138.81,441.58 135.3,441.37 "/>
     <polygon id="7" class="fil11" points="152.22,194.45 155.73,194.66 141.15,441.71 137.64,441.51 "/>
     <polygon id="8" class="fil12" points="154.56,194.59 158.07,194.8 143.49,441.85 139.98,441.65 "/>
     <polygon id="9" class="fil13" points="156.9,194.73 160.41,194.94 145.83,441.99 142.32,441.78 "/>
     <polygon id="10" class="fil14" points="159.24,194.87 162.76,195.08 148.17,442.13 144.66,441.92 "/>
     <polygon id="11" class="fil15" points="161.58,195.01 165.1,195.22 150.52,442.27 147,442.06 "/>
     <polygon id="12" class="fil16" points="163.93,195.15 167.44,195.35 152.86,442.4 149.35,442.2 "/>
     <polygon id="13" class="fil17" points="166.27,195.28 169.78,195.49 155.2,442.54 151.69,442.34 "/>
     <polygon id="14" class="fil18" points="168.61,195.42 172.12,195.63 157.54,442.68 154.03,442.47 "/>
     <polygon id="15" class="fil19" points="170.95,195.56 174.46,195.77 159.88,442.82 156.37,442.61 "/>
     <polygon id="16" class="fil20" points="173.29,195.7 176.81,195.91 162.22,442.96 158.71,442.75 "/>
     <polygon id="17" class="fil21" points="175.64,195.84 179.15,196.04 164.57,443.1 161.05,442.89 "/>
     <polygon id="18" class="fil22" points="177.98,195.98 181.49,196.18 166.91,443.23 163.4,443.03 "/>
     <polygon id="19" class="fil23" points="180.32,196.11 183.83,196.32 169.25,443.37 165.74,443.17 "/>
     <polygon id="20" class="fil24" points="182.66,196.25 186.17,196.46 171.59,443.51 168.08,443.3 "/>
     <polygon id="21" class="fil25" points="185,196.39 188.52,196.6 173.93,443.65 170.42,443.44 "/>
     <polygon id="22" class="fil26" points="187.34,196.53 190.86,196.74 176.28,443.79 172.76,443.58 "/>
     <polygon id="23" class="fil27" points="189.69,196.67 193.2,196.87 178.62,443.92 175.1,443.72 "/>
     <polygon id="24" class="fil28" points="192.03,196.81 195.54,197.01 180.96,444.06 177.45,443.86 "/>
     <polygon id="25" class="fil29" points="194.37,196.94 197.88,197.15 183.3,444.2 179.79,443.99 "/>
     <polygon id="26" class="fil30" points="196.71,197.08 200.22,197.29 185.64,444.34 182.13,444.13 "/>
     <polygon id="27" class="fil31" points="199.05,197.22 202.57,197.43 187.98,444.48 184.47,444.27 "/>
     <polygon id="28" class="fil32" points="201.4,197.36 204.91,197.56 190.33,444.62 186.81,444.41 "/>
     <polygon id="29" class="fil33" points="203.74,197.5 207.25,197.7 192.67,444.75 189.16,444.55 "/>
     <polygon id="30" class="fil34" points="206.08,197.63 209.59,197.84 195.01,444.89 191.5,444.69 "/>
     <polygon id="31" class="fil35" points="208.42,197.77 211.93,197.98 197.35,445.03 193.84,444.82 "/>
     <polygon id="32" class="fil36" points="210.76,197.91 214.27,198.12 199.69,445.17 196.18,444.96 "/>
     <polygon id="33" class="fil37" points="213.1,198.05 216.62,198.26 202.04,445.31 198.52,445.1 "/>
     <polygon id="34" class="fil38" points="215.45,198.19 218.96,198.39 204.38,445.45 200.86,445.24 "/>
     <polygon id="35" class="fil39" points="217.79,198.33 221.3,198.53 206.72,445.58 203.21,445.38 "/>
     <polygon id="36" class="fil40" points="220.13,198.46 223.64,198.67 209.06,445.72 205.55,445.51 "/>
     <polygon id="37" class="fil41" points="222.47,198.6 225.98,198.81 211.4,445.86 207.89,445.65 "/>
     <polygon id="38" class="fil42" points="224.81,198.74 228.32,198.95 213.74,446 210.23,445.79 "/>
     <polygon id="39" class="fil43" points="227.15,198.88 230.67,199.08 216.09,446.14 212.57,445.93 "/>
     <polygon id="40" class="fil44" points="229.5,199.02 233.01,199.22 218.43,446.28 214.91,446.07 "/>
     <polygon id="41" class="fil45" points="231.84,199.15 235.35,199.36 220.77,446.41 217.26,446.21 "/>
     <polygon id="42" class="fil46" points="234.18,199.29 237.69,199.5 223.11,446.55 219.6,446.34 "/>
     <polygon id="43" class="fil47" points="236.52,199.43 240.03,199.64 225.45,446.69 221.94,446.48 "/>
     <polygon id="44" class="fil48" points="238.86,199.57 242.37,199.78 227.79,446.83 224.28,446.62 "/>
     <polygon id="45" class="fil49" points="241.2,199.71 244.72,199.91 230.14,446.97 226.62,446.76 "/>
     <polygon id="46" class="fil50" points="243.55,199.85 247.06,200.05 232.48,447.1 228.96,446.9 "/>
     <polygon id="47" class="fil51" points="245.89,199.98 249.4,200.19 234.82,447.24 231.31,447.03 "/>
     <polygon id="48" class="fil52" points="248.23,200.12 251.74,200.33 237.16,447.38 233.65,447.17 "/>
     <polygon id="49" class="fil53" points="250.57,200.26 254.08,200.47 239.5,447.52 235.99,447.31 "/>
     <polygon id="50" class="fil54" points="252.91,200.4 256.43,200.61 241.84,447.66 238.33,447.45 "/>
     <polygon id="51" class="fil55" points="255.25,200.54 258.77,200.74 244.19,447.8 240.67,447.59 "/>
     <polygon id="52" class="fil56" points="257.6,200.67 261.11,200.88 246.53,447.93 243.01,447.73 "/>
     <polygon id="53" class="fil57" points="259.94,200.81 263.45,201.02 248.87,448.07 245.36,447.86 "/>
     <polygon id="54" class="fil58" points="262.28,200.95 265.79,201.16 251.21,448.21 247.7,448 "/>
     <polygon id="55" class="fil59" points="264.62,201.09 268.13,201.3 253.55,448.35 250.04,448.14 "/>
     <polygon id="56" class="fil60" points="266.96,201.23 270.48,201.44 255.89,448.49 252.38,448.28 "/>
     <polygon id="57" class="fil61" points="269.31,201.37 272.82,201.57 258.24,448.62 254.72,448.42 "/>
     <polygon id="58" class="fil62" points="271.65,201.5 275.16,201.71 260.58,448.76 257.07,448.56 "/>
     <polygon id="59" class="fil63" points="273.99,201.64 277.5,201.85 262.92,448.9 259.41,448.69 "/>
     <polygon id="60" class="fil64" points="276.33,201.78 279.84,201.99 265.26,449.04 261.75,448.83 "/>
     <polygon id="61" class="fil65" points="278.67,201.92 282.19,202.13 267.6,449.18 264.09,448.97 "/>
     <polygon id="62" class="fil66" points="281.01,202.06 284.53,202.26 269.95,449.32 266.43,449.11 "/>
     <polygon id="63" class="fil67" points="283.36,202.19 286.87,202.4 272.29,449.45 268.77,449.25 "/>
     <polygon id="64" class="fil68" points="285.7,202.33 289.21,202.54 274.63,449.59 271.12,449.38 "/>
     <polygon id="65" class="fil69" points="288.04,202.47 291.55,202.68 276.97,449.73 273.46,449.52 "/>
     <polygon id="66" class="fil70" points="290.38,202.61 293.89,202.82 279.31,449.87 275.8,449.66 "/>
     <polygon id="67" class="fil71" points="292.72,202.75 296.24,202.96 281.65,450.01 278.14,449.8 "/>
     <polygon id="68" class="fil72" points="295.06,202.89 298.58,203.09 284,450.14 280.48,449.94 "/>
     <polygon id="69" class="fil73" points="297.41,203.02 300.92,203.23 286.34,450.28 282.83,450.08 "/>
     <polygon id="70" class="fil74" points="299.75,203.16 303.26,203.37 288.68,450.42 285.17,450.21 "/>
     <polygon id="71" class="fil75" points="302.09,203.3 305.6,203.51 291.02,450.56 287.51,450.35 "/>
     <polygon id="72" class="fil76" points="304.43,203.44 307.94,203.65 293.36,450.7 289.85,450.49 "/>
     <polygon id="73" class="fil77" points="306.77,203.58 310.29,203.78 295.7,450.84 292.19,450.63 "/>
     <polygon id="74" class="fil78" points="309.11,203.71 312.63,203.92 298.05,450.97 294.53,450.77 "/>
     <polygon id="75" class="fil79" points="311.46,203.85 314.97,204.06 300.39,451.11 296.88,450.9 "/>
     <polygon id="76" class="fil80" points="313.8,203.99 317.31,204.2 302.73,451.25 299.22,451.04 "/>
     <polygon id="77" class="fil81" points="316.14,204.13 319.65,204.34 305.07,451.39 301.56,451.18 "/>
     <polygon id="78" class="fil82" points="318.48,204.27 321.99,204.48 307.41,451.53 303.9,451.32 "/>
     <polygon id="79" class="fil83" points="320.82,204.41 324.34,204.61 309.75,451.66 306.24,451.46 "/>
     <polygon id="80" class="fil84" points="323.16,204.55 326.68,204.75 312.1,451.8 308.58,451.6 "/>
     <polygon id="81" class="fil85" points="325.51,204.68 329.02,204.89 314.44,451.94 310.93,451.73 "/>
     <polygon id="82" class="fil86" points="327.85,204.82 331.36,205.03 316.78,452.08 313.27,451.87 "/>
     <polygon id="83" class="fil87" points="330.19,204.96 333.7,205.17 319.12,452.22 315.61,452.01 "/>
     <polygon id="84" class="fil88" points="332.53,205.1 336.04,205.3 321.46,452.36 317.95,452.15 "/>
     <polygon id="85" class="fil89" points="334.87,205.24 338.39,205.44 323.8,452.49 320.29,452.29 "/>
     <polygon id="86" class="fil90" points="337.22,205.37 340.73,205.58 326.15,452.63 322.63,452.43 "/>
     <polygon id="87" class="fil91" points="339.56,205.51 343.07,205.72 328.49,452.77 324.98,452.56 "/>
     <polygon id="88" class="fil92" points="341.9,205.65 345.41,205.86 330.83,452.91 327.32,452.7 "/>
     <polygon id="89" class="fil93" points="344.24,205.79 347.75,206 333.17,453.05 329.66,452.84 "/>
     <polygon id="90" class="fil94" points="346.58,205.93 350.1,206.13 335.51,453.19 332,452.98 "/>
     <polygon id="91" class="fil95" points="348.92,206.07 352.44,206.27 337.86,453.32 334.34,453.12 "/>
     <polygon id="92" class="fil96" points="351.27,206.2 354.78,206.41 340.2,453.46 336.68,453.25 "/>
     <polygon id="93" class="fil97" points="353.61,206.34 357.12,206.55 342.54,453.6 339.03,453.39 "/>
     <polygon id="94" class="fil98" points="355.95,206.48 359.46,206.69 344.88,453.74 341.37,453.53 "/>
     <polygon id="95" class="fil99" points="358.29,206.62 361.8,206.82 347.22,453.88 343.71,453.67 "/>
     <polygon id="96" class="fil100" points="360.63,206.76 364.15,206.96 349.56,454.01 346.05,453.81 "/>
     <polygon id="97" class="fil101" points="362.98,206.89 366.49,207.1 351.91,454.15 348.39,453.95 "/>
     <polygon id="98" class="fil102" points="365.32,207.03 368.83,207.24 354.25,454.29 350.74,454.08 "/>
     <polygon id="99" class="fil103" points="367.66,207.17 371.17,207.38 356.59,454.43 353.08,454.22 "/>
     <polygon id="100" class="fil104" points="370,207.31 373.51,207.52 358.93,454.57 355.42,454.36 "/>
     <polygon id="101" class="fil105" points="372.34,207.45 375.85,207.65 361.27,454.71 357.76,454.5 "/>
     <polygon id="102" class="fil104" points="374.68,207.59 378.2,207.79 363.61,454.84 360.1,454.64 "/>
     <polygon id="103" class="fil103" points="377.03,207.72 380.54,207.93 365.96,454.98 362.44,454.77 "/>
     <polygon id="104" class="fil102" points="379.37,207.86 379.72,207.88 365.14,454.93 364.79,454.91 "/>
    </g>
    <path id="105" class="fil106 str1" d="M136.02 234.3c98.78,-24.36 174.09,-30.53 234.33,-11.92l-0.65 155.33c-57.77,54.73 -160.53,68.02 -234.01,4.21l0.33 -147.62z"/>
   </g>
   <path class="fil107 str2" d="M136.9 244.36l40.75 64.17c-7.32,8.71 -18.29,14.25 -30.55,14.25 -22.02,0 -39.87,-17.85 -39.87,-39.87 0,-18.49 12.6,-34.04 29.67,-38.55z"/>
   <path class="fil3 str2" d="M322.18 301.09l-83.53 28.35c-6.29,2.65 -12.26,4.53 -18.95,4.78 -9.18,0.35 -17.64,-3.1 -24.38,-8.32 -27.71,-18.95 -46.69,-46.4 -59.21,-80.13 0,0 -0.97,-1.28 1.85,-2.99 17.14,-10.43 35.3,-12.79 55.2,-4.93l19.49 6.2 83.45 -17.65c2.74,-0.59 5.38,-0.86 8.29,-0.86 22.02,0 39.87,17.85 39.87,39.87 0,15.43 -9.34,29.01 -22.08,35.68z"/>
   <path class="fil108 str2" d="M233.92 221.5c23.4,2.78 44.08,14.51 55.68,31.31 1.01,1.47 0.17,2.15 -0.51,2.34l-47.64 13.51c-1.78,0.68 -2.41,-0.63 -2.41,-0.63 -10.51,-19.86 -35.3,-28.07 -60.49,-33.68 15.66,-6.37 36.26,-10.53 55.37,-12.85z"/>
   <circle class="fil109" cx="214.29" cy="179.17" r="15.06"/>
   <circle class="fil109" cx="299.04" cy="156.53" r="15.06"/>
   <path class="fil0" d="M229.34 178.61c-1.9,1.29 -3.86,1.81 -6.66,2.06 -7.26,0.62 -12.22,-4.88 -11.79,-11.79 0.11,-1.77 0.43,-3.23 1.82,-3.99 3.92,-1.46 16.33,2.08 16.63,13.72z"/>
   <path class="fil0" d="M313.5 155.37c-1.9,1.29 -3.86,1.81 -6.66,2.05 -7.26,0.63 -12.22,-4.87 -11.79,-11.78 0.11,-1.77 0.43,-3.24 1.82,-3.99 3.92,-1.46 16.33,2.08 16.63,13.72z"/>
  </g>
 </g>
</svg>
