<?xml version="1.0" encoding="UTF-8"?>
<!DOCTYPE svg PUBLIC "-//W3C//DTD SVG 1.1//EN" "http://www.w3.org/Graphics/SVG/1.1/DTD/svg11.dtd">
<!-- Creator: CorelDRAW 2017 -->
<svg xmlns="http://www.w3.org/2000/svg" xml:space="preserve" width="500px" height="500px" version="1.1" style="shape-rendering:geometricPrecision; text-rendering:geometricPrecision; image-rendering:optimizeQuality; fill-rule:evenodd; clip-rule:evenodd"
viewBox="0 0 500 500"
 xmlns:xlink="http://www.w3.org/1999/xlink">
 <defs>
  <style type="text/css">
   <![CDATA[
    .str1 {stroke:#7A6140;stroke-width:16;stroke-miterlimit:22.9256}
    .str0 {stroke:#987B55;stroke-width:16;stroke-miterlimit:22.9256}
    .fil4 {fill:none}
    .fil7 {fill:#FEFEFE}
    .fil0 {fill:#FECC00}
    .fil10 {fill:black}
    .fil8 {fill:#1179F0}
    .fil9 {fill:#37A0FB}
    .fil6 {fill:#7A6140}
    .fil5 {fill:#DE9D5B}
    .fil3 {fill:#E0AF77}
    .fil2 {fill:#ECC192}
    .fil1 {fill:#ED2B2B}
    .fil11 {fill:white}
   ]]>
  </style>
 </defs>
 <g id="Слой_x0020_1">
  <metadata id="CorelCorpID_0Corel-Layer"/>
  <circle class="fil0" cx="250" cy="250" r="232.5"/>
  <rect class="fil1" x="85.25" y="85.25" width="329.5" height="329.5" rx="29.86" ry="29.86"/>
  <rect class="fil2 str0" transform="matrix(0.707107 -0.707107 0.707107 0.707107 31.5033 250)" width="309" height="309" rx="28" ry="28"/>
  <path class="fil3" d="M333.36 163.32l-257.44 120.52 93.44 93.48c56.29,-81.97 137.65,-138.55 229,-185l-27.5 -27.5 -37.5 -1.5z"/>
  <path class="fil4 str1" d="M76.82 295.5l-24.86 -24.87c-10.89,-10.89 -10.89,-28.71 0,-39.6l178.9 -178.9c10.89,-10.89 28.7,-10.89 39.59,0l105.44 105.44"/>
  <path class="fil5" d="M268.95 62.32l102 100c0,0 0,0 -6,6 -33.47,33.46 -215.97,60.06 -282.5,121 -8.1,-7.47 -18.75,-17.48 -26.5,-27.5 -4.92,-6.35 -7.38,-14.18 -2,-21 50.92,-64.64 145.66,-146.64 182.1,-181.77 9.99,-9.64 22.36,-7.06 32.9,3.27z"/>
  <path class="fil6" d="M381.32 254.01c-90.09,-109.03 -181.6,-120.69 -275.01,-2.15 93.41,118.53 184.92,111.17 275.01,2.15z"/>
  <path class="fil7" d="M370.06 253.92c-82.71,-100.1 -166.72,-110.8 -252.48,-1.98 85.76,108.83 169.77,102.07 252.48,1.98z"/>
  <path class="fil6" d="M371.2 247.97l-15.63 -17.99c17.03,-5.56 31.18,-18.79 44.05,-35.45 -7.09,20.69 -15.37,39.93 -28.42,53.44z"/>
  <path class="fil6" d="M337.58 217.19l-16.99 -14.44c14.97,-7.53 26.19,-21.77 35.75,-39 -3.64,20.14 -8.59,39.11 -18.76,53.44z"/>
  <path class="fil6" d="M163.5 203.2l-24.96 14.28c11.54,-12.16 22.34,-33.18 25.5,-52.62 3.4,20.18 4.17,21.41 -0.54,38.34z"/>
  <path class="fil6" d="M219.11 174.88l-25.65 2.94c12.87,-8.43 23.58,-26.21 29.81,-41.98 -0.2,17.37 3.11,25.59 -4.16,39.04z"/>
  <path class="fil6" d="M289.2 184.68l-18.46 -12.11c13.79,-9.23 23.08,-24.59 30.36,-42.68 -1.11,20.23 -3.66,39.47 -11.9,54.79z"/>
  <circle class="fil8" cx="243.82" cy="252.9" r="61.74"/>
  <path class="fil9" d="M264.3 311.16c14.15,-17.66 17.85,-40.89 7.45,-59.68 -14.37,-25.96 -50.2,-33.62 -80.03,-17.1 -2.91,1.6 -6.29,4.64 -8.4,6.96 -0.77,6.77 -0.42,15.91 0.67,22.09 2.71,15.31 10.14,26.39 18.67,34.46 7.85,7.43 17.53,12.76 28.24,14.84 10.25,1.99 21.43,0.95 33.4,-1.57z"/>
  <circle class="fil10" cx="243.82" cy="252.9" r="26.8"/>
  <path class="fil11" d="M265.83 198.25c1.74,21.68 12.33,34.08 31.73,33.31 -22.65,-0.53 -31.98,11.69 -31.69,32.76 0.17,-23.34 -13.18,-33.65 -32.23,-32.23 18.78,-0.8 30.27,-12.27 32.19,-33.84z"/>
  <path class="fil11" d="M281.86 214.2c-9.75,12.18 -10.32,23.86 0.19,32.99 -11.56,-11.41 -22.45,-9.62 -32.66,1.53 11.57,-12.11 9.67,-24.05 -0.98,-32.68 10.21,8.82 21.84,8.48 33.45,-1.84z"/>
 </g>
</svg>
