<?xml version="1.0" encoding="UTF-8"?>
<!DOCTYPE svg PUBLIC "-//W3C//DTD SVG 1.1//EN" "http://www.w3.org/Graphics/SVG/1.1/DTD/svg11.dtd">
<!-- Creator: CorelDRAW 2017 -->
<svg xmlns="http://www.w3.org/2000/svg" xml:space="preserve" width="500px" height="500px" version="1.1" style="shape-rendering:geometricPrecision; text-rendering:geometricPrecision; image-rendering:optimizeQuality; fill-rule:evenodd; clip-rule:evenodd"
viewBox="0 0 500 500"
 xmlns:xlink="http://www.w3.org/1999/xlink">
 <defs>
  <style type="text/css">
   <![CDATA[
    .str0 {stroke:#00BD00;stroke-width:20;stroke-miterlimit:22.9256}
    .fil2 {fill:#009A00}
    .fil1 {fill:#00BD00}
    .fil0 {fill:white}
    .fil3 {fill:white;fill-rule:nonzero}
   ]]>
  </style>
 </defs>
 <g id="Слой_x0020_1">
  <metadata id="CorelCorpID_0Corel-Layer"/>
  <circle class="fil0 str0" cx="250" cy="250" r="229.7"/>
 </g>
 <g id="Слой_x0020_1_0">
  <metadata id="CorelCorpID_1Corel-Layer"/>
  <path class="fil1" d="M377.79 175.06l-67.18 0c-8.28,-0.07 -11.77,-1.72 -16.13,-6.21 -7.98,-8.24 -6.21,-25.26 -6.21,-38.54 0,-14.93 0.06,-29.87 -0.01,-44.8 -39.24,0.56 -78.89,0.03 -118.17,0.03 -9.59,0 -18.13,-0.41 -24.97,4.26 -5.02,3.42 -10.26,10.03 -10.98,18.75 -0.69,8.43 -0.12,47.41 -0.12,59.07l0 206.45c-0.02,11.15 1.29,16.24 7.47,22.38 5.98,5.94 10.87,7.49 21.75,7.47l177.23 -0.01c10.48,0 17.97,1.03 25.84,-4.01 14.65,-9.4 11.47,-27.48 11.47,-47.59 0,-58.8 -0.52,-118.71 0.01,-177.25z"/>
  <path class="fil2" d="M377.79 175.06c-0.12,-13 1.16,-9.49 -5.87,-16.51l-67.17 -67.14c-7.04,-7.04 -3.53,-5.73 -16.49,-5.9 0.07,14.93 0.01,29.87 0.01,44.8 0,13.28 -1.77,30.3 6.21,38.54 4.36,4.49 7.85,6.14 16.13,6.21l67.18 0z"/>
  <path class="fil3" d="M187.59 278.76l7.6 0 0 -3.92c0,-4.36 0.47,-7.63 1.4,-9.78 0.93,-2.17 2.65,-3.92 5.15,-5.27 2.52,-1.35 5.68,-2.03 9.52,-2.03 3.91,0 7.76,0.58 11.53,1.75l-1.75 9.53c-2.23,-0.51 -4.38,-0.78 -6.45,-0.78 -2.03,0 -3.48,0.47 -4.37,1.4 -0.88,0.93 -1.33,2.73 -1.33,5.4l0 3.7 10.3 0 0 10.8 -10.3 0 0 41.1 -13.7 0 0 -41.1 -7.6 0 0 -10.8z"/>
  <path id="1" class="fil3" d="M226.29 330.66l0 -71.6 13.7 0 0 25.83c4.23,-4.81 9.23,-7.23 15.03,-7.23 6.32,0 11.54,2.28 15.67,6.87 4.13,4.58 6.2,11.16 6.2,19.75 0,8.86 -2.1,15.7 -6.32,20.5 -4.21,4.78 -9.35,7.18 -15.36,7.18 -2.97,0 -5.89,-0.77 -8.77,-2.28 -2.88,-1.54 -5.37,-3.74 -7.45,-6.64l0 7.62 -12.7 0zm13.5 -26.95c0,5.38 0.85,9.38 2.55,11.95 2.38,3.67 5.53,5.5 9.48,5.5 3.04,0 5.62,-1.3 7.77,-3.9 2.13,-2.6 3.2,-6.7 3.2,-12.28 0,-5.95 -1.08,-10.24 -3.23,-12.87 -2.15,-2.63 -4.9,-3.95 -8.27,-3.95 -3.3,0 -6.03,1.28 -8.22,3.85 -2.18,2.57 -3.28,6.47 -3.28,11.7z"/>
  <path id="2" class="fil3" d="M322.94 320.08l0 10.58 -40.08 0c0.43,-4.03 1.73,-7.83 3.9,-11.43 2.17,-3.6 6.46,-8.38 12.85,-14.34 5.15,-4.8 8.3,-8.07 9.47,-9.77 1.57,-2.36 2.36,-4.7 2.36,-7.02 0,-2.55 -0.68,-4.51 -2.06,-5.89 -1.36,-1.37 -3.24,-2.05 -5.65,-2.05 -2.39,0 -4.28,0.72 -5.69,2.17 -1.41,1.43 -2.21,3.81 -2.43,7.16l-11.42 -1.14c0.68,-6.3 2.81,-10.83 6.39,-13.58 3.58,-2.74 8.06,-4.11 13.43,-4.11 5.89,0 10.51,1.6 13.89,4.78 3.36,3.18 5.04,7.13 5.04,11.87 0,2.7 -0.49,5.25 -1.44,7.7 -0.96,2.43 -2.49,4.97 -4.59,7.63 -1.37,1.78 -3.89,4.32 -7.5,7.64 -3.62,3.32 -5.91,5.52 -6.87,6.62 -0.97,1.08 -1.75,2.15 -2.35,3.18l22.75 0z"/>
 </g>
</svg>
