<?xml version="1.0" encoding="UTF-8"?>
<!DOCTYPE svg PUBLIC "-//W3C//DTD SVG 1.1//EN" "http://www.w3.org/Graphics/SVG/1.1/DTD/svg11.dtd">
<!-- Creator: CorelDRAW 2017 -->
<svg xmlns="http://www.w3.org/2000/svg" xml:space="preserve" width="500px" height="500px" version="1.1" style="shape-rendering:geometricPrecision; text-rendering:geometricPrecision; image-rendering:optimizeQuality; fill-rule:evenodd; clip-rule:evenodd"
viewBox="0 0 500 500"
 xmlns:xlink="http://www.w3.org/1999/xlink">
 <defs>
  <style type="text/css">
   <![CDATA[
    .str0 {stroke:#616161;stroke-width:20;stroke-miterlimit:22.9256}
    .fil5 {fill:#9C352B}
    .fil7 {fill:#ABABAB}
    .fil4 {fill:#BCBCBC}
    .fil2 {fill:#D5D4D4}
    .fil3 {fill:#DC4A3C}
    .fil1 {fill:#EAEAEA}
    .fil6 {fill:#EDA099}
    .fil0 {fill:white}
   ]]>
  </style>
 </defs>
 <g id="Слой_x0020_1">
  <metadata id="CorelCorpID_0Corel-Layer"/>
  <circle class="fil0 str0" cx="250" cy="250" r="239.39"/>
 </g>
 <g id="Слой_x0020_1_0">
  <metadata id="CorelCorpID_1Corel-Layer"/>
  <g id="_1950407065264">
   <path class="fil1" d="M105.3 116.42l-0.15 1.39 0.6 1.36c2.92,-13.04 19.23,-19.06 25.84,-14.36 -4.34,5.66 -7.48,8.26 -7.9,18.12 2.93,-7.21 3.1,-11.04 8.51,-15.05 5.21,-3.86 10.78,-5.99 18.46,-3.08 -10.72,9.48 -7.47,30.33 -7.5,45.08l-0.21 160.46c0.03,17.75 0,35.51 -0.02,53.26 0,8.59 0.09,16.05 4.01,22.5 10.08,16.6 24.18,8.32 37.83,4.38 6.72,-1.94 13.87,-3.95 20.76,-5.83 8.23,-2.25 37.86,-11.2 42.9,-11.97l0 3.21 0.89 0 0.55 -4.45c-1.04,-9.68 0.22,-243.13 0.29,-247.41 3.99,1.17 -0.71,-0.53 4.85,4.46 9.09,8.16 26.23,27.01 32.6,31.69l0.73 -0.17 10.04 -0.57 -0.05 -34.99 -0.11 -0.52 -44.82 0.02c-8.16,0.05 -68.06,-18.22 -82.75,-22.4 -15.12,-4.31 -10.87,1.49 -18.34,-0.03 -17.7,-3.63 -10.55,1.19 -19.48,-0.36 -7.85,-1.37 -14.98,-2.78 -22.3,5.53 -2.23,2.53 -4.52,6.03 -5.23,9.73z"/>
   <path class="fil1" d="M345.72 169l0.02 15.02 33.99 0.06 0 8.7 -33.26 0.33c-0.98,3.06 -1.07,12.06 -0.11,15l33.16 0.71 0 7.96 -33.2 0.47 -0.16 14.9 33.25 0.96 -0.08 8.01 -32.99 0.81 -0.26 15.39 33.27 0.2 0.03 7.63 -35.88 -0.18 -2.66 0.76c-0.72,0.07 -2.59,0.02 -3.43,0.02l-45 0.5 0 14.44c0.82,0.01 1.89,-0.05 2.68,0.08 0.24,0.05 0.42,0.1 0.64,0.15l1.83 0.76 81.82 0.25 0 7.65 -84.98 0.13 0 15.37c2.51,0.02 4.88,-0.09 6.81,1.05l77.96 0.1 -0.08 7.42 -77.88 0.21 -18.16 1.26 0 15.01 96.24 0.39 0 7.37 -94.26 0.43 0 32.93c10.15,0.17 87.88,2.23 94.47,0.43 11.05,-3 12.8,-12.02 15.87,-16.27 1.13,-56.59 0.09,-119.16 0.09,-176.85 0,-9.78 -0.04,-19.58 0.02,-29.37 0.08,-11.65 -3.36,-15.58 -9.04,-20.94 -1.37,-0.98 -2.21,-1.62 -3.97,-2.33l-3.47 -1.39c-0.11,-0.05 -0.38,-0.06 -0.46,-0.29 -0.08,-0.23 -0.32,-0.19 -0.47,-0.31l-31.17 0c2.21,8.79 -1.4,25.73 0.06,35.47l32.67 0.65 -0.06 8.3 -33.85 0.65z"/>
   <path class="fil2" d="M249.87 371.44c16.75,0.49 33.64,1.39 50.56,1.44l0 3.01 76.75 0 9.22 -3.95 1.42 -1.6c0.77,-0.81 0.96,-0.91 1.69,-1.76 3.18,-3.74 5.23,-8.08 5.86,-13.17 -3.07,4.25 -4.82,13.27 -15.87,16.27 -6.59,1.8 -84.32,-0.26 -94.47,-0.43l0 -32.93 -19.05 0.04 -0.01 -7.92 17.08 -0.31 0 -15.01 18.16 -1.26c-7.47,-0.49 -30.34,1.57 -35.24,-0.2l0 -7.32c4.9,-1.77 27.77,0.29 35.24,-0.21 -1.93,-1.14 -4.3,-1.03 -6.81,-1.05l0 -15.37c-7.8,-1 -21.88,1.42 -28.43,-0.15l0 -7.7c5.1,-1.52 24.26,0.45 31.59,-0.18l-1.83 -0.76c-0.22,-0.05 -0.4,-0.1 -0.64,-0.15 -0.79,-0.13 -1.86,-0.07 -2.68,-0.08l0 -14.44 45 -0.5c0.84,0 2.71,0.05 3.43,-0.02l2.66 -0.76c-12.43,-2.07 -70.9,2.09 -77.53,0.11l0.04 -7.61c8.03,-1.46 26.51,2.45 32.46,-0.88l-0.04 -14.72c-5.76,-3.3 -24.52,0.56 -32.42,-0.88l-0.04 -7.71c6.29,-2.28 27.26,1.76 32.48,-1.09l-0.04 -14.71c-6.19,-3.48 -24.38,0.95 -32.44,-0.98l0 -7.6c8.06,-1.93 26.25,2.5 32.44,-0.98l0.04 -14.72c-5.22,-2.84 -26.19,1.2 -32.48,-1.08l0 -7.32c6.29,-2.28 27.26,1.76 32.48,-1.09l-0.07 -24.27 -10.04 0.57 7.46 7.85c-5.69,0.18 -25.64,1.16 -29.83,0.16l0 -7.7c4.16,-1.24 16.49,-0.15 21.64,-0.14 -6.37,-4.68 -23.51,-23.53 -32.6,-31.69 -5.56,-4.99 -0.86,-3.29 -4.85,-4.46 -0.07,4.28 -1.33,237.73 -0.29,247.41z"/>
   <path class="fil2" d="M123.69 122.93c-0.37,12.75 0.25,26.3 0.22,39.24l-0.14 115.4c0.01,25.72 -0.02,51.43 -0.02,77.15 0,12.83 -2.79,35.75 16.27,40.95 8.86,2.42 9.35,-4.12 14.7,2.07 11.16,3.34 6.56,3.3 22.82,-1.45 7.52,-2.19 66.88,-18.49 70.89,-20.4l0 -3.21c-5.04,0.77 -34.67,9.72 -42.9,11.97 -6.89,1.88 -14.04,3.89 -20.76,5.83 -13.65,3.94 -27.75,12.22 -37.83,-4.38 -3.92,-6.45 -4.01,-13.91 -4.01,-22.5 0.02,-17.75 0.05,-35.51 0.02,-53.26l0.21 -160.46c0.03,-14.75 -3.22,-35.6 7.5,-45.08 -7.68,-2.91 -13.25,-0.78 -18.46,3.08 -5.41,4.01 -5.58,7.84 -8.51,15.05z"/>
   <path class="fil3" d="M298.38 159.44l0.07 24.27 0 9.49 -0.04 14.72 0 9.56 0.04 14.71 -0.02 9.68 0.04 14.72c1.16,2.14 0.48,1.08 2.49,-0.31 0.87,-0.61 2.18,-1.73 3.16,-2.42 2.27,-1.58 3.63,-2.35 6.12,-4.14l11.92 -8.03c2.66,1.38 5.25,3.72 8.03,5.51 1.25,0.81 2.74,1.75 4.12,2.72l3.88 3.25 0.86 0.47c3.06,1.08 4,2.53 6.38,3.99l0.14 -64.52 0.17 -9.09 -0.02 -15.02 0.05 -44.55 -47.44 0 0.05 34.99z"/>
   <path class="fil4" d="M105.15 117.81l-0.79 2.26 0.28 259.92 0.05 0c1.41,1.55 7.45,18.88 22.87,16.2 3.26,-0.56 4.26,-1.8 7.49,1.1 0.9,0.8 0.4,0.23 1.11,1.13 3.16,0.3 5.58,1.97 9.08,1.58 1.4,-0.16 8.41,-1.85 9.48,-2.26 -5.35,-6.19 -5.84,0.35 -14.7,-2.07 -19.06,-5.2 -16.27,-28.12 -16.27,-40.95 0,-25.72 0.03,-51.43 0.02,-77.15l0.14 -115.4c0.03,-12.94 -0.59,-26.49 -0.22,-39.24 0.42,-9.86 3.56,-12.46 7.9,-18.12 -6.61,-4.7 -22.92,1.32 -25.84,14.36l-0.6 -1.36z"/>
   <path class="fil3" d="M84.08 139.34l0 221.19 2.9 7.01c3.53,6.5 9.75,11.15 17.66,12.45l-0.28 -259.92c-8.83,0.91 -15.94,7.7 -18.8,15.58l-1.48 3.69z"/>
   <path class="fil3" d="M395.37 355.41c-0.63,5.09 -2.68,9.43 -5.86,13.17 -0.73,0.85 -0.92,0.95 -1.69,1.76l-1.42 1.6c8.57,0.92 14.34,-0.55 20.04,-4.84 2.25,-1.69 4.23,-3.7 5.88,-6.4 1.83,-2.99 2.1,-6.22 3.6,-9.21l0 -203.14c-1.46,-2.89 -1.45,-5.73 -3.63,-9.19 -1.75,-2.79 -3.52,-4.65 -5.88,-6.42 -4.73,-3.55 -12.6,-6.62 -19.97,-4.49 5.68,5.36 9.12,9.29 9.04,20.94 -0.06,9.79 -0.02,19.59 -0.02,29.37 0,57.69 1.04,120.26 -0.09,176.85z"/>
   <path class="fil4" d="M339.05 253.64c1.36,1.97 0.44,0.53 1.83,1.99l1.47 1.71 -39.85 -0.36c1.84,-2.03 17.18,-13 19.88,-13.73 4.27,2.3 11.8,8.74 15.81,9.92l-3.88 -3.25c-1.38,-0.97 -2.87,-1.91 -4.12,-2.72 -2.78,-1.79 -5.37,-4.13 -8.03,-5.51l-11.92 8.03c-2.49,1.79 -3.85,2.56 -6.12,4.14 -0.98,0.69 -2.29,1.81 -3.16,2.42 -2.01,1.39 -1.33,2.45 -2.49,0.31 -5.95,3.33 -24.43,-0.58 -32.46,0.88l-0.04 7.61c6.63,1.98 65.1,-2.18 77.53,-0.11l35.88 0.18 -0.03 -7.63 -33.27 -0.2 0.26 -15.39c0.92,-3.64 1.05,-6.25 -0.18,-9.78l0.16 -14.9c0.64,-3.44 0.67,-5.7 0.04,-9.14 -0.96,-2.94 -0.87,-11.94 0.11,-15l-0.9 0 -0.14 64.52c-2.38,-1.46 -3.32,-2.91 -6.38,-3.99z"/>
   <path class="fil4" d="M294.4 289.71l84.98 -0.13 0 -7.65 -81.82 -0.25c-7.33,0.63 -26.49,-1.34 -31.59,0.18l0 7.7c6.55,1.57 20.63,-0.85 28.43,0.15z"/>
   <polygon class="fil4" points="285.03,338.32 379.29,337.89 379.29,330.52 283.05,330.13 265.97,330.44 265.98,338.36 "/>
   <path class="fil4" d="M301.21 313.86l77.88 -0.21 0.08 -7.42 -77.96 -0.1c-7.47,0.5 -30.34,-1.56 -35.24,0.21l0 7.32c4.9,1.77 27.77,-0.29 35.24,0.2z"/>
   <path class="fil4" d="M158.86 340.07l0.68 7.43c4.71,0.62 30.58,-3.59 37.17,-4.48 12.34,-1.66 25.08,-2.92 37.33,-4.94l-1.03 -7.7 -74.15 9.69z"/>
   <polygon class="fil4" points="159.02,212.56 233.35,216.64 233.7,208.82 159.29,204.68 "/>
   <polygon class="fil4" points="158.7,158.34 233.13,168.01 234.04,160.38 159.59,150.52 "/>
   <path class="fil4" d="M159.17 312.97c-0.62,2.02 0.07,5.04 0.27,7.57 6,0.29 72.64,-6.21 73.85,-7.04 1.18,-1.11 0.22,-3.37 0.07,-7.14l-74.19 6.61z"/>
   <polygon class="fil4" points="159.51,258.8 159.09,266.67 233.65,265.27 233.47,257.59 226.81,257.59 "/>
   <polygon class="fil4" points="159.28,239.62 230.2,240.86 233.5,240.87 233.67,233.15 230.2,233.15 161.92,231.8 159.15,231.78 "/>
   <polygon class="fil4" points="158.79,185.24 233.3,192.31 233.84,184.53 159.47,177.61 "/>
   <polygon class="fil4" points="159.02,285.94 159.38,293.7 233.57,289.56 233.41,281.92 "/>
   <path class="fil2" d="M345.72 169l33.85 -0.65 0.06 -8.3 -32.67 -0.65c-1.46,-9.74 2.15,-26.68 -0.06,-35.47l-1.02 0 -0.11 0.52 -0.05 44.55z"/>
   <polygon class="fil2" points="345.57,193.11 346.47,193.11 379.73,192.78 379.73,184.08 345.74,184.02 "/>
   <path class="fil1" d="M339.05 253.64l-0.86 -0.47c-4.01,-1.18 -11.54,-7.62 -15.81,-9.92 -2.7,0.73 -18.04,11.7 -19.88,13.73l39.85 0.36 -1.47 -1.71c-1.39,-1.46 -0.47,-0.02 -1.83,-1.99z"/>
   <path class="fil2" d="M346.34 241.93l32.99 -0.81 0.08 -8.01 -33.25 -0.96c1.23,3.53 1.1,6.14 0.18,9.78z"/>
   <path class="fil2" d="M346.32 217.25l33.2 -0.47 0 -7.96 -33.16 -0.71c0.63,3.44 0.6,5.7 -0.04,9.14z"/>
   <path class="fil4" d="M298.45 193.2l0 -9.49c-5.22,2.85 -26.19,-1.19 -32.48,1.09l0 7.32c6.29,2.28 27.26,-1.76 32.48,1.08z"/>
   <path class="fil4" d="M298.43 241.87l0.02 -9.68c-5.22,2.85 -26.19,-1.19 -32.48,1.09l0.04 7.71c7.9,1.44 26.66,-2.42 32.42,0.88z"/>
   <path class="fil4" d="M298.41 217.48l0 -9.56c-6.19,3.48 -24.38,-0.95 -32.44,0.98l0 7.6c8.06,1.93 26.25,-2.5 32.44,0.98z"/>
   <path class="fil4" d="M288.34 160.01l-0.73 0.17c-5.15,-0.01 -17.48,-1.1 -21.64,0.14l0 7.7c4.19,1 24.14,0.02 29.83,-0.16l-7.46 -7.85z"/>
   <path class="fil4" d="M249.32 375.89l51.11 0 0 -3.01c-16.92,-0.05 -33.81,-0.95 -50.56,-1.44l-0.55 4.45z"/>
   <path class="fil5" d="M386.4 371.94l-9.22 3.95c11.57,0 20.06,1.05 27.43,-3.8 6.43,-4.24 11.31,-10.22 11.31,-20.6 -1.5,2.99 -1.77,6.22 -3.6,9.21 -1.65,2.7 -3.63,4.71 -5.88,6.4 -5.7,4.29 -11.47,5.76 -20.04,4.84z"/>
   <path class="fil6" d="M386.44 128.25c7.37,-2.13 15.24,0.94 19.97,4.49 2.36,1.77 4.13,3.63 5.88,6.42 2.18,3.46 2.17,6.3 3.63,9.19 0,-10.3 -4.4,-15.55 -10.52,-20.04 -7.28,-5.35 -15.37,-4.38 -27.33,-4.38 0.15,0.12 0.39,0.08 0.47,0.31 0.08,0.23 0.35,0.24 0.46,0.29l3.47 1.39c1.76,0.71 2.6,1.35 3.97,2.33z"/>
   <path class="fil7" d="M105.2 383.4c1.59,6.07 5.55,11.27 10.55,14.08 2.13,1.2 6.3,2.53 9.4,2.57 3.13,0.03 6.83,-1.63 11.01,-1.63 -0.71,-0.9 -0.21,-0.33 -1.11,-1.13 -3.23,-2.9 -4.23,-1.66 -7.49,-1.1 -15.42,2.68 -21.46,-14.65 -22.87,-16.2l0.51 3.41z"/>
   <path class="fil6" d="M298.22 123.93l0.11 0.52 47.44 0 0.11 -0.52c-0.55,-2.39 -6.28,-1.36 -11.21,-1.36l-30.75 -0.03c-6.83,-0.13 -5.01,-0.07 -5.7,1.39z"/>
   <path class="fil6" d="M84.08 139.34l1.48 -3.69c2.86,-7.88 9.97,-14.67 18.8,-15.58l0.79 -2.26 0.15 -1.39c-5.76,0 -11.83,4 -14.76,7.15 -3.63,3.89 -6.46,8.55 -6.46,15.77z"/>
   <path class="fil5" d="M105.2 383.4l-0.51 -3.41 -0.05 0c-7.91,-1.3 -14.13,-5.95 -17.66,-12.45l-2.9 -7.01c0,7.48 2.85,11.54 6.42,15.77 2.53,3.01 9.37,7.1 14.7,7.1z"/>
  </g>
 </g>
</svg>
