<?xml version="1.0" encoding="UTF-8"?>
<!DOCTYPE svg PUBLIC "-//W3C//DTD SVG 1.1//EN" "http://www.w3.org/Graphics/SVG/1.1/DTD/svg11.dtd">
<!-- Creator: CorelDRAW 2017 -->
<svg xmlns="http://www.w3.org/2000/svg" xml:space="preserve" width="500px" height="500px" version="1.1" style="shape-rendering:geometricPrecision; text-rendering:geometricPrecision; image-rendering:optimizeQuality; fill-rule:evenodd; clip-rule:evenodd"
viewBox="0 0 500 500"
 xmlns:xlink="http://www.w3.org/1999/xlink">
 <defs>
  <style type="text/css">
   <![CDATA[
    .str0 {stroke:#FF7300;stroke-width:6;stroke-miterlimit:22.9256}
    .str1 {stroke:#2B2A29;stroke-width:3;stroke-miterlimit:22.9256}
    .fil5 {fill:black}
    .fil3 {fill:#002665}
    .fil2 {fill:#2BAD93}
    .fil1 {fill:#30C0A3}
    .fil7 {fill:#5FE6CB}
    .fil0 {fill:#5FE6CB}
    .fil8 {fill:#7AB9D9}
    .fil9 {fill:#828282}
    .fil10 {fill:#E9E9E9}
    .fil6 {fill:#F4F4F4}
    .fil4 {fill:#FF7300}
    .fil11 {fill:#FFED00;fill-rule:nonzero}
   ]]>
  </style>
 </defs>
 <g id="Слой_x0020_1">
  <metadata id="CorelCorpID_0Corel-Layer"/>
  <circle class="fil0" cx="250" cy="250" r="240.06"/>
  <path class="fil1" d="M231.27 174.58l34.66 -7.57 4.58 -118.51 27.34 49.29 9.28 -0.46 29.23 69.88 9.4 -0.25 -4.45 -8.18 88.01 8.96c19.82,35.72 39.65,71.45 59.46,107.17 -5.91,27.84 -10.1,54.44 -21.22,76.69 -43.96,88.02 -120.54,137.95 -227.56,138.26l-135.22 -248.04 115.49 -56.32 96.78 176.33 1.21 -27.85 -86.99 -159.4 0 0z"/>
  <polygon class="fil2" points="450.83,206.93 430.2,170.16 342.18,161.21 346.64,169.39 337.24,169.63 308,99.76 298.74,100.21 271.38,50.93 266.8,169.44 232.15,177.01 305.58,310.75 400.14,255.5 "/>
  <path class="fil3" d="M343.36 143.29c-33.17,39.74 -44.56,17.93 11.11,73.59 48.03,48.03 37.68,46.93 63.6,21.02 30.53,-30.54 34.55,-28.53 21.26,-41.54 -17.34,-16.97 -8.49,-13.5 -9.38,-28.13 -38.82,-47.41 -30.16,-13.76 -48.39,-29.66 -4.48,-3.9 -9.79,-11.52 -15.65,-13.95 -8.63,1.7 -16.43,13.73 -22.55,18.67l0 0z"/>
  <path class="fil2" d="M377.14 163.26c-38.36,8.44 -22.78,61.98 12.04,52.4 12.2,-3.37 22.64,-16.61 18.83,-32.55 -2.92,-12.2 -15.91,-23.14 -30.87,-19.85l0 0z"/>
  <path class="fil3" d="M375.49 169.7c-27.34,9.14 -13.56,48.49 13.1,39.98 25.68,-8.19 13.92,-49 -13.1,-39.98z"/>
  <path class="fil4 str0" d="M265.89 158.37c-3.48,-4.46 -8.94,-7.33 -15.08,-7.33 -10.5,0 -19.01,8.4 -19.01,18.76 0,10.38 8.51,18.78 19.01,18.78 10.5,0 19.02,-8.4 19.02,-18.78l0.05 -85.45c32.62,5.61 46.03,23.75 27.14,62.86 22.94,-26.49 17.84,-51.26 -15.55,-75.25 -4.75,-3.41 -9.69,-8.32 -11.65,-12.91l0 -9.83 -3.93 0 0 109.15 0 0z"/>
  <polygon class="fil5" points="117.35,265.86 52.42,146.3 166.32,84.44 231.25,203.99 "/>
  <polygon class="fil6" points="74.69,133.48 141.58,97.15 157.34,126.17 90.45,162.5 "/>
  <polygon class="fil6" points="94.69,169.19 160.92,133.22 187.68,182.48 121.44,218.45 "/>
  <polygon class="fil6" points="124.78,225.19 192.09,188.63 207.95,217.84 140.64,254.39 "/>
  <polygon class="fil0" points="55.87,143.54 70.94,135.35 75.06,142.95 60,151.13 "/>
  <polygon class="fil0" points="63,155.29 77.32,147.51 84.17,160.12 69.85,167.9 "/>
  <polygon class="fil0" points="72.13,172.09 86.44,164.31 93.3,176.92 78.97,184.7 "/>
  <polygon class="fil0" points="81.23,188.86 95.56,181.08 102.4,193.69 88.08,201.47 "/>
  <polygon class="fil0" points="90.12,205.22 104.45,197.45 111.29,210.05 96.97,217.84 "/>
  <polygon class="fil0" points="99.23,221.99 113.55,214.21 120.4,226.82 106.07,234.6 "/>
  <polygon class="fil0" points="108.35,238.79 122.68,231.02 129.52,243.62 115.21,251.4 "/>
  <polygon class="fil7" points="117.47,255.9 132.41,247.78 136.9,256.03 121.94,264.15 "/>
  <polygon class="fil0" points="146.41,94.62 161.25,86.56 165.32,94.05 150.48,102.11 "/>
  <polygon class="fil0" points="153.25,106.27 167.58,98.5 174.42,111.1 160.11,118.88 "/>
  <polygon class="fil0" points="162.39,123.07 176.7,115.29 183.55,127.9 169.23,135.69 "/>
  <polygon class="fil0" points="171.49,139.84 185.8,132.06 192.66,144.67 178.34,152.45 "/>
  <polygon class="fil0" points="180.38,156.2 194.69,148.43 201.54,161.03 187.23,168.82 "/>
  <polygon class="fil0" points="189.49,172.97 203.8,165.2 210.65,177.8 196.33,185.58 "/>
  <polygon class="fil0" points="198.61,189.77 212.93,182 219.78,194.6 205.46,202.38 "/>
  <polygon class="fil1" points="207.72,206.73 222.37,198.76 228.64,209.31 212.87,216.43 "/>
  <path class="fil8" d="M229.12 231.85c-12.49,3.96 -24.08,9.2 -33.3,15.3 -5.39,3.57 -9.02,6.45 -13.53,10.87 -3.93,3.86 -7.72,7.07 -11.86,11.67 -1.3,2.39 -6.89,9.22 -11.72,17.65 -12.31,21.58 -17.13,48.48 -13.41,73.67 2.9,19.69 14.82,47.83 28.79,60.79l15.07 14.96c8.16,2.62 25.57,21.45 66.81,23.3 47.93,2.15 90.61,-25.66 110.45,-68.78 12.5,-27.17 11.13,-46.77 6.4,-76.92 -3.82,-12.49 -7.84,-22.8 -14.16,-32.37 -7.7,-11.67 -12.37,-17.11 -21.69,-25.12 -17.04,-14.68 -35.27,-24.4 -64.25,-28.58 -18.46,-1.29 -26.67,0.04 -43.6,3.56l0 0z"/>
  <path class="fil9" d="M251.77 304.73c-52.17,12.17 -34.82,89.89 17.2,78.65 19.22,-4.15 35.68,-23.34 30.88,-47.8 -3.79,-19.38 -23.94,-36.48 -48.08,-30.85z"/>
  <path class="fil10" d="M254.54 309.25c-17.76,2.83 -33.29,19.86 -28.8,41.63 9.33,45.27 76.98,32.34 69.24,-13.43 -2.92,-17.27 -20.14,-31.43 -40.44,-28.2z"/>
  <path class="fil2" d="M257.46 325.42c-25.88,5.18 -17.91,42.9 7.52,36.78 8.79,-2.12 16.13,-11.49 13.63,-22.67 -1.81,-8.04 -10.71,-16.2 -21.15,-14.11l0 0z"/>
  <path class="fil11 str1" d="M104.91 233.64l1.98 -16.04 -52.66 -6.46 -10.22 83.17 21.62 2.66 4.23 -34.47 28.01 3.44 1.89 -15.44 -28.01 -3.44 2.12 -17.23 31.04 3.81zm27.35 73.07c18.88,2.32 31.09,-5.35 33.07,-21.39l1.96 -16.03c1.97,-16.04 -8.05,-26.32 -26.92,-28.64 -18.87,-2.32 -31.08,5.23 -33.05,21.27l-1.97 16.04c-1.97,16.04 8.04,26.43 26.91,28.75zm1.92 -15.69c-5.78,-0.71 -8.47,-3.93 -7.67,-10.46l1.96 -16.04c0.81,-6.53 4.19,-8.89 9.97,-8.19 5.79,0.71 8.5,3.82 7.69,10.35l-1.96 16.04c-0.8,6.54 -4.2,9.02 -9.99,8.3zm85.19 -40.67c-9.13,-1.12 -16.49,0.87 -21.4,5.69l-0.71 -6.83 -13.69 -1.69 -7.74 62.98 20.7 2.54 4.86 -39.57c0.81,-6.65 6.52,-9.09 15.2,-8.03 3.81,0.47 6.78,1.44 9.54,2.86l1.89 -15.44c-2.02,-1.21 -5,-2.07 -8.65,-2.51l0 0zm87.68 10.77c-8.07,-1 -14.78,0.83 -19.34,5.22 -3.35,-5.48 -9.14,-8.72 -17.04,-9.69 -8.38,-1.03 -15.11,0.92 -19.86,5.64l-0.59 -6.58 -13.54 -1.66 -7.73 62.96 20.55 2.53 4.88 -39.81c0.77,-6.17 4.49,-8.85 9.52,-8.24 4.87,0.6 7.12,3.66 6.17,11.38l-4.74 38.61 20.55 2.52 4.88 -39.8c0.76,-6.17 4.34,-8.87 9.51,-8.24 4.87,0.6 7.12,3.65 6.18,11.37l-4.74 38.62 20.54 2.52 4.74 -38.61c2.11,-17.11 -5.34,-26.95 -19.94,-28.74l0 0zm64.99 7.97c-17.66,-2.16 -29.43,4.35 -31.82,17.56l20.85 2.57c1.27,-4.06 5.1,-5.04 8.75,-4.59 5.63,0.69 6.75,4.2 6.06,9.78l-0.23 1.9 -7.46 -0.91c-17.81,-2.19 -31.68,2.62 -33.36,16.29 -1.41,11.4 6.71,20.84 21.62,22.67 9.14,1.12 15.03,-1.54 18.44,-5.45l0.49 6.08 16.44 2.02 4.91 -40.03c1.98,-16.05 -5.36,-25.51 -24.69,-27.89l0 0zm1.36 45.52c-0.59,4.87 -4.6,7.28 -10.23,6.59 -5.78,-0.72 -7.56,-3.83 -7.19,-6.92 0.53,-4.27 4.75,-5.93 10.99,-5.16l7 0.86 -0.57 4.63 0 0zm69.03 14.14c-6.24,-0.76 -8.85,-3.37 -8.21,-8.6l3.26 -26.62 13.25 1.62 1.79 -14.6 -13.25 -1.63 1.88 -15.21 -20.55 -2.52 -1.87 15.21 -10.5 -1.29 -1.8 14.61 10.51 1.28 -3.25 26.38c-1.72,14.03 8,24.26 25.35,26.4l6.69 0.82 1.88 -15.2 -5.18 -0.65z"/>
  <path class="fil11 str1" d="M164.45 325.36l-44.71 -5.02 -7.93 70.61 18.35 2.06 3.29 -29.25 23.77 2.66 1.47 -13.11 -23.77 -2.67 1.64 -14.62 26.37 2.96 1.52 -13.62zm28.08 19.18c-15,-1.68 -24.91,3.95 -26.83,15.18l17.7 1.98c1.04,-3.46 4.29,-4.32 7.39,-3.97 4.78,0.53 5.76,3.5 5.22,8.24l-0.18 1.62 -6.33 -0.71c-15.13,-1.7 -26.85,2.5 -28.15,14.1 -1.09,9.69 5.87,17.62 18.53,19.04 7.75,0.87 12.73,-1.43 15.6,-4.79l0.45 5.16 13.96 1.57 3.83 -33.99c1.52,-13.62 -4.78,-21.59 -21.19,-23.43l0 0zm1.55 38.58c-0.46,4.14 -3.83,6.22 -8.61,5.68 -4.91,-0.55 -6.45,-3.17 -6.16,-5.8 0.41,-3.63 3.97,-5.07 9.27,-4.47l5.94 0.66 -0.44 3.93 0 0zm51.48 24.07c15.63,1.75 25.9,-4.66 27.7,-17.22l-17.69 -1.98c-0.9,4.49 -3.37,6.67 -8.15,6.13 -4.53,-0.51 -6.71,-3.2 -6.2,-7.74l1.79 -15.94c0.51,-4.55 3.23,-6.59 7.75,-6.08 4.39,0.5 6.33,3.06 6.08,7.63l17.71 1.99c0.88,-12.57 -6.55,-20.97 -22.71,-22.78 -15.38,-1.72 -25.26,4.72 -26.66,17.24l-1.79 15.94c-1.41,12.6 6.8,21.08 22.17,22.81l0 0zm64.29 -6.26c-5.29,-0.6 -7.53,-2.79 -7.04,-7.24l2.55 -22.59 11.24 1.26 1.39 -12.4 -11.25 -1.27 1.46 -12.91 -17.45 -1.96 -1.45 12.92 -8.91 -1 -1.4 12.4 8.92 1 -2.52 22.4c-1.33,11.9 7,20.49 21.73,22.15l5.68 0.64 1.46 -12.92 -4.41 -0.48zm37.14 17.75c16.02,1.8 26.32,-4.82 27.85,-18.43l1.53 -13.62c1.53,-13.62 -7.06,-22.24 -23.08,-24.04 -16.02,-1.79 -26.31,4.71 -27.83,18.33l-1.54 13.62c-1.52,13.61 7.05,22.34 23.07,24.14l0 0zm1.5 -13.32c-4.91,-0.55 -7.22,-3.26 -6.6,-8.81l1.52 -13.62c0.63,-5.54 3.47,-7.58 8.38,-7.03 4.92,0.56 7.24,3.17 6.62,8.72l-1.53 13.61c-0.62,5.55 -3.48,7.68 -8.39,7.13l0 0zm71.88 -35.24c-7.77,-0.87 -13.98,0.88 -18.11,5.02l-0.65 -5.8 -11.64 -1.3 -5.99 53.46 17.57 1.98 3.77 -33.6c0.63,-5.65 5.45,-7.76 12.82,-6.94 3.22,0.37 5.76,1.16 8.1,2.34l1.48 -13.11c-1.72,-1.01 -4.25,-1.7 -7.35,-2.05l0 0zm48.17 6.74l-13.52 27.18 -8.06 -29.6 -18.35 -2.07 16.97 50.53 -2.2 4.35c-2.17,4.25 -3.97,6.3 -8.49,5.79l-5.17 -0.58 -1.48 13.21 9.04 1.02c11.24,1.26 17.79,-5.77 22.49,-15.04l26.73 -52.78 -17.96 -2.01z"/>
 </g>
</svg>
