<?xml version="1.0" encoding="UTF-8"?>
<!DOCTYPE svg PUBLIC "-//W3C//DTD SVG 1.1//EN" "http://www.w3.org/Graphics/SVG/1.1/DTD/svg11.dtd">
<!-- Creator: CorelDRAW 2017 -->
<svg xmlns="http://www.w3.org/2000/svg" xml:space="preserve" width="500px" height="500px" version="1.1" style="shape-rendering:geometricPrecision; text-rendering:geometricPrecision; image-rendering:optimizeQuality; fill-rule:evenodd; clip-rule:evenodd"
viewBox="0 0 500 500"
 xmlns:xlink="http://www.w3.org/1999/xlink">
 <defs>
  <style type="text/css">
   <![CDATA[
    .fil1 {fill:#0072F2}
    .fil0 {fill:#0095F5}
    .fil2 {fill:#1C42BB}
    .fil11 {fill:#3F1F86}
    .fil12 {fill:#D81258}
    .fil8 {fill:#F92434}
    .fil10 {fill:#FBD909}
    .fil6 {fill:#FC4324}
    .fil4 {fill:#FE6612}
    .fil5 {fill:#FE8206}
    .fil3 {fill:#FFA100}
    .fil7 {fill:#FFAA00}
    .fil9 {fill:#FFEB48}
   ]]>
  </style>
 </defs>
 <g id="Слой_x0020_1">
  <metadata id="CorelCorpID_0Corel-Layer"/>
  <g id="_1918172217184">
   <path class="fil0" d="M299.19 144.44c-10.17,-21.86 -9.17,-51.8 -1.15,-74.96 1.02,-2.94 2.64,-6.73 3.38,-9.66 -2.38,-0.89 -7.13,-1.7 -9.85,-2.25 -3.24,-0.65 -7.1,-1.28 -10.16,-1.73 -6.9,-1.01 -16.6,-1.96 -24.15,-1.96 -8.28,10.11 -18.52,35.43 -18.68,48.98 -0.15,11.87 1.13,20.54 4,32 2.85,11.36 10.08,22.83 17,32l4 5c0.84,0.98 4.04,3.99 5,5 5.23,5.49 9.57,8.72 16,13 6.2,4.12 15.28,8.38 23,11 6.83,2.31 20.23,3.1 29,3l-16 -14c-4.48,-4.37 -7.03,-9.79 -11,-15 -3.83,-5.01 -7.83,-9.35 -11,-15 -8.5,-16.73 -5.3,-8.64 0.25,-15.34 0.07,-0.01 0.26,-0.01 0.36,-0.08z"/>
   <path class="fil1" d="M178.64 66.22c-0.05,1.9 -3.64,3.89 -4.06,5.64 -2.75,11.5 -7,23.72 -7,36 0.56,0.39 3.6,2.46 5.26,1.86 1.26,-0.54 7.47,-6.6 10.84,-8.4 0.47,-0.25 1.23,-0.63 1.74,-0.52 1.74,0.37 0.96,4.28 2.16,5.06 3.31,2.14 -4.29,-4.86 -0.73,-4.13 3.07,-2.22 14.09,-2.35 18.73,-1.87l-0.35 -4.08c4.64,-1.17 5.96,-1.48 9.35,3.08l4.78 0.81 -13.78 6.19c-9.03,4.79 -9.19,8.73 -14,18 -4.54,8.75 -4.56,17.32 1,26 11.01,17.2 31.11,9.75 50,17 4.29,1.64 8.29,-1.51 7.47,3.65 -0.62,3.88 -1.58,6.53 -3.48,9.32 -6.57,9.68 -12.71,11.15 -23.61,15.98 0.25,1.7 0.1,1.01 0.84,2.28 1.54,2.59 -4.64,0.54 -1.22,4.27 -89.13,10.56 173.32,135.86 130.59,52.96 0.74,-0.01 1.3,-1.26 1.91,-1.46 0.09,-0.03 1.4,-0.97 1.5,-1l4.8 -5.27 0.11 -1.87c0.59,-4.55 -4.4,-19.08 -6.16,-23.35 -1.45,-3.51 -2.86,-6.67 -4.64,-9.98 -1.58,-2.92 -4.67,-7.3 -5.58,-9.72 -1.55,-0.79 -5.59,-4.53 -7.12,-5.9 -2.33,-2.08 -4.71,-4.18 -7.02,-6.26 -11.44,-10.28 -27.12,-30.28 -31.78,-46.07 -0.1,0.07 -0.29,0.07 -0.36,0.08 -0.07,0 -0.27,0.05 -0.34,0.05l-0.79 -0.15c-0.05,-0.02 -0.15,-0.09 -0.2,-0.1 -0.05,-0.01 -0.16,-0.07 -0.21,-0.08 -0.05,-0.02 -0.17,-0.04 -0.23,-0.06 -0.06,-0.01 -0.2,-0.01 -0.27,-0.03 -1.45,-0.27 -1.95,0.09 -3.36,-2.5 -0.29,0.2 -0.39,0.25 -1.1,0.52 -0.71,0.28 -1.19,0.99 -2.72,0.39 -1.99,-0.79 -0.36,-0.34 -0.3,-0.5 0.74,4.18 5.22,14.74 7.3,18.45 3.16,5.66 6.52,11.1 10.34,16.11 3.98,5.21 7.9,9.73 12.38,14.1l14.28 12.32c-8.78,0.09 -20.45,-2.87 -27.28,-5.19 -7.72,-2.61 -15.23,-6.49 -21.42,-10.62 -6.43,-4.28 -12.11,-9.2 -17.34,-14.69 -0.96,-1.01 -1,-1.3 -1.84,-2.28l-5.29 -6.61c-6.92,-9.16 -12.39,-21.46 -15.24,-32.82 -2.87,-11.46 -2.81,-17.55 -2.67,-29.42 0.17,-13.55 8.2,-37.42 16.48,-47.53 -11.29,0 -22.02,-0.38 -32.98,1.17 -12.54,1.77 -36.25,6.12 -47.39,11.17z"/>
   <path class="fil2" d="M174.52 231.45c-4.66,1.96 -8.08,6.13 -9.59,10.73 -0.81,2.46 -0.59,3.72 -1.15,5.35 -0.03,0.1 -0.12,0.26 -0.15,0.34 -0.03,0.09 -0.09,0.24 -0.16,0.34 0.59,2.5 0.28,5.58 0.86,7.9 2.27,9.14 8.57,12.84 10.38,15.84 1.79,0.87 3.74,3.35 5.94,4.48 -0.35,0.23 -0.52,0.53 -1.73,0.3 2.95,2.14 9.31,6.25 13,7.65 -1.68,0.84 -0.96,-0.09 -2.59,0.2 8.9,4.7 15.04,8.05 27.76,6.63 16.38,-1.83 35.06,-15.15 58.28,-2.58 7.46,4.03 12.01,11 12.21,20.23 1.3,1.34 1.74,0.35 3,1 0.59,0.3 1.48,0.88 2,1 14.81,3.42 34.95,5.5 50.5,5.5 4.36,-11.42 7.59,-22.22 10,-35 3.97,-0.01 5.62,-3.13 9.41,-3.75 0.86,-8.66 1.13,-15.74 0.29,-24.39l-0.62 -5.57c-0.33,-1.49 -0.06,-0.85 -0.67,-1.93l-0.11 1.87 -8.9 2.9c-0.09,0.03 -0.24,0.08 -0.32,0.11 -0.62,0.19 -0.39,0.16 -1.12,0.18 0.24,7.87 0.18,13.23 -0.16,21.17 -2.56,-1.35 -9.16,-0.32 -11.8,-0.02l-11.84 -0.38c-3.36,-0.1 -8.58,-0.82 -11.56,-1.25 -21.37,-3.08 -38.85,-8.9 -56.88,-18.57l-15.5 -9.65c-8.24,-5.98 -12.97,-9.59 -20.44,-17.06 -2.23,-2.23 -4.22,-4.12 -6.4,-6.39 -1.18,-1.23 -1.74,-2.14 -2.96,-3.44 -0.95,-1.01 -2.06,-2.22 -2.4,-3.62 4.79,-2.93 9.85,-6.16 15.04,-8.77 -3.41,-3.72 -0.8,-2.12 -2.34,-4.71 -0.74,-1.27 -0.59,-0.58 -0.84,-2.28 -3.88,1.27 -11.48,5.22 -14.97,7.13 -10.28,5.64 -10.31,5.71 -9.27,10.49 -0.48,0.16 -0.95,-0.18 -1.77,0.45 -11.11,22.23 -21.59,11.58 -19.26,16.44l-4.11 -2.46 0.94 3.59z"/>
   <path class="fil3" d="M251.51 323.23c5.33,-2.13 10.06,-6.25 18.66,-9.15 10.99,-3.72 14.81,5.49 20.88,-5.8 -0.2,-9.23 -8.22,-15.62 -15.68,-19.65 -23.22,-12.57 -41.9,0.75 -58.28,2.58 -12.72,1.42 -18.86,-1.93 -27.76,-6.63 1.63,-0.29 0.91,0.64 2.59,-0.2 -3.69,-1.4 -10.05,-5.51 -13,-7.65 1.21,0.23 1.38,-0.07 1.73,-0.3 -2.2,-1.13 -4.15,-3.61 -5.94,-4.48 -31.92,43.64 27.87,61.67 48.87,52.41 5.69,0.02 14.23,-0.57 27.93,-1.13z"/>
   <path class="fil4" d="M373.58 441.36c1.52,0.34 6.9,-3.34 8.39,-4.08 2.47,-1.24 4.69,-2.29 7.01,-3.5l12.98 -7.59c4.39,-2.87 8.03,-5.43 12.1,-8.48 2,-1.49 3.67,-3.05 5.55,-4.5 1.17,-0.91 1.53,-1.42 2.63,-2.4 1.19,-1.06 1.75,-1.29 2.97,-2.51 5.41,-5.44 9.56,-10.31 13.87,-16.76 6.85,-10.26 11.22,-22.58 11.17,-35.04 -0.01,-2.49 -0.43,-3.04 -0.47,-5l-31.2 38.73c-1.86,1.82 -3.17,3.16 -4.98,5.16 0.53,-0.97 1.01,-1.46 1.36,-2.7 -6.08,1.58 -11.84,1.74 -17.88,2.62 -6.52,0.94 -6.6,-0.04 -9.65,4.45l-6.04 8.15c-1.42,2.22 -1.84,2.15 -5.2,2.11 -4.58,-0.05 -9.18,0.06 -13.75,0 -2.64,-0.03 -3.43,-0.48 -6.38,-0.47 -3.38,0.02 -28,-4.12 -30.9,-4.76l-16.35 -4.22c-4.84,-1.1 0.03,-0.67 -5.03,-2.29 -8.98,-2.86 -12.39,-4.77 -20.34,-8 -5.58,-2.26 -13.02,-6.65 -18.35,-9.53 -1.46,-0.79 -2.82,-1.59 -4.3,-2.56 -1.65,-1.08 -2.89,-1.77 -4.48,-2.84 -1.48,-0.99 -2.63,-1.75 -4.12,-2.74 -1.72,-1.15 -3.22,-2.5 -4.48,-2.83l1.15 -0.46c-1.58,-0.77 -2.09,-0.46 -6.45,-1.11 -20.99,-3.11 -37.01,-9.57 -52.92,-23.42 -2.49,-2.17 -10.84,-11.26 -12.16,-15.43 2.6,0.3 6.23,1.73 9.08,2.42 20.5,4.95 47.93,4.01 65.1,-8.55 -13.7,0.56 -19.57,-3.65 -25.26,-3.67 -2.52,-0.01 -6.68,-0.23 -8.99,-0.7 -2.97,-0.62 -4.11,-1.89 -7.48,-2.09 -2.76,-0.17 -6,-0.81 -8.35,-1.3 -3.53,-0.74 -5.35,-0.34 -9.02,-0.71 -1.67,-0.16 -1.88,-0.6 -3.04,-1.47 -1.16,-0.87 -0.99,-0.49 -1.11,-1.29l0.02 -0.38c-2.48,-0.09 -1.19,-0.2 -2.86,-1.18 -1.57,-0.91 -1.78,-0.37 -2.95,-1.01 2.15,-1.26 0.37,0.47 2.22,-0.98 -1.28,-0.59 -3.51,-0.95 -5.42,-0.98 -1.16,-2.07 -8,-15.08 -7.96,-16.25 0.03,-0.79 0.49,-1.3 0.84,-2.05l2.4 -6.8c1.74,-9.49 -1.18,-8.59 0.16,-10.42 -1.81,-3 -8.11,-6.7 -10.38,-15.84 -0.58,-2.32 -0.27,-5.4 -0.86,-7.9l0.02 -3.17c-117.41,-2.57 1.6,148.52 60.09,172.82 10.28,6.96 45.36,23.46 60,29 6.57,2.48 30.91,8.96 40.5,11 1.91,0.35 26.8,-4.88 30,-6l11.5 -5c2.9,-1.16 4.99,-4.97 8,-5.5z"/>
   <path class="fil5" d="M174.47 107.53c-0.37,0.74 -0.86,1.88 -1.63,2.19 -2.5,0.99 0.2,-0.09 -1.19,-0.68 -10.52,10.14 -5.2,4.68 -14.96,3.85l-3.11 -0.53c-6.85,15.16 -16.71,39.22 -19,55.5 -3.58,25.46 -3,45 5.58,67.52 2.4,-0.73 4.59,-2.04 7.32,-2.92 6.52,-2.1 22.09,-3.32 26.25,-1.53 2.63,1.12 -0.52,-0.58 0.79,0.52l4.6 2.24 -1.43 -3.37c2.51,0.47 6.54,2.86 8.83,4.08 6.12,3.26 5.56,4.63 7.83,5.67 0.35,-4.34 -2,-5.12 -3.35,-7.51l4.5 2.58c3.09,-5.78 3.62,-15.07 1.45,-21.26 0.82,-0.63 1.29,-0.29 1.77,-0.45 -1.04,-4.78 -1.01,-4.85 9.27,-10.49 3.49,-1.91 11.09,-5.86 14.97,-7.13 10.9,-4.83 17.04,-6.3 23.61,-15.98 1.9,-2.79 2.86,-5.44 3.48,-9.32 0.82,-5.16 0.27,-6.79 -4.01,-8.43 -18.89,-7.25 -38.75,1.14 -49.77,-16.07 -5.55,-8.67 -4.51,-9.54 0.03,-18.29 4.81,-9.27 15.97,-22.31 25,-27.1l-1.94 -0.95 7.59 -3.27c-3.39,-4.56 -17.08,-1.79 -21.72,-0.62l3.33 -1.87c-4.64,-0.49 -18.64,5.6 -21.71,7.82 -3.56,-0.73 2.58,1.6 -0.73,-0.54 -1.2,-0.77 1.04,-0.02 -0.7,-0.39 -0.51,-0.11 -1.27,0.27 -1.74,0.52 -3.37,1.8 -7.95,5.68 -9.21,6.21z"/>
   <path class="fil6" d="M114.22 110.61l-0.9 0.34c-0.15,0.05 -0.27,0.09 -0.43,0.14l-8.81 -0.73c-2.01,0.75 -3.87,3.16 -4.5,5 -13.16,38.06 -17.06,87.08 -11.5,126.5 6.18,43.85 24.41,82.88 44.5,113 18.5,27.76 30.72,40.58 54,62 26.97,21.96 58.83,38.31 92.5,49.5 9.21,3.06 37.25,9.26 47.27,9.48 1.88,-0.17 6.09,-1.85 7.9,-2.61 2.58,-1.09 4.93,-2.34 7.25,-3.27 1.67,-0.67 1.86,-0.82 3.33,-1.7 1.33,-0.81 2.25,-1.12 3.61,-1.88 6.64,-3.68 12.59,-8.32 17.57,-13.97 1.82,-2.08 3.35,-3.12 5.08,-5.44 1.56,-2.09 3.16,-4.31 4.17,-6.79 -3.01,0.53 -8,3.29 -10.9,4.44l-12.52 4.83c-11.11,3.88 -5.41,1.87 -17.29,2.41 -3.1,0.14 -4.16,1.37 -6.33,2.51 -1.7,0.9 -1.83,0.48 -4.74,-0.05l-18.07 -3.86c-6.19,-1.53 -16.69,-4.63 -22.76,-6.92 -7.16,-2.71 -14.12,-5.42 -21.22,-8.49 -8.05,-3.48 -21.39,-11.05 -29.07,-15.69 -2.92,-1.77 -5.83,-3.85 -8.78,-5.84 -7.76,-5.26 -25.26,-18.76 -32.9,-26.48 -2.61,-2.64 -4.9,-4.94 -7.54,-7.55l-6.97 -7.62c-3.56,-4.67 -8.69,-10.03 -13.39,-16.33 -7.91,-10.59 -16.84,-24.43 -22.88,-36.51 -4.85,-9.7 0.17,-3.25 -0.84,-9.63 -0.48,-2.99 -0.16,-0.31 0.09,-2.35 0.12,-0.96 0.11,-0.19 -0.01,-1.39 -0.43,-4.61 0.34,-0.72 0.62,-3.59 0.22,-2.26 -0.69,0.03 -0.31,-2.34 0.27,-1.72 0.21,0.67 0.36,-1.67 0.38,-5.84 0.16,0.16 0.86,-3.74 0.02,-0.1 0.03,-0.24 0.04,-0.35 0.01,-0.1 -0.01,-0.24 0,-0.35 0.02,-0.5 -0.17,-0.02 -0.01,-1.36 0.67,-5.73 -0.38,-3.08 0.15,-5.21 0.49,-1.93 1.74,-5.67 2.91,-7.08 1.02,-1.24 1.94,-3.72 1.92,-5.05 -0.04,-1.44 -0.39,-1.5 0.08,-3.07 0.05,-0.14 0.21,-0.52 0.26,-0.66l1.54 -3.01c2.46,-4.68 4.24,-3.53 4.37,-8.8 -2.63,0.46 -1,0.7 -2.68,0.87 2.02,-4.63 4.15,-5.02 4.97,-8.21 0.99,0.49 0.66,1.23 2.26,-0.41l2.52 -2.09c0.47,-0.39 0.18,-0.1 0.7,-0.7l2.06 -2.53c0.06,-0.07 0.13,-0.19 0.19,-0.26 0.06,-0.07 0.14,-0.19 0.2,-0.25 0.64,-0.64 0.51,-0.52 1.34,-0.76l-0.02 3.17c0.07,-0.1 0.13,-0.25 0.16,-0.34 0.03,-0.08 0.12,-0.24 0.15,-0.34 0.56,-1.63 0.34,-2.89 1.15,-5.35 1.51,-4.6 4.93,-8.77 9.59,-10.73 -1.31,-1.1 1.84,0.6 -0.79,-0.52 -4.16,-1.79 -19.73,-0.57 -26.25,1.53 -2.73,0.88 -4.92,2.19 -7.32,2.92 -0.44,-5.07 -1.96,-13.8 -2.29,-20.11 -0.08,-1.48 0.06,-3.1 0.02,-4.6 -0.06,-1.85 -0.38,-2.31 -0.48,-4.09 -0.51,-9.65 1.08,-29.14 2.26,-37.55 2.29,-16.28 8.27,-41.15 15.12,-56.31l1.9 0.17c-3.41,-2.2 -15.73,-3.49 -20.51,-3.78 -6.79,-0.41 -15.83,-0.09 -21.96,1.5z"/>
   <path class="fil7" d="M361.49 245.72c0.61,1.08 0.34,0.44 0.67,1.93l0.62 5.57c0.84,8.65 0.57,15.73 -0.29,24.39 -3.75,30.73 -20.62,53.75 -36.12,66.59 -9.61,7.96 -18.62,13.84 -32.63,19.03 -23.69,8.77 -38.93,4.99 -44.88,6.09l-1.15 0.46c1.26,0.33 2.76,1.68 4.48,2.83 1.49,0.99 2.64,1.75 4.12,2.74 1.59,1.07 2.83,1.76 4.48,2.84 1.48,0.97 2.84,1.77 4.3,2.56 5.33,2.88 12.77,7.27 18.35,9.53 7.95,3.23 11.36,5.14 20.34,8 5.06,1.62 0.19,1.19 5.03,2.29l16.35 4.22c2.9,0.64 27.52,4.78 30.9,4.76 2.95,-0.01 3.74,0.44 6.38,0.47 4.57,0.06 9.17,-0.05 13.75,0 3.36,0.04 3.78,0.11 5.2,-2.11l6.04 -8.15c3.05,-4.49 3.13,-3.51 9.65,-4.45 6.04,-0.88 11.8,-1.04 17.88,-2.62 -0.35,1.24 -0.83,1.73 -1.36,2.7 1.81,-2 3.12,-3.34 4.98,-5.16l31.2 -38.73c5.85,-11.17 7.37,-11.65 13.59,-26.2 4.08,-9.55 7.43,-18.96 10.09,-29.67 3.47,-13.98 4.87,-26.58 5.12,-40.49l0 -9.47c-0.08,-1.76 -0.37,-2.08 -0.46,-3.9 -0.31,-6.49 -1.78,-16.27 -1.83,-18.28 -3.03,0.8 -5.19,6.98 -7.87,8.68 -0.3,6.25 0.6,12.96 0.25,19.66 -0.31,5.99 -0.51,12.64 -1.29,18.21 -0.5,3.56 0.06,2.23 -3.7,3.94 -0.63,0.29 -1,0.52 -1.53,0.75l-20.61 9.15c-0.28,-2.75 -4.33,-13.63 -5.33,-16.24 -1.88,-4.91 -4.69,-10.09 -7.21,-14.29 -7.27,-12.08 -17.94,-23.7 -17.79,-23.68 -2.44,0.5 -4.73,1.31 -7.2,2.12 -4.44,1.45 -18.18,5.07 -21.55,5.11 -1.46,-2.71 -6.08,-7.16 -8.37,-9.5l-28.98 -24.73c0.91,2.42 4,6.8 5.58,9.72 1.78,3.31 3.19,6.47 4.64,9.98 1.76,4.27 6.75,18.8 6.16,23.35z"/>
   <path class="fil8" d="M59.25 144.4c0,2.25 -2.29,4.65 -2.67,6.96 -1.24,7.41 -7.13,18.33 -7.5,25.5 -0.07,1.33 -0.93,4.17 -1,5.5 -0.1,1.94 0.6,4.5 0.5,6.5 -0.28,5.16 0,14.23 0,19.5 0,68.41 26.61,143.53 70,196.5 4.29,5.24 13.76,9.8 18.5,14.5 1.62,1.61 3,4.48 4.5,6l14 12.5c0.86,0.69 0.18,1.21 1,2l14.5 10.5c10.45,8.6 27.31,18.27 38.5,24.5l23.39 9.66c5.34,0.4 12.96,1.06 20.37,1.37l13.48 0c1.22,-0.08 2.37,-0.18 3.42,-0.33 4.04,-0.55 8.42,-0.18 12.55,-0.71 8.28,-1.05 34.57,-4.56 42.97,-8.68l0.59 -0.33c-2.12,-0.05 -6.26,-0.93 -8.28,-1.33 -14.78,-2.94 -24.69,-5.32 -38.88,-10.04 -33.66,-11.19 -63.54,-28.78 -90.52,-50.74l-18.09 -16.65c-0.88,-0.86 -1.44,-1.4 -2.3,-2.27l-9.15 -10.05c-1.09,-1.1 -1.31,-1.65 -2.29,-2.74 -1.03,-1.16 -1.36,-1.41 -2.33,-2.7 -0.77,-1.04 -1.32,-1.84 -2.23,-2.8 -3.54,-3.74 -13.8,-18.57 -16.58,-22.74 -20.08,-30.12 -36.71,-69.6 -42.89,-113.45 -5.56,-39.42 -2.24,-86.65 10.92,-124.71 0.64,-1.84 0.43,-1.72 2.43,-2.47l6.73 -2.06c0.16,-0.05 0.28,-0.09 0.43,-0.14l0.9 -0.34c-2.39,-0.08 -3.74,-1.73 -4.56,-3.24 -5.25,-3.46 -10.73,-17.3 -12.78,-18.1l-0.72 -0.16c-2.15,-0.44 -4.34,-18.57 -4.34,-24.26 -9.05,6.06 -11.25,15.47 -11.88,16 -0.38,0.32 -0.58,-3.18 -4.13,3.65 -1.26,2.43 -0.98,2.92 -2.63,4.68 -4.84,5.15 -10.02,27.64 -11.21,35.88 -0.4,2.79 -0.72,6.98 -1.11,9.86 -0.25,1.84 -0.05,3.56 -0.09,5.4 -0.07,3.62 -0.53,1.52 -1.52,4.08z"/>
   <path class="fil9" d="M460.49 192.4l-7.06 -18.41c-1.11,-1.13 -4.69,-9.15 -5.88,-11.39 -9.26,-17.5 -15.81,-26.26 -27.65,-41.36 -6.56,-8.36 -21.49,-23.16 -29.99,-30.36l-14.3 -11.75c-7.37,-5.79 -14.94,-10.62 -22.06,-16.8 -0.99,-0.86 -1.37,-1.37 -2.39,-2.17 -4.52,-3.54 -9.03,-8.83 -12.98,-13.09 -2.7,-2.93 -5.28,-6.32 -7.62,-9.74 -4.23,-6.19 -3.83,-7.54 -6.04,-11.32 -2.69,3.12 -9.06,21.48 -10.58,26.89 -12.55,44.6 -4.73,82.42 25.86,114.16 1.59,1.65 3.17,2.86 4.71,4.43 1.89,1.91 2.78,3.08 4.82,4.78 3.49,2.9 6.59,5.95 10.32,8.88l36.86 29.43c6.86,5.6 1.72,6.44 20.02,-1.87 2.4,-1.09 5.01,-2.05 7.33,-3.2l22.08 -9.91c2.5,-1.19 4.75,-2.14 7.28,-3.22 2.07,-0.88 6.08,-2 7.27,-3.98z"/>
   <path class="fil10" d="M301.42 59.82c-0.74,2.93 -2.36,6.72 -3.38,9.66 -8.02,23.16 -9.02,53.1 1.15,74.96 4.66,15.79 20.34,35.79 31.78,46.07 2.31,2.08 4.69,4.18 7.02,6.26 1.53,1.37 5.57,5.11 7.12,5.9l28.98 24.73c2.29,2.34 6.91,6.79 8.37,9.5 3.37,-0.04 17.11,-3.66 21.55,-5.11 2.47,-0.81 4.76,-1.62 7.2,-2.12 -0.15,-0.02 10.52,11.6 17.79,23.68 2.52,4.2 5.33,9.38 7.21,14.29 1,2.61 5.05,13.49 5.33,16.24l20.61 -9.15c0.53,-0.23 0.9,-0.46 1.53,-0.75 3.76,-1.71 3.2,-0.38 3.7,-3.94 0.78,-5.57 0.98,-12.22 1.29,-18.21 0.35,-6.7 -0.55,-13.41 -0.25,-19.66 0.61,-7.01 -5.07,-32.89 -7.93,-39.77 -1.19,1.98 -5.2,3.1 -7.27,3.98 -2.53,1.08 -4.78,2.03 -7.28,3.22l-22.08 9.91c-2.32,1.15 -4.93,2.11 -7.33,3.2 -18.3,8.31 -13.16,7.47 -20.02,1.87l-36.86 -29.43c-3.73,-2.93 -6.83,-5.98 -10.32,-8.88 -2.04,-1.7 -2.93,-2.87 -4.82,-4.78 -1.54,-1.57 -3.12,-2.78 -4.71,-4.43 -30.59,-31.74 -38.41,-69.56 -25.86,-114.16 1.52,-5.41 7.89,-23.77 10.58,-26.89 2.21,3.78 1.81,5.13 6.04,11.32 2.34,3.42 4.92,6.81 7.62,9.74 3.95,4.26 8.46,9.55 12.98,13.09 1.02,0.8 1.4,1.31 2.39,2.17 7.12,6.18 14.69,11.01 22.06,16.8l14.3 11.75c8.5,7.2 23.43,22 29.99,30.36 11.84,15.1 18.39,23.86 27.65,41.36 1.19,2.24 4.77,10.26 5.88,11.39 -0.11,-1.81 -2.11,-6.36 -3.04,-8.26 -3.86,-7.96 -6.54,-14.46 -10.98,-22.39 -10.2,-18.23 -22.18,-37.94 -33.88,-55.26l-8.48 -13.93c-2.11,-3.86 -6.25,-10.71 -6.25,-16.16 -3.49,2.34 -9.92,16.01 -10.05,21.95 -2.73,-1.82 -19.44,-18.7 -22.3,-21.59l-13.72 -15.54c-5.79,-6.65 -15.18,-19.28 -15.18,-28.7 -1.98,1.32 -6.64,7.8 -8.23,10.06 -0.64,0.9 -1.19,1.83 -1.83,2.74 -6.26,8.81 -14.38,23.05 -18.07,32.91z"/>
   <path class="fil11" d="M291.05 308.28c-6.07,11.29 -9.89,2.08 -20.88,5.8 -8.6,2.9 -13.33,7.02 -18.66,9.15 -17.17,12.56 -44.6,13.5 -65.1,8.55 -2.85,-0.69 -6.48,-2.12 -9.08,-2.42 1.32,4.17 9.67,13.26 12.16,15.43 15.91,13.85 31.93,20.31 52.92,23.42 4.36,0.65 4.87,0.34 6.45,1.11 5.95,-1.1 21.19,2.68 44.88,-6.09 14.01,-5.19 23.02,-11.07 32.63,-19.03 15.5,-12.84 32.37,-35.86 36.12,-66.59 -3.79,0.62 -7.49,1.12 -11.46,1.13 -2.41,12.79 -5.58,24 -9.94,35.41 -15.55,0 -32.8,-1.22 -47.61,-4.63 -0.52,-0.12 -0.86,-0.19 -1.45,-0.5 -1.26,-0.64 0.32,0.61 -0.98,-0.74z"/>
   <path class="fil2" d="M109.66 107.37c0.82,1.51 2.17,3.16 4.56,3.24 6.13,-1.59 15.17,-1.91 21.96,-1.5 4.78,0.29 17.1,1.58 20.51,3.78 9.76,0.83 4.44,6.29 14.96,-3.85 1.39,0.59 -1.31,1.67 1.19,0.68 0.77,-0.31 1.26,-1.45 1.63,-2.19 -1.66,0.61 -0.31,0.23 -0.87,-0.16 0,-12.27 1.28,-24.73 4.03,-36.23 0.41,-1.75 0.96,-3.02 1.01,-4.92 -10.41,2.55 -36.55,16.78 -45.59,22.95 -2.79,1.9 -5.19,3.71 -8.04,5.67 -4.03,2.77 -7.58,6.11 -11.44,9.13l-3.91 3.4z"/>
   <path class="fil12" d="M34.68 201.54l0.25 -0.98 -0.25 0.98zm0 0l-5.32 17.08c-1.7,5.83 -2.95,11.96 -4.02,18.38 -2.14,12.93 -3.92,26.57 -3.92,41.34l0.84 -2.35c0.33,-1.29 0.33,-1.63 0.65,-3.02 0.61,-2.64 3.49,-13.43 4.74,-15.82 0.04,-0.07 0.11,-0.2 0.17,-0.29 0,22.44 -0.05,28.69 4.15,49.79 6.32,31.71 25.13,70.79 46.49,95.23l23.53 24.02c1.33,1.18 1.98,1.79 3.41,2.99 7.95,6.69 18.71,14.98 27.42,20.12 5.71,3.37 10.43,7.08 17.06,10.37 26.12,12.95 42.21,18.73 71.06,23.57 3.49,0.59 8.53,1.57 12.03,1.57l-21.13 -11.18c-11.2,-6.22 -28.65,-17.7 -39.1,-26.3l-13.49 -11.2c-0.82,-0.79 -1.22,-1.33 -2.08,-2.02l-14.61 -13.75c-1.49,-1.52 -2.25,-2.75 -3.87,-4.35 -4.74,-4.7 -11.04,-12.37 -15.33,-17.6 -43.38,-52.97 -69.13,-124.51 -69.13,-192.92 0,-5.26 -0.28,-11.3 -0.01,-16.47 0.11,-2 0.36,-1.71 0.47,-3.65 0.07,-1.33 -0.08,-2.79 -0.01,-4.12 0.37,-7.17 2.29,-22 3.53,-29.41 0.39,-2.31 1.04,-4.9 1.04,-7.15 -6.18,4.91 -17.74,25.81 -21.5,34.61 -2.31,5.39 -13.92,35.16 -14.5,42.19l2.74 -5.03c1.55,-3.09 6.81,-13.25 8.69,-14.63z"/>
  </g>
 </g>
</svg>
