<?xml version="1.0" encoding="UTF-8"?>
<!DOCTYPE svg PUBLIC "-//W3C//DTD SVG 1.1//EN" "http://www.w3.org/Graphics/SVG/1.1/DTD/svg11.dtd">
<!-- Creator: CorelDRAW 2017 -->
<svg xmlns="http://www.w3.org/2000/svg" xml:space="preserve" width="500px" height="500px" version="1.1" style="shape-rendering:geometricPrecision; text-rendering:geometricPrecision; image-rendering:optimizeQuality; fill-rule:evenodd; clip-rule:evenodd"
viewBox="0 0 500 500"
 xmlns:xlink="http://www.w3.org/1999/xlink">
 <defs>
  <style type="text/css">
   <![CDATA[
    .str0 {stroke:#E93D94;stroke-width:25;stroke-miterlimit:22.9256}
    .fil1 {fill:#E93D94}
    .fil2 {fill:#FEFEFE}
    .fil0 {fill:white}
   ]]>
  </style>
 </defs>
 <g id="Слой_x0020_1">
  <metadata id="CorelCorpID_0Corel-Layer"/>
  <circle class="fil0 str0" cx="250" cy="250" r="232.45"/>
 </g>
 <g id="Слой_x0020_1_0">
  <metadata id="CorelCorpID_1Corel-Layer"/>
  <g id="_1708975580672">
   <path class="fil1" d="M151.81 226.13l10.82 -0.17 0.02 41.48c-3.12,-0.8 -5.25,-2.9 -7.25,-5.17 -5.78,-6.58 -3.51,-24.7 -3.59,-36.14zm208.76 -8.75c0.92,-1.43 5.76,-4.1 7.24,-4.64l0.01 9.51 4.92 0.26 0.05 5.52 -4.9 0.27c-0.13,3.56 -0.52,13.28 0.51,16.16 1.8,0.59 2.68,0.61 4.34,-0.05 0.38,1.8 0.8,4.15 0.28,5.66 -4.95,2.17 -11.21,1.29 -12.17,-3.89 -0.96,-5.16 -0.03,-12.35 -0.44,-17.85l-3.36 -0.1c0.01,-7.44 -0.38,-5.52 3.54,-6.05l-0.02 -4.8zm13.98 4.99l7.44 0 6.86 18.63 6.72 -18.64 2.05 0.02 3.21 0 2.22 0.05 -11.05 27.85 -6.57 0.06 -10.88 -27.97zm-211.86 -19.56l-11.1 0.06c-0.18,-18.8 0.16,-37.8 0.24,-56.63 0.02,-6.32 -0.71,-22.19 1.16,-26.96 2.19,-5.62 9.61,-11.66 17.87,-11.14 4.3,0.28 14.98,7.43 18.86,9.62 6.01,3.4 12.09,6.88 17.93,10.44 12.02,7.32 24.27,13.8 36.12,21.09l35.83 20.87c6.58,3.71 12.25,6.45 14.84,13.47 3.46,9.36 -1.97,16.32 -6.76,20.07 -3.58,2.8 -70.73,40.8 -72.68,41.36l-0.03 8.66c1.13,-1.02 0.23,-0.03 1.35,-1.53 0.49,-0.65 0.48,-0.77 0.86,-1.38 0.93,-1.49 0.97,-1.43 2.12,-2.64 7.69,-8.12 18.87,-2.4 20.27,-0.84l-5.42 12.68c1.89,-0.28 7.33,-19.78 38.67,-15.59 25.54,3.41 24.44,24.3 26.53,27.46 -1.47,-8.74 6.3,-18.63 10.75,-21.68 12.81,-8.74 37.6,-9.29 49.28,3.79 4.35,4.87 8.13,16.66 6.65,25.78l-44.44 -0.02c1.26,11.25 10.32,14.21 17.45,10.13 1.52,-0.87 0.87,-0.34 2.14,-1.65 2.87,-2.98 3.32,-1.96 9.4,-1.38 4.75,0.45 9.49,0.79 14.22,1.33 -3.22,5.85 -6.93,10.11 -13.25,13.09 -12.24,5.77 -43.65,7.38 -50.83,-15.85 -0.26,-0.84 -0.42,-1.59 -0.64,-2.54l-0.87 -3.08 -44.78 -0.03c1.44,11.08 9.26,13.54 15.86,10.9 3.3,-1.32 3.78,-3 5.92,-4.45l21.34 1.91c-3.26,6.39 -8.54,12.03 -16.85,14.47 -8.28,2.44 -19.97,2.79 -28.36,0.67 -15.77,-3.97 -25.13,-21.85 -18.63,-40.92 -3.07,0.85 -7.76,-2.61 -11.78,0.23 -7.92,5.61 -4.56,30.86 -5.36,40.64l-22.33 0.04 -0.07 -77.04 14.97 -0.38 0.02 -22.75 -14.92 -0.25c-0.37,-15.65 5.38,-12.64 18.21,-12.3 0.62,-3.76 3.73,-16.26 2.96,-18.77 -18.37,-2.13 -42.6,-6.86 -50.38,11.46 -2.48,5.85 -2.23,12.91 -2.34,19.58zm-37.3 -82.77l0 259.93c0,9.98 5.64,20.52 12.61,27.5 14.23,14.23 35.57,16.69 52.86,6.43 5.94,-3.52 11.48,-6.45 17.32,-9.96 5.72,-3.44 11.22,-6.27 16.99,-9.76l34.3 -19.72c3.07,-1.72 5.45,-3.15 8.54,-4.83l43.47 -24.99c15.72,-9.48 35.27,-20.21 51.35,-29.41 2.77,-1.58 5.44,-3.28 8.42,-4.95 3.19,-1.78 5.7,-3.24 8.89,-5.02l29.89 -17.18c5.7,-3.42 10.77,-6.35 15.11,-12.17 16.32,-21.9 10.32,-47.47 -10.39,-61.21 -2.64,-1.75 -5.61,-3.2 -8.47,-4.91l-215.08 -123.48c-15.59,-8.98 -32.28,-8.69 -47.42,1.31l-6.54 5.76c-0.54,0.59 -0.7,0.78 -1.29,1.38 -1.19,1.21 -1.49,1.48 -2.45,2.91 -4.11,6.13 -8.11,14.06 -8.11,22.37z"/>
   <path class="fil2" d="M151.81 226.13c0.08,11.44 -2.19,29.56 3.59,36.14 2,2.27 4.13,4.37 7.25,5.17l-0.02 -41.48 -10.82 0.17z"/>
   <path class="fil1" d="M254.53 269.06l21.9 -0.05c-0.64,-6.99 -3.66,-11.67 -10.91,-11.77 -7.38,-0.1 -10.4,4.84 -10.99,11.82z"/>
   <path class="fil1" d="M321.78 268.85l21.91 0.18c-0.66,-6.74 -3.72,-11.6 -10.77,-11.79 -7.55,-0.19 -10.46,4.61 -11.14,11.61z"/>
  </g>
 </g>
</svg>
