<?xml version="1.0" encoding="UTF-8"?>
<!DOCTYPE svg PUBLIC "-//W3C//DTD SVG 1.1//EN" "http://www.w3.org/Graphics/SVG/1.1/DTD/svg11.dtd">
<!-- Creator: CorelDRAW 2017 -->
<svg xmlns="http://www.w3.org/2000/svg" xml:space="preserve" width="500px" height="500px" version="1.1" style="shape-rendering:geometricPrecision; text-rendering:geometricPrecision; image-rendering:optimizeQuality; fill-rule:evenodd; clip-rule:evenodd"
viewBox="0 0 500 500"
 xmlns:xlink="http://www.w3.org/1999/xlink">
 <defs>
  <style type="text/css">
   <![CDATA[
    .str0 {stroke:black;stroke-width:10;stroke-miterlimit:22.9256}
    .fil2 {fill:#EF7F1A}
    .fil4 {fill:#F3A400}
    .fil5 {fill:#F3A400}
    .fil3 {fill:#FCD844}
    .fil1 {fill:#FF7300}
    .fil0 {fill:url(#id0)}
   ]]>
  </style>
  <radialGradient id="id0" gradientUnits="userSpaceOnUse" gradientTransform="matrix(1 -0 -0 1 0 0)" cx="250" cy="268.88" r="258" fx="250" fy="268.88">
   <stop offset="0" style="stop-opacity:1; stop-color:white"/>
   <stop offset="0.329412" style="stop-opacity:1; stop-color:#FFCBAD"/>
   <stop offset="1" style="stop-opacity:1; stop-color:#FF985C"/>
  </radialGradient>
 </defs>
 <g id="Слой_x0020_1">
  <metadata id="CorelCorpID_0Corel-Layer"/>
  <circle class="fil0 str0" cx="250" cy="250" r="236"/>
  <polygon class="fil1" points="272.84,320.7 355.75,137 289.72,132.68 302.9,160.13 318.9,160.13 289.19,234.88 257.75,258 173.75,77 205.25,54 449.9,79.13 283.02,437.54 251.75,461 48.75,62 80.73,39.04 137.9,47.13 "/>
  <polygon class="fil2" points="275.25,131.5 280.25,107 387.25,114 355.75,137 "/>
  <polygon class="fil3" points="283.25,438 80.25,39 139.25,44 285.25,340 387.25,114 280.25,107 304.25,157 320.25,157 289.25,235 205.25,54 451.25,76 "/>
  <path class="fil4" d="M148 172.64c21.47,5.22 43.91,21.6 68.94,29.35l68.07 138.01 91.99 -203.83c18.7,-10.34 38.48,-20.05 58.99,-27.8l-152.98 329.63 -135.01 -265.36z"/>
  <path class="fil5" d="M313.5 175.75l-23.75 59.75 -16.52 -35.59c2.63,-1.2 5.28,-2.57 7.96,-4.13 9.77,-5.69 20.59,-12.56 32.31,-20.03z"/>
 </g>
</svg>
