<?xml version="1.0" encoding="UTF-8"?>
<!DOCTYPE svg PUBLIC "-//W3C//DTD SVG 1.1//EN" "http://www.w3.org/Graphics/SVG/1.1/DTD/svg11.dtd">
<!-- Creator: CorelDRAW 2017 -->
<svg xmlns="http://www.w3.org/2000/svg" xml:space="preserve" width="500px" height="500px" version="1.1" style="shape-rendering:geometricPrecision; text-rendering:geometricPrecision; image-rendering:optimizeQuality; fill-rule:evenodd; clip-rule:evenodd"
viewBox="0 0 500 500"
 xmlns:xlink="http://www.w3.org/1999/xlink">
 <defs>
  <style type="text/css">
   <![CDATA[
    .fil0 {fill:#1179F0}
    .fil4 {fill:#7B7C80}
    .fil10 {fill:#AEACAE}
    .fil1 {fill:#E5E5E5}
    .fil3 {fill:#F58A21}
    .fil6 {fill:#F7A424}
    .fil8 {fill:#F8BD8A}
    .fil11 {fill:#FAB36C}
    .fil5 {fill:#FAC131}
    .fil2 {fill:#FCD844}
    .fil9 {fill:#FEE94C}
    .fil7 {fill:#FEFEFE}
   ]]>
  </style>
 </defs>
 <g id="Слой_x0020_1">
  <metadata id="CorelCorpID_0Corel-Layer"/>
  <circle class="fil0" cx="250" cy="250" r="236"/>
  <path class="fil1" d="M80.31 248.85c2.43,5.26 17.06,14.58 25.97,18.03 66.76,25.88 159.98,2.62 224.01,-22.74 11.02,-4.37 21.37,-10.3 31.78,-14.28l0 -9.35c-12.08,2.01 -25.1,-1.5 -20.59,-16.12 2.93,-9.52 12.67,-14.98 25.23,-13.73l-4.63 0.02 -0.01 -7.26c-4.78,2.19 -10.11,5.86 -15.1,8.81 -4.73,2.81 -9.39,5.29 -14.43,7.8 -9.9,4.93 -20.96,9.64 -31.83,13.63 -22.21,8.15 -46.87,14.97 -72.1,17.93 -29.46,3.44 -91.59,4.98 -102.45,-29.37 -3.72,-11.76 -0.08,-28.11 4.78,-36.8l0.11 -2.28c-9.38,0.41 -10.66,-4.59 -5.43,-9.63 5.16,-4.97 11.77,-4.64 15.09,-6.04 2.81,-3.47 7.94,-10.63 9.93,-14.23 2.07,-0.77 2.26,-2.31 4.21,-4.24 2.81,-2.77 2.58,-1.56 4.29,-5.05 -9.64,2.51 -52.86,35.14 -62.14,47.27 -11.44,14.93 -27.86,30.6 -24.93,57.37 0.9,8.25 4.59,13.76 8.24,20.26z"/>
  <path class="fil2" d="M160.03 123.02l2.5 -0.24c3.29,-1.42 22.8,-27 69.19,-44.13 23.35,-8.62 51.33,-12.48 76.64,-11.04 3.75,0.22 19.44,1.46 23.15,2.83 1.48,0.54 1.33,0.53 2.13,1.11 -3.39,0.05 -6.42,0.11 -8.64,1l1.25 2.63c0.01,0.07 0.02,0.58 0.03,0.47 0.01,-0.11 0.04,0.32 0.02,0.48 -0.24,0.12 -0.57,0.21 -0.77,0.26l-16.16 3.63c-3.96,0.46 -4.37,0.86 -7.25,2.61 -0.17,0.11 -0.39,0.26 -0.57,0.37 -0.18,0.1 -0.4,0.25 -0.59,0.36l-34.99 12.45c2.4,5.67 0,11.88 -3.9,13.98 3.27,1.07 6.29,-0.4 9.32,-0.8 5.98,-0.77 4.53,0.17 9.12,-1.99l6.74 2.9 -0.98 8.34c4.23,-2.32 4.84,1 9.9,-2.5 1.94,3.37 -0.24,1.52 3.25,2.88l4.01 0.06 1.13 7.82c0.08,0.06 0.33,0.25 0.41,0.32l4.93 1.12c0.01,4.91 0.89,5 0.98,9.22 3.57,-0.25 2.52,-0.6 5.5,-0.88l-0.07 17.15c-1.68,7.52 -4.89,4.13 -0.69,5.86 -0.26,2.37 -0.27,1.14 -2.06,3.26 -2.79,3.32 -6.08,14.92 -6.06,15.16 0.14,1.78 4.32,3.65 4.52,9.22 -1.56,0.72 -3.66,1.26 -5.46,1.98 -1.61,0.63 -3.04,1.26 -4.51,1.97l-33.18 8.57c-38.15,7.86 -83.93,12.35 -119.25,-3.76 -5.76,-2.63 -11.76,-7.63 -15.85,-11.49 -0.09,-8.3 3.1,-14.5 5.46,-21.16l1.74 -4.26c-2.01,-1.25 -1.76,-0.41 -3.91,0.16l-0.16 -2.91 -5.46 10.15c-3.37,14.81 -9.26,27.46 0.07,41.86 19.52,30.12 87.01,24.82 120.13,17.74l5.09 -2.1c-6.37,-0.04 -20.32,3.26 -28.43,4.23 -10.84,1.29 -21.07,2.13 -32.13,1.8 -16.05,-0.48 -43.26,-4.21 -52.84,-13.67 -3.18,-1.49 -7.26,-5.63 -9.43,-8.32 -4.83,-5.98 -1.55,0.39 -0.9,-5.72 1.21,4.38 2.03,-0.57 3.5,3 1.52,0.78 1.98,2.6 3.5,3.5l3.95 1.31c-9.68,14.66 73.25,18.81 79.13,12.59 15.77,-1.84 29.24,-4.64 44.52,-8.45 13.86,-3.45 27.1,-8.33 39.61,-13.23 13.72,-5.37 24.44,-11.68 36.24,-17.5l-1.95 10.28c2.22,-1.19 13.25,-6.92 15.5,-8.5l31 -19.5c2.62,-5.56 13.25,-6.33 17.5,-19.5 6.74,-4.31 53.23,16.24 -7.06,-48.2 -9.82,-10.5 -15.67,-10.99 -21.29,-15.86 -16.68,-6.79 -15.57,-7.08 -33.14,-11.27l-11.95 -3.26c-9.67,0 -16.56,-1.91 -26.51,-1.86 -26.39,0.14 -50.29,2.26 -74.43,11.79 -7.53,2.97 -13.4,5.25 -20.12,8.61l-18.24 10.49c-16.65,9.79 -24.53,20.35 -32.73,26.58z"/>
  <path class="fil3" d="M139.23 163.04c-2.36,6.66 -5.55,12.86 -5.46,21.16 4.09,3.86 10.09,8.86 15.85,11.49 35.32,16.11 81.1,11.62 119.25,3.76l33.18 -8.57c1.47,-0.71 2.9,-1.34 4.51,-1.97 1.8,-0.72 3.9,-1.26 5.46,-1.98 -0.2,-5.57 -4.38,-7.44 -4.52,-9.22 -0.02,-0.24 3.27,-11.84 6.06,-15.16 1.79,-2.12 1.8,-0.89 2.06,-3.26 -4.2,-1.73 -0.99,1.66 0.69,-5.86l0.07 -17.15c-2.98,0.28 -1.93,0.63 -5.5,0.88 -0.09,-4.22 -0.97,-4.31 -0.98,-9.22l-4.93 -1.12c-0.08,-0.07 -0.33,-0.26 -0.41,-0.32l-1.13 -7.82 -4.01 -0.06 -37.45 9.25c-11.37,2.99 -23.5,7.03 -34.3,10.87 -5.53,1.97 -11.55,4.32 -16.57,6.5 -9.16,3.99 -34.24,7.18 -49.26,13.9 -1.94,0.87 -0.83,0.32 -1.77,0.97 -6.23,-2.04 2.96,0.03 -2.78,-1.81l-1.2 0.66c-0.21,0.1 -1,0.48 -1.26,0.59 -6.34,2.67 -6.75,1.48 -10.61,2.33 -2.72,0.61 -1.3,0.73 -4.99,1.16z"/>
  <path class="fil1" d="M414.91 233.32c-2.41,0.64 -17.71,12.44 -21.32,14.83 -31.12,20.61 -61.79,37.75 -98.85,47.6 -38.81,10.31 -11.97,-5.06 -33.4,21.28l-8.38 10.15c-3.46,3.6 -5.81,5.79 -9.66,8.89 -3.33,2.68 -6.52,5.84 -9.92,8.61 -18.31,14.95 -52.62,34.71 -74.55,44.09 -29.13,12.45 -37.73,16.79 -72.61,28.42 -9.68,3.23 -18.74,5.86 -28.27,8.8 -4.88,1.51 -9,2.86 -14.34,4.2l-14.28 4.26c15.3,0 110.16,-22.53 120.83,-25.62 37.11,-10.78 73.2,-21.79 107.49,-38.95 29.74,-14.88 63.69,-35.06 88.45,-58 13.67,-12.66 28.58,-27.34 40.73,-41.76 5.62,-6.67 24.9,-30.78 28.08,-36.8z"/>
  <path class="fil1" d="M332.06 67.41l11.95 3.26c17.57,4.19 16.46,4.48 33.14,11.27 53.92,23.61 32.33,65.2 -2.6,91.57 -2.05,1.55 -11.73,8.53 -12.48,9.91l0.01 7.26 4.63 -0.02c5.55,3.14 11.43,6.35 8.76,16.2 -1.07,3.93 -3.26,6.19 -5.53,8.36 -3.28,3.14 -4.84,2.97 -7.87,5.29l0 9.35c0.51,-0.61 31.86,-18.73 35.63,-21.2 11.95,-7.84 22.46,-15.99 32.32,-25.1 14.39,-13.3 29.75,-30.28 35.16,-50.85 2.98,-11.33 1.05,-16.2 -0.75,-26.37 -0.9,-4.71 -4.74,-9.46 -7.66,-13.13 -11.92,-14.91 -41.87,-23.09 -61.59,-25.53 -7.28,-0.91 -13.58,-0.51 -20.92,-1.33 -13.98,-1.57 -27.73,1.06 -42.2,1.06z"/>
  <path class="fil1" d="M58.07 421.47c4.67,-0.39 11.25,-2.88 16.09,-4.3 5.48,-1.61 10.04,-3.33 15.3,-5.08 10.01,-3.34 20.41,-7.05 29.91,-10.87l28.62 -12.17c8.79,-4.33 18.48,-8.76 27.16,-13.62 23.49,-13.14 75.28,-47.37 89.61,-74.45 -5.65,0 -8.81,0.31 -13.11,0.79l-43.43 1.07c-33.06,0.01 -43.15,-6.69 -51.91,-7.42 5.21,7.78 21.01,18.34 6.8,44.8 -16.42,30.58 -67.21,66 -99.49,78.46 -0.39,0.15 -2.27,0.86 -2.67,1.04l-2.88 1.75z"/>
  <path class="fil4" d="M121.09 276.79c1.1,1.03 -0.4,0.17 2.25,1.55 13.3,6.89 45,13.9 60.13,15.88 72.67,9.53 137.22,-7.76 196.52,-42.99 18.69,-11.11 24.06,-18.4 36.77,-28.1 17.69,-13.52 50.46,-58.12 50.98,-78.5 -0.68,0.88 -12.04,25.47 -25,36.83l-15.84 14.7c-5.63,4.58 -11.14,8.58 -17.39,13.21 -57.68,42.75 -158.95,74.85 -233.73,74.34 -22.18,-0.16 -34.86,-3.09 -54.69,-6.92z"/>
  <path class="fil5" d="M160.03 123.02c-2,0 -0.2,-0.31 -0.89,0.93 -1.71,3.49 -1.48,2.28 -4.29,5.05 -1.95,1.93 -2.14,3.47 -4.21,4.24 0.44,0.69 4.02,-1.43 -0.09,4.67 4.83,-1.76 3.72,-0.58 7.22,-4.18 2.66,-2.74 3.94,-2.85 7.46,-4.61l35.67 -9.77c9.79,-2.81 14.22,-2.86 21.05,-4.7 -1.97,-14.21 17.29,-22.28 28.93,-23.12 9.69,-0.7 10.45,1.7 15.09,4.28l34.99 -12.45c0.19,-0.11 0.41,-0.26 0.59,-0.36 0.18,-0.11 0.4,-0.26 0.57,-0.37 2.88,-1.75 3.29,-2.15 7.25,-2.61l16.16 -3.63c0.2,-0.05 0.53,-0.14 0.77,-0.26 0.02,-0.16 -0.01,-0.59 -0.02,-0.48 -0.01,0.11 -0.02,-0.4 -0.03,-0.47l-1.25 -2.63c2.22,-0.89 5.25,-0.95 8.64,-1 -0.8,-0.58 -0.65,-0.57 -2.13,-1.11 -3.71,-1.37 -19.4,-2.61 -23.15,-2.83 -25.31,-1.44 -53.29,2.42 -76.64,11.04 -46.39,17.13 -65.9,42.71 -69.19,44.13l-2.5 0.24z"/>
  <path class="fil6" d="M262.07 109.79c-4.27,5.39 -11.75,8.72 -19.65,10.35 -7.41,1.52 -18.93,1.3 -20.47,-5.49 -6.83,1.84 -11.26,1.89 -21.05,4.7l-35.67 9.77c-3.52,1.76 -4.8,1.87 -7.46,4.61 -3.5,3.6 -2.39,2.42 -7.22,4.18 4.11,-6.1 0.53,-3.98 0.09,-4.67 -1.99,3.6 -7.12,10.76 -9.93,14.23l-3.81 8.56 0.16 2.91c2.15,-0.57 1.9,-1.41 3.91,-0.16l-1.74 4.26c3.69,-0.43 2.27,-0.55 4.99,-1.16 3.86,-0.85 4.27,0.34 10.61,-2.33 0.26,-0.11 1.05,-0.49 1.26,-0.59l1.2 -0.66c5.74,1.84 -3.45,-0.23 2.78,1.81 0.94,-0.65 -0.17,-0.1 1.77,-0.97 15.02,-6.72 40.1,-9.91 49.26,-13.9 5.02,-2.18 11.04,-4.53 16.57,-6.5 10.8,-3.84 22.93,-7.88 34.3,-10.87l37.45 -9.25c-3.49,-1.36 -1.31,0.49 -3.25,-2.88 -5.06,3.5 -5.67,0.18 -9.9,2.5l0.98 -8.34 -6.74 -2.9c-4.59,2.16 -3.14,1.22 -9.12,1.99 -3.03,0.4 -6.05,1.87 -9.32,0.8z"/>
  <path class="fil7" d="M362.07 229.86c-10.41,3.98 -20.76,9.91 -31.78,14.28 -64.03,25.36 -157.25,48.62 -224.01,22.74 -8.91,-3.45 -23.54,-12.77 -25.97,-18.03 2.53,5.95 11.17,13.38 16.53,17.06 4.7,3.23 18.13,9.74 24.25,10.88 19.83,3.83 32.51,6.76 54.69,6.92 74.78,0.51 176.05,-31.59 233.73,-74.34 6.25,-4.63 11.76,-8.63 17.39,-13.21l15.84 -14.7c12.96,-11.36 24.32,-35.95 25,-36.83 3.7,-7 5.12,-31.72 -3.31,-38.29 1.8,10.17 3.73,15.04 0.75,26.37 -5.41,20.57 -20.77,37.55 -35.16,50.85 -9.86,9.11 -20.37,17.26 -32.32,25.1 -3.77,2.47 -35.12,20.59 -35.63,21.2z"/>
  <path class="fil8" d="M126.66 187.85c-2.44,2.57 3.06,20.04 4.84,22.15 11.77,13.97 53.52,24.99 66.36,21.27 11.06,0.35 20.8,0.11 31.64,-1.27 8.11,-1.04 20.78,-1.88 28.5,-4 7.96,-1.47 38.89,-12.36 46.5,-15.5 9.92,-4.09 36.07,-14.31 41.88,-19.58l-0.73 -6.71c-0.05,-2.17 -0.06,-1.72 -1.64,-3.71 -11.8,6.24 -22.52,13.01 -36.24,18.78 -12.51,5.25 -25.75,10.48 -39.61,14.18 -57.8,11.17 -83.12,11.36 -115.6,-2.09 -4.51,-1.87 -12.05,-4.14 -17.56,-9.87 -3.67,-3.82 -7,-10.5 -8.34,-13.65z"/>
  <path class="fil9" d="M221.95 114.65c1.54,6.79 13.06,7.01 20.47,5.49 7.9,-1.63 15.38,-4.96 19.65,-10.35 3.9,-2.1 6.3,-8.31 3.9,-13.98 -4.64,-2.58 -5.4,-4.98 -15.09,-4.28 -11.64,0.84 -30.9,8.91 -28.93,23.12z"/>
  <path class="fil4" d="M377.51 167.99l-3.31 3.26c-6.79,5.42 -23.44,17.37 -30.24,19.68 -5.8,4.92 -30.41,15.29 -40.32,19.11 -7.62,2.92 -39.4,14.2 -46.91,13.64l-5.09 2.1c-33.12,7.08 -100.61,12.38 -120.13,-17.74 -9.33,-14.4 -3.44,-27.05 -0.07,-41.86l-0.5 -0.76c-4.86,8.69 -8.5,25.04 -4.78,36.8 10.86,34.35 72.99,32.81 102.45,29.37 25.23,-2.96 49.89,-9.78 72.1,-17.93 10.87,-3.99 21.93,-8.7 31.83,-13.63 5.04,-2.51 9.7,-4.99 14.43,-7.8 4.99,-2.95 10.32,-6.62 15.1,-8.81 0.75,-1.38 10.43,-8.36 12.48,-9.91 34.93,-26.37 56.52,-67.96 2.6,-91.57 5.62,4.87 11.47,5.36 21.29,15.86 26.18,27.99 -9.52,63.77 -20.93,70.19z"/>
  <path class="fil10" d="M362.07 220.51c3.03,-2.32 4.59,-2.15 7.87,-5.29 2.27,-2.17 4.46,-4.43 5.53,-8.36 2.67,-9.85 -3.21,-13.06 -8.76,-16.2 -12.56,-1.25 -22.3,4.21 -25.23,13.73 -4.51,14.62 8.51,18.13 20.59,16.12z"/>
  <path class="fil10" d="M218.13 237.47c-20.26,5.41 -13.56,30.36 7.42,25.33 19.13,-4.6 13.61,-30.95 -7.42,-25.33z"/>
  <path class="fil10" d="M112.05 217.32c-24.07,6.11 -27.48,28.01 -5.32,23.1 22.34,-4.96 27.37,-28.7 5.32,-23.1z"/>
  <path class="fil10" d="M432.03 113.74c-13.78,5.97 -6.34,23.38 6.25,18.74 12.2,-4.5 6.13,-24.09 -6.25,-18.74z"/>
  <path class="fil11" d="M383.5 152.36l0.85 2.14c-0.01,0.13 -0.12,0.4 -0.16,0.54 -0.02,0.08 -1.35,2.74 -1.71,3.65 -0.89,2.26 -0.38,1.56 -1.55,3.37 -0.38,0.58 -2.03,2.58 -2.17,2.77 17.72,-17.03 21.81,-22.62 21.58,-45.79l-2.58 9.91c-4.26,13.16 -11.64,17.85 -14.26,23.41z"/>
  <path class="fil10" d="M130.94 165.42l0.5 0.76 5.46 -10.15 3.81 -8.56c-3.32,1.4 -9.93,1.07 -15.09,6.04 -5.23,5.04 -3.95,10.04 5.43,9.63l-0.11 2.28z"/>
  <path class="fil10" d="M399.42 88.52c4.72,2.09 10.27,-0.21 9.59,-6 -4.84,-2.37 -10.45,-0.1 -9.59,6z"/>
  <path class="fil1" d="M58.07 421.47l-2.78 0 0 0.93c4.9,0 1.38,-0.01 2.78,-0.93z"/>
  <polygon class="fil1" points="414.91,233.32 415.84,233.32 415.06,232.24 "/>
  <path class="fil1" d="M53.43 423.33c0.1,0.09 0.28,-0.41 0.28,-0.28l0 0c-0.02,0.02 -0.37,0.19 -0.28,0.28z"/>
 </g>
</svg>
