<?xml version="1.0" encoding="UTF-8"?>
<!DOCTYPE svg PUBLIC "-//W3C//DTD SVG 1.1//EN" "http://www.w3.org/Graphics/SVG/1.1/DTD/svg11.dtd">
<!-- Creator: CorelDRAW 2017 -->
<svg xmlns="http://www.w3.org/2000/svg" xml:space="preserve" width="500px" height="500px" version="1.1" style="shape-rendering:geometricPrecision; text-rendering:geometricPrecision; image-rendering:optimizeQuality; fill-rule:evenodd; clip-rule:evenodd"
viewBox="0 0 500 500"
 xmlns:xlink="http://www.w3.org/1999/xlink">
 <defs>
  <style type="text/css">
   <![CDATA[
    .str0 {stroke:#575757;stroke-width:16;stroke-miterlimit:22.9256}
    .fil0 {fill:#FEFEFE}
    .fil4 {fill:#0054A4}
    .fil1 {fill:#0054A7}
    .fil3 {fill:#0153A5}
    .fil2 {fill:#EB1C30}
    .fil6 {fill:#F9F9F9}
    .fil5 {fill:#FAFEFA}
   ]]>
  </style>
 </defs>
 <g id="Слой_x0020_1">
  <metadata id="CorelCorpID_0Corel-Layer"/>
  <circle class="fil0 str0" cx="250" cy="250" r="239.39"/>
  <g id="_2001537864400">
   <path class="fil1" d="M211.88 315.4c5.38,-5.26 9.55,-9.78 15.71,-15.76 5.57,-5.39 10.57,-10.94 15.73,-15.74 2.6,-2.42 5.45,-5.32 7.86,-7.87l85.59 -85.61c0.74,-0.73 0.55,-0.42 0.99,-1.31 -5.29,-0.37 -23.5,-0.03 -30.25,-0.04 -10.08,0 -20.16,0 -30.23,0 -4.23,0 -10.5,-0.9 -13.43,1.84 -2.96,2.78 -1.96,8.7 -2,13.12l-0.06 45.35c0,4.54 0.71,10 -3.79,11.23 -2.05,0.56 -12.11,0.21 -14.96,0.21 -4.62,0 -9.41,-0.5 -13.63,-1.57 -32.51,-8.27 -51.17,-43.08 -40.65,-74.63 1.92,-5.73 4.4,-10.31 7.67,-14.86 0.96,-1.35 2.38,-3.24 3.39,-4.31 10.15,-10.8 24.32,-19.29 40.75,-19.82 9.88,-0.32 20.29,-0.02 30.23,-0.02 10.08,0.01 20.15,0 30.23,0 9.82,0 20.71,0.45 30.4,-0.02l0.12 -47.89c-10.26,-0.45 -21.47,-0.02 -31.75,-0.02l-64.17 0c-41.86,0.02 -82.66,22.11 -100.75,59.29 -16.01,32.9 -12.25,72.99 3.9,103.5 1.89,3.56 3.85,6.91 5.87,9.88l6.8 9.23c1.26,1.6 2.49,2.79 3.74,4.28 10.16,12.16 28.19,23.25 43.75,28.41 2.82,0.93 10.01,3.12 12.94,3.13z"/>
   <path class="fil2" d="M300.85 324.57c1.91,-1.07 77.76,-78.04 86.87,-86.91l8.9 -9.18c-7.64,-0.35 -15.99,-0.05 -23.71,-0.05l-60.16 0c-3.99,0 -7.53,-0.56 -10.01,1.98 -2.46,2.53 -1.9,5.72 -1.9,10.02l0 60.16c0,7.43 -0.54,16.8 0.01,23.98z"/>
   <path class="fil3" d="M267.28 383.76c4.68,-0.34 11.83,-0.55 11.89,5.06 0.06,5.51 -7.11,5.29 -12,5.06l0.11 -10.12zm-0.11 -16.74c4.35,-0.48 11.18,-0.67 10.86,4.53 -0.28,4.3 -6.39,4.74 -10.87,4.22l0.01 -8.75zm-11.7 35.14c5.19,0.31 11.12,0.03 16.26,0.03 8.98,0 19.94,-1.41 19.05,-13.69 -0.3,-4.21 -2.88,-6.79 -6.47,-7.94l-1.4 -0.55c-0.05,-0.03 -0.13,-0.1 -0.2,-0.14 1.37,-1.19 2.29,-0.72 4.62,-3.22 3.58,-3.85 3.64,-12.56 -2.82,-16.02 -4.29,-2.3 -8.07,-1.99 -13.4,-1.99 -4.34,0 -11.62,-0.43 -15.6,0.09l-0.04 43.43z"/>
   <path class="fil3" d="M132.81 401.97l0.06 -25.01 -11.51 -0.01c-0.3,2.51 0.1,13.94 -0.09,14.96 -0.25,1.4 -0.13,0.52 -0.43,0.9 -1.42,1.36 -9.42,0.65 -13.23,-3.69 -2.74,-3.12 -4.73,-8.15 -2.58,-13.38 4.29,-10.45 14.84,-7.91 27.31,-8.09l0.04 -8.88c-5.13,-0.12 -10.37,-0.02 -15.51,-0.02 -5.54,0 -9.24,0.26 -13.34,2.53 -16.5,9.13 -14.25,31.52 0.82,38.83 7.19,3.49 19.43,2.25 28.46,1.86z"/>
   <path class="fil3" d="M185.04 402.31l14.64 -0.31 0.07 -24.29c-0.18,-1.24 -1.51,-0.76 -4.53,-0.76l-6.93 0c-0.15,3.62 0.08,14.79 -0.59,16.07 -10.53,2.32 -19.94,-7.52 -15.82,-17.37 1.59,-3.79 5.02,-7.04 9.71,-7.84 4.1,-0.71 12.8,-0.04 17.51,-0.18l0.03 -8.87c-7.3,-0.09 -20.5,-0.86 -26.37,1.41 -18.61,7.2 -18.2,33.5 -0.03,40.64 4.03,1.58 7.52,1.61 12.31,1.5z"/>
   <path class="fil3" d="M227.3 368.33c0.71,0.98 0.96,2.55 1.39,3.95 0.81,2.6 3.56,10.98 3.56,12.46l-10.45 0c0.19,-1.63 1.93,-6.11 2.57,-8.1 0.42,-1.29 2.15,-7.24 2.93,-8.31zm-23.4 33.97l11.64 0.01 3.44 -9.19 16.34 0.34c0.02,0.04 0.28,0.57 0.3,0.63l2.87 8.2 12.58 0.03c-0.1,-0.95 -15.7,-41.96 -16.67,-43.45l-14.24 -0.08c-0.76,3.08 -2.84,7.71 -4.02,10.83 -1.42,3.77 -12.11,31.33 -12.24,32.68z"/>
   <polygon class="fil3" points="376.5,402.25 407.93,402.28 407.9,394.06 388.2,394.02 388.18,384.39 406.09,384.26 406.11,376.01 388.23,376.01 388.17,367.13 407.23,367.05 407.23,358.83 376.52,358.79 "/>
   <path class="fil3" d="M312.75 375.81c-1.33,-1.82 -3.15,-6.22 -4.2,-8.37l-4.43 -8.66 -13.07 -0.03c1.57,4.93 15.91,24.65 15.94,28.83 0.03,4.59 -0.33,10.24 0.03,14.69l11.48 0.04c0.5,-3.72 0.11,-10.71 0.09,-14.74 -0.01,-2.67 3.49,-7.59 4.89,-9.92 1.51,-2.5 10.74,-17.79 10.8,-18.94l-13.03 0.02c-2.38,3.65 -6.64,15 -8.5,17.08z"/>
   <path class="fil3" d="M338.27 367.48l10.63 -0.02 0.05 34.81 11.54 0.05c0.64,-6.3 -0.59,-32.16 0.29,-34.92l10.47 0.03 0 -8.63 -32.98 -0.01 0 8.69z"/>
   <polygon class="fil4" points="141.18,401.88 152.78,401.95 152.8,358.81 141.18,358.8 "/>
   <path class="fil5" d="M267.17 393.88c4.89,0.23 12.06,0.45 12,-5.06 -0.06,-5.61 -7.21,-5.4 -11.89,-5.06l-0.11 10.12z"/>
   <path class="fil6" d="M227.3 368.33c-0.78,1.07 -2.51,7.02 -2.93,8.31 -0.64,1.99 -2.38,6.47 -2.57,8.1l10.45 0c0,-1.48 -2.75,-9.86 -3.56,-12.46 -0.43,-1.4 -0.68,-2.97 -1.39,-3.95z"/>
   <path class="fil6" d="M267.16 375.77c4.48,0.52 10.59,0.08 10.87,-4.22 0.32,-5.2 -6.51,-5.01 -10.86,-4.53l-0.01 8.75z"/>
  </g>
 </g>
</svg>
