<?xml version="1.0" encoding="UTF-8"?>
<!DOCTYPE svg PUBLIC "-//W3C//DTD SVG 1.1//EN" "http://www.w3.org/Graphics/SVG/1.1/DTD/svg11.dtd">
<!-- Creator: CorelDRAW 2017 -->
<svg xmlns="http://www.w3.org/2000/svg" xml:space="preserve" width="500px" height="500px" version="1.1" style="shape-rendering:geometricPrecision; text-rendering:geometricPrecision; image-rendering:optimizeQuality; fill-rule:evenodd; clip-rule:evenodd"
viewBox="0 0 500 500"
 xmlns:xlink="http://www.w3.org/1999/xlink">
 <defs>
  <style type="text/css">
   <![CDATA[
    .fil4 {fill:#25ABD9}
    .fil1 {fill:#71D375}
    .fil2 {fill:#E04D2B}
    .fil0 {fill:#F8DB46}
    .fil3 {fill:white}
   ]]>
  </style>
 </defs>
 <g id="Слой_x0020_1">
  <metadata id="CorelCorpID_0Corel-Layer"/>
  <g id="_1918170897744">
   <path class="fil0" d="M336.29 330.08l-89.32 155.58c58.68,0 102.75,-15.48 147.26,-48.58 12,-8.93 30.27,-26.82 39.7,-38.35 30.57,-37.35 44.98,-75.96 51.63,-123.79 0.69,-4.95 0.43,-12.37 1.31,-18.16 1.21,-7.93 -0.27,-11.68 -0.6,-18 -1.58,-30.5 -5.94,-51.35 -17.62,-79.78 -2.8,-6.8 -8.81,-20.24 -13.25,-25.9l-191.69 0.25c4.73,2.08 12.32,2.47 17.7,4 60.12,17.12 97.21,77.91 82.87,138.82 -2.73,11.58 -6.36,20.16 -11.29,29.69 -6.51,12.56 -14.01,19.04 -16.7,24.22z"/>
   <path class="fil1" d="M246.97 485.66l89.32 -155.58c-2.68,1.64 -7.64,6.5 -10.58,9.1 -42.29,37.34 -110.61,37.44 -154.33,-2.08 -18.66,-16.87 -20.69,-24.37 -31.67,-44.9l-1.13 -1.19c-0.14,-0.17 -0.37,-0.42 -0.52,-0.61l-45.33 -79.94c-8.01,-13.85 -15.28,-27.81 -23.3,-41.34l-22.76 -40.98c-7.82,9.88 -20.68,41.61 -24.15,53.7 -13.15,45.84 -13.15,90.57 0,136.41 2.91,10.12 6.65,19.23 10.59,28.39 1.99,4.63 4.34,8.76 6.47,13.02 2.03,4.08 4.87,9.21 7.4,13.12 44.46,68.74 114.71,112.88 199.99,112.88z"/>
   <path class="fil2" d="M46.67 128.14l22.76 40.98c8.02,13.53 15.29,27.49 23.3,41.34l45.33 79.94c0.15,0.19 0.38,0.44 0.52,0.61l1.13 1.19c-6.49,-23.58 -10.43,-38.11 -5.41,-64.68 8.73,-46.17 46.2,-83.56 93.44,-92.45 13.58,-2.55 22.75,-0.99 35.97,-1.72l191.69 -0.25c-3.26,-12.9 -34.7,-46.14 -44,-55.41 -70.96,-70.74 -197.13,-84.57 -284.53,-29.65 -15.9,9.99 -43.11,30.9 -54.5,45.12 -13.15,16.4 -13.85,15.2 -25.7,34.98z"/>
   <path class="fil3" d="M139.71 292.2c10.98,20.53 13.01,28.03 31.67,44.9 43.72,39.52 112.04,39.42 154.33,2.08 2.94,-2.6 7.9,-7.46 10.58,-9.1 2.69,-5.18 10.19,-11.66 16.7,-24.22 4.93,-9.53 8.56,-18.11 11.29,-29.69 14.34,-60.91 -22.75,-121.7 -82.87,-138.82 -5.38,-1.53 -12.97,-1.92 -17.7,-4 -13.22,0.73 -22.39,-0.83 -35.97,1.72 -47.24,8.89 -84.71,46.28 -93.44,92.45 -5.02,26.57 -1.08,41.1 5.41,64.68z"/>
   <path class="fil4" d="M239.58 159.64c-46.86,5.72 -87.17,46.77 -80.84,100.7 5.48,46.61 47.97,86.54 101.5,80.18 46.86,-5.56 86.66,-47.55 80.32,-101.29 -5.44,-46.11 -47.84,-86.07 -100.98,-79.59z"/>
  </g>
 </g>
</svg>
