<?xml version="1.0" encoding="UTF-8"?>
<!DOCTYPE svg PUBLIC "-//W3C//DTD SVG 1.1//EN" "http://www.w3.org/Graphics/SVG/1.1/DTD/svg11.dtd">
<!-- Creator: CorelDRAW 2017 -->
<svg xmlns="http://www.w3.org/2000/svg" xml:space="preserve" width="500px" height="500px" version="1.1" style="shape-rendering:geometricPrecision; text-rendering:geometricPrecision; image-rendering:optimizeQuality; fill-rule:evenodd; clip-rule:evenodd"
viewBox="0 0 500 500"
 xmlns:xlink="http://www.w3.org/1999/xlink">
 <defs>
  <style type="text/css">
   <![CDATA[
    .str3 {stroke:#170CAD;stroke-width:8;stroke-miterlimit:22.9256}
    .str1 {stroke:#E3E3E3;stroke-width:8;stroke-miterlimit:22.9256}
    .str4 {stroke:#0F0F0F;stroke-width:2;stroke-miterlimit:22.9256}
    .str0 {stroke:#0EB6FD;stroke-width:25;stroke-miterlimit:22.9256}
    .str6 {stroke:#2B2A29;stroke-width:2.36;stroke-miterlimit:22.9256}
    .str2 {stroke:#0F0F0F;stroke-width:3;stroke-miterlimit:22.9256}
    .str5 {stroke:#0F0F0F;stroke-width:0.9;stroke-miterlimit:22.9256}
    .fil90 {fill:none}
    .fil0 {fill:#2B2A29}
    .fil92 {fill:#0EB6FD}
    .fil60 {fill:#1B7AF6}
    .fil59 {fill:#1D78F5}
    .fil58 {fill:#1F75F5}
    .fil57 {fill:#2173F4}
    .fil56 {fill:#2271F4}
    .fil55 {fill:#246EF3}
    .fil54 {fill:#266CF2}
    .fil53 {fill:#2769F2}
    .fil52 {fill:#2967F1}
    .fil61 {fill:#2976F5}
    .fil51 {fill:#2B64F1}
    .fil50 {fill:#2D62F0}
    .fil49 {fill:#2E5FEF}
    .fil48 {fill:#305DEF}
    .fil47 {fill:#325AEE}
    .fil46 {fill:#3358EE}
    .fil45 {fill:#3556ED}
    .fil44 {fill:#3753ED}
    .fil43 {fill:#3951EC}
    .fil42 {fill:#3A4EEB}
    .fil41 {fill:#3C4CEB}
    .fil62 {fill:#3C70F4}
    .fil40 {fill:#3E49EA}
    .fil39 {fill:#3F47EA}
    .fil38 {fill:#4144E9}
    .fil37 {fill:#4342E8}
    .fil36 {fill:#4540E8}
    .fil35 {fill:#463DE7}
    .fil34 {fill:#483BE7}
    .fil33 {fill:#4A38E6}
    .fil32 {fill:#4B36E6}
    .fil31 {fill:#4D33E5}
    .fil30 {fill:#4F31E4}
    .fil63 {fill:#4F6AF3}
    .fil29 {fill:#512EE4}
    .fil28 {fill:#522CE3}
    .fil27 {fill:#5932E4}
    .fil64 {fill:#6263F1}
    .fil26 {fill:#633EE6}
    .fil25 {fill:#6C4AE7}
    .fil65 {fill:#755DF0}
    .fil24 {fill:#7656E9}
    .fil23 {fill:#7F62EA}
    .fil66 {fill:#8557EF}
    .fil22 {fill:#896EEC}
    .fil67 {fill:#8A56EF}
    .fil68 {fill:#8F54EE}
    .fil21 {fill:#937AED}
    .fil69 {fill:#9452EE}
    .fil70 {fill:#9851EE}
    .fil20 {fill:#9C86EF}
    .fil71 {fill:#9D4FED}
    .fil72 {fill:#A24EED}
    .fil19 {fill:#A691F1}
    .fil73 {fill:#A74CED}
    .fil74 {fill:#AB4AEC}
    .fil75 {fill:#B049EC}
    .fil18 {fill:#B09DF2}
    .fil76 {fill:#B547EC}
    .fil17 {fill:#B9A9F4}
    .fil77 {fill:#BA46EB}
    .fil78 {fill:#BE44EB}
    .fil79 {fill:#C342EB}
    .fil16 {fill:#C3B5F5}
    .fil80 {fill:#C841EB}
    .fil81 {fill:#CD3FEA}
    .fil15 {fill:#CDC1F7}
    .fil82 {fill:#D13EEA}
    .fil83 {fill:#D63CEA}
    .fil14 {fill:#D6CDF8}
    .fil84 {fill:#DB3AE9}
    .fil85 {fill:#E039E9}
    .fil13 {fill:#E0D9FA}
    .fil86 {fill:#E437E9}
    .fil87 {fill:#E936E8}
    .fil12 {fill:#EAE5FC}
    .fil89 {fill:#EB0CE4}
    .fil1 {fill:#EE2EE8}
    .fil88 {fill:#EE34E8}
    .fil2 {fill:#F150EC}
    .fil3 {fill:#F372EF}
    .fil11 {fill:#F3F1FD}
    .fil4 {fill:#F68FF3}
    .fil5 {fill:#F8A6F5}
    .fil6 {fill:#FABDF8}
    .fil7 {fill:#FBD4FA}
    .fil8 {fill:#FDEAFD}
    .fil10 {fill:#FDFDFF}
    .fil9 {fill:white}
    .fil91 {fill:white}
    .fil93 {fill:black;fill-rule:nonzero}
   ]]>
  </style>
    <clipPath id="id0">
     <path d="M426 250c0,-97.2 -78.8,-176 -176,-176 -97.2,0 -176,78.8 -176,176 0,97.2 78.8,176 176,176 97.2,0 176,-78.8 176,-176z"/>
    </clipPath>
 </defs>
 <g id="Слой_x0020_1">
  <metadata id="CorelCorpID_0Corel-Layer"/>
  <circle class="fil0 str0" cx="250" cy="250" r="232.45"/>
 </g>
 <g id="Слой_x0020_1_0">
  <metadata id="CorelCorpID_1Corel-Layer"/>
  <g>
   <g style="clip-path:url(#id0)">
    <polygon class="fil1" points="253.52,250 504.99,251.98 504.61,263.82 "/>
    <polygon id="1" class="fil2" points="253.52,250 504.68,261.84 504.06,271.7 "/>
    <polygon id="2" class="fil3" points="253.52,250 504.18,269.73 503.25,279.56 "/>
    <polygon id="3" class="fil4" points="253.52,250 503.44,277.59 502.2,287.39 "/>
    <polygon id="4" class="fil5" points="253.52,250 502.45,285.43 500.9,295.18 "/>
    <polygon id="5" class="fil6" points="253.52,250 501.21,293.23 499.36,302.93 "/>
    <polygon id="6" class="fil7" points="253.52,250 499.73,300.99 497.58,310.62 "/>
    <polygon id="7" class="fil8" points="253.52,250 498.01,308.7 495.55,318.26 "/>
    <polygon id="8" class="fil9" points="253.52,250 496.04,316.35 493.29,325.83 "/>
    <polygon id="9" class="fil9" points="253.52,250 493.84,323.93 490.79,333.32 "/>
    <polygon id="10" class="fil9" points="253.52,250 491.4,331.44 488.05,340.73 "/>
    <polygon id="11" class="fil9" points="253.52,250 488.72,338.88 485.09,348.06 "/>
    <polygon id="12" class="fil9" points="253.52,250 485.82,346.22 481.89,355.28 "/>
    <polygon id="13" class="fil9" points="253.52,250 482.68,353.47 478.48,362.4 "/>
    <polygon id="14" class="fil9" points="253.52,250 479.32,360.62 474.83,369.41 "/>
    <polygon id="15" class="fil9" points="253.52,250 475.73,367.65 470.97,376.31 "/>
    <polygon id="16" class="fil9" points="253.52,250 471.93,374.58 466.9,383.08 "/>
    <polygon id="17" class="fil9" points="253.52,250 467.9,381.37 462.61,389.71 "/>
    <polygon id="18" class="fil9" points="253.52,250 463.67,388.04 458.12,396.21 "/>
    <polygon id="19" class="fil9" points="253.52,250 459.23,394.58 453.43,402.56 "/>
    <polygon id="20" class="fil10" points="253.52,250 454.59,400.97 448.54,408.77 "/>
    <polygon id="21" class="fil11" points="253.52,250 449.75,407.21 443.45,414.82 "/>
    <polygon id="22" class="fil12" points="253.52,250 444.71,413.3 438.18,420.7 "/>
    <polygon id="23" class="fil13" points="253.52,250 439.49,419.22 432.73,426.42 "/>
    <polygon id="24" class="fil14" points="253.52,250 434.08,424.98 427.1,431.96 "/>
    <polygon id="25" class="fil15" points="253.52,250 428.5,430.56 421.3,437.32 "/>
    <polygon id="26" class="fil16" points="253.52,250 422.74,435.97 415.33,442.5 "/>
    <polygon id="27" class="fil17" points="253.52,250 416.81,441.19 409.21,447.49 "/>
    <polygon id="28" class="fil18" points="253.52,250 410.73,446.23 402.93,452.28 "/>
    <polygon id="29" class="fil19" points="253.52,250 404.49,451.07 396.5,456.87 "/>
    <polygon id="30" class="fil20" points="253.52,250 398.1,455.71 389.93,461.26 "/>
    <polygon id="31" class="fil21" points="253.52,250 391.56,460.15 383.23,465.44 "/>
    <polygon id="32" class="fil22" points="253.52,250 384.9,464.38 376.4,469.41 "/>
    <polygon id="33" class="fil23" points="253.52,250 378.1,468.41 369.44,473.16 "/>
    <polygon id="34" class="fil24" points="253.52,250 371.17,472.21 362.38,476.69 "/>
    <polygon id="35" class="fil25" points="253.52,250 364.14,475.8 355.2,480 "/>
    <polygon id="36" class="fil26" points="253.52,250 356.99,479.16 347.93,483.08 "/>
    <polygon id="37" class="fil27" points="253.52,250 349.74,482.3 340.56,485.93 "/>
    <polygon id="38" class="fil28" points="253.52,250 342.4,485.2 333.11,488.55 "/>
    <polygon id="39" class="fil29" points="253.52,250 334.97,487.88 325.57,490.93 "/>
    <polygon id="40" class="fil30" points="253.52,250 327.45,490.32 317.97,493.08 "/>
    <polygon id="41" class="fil31" points="253.52,250 319.87,492.52 310.3,494.98 "/>
    <polygon id="42" class="fil32" points="253.52,250 312.22,494.49 302.58,496.64 "/>
    <polygon id="43" class="fil33" points="253.52,250 304.51,496.21 294.81,498.06 "/>
    <polygon id="44" class="fil34" points="253.52,250 296.75,497.69 287,499.24 "/>
    <polygon id="45" class="fil35" points="253.52,250 288.95,498.93 279.15,500.16 "/>
    <polygon id="46" class="fil36" points="253.52,250 281.11,499.92 271.28,500.85 "/>
    <polygon id="47" class="fil37" points="253.52,250 273.25,500.66 263.39,501.28 "/>
    <polygon id="48" class="fil38" points="253.52,250 265.37,501.16 255.5,501.47 "/>
    <polygon id="49" class="fil39" points="253.52,250 257.47,501.4 247.6,501.4 "/>
    <polygon id="50" class="fil40" points="253.52,250 249.57,501.4 239.7,501.09 "/>
    <polygon id="51" class="fil41" points="253.52,250 241.68,501.16 231.82,500.54 "/>
    <polygon id="52" class="fil42" points="253.52,250 233.79,500.66 223.96,499.73 "/>
    <polygon id="53" class="fil43" points="253.52,250 225.93,499.92 216.13,498.68 "/>
    <polygon id="54" class="fil44" points="253.52,250 218.09,498.93 208.34,497.38 "/>
    <polygon id="55" class="fil45" points="253.52,250 210.29,497.69 200.59,495.84 "/>
    <polygon id="56" class="fil46" points="253.52,250 202.53,496.21 192.9,494.06 "/>
    <polygon id="57" class="fil47" points="253.52,250 194.82,494.49 185.26,492.03 "/>
    <polygon id="58" class="fil48" points="253.52,250 187.17,492.52 177.69,489.77 "/>
    <polygon id="59" class="fil49" points="253.52,250 179.59,490.32 170.2,487.27 "/>
    <polygon id="60" class="fil50" points="253.52,250 172.08,487.88 162.79,484.53 "/>
    <polygon id="61" class="fil51" points="253.52,250 164.65,485.2 155.46,481.57 "/>
    <polygon id="62" class="fil52" points="253.52,250 157.3,482.3 148.24,478.38 "/>
    <polygon id="63" class="fil53" points="253.52,250 150.05,479.16 141.12,474.95 "/>
    <polygon id="64" class="fil54" points="253.52,250 142.9,475.8 134.11,471.31 "/>
    <polygon id="65" class="fil55" points="253.52,250 135.87,472.21 127.21,467.45 "/>
    <polygon id="66" class="fil56" points="253.52,250 128.94,468.41 120.45,463.38 "/>
    <polygon id="67" class="fil57" points="253.52,250 122.15,464.38 113.81,459.09 "/>
    <polygon id="68" class="fil58" points="253.52,250 115.48,460.15 107.31,454.6 "/>
    <polygon id="69" class="fil59" points="253.52,250 108.94,455.71 100.96,449.91 "/>
    <polygon id="70" class="fil60" points="253.52,250 102.55,451.07 94.75,445.02 "/>
    <polygon id="71" class="fil61" points="253.52,250 96.31,446.23 88.7,439.93 "/>
    <polygon id="72" class="fil62" points="253.52,250 90.23,441.19 82.82,434.66 "/>
    <polygon id="73" class="fil63" points="253.52,250 84.3,435.97 77.1,429.21 "/>
    <polygon id="74" class="fil64" points="253.52,250 78.54,430.56 71.56,423.58 "/>
    <polygon id="75" class="fil65" points="253.52,250 72.96,424.98 66.2,417.78 "/>
    <polygon id="76" class="fil66" points="253.52,250 67.55,419.22 61.02,411.81 "/>
    <polygon id="77" class="fil67" points="253.52,250 62.33,413.3 56.03,405.69 "/>
    <polygon id="78" class="fil68" points="253.52,250 57.29,407.21 51.24,399.41 "/>
    <polygon id="79" class="fil69" points="253.52,250 52.45,400.97 46.65,392.98 "/>
    <polygon id="80" class="fil70" points="253.52,250 47.81,394.58 42.26,386.41 "/>
    <polygon id="81" class="fil71" points="253.52,250 43.37,388.04 38.08,379.71 "/>
    <polygon id="82" class="fil72" points="253.52,250 39.14,381.37 34.11,372.88 "/>
    <polygon id="83" class="fil73" points="253.52,250 35.12,374.58 30.36,365.92 "/>
    <polygon id="84" class="fil74" points="253.52,250 31.31,367.65 26.83,358.86 "/>
    <polygon id="85" class="fil75" points="253.52,250 27.73,360.62 23.52,351.68 "/>
    <polygon id="86" class="fil76" points="253.52,250 24.36,353.47 20.44,344.41 "/>
    <polygon id="87" class="fil77" points="253.52,250 21.22,346.22 17.59,337.04 "/>
    <polygon id="88" class="fil78" points="253.52,250 18.32,338.88 14.97,329.59 "/>
    <polygon id="89" class="fil79" points="253.52,250 15.64,331.44 12.59,322.05 "/>
    <polygon id="90" class="fil80" points="253.52,250 13.2,323.93 10.45,314.45 "/>
    <polygon id="91" class="fil81" points="253.52,250 11,316.35 8.54,306.78 "/>
    <polygon id="92" class="fil82" points="253.52,250 9.03,308.7 6.88,299.06 "/>
    <polygon id="93" class="fil83" points="253.52,250 7.31,300.99 5.46,291.29 "/>
    <polygon id="94" class="fil84" points="253.52,250 5.83,293.23 4.29,283.48 "/>
    <polygon id="95" class="fil85" points="253.52,250 4.59,285.43 3.36,275.63 "/>
    <polygon id="96" class="fil86" points="253.52,250 3.6,277.59 2.68,267.76 "/>
    <polygon id="97" class="fil87" points="253.52,250 2.86,269.73 2.24,259.87 "/>
    <polygon id="98" class="fil88" points="253.52,250 2.36,261.84 2.05,251.98 "/>
    <polygon id="99" class="fil89" points="253.52,250 2.12,253.95 2.12,244.08 "/>
    <polygon id="100" class="fil1" points="253.52,250 2.12,246.05 2.43,236.18 "/>
    <polygon id="101" class="fil2" points="253.52,250 2.36,238.16 2.98,228.3 "/>
    <polygon id="102" class="fil3" points="253.52,250 2.86,230.27 3.79,220.44 "/>
    <polygon id="103" class="fil4" points="253.52,250 3.6,222.41 4.84,212.61 "/>
    <polygon id="104" class="fil5" points="253.52,250 4.59,214.57 6.14,204.82 "/>
    <polygon id="105" class="fil6" points="253.52,250 5.83,206.77 7.68,197.07 "/>
    <polygon id="106" class="fil7" points="253.52,250 7.31,199.01 9.46,189.38 "/>
    <polygon id="107" class="fil8" points="253.52,250 9.03,191.3 11.49,181.74 "/>
    <polygon id="108" class="fil9" points="253.52,250 11,183.65 13.75,174.17 "/>
    <polygon id="109" class="fil9" points="253.52,250 13.2,176.07 16.25,166.68 "/>
    <polygon id="110" class="fil9" points="253.52,250 15.64,168.56 18.99,159.27 "/>
    <polygon id="111" class="fil9" points="253.52,250 18.32,161.12 21.95,151.94 "/>
    <polygon id="112" class="fil9" points="253.52,250 21.22,153.78 25.15,144.72 "/>
    <polygon id="113" class="fil9" points="253.52,250 24.36,146.53 28.57,137.6 "/>
    <polygon id="114" class="fil9" points="253.52,250 27.73,139.38 32.21,130.59 "/>
    <polygon id="115" class="fil9" points="253.52,250 31.31,132.35 36.07,123.69 "/>
    <polygon id="116" class="fil9" points="253.52,250 35.12,125.43 40.14,116.93 "/>
    <polygon id="117" class="fil9" points="253.52,250 39.14,118.63 44.43,110.29 "/>
    <polygon id="118" class="fil9" points="253.52,250 43.37,111.96 48.92,103.79 "/>
    <polygon id="119" class="fil9" points="253.52,250 47.81,105.42 53.61,97.44 "/>
    <polygon id="120" class="fil10" points="253.52,250 52.45,99.03 58.5,91.23 "/>
    <polygon id="121" class="fil11" points="253.52,250 57.29,92.79 63.59,85.18 "/>
    <polygon id="122" class="fil12" points="253.52,250 62.33,86.71 68.86,79.3 "/>
    <polygon id="123" class="fil13" points="253.52,250 67.55,80.78 74.31,73.58 "/>
    <polygon id="124" class="fil14" points="253.52,250 72.96,75.02 79.94,68.04 "/>
    <polygon id="125" class="fil15" points="253.52,250 78.54,69.44 85.74,62.68 "/>
    <polygon id="126" class="fil16" points="253.52,250 84.3,64.03 91.71,57.5 "/>
    <polygon id="127" class="fil17" points="253.52,250 90.23,58.81 97.83,52.51 "/>
    <polygon id="128" class="fil18" points="253.52,250 96.31,53.77 104.11,47.72 "/>
    <polygon id="129" class="fil19" points="253.52,250 102.55,48.93 110.54,43.13 "/>
    <polygon id="130" class="fil20" points="253.52,250 108.94,44.29 117.11,38.74 "/>
    <polygon id="131" class="fil21" points="253.52,250 115.48,39.85 123.81,34.56 "/>
    <polygon id="132" class="fil22" points="253.52,250 122.15,35.62 130.64,30.59 "/>
    <polygon id="133" class="fil23" points="253.52,250 128.94,31.6 137.6,26.84 "/>
    <polygon id="134" class="fil24" points="253.52,250 135.87,27.79 144.66,23.31 "/>
    <polygon id="135" class="fil25" points="253.52,250 142.9,24.2 151.84,20 "/>
    <polygon id="136" class="fil26" points="253.52,250 150.05,20.84 159.11,16.92 "/>
    <polygon id="137" class="fil27" points="253.52,250 157.3,17.7 166.48,14.07 "/>
    <polygon id="138" class="fil28" points="253.52,250 164.65,14.8 173.93,11.45 "/>
    <polygon id="139" class="fil29" points="253.52,250 172.08,12.12 181.47,9.07 "/>
    <polygon id="140" class="fil30" points="253.52,250 179.59,9.68 189.07,6.93 "/>
    <polygon id="141" class="fil31" points="253.52,250 187.17,7.48 196.74,5.02 "/>
    <polygon id="142" class="fil32" points="253.52,250 194.82,5.51 204.46,3.36 "/>
    <polygon id="143" class="fil33" points="253.52,250 202.53,3.79 212.23,1.94 "/>
    <polygon id="144" class="fil34" points="253.52,250 210.29,2.31 220.04,0.77 "/>
    <polygon id="145" class="fil35" points="253.52,250 218.09,1.07 227.89,-0.16 "/>
    <polygon id="146" class="fil36" points="253.52,250 225.93,0.08 235.76,-0.85 "/>
    <polygon id="147" class="fil37" points="253.52,250 233.79,-0.66 243.65,-1.28 "/>
    <polygon id="148" class="fil38" points="253.52,250 241.68,-1.16 251.54,-1.47 "/>
    <polygon id="149" class="fil39" points="253.52,250 249.57,-1.4 259.45,-1.4 "/>
    <polygon id="150" class="fil40" points="253.52,250 257.47,-1.4 267.34,-1.09 "/>
    <polygon id="151" class="fil41" points="253.52,250 265.37,-1.16 275.22,-0.54 "/>
    <polygon id="152" class="fil42" points="253.52,250 273.25,-0.66 283.08,0.27 "/>
    <polygon id="153" class="fil43" points="253.52,250 281.11,0.08 290.91,1.32 "/>
    <polygon id="154" class="fil44" points="253.52,250 288.95,1.07 298.7,2.62 "/>
    <polygon id="155" class="fil45" points="253.52,250 296.75,2.31 306.45,4.16 "/>
    <polygon id="156" class="fil46" points="253.52,250 304.51,3.79 314.14,5.94 "/>
    <polygon id="157" class="fil47" points="253.52,250 312.22,5.51 321.78,7.97 "/>
    <polygon id="158" class="fil48" points="253.52,250 319.87,7.48 329.35,10.23 "/>
    <polygon id="159" class="fil49" points="253.52,250 327.45,9.68 336.84,12.73 "/>
    <polygon id="160" class="fil50" points="253.52,250 334.97,12.12 344.25,15.47 "/>
    <polygon id="161" class="fil51" points="253.52,250 342.4,14.8 351.58,18.43 "/>
    <polygon id="162" class="fil52" points="253.52,250 349.74,17.7 358.8,21.63 "/>
    <polygon id="163" class="fil53" points="253.52,250 356.99,20.84 365.92,25.05 "/>
    <polygon id="164" class="fil54" points="253.52,250 364.14,24.2 372.93,28.69 "/>
    <polygon id="165" class="fil55" points="253.52,250 371.17,27.79 379.83,32.55 "/>
    <polygon id="166" class="fil56" points="253.52,250 378.1,31.6 386.59,36.62 "/>
    <polygon id="167" class="fil57" points="253.52,250 384.9,35.62 393.23,40.91 "/>
    <polygon id="168" class="fil58" points="253.52,250 391.56,39.85 399.73,45.4 "/>
    <polygon id="169" class="fil59" points="253.52,250 398.1,44.29 406.09,50.09 "/>
    <polygon id="170" class="fil60" points="253.52,250 404.49,48.93 412.29,54.98 "/>
    <polygon id="171" class="fil61" points="253.52,250 410.73,53.77 418.34,60.07 "/>
    <polygon id="172" class="fil62" points="253.52,250 416.81,58.81 424.22,65.34 "/>
    <polygon id="173" class="fil63" points="253.52,250 422.74,64.03 429.94,70.79 "/>
    <polygon id="174" class="fil64" points="253.52,250 428.5,69.44 435.48,76.42 "/>
    <polygon id="175" class="fil65" points="253.52,250 434.08,75.02 440.84,82.22 "/>
    <polygon id="176" class="fil66" points="253.52,250 439.49,80.78 446.02,88.19 "/>
    <polygon id="177" class="fil67" points="253.52,250 444.71,86.71 451.01,94.31 "/>
    <polygon id="178" class="fil68" points="253.52,250 449.75,92.79 455.8,100.59 "/>
    <polygon id="179" class="fil69" points="253.52,250 454.59,99.03 460.39,107.02 "/>
    <polygon id="180" class="fil70" points="253.52,250 459.23,105.42 464.78,113.59 "/>
    <polygon id="181" class="fil71" points="253.52,250 463.67,111.96 468.96,120.29 "/>
    <polygon id="182" class="fil72" points="253.52,250 467.9,118.63 472.93,127.12 "/>
    <polygon id="183" class="fil73" points="253.52,250 471.93,125.43 476.68,134.08 "/>
    <polygon id="184" class="fil74" points="253.52,250 475.73,132.35 480.21,141.14 "/>
    <polygon id="185" class="fil75" points="253.52,250 479.32,139.38 483.52,148.32 "/>
    <polygon id="186" class="fil76" points="253.52,250 482.68,146.53 486.6,155.59 "/>
    <polygon id="187" class="fil77" points="253.52,250 485.82,153.78 489.45,162.96 "/>
    <polygon id="188" class="fil78" points="253.52,250 488.72,161.12 492.07,170.41 "/>
    <polygon id="189" class="fil79" points="253.52,250 491.4,168.56 494.45,177.95 "/>
    <polygon id="190" class="fil80" points="253.52,250 493.84,176.07 496.59,185.55 "/>
    <polygon id="191" class="fil81" points="253.52,250 496.04,183.65 498.5,193.22 "/>
    <polygon id="192" class="fil82" points="253.52,250 498.01,191.3 500.16,200.94 "/>
    <polygon id="193" class="fil83" points="253.52,250 499.73,199.01 501.58,208.71 "/>
    <polygon id="194" class="fil84" points="253.52,250 501.21,206.77 502.76,216.52 "/>
    <polygon id="195" class="fil85" points="253.52,250 502.45,214.57 503.69,224.37 "/>
    <polygon id="196" class="fil86" points="253.52,250 503.44,222.41 504.37,232.24 "/>
    <polygon id="197" class="fil87" points="253.52,250 504.18,230.27 504.8,240.13 "/>
    <polygon id="198" class="fil88" points="253.52,250 504.68,238.16 504.99,248.03 "/>
    <polygon id="199" class="fil89" points="253.52,250 504.92,246.05 504.92,253.95 "/>
   </g>
   <path id="200" class="fil90 str1" d="M426 250c0,-97.2 -78.8,-176 -176,-176 -97.2,0 -176,78.8 -176,176 0,97.2 78.8,176 176,176 97.2,0 176,-78.8 176,-176z"/>
  </g>
  <circle class="fil90 str2" cx="250" cy="250" r="153"/>
  <circle class="fil0 str3" cx="250" cy="250" r="89.38"/>
  <circle class="fil90 str4" cx="250" cy="250" r="132"/>
  <circle class="fil90 str5" cx="250" cy="250" r="111"/>
  <polygon class="fil91 str6" points="311.5,250 260.12,220.34 208.74,190.67 208.74,250 208.74,309.33 260.12,279.67 "/>
  <path class="fil92" d="M254.49 386.61l178.51 0.39c14.19,0.03 5.45,11.42 -5,21l-24 22c-10.45,9.58 -21.32,24.26 -35,28l-72.13 19.72 -68.18 14.04 0 -79.35c0,-14.19 11.61,-25.83 25.8,-25.8z"/>
  <path class="fil93" d="M245.2 451.06l0 -46.76 15.14 0c5.74,0 9.47,0.23 11.22,0.7 2.67,0.7 4.91,2.23 6.72,4.58 1.81,2.35 2.71,5.39 2.71,9.11 0,2.87 -0.52,5.28 -1.55,7.24 -1.05,1.96 -2.37,3.49 -3.97,4.61 -1.6,1.11 -3.23,1.85 -4.88,2.21 -2.26,0.45 -5.51,0.68 -9.78,0.68l-6.14 0 0 17.63 -9.47 0zm9.47 -38.86l0 13.32 5.15 0c3.71,0 6.18,-0.25 7.43,-0.74 1.26,-0.49 2.24,-1.25 2.94,-2.3 0.71,-1.05 1.07,-2.26 1.07,-3.65 0,-1.71 -0.5,-3.11 -1.49,-4.22 -1,-1.11 -2.25,-1.81 -3.79,-2.09 -1.12,-0.21 -3.37,-0.32 -6.77,-0.32l-4.54 0zm34.09 38.86l0 -46.76 19.89 0c5,0 8.63,0.42 10.89,1.26 2.28,0.84 4.09,2.33 5.45,4.48 1.36,2.15 2.04,4.6 2.04,7.36 0,3.52 -1.02,6.42 -3.08,8.7 -2.05,2.29 -5.12,3.72 -9.22,4.32 2.04,1.19 3.72,2.49 5.03,3.92 1.33,1.43 3.11,3.96 5.36,7.6l5.7 9.12 -11.29 0 -6.77 -10.21c-2.42,-3.63 -4.09,-5.91 -4.99,-6.86 -0.9,-0.94 -1.84,-1.59 -2.84,-1.94 -1.01,-0.34 -2.61,-0.52 -4.78,-0.52l-1.92 0 0 19.53 -9.47 0zm9.47 -26.97l6.99 0c4.53,0 7.35,-0.2 8.48,-0.58 1.12,-0.38 2.01,-1.04 2.64,-1.98 0.65,-0.94 0.96,-2.11 0.96,-3.52 0,-1.58 -0.42,-2.84 -1.26,-3.82 -0.84,-0.97 -2.03,-1.58 -3.55,-1.83 -0.77,-0.1 -3.07,-0.16 -6.89,-0.16l-7.37 0 0 11.89zm35.73 3.87c0,-4.77 0.72,-8.77 2.15,-12.01 1.06,-2.39 2.51,-4.53 4.35,-6.43 1.84,-1.89 3.86,-3.3 6.04,-4.22 2.92,-1.23 6.28,-1.85 10.09,-1.85 6.91,0 12.41,2.14 16.56,6.42 4.14,4.29 6.2,10.24 6.2,17.87 0,7.57 -2.05,13.49 -6.16,17.76 -4.1,4.27 -9.6,6.41 -16.47,6.41 -6.95,0 -12.49,-2.12 -16.59,-6.38 -4.11,-4.25 -6.17,-10.1 -6.17,-17.57zm9.74 -0.31c0,5.3 1.23,9.31 3.68,12.06 2.44,2.73 5.56,4.1 9.32,4.1 3.78,0 6.87,-1.36 9.3,-4.07 2.42,-2.72 3.62,-6.79 3.62,-12.22 0,-5.37 -1.17,-9.38 -3.53,-12.01 -2.36,-2.65 -5.48,-3.96 -9.39,-3.96 -3.89,0 -7.04,1.34 -9.42,4 -2.39,2.68 -3.58,6.71 -3.58,12.1z"/>
 </g>
</svg>
