<?xml version="1.0" encoding="UTF-8"?>
<!DOCTYPE svg PUBLIC "-//W3C//DTD SVG 1.1//EN" "http://www.w3.org/Graphics/SVG/1.1/DTD/svg11.dtd">
<!-- Creator: CorelDRAW 2017 -->
<svg xmlns="http://www.w3.org/2000/svg" xml:space="preserve" width="500px" height="500px" version="1.1" style="shape-rendering:geometricPrecision; text-rendering:geometricPrecision; image-rendering:optimizeQuality; fill-rule:evenodd; clip-rule:evenodd"
viewBox="0 0 500 500"
 xmlns:xlink="http://www.w3.org/1999/xlink">
 <defs>
  <style type="text/css">
   <![CDATA[
    .str0 {stroke:#575757;stroke-width:16;stroke-miterlimit:22.9256}
    .fil3 {fill:#009A00}
    .fil2 {fill:#00CC00}
    .fil5 {fill:#1EC91E}
    .fil4 {fill:#32DE00}
    .fil1 {fill:#42DE00}
    .fil0 {fill:white}
    .fil6 {fill:#2B2A29;fill-rule:nonzero}
   ]]>
  </style>
 </defs>
 <g id="Слой_x0020_1">
  <metadata id="CorelCorpID_0Corel-Layer"/>
  <circle class="fil0 str0" cx="250" cy="250" r="239.39"/>
 </g>
 <g id="Слой_x0020_1_0">
  <metadata id="CorelCorpID_1Corel-Layer"/>
  <g id="_1896928252544">
   <polygon class="fil1" points="127.33,110.12 248.97,180.76 127.06,252.96 "/>
   <polygon class="fil2" points="127.52,252.22 248.97,180.76 250.09,321.03 "/>
   <polygon class="fil1" points="372.95,106.59 248.62,180.76 372.4,249.35 "/>
   <polygon class="fil3" points="371.91,248.62 248.97,180.55 250.09,321.03 "/>
   <polygon class="fil4" points="127.75,110.36 248.99,38.7 249.33,176.37 "/>
   <polygon class="fil5" points="372.95,106.59 248.99,38.5 249.33,176.37 "/>
  </g>
  <path class="fil6" d="M107.56 397.16l0 -54.8 11.1 0 0 21.58 21.58 0 0 -21.58 11.1 0 0 54.8 -11.1 0 0 -23.96 -21.58 0 0 23.96 -11.1 0zm55.19 -45.08l0 -9.72 10.49 0 0 9.72 -10.49 0zm0 45.08l0 -39.72 10.49 0 0 39.72 -10.49 0zm18.12 -16.46l0 -6.73 20.82 0 0 6.73 -20.82 0zm28.93 16.46l0 -54.8 7.45 0 28.75 43.01 0 -43.01 6.97 0 0 54.8 -7.45 0 -28.75 -43.01 0 43.01 -6.97 0zm81.6 -12.86l6.96 0.92c-1.08,4.04 -3.11,7.19 -6.07,9.43 -2.96,2.23 -6.74,3.35 -11.34,3.35 -5.79,0 -10.38,-1.78 -13.78,-5.36 -3.39,-3.56 -5.08,-8.57 -5.08,-15.01 0,-6.66 1.71,-11.84 5.14,-15.51 3.43,-3.69 7.88,-5.52 13.35,-5.52 5.29,0 9.62,1.79 12.97,5.41 3.36,3.61 5.04,8.68 5.04,15.22 0,0.4 -0.01,1 -0.04,1.79l-29.58 0c0.26,4.35 1.48,7.69 3.7,10 2.21,2.31 4.98,3.47 8.28,3.47 2.46,0 4.57,-0.65 6.3,-1.95 1.75,-1.3 3.13,-3.38 4.15,-6.24zm-22.04 -10.79l22.11 0c-0.29,-3.34 -1.14,-5.84 -2.53,-7.51 -2.13,-2.59 -4.91,-3.89 -8.32,-3.89 -3.09,0 -5.68,1.03 -7.78,3.1 -2.09,2.06 -3.25,4.83 -3.48,8.3zm44.65 23.65l-12 -39.72 7.04 0 6.34 22.92 2.24 8.53c0.09,-0.42 0.78,-3.15 2.06,-8.19l6.29 -23.26 6.9 0 5.98 23.06 1.95 7.56 2.28 -7.66 6.86 -22.96 6.55 0 -12.46 39.72 -6.97 0 -6.3 -23.76 -1.59 -6.8 -8.04 30.56 -7.13 0zm45.45 -11.86l6.65 -1.07c0.37,2.66 1.42,4.7 3.13,6.13 1.71,1.42 4.11,2.13 7.17,2.13 3.1,0 5.39,-0.62 6.9,-1.89 1.49,-1.25 2.24,-2.73 2.24,-4.42 0,-1.52 -0.67,-2.72 -2.01,-3.59 -0.95,-0.6 -3.24,-1.35 -6.89,-2.28 -4.92,-1.24 -8.33,-2.31 -10.24,-3.21 -1.9,-0.92 -3.34,-2.17 -4.33,-3.78 -0.98,-1.6 -1.48,-3.37 -1.48,-5.31 0,-1.77 0.41,-3.4 1.22,-4.91 0.81,-1.5 1.91,-2.75 3.3,-3.75 1.05,-0.76 2.47,-1.41 4.27,-1.95 1.81,-0.53 3.74,-0.8 5.81,-0.8 3.11,0 5.84,0.44 8.18,1.35 2.37,0.89 4.1,2.12 5.22,3.65 1.11,1.54 1.89,3.59 2.31,6.17l-6.58 0.92c-0.29,-2.07 -1.16,-3.69 -2.59,-4.85 -1.43,-1.16 -3.44,-1.73 -6.06,-1.73 -3.07,0 -5.28,0.51 -6.59,1.53 -1.32,1.02 -1.98,2.22 -1.98,3.58 0,0.87 0.27,1.66 0.82,2.36 0.55,0.72 1.4,1.32 2.57,1.79 0.68,0.25 2.64,0.83 5.93,1.72 4.75,1.26 8.06,2.31 9.95,3.11 1.89,0.81 3.37,1.99 4.44,3.52 1.09,1.55 1.62,3.46 1.62,5.76 0,2.23 -0.65,4.33 -1.96,6.31 -1.32,1.98 -3.2,3.51 -5.67,4.59 -2.47,1.08 -5.26,1.62 -8.38,1.62 -5.15,0 -9.09,-1.07 -11.79,-3.2 -2.71,-2.14 -4.43,-5.31 -5.18,-9.5z"/>
 </g>
</svg>
