<?xml version="1.0" encoding="UTF-8"?>
<!DOCTYPE svg PUBLIC "-//W3C//DTD SVG 1.1//EN" "http://www.w3.org/Graphics/SVG/1.1/DTD/svg11.dtd">
<!-- Creator: CorelDRAW 2017 -->
<svg xmlns="http://www.w3.org/2000/svg" xml:space="preserve" width="500px" height="500px" version="1.1" style="shape-rendering:geometricPrecision; text-rendering:geometricPrecision; image-rendering:optimizeQuality; fill-rule:evenodd; clip-rule:evenodd"
viewBox="0 0 500 500"
 xmlns:xlink="http://www.w3.org/1999/xlink">
 <defs>
  <style type="text/css">
   <![CDATA[
    .fil0 {fill:#1675A4}
    .fil1 {fill:#FF8D29}
   ]]>
  </style>
 </defs>
 <g id="Слой_x0020_1">
  <metadata id="CorelCorpID_0Corel-Layer"/>
  <circle class="fil0" cx="250" cy="250" r="241.99"/>
  <g id="_2442966612320">
   <path class="fil1" d="M144.67 155.68l223.08 0c-1.68,7.21 -15.59,174.06 -18.09,197.9l-2.19 29.24 -91.26 24.89 -91.26 -24.89c0,-18.41 -5.04,-52.57 -6.06,-71.01l-3.8 -42.84c-2.33,-18.05 -2.42,-36.25 -5.07,-56.78 -0.55,-4.25 -1.11,-10.44 -1.28,-13.94l-4.07 -42.57zm168.32 -60.84l14.2 0 0 28.4 19.26 0 0 13.18 -33.46 0 0 -41.58zm-133.85 41.58l-13.18 0 0 -41.58 13.18 0 0 13.19 13.18 0 0 -13.19 14.2 0 0 41.58 -14.2 0 0 -14.2 -13.18 0 0 14.2zm92.28 0l-13.19 0 0 -41.58c16.7,0 14.05,-3.33 23.33,14.2 4.17,-3.06 7.37,-14.2 11.15,-14.2l13.18 0 0 41.58 -14.19 0 0 -20.28 -9.13 14.19c-2.32,-1.69 -3.37,-4.51 -5.06,-7.1 -3.46,-5.33 -2.89,-5.93 -6.09,-7.09l0 20.28zm-58.82 -41.58l39.55 0 0 13.19 -13.18 0 0 28.39 -13.18 0 0 -28.39 -13.19 0 0 -13.19zm-188.6 155.15c0,7.19 1.02,19.03 1.84,25.53 1.11,8.8 2.25,16.91 4.03,24.37 10.29,43.17 29.68,78.43 60.8,109.55l14.19 13.19c13.56,12.08 35.45,25.67 52.26,32.91l20.38 8.01c15.63,5.51 42.38,11.7 59.45,11.53 6.25,-0.06 8.13,1.1 13.17,1.1 5.02,0 6.2,-1.14 12.14,-1.11 11.68,0.04 27.22,-2.79 37.63,-4.96 25.23,-5.27 58.12,-19.43 78.87,-34.7 6.14,-4.53 18.3,-13.4 23.73,-18.86l13.68 -13.69c2.98,-2.95 3.91,-4.6 6.59,-7.61 10.98,-12.32 26.85,-36.9 33.06,-52.12 7.93,-19.41 9.15,-21.18 14.35,-42.43 5.87,-23.99 7.36,-51.48 4.24,-76.25 -1.11,-8.8 -2.26,-16.9 -4.04,-24.36 -11.59,-48.68 -36.61,-90.58 -74.93,-122.8 -10.95,-9.2 -20.73,-16.42 -33.43,-23.35 -58.26,-31.82 -119.69,-39.41 -184.02,-18.04 -18.21,6.04 -41.26,17.65 -56.64,28.53 -5.33,3.76 -10.97,7.99 -16,12.39 -44.54,38.86 -72.57,87.27 -79.41,146.71 -0.83,7.24 -1.94,18.69 -1.94,26.46z"/>
   <path class="fil1" d="M193.34 286.49l97.34 0c-0.91,3.93 -1.75,12.88 -2,17.27 -0.38,6.99 -1.04,10.59 -1.04,18.22 -1.94,0.93 -28.96,8.11 -31.43,8.11l-26.82 -6.64c-5.54,-1.74 -4.92,-4.38 -5.55,-18.79 -0.35,-7.98 1.7,-6 -26.45,-6 -4.94,0 -1.58,10.54 -0.98,21.26 0.44,7.97 2,15.54 2,24.37 9.54,2.22 19.59,5.45 28.6,7.9 36.4,9.9 21.47,10.32 57.59,0.21 9.6,-2.69 19.71,-5.85 29.4,-8.11 0,-16.63 7.1,-66.32 7.1,-86.19l-101.4 0c0,-7.77 -2.03,-18.8 -2.03,-28.39l106.47 0c0,-9.71 2.03,-17.94 2.03,-28.4l-139.93 0c0,6.64 0.67,14.27 1.6,20.71l5.5 64.47z"/>
  </g>
 </g>
</svg>
