<?xml version="1.0" encoding="UTF-8"?>
<!DOCTYPE svg PUBLIC "-//W3C//DTD SVG 1.1//EN" "http://www.w3.org/Graphics/SVG/1.1/DTD/svg11.dtd">
<!-- Creator: CorelDRAW 2017 -->
<svg xmlns="http://www.w3.org/2000/svg" xml:space="preserve" width="500px" height="500px" version="1.1" style="shape-rendering:geometricPrecision; text-rendering:geometricPrecision; image-rendering:optimizeQuality; fill-rule:evenodd; clip-rule:evenodd"
viewBox="0 0 500 500"
 xmlns:xlink="http://www.w3.org/1999/xlink">
 <defs>
  <style type="text/css">
   <![CDATA[
    .str0 {stroke:black;stroke-width:2;stroke-miterlimit:22.9256}
    .fil1 {fill:#020202}
    .fil2 {fill:#47F500}
    .fil0 {fill:#F5C608}
    .fil3 {fill:#FCFA12}
    .fil4 {fill:#FD001C}
    .fil5 {fill:white}
   ]]>
  </style>
 </defs>
 <g id="Слой_x0020_1">
  <metadata id="CorelCorpID_0Corel-Layer"/>
  <circle class="fil0" cx="250" cy="250" r="239.39"/>
 </g>
 <g id="Слой_x0020_1_0">
  <metadata id="CorelCorpID_1Corel-Layer"/>
  <g id="_2476708866560">
   <path class="fil1" d="M200 288.38c3.26,1.27 6.05,3.12 9.95,4 1.95,0.44 2.85,-0.07 3.24,1.54 0.69,2.94 0.99,14.15 1.26,17.98 0.9,12.29 2.79,22.99 2.79,35.58 0,7.07 0.72,11.28 -2.51,16.72 -2.65,4.48 -5.13,7.6 -9.03,10.15 -8.29,5.39 -18.61,8.69 -30.25,4.51 -9.35,-3.35 -15.2,-9.76 -17.95,-20.04 -1.87,-7.02 0.15,-16.91 3.4,-23.27 1.67,-3.26 34.27,-41.61 39.1,-47.17zm-119.92 -64.59l0 -2.51c0.21,-6.73 2.18,-13.59 5.59,-20.14 5.96,-11.47 14.79,-18.59 26.8,-23.98 3.04,-1.37 6.23,-2.27 9.66,-3.13 6.25,-1.58 16.23,-1.48 22.18,0.47 3.07,1 6.34,2.36 9.34,3.06 -4.4,-6.57 -4.61,-6.68 -7.46,-15.34 -1.74,-5.31 -2.87,-13.17 -2.09,-20.59 3.25,-30.66 29.72,-41.21 52.16,-27.48 4.82,2.95 8.57,6.47 11.88,10.91 4.56,6.14 4.46,7.44 7.55,12.45l1.13 1.66c0.15,-6.67 5.34,-14.8 8.39,-18.8 3.99,-5.24 8.88,-8.88 14.53,-12.26 12.26,-7.36 27.72,-8.9 43.21,-3.48 12.86,4.51 22.19,13.86 27.38,26.6 9.56,23.46 -1.69,36.87 -3.15,43.13 1.82,-0.87 14.29,-3.21 16.78,-3.22 6.81,0 13.22,-0.01 18.36,1.66 5.22,1.69 8.99,3.94 12.9,7.09 1.79,1.45 3.36,3.38 4.8,5.2 2.66,3.39 2.11,3.45 3.4,6.2 8.74,18.67 -2.84,36.51 -18.38,45.72 -1.78,1.05 -4.29,2.86 -6.27,3.32 0.78,1.07 3.01,1.7 4.4,2.4 1.53,0.77 2.88,1.45 4.53,2.26 8.23,4.08 14.93,12.66 18.93,20.66 12.77,25.53 0.66,58.63 -27.01,67.89 -10.89,3.65 -22.76,1.95 -33.69,-1.99 -1.78,-0.64 -2.94,-1.35 -4.62,-2.19 -1.46,-0.73 -2.88,-1.93 -4.12,-2.27 0,1.65 0.24,2.25 0.51,3.88 0.89,5.26 0.67,6.81 0.69,12.12 0.02,9.49 -2.57,19.24 -8.51,25.88l-4.2 4.2c-1.15,1.01 -3.57,2.6 -5.02,3.37 -12.82,6.85 -27.48,2.68 -38.13,-6.38 -1.02,-0.87 -1.2,-1.16 -2.35,-2.05 -1.98,-1.53 -5.87,-6.01 -6.17,-6.23 -0.06,2.73 -2.4,8.32 -3.46,10.53 -4.26,8.95 -11.98,16.7 -20.79,21.2 -11.27,5.76 -22.33,6.08 -35.16,3.29 -3.82,-0.83 -6.85,-2.16 -10.1,-3.49 -1.76,-0.72 -3.06,-1.4 -4.7,-2.5 -3.71,-2.49 -4.57,-2.69 -7.52,-6.47 -5.79,-7.4 -10.04,-12.18 -12.21,-22.19 -1.84,-8.52 -1.56,-16.77 1.02,-24.52 3.06,-9.17 5.19,-10.37 9.36,-18.23 -2.1,0.04 -4.63,1.01 -6.97,1.43 -2.38,0.43 -5.24,0.65 -7.49,0.91 -4.62,0.54 -17.28,-1.43 -21.54,-3.54 -2.33,-1.15 -3.14,-1.77 -5.13,-3.26 -6.73,-5.05 -11.71,-12.76 -11.66,-21.93 0.04,-6.94 0.62,-9.01 2.94,-13.87 6.04,-12.68 12.78,-14.47 15.46,-18.12 -11.48,-2.68 -16.98,-4.74 -25.29,-13.09 -7.07,-7.12 -10.41,-15.52 -10.69,-24.24zm70.37 95.71l0 0zm82.45 -26.68c4.81,-1.29 8.49,-3.18 12.31,-5.21l14.1 14.18c8.79,9.1 19.5,21.37 21.51,35.3 4.28,29.58 -26.75,35.18 -38.03,2.82 -5.03,-14.45 -3.13,-6.57 -5.86,-22.51 -0.83,-4.82 -4.27,-20.9 -4.03,-24.58zm31.17 -31.23c11.19,-1.27 61.14,-6.4 69.04,-4 8.83,2.67 11.36,7.24 15.27,12.3 8.09,10.47 6.97,25.56 0.83,34.85 -8.07,12.23 -24.46,16.5 -38.86,9.58 -3.19,-1.53 -16.31,-13.22 -20.34,-16.45l-29.97 -25.15c1.63,-4.02 3.14,-6.01 4.03,-11.13zm-80.41 10.36c-1.78,1.04 -5.33,4.7 -6.97,6.23l-20.49 18.28c-4.16,3.45 -11.8,6.47 -18.93,7.12 -20.13,1.83 -28.34,-9.62 -15.48,-23.94 3.66,-4.07 9.52,-7.1 15.76,-9.83 3.2,-1.39 6.09,-2.79 9.7,-3.48 7.71,-1.47 26.78,-5.45 32.33,-5.98l4.08 11.6zm35.5 -47.01c16.4,-2.66 29.78,9.67 31.46,23.55 1.95,16.18 -10.34,29.38 -23.54,31.27 -16.69,2.39 -29.75,-10.04 -31.74,-23.51 -2.25,-15.24 7.49,-28.66 23.82,-31.31zm-31.39 -1.4c-1.26,2.04 -2.36,3.39 -3.67,5.65 -2.84,4.94 -1.28,6.55 -4.11,7.09l-5.75 0.67c-8.51,1.09 -51.33,7.09 -55.46,6.26 -5.62,-1.13 -8.77,-1.77 -12.71,-4.87 -11.3,-8.9 -9.56,-25.54 0.7,-36.48 3.06,-3.26 5.96,-4.76 10.59,-7.03 11.21,-5.48 17.81,-4.76 28.55,-0.34 2.17,0.9 4.53,1.68 6.3,2.9 1.78,1.24 3.46,2.5 5.08,3.71 7.77,5.79 22.74,16.02 29.39,21.38l1.09 1.06zm73.48 8.02c1.57,-1.59 2.54,-2.6 4.3,-4.08 1.76,-1.47 2.97,-2.48 4.59,-3.81l26.82 -22.35c1.97,-1.69 7.13,-6.31 9.46,-7.33 3.59,-1.56 7.87,-3.42 12.1,-4.3 24.99,-5.17 38.77,11.4 23.68,27.29 -4,4.21 -13.39,9.79 -21.24,11.54 -6.5,1.46 -51.01,7.06 -58.04,7.42l-1.67 -4.38zm-23.16 -21.58c-0.72,-14.08 -6.95,-59.57 -3.61,-69.94 6.11,-19.02 30.68,-26.97 48.68,-15.24 13.6,8.86 15.43,26.84 8.5,40.01 -1.19,2.25 -2.19,4.28 -3.48,6.15l-12.56 15.42c-2.88,3.43 -5.56,6.88 -8.47,10.32 -2.96,3.51 -5.73,6.79 -8.46,10.33 -2.69,3.49 -5.67,6.7 -8.13,10.1 -1.4,-0.52 -4.5,-2.8 -6.29,-3.85 -2.02,-1.19 -4.46,-2.08 -6.18,-3.3zm-39.87 -8.61c-2.49,-2.72 -5.22,-6.12 -7.82,-8.6l-11.65 -12.73c-3.55,-4.15 -8.64,-8.43 -11.07,-13.34 -1.75,-3.54 -3.44,-7.67 -4.45,-11.93 -4.19,-17.76 4.74,-32.27 16.71,-27.9 5,1.83 7.15,2.8 10.52,5.86 5.06,4.6 9.42,12.21 12.29,20.11 2.43,6.67 3.87,19.42 5.19,27.19 0.8,4.71 1.58,9.36 2.37,14.02 0.6,3.53 2.22,10.68 2.19,14l-6.5 1.92 -7.78 -8.6z"/>
   <path class="fil2" d="M238.09 209.98c1.72,1.22 4.16,2.11 6.18,3.3 1.79,1.05 4.89,3.33 6.29,3.85 2.46,-3.4 5.44,-6.61 8.13,-10.1 2.73,-3.54 5.5,-6.82 8.46,-10.33 2.91,-3.44 5.59,-6.89 8.47,-10.32l12.56 -15.42c1.29,-1.87 2.29,-3.9 3.48,-6.15 6.93,-13.17 5.1,-31.15 -8.5,-40.01 -18,-11.73 -42.57,-3.78 -48.68,15.24 -3.34,10.37 2.89,55.86 3.61,69.94z"/>
   <path class="fil2" d="M264.07 261.59c-0.89,5.12 -2.4,7.11 -4.03,11.13l29.97 25.15c4.03,3.23 17.15,14.92 20.34,16.45 14.4,6.92 30.79,2.65 38.86,-9.58 6.14,-9.29 7.26,-24.38 -0.83,-34.85 -3.91,-5.06 -6.44,-9.63 -15.27,-12.3 -7.9,-2.4 -57.85,2.73 -69.04,4z"/>
   <path class="fil2" d="M200 288.38c-4.83,5.56 -37.43,43.91 -39.1,47.17 -3.25,6.36 -5.27,16.25 -3.4,23.27 2.75,10.28 8.6,16.69 17.95,20.04 11.64,4.18 21.96,0.88 30.25,-4.51 3.9,-2.55 6.38,-5.67 9.03,-10.15 3.23,-5.44 2.51,-9.65 2.51,-16.72 0,-12.59 -1.89,-23.29 -2.79,-35.58 -0.27,-3.83 -0.57,-15.04 -1.26,-17.98 -0.39,-1.61 -1.29,-1.1 -3.24,-1.54 -3.9,-0.88 -6.69,-2.73 -9.95,-4z"/>
   <path class="fil2" d="M187.77 223.54l-1.09 -1.06c-6.65,-5.36 -21.62,-15.59 -29.39,-21.38 -1.62,-1.21 -3.3,-2.47 -5.08,-3.71 -1.77,-1.22 -4.13,-2 -6.3,-2.9 -10.74,-4.42 -17.34,-5.14 -28.55,0.34 -4.63,2.27 -7.53,3.77 -10.59,7.03 -10.26,10.94 -12,27.58 -0.7,36.48 3.94,3.1 7.09,3.74 12.71,4.87 4.13,0.83 46.95,-5.17 55.46,-6.26l5.75 -0.67c2.83,-0.54 1.27,-2.15 4.11,-7.09 1.31,-2.26 2.41,-3.61 3.67,-5.65z"/>
   <path class="fil3" d="M219.16 224.94c-16.33,2.65 -26.07,16.07 -23.82,31.31 1.99,13.47 15.05,25.9 31.74,23.51 13.2,-1.89 25.49,-15.09 23.54,-31.27 -1.68,-13.88 -15.06,-26.21 -31.46,-23.55z"/>
   <path class="fil2" d="M261.25 231.56l1.67 4.38c7.03,-0.36 51.54,-5.96 58.04,-7.42 7.85,-1.75 17.24,-7.33 21.24,-11.54 15.09,-15.89 1.31,-32.46 -23.68,-27.29 -4.23,0.88 -8.51,2.74 -12.1,4.3 -2.33,1.02 -7.49,5.64 -9.46,7.33l-26.82 22.35c-1.62,1.33 -2.83,2.34 -4.59,3.81 -1.76,1.48 -2.73,2.49 -4.3,4.08z"/>
   <path class="fil2" d="M206 209.97l6.5 -1.92c0.03,-3.32 -1.59,-10.47 -2.19,-14 -0.79,-4.66 -1.57,-9.31 -2.37,-14.02 -1.32,-7.77 -2.76,-20.52 -5.19,-27.19 -2.87,-7.9 -7.23,-15.51 -12.29,-20.11 -3.37,-3.06 -5.52,-4.03 -10.52,-5.86 -11.97,-4.37 -20.9,10.14 -16.71,27.9 1.01,4.26 2.7,8.39 4.45,11.93 2.43,4.91 7.52,9.19 11.07,13.34l11.65 12.73c2.6,2.48 5.33,5.88 7.82,8.6l7.78 8.6z"/>
   <path class="fil2" d="M232.9 292.82c-0.24,3.68 3.2,19.76 4.03,24.58 2.73,15.94 0.83,8.06 5.86,22.51 11.28,32.36 42.31,26.76 38.03,-2.82 -2.01,-13.93 -12.72,-26.2 -21.51,-35.3l-14.1 -14.18c-3.82,2.03 -7.5,3.92 -12.31,5.21z"/>
   <path class="fil4" d="M183.66 271.95l-4.08 -11.6c-5.55,0.53 -24.62,4.51 -32.33,5.98 -3.61,0.69 -6.5,2.09 -9.7,3.48 -6.24,2.73 -12.1,5.76 -15.76,9.83 -12.86,14.32 -4.65,25.77 15.48,23.94 7.13,-0.65 14.77,-3.67 18.93,-7.12l20.49 -18.28c1.64,-1.53 5.19,-5.19 6.97,-6.23z"/>
  </g>
  <g id="_2476708858560">
   <path class="fil5 str0" d="M390.23 358.69c-3.33,0 -5.79,0.05 -8.72,-1.79l-2.17 -1.75c-0.24,-0.25 -0.24,-0.31 -0.44,-0.55 -4.21,-5.21 -4.78,-9.96 -4.78,-16.78 0,-5.8 2.11,-11.86 5.57,-15.17 4.15,-3.98 10.87,-4.82 15.82,-1.88 6.62,3.94 8.31,14.71 7.37,21.85 -0.51,3.85 -0.89,5.96 -2.94,9.39 -2.09,3.48 -5.06,6.68 -9.71,6.68zm-7.84 14.28c5.09,0 8.8,-0.16 13.1,-2.72 4.28,-2.53 5.98,-6 6.51,-6.38 0,6.96 0,13.91 0,20.87 0,3.95 -0.08,6.47 1.45,9.05 2.73,4.58 13.46,5.04 15.76,-1.08 0.31,-0.85 0.71,-2.1 0.71,-3.21l0 -77.32c0,-4.09 -3.02,-7.14 -7.7,-7.14 -1.76,0 -3.24,0.15 -4.72,0.89 -3.91,1.95 -3.68,6.46 -3.68,10.6l-0.28 0c-0.48,-2.06 -2.19,-4.13 -3.46,-5.65 -0.91,-1.09 -1.81,-1.78 -3.01,-2.59 -5.45,-3.64 -13.74,-3.96 -20.23,-2.35 -3.1,0.76 -5.33,1.88 -7.82,3.53 -3.33,2.21 -6.18,5.48 -8.11,8.97 -0.14,0.25 -0.19,0.41 -0.33,0.65 -2.43,4.33 -4,10.55 -4.25,15.64 -0.03,0.67 -0.14,0.98 -0.14,1.82 0.02,3.96 -0.18,4.23 0.27,8.98 0.9,9.37 5.87,19.25 13.96,24.14 2.74,1.66 7.63,3.3 11.97,3.3z"/>
   <path class="fil5 str0" d="M319.5 372.97c5.75,0 7.72,0.06 13.33,-1.51 2.74,-0.76 5.65,-2.17 7.76,-3.58 4.61,-3.09 8.6,-7.72 8.6,-13.96 0,-3.63 -3.57,-6.58 -7,-6.58 -2.59,0 -4.87,0.03 -6.65,2.32 -3.28,4.23 -6.76,9.03 -12.82,9.03 -5.44,0 -9.02,-1.05 -12.42,-5.23 -3.04,-3.73 -3.69,-8.39 -3.69,-14.1 0,-5.26 1.38,-10.89 3.6,-13.91 0.37,-0.5 0.49,-0.74 0.92,-1.18 0.42,-0.44 0.59,-0.74 1.05,-1.2 2.8,-2.76 5.46,-4.02 9.98,-4.02 6.6,0 9.29,3.72 12.93,8.22 0.64,0.8 0.83,1.19 1.82,1.68 2.94,1.45 7.52,0.84 9.87,-1.53 0.7,-0.71 1.21,-1.28 1.67,-2.25 1.77,-3.79 0.12,-7.89 -2.2,-10.89 -2.87,-3.71 -9.01,-6.77 -13.34,-7.95 -7.94,-2.17 -18.1,-1.62 -25.5,1.33 -5.29,2.11 -10.62,6.42 -13.5,11.29 -1.27,2.15 -1.83,3.01 -2.81,5.46 -1.42,3.58 -2.73,8.88 -2.7,13.83 0.01,0.84 -0.09,1.21 -0.14,1.83l0.4 5.9c0.51,3.47 1.15,6.7 2.55,9.77l1.39 2.81c0.66,1.22 1.61,2.59 2.49,3.67 0.36,0.43 0.62,0.72 0.97,1.13 0.37,0.43 0.49,0.65 0.92,1.05l2.26 1.93c0.45,0.35 0.77,0.57 1.23,0.87 1.66,1.1 3.41,2.18 5.32,2.95 4.15,1.69 9,2.82 13.71,2.82z"/>
   <path class="fil5 str0" d="M258.57 313.16l0 51.41c0,5.03 2.99,8.4 7.98,8.4 3,0 5.69,0.08 8.02,-2.34 1.24,-1.28 2.07,-3.58 2.07,-6.06l0 -51.12c0,-5.3 -3.11,-8.41 -8.41,-8.41 -3,0 -5.29,0.29 -7.32,2.07 -1.31,1.15 -2.34,3.63 -2.34,6.05z"/>
   <path class="fil5 str0" d="M258.29 288.65c0,3.34 0.43,4.79 2.76,7.32 0.81,0.87 1.03,1.22 2.37,1.97 2.35,1.32 5.92,1.25 8.36,0.01 2.52,-1.28 5.14,-4.75 5.14,-7.9 0,-2.93 -0.59,-5.12 -2.56,-7.25 -0.8,-0.86 -1.35,-1.3 -2.4,-1.93 -1,-0.6 -2.29,-0.95 -3.62,-1.04l-1.52 0c-1.21,0.09 -2.37,0.38 -3.29,0.9 -1.2,0.66 -1.5,1.03 -2.41,1.93 -1.47,1.48 -2.83,3.68 -2.83,5.99z"/>
  </g>
 </g>
</svg>
