<?xml version="1.0" encoding="UTF-8"?>
<!DOCTYPE svg PUBLIC "-//W3C//DTD SVG 1.1//EN" "http://www.w3.org/Graphics/SVG/1.1/DTD/svg11.dtd">
<!-- Creator: CorelDRAW 2017 -->
<svg xmlns="http://www.w3.org/2000/svg" xml:space="preserve" width="500px" height="500px" version="1.1" style="shape-rendering:geometricPrecision; text-rendering:geometricPrecision; image-rendering:optimizeQuality; fill-rule:evenodd; clip-rule:evenodd"
viewBox="0 0 500 500"
 xmlns:xlink="http://www.w3.org/1999/xlink">
 <defs>
  <style type="text/css">
   <![CDATA[
    .str0 {stroke:#E31E24;stroke-width:16;stroke-miterlimit:22.9256}
    .fil0 {fill:#2E2E2E}
    .fil3 {fill:#DE1010}
    .fil1 {fill:#F02222}
    .fil5 {fill:#F02222}
    .fil2 {fill:#F20000}
    .fil4 {fill:#F20000}
    .fil6 {fill:white;fill-rule:nonzero}
   ]]>
  </style>
 </defs>
 <g id="Слой_x0020_1">
  <metadata id="CorelCorpID_0Corel-Layer"/>
  <circle class="fil0 str0" cx="250" cy="250" r="239.39"/>
 </g>
 <g id="Слой_x0020_1_0">
  <metadata id="CorelCorpID_1Corel-Layer"/>
  <g id="_1897327775456">
   <path class="fil1" d="M180.37 282.34c121.27,-77.74 121.27,-77.74 221.19,-122.09 -2,-7.43 -12.71,-49.52 -14.47,-53.44 -21.65,-3.16 -33.93,3.62 -45.33,18.64 -9.86,13 -19.27,34.16 -34,53.41 -1.72,2.25 -3.11,4.2 -4.9,6.07 -2.25,2.35 -3.61,4.35 -5.17,4.71 -2.74,-19.07 -9.57,-56.07 -31.53,-61.57 0.35,-7.5 0.35,-15.21 -2.77,-21.31l-6.05 -0.16 0.32 -17.62 -10.65 0.28 0.17 9.57 4.37 0.73c-2.01,8.97 1.18,59.01 -23.02,71.09 -9.38,4.68 -15.92,1.81 -25.54,-0.59 -1.13,4.91 -3.85,11.42 -5.55,16.97 -9.28,30.37 -13.4,63.78 -17.07,95.31z"/>
   <path class="fil2" d="M322.2 193.78c-3.66,1.9 -7.07,3.59 -10.51,5.38l-20.1 10.89c-3.22,1.74 -6.55,3.47 -9.77,5.35 -10.27,5.91 -19.89,11.99 -29.97,18.08 -14.66,8.85 -51.51,33.09 -64.04,43.39l-7.3 4.28c-4.41,37.3 -3.97,37.68 -7.01,70.67l14.85 2.13c0.73,12.34 6.05,23.12 10.99,31.58l16.48 25.49c9.31,-2.67 15.71,-22.41 18.28,-35.1 3.56,-17.6 7.67,-50.82 9.21,-69.65 1.25,-15.27 7.28,-58.47 11.8,-66.94 2.35,0.08 6.05,-0.03 7.51,1.01 1.76,3.01 6.08,68.22 7.21,77.76 2.55,1.49 37.93,11.85 39.98,11.62 4.39,-20.25 15.15,-67.92 21.42,-86.71 4.19,-12.55 8.38,-22.43 15.62,-33.04 3.82,-5.59 8.17,-10.79 13.75,-14.72 3.01,-2.13 13.49,-8.27 18.28,-6.33 0.7,22.13 1.37,44.23 1.92,66.38 0.27,10.66 0.15,22.48 0.9,32.82 0.5,6.86 7.44,5.31 8.92,1.59 0.83,-2.1 1.37,-12.01 1.71,-15.58 1.93,-20.49 3.8,-39.95 7.98,-59.88l6.7 -27.14c1.17,-8.31 -4.31,-19.02 -5.45,-26.86 -1.82,1.18 -11.22,3.92 -14.45,5.01 -10.62,3.56 -18.19,6.94 -27.97,10.95 -3.14,1.29 -34.57,17.25 -36.94,17.57z"/>
   <path class="fil3" d="M398.78 149.61c-84.67,30.46 -154.19,77.11 -218.27,131.54 66.95,-47.5 139.07,-88.46 221.26,-119.66l-2.99 -11.88z"/>
  </g>
  <rect class="fil4" x="78.95" y="127.09" width="81.05" height="223.91" rx="10.81" ry="10.54"/>
  <rect class="fil4" x="78.95" y="127.09" width="81.05" height="215.48" rx="10.81" ry="10.14"/>
  <path class="fil3" d="M160 137.63l0 41.98 -81.05 49.22 -0.45 -91.2c-0.03,-5.8 4.92,-10.54 10.93,-10.54l59.64 0c6.01,0 10.76,4.75 10.93,10.54z"/>
  <polygon class="fil5" points="78.78,325.65 78.78,229.2 160,179.98 160,276.42 "/>
  <path class="fil6" d="M129.1 175.13c-0.21,0 -0.51,0 -0.81,0 -0.33,0 -0.66,0 -1.02,0 0.3,-0.56 0.6,-0.95 0.96,-1.14 -0.51,-0.96 -0.99,-1.56 -1.42,-1.82 0.3,-1.83 0.61,-3.66 0.88,-5.47 0.3,-1.82 0.57,-3.65 0.81,-5.49 -0.18,0 -0.39,0 -0.63,0 -0.21,0 -0.45,0 -0.69,0 -2.29,2.81 -4.56,5.66 -6.76,8.55 -2.19,2.89 -4.09,5.77 -5.69,8.64 -0.72,0.69 -1.63,1.42 -2.74,2.17 -1.12,0.76 -1.69,1.48 -1.69,2.18 0.42,0.12 0.57,0.55 0.45,1.28 0.48,-0.11 -0.06,-0.01 -1.59,0.32 -0.06,0.67 0,1.13 0.18,1.37 0.18,0.26 0.27,0.58 0.27,0.98 -1.48,0.5 -2.17,1.05 -2.11,1.67 0.06,0.61 -0.27,1.25 -1,1.92l-3.7 0c0.24,-3.46 0.54,-6.12 0.93,-8 0.39,-1.86 0.88,-5.17 1.45,-9.91 -1.99,-2.24 -3.29,-4.72 -3.86,-7.44 3.65,-1.16 4.79,-2.79 3.47,-4.87 -1.33,-2.09 -1.18,-3.91 0.39,-5.49 0,-0.4 -0.09,-0.9 -0.3,-1.52 -0.21,-0.61 -0.3,-1.69 -0.3,-3.24 0.36,-0.31 0.57,-0.7 0.66,-1.16 0.09,-0.47 0.27,-1.96 0.57,-4.47 -1.53,-0.64 -3.8,-1.25 -6.81,-1.81 0,-0.11 0,-0.22 -0.03,-0.32 -0.03,-0.11 -0.09,-0.22 -0.12,-0.33 1.93,-0.63 5.15,-0.97 9.64,-1.02 4.52,-0.05 4.61,0.82 0.33,2.59 1.57,1 2.36,2.33 2.29,4.01 -0.06,1.67 -0.57,3.06 -1.5,4.14 0,2.85 -0.06,5.7 -0.18,8.53 -0.12,2.83 -0.4,5.65 -0.79,8.47 0.21,0 0.46,0 0.7,0 0.24,0 0.45,0 0.63,0 3.47,-2.87 6.24,-5.83 8.32,-8.87 2.1,-3.04 4.73,-6.03 7.92,-8.96 -0.06,-0.65 -0.12,-1.31 -0.18,-1.98 -0.06,-0.66 -0.15,-1.34 -0.27,-2.01 2.59,-0.28 4.97,-0.54 7.11,-0.74 2.14,-0.22 4.55,-0.3 7.2,-0.28 0.12,0.18 0.18,0.34 0.18,0.45 -0.48,0.13 -0.96,0.27 -1.47,0.4 -0.49,0.14 -1.03,0.26 -1.54,0.38 -0.12,2.1 -0.94,4.07 -2.47,5.94 -1.54,1.85 -1.63,3.89 -0.27,6.14 -1.93,0.96 -2.68,2.22 -2.2,3.79 0.45,1.57 0.36,2.92 -0.36,4.08 0,1.27 0.09,2.77 0.3,4.47 0.21,1.71 -0.51,3.12 -2.14,4.25 -0.3,-0.08 -0.64,-0.21 -1,-0.38zm-4.58 6.43c-1.77,-0.19 -3.07,-0.33 -3.88,-0.42 0,-0.06 0,-0.13 0,-0.21 0,-0.08 0,-0.15 0,-0.2 1.9,0.05 3.1,0.07 3.61,0.05 0.54,-0.01 1.48,-0.07 2.83,-0.19 0,0.17 0.06,0.45 0.19,0.83 -0.55,0.04 -1.03,0.07 -1.48,0.09 -0.42,0.02 -0.84,0.03 -1.27,0.05zm3.8 -1.03c-1.42,-0.4 -2.59,-0.77 -3.59,-1.12 -0.96,-0.34 -0.9,-0.83 0.16,-1.47 0.39,0 1.44,0.19 3.07,0.56 1.66,0.38 3.34,0.68 5.03,0.91 0,0.11 0,0.25 0,0.39 0,0.14 0,0.27 0,0.39 -0.45,0.12 -0.9,0.18 -1.26,0.21 -0.4,0.03 -1.54,0.07 -3.41,0.13z"/>
  <path class="fil6" d="M116.39 232.52c1.3,0.17 2.35,0 3.17,-0.54 0.84,-0.54 1.38,-0.46 1.68,0.22 -1.77,1.48 -3.49,2.2 -5.21,2.15 -1.72,-0.05 -3.4,-0.1 -5.12,-0.14 -2.11,0.39 -4.01,0.44 -5.64,0.18 0,-0.1 0,-0.19 0,-0.29 0,-0.09 0,-0.19 0,-0.29 1.24,-0.45 2.02,-0.85 2.38,-1.21 0.36,-0.34 0.73,-0.88 1.15,-1.63 0.06,-1.55 0.06,-2.5 0.03,-2.87 -0.03,-0.36 -0.06,-0.55 -0.09,-0.57 -0.03,-0.02 -0.03,-0.07 -0.06,-0.16 -0.03,-0.08 -0.03,-0.61 0.03,-1.59 -0.42,-3.16 -0.42,-5.02 0,-5.59 0.42,-0.56 0.57,-3.72 0.45,-9.48 -0.36,-0.38 -0.78,-0.82 -1.24,-1.32 -0.72,-4.61 -0.75,-7.22 -0.15,-7.82 0.64,-0.61 0.31,-2.48 -0.99,-5.64 -1.78,-0.47 -3.1,-0.8 -3.98,-1 3.89,-0.39 8.98,-0.34 15.31,0.15 6.33,0.49 10.46,0.06 12.41,-1.28 2.65,0.12 4.01,1.01 4.1,2.67 0.09,1.67 -0.24,2.76 -1.02,3.28 -1.06,-0.06 -2.02,-0.19 -2.92,-0.38 -2.54,-1.34 -3.8,-2.15 -3.86,-2.45 -0.06,-0.3 -2.74,-0.42 -8.05,-0.36 -0.18,0.21 -0.36,0.42 -0.54,0.65 -0.15,0.22 -0.33,0.44 -0.51,0.67 -0.48,2.76 -0.67,5.71 -0.54,8.87 0.12,3.16 0.08,7.69 -0.1,13.6 0,3.51 0,5.81 0,6.91 0,1.09 0,1.91 0,2.43 0.18,0.53 0.18,0.97 0,1.31 0.37,0.34 0.13,0.84 -0.69,1.5z"/>
  <path class="fil6" d="M120.13 261.39c-1.75,0.1 -3.14,0.7 -4.13,1.79 -0.91,5.26 -1.21,8.76 -0.94,10.52 0.28,1.74 0.4,3.49 0.4,5.23 1.17,0.23 2.07,0.39 2.65,0.49 0,0.12 0,0.22 0,0.33 0,0.11 0,0.21 0,0.31 -1.06,0.16 -2.84,0.11 -5.3,-0.15 -3.29,0.38 -6.06,0.38 -8.29,0 -0.61,-0.29 -0.64,-0.46 -0.15,-0.53 0.51,-0.07 1.11,-0.21 1.83,-0.42 0.03,-3.33 0.16,-7.53 0.34,-12.6 0.18,-5.07 0.48,-9.83 0.9,-14.26 -0.42,-1.44 -0.39,-3.24 0.09,-5.4 0.45,-2.16 0.51,-3.96 0.15,-5.39 -1.42,-0.12 -2.14,-0.2 -2.23,-0.24 -0.09,-0.04 -0.66,-0.2 -1.72,-0.52 0,-0.07 0,-0.15 0.03,-0.24 0.03,-0.08 0.03,-0.18 0.03,-0.27 4.55,-0.03 8.83,-0.07 12.9,-0.11 4.07,-0.04 8.35,-0.06 12.81,-0.06 3.94,0.88 6.2,2.35 6.81,4.41 0.57,2.06 1.2,4.37 1.84,6.95 0.18,0.16 0.3,0.71 0.36,1.67 0.06,0.96 -0.18,1.44 -0.73,1.44 -0.51,0.74 -1.62,1.81 -3.34,3.19 -1.72,1.39 -3.35,2.34 -5,2.86 -0.03,0 -0.43,0.13 -1.18,0.39 -0.75,0.26 -1.99,0.43 -3.7,0.5 -1.72,0.07 -2.78,0.08 -3.23,0.02 -0.45,-0.05 -0.84,-0.02 -1.2,0.09zm9.01 -7.57c-1.75,-1.44 -2.2,-3.26 -1.27,-5.49 0.9,-2.21 0.54,-4.01 -1.11,-5.39 -2.6,-0.33 -4.52,-0.28 -5.82,0.14 -0.18,2.05 -0.33,4.39 -0.48,7.02 -0.15,2.63 -0.39,5.51 -0.75,8.66 1.17,0.09 2.25,0.09 3.31,0.03 1.02,-0.08 2.14,-0.17 3.37,-0.27 0.24,-0.46 0.76,-1.24 1.57,-2.35 0.78,-1.11 1.18,-1.89 1.18,-2.35z"/>
  <path class="fil6" d="M113.87 290.63c1.24,-0.91 3.2,-1.28 5.85,-1.06 1.23,-0.12 2.44,-0.16 3.61,-0.12 1.18,0.04 2.23,0.4 3.17,1.1 4.43,1.89 7.5,4.63 9.28,8.23 1.75,3.6 2.62,7.83 2.56,12.68 0,0.35 -0.3,0.61 -0.93,0.78 -0.61,0.18 -0.94,0.42 -0.94,0.74 -0.06,0.26 0.18,0.59 0.66,1 0.52,0.41 0.73,0.73 0.67,0.96 -0.7,4.5 -1.99,7.78 -3.89,9.86 -1.87,2.07 -4.34,3.76 -7.41,5.06 -1.3,0.94 -3.23,1.3 -5.82,1.07 -1.23,0.11 -2.44,0.15 -3.61,0.11 -1.18,-0.04 -2.23,-0.4 -3.2,-1.09 -5.39,-2.29 -8.95,-6.14 -10.67,-11.54 -1.71,-5.4 -1.59,-11.56 0.37,-18.51 0.09,-0.27 0.42,-0.5 0.96,-0.7 0.51,-0.21 0.87,-0.43 1.05,-0.68 0.19,-0.24 0.15,-0.53 -0.06,-0.84 -0.18,-0.32 -0.21,-0.6 -0.02,-0.85 1.98,-2.6 4.79,-4.67 8.37,-6.2zm6.45 0.66l0 0.06c-0.18,0.01 -0.3,0.03 -0.39,0.04 -0.09,0.01 -0.18,0.01 -0.3,0.01 -0.42,0.33 -1,0.91 -1.78,1.74 -0.75,0.84 -1.42,1.56 -1.93,2.2 -0.06,0.13 -0.12,0.25 -0.15,0.37 -0.03,0.12 -0.03,0.22 -0.03,0.32 -0.06,0.4 -0.03,0.81 0.09,1.23 0.12,0.42 0.12,0.83 0,1.23 -0.18,0.35 -0.42,0.69 -0.72,1.02 -0.27,0.34 -0.42,0.68 -0.42,1.02l-0.1 7.69c0,0.35 0.19,0.67 0.58,0.96 0.39,0.31 0.42,1.11 0.12,2.43 0,0.27 0.03,1.69 0.06,4.26 0.03,2.58 0.09,4.59 0.18,6.03 0.09,1.45 0.15,2.33 0.21,2.65 0.12,0.33 0.27,0.66 0.48,0.99 0.21,0.34 0.45,0.75 0.75,1.23 0,0.12 -0.05,0.34 -0.18,0.64 -0.12,0.3 -0.12,0.5 0,0.62 0.7,0.75 1.81,1.14 3.26,1.18l0 -0.06c0.24,0 0.48,-0.02 0.72,-0.06 0.42,-0.3 1,-0.88 1.75,-1.73 0.78,-0.84 1.45,-1.57 2.05,-2.2 0,-0.18 0.06,-0.41 0.18,-0.72 0,-0.39 0.54,-0.72 1.66,-1 1.11,-0.29 1.77,-0.64 1.95,-1.04 0.07,-0.35 -0.36,-0.75 -1.29,-1.22 -0.9,-0.47 -1.32,-0.87 -1.27,-1.22 0,-0.19 -0.15,-0.65 -0.39,-1.39 -0.27,-0.74 -0.42,-1.2 -0.42,-1.39 0,-0.17 0.03,-0.35 0.06,-0.51 0.03,-0.18 0.03,-0.36 0.03,-0.52 0,-0.18 0,-0.36 0,-0.55 0,-0.19 0,-0.89 0,-2.1 0,-0.22 -0.09,-0.46 -0.24,-0.69 -0.18,-0.25 -0.27,-0.48 -0.27,-0.71 0,-0.33 0.15,-0.91 0.48,-1.74 0.33,-0.83 0.48,-1.42 0.48,-1.77 0,-0.22 -0.06,-0.95 -0.21,-2.17 -0.15,-1.23 -0.24,-1.97 -0.24,-2.21 0,-0.27 0.24,-0.61 0.72,-1.01 0.46,-0.41 0.7,-0.75 0.7,-1.03 -0.7,-2.66 -1.06,-4.17 -1.06,-4.51 -0.06,-0.32 -0.18,-0.6 -0.39,-0.83 -0.21,-0.23 -0.3,-0.52 -0.3,-0.86 -0.18,-0.33 -0.39,-0.66 -0.63,-0.99 -0.25,-0.34 -0.43,-0.76 -0.61,-1.25 -0.06,-0.12 -0.03,-0.33 0.1,-0.63 0.12,-0.31 0.12,-0.51 0,-0.63 -0.67,-0.73 -1.75,-1.12 -3.29,-1.18z"/>
 </g>
</svg>
