<?xml version="1.0" encoding="UTF-8"?>
<!DOCTYPE svg PUBLIC "-//W3C//DTD SVG 1.1//EN" "http://www.w3.org/Graphics/SVG/1.1/DTD/svg11.dtd">
<!-- Creator: CorelDRAW 2017 -->
<svg xmlns="http://www.w3.org/2000/svg" xml:space="preserve" width="500px" height="500px" version="1.1" style="shape-rendering:geometricPrecision; text-rendering:geometricPrecision; image-rendering:optimizeQuality; fill-rule:evenodd; clip-rule:evenodd"
viewBox="0 0 500 500"
 xmlns:xlink="http://www.w3.org/1999/xlink">
 <defs>
  <style type="text/css">
   <![CDATA[
    .str0 {stroke:#2C1506;stroke-width:2;stroke-miterlimit:22.9256}
    .fil17 {fill:none;fill-rule:nonzero}
    .fil1 {fill:#2C1506}
    .fil8 {fill:#53250B}
    .fil9 {fill:#662A13}
    .fil10 {fill:#764310}
    .fil5 {fill:#823320}
    .fil2 {fill:#863100}
    .fil15 {fill:#994713}
    .fil0 {fill:#B8B8B8}
    .fil7 {fill:#C45B1B}
    .fil11 {fill:#D89469}
    .fil6 {fill:#D9812F}
    .fil3 {fill:#E36B23}
    .fil14 {fill:#EA9C64}
    .fil12 {fill:#EC914C}
    .fil13 {fill:#ECB08A}
    .fil4 {fill:#FF7A19}
    .fil16 {fill:#FF7300;fill-rule:nonzero}
   ]]>
  </style>
 </defs>
 <g id="Слой_x0020_1">
  <metadata id="CorelCorpID_0Corel-Layer"/>
  <circle class="fil0" cx="250" cy="250" r="236"/>
 </g>
 <g id="Слой_x0020_1_0">
  <metadata id="CorelCorpID_1Corel-Layer"/>
  <path class="fil1" d="M130.5 169.55c1.14,9.13 -1.77,9.96 1.96,13.17 0.77,0.67 0.57,-0.14 1.5,1.37 -0.78,2.07 -0.16,1.31 -3.28,2.85l0.46 2.85 3.87 1.37c2.4,0.27 3.43,0.67 5.48,1.56 0.52,1.55 0.56,-0.68 -0.38,0.73 -1.27,1.9 -0.83,-1.22 -0.33,0.42 1.4,0.6 4.43,1.38 5.42,1.97 3.92,2.34 0.87,1.47 0.99,2.23 3.72,1.91 3.48,-0.39 5.03,1.07 1.7,1.6 -0.09,0.58 0.6,4.19l-21.12 -2.69c-0.05,3.34 -0.4,2.75 0.74,5.02l4.54 0.41c5.7,0.56 1.79,-0.15 7.35,-1.09 -0.56,4.61 -2.21,2.33 -1.07,4.56 1.14,2.21 0.9,0.45 3.64,2.34 -0.15,0.15 -0.39,0.28 -0.5,0.39 -0.81,0.85 -1.43,1.13 -1.44,2.85l-5.32 -0.14c4.36,0.31 5.72,1.03 7.87,2.96 -1.1,1.52 -0.18,0.83 -1.9,1.74 -1.1,0.57 -1.14,0.34 -2.34,0.43 3.46,0.04 1.75,-0.06 2.81,2.01 -3.59,0.07 -3.94,0.02 -7.05,0.9 -2.72,0.76 -4.02,0.51 -6.9,0.54 4.67,2.63 13.76,1.47 18.39,3.99 -0.82,2.42 0.47,0.05 -1.56,1.73 -5.26,4.36 -7.52,4.33 -17.47,4.65l0.14 21.25 6.82 0.41 -1.86 3.04c-0.03,-0.12 -0.19,0.25 -0.29,0.37 2.92,0.11 3.63,-0.21 5.59,0.89 -4.82,0.62 -2.56,-0.26 -3.51,2.24l4.91 -0.69c0.3,2.59 0.14,1.78 0.06,2.01l-1.75 8.11c1.26,2.91 -0.06,1.52 0.93,4.08 0.84,2.14 1.26,-0.14 1.41,6.38 2.28,0.18 2.38,0.57 4.67,0.83 -2.08,-0.41 2.26,4.67 2.51,5.36l-3.59 1.7c1.37,1.13 1.19,0.39 4.24,1.52 1.36,0.5 -0.53,0.23 1.46,0.59 -2.13,0.42 -1.61,0.63 -2.11,2.8 2.66,-1.19 3.75,-1.9 4.74,1.46 1.66,5.66 -1.06,2.45 3.84,4.96 -3.29,1.92 -1.84,3.73 -3.63,7.18l-1.94 0.11c-0.06,-0.11 -0.19,0.16 -0.3,0.23 -0.2,2.74 -0.73,1.63 0.49,2.91 0.24,-0.11 0.55,-0.56 0.73,-0.35 0.15,0.19 0.94,-0.42 1.49,-0.54 2.38,-0.49 -0.05,-0.56 3.16,-0.16 1.8,5.9 -5.07,7.89 -9.39,12.05 -2.36,2.26 -0.74,0.4 -0.92,1.5 -0.65,4.17 1.5,-2.61 -0.02,1.25 -0.56,1.42 -6.12,5.28 -8.34,7.88 -2.76,3.23 0.34,1.35 -2.15,3.5l1.99 0.45c-1.54,1.95 -1.83,1.48 -3.1,3.7 5.86,-3.03 9.71,-6.11 14.05,-9.71 0.49,1.77 -0.35,0.91 1.38,1.36 -9.42,6.91 2.75,0.96 -5.53,17.35l-0.52 0.92c-1.72,3.29 -0.96,2.41 -1.76,5.62 0.02,0.01 0.09,2.93 2.3,-0.36 -0.28,3.75 -1.7,1.52 0.79,3.98 9.23,-0.79 90.38,0 106.99,0.01 25.3,0.02 48.69,-0.23 74.12,-0.04 33.51,3.4 29.24,-19.12 29.2,-45.63 -0.05,-29.48 4.19,-63.38 -2.36,-72.23l2.83 -2.36c-0.67,-0.96 -3.45,-3.13 -2.83,-3.78 2.38,-2.51 -2.51,-7.93 -2.56,-14.23 -0.71,-0.36 -1.43,0.36 -2.9,-0.67 -1.29,-0.9 -0.75,1.73 -1.47,-2.89 0.14,-0.1 1.03,-2.75 3.83,-0.15 0.06,0.06 0.18,0.27 0.21,0.42 1.67,-7.63 -0.89,-5.47 -1.77,-8.38 -1.2,-3.98 0.37,-1.09 1.51,-3.73 0.59,-1.38 0.4,-3.63 0.58,-5.31 -1.95,-0.8 -5.14,-0.07 -6.77,1.06l-2.58 1.71c-1.08,-1.14 -0.51,0.06 -1.32,-1.63 -0.8,-1.66 -0.57,1.52 -0.39,-1.74 0.1,-1.86 0.77,-1.87 1.61,-2.86 -3.32,0.53 -1.9,1.54 -4,-0.25 -1.15,-0.97 -1.46,-2.43 -1.1,-3.55 -2.49,-0.45 -0.88,0.81 -2.81,-0.68 1.47,-0.9 2.71,-1.86 2.41,-4.1 -0.6,-4.39 -4.55,-2.6 -6.33,-2.21 2.26,-2.09 5.05,-4.14 6.94,-6.4 -4.23,-1.7 -1.29,-0.08 -5.81,0.84 0.68,-2.63 11.94,-11.81 14.33,-13.6 -2.22,1.36 -3.87,2.27 -5.72,3.48 -1.51,0.98 -3.36,2.86 -5.04,2.32 -0.45,-1.4 1.22,-2.55 2.4,-3.56 1.48,-1.28 2.19,-1.37 2.5,-3.4 0.56,-3.65 -2.7,0.42 0.76,-3.88 1.05,-1.31 2.14,-2.31 3.34,-3.24l-0.82 -1.7c-0.16,-2.13 1.14,-0.54 -0.01,-3.95l-3.88 2.36 2.35 -4.68 -2.67 -2.62c-0.05,-0.22 -0.21,-0.25 -0.32,-0.38 2.07,-3.7 1.14,-0.81 2.45,-2.31 0.9,-1.03 0.68,-1.66 0.28,-3.2l-3.53 2.81 1.13 -3.18c0.05,-0.08 0.18,-0.23 0.22,-0.3l0.92 -2.4c-0.22,0.1 -0.25,0.36 -0.89,0.75 -2.18,1.33 0.79,0.13 -2.51,1.24 0.61,-3.09 0.28,-1.87 1.38,-3.98l-19.98 -0.16c-0.3,1.94 -0.69,4.99 -1.41,5.95 -2.7,3.65 -0.56,-3.52 -2.72,2.44l-1.11 -5.09c-1.45,4.59 -1.62,6.49 -4.63,9.47 0,-1.5 0.13,-3.45 -0.01,-4.9 -0.19,-2.01 0.14,-0.72 -0.51,-2.45 -1.2,-3.21 -0.09,-0.53 -1.1,-1.93l-0.5 12.63c-0.95,-0.86 -0.36,-0.04 -1.12,-1.55l-0.71 -1.49c-0.07,-0.14 -0.21,-0.4 -0.28,-0.52 -0.06,-0.12 -0.16,-0.36 -0.28,-0.52l-1.13 6.28c-1,-0.72 -0.8,-2.79 -2.41,-2.82 -2.47,0.98 -1.16,-1.61 -1.79,2.05 -0.37,-4.73 0.5,-1.85 -1.77,-2.78 -1.8,0.77 -1.34,0.24 -1.87,2.11 -0.64,-1.24 -0.54,-2.12 -1.08,-3.12 -1.45,-2.71 -0.12,-0.8 -1.99,-1.47l-3.59 -1.68c-0.64,-0.56 -0.13,1.62 -0.54,-0.79 -2.46,-5.96 0.77,-4.33 -3.36,-7.99 -1.24,-1.1 -2.11,-1.73 -3.96,-1.71 -3.35,0.05 -2.04,0.05 -3.02,2.16 -0.23,-0.06 -0.52,-0.5 -0.63,-0.33l-2.07 -1.29c-3.18,-1.55 -111.7,-0.57 -124.83,-0.57 2.35,3.69 1.46,0.71 4.1,1 3.38,5.31 2.98,3.25 3.73,6.61 0.27,1.24 0.43,1.48 0.85,2.26 -1.68,-0.97 -8.22,-6.54 -9.36,-8.98 -1.24,3.49 -1.16,1.07 -0.44,3.41 2.47,8.05 -0.28,5.98 3.14,10.24 4.54,5.64 -2.28,1.11 3.23,5.92 1.9,1.66 3.85,2.55 4.14,5.9l-5.59 -3.64c1.75,3.39 0.62,-0.43 2.82,4.99 -1.55,-0.45 -6.31,-3.53 -7.14,-4.67 1.02,2.31 5.1,6.23 7.01,7.63 -0.94,0.56 -2.8,1.58 -3.44,1.58l-9.76 -5.13c0.14,2.4 -0.81,0.34 2.07,3.31l5.47 5.76c-5.29,-1.44 -3.85,-0.5 -5.01,-0.41 -2.41,0.19 -2.52,-1.22 -5.8,-1.62 0.13,0.13 0.32,0.31 0.4,0.4 0.09,0.08 0.29,0.29 0.39,0.39l1.99 1.83c-5.51,-2.03 0.04,-1.01 -9.89,-3.9 -1.24,-0.36 -1.52,-0.71 -3.39,-1.17z"/>
  <path class="fil2" d="M317.82 127.56l-0.89 -0.23c0.62,-2.26 0.6,-5.42 1.26,-7.67 0.79,-2.73 2.86,-4.01 1.1,-6.58 -2.17,1.86 -1.38,2.2 -1.63,5.56 -2.22,-3.01 -2.35,-0.08 -4.34,-2.87 -1.55,8.26 0.11,5.44 -2.57,6.68l1.2 -8.03c-0.1,-0.08 -0.32,-0.13 -0.36,-0.13 -1.11,-0.01 -1.11,0.06 -1.16,1.19 -0.85,-2.06 -0.85,-1.45 -1.87,-3.07l0.52 3.3c0.32,2.62 0.21,1.52 0.99,3.58 -3.42,0.01 -1.9,0.72 -3.43,-1.4 -0.71,1.36 -0.17,1.43 -1.59,2.82 -1.1,-1.04 -1.5,-1.28 -2.41,-2.28l-1.15 5.83c-1.53,0.55 0.87,1.1 -0.62,-0.21l-0.73 3.81 -19.31 -0.1c-0.92,1.45 -1.55,4.23 -4.28,2.13 -1.72,-1.33 0.76,-0.98 -2.14,-1.98l-29.25 -0.08c-5.84,-0.43 0.04,-1.52 -7.21,-0.22 -5.37,0.97 -106.75,0.21 -117.41,0.21l0 32.06c0.05,8.49 0.9,7.73 -2.13,8.54l0 2.14 2.13 0 0 13.24c2.97,0.67 1.79,1.34 1.5,2.69l9.1 3.3 -0.46 -2.85c3.12,-1.54 2.5,-0.78 3.28,-2.85 -0.93,-1.51 -0.73,-0.7 -1.5,-1.37 -3.73,-3.21 -0.82,-4.04 -1.96,-13.17l1.8 -10.8c4.58,0.51 0.29,-0.09 2.96,-1.43l10.11 6.54c-1.87,-3.3 2.9,-2.1 -1.68,-5.02l1.18 -0.78c2.19,-1.64 1.82,-0.96 2.18,-2.46 -2.4,-3.21 -1.57,2.02 -6.77,-4.77 -1.57,-2.05 -2.06,-2.13 -3.99,-3.2 -1.93,-1.07 -0.18,0.2 -2.13,-1.38 -5.3,-4.3 -2.46,-3.56 -2.4,-6.45 0.11,-4.74 -1.36,0.22 -0.53,-1.85 3.54,-0.47 15.79,-0.32 19.75,-0.11 13.13,0 121.65,-0.98 124.83,0.57l2.07 1.29c0.11,-0.17 0.4,0.27 0.63,0.33 0.98,-2.11 -0.33,-2.11 3.02,-2.16 1.85,-0.02 2.72,0.61 3.96,1.71 4.13,3.66 0.9,2.03 3.36,7.99 0.41,2.41 -0.1,0.23 0.54,0.79l3.59 1.68c1.87,0.67 0.54,-1.24 1.99,1.47 0.54,1 0.44,1.88 1.08,3.12 0.53,-1.87 0.07,-1.34 1.87,-2.11 2.27,0.93 1.39,-1.96 1.77,2.78 0.63,-3.66 -0.68,-1.07 1.79,-2.05 1.61,0.03 1.41,2.11 2.41,2.82l1.13 -6.28c0.12,0.16 0.22,0.4 0.28,0.52 0.07,0.12 0.21,0.38 0.28,0.52l0.71 1.49c0.76,1.51 0.17,0.69 1.12,1.55l0.5 -12.63c1.01,1.4 -0.1,-1.28 1.1,1.93 0.65,1.73 0.32,0.44 0.51,2.45 0.14,1.45 0.01,3.4 0.01,4.9 3.01,-2.98 3.18,-4.88 4.63,-9.47l1.11 5.09c2.16,-5.96 0.02,1.21 2.72,-2.44 0.72,-0.96 1.11,-4.01 1.41,-5.95l19.98 0.16 11.97 -0.11c0.51,1.51 0.08,0.92 -0.88,3.1 1.21,-0.65 1.75,-1.08 2.07,-0.97 -0.37,5.77 0.88,7.12 -1.22,10.96 -1.14,2.07 1,-0.12 -1.32,1.89 1.27,0.73 1.36,-0.23 2.54,0.68 -0.53,3.05 -0.17,11.94 0.22,17.1 0.14,1.79 0.31,7.7 -0.07,9.19 -1.09,4.27 -2.52,-0.28 -3.47,6.48 3.2,2.11 1.56,-0.82 3.07,1.86l0.57 13.05c-0.18,1.68 0.01,3.93 -0.58,5.31 -1.13,2.64 -2.71,-0.25 -1.51,3.73 0.88,2.91 3.44,0.75 1.77,8.38 -0.03,-0.15 -0.15,-0.36 -0.21,-0.42 -2.8,-2.6 -3.69,0.05 -3.83,0.15 0.72,4.61 0.18,1.99 1.47,2.89 1.47,1.03 2.19,0.31 2.9,0.67 0.28,38.2 -0.11,77.3 -0.29,115.9l-23.63 0.5 -0.27 12.53 -0.09 9.3c-25.4,-0.19 -49.03,0.06 -74.12,0.04 -16.61,-0.01 -97.76,-0.8 -106.99,-0.01l-15.54 -0.59c-0.07,0.23 -2.06,1.16 0.33,0.17 1.5,-0.62 0.34,-0.04 1.48,-1.06l-1.78 -2.18c-0.03,-0.06 -0.11,-0.24 -0.13,-0.3 -0.03,-0.06 -0.09,-0.25 -0.1,-0.31 -0.23,-1.24 0.18,-1.42 0.91,-2.82 0.08,-0.16 1.12,-2.5 1.39,-3.55 0.58,-2.3 0.04,-1.99 1.31,-4.63l-3.42 0.83c3.38,-4.3 -3.55,1.07 -0.53,-5.8 1.16,-2.63 2.81,-1.62 4.62,-5.88 -2.12,0.52 -2.35,0.47 -3.9,1.37 -2.81,1.64 -1.05,0.64 -0.96,1.19 0.11,-0.21 0.06,-0.82 0.05,-0.98 -0.38,-5.72 -1.66,0.23 3.54,-7.6l7.22 -7.93c-2.56,0.92 -4.55,2.76 -6.5,2.49 -0.24,-0.03 0.59,-1.07 -1.51,0.33 -2.59,1.71 -0.21,0.99 -3.62,1.82l0.26 -5.32c0.13,-2.56 -0.23,-4.67 1.24,-5.84 0.46,-0.36 1.76,-0.97 2.61,-1.54 1.18,-0.78 0.53,-0.56 1.74,-1.27l-3.98 2.17c-1.46,0.65 1.16,-0.33 -1.92,0.77 0.52,-7.26 -0.78,-10.42 2.05,-13.01 -1.56,4.07 1.77,4.12 4.97,4.89 0.67,-5.01 0.84,-6.29 -4.02,-6.79l-2.97 1.47c1.39,-5.6 0.55,-16.76 0.79,-23.39 0.22,-5.85 -0.94,-14.43 -0.48,-21.64l-0.14 -21.25 -9.67 0.44c0.13,1.23 -0.33,12.86 -0.56,13.94l-9.31 -1.12c-2.17,-0.3 2.2,-1.39 -2.64,0.12 -2.97,0.93 1.84,0.48 -3.06,0.94l-11.78 -0.76 -1.43 3.54 -6.4 -1.4 -0.71 -0.71 -14.89 0.79c-2.34,0.33 -2.01,0.8 -4.35,1.35 0.07,3.03 0.32,4.26 3.32,4.12 1.79,-0.08 4.76,-0.56 7.99,-0.56l1.51 -0.94c2.78,2.96 -2.94,3.01 11.4,3.02 -1.23,-3.65 -2.74,-4.11 0.71,-5.61 4.96,3.4 -2.63,3.25 14.49,1.89 -1.15,-1.28 -3.17,-1.65 -4.1,-2.27 1.64,-2.72 3.53,-1.29 8.11,-1.23 3.83,0.06 7.28,0.19 11.13,0.56l-14.19 1.32c0.17,0.18 0.42,0.35 0.57,0.47 3.5,2.8 1.45,0.27 2.51,1.85l-8.99 0.45c2.13,3.39 2.29,-0.96 1.87,3.24 -0.2,2.02 0.04,0.53 -1,1.89l-1.27 1.28c4.23,-0.4 10.99,-1.86 13.85,-0.62 -0.4,5.87 -0.38,1.46 -7.24,2.03 -3.39,0.29 -6.62,0.68 -10.01,1.01 1.05,2.1 1.33,1.66 2.13,3.86l-2.69 2.76c3.55,0 6.94,-1.61 10.51,-0.3 5.37,-0.15 9.14,-2.11 14.14,-3.03l-0.16 13.16c-4.09,0.95 -10.92,4.54 -12.81,5.09l12.97 -4.22 0.19 15.78 -0.07 7.16c-1.78,0.69 -3.39,2.04 -4.93,2.8 -2,0.99 -2.53,0.97 -4.81,2.55 2.18,0.09 7.32,-2.46 9.78,-3.58 -0.26,3.03 -0.27,7.69 -0.77,8.75 -4.67,0.44 -0.57,-0.33 -5.37,-1.08 -2.23,2.09 -5.59,3.45 -8.13,5.26 -0.04,0.03 -1.26,0.99 -1.28,1 -0.97,0.89 -0.42,0.29 -1.08,1.54l5.7 -1.96c-2.3,1.36 -4.21,2.23 -5.82,4.18 5.83,-1.64 11.1,-6.1 16.55,-8.11 -0.74,3.7 -2.77,2.33 -6.97,6.2 2.2,1.32 -0.06,2.71 6.96,-1.27 0.04,4.88 -0.54,4.83 -1.1,9.08 -2.81,-0.81 -1.76,-2.22 -5.21,-0.11l-13.87 8.52c1.23,1.21 -1.94,1.77 3.64,1.22 -0.42,1.95 -0.47,2.1 0.31,3.44 3.39,-0.85 11.58,-7.65 16.26,-10.15l0.08 4.01 -0.22 3.17 3.03 0.69c3.55,2.16 0.97,0.32 1.5,1.45 -0.95,1.74 1.07,-0.27 -0.79,1.01 -1.74,1.2 -1.49,0.82 -4.71,0.94 2.64,3.96 0.45,4.33 1.59,10.57 -4.09,1.27 -5.06,2.25 -9.18,5.69l-10.14 8.39c-3.8,4.35 -3.45,0.53 -5.39,5.91 -1.34,3.71 -0.37,2.3 -3.43,4.21 -1.94,1.87 -2.55,2.46 -2.85,6.02 4.59,2.43 5.05,2.39 13.01,-5.51l4.09 -4.46 -2.18 -0.31 3.36 -5.58c6.26,-5.03 -2.41,-0.92 7.81,-8.58 2.05,-1.54 2.43,-1.65 4.26,-3.53l0.28 12.9c0.12,2.49 2.87,1.5 5.76,1.61 1.04,-0.02 2.6,-0.18 3.53,-0.11 2.13,0.15 -0.71,-0.23 1.3,0.16 2.06,0.4 0.92,0.14 1.69,0.59l0.55 -0.04c2.53,-1.04 4.22,-0.59 7.44,-0.62 1.25,-4.29 3.75,-4.54 4.3,-0.42 0.57,4.3 -9.54,13.41 -7.97,21.02 2.44,-3.75 3.69,-6.72 5.9,-10.98 2.87,-5.54 2.19,-0.24 4.95,-3.69 0.61,-0.76 0.65,-2.88 0.63,-2.99 -0.31,-2.08 -0.78,-0.91 -1.01,-3l6.41 0 0 2.14 2.14 0c-0.67,-3.15 -2.14,-2.15 9.26,-2.14l197.33 0c0,-7.67 -0.82,-136.97 0.48,-142.67l-0.54 -10.49c1.03,-3.76 0.55,-0.74 -0.65,-4.98 0.71,-0.85 0.58,-1.33 1.42,-1.87l-1.95 -3.83c3.9,-1.82 1.99,1.19 4.66,0 0.57,-7.2 -1.82,-1.17 -3.62,-5.7 0.89,-2.03 -1.68,0.79 1.17,-1.09 0.55,-0.36 0.86,-0.31 1.42,-0.66 3.4,-2.12 1.16,0.37 2.59,-3.12l-4.18 0.01c-0.09,-0.18 -0.36,0.01 -0.53,-0.04 -1.51,-7.05 1.62,-2.59 -0.18,-6.11l-0.01 -18.2 0.17 -1.42c-0.6,-12.62 -0.7,-29.12 -0.14,-42.02l-5.14 -0.23 3.14 -3.09c-0.16,-0.14 -0.42,-0.25 -0.55,-0.34l-2.22 -1.85c-0.99,-1.45 -0.15,-0.89 -0.65,-2.69 -1.48,1.95 -2.65,3.34 -3.93,5.34 -1.84,2.86 -1.29,3.17 -5.33,2.45 0.14,-0.1 3.44,-3.15 3.9,-3.98l-0.07 -2.04c-0.89,1.19 -0.72,2.15 -3.35,1.44 -2.94,-0.79 -0.86,-0.24 -2.19,-2.73 -1.18,2.58 -2.63,0.01 -3.45,2.99 -0.81,2.92 1.17,1.07 2.7,1.87 -1.12,1.65 -0.95,1.42 -2.61,2.72 -1.32,-0.99 -1.28,1.11 -1.54,-2.69 -0.05,-0.71 0.3,-1.05 0.44,-2.79 -2.85,2.32 -1.76,4.81 -5.69,5.28l3.36 -5.63c1.26,-1.94 2.36,-2.89 2.22,-5.37 -0.14,-2.5 -1.48,-3.54 -0.08,-6.52 0.89,-1.91 2.4,-3.03 2.08,-4.75 -2.94,1.1 -8.18,16.7 -12.56,22.6l-13.52 -0.26z"/>
  <path class="fil3" d="M374.15 82.23l-0.72 0.71 -0.71 1.42 -0.71 0.72 -0.63 0.71 0 0.71 -0.8 0.71 -0.61 0.72 0 0.71 -0.7 0.71c-0.97,3.5 -5.67,8.58 -7.75,12.3 -1.5,2.7 -6.79,9.93 -7.34,12.63l3.61 2.41 -5.71 6.75c-0.46,0.83 -3.76,3.88 -3.9,3.98 4.04,0.72 3.49,0.41 5.33,-2.45 1.28,-2 2.45,-3.39 3.93,-5.34 0.5,1.8 -0.34,1.24 0.65,2.69l2.22 1.85c0.13,0.09 0.39,0.2 0.55,0.34l-3.14 3.09 5.14 0.23c-0.56,12.9 -0.46,29.4 0.14,42.02 4.14,-1.34 34.66,-21.32 39.74,-24.83 1.61,-1.11 4.63,-3.06 5.6,-4.38 -0.72,-2.7 -1.39,-1.8 -2.14,-4.99 -5.38,0.45 -26.79,18.09 -32.77,22.09 0.72,-2.68 1.15,-2.28 3.42,-3.71 6.79,-4.26 -0.13,-2.54 8.11,-7.56 1.71,-1.03 3.07,-1.98 4.72,-3.11l33.39 -23.66c3.93,-3.46 -2.01,-0.93 4.58,-6.04l13.46 -10.06c-1.55,-2.31 -3.44,-3.27 -4.28,-6.41 -3.13,0.26 -5.93,3.36 -9.57,6.1l-27.06 21.37c-3.25,2.55 -32.53,28.06 -35.31,28.8 -0.38,-1.62 -0.56,-1.63 -0.72,-3.56 2.21,-0.59 3.63,-2.28 6.25,-4.44 2.21,-1.82 4.21,-3.22 6.48,-4.92 5.42,-4.05 33.35,-27.1 37.14,-29.11 -0.73,-3.12 -1.85,-2.97 -2.14,-6.41 2.22,-0.59 6.63,-4.51 8.85,-6.11l60.25 -47.31c-0.65,-2.78 -3.34,-5.75 -5.7,-9.27 -6.77,1.58 -5.75,2.38 -10.38,6.01 -3.49,2.73 -24.1,21.81 -26.66,22.49 -1.27,-1.9 -2.29,-3.8 -3.56,-5.7 -10.48,5.03 -5.95,3.96 -12.72,9.37 -1.91,1.52 -2.41,1.79 -4.21,3.63 -2.76,2.83 -5.02,4.26 -7.83,7.13 -1.73,1.77 -2.13,2.11 -4.15,3.68 -1.85,1.43 -2.43,2.31 -4.03,3.8 -1.63,1.52 -2.3,1.68 -3.94,3.19l-15.66 14.29c-5.39,5.69 -1.83,-2.06 -8.91,5.31 -1.46,1.52 -2.45,2.64 -4.09,3.74l0 -3.56 -2.85 0 16.54 -19.83c0.93,-1.11 1.75,-2.21 1.73,-3.55 -0.06,-3.6 -0.63,-2.92 -3.31,-2.98 2.09,-3.95 14.92,-18.2 18.21,-22.39l9.04 -10.91c5.54,-6.21 7.65,-7.66 7.65,-13 -1.4,-0.68 -3.28,-1.03 -4.98,-1.43 -1.18,1.77 -2.28,2.74 -3.71,4.84 -1.37,2.04 -2.45,3.35 -3.93,5.33 -1.47,1.96 -2.45,3.65 -3.76,5.5 -3.58,5.04 -16.73,25.76 -18.52,27.07 -0.19,-2.2 0.01,-1.34 -0.71,-2.84 -5,0 -3.64,-1.15 -6.41,0.71z"/>
  <path class="fil4" d="M177.98 296.14l16.6 -0.13 6.04 -23.32c2.04,-8.27 -1.61,-6.53 21.79,-6.54 3.46,0 8.23,-0.56 10.97,0.58l8.01 29.24 18.03 0.12c-0.73,-6.16 -29.95,-104.56 -31.38,-106.83l-14.9 -0.09c-3.96,-0.06 -6.39,-1.11 -7.02,2.05 -0.52,2.63 -0.05,5.1 -0.95,8.43 -4.08,15.22 -26.67,89.59 -27.19,96.49z"/>
  <path class="fil3" d="M110.82 308.57c-2.75,1.62 -6.41,3.62 -8.78,4.71 -6.32,2.92 -5.83,-0.11 -8.57,-0.25 -1.38,1.87 -4.9,2.23 -8.03,2.5l0.19 -1.78c-3.58,0.64 -6.8,2.13 -9.02,5.1 -0.05,0.06 -0.15,0.24 -0.21,0.3 -1.13,1.22 -7.4,3.22 -9.19,3.95 -4.59,1.86 -37.92,15.94 -39.73,18.69 -1.77,2.67 0.93,1.39 -3.54,3.58 -2.04,1 -2.78,1.25 -4.97,2.16 -3.49,1.44 -6.94,3.91 -10.27,4.68 0.31,3.7 2.04,4.38 2.85,7.84 3.1,-0.26 25.59,-11.92 30.79,-14.8 13.08,-7.24 26.81,-13.89 39.6,-21.67 3.49,-2.12 6.81,-3.35 10.11,-5.56l0.8 2.82c-3.93,0.11 -1.74,0.04 -3.65,1.46 -0.12,0.09 -0.26,0.24 -0.38,0.33l-1.27 0.86c-6.66,3.92 -27.16,12.5 -31.73,16 -0.12,0.1 -0.27,0.24 -0.38,0.33 -0.12,0.1 -0.26,0.25 -0.37,0.35 -3.27,2.83 -15.21,9.12 -18.59,9.91 0.05,2.17 0.33,2.59 0.72,4.27 -6.91,3.65 -13.75,7.03 -20.66,10.69 0,2.78 -0.31,3 1.62,4.78l1.23 0.92c4.21,-1.13 10.2,-6.79 14.24,-7.13 0.67,2.48 0.66,2.61 3.57,2.85 -0.97,1.32 -28.69,17.74 -32.06,18.52 0.23,2.77 1.11,4.47 2.14,6.41 5.39,0 9.38,-3.44 14.73,-6.63l37.84 -22.72c3.03,-1.08 3.69,0.85 3.7,0.86 -2.21,0.59 -11.93,7.28 -15.67,9.26 0,1.65 -0.27,2.56 0.42,3.89 1.54,2.92 0.52,-0.81 2.43,1.99l25.16 -14.99c1.26,-0.51 2.84,-0.14 5.47,-1.57 2.1,0.47 0.61,0.41 2.35,-0.48 0.44,-0.23 1.86,-1.25 2.64,-1.66 0,0.74 -0.09,2.24 -0.03,2.9 0.23,2.34 -0.25,1.76 0.74,2.09 5.5,0.39 2.22,1.12 6.8,-2.45 1.99,-1.55 4.54,-4.05 6.36,-4.58 -3.76,2.39 -5.6,5.62 -9.73,6.58 0,-4.08 -1.38,-0.96 3.26,-4.31l12.55 -9.49c-0.37,-0.25 -0.52,0.62 -1.94,-0.88l-0.91 -1.26c5.84,-3.77 4.16,-1.93 7.19,-3.03 0.43,-0.16 1.32,-0.67 1.93,-1.24 -2.37,1.42 -1.47,-1.02 -1.2,-1.87 0.46,-1.42 7.8,-5.93 9.13,-6.29l-0.08 -4.01c-4.68,2.5 -12.87,9.3 -16.26,10.15 -0.78,-1.34 -0.73,-1.49 -0.31,-3.44 -5.58,0.55 -2.41,-0.01 -3.64,-1.22l13.87 -8.52c3.45,-2.11 2.4,-0.7 5.21,0.11 0.56,-4.25 1.14,-4.2 1.1,-9.08 -7.02,3.98 -4.76,2.59 -6.96,1.27 4.2,-3.87 6.23,-2.5 6.97,-6.2 -5.45,2.01 -10.72,6.47 -16.55,8.11 1.61,-1.95 3.52,-2.82 5.82,-4.18l-5.7 1.96c0.66,-1.25 0.11,-0.65 1.08,-1.54 0.02,-0.01 1.24,-0.97 1.28,-1 2.54,-1.81 5.9,-3.17 8.13,-5.26 4.8,0.75 0.7,1.52 5.37,1.08 0.5,-1.06 0.51,-5.72 0.77,-8.75 -2.46,1.12 -7.6,3.67 -9.78,3.58z"/>
  <path class="fil3" d="M274.41 127.91c2.9,1 0.42,0.65 2.14,1.98 2.73,2.1 3.36,-0.68 4.28,-2.13l19.31 0.1 0.73 -3.81c1.49,1.31 -0.91,0.76 0.62,0.21l1.15 -5.83c0.91,1 1.31,1.24 2.41,2.28 1.42,-1.39 0.88,-1.46 1.59,-2.82 1.53,2.12 0.01,1.41 3.43,1.4 -0.78,-2.06 -0.67,-0.96 -0.99,-3.58l-0.52 -3.3c1.02,1.62 1.02,1.01 1.87,3.07 0.05,-1.13 0.05,-1.2 1.16,-1.19 0.04,0 0.26,0.05 0.36,0.13l-1.2 8.03c2.68,-1.24 1.02,1.58 2.57,-6.68 1.99,2.79 2.12,-0.14 4.34,2.87 0.25,-3.36 -0.54,-3.7 1.63,-5.56 1.76,2.57 -0.31,3.85 -1.1,6.58 -0.66,2.25 -0.64,5.41 -1.26,7.67l0.89 0.23 2.58 -12.71c0.4,-5.75 1.66,-9.11 2.7,-14.1 -0.46,-3.41 3.77,-32.47 4.56,-37.96 1.18,-8.16 -0.08,-6.92 -6.94,-6.92 0,11.52 -3.56,23.46 -3.56,34.91 -1.99,-1.46 -1.73,-3.51 -1.41,-7.08l3.15 -23.95c0.75,-5.37 1.17,-11.28 1.7,-16.11 1.17,-10.79 1.69,-7.12 -7.01,-9.14l-1.28 14.39c-0.49,4.26 1.04,3.05 -2.28,3.42 0,9.35 -1.46,17.74 -1.42,27.07l-0.83 15.52c-0.86,4.41 -1.31,0.06 -1.31,9.41l0.14 -14.14c2.08,-9.13 0.74,-2.32 0.44,-6.23 0,-0.01 0.08,-2.16 0.09,-2.37 0.17,-4.08 0.06,-5.47 -0.67,-8.6 -3.36,0 -3.19,0.12 -5.7,0.71 0,7.6 -0.12,17.34 -0.41,21.75 -0.34,5.15 0.41,15.45 0.41,23.13l-0.71 -5.7 -4.27 0c1.74,-3.63 0.3,-10.6 0,-14.25l-4.28 0 -0.71 4.99c0,-5.69 0.33,-9.62 0.71,-14.25l-6.41 -0.36c0,3.29 0.3,4.08 -1.43,6.06l0 -11.4 -3.56 0c0,3.4 0.2,5 0.52,7.32 0.23,1.69 1.05,13.98 -0.04,16.16 -0.01,0.02 -0.54,0.7 -0.73,1.16 -0.7,1.73 -0.46,1.8 -0.46,3.86l2.82 -0.8c0.03,5.42 -0.27,9.97 0.74,14.33 -2.17,0.05 -2.59,0.32 -4.27,0.71 0,-7.41 -0.64,-8.18 -0.71,-11.39 -2.77,0.23 -1.86,0.64 -4.99,0.71 0.76,3.25 1.42,8.21 1.42,12.2z"/>
  <path class="fil3" d="M106.3 269.28c-4.22,3.04 -0.34,-1.22 -11.15,1.97 -3.14,0.93 -9.38,2.23 -11.65,3.32 0.98,4.21 0.12,4.78 7.12,6.41 0.07,-2.8 -0.19,-1.67 0.72,-3.56 2.28,0.53 1.93,0.79 3.47,-0.06 3.04,-1.68 5.38,-3.51 12.2,-3.51 -0.14,0.1 -0.38,0.05 -0.45,0.26 -0.08,0.21 -0.36,0.21 -0.46,0.26l-7.64 2.33 0 3.56c-3.53,0.3 -12.55,3.81 -16.3,5.08l-24.57 8.19c-1.78,0.59 -2.54,0.77 -4.34,1.37 -2.32,0.77 -3.04,0.52 -3.16,2.55 -0.23,3.83 4.87,0.62 6.44,0.02 2.82,-1.09 5.95,-1.76 8.45,-2.96 -0.76,2.83 -0.1,1.53 -2.5,2.49 -1.17,0.46 -2.8,0.82 -3.91,1.07 0,3.41 0.48,2.96 0.71,5.7 6.96,0 8.07,-3.1 13.53,-3.56 -0.79,1.93 0.09,2.32 0.72,4.99 7.26,-0.16 9.86,-4.99 17.81,-4.99 0.27,3.31 -0.77,1.25 1.42,2.85 2.24,-1.18 3.7,-1.18 5.7,-2.14 -0.74,1.83 -0.04,0.79 -1.84,1.72l-14.6 5.15c-2.79,-0.03 -1.29,-1.17 -6.36,-1.17 -0.13,5.81 -2.58,4.34 -13.06,9.02l-15.43 6.65c0.69,2.98 1.34,1.96 1.42,5.7 5.63,0 30.35,-12.32 36.11,-15.67 0.75,-2.04 5.88,-3.19 8.1,-4.1 1.9,-0.79 3.02,-1.06 4.74,-1.8 5.57,-2.39 0.42,-1.73 8.7,-3.7 2.66,-0.63 2.85,-1.11 4.65,-1.87 3.54,-1.5 6.23,-2.84 9.74,-4.79l-0.19 -15.78 -12.97 4.22c1.89,-0.55 8.72,-4.14 12.81,-5.09l0.16 -13.16c-5,0.92 -8.77,2.88 -14.14,3.03z"/>
  <path class="fil5" d="M323.1 100.75c-1.04,4.99 -2.3,8.35 -2.7,14.1l-2.58 12.71 13.52 0.26c4.38,-5.9 9.62,-21.5 12.56,-22.6 0.32,1.72 -1.19,2.84 -2.08,4.75 -1.4,2.98 -0.06,4.02 0.08,6.52 0.14,2.48 -0.96,3.43 -2.22,5.37l-3.36 5.63c3.93,-0.47 2.84,-2.96 5.69,-5.28 -0.14,1.74 -0.49,2.08 -0.44,2.79 0.26,3.8 0.22,1.7 1.54,2.69 1.66,-1.3 1.49,-1.07 2.61,-2.72 -1.53,-0.8 -3.51,1.05 -2.7,-1.87 0.82,-2.98 2.27,-0.41 3.45,-2.99 1.33,2.49 -0.75,1.94 2.19,2.73 2.63,0.71 2.46,-0.25 3.35,-1.44l0.07 2.04 5.71 -6.75 -3.61 -2.41c0.55,-2.7 5.84,-9.93 7.34,-12.63 2.08,-3.72 6.78,-8.8 7.75,-12.3 -0.16,-0.99 -0.34,-0.71 0.7,-0.71l0 -0.71c-0.13,-0.95 -0.34,-0.72 0.61,-0.72l0.8 -0.71 0 -0.71c-0.11,-0.95 -0.32,-0.71 0.63,-0.71l0.71 -0.72 0.71 -1.42 0.72 -0.71c1.64,-6.15 7.09,-7.57 5.69,-13.54 -3.23,0.07 -2.11,-1.28 -5.38,4.6 -2.74,4.91 -0.96,3.35 -6.01,3.24l-8.75 16.18c-1.04,1.33 -0.22,1 -1.94,1.63 0.46,-2 0.56,-2.36 0.41,-4.03 -0.22,-2.41 -0.07,-2.44 -2.55,-3.1 1.05,-3.92 8.41,-11.14 2.14,-12.82 0.63,-2.72 2.49,-5.69 3.8,-8.31 0.84,-1.67 1.44,-2.62 2.23,-4.29 1.34,-2.84 0.93,-1.54 -0.33,-3.78l-3.1 1.88c-1.3,0.97 -0.28,0.03 -1.2,0.94 -2.69,2.67 -9.35,21.04 -11.39,25.65 -1.21,2.73 -3.57,7.74 -4.26,10.71l-0.48 -0.94c-1.49,-2.42 -0.98,-2.07 -3.08,-2.62 0.5,-5.97 12.25,-23.77 9.98,-28.5 -3.08,0.82 -2.2,1 -3.35,3.83 -1.45,3.55 -0.57,1.96 -4.49,1.87 -1.51,6.48 -6.11,14.22 -6.41,17.81 -3.1,-0.27 -1.1,0.19 -2.14,-4.28 -6,0.14 -4.27,6.41 -10.44,16.39z"/>
  <path class="fil4" d="M276.98 296.06l17.16 0.01 0.02 -78.18c-3.96,-1.1 -12.69,-0.55 -17.04,-0.42l-0.14 78.59z"/>
  <path class="fil6" d="M123.27 198.86c2.93,-1.11 4.85,-0.26 8.26,0.63 7.51,1.95 1.02,-0.54 7.96,-0.71l-3.88 -1.49c0.94,-5.4 0.19,-2.31 -0.66,-3.5l3.08 -1.12c-3.92,-0.63 -1.46,0.37 -2.56,-2.76l5.32 0.65 -4.26 -1.59 -10.03 -3.8c0.31,-1.57 1.62,-2.34 -1.65,-3.12 -1.79,1.17 -0.87,1.25 -1.58,2.82l-18.94 -6.68c1.12,-0.86 0.09,0.7 1.66,-1.55 -0.98,-1.96 -1.81,-2.81 -2.35,-4.94 -3.06,0.27 -2.05,0.75 -5.5,0.82 0.33,4.21 0.59,1.12 1.57,4.94 -3.72,-0.32 -5.62,-1.56 -8.64,-2.47l-62.84 -17.28c-1.37,2.71 -2.85,7.77 -3.14,11.52l54.41 12.12c2.3,0.88 1.91,1.14 4.55,1.82 12.04,3.1 14.6,1.29 18.02,6.63l-25.61 -6.12c-4.44,-0.97 -4.79,-1.34 -8.17,0.36l0 4.12c8.73,2.13 17.77,3.56 27.16,5.28 9.02,1.64 17.55,5.37 27.82,5.42z"/>
  <path class="fil3" d="M77 254.62c-0.98,2.04 -10.16,2.18 -13.43,2.15 -10.14,-0.08 -6.33,-0.33 -12.13,3.55 0.7,2.6 0.76,1.49 2.14,3.56 -2.8,0.75 -4.97,3.55 -6.41,5.7 1.33,1.98 2.4,3.5 3.56,5.7 7.56,0 22.52,-2.41 31.04,-3.87 4.86,-0.84 5.74,-1.53 9.57,0.31 0.23,-2.13 0.33,-1.81 1.42,-2.85 1.73,0.14 1.84,0.21 3.03,0.71l2.69 -2.76c-0.8,-2.2 -1.08,-1.76 -2.13,-3.86 3.39,-0.33 6.62,-0.72 10.01,-1.01 6.86,-0.57 6.84,3.84 7.24,-2.03 -2.86,-1.24 -9.62,0.22 -13.85,0.62l1.27 -1.28c1.04,-1.36 0.8,0.13 1,-1.89 0.42,-4.2 0.26,0.15 -1.87,-3.24l8.99 -0.45c-1.06,-1.58 0.99,0.95 -2.51,-1.85 -0.15,-0.12 -0.4,-0.29 -0.57,-0.47l14.19 -1.32c-3.85,-0.37 -7.3,-0.5 -11.13,-0.56 -4.58,-0.06 -6.47,-1.49 -8.11,1.23 0.93,0.62 2.95,0.99 4.1,2.27 -17.12,1.36 -9.53,1.51 -14.49,-1.89 -3.45,1.5 -1.94,1.96 -0.71,5.61 -14.34,-0.01 -8.62,-0.06 -11.4,-3.02l-1.51 0.94z"/>
  <path class="fil7" d="M87.06 364.33c0.64,1.91 0.57,1.94 1.43,3.56 -2.23,0.59 -16.32,11.35 -18.42,12.92 -3.1,2.33 -16.21,10.42 -17.2,14.15 0.86,0.95 0.77,0.9 1.42,2.13 3.14,-0.26 3.25,-0.91 5.3,-2.53 2.05,-1.61 2.48,-2 4.68,-3.17 1.67,6.28 5.63,1.24 13.04,-4.76l13.31 -10.2 2.14 1.11c3.06,-1.91 2.09,-0.5 3.43,-4.21 1.94,-5.38 1.59,-1.56 5.39,-5.91l10.14 -8.39c4.12,-3.44 5.09,-4.42 9.18,-5.69 -1.14,-6.24 1.05,-6.61 -1.59,-10.57 3.22,-0.12 2.97,0.26 4.71,-0.94 1.86,-1.28 -0.16,0.73 0.79,-1.01 -0.53,-1.13 2.05,0.71 -1.5,-1.45l-3.03 -0.69 0.22 -3.17c-1.33,0.36 -8.67,4.87 -9.13,6.29 -0.27,0.85 -1.17,3.29 1.2,1.87 -0.61,0.57 -1.5,1.08 -1.93,1.24 -3.03,1.1 -1.35,-0.74 -7.19,3.03l0.91 1.26c1.42,1.5 1.57,0.63 1.94,0.88l-12.55 9.49c-4.64,3.35 -3.26,0.23 -3.26,4.31 4.13,-0.96 5.97,-4.19 9.73,-6.58 -1.82,0.53 -4.37,3.03 -6.36,4.58 -4.58,3.57 -1.3,2.84 -6.8,2.45z"/>
  <path class="fil8" d="M352.86 201.14l-0.57 -13.05c-1.51,-2.68 0.13,0.25 -3.07,-1.86 0.95,-6.76 2.38,-2.21 3.47,-6.48 0.38,-1.49 0.21,-7.4 0.07,-9.19 -0.39,-5.16 -0.75,-14.05 -0.22,-17.1 -1.18,-0.91 -1.27,0.05 -2.54,-0.68 2.32,-2.01 0.18,0.18 1.32,-1.89 2.1,-3.84 0.85,-5.19 1.22,-10.96 -0.32,-0.11 -0.86,0.32 -2.07,0.97 0.96,-2.18 1.39,-1.59 0.88,-3.1l-11.97 0.11c-1.1,2.11 -0.77,0.89 -1.38,3.98 3.3,-1.11 0.33,0.09 2.51,-1.24 0.64,-0.39 0.67,-0.65 0.89,-0.75l-0.92 2.39c-0.04,0.08 -0.17,0.23 -0.22,0.31l-1.13 3.18 3.53 -2.81c0.4,1.54 0.62,2.17 -0.28,3.2 -1.31,1.5 -0.38,-1.39 -2.45,2.31 0.11,0.13 0.27,0.16 0.32,0.38l2.67 2.62 -2.35 4.68 3.88 -2.36c1.15,3.41 -0.15,1.82 0.01,3.95l0.82 1.7c-1.2,0.93 -2.29,1.93 -3.34,3.24 -3.46,4.3 -0.2,0.23 -0.76,3.88 -0.31,2.03 -1.02,2.12 -2.5,3.4 -1.18,1.01 -2.85,2.16 -2.4,3.56 1.68,0.54 3.53,-1.34 5.04,-2.32 1.85,-1.21 3.5,-2.12 5.72,-3.48 -2.39,1.79 -13.65,10.97 -14.33,13.6 4.52,-0.92 1.58,-2.54 5.81,-0.84 -1.89,2.26 -4.68,4.31 -6.94,6.4 1.78,-0.39 5.73,-2.18 6.33,2.21 0.3,2.23 -0.94,3.2 -2.41,4.1 1.93,1.49 0.32,0.23 2.81,0.68 -0.36,1.12 -0.05,2.58 1.1,3.55 2.1,1.79 0.68,0.78 4,0.25 -0.84,0.99 -1.51,1 -1.61,2.86 -0.18,3.26 -0.41,0.08 0.39,1.74 0.81,1.69 0.24,0.49 1.32,1.63l2.58 -1.71c1.63,-1.13 4.82,-1.86 6.77,-1.06z"/>
  <path class="fil6" d="M103.1 223.99c-2.99,-1.32 -3.55,0.09 -3.97,-3.65 2.19,0.93 3.82,1.86 7.12,1.91 11.64,0.15 4.03,0.21 14.85,-1.78 2.32,-0.42 5.42,0.26 8.7,0.29 1.61,-2.39 0.02,-2.99 2.3,-4.41 0.63,-0.39 0.86,-0.22 1.55,-0.55 -1,-0.84 -0.19,-0.38 -1.69,-1.02 0,0 -1.72,-0.56 -1.74,-0.56 -2.13,-0.57 -1.38,0.05 -3.36,-0.8l0.94 -0.34c2.49,-0.75 -0.36,0.14 1.31,-0.35 5.53,-1.64 2.43,-0.46 6.36,-0.83 2.31,-0.22 2.23,-0.61 3.02,-1.45 -1.83,-2.87 -2.58,-0.9 -3.47,-0.56 -3.73,1.46 -3.77,0.76 -5.85,-2.66 -0.07,-0.11 -0.19,-0.34 -0.31,-0.5 2.93,-0.43 5.58,0.31 7.11,-0.66l-4.53 -0.41c-3.04,-0.11 -4.25,-1.08 -7.07,-0.08l4.35 1.31c-2.19,1.58 -3.45,0.58 -5.33,0.57l-2.51 1.57 -41.26 -7.58c-3.86,-0.52 -2.95,0.19 -6.09,0.45l0 5.7 41.33 4.26c3.76,-0.04 4.11,-0.71 5.68,1.44l-17.01 1.5c-1.63,0.25 -1.28,0.15 -2.74,0.84 -6.53,3.08 -10.28,-1.61 -27.26,-0.2l0 5.7c4.09,0.34 8.67,0.84 14.18,1.48 3.9,0.46 11.37,1.37 15.39,1.37z"/>
  <path class="fil8" d="M130.6 319.36l-0.26 5.32c3.41,-0.83 1.03,-0.11 3.62,-1.82 2.1,-1.4 1.27,-0.36 1.51,-0.33 1.95,0.27 3.94,-1.57 6.5,-2.49l-7.22 7.93c-5.2,7.83 -3.92,1.88 -3.54,7.6 0.01,0.16 0.06,0.77 -0.05,0.98 -0.09,-0.55 -1.85,0.45 0.96,-1.19 1.55,-0.9 1.78,-0.85 3.9,-1.37 -1.81,4.26 -3.46,3.25 -4.62,5.88 -3.02,6.87 3.91,1.5 0.53,5.8l3.42 -0.83c-1.27,2.64 -0.73,2.33 -1.31,4.63 -0.27,1.05 -1.31,3.39 -1.39,3.55 -0.73,1.4 -1.14,1.58 -0.91,2.82 0.01,0.06 0.07,0.25 0.1,0.31 0.02,0.06 0.1,0.24 0.13,0.3l1.78 2.18c-1.14,1.02 0.02,0.44 -1.48,1.06 -2.39,0.99 -0.4,0.06 -0.33,-0.17l15.54 0.59c-2.49,-2.46 -1.07,-0.23 -0.79,-3.98 -2.21,3.29 -2.28,0.37 -2.3,0.36 0.8,-3.21 0.04,-2.33 1.76,-5.62l0.52 -0.92c8.28,-16.39 -3.89,-10.44 5.53,-17.35 -1.73,-0.45 -0.89,0.41 -1.38,-1.36 -4.34,3.6 -8.19,6.68 -14.05,9.71 1.27,-2.22 1.56,-1.75 3.1,-3.7l-1.99 -0.45c2.49,-2.15 -0.61,-0.27 2.15,-3.5 2.22,-2.6 7.78,-6.46 8.34,-7.88 1.52,-3.86 -0.63,2.92 0.03,-1.25 0.17,-1.1 -1.45,0.76 0.91,-1.5 4.32,-4.16 11.19,-6.15 9.39,-12.05 -3.21,-0.4 -0.78,-0.33 -3.16,0.16 -0.55,0.12 -1.34,0.73 -1.49,0.54 -0.18,-0.21 -0.49,0.24 -0.73,0.35l-0.01 2.08c-1.39,-0.06 -2.36,-0.53 -3.37,-1.4l-1.71 -2.37c-0.09,-0.18 -0.17,-0.46 -0.23,-0.62l-0.39 -1.31c-3.77,1.57 -5.74,3.68 -8.96,5.91l-8.05 5.4z"/>
  <path class="fil3" d="M388.39 167c-1.03,-1.54 -1.63,-2.1 -2.13,-4.28 -3.86,0.32 -12.15,6.91 -15.68,9.26 -0.94,-1.41 -1.29,-1.97 -2.13,-3.56 -2.21,1.17 -3.09,2.23 -5.62,2.85l0.01 18.2c2.65,-0.44 3.4,-2.38 7.74,-3.06l-0.94 1.96c1.41,1.58 -0.39,0.45 1.84,0.71l1.24 -0.67 35.36 -19.56c2.91,-1.68 3.17,-1.39 2.4,-4.7 -4.34,0.36 -8.88,5.69 -14.25,7.12 0.91,-3.43 0.52,-1.04 6.41,-4.98 -0.89,-1.69 -1.65,-2.91 -2.14,-4.99 -5.35,0.45 -7.59,4.65 -12.11,5.7z"/>
  <path class="fil8" d="M130.5 169.55c1.87,0.46 2.15,0.81 3.39,1.17 9.93,2.89 4.38,1.87 9.89,3.9l-1.99 -1.83c-0.1,-0.1 -0.3,-0.31 -0.39,-0.39 -0.08,-0.09 -0.27,-0.27 -0.4,-0.4 3.28,0.4 3.39,1.81 5.8,1.62 1.16,-0.09 -0.28,-1.03 5.01,0.41l-5.47 -5.76c-2.88,-2.97 -1.93,-0.91 -2.07,-3.31l9.76 5.13c0.64,0 2.5,-1.02 3.44,-1.58 -1.91,-1.4 -5.99,-5.32 -7.01,-7.63 0.83,1.14 5.59,4.22 7.14,4.67 -2.2,-5.42 -1.07,-1.6 -2.82,-4.99l5.59 3.64c-0.29,-3.35 -2.24,-4.24 -4.14,-5.9 -5.51,-4.81 1.31,-0.28 -3.23,-5.92 -3.42,-4.26 -0.67,-2.19 -3.14,-10.24 -0.72,-2.34 -0.8,0.08 0.44,-3.41 1.14,2.44 7.68,8.01 9.36,8.98 -0.42,-0.78 -0.58,-1.02 -0.85,-2.26 -0.75,-3.36 -0.35,-1.3 -3.73,-6.61 -2.64,-0.29 -1.75,2.69 -4.1,-1 -3.96,-0.21 -16.21,-0.36 -19.75,0.11 -0.83,2.07 0.64,-2.89 0.53,1.85 -0.06,2.89 -2.9,2.15 2.4,6.45 1.95,1.58 0.2,0.31 2.13,1.38 1.93,1.07 2.42,1.15 3.99,3.2 5.2,6.79 4.37,1.56 6.77,4.77 -0.36,1.5 0.01,0.82 -2.18,2.46l-1.18 0.78c4.58,2.92 -0.19,1.72 1.68,5.02l-10.11 -6.54c-2.67,1.34 1.62,1.94 -2.96,1.43l-1.8 10.8z"/>
  <path class="fil9" d="M372.72 188.41l-1.24 0.67 -0.46 3.23c-0.26,0 -7.46,-1.64 -3.78,2.11 1.1,1.13 2.37,1.17 4.48,0.21 3.1,-1.42 5.17,-3.55 8.7,-4.53 0.92,3.05 2.31,3.47 1.25,5.59 -1.51,3.05 0.1,-0.45 -3.8,2.77 -0.13,0.11 -0.64,0.72 -0.8,0.89 -4.02,-0.83 0.91,-1.5 -3.41,-0.84 -4.16,0.64 -3.99,3.36 -4.14,3.98 -0.04,0.18 -0.09,0.4 -0.14,0.59 -0.05,0.19 -0.11,0.38 -0.17,0.56 -0.05,0.18 -0.13,0.35 -0.18,0.52 -0.52,1.78 -0.89,-0.11 -0.62,3.31 -4.41,-0.14 -4.08,2.03 -4.95,2.54 -0.84,0.54 -0.71,1.02 -1.42,1.87 1.2,4.24 1.68,1.22 0.65,4.98 6.2,-1.39 18.59,-5.81 24.37,-9.88 2.99,-2.1 6.58,-3.02 10.25,-4.7 6.39,-2.94 -1.65,-3.93 5.48,-6.64 2.02,-0.77 9.57,-3.73 4,-5.73 -3.51,-1.26 -13.02,6.17 -18.4,6.3 0.15,-0.1 0.39,-0.4 0.46,-0.26l3.41 -1.58c1.58,-0.77 2.76,-0.79 2.58,-3.14 -0.38,-4.91 -6.57,-0.36 -7.87,-0.01 -0.84,-2.26 1.54,-1.02 -2.14,-1.43l0.89 -0.56c1.93,-1.49 2.6,-1.25 1.89,-3.54 -1.48,-4.82 -8.41,1.77 -14.18,4.82 -0.53,-0.95 -0.38,-0.78 -0.71,-2.1z"/>
  <path class="fil8" d="M133.29 298.74c0.79,-0.64 8.93,-4.38 10.32,-3.94l4.17 3.31c1.38,1.04 0.57,3.64 1.26,4.24 1.29,0.46 2.66,-0.16 4.41,0.6 3.05,1.34 1.17,0.15 1.72,1.67 0.38,1.06 0.12,2.43 -0.1,3.8 1.79,-3.45 0.34,-5.26 3.63,-7.19 -4.9,-2.5 -2.18,0.71 -3.84,-4.95 -0.99,-3.36 -2.08,-2.65 -4.74,-1.46 0.5,-2.17 -0.02,-2.38 2.11,-2.8 -1.99,-0.36 -0.1,-0.09 -1.46,-0.59 -3.05,-1.13 -2.87,-0.39 -4.24,-1.52l3.59 -1.69c-0.25,-0.7 -4.59,-5.78 -2.51,-5.37 -2.29,-0.26 -2.39,-0.65 -4.67,-0.83 -0.15,-6.52 -0.57,-4.24 -1.41,-6.38 -0.99,-2.56 0.33,-1.17 -0.93,-4.08l1.75 -8.11c0.08,-0.23 0.24,0.59 -0.06,-2.01l-4.91 0.69c0.95,-2.5 -1.31,-1.62 3.51,-2.24 -1.96,-1.1 -2.67,-0.78 -5.59,-0.89 0.1,-0.12 0.26,-0.49 0.29,-0.37l1.86 -3.04 -6.82 -0.41c-0.46,7.21 0.7,15.79 0.48,21.64 -0.24,6.63 0.6,17.79 -0.79,23.39l2.97 -1.47z"/>
  <path class="fil9" d="M84.93 248.92c0.75,-1.24 0.23,-0.87 0.71,0.71l6.4 1.4 1.43 -3.54 11.78 0.76c4.9,-0.46 0.09,-0.01 3.06,-0.94 4.84,-1.51 0.47,-0.42 2.64,-0.12l9.31 1.12c0.23,-1.08 0.69,-12.71 0.56,-13.94 -2.05,-2.94 -4.22,-1.5 -5.98,-0.2 -3.09,-0.89 1.69,-0.86 -3.52,-1.56l-15 0c-1,1.96 -0.51,2 0,4.2 -3.1,0 -4.02,-0.65 -7.12,-0.75 -3.86,-0.13 -5.01,0.52 -7.84,0.75 0.38,4.52 0.25,4.28 4.28,4.28l-1.36 2.51c-0.01,0.05 -0.02,0.23 -0.07,0.33 -3.78,0 -4.21,0.04 -7.12,0.72 0.4,1.72 0.74,2.85 1.42,4.27l6.42 0z"/>
  <path class="fil1" d="M206.45 250.51l22.74 -0.07 -11.55 -45.2c-1.58,7.52 -3.37,15.28 -5.33,22.86 -1.86,7.22 -4.64,15.42 -5.86,22.41z"/>
  <path class="fil10" d="M135.97 206.07c-1.53,0.97 -4.18,0.23 -7.11,0.66 0.12,0.16 0.24,0.39 0.31,0.5 2.08,3.42 2.12,4.12 5.85,2.66 0.89,-0.34 1.64,-2.31 3.47,0.56 -0.79,0.84 -0.71,1.23 -3.02,1.45 -3.93,0.37 -0.83,-0.81 -6.36,0.83 -1.67,0.49 1.18,-0.4 -1.31,0.35l-0.94 0.34c1.98,0.85 1.23,0.23 3.36,0.8 0.02,0 1.74,0.56 1.74,0.56 1.5,0.64 0.69,0.18 1.69,1.02 -0.69,0.33 -0.92,0.16 -1.55,0.55 -2.28,1.42 -0.69,2.02 -2.3,4.41 -3.28,-0.03 -6.38,-0.71 -8.7,-0.29 -10.82,1.99 -3.21,1.93 -14.85,1.78 -3.3,-0.05 -4.93,-0.98 -7.12,-1.91 0.42,3.74 0.98,2.33 3.97,3.65 3.89,0 5.8,-0.86 7.47,1.42 -2.85,0 -2.88,0.39 -4.78,-0.71l-4.36 2.72c3.48,1.77 10.67,1.34 15.55,1.66l0.47 -3.94c1.65,-0.52 10.46,-0.42 12.74,-0.21l0.3 9c9.95,-0.32 12.21,-0.29 17.47,-4.65 2.03,-1.68 0.74,0.69 1.56,-1.73 -4.63,-2.52 -13.72,-1.36 -18.39,-3.99 2.88,-0.03 4.18,0.23 6.9,-0.54 3.11,-0.88 3.46,-0.83 7.05,-0.9 -1.06,-2.07 0.65,-1.97 -2.81,-2.01 1.2,-0.09 1.24,0.14 2.34,-0.43 1.72,-0.91 0.8,-0.22 1.9,-1.74 -2.15,-1.93 -3.51,-2.65 -7.87,-2.96l5.32 0.14c0.01,-1.72 0.63,-2 1.44,-2.85 0.11,-0.11 0.35,-0.24 0.5,-0.39 -2.74,-1.89 -2.5,-0.13 -3.64,-2.34 -1.14,-2.23 0.51,0.05 1.07,-4.56 -5.56,0.94 -1.65,1.65 -7.36,1.09z"/>
  <path class="fil6" d="M96.32 232.61l15 0c5.21,0.7 0.43,0.67 3.52,1.56 1.76,-1.3 3.93,-2.74 5.98,0.2l9.67 -0.44 -0.3 -9c-2.28,-0.21 -11.09,-0.31 -12.74,0.21l-0.47 3.94c-4.88,-0.32 -12.07,0.11 -15.55,-1.66l4.36 -2.72c-2.23,0 -4.17,0.13 -5.48,0.5 -2.59,0.74 -1.73,0.83 -2.56,2.35 -3.06,0 -4.16,-0.57 -6,-0.22 -2.97,0.55 -2.32,1.35 -6.61,0.76 -4.02,-0.55 -9,-0.85 -13.62,-1.38l-21.33 -1.52c-4.19,-0.57 -2.65,-0.1 -6.58,0.22l0 4.99c9.42,0 16.61,0.71 26.36,0.71 5.85,0 14.62,-0.93 19.83,0.82 3.18,1.06 2.71,0.53 6.52,0.68z"/>
  <path class="fil11" d="M102.02 403.17l-9.36 12.35c-2.77,3.46 -8.08,9.21 -8.45,13.63 2.07,0.99 5.41,2.28 7.84,2.85l24.79 -37.19c3.04,-5.02 2.23,-3.88 4.41,-3.42 1.74,-7.42 -2.12,-0.03 2.54,-7.42l8.23 -12.52c-1.39,-1.21 1.83,-0.87 -1.82,-1.04l-12.38 15.28c-5.89,4.99 -12.33,17.95 -15.8,17.48z"/>
  <path class="fil6" d="M133.37 370.7l-0.72 0.75c-0.72,2.7 -1.26,1.48 -1.79,5.25 -0.51,3.55 1,0.9 -1.29,4.43 -2.18,3.35 -3.82,5.71 -5.87,9.15 -1.96,3.29 -3.5,5.61 -5.43,8.82 -2.12,3.52 -4.14,5.27 -4.14,10.82 3.07,0.25 4.53,1.35 7.84,1.42 0.29,-1.26 4.47,-10.86 5.21,-11.93 1.39,-2.04 1.62,-0.66 3.14,-1.88 1.73,-1.38 2.57,-4.59 3.76,-6.85l3.06 0c-1.57,-7.61 8.54,-16.72 7.97,-21.02 -0.55,-4.12 -3.05,-3.87 -4.3,0.42 -3.22,0.03 -4.91,-0.42 -7.44,0.62z"/>
  <path class="fil3" d="M107.01 373.59c2.46,1.33 4.71,-1.19 6.62,-2.65 2.26,-1.73 3.97,-2.98 6.2,-4.48 -0.76,2.83 -6.06,6.67 -10.35,14.58l-7.77 10.04c-2.39,3.07 -5.01,4.98 -5.39,9.57 1.95,0.46 4.09,1.26 5.7,2.52 3.47,0.47 9.91,-12.49 15.8,-17.48l12.38 -15.28c3.65,0.17 0.43,-0.17 1.82,1.04l0.63 0 0.17 -0.71c-0.77,-0.45 0.37,-0.19 -1.69,-0.59 -2.01,-0.39 0.83,-0.01 -1.3,-0.16 -0.93,-0.07 -2.49,0.09 -3.53,0.11l-7.18 11.27c-2.67,-0.22 -5.52,-1.12 -7.05,-2.88l8.47 -10 -0.28 -12.9c-1.83,1.88 -2.21,1.99 -4.26,3.53 -10.22,7.66 -1.55,3.55 -7.81,8.58l-3.36 5.58 2.18 0.31z"/>
  <path class="fil10" d="M119.12 198.35c1.44,1.35 1.36,0.73 1.42,3.55 -7.33,0 -16.7,-4.1 -22.08,-2.85l0 4.28 18.17 2.48c3.61,0.57 3.3,-0.17 4.25,3.22l2.51 -1.57c1.88,0.01 3.14,1.01 5.33,-0.57l-4.35 -1.31c2.82,-1 4.03,-0.03 7.07,0.08 -1.14,-2.27 -0.79,-1.68 -0.74,-5.02l21.12 2.69c-0.69,-3.61 1.1,-2.59 -0.6,-4.19 -1.55,-1.46 -1.31,0.84 -5.03,-1.07 -0.12,-0.76 2.93,0.11 -0.99,-2.23 -0.99,-0.59 -4.02,-1.37 -5.42,-1.97 -0.5,-1.64 -0.94,1.48 0.33,-0.42 0.94,-1.41 0.9,0.82 0.38,-0.73 -2.05,-0.89 -3.08,-1.29 -5.48,-1.56l-4.83 -0.56c0.99,2.71 -1.24,1.84 2.32,2.39l-2.79 0.97c0.77,1.03 1.44,-1.65 0.6,3.03l3.52 1.29c-6.3,0.15 -0.42,2.31 -7.23,0.61 -3.09,-0.77 -4.82,-1.5 -7.48,-0.54z"/>
  <path class="fil10" d="M50.73 378.04c-4.09,2.6 -7.05,4.76 -10.97,7.37 -2.55,1.7 -9.05,5.56 -10.4,7.41l1.46 2.83c3.06,-0.24 1.64,-0.75 3.81,-0.96 4.76,-0.46 -1.48,3.68 9.84,-3.86 10.18,-6.78 23.23,-17.96 33.96,-25.84 2.54,-1.87 1.73,-0.56 2.93,-3.51 -2.63,1.43 -4.21,1.06 -5.47,1.57l-25.16 14.99z"/>
  <path class="fil4" d="M281.53 187.44c-11.15,4.36 -5.63,23.43 8.17,18.36 10.52,-3.87 5.93,-23.89 -8.17,-18.36z"/>
  <path class="fil9" d="M133.29 298.74c4.86,0.5 4.69,1.78 4.02,6.79 -3.2,-0.77 -6.53,-0.82 -4.97,-4.89 -2.83,2.59 -1.53,5.75 -2.05,13.01 3.08,-1.1 0.46,-0.12 1.92,-0.77l3.98 -2.17c-1.21,0.71 -0.56,0.49 -1.74,1.27 -0.85,0.57 -2.15,1.18 -2.61,1.54 -1.47,1.17 -1.11,3.28 -1.24,5.84l8.05 -5.4c3.22,-2.23 5.19,-4.34 8.96,-5.91l0.39 1.31c0.06,0.16 0.14,0.44 0.23,0.62l1.71 2.37c1.01,0.87 1.98,1.34 3.37,1.4l0.01 -2.08c-1.22,-1.28 -0.69,-0.17 -0.49,-2.91 0.11,-0.07 0.24,-0.35 0.3,-0.23l1.94 -0.11c0.22,-1.37 0.48,-2.74 0.1,-3.8 -0.55,-1.52 1.33,-0.33 -1.72,-1.67 -1.75,-0.76 -3.12,-0.14 -4.41,-0.6 -0.69,-0.6 0.12,-3.2 -1.26,-4.24l-4.17 -3.31c-1.39,-0.44 -9.53,3.3 -10.32,3.94z"/>
  <path class="fil12" d="M84.7 312.32l0.93 1.43 -0.19 1.78c3.13,-0.27 6.65,-0.63 8.03,-2.5 2.74,0.14 2.25,3.17 8.57,0.25 2.37,-1.09 6.03,-3.09 8.78,-4.71 2.28,-1.58 2.81,-1.56 4.81,-2.55 1.54,-0.76 3.15,-2.11 4.93,-2.8l0.07 -7.16c-3.51,1.95 -6.2,3.29 -9.74,4.79 -1.8,0.76 -1.99,1.24 -4.65,1.87 -8.28,1.97 -3.13,1.31 -8.7,3.7 -1.72,0.74 -2.84,1.01 -4.74,1.8 -2.22,0.91 -7.35,2.06 -8.1,4.1z"/>
  <path class="fil7" d="M362.84 189.47c1.8,3.52 -1.33,-0.94 0.18,6.11 0.17,0.05 0.44,-0.14 0.53,0.04l4.18 -0.01c-1.43,3.49 0.81,1 -2.59,3.12 -0.56,0.35 -0.87,0.3 -1.42,0.66 -2.85,1.88 -0.28,-0.94 -1.17,1.09 1.8,4.53 4.19,-1.5 3.62,5.7 -2.67,1.19 -0.76,-1.82 -4.66,0l1.95 3.83c0.87,-0.51 0.54,-2.68 4.95,-2.54 -0.27,-3.42 0.1,-1.53 0.62,-3.31 0.05,-0.17 0.13,-0.34 0.18,-0.52 0.06,-0.18 0.12,-0.37 0.17,-0.56 0.05,-0.19 0.1,-0.41 0.14,-0.59 0.15,-0.62 -0.02,-3.34 4.14,-3.98 4.32,-0.66 -0.61,0.01 3.41,0.84 0.16,-0.17 0.67,-0.78 0.8,-0.89 3.9,-3.22 2.29,0.28 3.8,-2.77 1.06,-2.12 -0.33,-2.54 -1.25,-5.59 -3.53,0.98 -5.6,3.11 -8.7,4.53 -2.11,0.96 -3.38,0.92 -4.48,-0.21 -3.68,-3.75 3.52,-2.11 3.78,-2.11l0.46 -3.23c-2.23,-0.26 -0.43,0.87 -1.84,-0.71l0.94 -1.96c-4.34,0.68 -5.09,2.62 -7.74,3.06z"/>
  <path class="fil13" d="M126.3 370.1c-2.89,-0.11 -5.64,0.88 -5.76,-1.61l-8.47 10c1.53,1.76 4.38,2.66 7.05,2.88l7.18 -11.27z"/>
  <path class="fil3" d="M390.53 216.15c0.18,2.19 0.67,3.43 1.42,4.99 2.75,-0.23 2.81,-0.71 6.42,-0.71 -0.34,-4.1 -2.52,-3.46 2.13,-3.57l-1.52 -4.95c-1.71,0.01 -1.51,-0.04 -3.15,0.32 -3.69,0.8 -2.21,2 -2.97,3.08 -0.82,1.16 2.78,0.73 -2.33,0.84z"/>
  <path class="fil3" d="M146.9 404.93c0.24,-2.82 1.19,-4.3 1.42,-7.13 -1.55,-0.74 -4.09,-1.37 -6.41,-1.42 -0.15,6.8 -4.57,7.75 4.99,8.55z"/>
  <path class="fil3" d="M129.8 412.05c1.96,0.46 3.74,0.97 5.7,1.43 0.63,-2.69 1.92,-5.95 2.14,-8.55l-5.68 -0.84c-0.27,3.15 -1.49,5.12 -2.16,7.96z"/>
  <path class="fil6" d="M77.8 164.15c0.48,2.07 0.94,4.34 1.43,6.41 2.81,0 2.89,-0.22 4.98,-0.71 0,-3.58 -0.64,-3.19 -0.71,-6.41l-5.7 0.71z"/>
  <path class="fil3" d="M157.59 383.56c2.74,0.23 2.29,0.71 5.69,0.71 0,-6.43 3.12,-4.69 -4.27,-6.41 -0.65,1.36 -1.27,3.8 -1.42,5.7z"/>
  <path class="fil6" d="M178.24 376.43l-2.13 0 0.94 3.74c2.87,-1.37 1.23,-0.27 5.47,-0.17 0.49,-2.1 0.71,-2.18 0.71,-4.99 -2.1,-0.49 -2.17,-0.71 -4.99,-0.71l0 2.13z"/>
  <path class="fil6" d="M243.07 96.47l-2.85 0c0.21,2.58 0.89,3.4 1.42,5.7l4.99 0c-0.07,-3.21 -0.81,-3.76 -1.42,-6.41 -0.87,0.49 -0.76,0.71 -2.14,0.71z"/>
  <path class="fil3" d="M173.26 394.24c1.4,0.68 3.29,1.03 4.98,1.43 0.23,-2.75 0.72,-2.81 0.72,-6.41 -2.82,0 -2.89,-0.23 -4.99,-0.72 0,3.41 -0.48,2.96 -0.71,5.7z"/>
  <path class="fil14" d="M182.52 389.26c2.1,0.48 2.17,0.71 4.99,0.71l0 -5.7c-3.14,-0.07 -2.22,-0.48 -4.99,-0.71l0 5.7z"/>
  <path class="fil3" d="M150.35 394.22c2.07,0.48 3.85,0.99 5.81,1.45 0.49,-2.1 0.71,-2.18 0.71,-4.99 -2.74,-0.23 -2.29,-0.71 -5.7,-0.71l-0.82 4.25z"/>
  <path class="fil3" d="M167.56 382.85c6.35,3.05 5.7,0.73 5.7,-4.28 -6.06,0 -3.11,-2.4 -4.69,0.31 -0.5,0.86 -0.23,2.34 -1.01,3.97z"/>
  <path class="fil3" d="M256.6 101.46c0,3.4 0.49,2.95 0.72,5.7 2.09,-0.49 2.17,-0.71 4.98,-0.71 -0.15,-1.9 -0.77,-4.34 -1.42,-5.7 -1.68,0.39 -2.11,0.66 -4.28,0.71z"/>
  <path class="fil6" d="M189.64 381.42c0,2.21 -3.5,1.75 4.28,3.56 0.07,-3.13 0.48,-2.22 0.71,-4.98 -1.89,-1 -2.07,-1.36 -4.99,-1.43l0 2.85z"/>
  <path class="fil12" d="M109.14 174.12c1.44,6.17 3.99,3.96 5.7,3.56 -0.36,-4.35 -1.69,-5.11 -5.7,-3.56z"/>
  <path class="fil3" d="M104.16 159.16l0 2.85c2.23,-0.18 4.27,-0.49 4.27,-2.85l0 -2.13 -2.13 0c-1.65,0 -2.14,0.49 -2.14,2.13z"/>
  <path class="fil14" d="M375.57 230.4l4.99 0c-0.38,-1.62 -0.56,-1.64 -0.72,-3.56l-2.85 0c-2.78,0 -1.61,1.23 -1.42,3.56z"/>
  <path class="fil12" d="M379.13 216.86l0 1.43c3.27,1.84 4.84,0.07 4.99,0l-0.8 -2.82c-1.7,-0.03 -4.19,-0.38 -4.19,1.39z"/>
  <path class="fil6" d="M366.31 234.67c4.15,-1.99 1.87,0.97 6.41,0 -2.15,-2.93 -0.49,-0.27 -3.07,-1.91 -2.4,-1.52 0.39,-1.55 -4.05,-1.65 0.16,1.92 0.32,1.94 0.71,3.56z"/>
  <path class="fil3" d="M384.12 210.45l0 2.85 2.14 0c2.78,0 1.61,-1.23 1.42,-3.56 -1.62,0.38 -1.65,0.51 -3.56,0.71z"/>
  <path class="fil3" d="M275.84 82.94c0.38,1.62 0.55,1.64 0.71,3.56l2.85 0 0 -2.14c0,-2.71 -1.13,-1.68 -3.56,-1.42z"/>
  <path class="fil6" d="M248.77 110.01l3.56 0c-0.08,-3.52 -0.04,-3.48 -3.56,-3.56l0 3.56z"/>
  <path class="fil3" d="M109.14 161.3l0 2.85 3.57 0 0 -3.56c-1.63,0.38 -1.65,0.51 -3.57,0.71z"/>
  <path class="fil3" d="M292.94 74.39c3.28,-0.76 3.72,-0.97 2.13,-4.27 -2.75,1.45 -2.13,0.15 -2.13,4.27z"/>
  <path class="fil6" d="M198.9 373.59c0,2.15 0.84,1.97 2.85,2.13 -0.07,-3.45 0.19,-2.33 -2.13,-3.56 -0.02,0.01 -0.72,1.33 -0.72,1.43z"/>
  <path class="fil15" d="M250.91 126.39c-1.23,-2.32 -0.12,-2.06 -3.57,-2.13 0.69,2.96 0.7,3.51 3.57,2.13z"/>
  <path class="fil6" d="M260.88 115.71c2.42,-1.28 2.96,-0.37 1.42,-3.56 -2.42,1.28 -2.95,0.36 -1.42,3.56z"/>
  <path class="fil3" d="M97.75 163.44c0.54,0.96 0.39,0.78 0.71,2.13l2.14 0 0 -2.85c-1.17,0.1 -2.22,0 -2.85,0.72z"/>
  <path class="fil3" d="M265.87 97.9l1.56 -1.28c-1.74,-2.33 0.32,-1.3 -2.99,-1.57 0.27,3.18 -0.78,1.32 1.43,2.85z"/>
  <path class="fil6" d="M270.85 105.73c0.95,1.05 0.15,1.75 1.77,1.01 2.04,-0.93 0.8,0.18 1.08,-2.43 -3.31,0.28 -1.24,-0.76 -2.85,1.42z"/>
  <path class="fil6" d="M270.85 105.73l-2.85 0c0.69,2.57 0.07,1.91 2.85,2.14l0 -2.14z"/>
  <path class="fil3" d="M275.84 98.61c3.14,-0.84 3.14,-2.01 0,-2.85l0 2.85z"/>
  <polygon class="fil13" points="291.51,87.21 293.65,87.21 293.65,85.08 291.51,85.08 "/>
  <path class="fil3" d="M81.36 282.4l0 -2.14 -2.13 0c0.55,2.08 0,1.63 2.13,2.14z"/>
  <path class="fil12" d="M147.61 396.38c0.96,0.54 0.79,0.39 2.14,0.71l0 -2.13c-1.25,0.29 -1.91,0.09 -2.14,1.42z"/>
  <path class="fil12" d="M233.81 121.41l1.42 0c-0.5,-2.09 0.1,-1.03 -1.42,-2.14l0 2.14z"/>
  <path class="fil12" d="M278.69 102.17c0,0.84 1.53,1.61 1.1,0 -0.43,-1.61 1.81,-0.02 -0.33,-0.21 -0.89,-0.08 -0.77,-1.24 -0.77,0.21z"/>
  <path class="fil16" d="M261.46 411.67l0.45 0c1.6,0 3.62,-0.75 6.02,-2.23 2.43,-1.47 4.8,-3.45 7.15,-5.87 3.03,-3.13 5.45,-6.43 7.23,-9.95 1.77,-3.53 2.67,-6.83 2.67,-9.9 0,-6.65 -3.52,-10.7 -10.6,-12.1 -1.35,-0.2 -2.32,-0.5 -2.92,-0.93 -0.58,-0.4 -0.88,-1.05 -0.88,-1.92 0,-1 1.18,-2.48 3.5,-4.48 3.53,-3.07 6.28,-6.42 8.25,-10.07 1.98,-3.63 2.95,-7.28 2.95,-10.95 0,-3.9 -0.8,-5.85 -2.42,-5.85 -1.33,0 -2.95,1.02 -4.9,3.1 -1.98,2.07 -3.85,4.72 -5.63,7.95 -1.77,3.2 -3.12,6.37 -4,9.5 -0.3,1.07 -0.57,1.75 -0.87,2.07 -0.3,0.33 -0.7,0.48 -1.25,0.48 -1.4,0 -3.18,-1.1 -5.25,-3.3 -2.98,-3.18 -4.48,-6.4 -4.48,-9.65 0,-3.78 1.53,-7.5 4.58,-11.2 3.05,-3.73 7.02,-6.73 11.9,-9 4.9,-2.3 9.9,-3.45 15.02,-3.45 4.15,0 7.95,0.8 11.35,2.42 3.43,1.6 6.1,3.83 8,6.7 1.9,2.85 2.85,6.05 2.85,9.63 0,6.47 -2.8,11.67 -8.42,15.6 -2.93,2 -6.58,3.9 -10.93,5.7l0 0.3c6.88,0.37 12.05,1.92 15.5,4.6 3.48,2.67 5.2,6.42 5.2,11.25 0,2.25 -0.52,4.72 -1.57,7.42 -1.05,2.7 -2.53,5.48 -4.48,8.33 -1.92,2.85 -4.22,5.7 -6.9,8.52 -5.85,6.18 -12.22,11.03 -19.1,14.5 -6.9,3.48 -13.5,5.23 -19.85,5.23 -6.05,0 -11.07,-1.93 -15.1,-5.78 -4.02,-3.85 -6.05,-8.7 -6.05,-14.5 0,-3.95 1.35,-7.9 4.05,-11.85 2.73,-3.95 6.23,-7.2 10.53,-9.7 4.27,-2.52 8.57,-3.77 12.87,-3.77 1.8,0 2.7,0.65 2.7,1.97 0,0.53 -0.75,1.45 -2.27,2.7 -0.15,0.15 -0.3,0.33 -0.48,0.48 -0.17,0.17 -0.35,0.35 -0.55,0.55 -1.9,2.2 -3.37,4.92 -4.42,8.2 -1.05,3.27 -1.58,6.67 -1.58,10.25 0,3.5 0.7,6.5 2.13,9z"/>
  <path id="1" class="fil16" d="M338.56 384.22l1.17 -1.48c3.3,-5.02 5.65,-8.75 7.03,-11.2 1.35,-2.45 2.45,-5 3.27,-7.7 1.23,-3.7 1.83,-7.55 1.83,-11.55 0,-4.1 -0.5,-7.17 -1.5,-9.22 -1,-2.05 -2.85,-3.73 -5.53,-5.05 -3.42,4.92 -5.12,11.17 -5.12,18.72 0,2.93 0.45,5.93 1.37,8.98 0.38,1.12 0.58,1.9 0.58,2.27 0,1.43 -0.75,2.13 -2.28,2.13 -1.35,0 -3.2,-0.58 -5.55,-1.73 -2.35,-1.15 -4.12,-2.32 -5.35,-3.55 -1.35,-1.45 -2.47,-3.37 -3.35,-5.7 -0.87,-2.35 -1.32,-4.82 -1.32,-7.47 0,-3.7 0.77,-7.25 2.3,-10.6 1.55,-3.38 3.7,-6.3 6.5,-8.8 2.77,-2.48 6.1,-4.43 9.92,-5.83 3.83,-1.37 7.9,-2.07 12.2,-2.07 4.3,0 8.23,0.95 11.75,2.82 3.55,1.88 6.38,4.45 8.48,7.73 2.1,3.3 3.15,6.87 3.15,10.7 0,2.87 -0.55,5.95 -1.68,9.22 -1.1,3.25 -2.87,6.9 -5.27,10.93 -2.4,4 -5.45,8.45 -9.15,13.3 -3.68,4.85 -7.98,10.05 -12.9,15.62l-1.45 1.78 -1.23 1.4c2.05,0.6 4.85,0.9 8.43,0.9 3.57,0 7.15,-0.2 10.72,-0.58 3.6,-0.4 6.43,-0.9 8.48,-1.55 1.37,-0.37 2.27,-0.57 2.72,-0.57 0.48,0 0.73,0.15 0.73,0.45 0,1.8 -1.15,4.6 -3.48,8.42 -2.32,3.8 -4.75,6.95 -7.3,9.45 -2.62,2.48 -5.8,4.3 -9.47,5.45 -3.68,1.15 -8.25,1.73 -13.65,1.73 -6.95,0 -12.9,-0.95 -17.88,-2.85 -4.97,-1.9 -7.47,-4.2 -7.47,-6.9 0,-1.85 2.52,-5.55 7.55,-11.13 3.55,-4.05 6.8,-8.07 9.75,-12.1 0.17,-0.27 0.4,-0.57 0.6,-0.87 0.22,-0.28 0.42,-0.58 0.6,-0.83 0.17,-0.27 0.4,-0.65 0.7,-1.15l1.1 -1.52z"/>
  <path id="2" class="fil17 str0" d="M261.46 411.67l0.45 0c1.6,0 3.62,-0.75 6.02,-2.23 2.43,-1.47 4.8,-3.45 7.15,-5.87 3.03,-3.13 5.45,-6.43 7.23,-9.95 1.77,-3.53 2.67,-6.83 2.67,-9.9 0,-6.65 -3.52,-10.7 -10.6,-12.1 -1.35,-0.2 -2.32,-0.5 -2.92,-0.93 -0.58,-0.4 -0.88,-1.05 -0.88,-1.92 0,-1 1.18,-2.48 3.5,-4.48 3.53,-3.07 6.28,-6.42 8.25,-10.07 1.98,-3.63 2.95,-7.28 2.95,-10.95 0,-3.9 -0.8,-5.85 -2.42,-5.85 -1.33,0 -2.95,1.02 -4.9,3.1 -1.98,2.07 -3.85,4.72 -5.63,7.95 -1.77,3.2 -3.12,6.37 -4,9.5 -0.3,1.07 -0.57,1.75 -0.87,2.07 -0.3,0.33 -0.7,0.48 -1.25,0.48 -1.4,0 -3.18,-1.1 -5.25,-3.3 -2.98,-3.18 -4.48,-6.4 -4.48,-9.65 0,-3.78 1.53,-7.5 4.58,-11.2 3.05,-3.73 7.02,-6.73 11.9,-9 4.9,-2.3 9.9,-3.45 15.02,-3.45 4.15,0 7.95,0.8 11.35,2.42 3.43,1.6 6.1,3.83 8,6.7 1.9,2.85 2.85,6.05 2.85,9.63 0,6.47 -2.8,11.67 -8.42,15.6 -2.93,2 -6.58,3.9 -10.93,5.7l0 0.3c6.88,0.37 12.05,1.92 15.5,4.6 3.48,2.67 5.2,6.42 5.2,11.25 0,2.25 -0.52,4.72 -1.57,7.42 -1.05,2.7 -2.53,5.48 -4.48,8.33 -1.92,2.85 -4.22,5.7 -6.9,8.52 -5.85,6.18 -12.22,11.03 -19.1,14.5 -6.9,3.48 -13.5,5.23 -19.85,5.23 -6.05,0 -11.07,-1.93 -15.1,-5.78 -4.02,-3.85 -6.05,-8.7 -6.05,-14.5 0,-3.95 1.35,-7.9 4.05,-11.85 2.73,-3.95 6.23,-7.2 10.53,-9.7 4.27,-2.52 8.57,-3.77 12.87,-3.77 1.8,0 2.7,0.65 2.7,1.97 0,0.53 -0.75,1.45 -2.27,2.7 -0.15,0.15 -0.3,0.33 -0.48,0.48 -0.17,0.17 -0.35,0.35 -0.55,0.55 -1.9,2.2 -3.37,4.92 -4.42,8.2 -1.05,3.27 -1.58,6.67 -1.58,10.25 0,3.5 0.7,6.5 2.13,9z"/>
  <path id="3" class="fil17 str0" d="M338.56 384.22l1.17 -1.48c3.3,-5.02 5.65,-8.75 7.03,-11.2 1.35,-2.45 2.45,-5 3.27,-7.7 1.23,-3.7 1.83,-7.55 1.83,-11.55 0,-4.1 -0.5,-7.17 -1.5,-9.22 -1,-2.05 -2.85,-3.73 -5.53,-5.05 -3.42,4.92 -5.12,11.17 -5.12,18.72 0,2.93 0.45,5.93 1.37,8.98 0.38,1.12 0.58,1.9 0.58,2.27 0,1.43 -0.75,2.13 -2.28,2.13 -1.35,0 -3.2,-0.58 -5.55,-1.73 -2.35,-1.15 -4.12,-2.32 -5.35,-3.55 -1.35,-1.45 -2.47,-3.37 -3.35,-5.7 -0.87,-2.35 -1.32,-4.82 -1.32,-7.47 0,-3.7 0.77,-7.25 2.3,-10.6 1.55,-3.38 3.7,-6.3 6.5,-8.8 2.77,-2.48 6.1,-4.43 9.92,-5.83 3.83,-1.37 7.9,-2.07 12.2,-2.07 4.3,0 8.23,0.95 11.75,2.82 3.55,1.88 6.38,4.45 8.48,7.73 2.1,3.3 3.15,6.87 3.15,10.7 0,2.87 -0.55,5.95 -1.68,9.22 -1.1,3.25 -2.87,6.9 -5.27,10.93 -2.4,4 -5.45,8.45 -9.15,13.3 -3.68,4.85 -7.98,10.05 -12.9,15.62l-1.45 1.78 -1.23 1.4c2.05,0.6 4.85,0.9 8.43,0.9 3.57,0 7.15,-0.2 10.72,-0.58 3.6,-0.4 6.43,-0.9 8.48,-1.55 1.37,-0.37 2.27,-0.57 2.72,-0.57 0.48,0 0.73,0.15 0.73,0.45 0,1.8 -1.15,4.6 -3.48,8.42 -2.32,3.8 -4.75,6.95 -7.3,9.45 -2.62,2.48 -5.8,4.3 -9.47,5.45 -3.68,1.15 -8.25,1.73 -13.65,1.73 -6.95,0 -12.9,-0.95 -17.88,-2.85 -4.97,-1.9 -7.47,-4.2 -7.47,-6.9 0,-1.85 2.52,-5.55 7.55,-11.13 3.55,-4.05 6.8,-8.07 9.75,-12.1 0.17,-0.27 0.4,-0.57 0.6,-0.87 0.22,-0.28 0.42,-0.58 0.6,-0.83 0.17,-0.27 0.4,-0.65 0.7,-1.15l1.1 -1.52z"/>
 </g>
</svg>
