<?xml version="1.0" encoding="UTF-8"?>
<!DOCTYPE svg PUBLIC "-//W3C//DTD SVG 1.1//EN" "http://www.w3.org/Graphics/SVG/1.1/DTD/svg11.dtd">
<!-- Creator: CorelDRAW 2017 -->
<svg xmlns="http://www.w3.org/2000/svg" xml:space="preserve" width="500px" height="280px" version="1.1" style="shape-rendering:geometricPrecision; text-rendering:geometricPrecision; image-rendering:optimizeQuality; fill-rule:evenodd; clip-rule:evenodd"
viewBox="0 0 500 280"
 xmlns:xlink="http://www.w3.org/1999/xlink">
 <defs>
  <style type="text/css">
   <![CDATA[
    .fil0 {fill:#FEFEFE}
    .fil1 {fill:#5B5B5B;fill-rule:nonzero}
    .fil2 {fill:#5B5B5B;fill-rule:nonzero}
   ]]>
  </style>
 </defs>
 <g id="Слой_x0020_1">
  <metadata id="CorelCorpID_0Corel-Layer"/>
  <rect class="fil0" width="500" height="280"/>
  <path class="fil1" d="M163.64 53.83l5 0c1.46,0 2.52,0.33 3.18,0.99 0.66,0.66 0.99,1.72 0.99,3.18l0 0.62c0,1.46 -0.33,2.52 -0.99,3.18 -0.66,0.66 -1.72,0.99 -3.18,0.99l-8.75 0 0 -14.58 11.57 0 0 2.91 -7.82 0 0 2.71zm5.42 4.17c0,-0.83 -0.42,-1.25 -1.25,-1.25l-4.17 0 0 3.12 4.17 0c0.83,0 1.25,-0.41 1.25,-1.25l0 -0.62z"/>
  <path id="1" class="fil1" d="M174.48 62.79l0 -11.04 3.64 0 0 3.44 4.06 0c0.95,0 1.71,0.28 2.28,0.85 0.56,0.57 0.85,1.33 0.85,2.27l0 1.36c0,0.94 -0.29,1.7 -0.85,2.27 -0.57,0.57 -1.33,0.85 -2.28,0.85l-7.7 0zm6.45 -2.6c0.21,0 0.39,-0.07 0.53,-0.21 0.14,-0.14 0.2,-0.31 0.2,-0.52l0 -0.92c0,-0.21 -0.06,-0.38 -0.2,-0.52 -0.14,-0.14 -0.32,-0.21 -0.53,-0.21l-2.81 0 0 2.38 2.81 0zm9.38 2.6l-3.65 0 0 -11.04 3.65 0 0 11.04z"/>
  <path id="2" class="fil1" d="M192.19 55.07c0,-1.04 0.29,-1.85 0.88,-2.44 0.59,-0.59 1.41,-0.88 2.45,-0.88l6.67 0 0 2.81 -5.53 0c-0.55,0 -0.83,0.28 -0.83,0.83l0 4.03c0,0.21 0.07,0.38 0.21,0.52 0.14,0.14 0.31,0.21 0.52,0.21 0.54,0 1.14,0 1.79,0 0.65,0 1.27,-0.03 1.84,-0.08 0.66,-0.06 1.33,-0.13 2,-0.2l0 2.71c-0.78,0.11 -1.57,0.17 -2.36,0.17 -0.68,0.13 -1.42,0.19 -2.22,0.19 -0.8,0 -1.56,0 -2.3,0 -0.94,0 -1.7,-0.29 -2.27,-0.85 -0.57,-0.57 -0.85,-1.32 -0.85,-2.26l0 -4.76z"/>
  <polygon id="3" class="fil1" points="210.1,54.56 210.1,62.79 206.46,62.79 206.46,54.56 203.02,54.56 203.02,51.75 213.54,51.75 213.54,54.56 "/>
  <path id="4" class="fil1" d="M218.43 59.98l3.13 0c0.56,0 0.83,-0.28 0.83,-0.83l0 -3.86c0,-0.21 -0.07,-0.38 -0.21,-0.52 -0.13,-0.14 -0.31,-0.21 -0.52,-0.21l-0.73 0c-0.26,0 -0.54,0.02 -0.83,0.06 -0.29,0.05 -0.56,0.09 -0.81,0.15 -0.29,0.06 -0.58,0.13 -0.86,0.21l0 5zm0 2.81l0 3.54 -3.64 0 0 -14.58 3.23 0 0.21 1.04c0.36,-0.24 0.75,-0.44 1.16,-0.62 0.36,-0.16 0.77,-0.3 1.21,-0.43 0.45,-0.13 0.9,-0.2 1.38,-0.2l0.93 0c0.95,0 1.71,0.29 2.27,0.86 0.57,0.56 0.86,1.32 0.86,2.27l0 4.79c0,1.04 -0.3,1.86 -0.89,2.45 -0.59,0.59 -1.4,0.88 -2.44,0.88l-4.28 0z"/>
  <path id="5" class="fil1" d="M227.91 62.79l0 -11.04 3.65 0 0 3.44 4.06 0c0.95,0 1.7,0.28 2.27,0.85 0.57,0.57 0.86,1.33 0.86,2.27l0 1.36c0,0.94 -0.29,1.7 -0.86,2.27 -0.57,0.57 -1.32,0.85 -2.27,0.85l-7.71 0zm6.46 -2.6c0.21,0 0.38,-0.07 0.52,-0.21 0.14,-0.14 0.21,-0.31 0.21,-0.52l0 -0.92c0,-0.21 -0.07,-0.38 -0.21,-0.52 -0.14,-0.14 -0.31,-0.21 -0.52,-0.21l-2.81 0 0 2.38 2.81 0zm9.38 2.6l-3.65 0 0 -11.04 3.65 0 0 11.04z"/>
  <path id="6" class="fil1" d="M250.21 50.71c-1.81,0 -2.71,-0.91 -2.71,-2.71l0 -0.63 2.71 0 0 0.53c0,0.2 0.07,0.38 0.21,0.52 0.13,0.14 0.31,0.2 0.52,0.2l0.62 0c0.21,0 0.38,-0.06 0.52,-0.2 0.14,-0.14 0.21,-0.32 0.21,-0.52l0 -0.53 2.71 0 0 0.63c0,1.8 -0.9,2.71 -2.71,2.71l-2.08 0zm2.81 1.04l3.85 0 0 11.04 -3.64 0 0 -6.04 -3.54 6.04 -3.86 0 0 -11.04 3.65 0 0 6.04 3.54 -6.04z"/>
  <path id="7" class="fil1" d="M265 55.07c0,-1.04 0.29,-1.85 0.88,-2.44 0.6,-0.59 1.41,-0.88 2.45,-0.88l6.67 0 0 2.81 -5.52 0c-0.56,0 -0.84,0.28 -0.84,0.83l0 4.03c0,0.21 0.07,0.38 0.21,0.52 0.14,0.14 0.32,0.21 0.52,0.21 0.55,0 1.14,0 1.8,0 0.65,0 1.26,-0.03 1.83,-0.08 0.67,-0.06 1.33,-0.13 2,-0.2l0 2.71c-0.78,0.11 -1.56,0.17 -2.35,0.17 -0.68,0.13 -1.42,0.19 -2.22,0.19 -0.8,0 -1.57,0 -2.31,0 -0.94,0 -1.7,-0.29 -2.27,-0.85 -0.57,-0.57 -0.85,-1.32 -0.85,-2.26l0 -4.76z"/>
  <polygon id="8" class="fil1" points="282.92,54.56 282.92,62.79 279.27,62.79 279.27,54.56 275.83,54.56 275.83,51.75 286.35,51.75 286.35,54.56 "/>
  <path id="9" class="fil1" d="M291.56 60.08c0.27,0 0.54,-0.02 0.84,-0.06 0.29,-0.04 0.56,-0.09 0.81,-0.15 0.29,-0.05 0.57,-0.12 0.85,-0.2l0 -1.25 -3.02 0c-0.21,0 -0.38,0.07 -0.52,0.2 -0.14,0.14 -0.21,0.32 -0.21,0.53l0 0.2c0,0.21 0.07,0.39 0.21,0.52 0.14,0.14 0.31,0.21 0.52,0.21l0.52 0zm-1.77 2.92c-0.94,0 -1.7,-0.29 -2.27,-0.85 -0.57,-0.57 -0.85,-1.33 -0.85,-2.28l0 -0.93c0,-0.95 0.28,-1.7 0.85,-2.27 0.57,-0.57 1.33,-0.86 2.27,-0.86l4.27 0 0 -0.8c0,-0.2 -0.07,-0.36 -0.21,-0.5 -0.13,-0.13 -0.31,-0.2 -0.52,-0.2 -0.55,0 -1.15,0 -1.8,0 -0.64,0 -1.25,0.03 -1.82,0.1 -0.67,0.09 -1.34,0.13 -2,0.13l0 -2.57c0.76,-0.12 1.54,-0.18 2.33,-0.18 0.68,-0.12 1.43,-0.19 2.23,-0.19 0.81,0 1.58,0 2.31,0 0.95,0 1.7,0.29 2.27,0.85 0.57,0.57 0.86,1.32 0.86,2.26l0 8.08 -3.23 0 -0.21 -1.04c-0.36,0.24 -0.75,0.44 -1.17,0.62 -0.36,0.16 -0.76,0.3 -1.2,0.43 -0.45,0.13 -0.91,0.2 -1.38,0.2l-0.73 0z"/>
  <path id="10" class="fil1" d="M303.23 59.98l3.12 0c0.56,0 0.84,-0.28 0.84,-0.83l0 -3.86c0,-0.21 -0.07,-0.38 -0.21,-0.52 -0.14,-0.14 -0.31,-0.21 -0.52,-0.21l-0.73 0c-0.27,0 -0.54,0.02 -0.83,0.06 -0.3,0.05 -0.57,0.09 -0.82,0.15 -0.29,0.06 -0.57,0.13 -0.85,0.21l0 5zm0 2.81l0 3.54 -3.65 0 0 -14.58 3.23 0 0.21 1.04c0.36,-0.24 0.75,-0.44 1.17,-0.62 0.36,-0.16 0.76,-0.3 1.21,-0.43 0.44,-0.13 0.9,-0.2 1.37,-0.2l0.94 0c0.94,0 1.7,0.29 2.27,0.86 0.57,0.56 0.85,1.32 0.85,2.27l0 4.79c0,1.04 -0.29,1.86 -0.88,2.45 -0.59,0.59 -1.41,0.88 -2.45,0.88l-4.27 0z"/>
  <polygon id="11" class="fil1" points="318.96,54.56 318.96,62.79 315.31,62.79 315.31,54.56 311.87,54.56 311.87,51.75 322.4,51.75 322.4,54.56 "/>
  <path id="12" class="fil1" d="M340.94 59.87c0,0.42 -0.08,0.81 -0.23,1.16 -0.15,0.35 -0.37,0.66 -0.64,0.93 -0.27,0.26 -0.59,0.47 -0.98,0.61 -0.38,0.15 -0.8,0.22 -1.28,0.22l-7.91 0 0 -11.04 7.29 0c0.47,0 0.9,0.07 1.28,0.22 0.38,0.14 0.71,0.35 0.98,0.6 0.27,0.26 0.48,0.56 0.63,0.9 0.16,0.34 0.23,0.7 0.23,1.09 0,0.58 -0.14,1.09 -0.43,1.52 -0.3,0.43 -0.71,0.73 -1.23,0.88 0.62,0.11 1.16,0.41 1.61,0.91 0.45,0.5 0.68,1.17 0.68,2zm-3.65 -0.62c0,-0.21 -0.07,-0.38 -0.21,-0.52 -0.14,-0.14 -0.31,-0.21 -0.52,-0.21l-3.02 0 0 1.77 3.02 0c0.21,0 0.38,-0.07 0.52,-0.21 0.14,-0.14 0.21,-0.31 0.21,-0.52l0 -0.31zm-0.62 -4.27c0,-0.21 -0.07,-0.38 -0.21,-0.52 -0.14,-0.14 -0.31,-0.21 -0.52,-0.21l-2.4 0 0 1.87 2.4 0c0.21,0 0.38,-0.06 0.52,-0.2 0.14,-0.14 0.21,-0.32 0.21,-0.52l0 -0.42z"/>
  <path id="13" class="fil1" d="M192.29 86.54l-4.06 0 5.52 -14.58 4.16 0 5.52 14.58 -4.06 0 -0.93 -2.6 -5.21 0 -0.94 2.6zm1.87 -5.31l3.34 0 -1.67 -4.9 -1.67 4.9z"/>
  <path id="14" class="fil1" d="M212.08 86.54l-0.21 -1.04c-0.36,0.24 -0.75,0.44 -1.16,0.62 -0.36,0.16 -0.77,0.3 -1.21,0.43 -0.45,0.13 -0.9,0.2 -1.38,0.2l-0.94 0c-0.94,0 -1.7,-0.29 -2.27,-0.86 -0.56,-0.56 -0.85,-1.32 -0.85,-2.27l0 -4.79c0,-1.04 0.29,-1.85 0.89,-2.45 0.59,-0.59 1.4,-0.88 2.44,-0.88l4.27 0 0 -3.54 3.65 0 0 14.58 -3.23 0zm-0.42 -8.23l-3.12 0c-0.56,0 -0.83,0.28 -0.83,0.83l0 3.86c0,0.21 0.07,0.38 0.2,0.52 0.14,0.14 0.32,0.21 0.53,0.21l0.72 0c0.27,0 0.55,-0.02 0.84,-0.06 0.29,-0.05 0.56,-0.09 0.81,-0.15 0.29,-0.06 0.58,-0.12 0.85,-0.21l0 -5z"/>
  <path id="15" class="fil1" d="M228.64 83.42c0,1.04 -0.29,1.85 -0.88,2.44 -0.59,0.59 -1.41,0.89 -2.45,0.89l-4.79 0c-1.04,0 -1.86,-0.3 -2.45,-0.89 -0.59,-0.59 -0.88,-1.4 -0.88,-2.44l0 -4.8c0,-1.04 0.29,-1.85 0.88,-2.44 0.59,-0.59 1.41,-0.89 2.45,-0.89l4.79 0c1.04,0 1.86,0.3 2.45,0.89 0.59,0.59 0.88,1.4 0.88,2.44l0 4.8zm-3.64 -4.48c0,-0.56 -0.28,-0.84 -0.83,-0.84l-2.5 0c-0.56,0 -0.84,0.28 -0.84,0.84l0 4.16c0,0.56 0.28,0.84 0.84,0.84l2.5 0c0.55,0 0.83,-0.28 0.83,-0.84l0 -4.16z"/>
  <path id="16" class="fil1" d="M237.92 78.83c0,-0.21 -0.07,-0.38 -0.21,-0.52 -0.14,-0.14 -0.31,-0.21 -0.52,-0.21l-0.52 0c-0.35,0 -0.67,0.01 -0.96,0.03 -0.29,0.02 -0.56,0.05 -0.79,0.08 -0.27,0.04 -0.52,0.07 -0.75,0.1l0 5.42 2.91 0c0.56,0 0.84,-0.28 0.84,-0.84l0 -4.06zm3.64 4.38c0,1.04 -0.29,1.86 -0.88,2.44 -0.59,0.6 -1.41,0.89 -2.45,0.89l-7.71 0 0 -14.58 3.65 0 0 3.75c0.4,-0.09 0.81,-0.16 1.22,-0.21 0.37,-0.06 0.75,-0.11 1.16,-0.15 0.41,-0.04 0.8,-0.06 1.16,-0.06l0.73 0c0.94,0 1.7,0.29 2.27,0.85 0.57,0.57 0.85,1.33 0.85,2.28l0 4.79z"/>
  <path id="17" class="fil1" d="M247.71 77.9c-0.56,0 -0.84,0.27 -0.84,0.83l0 1.14 3.55 0 0 -1.14c0,-0.56 -0.28,-0.83 -0.84,-0.83l-1.87 0zm-4.48 0.71c0,-1.04 0.29,-1.85 0.88,-2.44 0.59,-0.58 1.41,-0.88 2.45,-0.88l4.17 0c1.04,0 1.86,0.3 2.45,0.89 0.59,0.59 0.88,1.4 0.88,2.44l0 3.86 -7.19 0 0 0.79c0,0.19 0.07,0.36 0.21,0.49 0.14,0.13 0.31,0.2 0.52,0.2 0.6,0 1.25,0 1.95,0 0.7,0 1.36,0 1.97,0 0.71,-0.08 1.42,-0.16 2.12,-0.24l0 2.61c-0.8,0.11 -1.63,0.17 -2.47,0.17 -0.73,0.12 -1.51,0.19 -2.36,0.19 -0.85,0 -1.66,0 -2.46,0 -0.94,0 -1.7,-0.29 -2.27,-0.85 -0.57,-0.57 -0.85,-1.32 -0.85,-2.26l0 -4.97z"/>
  <polygon id="18" class="fil1" points="274.9,78.42 271.98,83.62 269.06,83.62 266.14,78.42 266.14,86.54 262.39,86.54 262.39,71.96 266.35,71.96 270.52,79.67 274.69,71.96 278.65,71.96 278.65,86.54 274.9,86.54 "/>
  <path id="19" class="fil1" d="M288.96 86.54l-0.21 -1.04c-0.36,0.24 -0.75,0.44 -1.17,0.62 -0.36,0.16 -0.76,0.3 -1.21,0.43 -0.44,0.13 -0.9,0.2 -1.37,0.2l-0.94 0c-0.94,0 -1.7,-0.29 -2.27,-0.86 -0.57,-0.56 -0.85,-1.32 -0.85,-2.27l0 -8.12 3.64 0 0 7.5c0,0.21 0.07,0.38 0.21,0.52 0.14,0.14 0.31,0.21 0.52,0.21l0.73 0c0.26,0 0.54,-0.02 0.83,-0.06 0.3,-0.05 0.57,-0.09 0.82,-0.15 0.29,-0.06 0.57,-0.12 0.85,-0.21l0 -7.81 3.65 0 0 11.04 -3.23 0z"/>
  <path id="20" class="fil1" d="M297.29 78.94c0,0.2 0.07,0.38 0.21,0.52 0.14,0.14 0.31,0.21 0.52,0.21l3.75 0c0.95,0 1.7,0.28 2.27,0.84 0.57,0.57 0.86,1.32 0.86,2.25l0 0.83c0,0.94 -0.29,1.69 -0.86,2.25 -0.57,0.56 -1.32,0.85 -2.27,0.85 -0.89,0 -1.8,0 -2.73,0 -0.93,0 -1.78,-0.07 -2.56,-0.19 -0.9,0 -1.78,-0.06 -2.63,-0.16l0 -2.71c0.75,0.08 1.51,0.16 2.27,0.24 0.67,0 1.39,0 2.17,0 0.78,0 1.52,0 2.23,0 0.21,0 0.38,-0.06 0.52,-0.19 0.14,-0.14 0.21,-0.31 0.21,-0.5l0 -0.7 -4.48 0c-0.94,0 -1.7,-0.29 -2.27,-0.86 -0.57,-0.57 -0.85,-1.32 -0.85,-2.27l0 -0.73c0,-0.94 0.28,-1.7 0.85,-2.27 0.57,-0.57 1.33,-0.85 2.27,-0.85l7.08 0 0 2.71 -5.83 0c-0.21,0 -0.38,0.07 -0.52,0.21 -0.14,0.13 -0.21,0.31 -0.21,0.52z"/>
  <path id="21" class="fil1" d="M310.62 77.9c-0.55,0 -0.83,0.27 -0.83,0.83l0 1.14 3.54 0 0 -1.14c0,-0.56 -0.27,-0.83 -0.83,-0.83l-1.88 0zm-4.47 0.71c0,-1.04 0.29,-1.85 0.88,-2.44 0.59,-0.58 1.41,-0.88 2.45,-0.88l4.17 0c1.04,0 1.85,0.3 2.44,0.89 0.59,0.59 0.89,1.4 0.89,2.44l0 3.86 -7.19 0 0 0.79c0,0.19 0.07,0.36 0.21,0.49 0.14,0.13 0.31,0.2 0.52,0.2 0.6,0 1.25,0 1.95,0 0.7,0 1.36,0 1.97,0 0.71,-0.08 1.41,-0.16 2.12,-0.24l0 2.61c-0.8,0.11 -1.63,0.17 -2.48,0.17 -0.72,0.12 -1.5,0.19 -2.35,0.19 -0.85,0 -1.67,0 -2.46,0 -0.94,0 -1.7,-0.29 -2.27,-0.85 -0.57,-0.57 -0.85,-1.32 -0.85,-2.26l0 -4.97z"/>
  <path class="fil2" d="M196.56 210.52c0,1.04 -0.29,1.86 -0.88,2.45 -0.59,0.59 -1.41,0.88 -2.45,0.88l-4.79 0c-1.04,0 -1.86,-0.29 -2.45,-0.88 -0.59,-0.59 -0.89,-1.41 -0.89,-2.45l0 -4.79c0,-1.04 0.3,-1.86 0.89,-2.45 0.59,-0.59 1.41,-0.88 2.45,-0.88l4.79 0c1.04,0 1.86,0.29 2.45,0.88 0.59,0.59 0.88,1.41 0.88,2.45l0 4.79zm-3.64 -4.48c0,-0.55 -0.28,-0.83 -0.84,-0.83l-2.5 0c-0.55,0 -0.83,0.28 -0.83,0.83l0 4.17c0,0.55 0.28,0.83 0.83,0.83l2.5 0c0.56,0 0.84,-0.28 0.84,-0.83l0 -4.17z"/>
  <polygon id="1" class="fil2" points="204.69,205.42 204.69,213.65 201.04,213.65 201.04,205.42 197.6,205.42 197.6,202.6 208.13,202.6 208.13,205.42 "/>
  <path id="2" class="fil2" d="M208.96 210.52l3.75 0 0 3.13 -3.75 0 0 -3.13zm0 -7.92l3.75 0 0 3.13 -3.75 0 0 -3.13z"/>
  <path id="3" class="fil2" d="M222.92 199.06l10.93 0 0 11.67 1.57 0 0 5.62 -3.55 0 -0.2 -2.7 -8.13 0 -0.21 2.7 -3.54 0 0 -5.62 1.36 0c0.22,-0.25 0.41,-0.54 0.58,-0.86 0.15,-0.27 0.29,-0.6 0.43,-0.99 0.13,-0.38 0.21,-0.8 0.24,-1.28l0.52 -8.54zm7.18 11.67l0 -8.75 -3.85 0 -0.31 5.21c-0.03,0.53 -0.11,1 -0.23,1.43 -0.13,0.44 -0.26,0.81 -0.4,1.13 -0.15,0.36 -0.32,0.69 -0.52,0.98l5.31 0z"/>
  <polygon id="4" class="fil2" points="245.31,211.77 242.6,211.77 240.52,208.02 240.52,213.65 236.87,213.65 236.87,202.6 240.73,202.6 243.96,208.44 247.19,202.6 251.04,202.6 251.04,213.65 247.4,213.65 247.4,208.02 "/>
  <polygon id="5" class="fil2" points="260.31,202.6 264.17,202.6 264.17,213.65 260.52,213.65 260.52,207.6 256.98,213.65 253.12,213.65 253.12,202.6 256.77,202.6 256.77,208.65 "/>
  <polygon id="6" class="fil2" points="272.5,205.42 272.5,213.65 268.85,213.65 268.85,205.42 265.42,205.42 265.42,202.6 275.94,202.6 275.94,205.42 "/>
  <path id="7" class="fil2" d="M280.83 210.83l3.13 0c0.55,0 0.83,-0.27 0.83,-0.83l0 -3.85c0,-0.21 -0.07,-0.39 -0.21,-0.53 -0.14,-0.13 -0.31,-0.2 -0.52,-0.2l-0.73 0c-0.26,0 -0.54,0.02 -0.83,0.06 -0.29,0.04 -0.56,0.09 -0.81,0.14 -0.3,0.06 -0.58,0.13 -0.86,0.21l0 5zm0 2.82l0 3.54 -3.64 0 0 -14.59 3.23 0 0.2 1.05c0.37,-0.24 0.75,-0.45 1.17,-0.63 0.36,-0.15 0.76,-0.29 1.21,-0.43 0.44,-0.13 0.9,-0.19 1.37,-0.19l0.94 0c0.95,0 1.7,0.28 2.27,0.85 0.57,0.57 0.86,1.33 0.86,2.27l0 4.79c0,1.04 -0.3,1.86 -0.89,2.45 -0.59,0.59 -1.4,0.89 -2.45,0.89l-4.27 0z"/>
  <polygon id="8" class="fil2" points="297.5,202.6 301.35,202.6 301.35,213.65 297.71,213.65 297.71,207.6 294.17,213.65 290.31,213.65 290.31,202.6 293.96,202.6 293.96,208.65 "/>
  <path id="9" class="fil2" d="M314.27 202.6l0 11.05 -3.65 0 0 -3.44 -1.77 0 -1.98 3.44 -3.85 0 2.08 -3.65c-0.58,-0.21 -1.04,-0.56 -1.37,-1.06 -0.33,-0.5 -0.5,-1.12 -0.5,-1.86l0 -1.35c0,-0.95 0.28,-1.7 0.85,-2.27 0.57,-0.57 1.33,-0.86 2.27,-0.86l7.92 0zm-6.67 2.61c-0.2,0 -0.38,0.07 -0.52,0.21 -0.14,0.13 -0.21,0.31 -0.21,0.52l0 0.93c0,0.21 0.07,0.39 0.21,0.53 0.14,0.13 0.32,0.2 0.52,0.2l3.02 0 0 -2.39 -3.02 0z"/>
  <polygon id="10" class="fil2" points="201.51,237.4 183.18,237.4 183.18,222.81 186.93,222.81 186.93,234.48 190.47,234.48 190.47,222.81 194.22,222.81 194.22,234.48 197.76,234.48 197.76,222.81 201.51,222.81 "/>
  <path id="11" class="fil2" d="M208.18 234.69c0.26,0 0.54,-0.02 0.83,-0.07 0.29,-0.04 0.56,-0.09 0.81,-0.14 0.3,-0.06 0.58,-0.13 0.86,-0.21l0 -1.25 -3.02 0c-0.21,0 -0.39,0.07 -0.52,0.21 -0.14,0.14 -0.21,0.31 -0.21,0.52l0 0.21c0,0.21 0.07,0.38 0.21,0.52 0.13,0.14 0.31,0.21 0.52,0.21l0.52 0zm-1.77 2.91c-0.95,0 -1.71,-0.28 -2.27,-0.85 -0.57,-0.57 -0.86,-1.33 -0.86,-2.27l0 -0.94c0,-0.94 0.29,-1.7 0.86,-2.27 0.56,-0.57 1.32,-0.85 2.27,-0.85l4.27 0 0 -0.8c0,-0.2 -0.07,-0.37 -0.21,-0.5 -0.14,-0.14 -0.31,-0.2 -0.52,-0.2 -0.56,0 -1.16,0 -1.8,0 -0.65,0 -1.26,0.03 -1.83,0.09 -0.66,0.09 -1.33,0.14 -2,0.14l0 -2.58c0.77,-0.12 1.54,-0.17 2.34,-0.17 0.68,-0.13 1.42,-0.19 2.23,-0.19 0.8,0 1.57,0 2.31,0 0.94,0 1.7,0.28 2.27,0.85 0.57,0.56 0.85,1.32 0.85,2.26l0 8.08 -3.23 0 -0.2 -1.05c-0.37,0.24 -0.75,0.45 -1.17,0.63 -0.36,0.15 -0.76,0.29 -1.21,0.43 -0.44,0.13 -0.9,0.19 -1.37,0.19l-0.73 0z"/>
  <polygon id="12" class="fil2" points="227.24,226.35 227.24,237.4 223.59,237.4 223.59,229.17 219.84,229.17 219.84,237.4 216.2,237.4 216.2,226.35 "/>
  <path id="13" class="fil2" d="M240.57 234.27c0,1.04 -0.29,1.86 -0.88,2.45 -0.59,0.59 -1.41,0.88 -2.45,0.88l-4.79 0c-1.04,0 -1.86,-0.29 -2.45,-0.88 -0.59,-0.59 -0.88,-1.41 -0.88,-2.45l0 -4.79c0,-1.04 0.29,-1.86 0.88,-2.45 0.59,-0.59 1.41,-0.88 2.45,-0.88l4.79 0c1.04,0 1.86,0.29 2.45,0.88 0.59,0.59 0.88,1.41 0.88,2.45l0 4.79zm-3.64 -4.48c0,-0.56 -0.28,-0.83 -0.84,-0.83l-2.5 0c-0.55,0 -0.83,0.27 -0.83,0.83l0 4.17c0,0.55 0.28,0.83 0.83,0.83l2.5 0c0.56,0 0.84,-0.28 0.84,-0.83l0 -4.17z"/>
  <path id="14" class="fil2" d="M253.49 234.48c0,0.41 -0.08,0.8 -0.23,1.16 -0.15,0.35 -0.36,0.66 -0.63,0.92 -0.27,0.27 -0.6,0.47 -0.98,0.62 -0.39,0.14 -0.81,0.22 -1.28,0.22l-7.92 0 0 -11.05 7.29 0c0.47,0 0.9,0.08 1.28,0.22 0.38,0.15 0.71,0.35 0.98,0.61 0.27,0.25 0.48,0.55 0.64,0.89 0.15,0.34 0.23,0.71 0.23,1.1 0,0.58 -0.15,1.09 -0.44,1.52 -0.29,0.43 -0.7,0.72 -1.23,0.87 0.62,0.11 1.16,0.42 1.61,0.92 0.46,0.5 0.68,1.17 0.68,2zm-3.64 -0.63c0,-0.2 -0.07,-0.38 -0.21,-0.52 -0.14,-0.14 -0.32,-0.21 -0.52,-0.21l-3.02 0 0 1.77 3.02 0c0.2,0 0.38,-0.06 0.52,-0.2 0.14,-0.14 0.21,-0.32 0.21,-0.52l0 -0.32zm-0.63 -4.27c0,-0.21 -0.07,-0.38 -0.21,-0.52 -0.14,-0.14 -0.31,-0.21 -0.52,-0.21l-2.39 0 0 1.88 2.39 0c0.21,0 0.38,-0.07 0.52,-0.21 0.14,-0.14 0.21,-0.31 0.21,-0.52l0 -0.42z"/>
  <path id="15" class="fil2" d="M259.32 234.69c0.27,0 0.55,-0.02 0.84,-0.07 0.29,-0.04 0.56,-0.09 0.81,-0.14 0.29,-0.06 0.58,-0.13 0.85,-0.21l0 -1.25 -3.02 0c-0.21,0 -0.38,0.07 -0.52,0.21 -0.14,0.14 -0.21,0.31 -0.21,0.52l0 0.21c0,0.21 0.07,0.38 0.21,0.52 0.14,0.14 0.31,0.21 0.52,0.21l0.52 0zm-1.77 2.91c-0.94,0 -1.7,-0.28 -2.27,-0.85 -0.57,-0.57 -0.85,-1.33 -0.85,-2.27l0 -0.94c0,-0.94 0.28,-1.7 0.85,-2.27 0.57,-0.57 1.33,-0.85 2.27,-0.85l4.27 0 0 -0.8c0,-0.2 -0.07,-0.37 -0.21,-0.5 -0.13,-0.14 -0.31,-0.2 -0.52,-0.2 -0.55,0 -1.15,0 -1.8,0 -0.64,0 -1.25,0.03 -1.82,0.09 -0.67,0.09 -1.33,0.14 -2,0.14l0 -2.58c0.76,-0.12 1.54,-0.17 2.33,-0.17 0.68,-0.13 1.43,-0.19 2.23,-0.19 0.81,0 1.58,0 2.31,0 0.95,0 1.71,0.28 2.28,0.85 0.57,0.56 0.85,1.32 0.85,2.26l0 8.08 -3.23 0 -0.21 -1.05c-0.36,0.24 -0.75,0.45 -1.17,0.63 -0.36,0.15 -0.76,0.29 -1.2,0.43 -0.45,0.13 -0.91,0.19 -1.38,0.19l-0.73 0z"/>
  <path id="16" class="fil2" d="M278.59 226.35l0 11.05 -3.64 0 0 -8.23 -2.92 0 -0.31 5.31c-0.06,0.94 -0.37,1.7 -0.94,2.27 -0.57,0.57 -1.3,0.85 -2.19,0.85 -0.2,0 -0.43,-0.01 -0.67,-0.03 -0.25,-0.02 -0.47,-0.04 -0.68,-0.07 -0.25,-0.03 -0.49,-0.06 -0.73,-0.1l0 -2.71 0.83 0c0.53,0 0.81,-0.28 0.84,-0.84l0.41 -7.5 10 0z"/>
  <path id="17" class="fil2" d="M291.93 234.27c0,1.04 -0.3,1.86 -0.89,2.45 -0.59,0.59 -1.4,0.88 -2.44,0.88l-4.8 0c-1.04,0 -1.85,-0.29 -2.45,-0.88 -0.59,-0.59 -0.88,-1.41 -0.88,-2.45l0 -4.79c0,-1.04 0.29,-1.86 0.88,-2.45 0.6,-0.59 1.41,-0.88 2.45,-0.88l4.8 0c1.04,0 1.85,0.29 2.44,0.88 0.59,0.59 0.89,1.41 0.89,2.45l0 4.79zm-3.65 -4.48c0,-0.56 -0.28,-0.83 -0.83,-0.83l-2.5 0c-0.56,0 -0.83,0.27 -0.83,0.83l0 4.17c0,0.55 0.27,0.83 0.83,0.83l2.5 0c0.55,0 0.83,-0.28 0.83,-0.83l0 -4.17z"/>
  <path id="18" class="fil2" d="M304.85 234.48c0,0.41 -0.08,0.8 -0.23,1.16 -0.16,0.35 -0.37,0.66 -0.64,0.92 -0.27,0.27 -0.6,0.47 -0.98,0.62 -0.38,0.14 -0.81,0.22 -1.28,0.22l-7.92 0 0 -11.05 7.3 0c0.47,0 0.89,0.08 1.28,0.22 0.38,0.15 0.7,0.35 0.98,0.61 0.27,0.25 0.48,0.55 0.63,0.89 0.15,0.34 0.23,0.71 0.23,1.1 0,0.58 -0.15,1.09 -0.44,1.52 -0.29,0.43 -0.7,0.72 -1.23,0.87 0.63,0.11 1.17,0.42 1.62,0.92 0.45,0.5 0.68,1.17 0.68,2zm-3.65 -0.63c0,-0.2 -0.07,-0.38 -0.21,-0.52 -0.14,-0.14 -0.31,-0.21 -0.52,-0.21l-3.02 0 0 1.77 3.02 0c0.21,0 0.38,-0.06 0.52,-0.2 0.14,-0.14 0.21,-0.32 0.21,-0.52l0 -0.32zm-0.63 -4.27c0,-0.21 -0.06,-0.38 -0.2,-0.52 -0.14,-0.14 -0.32,-0.21 -0.52,-0.21l-2.4 0 0 1.88 2.4 0c0.2,0 0.38,-0.07 0.52,-0.21 0.14,-0.14 0.2,-0.31 0.2,-0.52l0 -0.42z"/>
  <path id="19" class="fil2" d="M310.68 234.69c0.26,0 0.54,-0.02 0.83,-0.07 0.29,-0.04 0.56,-0.09 0.81,-0.14 0.3,-0.06 0.58,-0.13 0.86,-0.21l0 -1.25 -3.02 0c-0.21,0 -0.38,0.07 -0.52,0.21 -0.14,0.14 -0.21,0.31 -0.21,0.52l0 0.21c0,0.21 0.07,0.38 0.21,0.52 0.14,0.14 0.31,0.21 0.52,0.21l0.52 0zm-1.77 2.91c-0.95,0 -1.7,-0.28 -2.27,-0.85 -0.57,-0.57 -0.86,-1.33 -0.86,-2.27l0 -0.94c0,-0.94 0.29,-1.7 0.86,-2.27 0.57,-0.57 1.32,-0.85 2.27,-0.85l4.27 0 0 -0.8c0,-0.2 -0.07,-0.37 -0.21,-0.5 -0.14,-0.14 -0.31,-0.2 -0.52,-0.2 -0.56,0 -1.16,0 -1.8,0 -0.65,0 -1.26,0.03 -1.83,0.09 -0.66,0.09 -1.33,0.14 -2,0.14l0 -2.58c0.77,-0.12 1.55,-0.17 2.34,-0.17 0.68,-0.13 1.42,-0.19 2.23,-0.19 0.8,0 1.57,0 2.31,0 0.94,0 1.7,0.28 2.27,0.85 0.57,0.56 0.85,1.32 0.85,2.26l0 8.08 -3.22 0 -0.21 -1.05c-0.36,0.24 -0.75,0.45 -1.17,0.63 -0.36,0.15 -0.76,0.29 -1.21,0.43 -0.44,0.13 -0.9,0.19 -1.37,0.19l-0.73 0z"/>
 </g>
</svg>
