<?xml version="1.0" encoding="UTF-8"?>
<!DOCTYPE svg PUBLIC "-//W3C//DTD SVG 1.1//EN" "http://www.w3.org/Graphics/SVG/1.1/DTD/svg11.dtd">
<!-- Creator: CorelDRAW 2017 -->
<svg xmlns="http://www.w3.org/2000/svg" xml:space="preserve" width="720px" height="480px" version="1.1" style="shape-rendering:geometricPrecision; text-rendering:geometricPrecision; image-rendering:optimizeQuality; fill-rule:evenodd; clip-rule:evenodd"
viewBox="0 0 720 480"
 xmlns:xlink="http://www.w3.org/1999/xlink">
 <defs>
  <style type="text/css">
   <![CDATA[
    .str0 {stroke:#2B2A29;stroke-width:2.36;stroke-miterlimit:22.9256}
    .str1 {stroke:black;stroke-width:2.36;stroke-miterlimit:22.9256}
    .fil0 {fill:none}
    .fil1 {fill:black}
    .fil2 {fill:white;fill-rule:nonzero}
   ]]>
  </style>
 </defs>
 <g id="Слой_x0020_1">
  <metadata id="CorelCorpID_0Corel-Layer"/>
  <rect class="fil0 str0" width="720" height="480"/>
  <rect class="fil1" x="206" y="149" width="300" height="182"/>
  <g id="_2216469864880">
   <rect class="fil1 str1" x="-17.85" y="104.5" width="42.6" height="37" rx="3.91" ry="4.57"/>
   <rect class="fil1 str1" x="32.96" y="104.5" width="42.6" height="37" rx="3.91" ry="4.57"/>
   <rect class="fil1 str1" x="83.77" y="104.5" width="42.6" height="37" rx="3.91" ry="4.57"/>
   <rect class="fil1 str1" x="134.58" y="104.5" width="42.6" height="37" rx="3.91" ry="4.57"/>
   <rect class="fil1 str1" x="185.4" y="104.5" width="42.6" height="37" rx="3.91" ry="4.57"/>
   <rect class="fil1 str1" x="236.21" y="104.5" width="42.6" height="37" rx="3.91" ry="4.57"/>
   <rect class="fil1 str1" x="288.31" y="104.5" width="42.6" height="37" rx="3.91" ry="4.57"/>
   <rect class="fil1 str1" x="339.12" y="104.5" width="42.6" height="37" rx="3.91" ry="4.57"/>
   <rect class="fil1 str1" x="389.94" y="104.5" width="42.6" height="37" rx="3.91" ry="4.57"/>
   <rect class="fil1 str1" x="440.75" y="104.5" width="42.6" height="37" rx="3.91" ry="4.57"/>
   <rect class="fil1 str1" x="491.56" y="104.5" width="42.6" height="37" rx="3.91" ry="4.57"/>
   <rect class="fil1 str1" x="542.37" y="104.5" width="42.6" height="37" rx="3.91" ry="4.57"/>
   <rect class="fil1 str1" x="548.96" y="104.5" width="42.6" height="37" rx="3.91" ry="4.57"/>
   <rect class="fil1 str1" x="599.77" y="104.5" width="42.6" height="37" rx="3.91" ry="4.57"/>
   <rect class="fil1 str1" x="650.58" y="104.5" width="42.6" height="37" rx="3.91" ry="4.57"/>
   <rect class="fil1 str1" x="701.4" y="104.5" width="42.6" height="37" rx="3.91" ry="4.57"/>
  </g>
  <rect class="fil1" x="-105.5" y="149" width="303.5" height="182"/>
  <rect class="fil1" x="514" y="149" width="301.5" height="182"/>
  <g id="_2216469919024">
   <rect class="fil1 str1" x="-17.85" y="338.5" width="42.6" height="37" rx="3.91" ry="4.57"/>
   <rect class="fil1 str1" x="32.96" y="338.5" width="42.6" height="37" rx="3.91" ry="4.57"/>
   <rect class="fil1 str1" x="83.77" y="338.5" width="42.6" height="37" rx="3.91" ry="4.57"/>
   <rect class="fil1 str1" x="134.58" y="338.5" width="42.6" height="37" rx="3.91" ry="4.57"/>
   <rect class="fil1 str1" x="185.4" y="338.5" width="42.6" height="37" rx="3.91" ry="4.57"/>
   <rect class="fil1 str1" x="236.21" y="338.5" width="42.6" height="37" rx="3.91" ry="4.57"/>
   <rect class="fil1 str1" x="288.31" y="338.5" width="42.6" height="37" rx="3.91" ry="4.57"/>
   <rect class="fil1 str1" x="339.12" y="338.5" width="42.6" height="37" rx="3.91" ry="4.57"/>
   <rect class="fil1 str1" x="389.94" y="338.5" width="42.6" height="37" rx="3.91" ry="4.57"/>
   <rect class="fil1 str1" x="440.75" y="338.5" width="42.6" height="37" rx="3.91" ry="4.57"/>
   <rect class="fil1 str1" x="491.56" y="338.5" width="42.6" height="37" rx="3.91" ry="4.57"/>
   <rect class="fil1 str1" x="542.37" y="338.5" width="42.6" height="37" rx="3.91" ry="4.57"/>
   <rect class="fil1 str1" x="548.96" y="338.5" width="42.6" height="37" rx="3.91" ry="4.57"/>
   <rect class="fil1 str1" x="599.77" y="338.5" width="42.6" height="37" rx="3.91" ry="4.57"/>
   <rect class="fil1 str1" x="650.58" y="338.5" width="42.6" height="37" rx="3.91" ry="4.57"/>
   <rect class="fil1 str1" x="701.4" y="338.5" width="42.6" height="37" rx="3.91" ry="4.57"/>
  </g>
  <g id="_2216469890736">
   <path class="fil2" d="M275.4 162.8l4.87 0c1.43,0 2.46,0.31 3.1,0.97 0.65,0.63 0.97,1.66 0.97,3.1l0 0.6c0,1.43 -0.32,2.46 -0.97,3.11 -0.64,0.64 -1.67,0.96 -3.1,0.96l-8.53 0 0 -14.22 11.28 0 0 2.85 -7.62 0 0 2.62 0 0 0 0 0 0.01zm5.28 4.07c0,-0.81 -0.41,-1.23 -1.22,-1.23l-4.06 0 0 3.05 4.06 0c0.81,0 1.22,-0.39 1.22,-1.22l0 -0.6 0 0 0 0z"/>
   <path id="_1" class="fil2" d="M285.96 171.54l0 -10.77 3.56 0 0 3.36 3.95 0c0.93,0 1.67,0.27 2.23,0.83 0.54,0.55 0.83,1.28 0.83,2.21l0 1.32c0,0.92 -0.29,1.66 -0.83,2.22 -0.56,0.54 -1.3,0.83 -2.23,0.83l-7.51 0 0 0 0 0zm6.29 -2.53c0.21,0 0.39,-0.08 0.52,-0.21 0.14,-0.14 0.2,-0.31 0.2,-0.5l0 -0.9c0,-0.21 -0.06,-0.38 -0.2,-0.52 -0.13,-0.13 -0.31,-0.19 -0.52,-0.19l-2.73 0 0 2.32 2.73 0 0 0 0 0 0 0zm9.15 2.53l-3.56 0 0 -10.77 3.56 0 0 10.77z"/>
   <path id="_2" class="fil2" d="M303.23 164.01c0,-1.02 0.29,-1.8 0.86,-2.38 0.58,-0.58 1.37,-0.86 2.39,-0.86l6.49 0 0 2.75 -5.37 0c-0.54,0 -0.81,0.27 -0.81,0.8l0 3.94c0,0.19 0.06,0.35 0.19,0.49 0.14,0.15 0.31,0.22 0.52,0.22 0.51,0 1.1,0 1.74,0 0.64,0 1.23,-0.04 1.8,-0.09 0.63,-0.06 1.3,-0.13 1.93,-0.19l0 2.65c-0.76,0.1 -1.52,0.16 -2.29,0.16 -0.66,0.12 -1.38,0.18 -2.16,0.18 -0.79,0 -1.52,0 -2.25,0 -0.91,0 -1.66,-0.28 -2.21,-0.83 -0.55,-0.55 -0.83,-1.29 -0.83,-2.2l0 -4.64 0 0 0 0 0 0z"/>
   <polygon id="_3" class="fil2" points="320.7,163.52 320.7,171.54 317.15,171.54 317.15,163.52 313.79,163.52 313.79,160.77 324.05,160.77 324.05,163.52 "/>
   <path id="_4" class="fil2" d="M328.81 168.8l3.06 0c0.55,0 0.81,-0.27 0.81,-0.81l0 -3.76c0,-0.22 -0.08,-0.38 -0.21,-0.51 -0.13,-0.14 -0.3,-0.21 -0.51,-0.21l-0.71 0c-0.26,0 -0.53,0.02 -0.81,0.06 -0.28,0.05 -0.54,0.08 -0.8,0.15 -0.27,0.06 -0.55,0.12 -0.83,0.19l0 4.89 0 0 0 0zm0 2.74l0 3.45 -3.55 0 0 -14.22 3.16 0 0.21 1.02c0.35,-0.25 0.72,-0.43 1.13,-0.6 0.34,-0.16 0.74,-0.3 1.17,-0.43 0.45,-0.13 0.88,-0.2 1.35,-0.2l0.9 0c0.93,0 1.67,0.28 2.22,0.85 0.55,0.54 0.84,1.29 0.84,2.21l0 4.68c0,1 -0.3,1.8 -0.86,2.38 -0.58,0.57 -1.38,0.86 -2.38,0.86l-4.19 0 0 0 0 0z"/>
   <path id="_5" class="fil2" d="M338.07 171.54l0 -10.77 3.54 0 0 3.36 3.97 0c0.93,0 1.65,0.27 2.21,0.83 0.56,0.55 0.83,1.28 0.83,2.21l0 1.32c0,0.92 -0.27,1.66 -0.83,2.22 -0.57,0.54 -1.29,0.83 -2.21,0.83l-7.52 0 0 0 0.01 0zm6.29 -2.53c0.2,0 0.36,-0.08 0.51,-0.21 0.13,-0.14 0.2,-0.31 0.2,-0.5l0 -0.9c0,-0.21 -0.07,-0.38 -0.2,-0.52 -0.15,-0.13 -0.31,-0.19 -0.51,-0.19l-2.75 0 0 2.32 2.75 0 0 0 0 0 0 0zm9.13 2.53l-3.54 0 0 -10.77 3.54 0 0 10.77z"/>
   <path id="_6" class="fil2" d="M359.79 159.76c-1.75,0 -2.62,-0.89 -2.62,-2.65l0 -0.61 2.62 0 0 0.53c0,0.18 0.08,0.35 0.22,0.49 0.13,0.13 0.3,0.19 0.51,0.19l0.6 0c0.19,0 0.37,-0.06 0.51,-0.19 0.14,-0.14 0.2,-0.31 0.2,-0.49l0 -0.53 2.64 0 0 0.61c0,1.76 -0.87,2.65 -2.64,2.65l-2.04 0 0 0 0 0zm2.75 1.01l3.75 0 0 10.77 -3.54 0 0 -5.9 -3.45 5.9 -3.77 0 0 -10.77 3.55 0 0 5.89 3.46 -5.89 0 0 0 0z"/>
   <path id="_7" class="fil2" d="M374.22 164.01c0,-1.02 0.29,-1.8 0.85,-2.38 0.59,-0.58 1.38,-0.86 2.4,-0.86l6.5 0 0 2.75 -5.39 0c-0.54,0 -0.8,0.27 -0.8,0.8l0 3.94c0,0.19 0.06,0.35 0.19,0.49 0.14,0.15 0.32,0.22 0.52,0.22 0.52,0 1.1,0 1.75,0 0.63,0 1.23,-0.04 1.78,-0.09 0.65,-0.06 1.3,-0.13 1.95,-0.19l0 2.65c-0.76,0.1 -1.52,0.16 -2.29,0.16 -0.66,0.12 -1.39,0.18 -2.16,0.18 -0.79,0 -1.54,0 -2.26,0 -0.91,0 -1.66,-0.28 -2.21,-0.83 -0.55,-0.55 -0.84,-1.29 -0.84,-2.2l0 -4.64 0 0 0 0 0.01 0z"/>
   <polygon id="_8" class="fil2" points="391.69,163.52 391.69,171.54 388.14,171.54 388.14,163.52 384.78,163.52 384.78,160.77 395.05,160.77 395.05,163.52 "/>
   <path id="_9" class="fil2" d="M400.12 168.9c0.25,0 0.52,-0.02 0.82,-0.06 0.28,-0.04 0.54,-0.09 0.78,-0.15 0.29,-0.05 0.57,-0.13 0.84,-0.2l0 -1.21 -2.95 0c-0.21,0 -0.37,0.07 -0.5,0.19 -0.14,0.14 -0.22,0.31 -0.22,0.52l0 0.19c0,0.21 0.08,0.38 0.22,0.51 0.13,0.13 0.29,0.21 0.5,0.21l0.51 0 0 0 0 0zm-1.72 2.84c-0.92,0 -1.66,-0.28 -2.22,-0.83 -0.56,-0.55 -0.83,-1.3 -0.83,-2.22l0 -0.91c0,-0.92 0.27,-1.66 0.83,-2.21 0.56,-0.55 1.3,-0.85 2.22,-0.85l4.16 0 0 -0.77c0,-0.2 -0.08,-0.34 -0.21,-0.48 -0.12,-0.13 -0.31,-0.21 -0.5,-0.21 -0.54,0 -1.13,0 -1.76,0 -0.63,0 -1.23,0.04 -1.78,0.11 -0.65,0.09 -1.3,0.13 -1.95,0.13l0 -2.51c0.75,-0.12 1.51,-0.18 2.27,-0.18 0.66,-0.11 1.4,-0.19 2.19,-0.19 0.78,0 1.53,0 2.24,0 0.93,0 1.66,0.29 2.21,0.84 0.55,0.55 0.84,1.29 0.84,2.19l0 7.88 -3.15 0 -0.21 -1c-0.34,0.23 -0.73,0.42 -1.14,0.59 -0.34,0.16 -0.73,0.3 -1.16,0.43 -0.44,0.12 -0.89,0.19 -1.34,0.19l-0.71 0 0 0 0 0 0 0z"/>
   <path id="_10" class="fil2" d="M411.49 168.8l3.05 0c0.54,0 0.81,-0.27 0.81,-0.81l0 -3.76c0,-0.22 -0.06,-0.38 -0.2,-0.51 -0.13,-0.14 -0.3,-0.21 -0.51,-0.21l-0.71 0c-0.26,0 -0.52,0.02 -0.81,0.06 -0.29,0.05 -0.54,0.08 -0.8,0.15 -0.29,0.06 -0.56,0.12 -0.83,0.19l0 4.89zm0 2.74l0 3.45 -3.55 0 0 -14.22 3.15 0 0.2 1.02c0.35,-0.25 0.73,-0.43 1.14,-0.6 0.35,-0.16 0.73,-0.3 1.18,-0.43 0.43,-0.13 0.88,-0.2 1.33,-0.2l0.92 0c0.93,0 1.66,0.28 2.21,0.85 0.56,0.54 0.84,1.29 0.84,2.21l0 4.68c0,1 -0.3,1.8 -0.87,2.38 -0.57,0.57 -1.37,0.86 -2.38,0.86l-4.17 0 0 0 0 0z"/>
   <polygon id="_11" class="fil2" points="426.84,163.52 426.84,171.54 423.27,171.54 423.27,163.52 419.91,163.52 419.91,160.77 430.19,160.77 430.19,163.52 "/>
   <path id="_12" class="fil2" d="M448.26 168.69c0,0.42 -0.08,0.78 -0.22,1.13 -0.15,0.34 -0.36,0.64 -0.63,0.9 -0.26,0.26 -0.58,0.46 -0.96,0.61 -0.36,0.14 -0.77,0.21 -1.25,0.21l-7.71 0 0 -10.77 7.11 0c0.45,0 0.88,0.06 1.25,0.22 0.37,0.14 0.69,0.33 0.96,0.58 0.26,0.26 0.47,0.55 0.61,0.87 0.16,0.34 0.22,0.69 0.22,1.08 0,0.55 -0.13,1.05 -0.41,1.47 -0.3,0.42 -0.7,0.72 -1.19,0.86 0.59,0.11 1.11,0.39 1.56,0.89 0.44,0.49 0.66,1.14 0.66,1.95l0 0 0 0zm-3.56 -0.62c0,-0.19 -0.06,-0.35 -0.2,-0.49 -0.15,-0.13 -0.31,-0.21 -0.51,-0.21l-2.95 0 0 1.74 2.95 0c0.2,0 0.36,-0.08 0.51,-0.23 0.14,-0.13 0.2,-0.29 0.2,-0.49l0 -0.32 0 0 0 0 0 0zm-0.6 -4.16c0,-0.19 -0.08,-0.35 -0.21,-0.49 -0.14,-0.15 -0.3,-0.22 -0.51,-0.22l-2.34 0 0 1.83 2.34 0c0.21,0 0.37,-0.05 0.51,-0.2 0.13,-0.13 0.21,-0.3 0.21,-0.5l0 -0.42 0 0z"/>
   <path id="_13" class="fil2" d="M303.33 194.69l-3.96 0 5.38 -14.22 4.06 0 5.38 14.22 -3.95 0 -0.91 -2.53 -5.08 0 -0.92 2.53zm1.83 -5.18l3.25 0 -1.62 -4.78 -1.63 4.78 0 0 0 0 0 0z"/>
   <path id="_14" class="fil2" d="M322.62 194.69l-0.21 -1.01c-0.34,0.23 -0.72,0.43 -1.12,0.6 -0.36,0.16 -0.75,0.29 -1.18,0.42 -0.43,0.12 -0.87,0.19 -1.34,0.19l-0.92 0c-0.92,0 -1.66,-0.28 -2.21,-0.83 -0.55,-0.55 -0.84,-1.29 -0.84,-2.22l0 -4.67c0,-1.02 0.29,-1.8 0.88,-2.39 0.57,-0.56 1.36,-0.86 2.38,-0.86l4.16 0 0 -3.45 3.56 0 0 14.22 -3.16 0 0 0zm-0.4 -8.02l-3.05 0c-0.54,0 -0.81,0.27 -0.81,0.81l0 3.77c0,0.19 0.07,0.35 0.2,0.49 0.14,0.13 0.31,0.22 0.52,0.22l0.7 0c0.25,0 0.53,-0.02 0.82,-0.07 0.28,-0.05 0.55,-0.09 0.78,-0.15 0.29,-0.05 0.58,-0.11 0.84,-0.2l0 -4.87 0 0 0 0z"/>
   <path id="_15" class="fil2" d="M338.78 191.65c0,1.01 -0.29,1.8 -0.86,2.37 -0.58,0.58 -1.38,0.87 -2.39,0.87l-4.67 0c-1.02,0 -1.82,-0.29 -2.39,-0.87 -0.58,-0.57 -0.86,-1.36 -0.86,-2.37l0 -4.69c0,-1 0.28,-1.8 0.86,-2.38 0.57,-0.57 1.37,-0.86 2.39,-0.86l4.67 0c1.01,0 1.81,0.29 2.39,0.86 0.58,0.58 0.86,1.38 0.86,2.38l0 4.69zm-3.56 -4.37c0,-0.55 -0.27,-0.82 -0.81,-0.82l-2.43 0c-0.54,0 -0.82,0.27 -0.82,0.82l0 4.06c0,0.53 0.28,0.82 0.82,0.82l2.43 0c0.54,0 0.81,-0.29 0.81,-0.82l0 -4.06z"/>
   <path id="_16" class="fil2" d="M347.81 187.17c0,-0.21 -0.06,-0.36 -0.19,-0.5 -0.14,-0.13 -0.3,-0.21 -0.52,-0.21l-0.49 0c-0.36,0 -0.66,0.01 -0.95,0.04 -0.28,0.01 -0.54,0.05 -0.77,0.07 -0.26,0.04 -0.5,0.06 -0.72,0.1l0 5.28 2.83 0c0.54,0 0.81,-0.27 0.81,-0.82l0 -3.96 0 0 0 0zm3.56 4.27c0,1.01 -0.29,1.81 -0.86,2.39 -0.57,0.59 -1.37,0.86 -2.39,0.86l-7.51 0 0 -14.22 3.56 0 0 3.66c0.38,-0.09 0.78,-0.16 1.17,-0.21 0.37,-0.06 0.74,-0.1 1.15,-0.15 0.39,-0.03 0.78,-0.05 1.13,-0.05l0.71 0c0.92,0 1.66,0.29 2.21,0.83 0.55,0.56 0.83,1.3 0.83,2.22l0 4.67 0 0 0 0 0 0z"/>
   <path id="_17" class="fil2" d="M357.36 186.27c-0.54,0 -0.82,0.27 -0.82,0.8l0 1.12 3.46 0 0 -1.12c0,-0.53 -0.27,-0.8 -0.82,-0.8l-1.82 0 0 0 0 0zm-4.36 0.68c0,-1 0.27,-1.79 0.85,-2.37 0.58,-0.57 1.39,-0.85 2.4,-0.85l4.06 0c1,0 1.81,0.28 2.39,0.85 0.58,0.58 0.85,1.38 0.85,2.38l0 3.77 -7.01 0 0 0.78c0,0.18 0.07,0.34 0.21,0.46 0.13,0.14 0.3,0.21 0.5,0.21 0.59,0 1.22,0 1.9,0 0.69,0 1.33,0 1.93,0 0.69,-0.08 1.39,-0.16 2.06,-0.24l0 2.55c-0.78,0.11 -1.59,0.16 -2.4,0.16 -0.71,0.12 -1.48,0.18 -2.31,0.18 -0.82,0 -1.62,0 -2.39,0 -0.92,0 -1.66,-0.28 -2.21,-0.82 -0.57,-0.56 -0.83,-1.29 -0.83,-2.21l0 -4.85 0 0z"/>
   <polygon id="_18" class="fil2" points="383.88,186.78 381.03,191.84 378.18,191.84 375.33,186.78 375.33,194.69 371.67,194.69 371.67,180.47 375.54,180.47 379.6,188 383.67,180.47 387.53,180.47 387.53,194.69 383.88,194.69 "/>
   <path id="_19" class="fil2" d="M397.59 194.69l-0.22 -1.01c-0.35,0.23 -0.72,0.43 -1.13,0.6 -0.35,0.16 -0.75,0.29 -1.18,0.42 -0.43,0.12 -0.87,0.19 -1.34,0.19l-0.92 0c-0.91,0 -1.66,-0.28 -2.21,-0.83 -0.55,-0.55 -0.82,-1.29 -0.82,-2.22l0 -7.92 3.53 0 0 7.33c0,0.19 0.08,0.35 0.22,0.49 0.14,0.13 0.3,0.22 0.49,0.22l0.72 0c0.25,0 0.54,-0.02 0.81,-0.07 0.3,-0.05 0.56,-0.09 0.81,-0.15 0.28,-0.05 0.55,-0.11 0.82,-0.2l0 -7.62 3.56 0 0 10.76 -3.14 0 0 0 0 0.01z"/>
   <path id="_20" class="fil2" d="M405.7 187.28c0,0.2 0.07,0.37 0.21,0.51 0.13,0.13 0.31,0.21 0.5,0.21l3.66 0c0.93,0 1.66,0.27 2.21,0.82 0.56,0.55 0.84,1.28 0.84,2.18l0 0.81c0,0.91 -0.28,1.65 -0.84,2.2 -0.55,0.55 -1.28,0.82 -2.21,0.82 -0.87,0 -1.75,0 -2.66,0 -0.91,0 -1.73,-0.06 -2.5,-0.18 -0.88,0 -1.73,-0.05 -2.56,-0.15l0 -2.65c0.74,0.09 1.47,0.16 2.22,0.25 0.64,0 1.34,0 2.1,0 0.76,0 1.49,0 2.19,0 0.19,0 0.36,-0.06 0.5,-0.2 0.13,-0.14 0.21,-0.29 0.21,-0.48l0 -0.69 -4.37 0c-0.92,0 -1.66,-0.28 -2.21,-0.83 -0.57,-0.57 -0.84,-1.29 -0.84,-2.22l0 -0.72c0,-0.9 0.27,-1.65 0.84,-2.2 0.55,-0.56 1.29,-0.83 2.21,-0.83l6.9 0 0 2.64 -5.69 0c-0.19,0 -0.36,0.08 -0.5,0.21 -0.14,0.12 -0.21,0.29 -0.21,0.5l0 0 0 0 0 0z"/>
   <path id="_21" class="fil2" d="M418.7 186.27c-0.53,0 -0.81,0.27 -0.81,0.8l0 1.12 3.45 0 0 -1.12c0,-0.53 -0.26,-0.8 -0.8,-0.8l-1.84 0 0 0zm-4.36 0.68c0,-1 0.28,-1.79 0.86,-2.37 0.58,-0.57 1.38,-0.85 2.38,-0.85l4.08 0c1,0 1.79,0.28 2.37,0.85 0.57,0.58 0.87,1.38 0.87,2.38l0 3.77 -7.01 0 0 0.78c0,0.18 0.06,0.34 0.2,0.46 0.14,0.14 0.3,0.21 0.51,0.21 0.59,0 1.22,0 1.89,0 0.69,0 1.34,0 1.93,0 0.7,-0.08 1.39,-0.16 2.06,-0.24l0 2.55c-0.77,0.11 -1.58,0.16 -2.42,0.16 -0.68,0.12 -1.45,0.18 -2.28,0.18 -0.83,0 -1.63,0 -2.41,0 -0.9,0 -1.65,-0.28 -2.21,-0.82 -0.55,-0.56 -0.82,-1.29 -0.82,-2.21l0 -4.85 0 0 0 0 0 0z"/>
  </g>
  <g id="_2216469881232">
   <path class="fil2" d="M307.93 292.66c0,1.02 -0.29,1.82 -0.86,2.39 -0.57,0.57 -1.37,0.86 -2.39,0.86l-4.66 0c-1.02,0 -1.82,-0.29 -2.39,-0.86 -0.58,-0.57 -0.86,-1.37 -0.86,-2.39l0 -4.66c0,-1.02 0.28,-1.82 0.86,-2.39 0.57,-0.58 1.37,-0.86 2.39,-0.86l4.66 0c1.02,0 1.82,0.28 2.39,0.86 0.57,0.58 0.86,1.37 0.86,2.39l0 4.66zm-3.56 -4.36c0,-0.53 -0.27,-0.81 -0.81,-0.81l-2.44 0c-0.54,0 -0.81,0.28 -0.81,0.81l0 4.06c0,0.54 0.27,0.81 0.81,0.81l2.44 0c0.54,0 0.81,-0.27 0.81,-0.81l0 -4.06z"/>
   <polygon id="_1_1" class="fil2" points="315.85,287.69 315.85,295.72 312.29,295.72 312.29,287.69 308.94,287.69 308.94,284.95 319.21,284.95 319.21,287.69 "/>
   <path id="_2_2" class="fil2" d="M320.02 292.66l3.64 0 0 3.06 -3.64 0 0 -3.06zm0 -7.71l3.64 0 0 3.05 -3.64 0 0 -3.05z"/>
   <path id="_3_3" class="fil2" d="M333.61 281.5l10.65 0 0 11.37 1.53 0 0 5.47 -3.46 0 -0.19 -2.62 -7.92 0 -0.22 2.62 -3.43 0 0 -5.47 1.32 0c0.21,-0.24 0.4,-0.54 0.56,-0.84 0.16,-0.26 0.29,-0.59 0.42,-0.96 0.13,-0.38 0.2,-0.79 0.24,-1.25l0.5 -8.32 0 0 0 0 0 0zm7.01 11.37l0 -8.54 -3.76 0 -0.3 5.09c-0.03,0.51 -0.11,0.97 -0.23,1.39 -0.13,0.43 -0.25,0.79 -0.39,1.1 -0.15,0.35 -0.32,0.68 -0.5,0.96l5.18 0 0 0 0 0z"/>
   <polygon id="_4_4" class="fil2" points="355.42,293.88 352.79,293.88 350.76,290.23 350.76,295.72 347.2,295.72 347.2,284.95 350.97,284.95 354.12,290.64 357.26,284.95 361.01,284.95 361.01,295.72 357.47,295.72 357.47,290.23 "/>
   <polygon id="_5_5" class="fil2" points="370.05,284.95 373.8,284.95 373.8,295.72 370.26,295.72 370.26,289.82 366.81,295.72 363.04,295.72 363.04,284.95 366.6,284.95 366.6,290.83 "/>
   <polygon id="_6_6" class="fil2" points="381.94,287.69 381.94,295.72 378.37,295.72 378.37,287.69 375.03,287.69 375.03,284.95 385.27,284.95 385.27,287.69 "/>
   <path id="_7_7" class="fil2" d="M390.04 292.97l3.06 0c0.53,0 0.81,-0.27 0.81,-0.81l0 -3.75c0,-0.21 -0.07,-0.38 -0.22,-0.52 -0.14,-0.12 -0.3,-0.19 -0.5,-0.19l-0.72 0c-0.25,0 -0.52,0.02 -0.79,0.06 -0.3,0.03 -0.56,0.08 -0.8,0.13 -0.3,0.06 -0.57,0.12 -0.84,0.2l0 4.88 0 0 0 0 0 0zm0 2.75l0 3.44 -3.55 0 0 -14.21 3.15 0 0.21 1.01c0.34,-0.23 0.71,-0.42 1.13,-0.6 0.34,-0.16 0.73,-0.29 1.18,-0.43 0.43,-0.12 0.88,-0.18 1.33,-0.18l0.91 0c0.93,0 1.66,0.27 2.22,0.83 0.55,0.54 0.84,1.29 0.84,2.21l0 4.68c0,1 -0.29,1.8 -0.86,2.37 -0.59,0.58 -1.38,0.88 -2.4,0.88l-4.15 0 0 0 0 0 -0.01 0z"/>
   <polygon id="_8_8" class="fil2" points="406.29,284.95 410.04,284.95 410.04,295.72 406.49,295.72 406.49,289.82 403.04,295.72 399.27,295.72 399.27,284.95 402.84,284.95 402.84,290.83 "/>
   <path id="_9_9" class="fil2" d="M422.63 284.95l0 10.77 -3.56 0 0 -3.36 -1.73 0 -1.92 3.36 -3.76 0 2.03 -3.56c-0.56,-0.21 -1.01,-0.55 -1.33,-1.03 -0.33,-0.49 -0.49,-1.11 -0.49,-1.83l0 -1.3c0,-0.93 0.27,-1.66 0.82,-2.22 0.57,-0.55 1.3,-0.83 2.22,-0.83l7.72 0 0 0 0 0zm-6.5 2.54c-0.2,0 -0.37,0.06 -0.5,0.2 -0.14,0.13 -0.21,0.31 -0.21,0.51l0 0.91c0,0.2 0.07,0.38 0.21,0.51 0.13,0.12 0.3,0.2 0.5,0.2l2.94 0 0 -2.33 -2.94 0z"/>
   <polygon id="_10_10" class="fil2" points="312.75,318.86 294.89,318.86 294.89,304.64 298.55,304.64 298.55,316.01 301.99,316.01 301.99,304.64 305.65,304.64 305.65,316.01 309.1,316.01 309.1,304.64 312.75,304.64 "/>
   <path id="_11_11" class="fil2" d="M319.26 316.21c0.24,0 0.51,-0.02 0.79,-0.07 0.29,-0.03 0.56,-0.08 0.8,-0.13 0.28,-0.06 0.57,-0.12 0.84,-0.2l0 -1.22 -2.95 0c-0.19,0 -0.38,0.06 -0.5,0.21 -0.15,0.13 -0.21,0.29 -0.21,0.5l0 0.21c0,0.21 0.06,0.37 0.21,0.5 0.12,0.14 0.3,0.2 0.5,0.2l0.52 0 0 0 0 0 0 0zm-1.73 2.84c-0.94,0 -1.67,-0.27 -2.21,-0.82 -0.57,-0.56 -0.85,-1.3 -0.85,-2.22l0 -0.92c0,-0.91 0.28,-1.64 0.85,-2.21 0.54,-0.55 1.27,-0.83 2.21,-0.83l4.16 0 0 -0.78c0,-0.19 -0.07,-0.35 -0.2,-0.49 -0.15,-0.13 -0.31,-0.19 -0.52,-0.19 -0.55,0 -1.13,0 -1.75,0 -0.64,0 -1.23,0.03 -1.79,0.08 -0.64,0.09 -1.29,0.15 -1.94,0.15l0 -2.53c0.75,-0.11 1.5,-0.16 2.28,-0.16 0.66,-0.12 1.39,-0.18 2.17,-0.18 0.79,0 1.54,0 2.25,0 0.92,0 1.67,0.27 2.21,0.83 0.56,0.54 0.83,1.29 0.83,2.2l0 7.88 -3.15 0 -0.19 -1.03c-0.35,0.24 -0.73,0.44 -1.14,0.61 -0.35,0.15 -0.73,0.28 -1.18,0.43 -0.42,0.12 -0.88,0.18 -1.33,0.18l-0.71 0 0 0 0 0 0 0z"/>
   <polygon id="_12_12" class="fil2" points="337.82,308.08 337.82,318.86 334.27,318.86 334.27,310.84 330.6,310.84 330.6,318.86 327.07,318.86 327.07,308.08 "/>
   <path id="_13_13" class="fil2" d="M350.81 315.81c0,1.01 -0.28,1.81 -0.86,2.38 -0.56,0.58 -1.37,0.86 -2.39,0.86l-4.66 0c-1.02,0 -1.82,-0.28 -2.38,-0.86 -0.58,-0.57 -0.87,-1.37 -0.87,-2.38l0 -4.67c0,-1.01 0.29,-1.82 0.87,-2.39 0.56,-0.58 1.36,-0.85 2.38,-0.85l4.66 0c1.02,0 1.83,0.27 2.39,0.85 0.58,0.57 0.86,1.38 0.86,2.39l0 4.67zm-3.54 -4.38c0,-0.54 -0.28,-0.81 -0.83,-0.81l-2.43 0c-0.54,0 -0.81,0.27 -0.81,0.81l0 4.06c0,0.54 0.27,0.81 0.81,0.81l2.43 0c0.55,0 0.83,-0.27 0.83,-0.81l0 -4.06z"/>
   <path id="_14_14" class="fil2" d="M363.4 316.01c0,0.4 -0.08,0.77 -0.22,1.13 -0.15,0.34 -0.35,0.64 -0.62,0.91 -0.25,0.25 -0.59,0.44 -0.95,0.59 -0.38,0.14 -0.79,0.22 -1.25,0.22l-7.71 0 0 -10.78 7.1 0c0.45,0 0.88,0.08 1.24,0.21 0.37,0.16 0.69,0.36 0.96,0.6 0.27,0.25 0.47,0.54 0.63,0.88 0.13,0.33 0.22,0.68 0.22,1.07 0,0.56 -0.15,1.06 -0.43,1.48 -0.29,0.41 -0.69,0.7 -1.21,0.84 0.61,0.11 1.13,0.41 1.58,0.9 0.45,0.49 0.66,1.14 0.66,1.95l0 0 0 0zm-3.55 -0.61c0,-0.2 -0.06,-0.37 -0.19,-0.51 -0.15,-0.13 -0.32,-0.21 -0.52,-0.21l-2.94 0 0 1.73 2.94 0c0.2,0 0.37,-0.06 0.52,-0.2 0.13,-0.14 0.19,-0.31 0.19,-0.49l0 -0.32 0 0zm-0.61 -4.16c0,-0.21 -0.06,-0.37 -0.2,-0.52 -0.13,-0.13 -0.32,-0.19 -0.51,-0.19l-2.33 0 0 1.82 2.33 0c0.19,0 0.38,-0.07 0.51,-0.2 0.13,-0.14 0.2,-0.3 0.2,-0.49l0 -0.42 0 0 0 0z"/>
   <path id="_15_15" class="fil2" d="M369.08 316.21c0.27,0 0.54,-0.02 0.82,-0.07 0.28,-0.03 0.54,-0.08 0.79,-0.13 0.29,-0.06 0.56,-0.12 0.83,-0.2l0 -1.22 -2.94 0c-0.21,0 -0.37,0.06 -0.51,0.21 -0.13,0.13 -0.21,0.29 -0.21,0.5l0 0.21c0,0.21 0.08,0.37 0.21,0.5 0.14,0.14 0.3,0.2 0.51,0.2l0.5 0 0 0 0 0 0 0zm-1.73 2.84c-0.91,0 -1.65,-0.27 -2.2,-0.82 -0.56,-0.56 -0.83,-1.3 -0.83,-2.22l0 -0.92c0,-0.91 0.27,-1.64 0.83,-2.21 0.55,-0.55 1.29,-0.83 2.2,-0.83l4.17 0 0 -0.78c0,-0.19 -0.07,-0.35 -0.21,-0.49 -0.12,-0.13 -0.29,-0.19 -0.5,-0.19 -0.54,0 -1.13,0 -1.76,0 -0.62,0 -1.21,0.03 -1.78,0.08 -0.65,0.09 -1.28,0.15 -1.93,0.15l0 -2.53c0.73,-0.11 1.49,-0.16 2.27,-0.16 0.65,-0.12 1.38,-0.18 2.16,-0.18 0.79,0 1.54,0 2.25,0 0.92,0 1.67,0.27 2.22,0.83 0.57,0.54 0.84,1.29 0.84,2.2l0 7.88 -3.16 0 -0.19 -1.03c-0.36,0.24 -0.74,0.44 -1.15,0.61 -0.35,0.15 -0.74,0.28 -1.17,0.43 -0.44,0.12 -0.88,0.18 -1.34,0.18l-0.72 0 0 0z"/>
   <path id="_16_16" class="fil2" d="M387.86 308.08l0 10.78 -3.54 0 0 -8.02 -2.85 0 -0.29 5.17c-0.07,0.92 -0.37,1.66 -0.94,2.21 -0.55,0.56 -1.26,0.83 -2.12,0.83 -0.21,0 -0.43,-0.01 -0.66,-0.02 -0.23,-0.03 -0.46,-0.05 -0.66,-0.08 -0.24,-0.02 -0.47,-0.06 -0.72,-0.09l0 -2.65 0.81 0c0.52,0 0.79,-0.27 0.83,-0.81l0.4 -7.32 9.74 0 0 0 0 0z"/>
   <path id="_17_17" class="fil2" d="M400.85 315.81c0,1.01 -0.28,1.81 -0.85,2.38 -0.59,0.58 -1.37,0.86 -2.39,0.86l-4.68 0c-1.01,0 -1.79,-0.28 -2.38,-0.86 -0.57,-0.57 -0.86,-1.37 -0.86,-2.38l0 -4.67c0,-1.01 0.29,-1.82 0.86,-2.39 0.59,-0.58 1.37,-0.85 2.38,-0.85l4.68 0c1.02,0 1.8,0.27 2.39,0.85 0.57,0.57 0.85,1.38 0.85,2.39l0 4.67zm-3.54 -4.38c0,-0.54 -0.27,-0.81 -0.81,-0.81l-2.44 0c-0.55,0 -0.81,0.27 -0.81,0.81l0 4.06c0,0.54 0.26,0.81 0.81,0.81l2.44 0c0.54,0 0.81,-0.27 0.81,-0.81l0 -4.06z"/>
   <path id="_18_18" class="fil2" d="M413.44 316.01c0,0.4 -0.07,0.77 -0.22,1.13 -0.15,0.34 -0.36,0.64 -0.62,0.91 -0.26,0.25 -0.59,0.44 -0.95,0.59 -0.37,0.14 -0.8,0.22 -1.25,0.22l-7.72 0 0 -10.78 7.12 0c0.45,0 0.87,0.08 1.24,0.21 0.38,0.16 0.68,0.36 0.95,0.6 0.27,0.25 0.47,0.54 0.62,0.88 0.15,0.33 0.22,0.68 0.22,1.07 0,0.56 -0.15,1.06 -0.42,1.48 -0.28,0.41 -0.69,0.7 -1.2,0.84 0.61,0.11 1.14,0.41 1.57,0.9 0.44,0.49 0.66,1.14 0.66,1.95l0 0 0 0 0 0zm-3.54 -0.61c0,-0.2 -0.08,-0.37 -0.21,-0.51 -0.14,-0.13 -0.31,-0.21 -0.51,-0.21l-2.94 0 0 1.73 2.94 0c0.2,0 0.37,-0.06 0.51,-0.2 0.13,-0.14 0.21,-0.31 0.21,-0.49l0 -0.32 0 0zm-0.62 -4.16c0,-0.21 -0.06,-0.37 -0.19,-0.52 -0.15,-0.13 -0.32,-0.19 -0.52,-0.19l-2.33 0 0 1.82 2.33 0c0.2,0 0.37,-0.07 0.52,-0.2 0.13,-0.14 0.19,-0.3 0.19,-0.49l0 -0.42 0 0 0 0z"/>
   <path id="_19_19" class="fil2" d="M419.12 316.21c0.27,0 0.54,-0.02 0.81,-0.07 0.3,-0.03 0.55,-0.08 0.8,-0.13 0.29,-0.06 0.56,-0.12 0.83,-0.2l0 -1.22 -2.93 0c-0.22,0 -0.38,0.06 -0.51,0.21 -0.14,0.13 -0.2,0.29 -0.2,0.5l0 0.21c0,0.21 0.06,0.37 0.2,0.5 0.13,0.14 0.29,0.2 0.51,0.2l0.49 0 0 0 0 0 0 0zm-1.72 2.84c-0.92,0 -1.65,-0.27 -2.2,-0.82 -0.56,-0.56 -0.85,-1.3 -0.85,-2.22l0 -0.92c0,-0.91 0.29,-1.64 0.85,-2.21 0.55,-0.55 1.28,-0.83 2.2,-0.83l4.16 0 0 -0.78c0,-0.19 -0.07,-0.35 -0.21,-0.49 -0.13,-0.13 -0.29,-0.19 -0.5,-0.19 -0.54,0 -1.13,0 -1.75,0 -0.64,0 -1.23,0.03 -1.78,0.08 -0.65,0.09 -1.3,0.15 -1.95,0.15l0 -2.53c0.75,-0.11 1.51,-0.16 2.28,-0.16 0.66,-0.12 1.39,-0.18 2.17,-0.18 0.77,0 1.53,0 2.26,0 0.91,0 1.65,0.27 2.21,0.83 0.55,0.54 0.82,1.29 0.82,2.2l0 7.88 -3.13 0 -0.21 -1.03c-0.36,0.24 -0.72,0.44 -1.14,0.61 -0.34,0.15 -0.75,0.28 -1.18,0.43 -0.43,0.12 -0.87,0.18 -1.34,0.18l-0.71 0 0 0 0 0 0 0z"/>
  </g>
 </g>
</svg>
