<?xml version="1.0" encoding="UTF-8"?>
<!DOCTYPE svg PUBLIC "-//W3C//DTD SVG 1.1//EN" "http://www.w3.org/Graphics/SVG/1.1/DTD/svg11.dtd">
<!-- Creator: CorelDRAW 2017 -->
<svg xmlns="http://www.w3.org/2000/svg" xml:space="preserve" width="500px" height="500px" version="1.1" style="shape-rendering:geometricPrecision; text-rendering:geometricPrecision; image-rendering:optimizeQuality; fill-rule:evenodd; clip-rule:evenodd"
viewBox="0 0 500 500"
 xmlns:xlink="http://www.w3.org/1999/xlink">
 <defs>
  <style type="text/css">
   <![CDATA[
    .str0 {stroke:#0082EF;stroke-width:16;stroke-miterlimit:22.9256}
    .fil3 {fill:#0082EF}
    .fil0 {fill:#2E2E2E}
    .fil2 {fill:white}
    .fil4 {fill:white}
    .fil1 {fill:#0082EF;fill-rule:nonzero}
   ]]>
  </style>
 </defs>
 <g id="Слой_x0020_1">
  <metadata id="CorelCorpID_0Corel-Layer"/>
  <circle class="fil0 str0" cx="250" cy="250" r="239.39"/>
 </g>
 <g id="Слой_x0020_1_0">
  <metadata id="CorelCorpID_1Corel-Layer"/>
  <g id="_1897328840400">
   <path class="fil1" d="M109.97 398.5l0 -5.36 3.03 0c2.09,0 3.4,-0.25 3.9,-0.74 0.5,-0.49 0.75,-1.71 0.75,-3.63l0 -29.27c0,-1.93 -0.25,-3.14 -0.75,-3.63 -0.5,-0.5 -1.81,-0.74 -3.9,-0.74l-3.03 0 0 -5.36 25.53 0 0 5.36 -3.02 0c-2.11,0 -3.41,0.24 -3.92,0.74 -0.5,0.49 -0.75,1.7 -0.75,3.63l0 29.27c0,1.92 0.25,3.14 0.75,3.63 0.51,0.49 1.81,0.74 3.92,0.74l3.02 0 0 5.36 -25.53 0zm43.17 -28.21l0 14.71c0,1.84 0.27,3.06 0.82,3.69 0.54,0.62 1.82,0.93 3.85,0.93 0.93,0 2.01,-0.05 3.23,-0.15l0 7.63c-2.99,0.51 -5.13,0.77 -6.43,0.77 -4.27,0 -7.3,-0.83 -9.09,-2.47 -1.78,-1.64 -2.68,-4.61 -2.68,-8.91l0 -16.2 -5.5 0 0 -7.97 6.07 0 0.84 -10.25 8.89 -0.68 0 10.93 7.41 0 0 7.97 -7.41 0zm9.77 5.15l16.43 0 0 7.47 -16.43 0 0 -7.47zm50.31 -25.39l0 9.31 -11.64 0 0 37.73 -11.14 0 0 -37.73 -11.71 0 0 -9.31 34.49 0zm31.84 31.31l-22.39 0c-0.02,0.63 -0.03,1.17 -0.03,1.62 0,2.5 0.65,4.38 1.98,5.65 1.32,1.27 2.91,1.9 4.75,1.9 3.42,0 5.48,-1.83 6.17,-5.5l9.31 0.69c-2.6,8.05 -7.86,12.08 -15.81,12.08 -3.47,0 -6.42,-0.7 -8.84,-2.08 -2.42,-1.39 -4.42,-3.41 -5.99,-6.07 -1.58,-2.67 -2.36,-5.85 -2.36,-9.57 0,-5.52 1.57,-9.98 4.73,-13.37 3.15,-3.4 7.21,-5.09 12.17,-5.09 4.48,0 8.31,1.57 11.51,4.71 3.2,3.14 4.8,8.16 4.8,15.03zm-22.42 -5.92l12.34 0c-0.32,-4.75 -2.28,-7.13 -5.88,-7.13 -3.85,0 -6.01,2.38 -6.46,7.13zm38.83 -25.39l0 17.01c1.88,-3.63 5.02,-5.44 9.42,-5.44 2.34,0 4.35,0.5 6.01,1.52 1.67,1.03 2.84,2.34 3.51,3.94 0.68,1.61 1.02,3.96 1.02,7.07l0 22.94 -10.29 0 0 -19.61c0,-2.35 -0.1,-3.96 -0.28,-4.83 -0.18,-0.87 -0.6,-1.6 -1.25,-2.18 -0.65,-0.59 -1.47,-0.89 -2.45,-0.89 -1.28,0 -2.55,0.51 -3.81,1.51 -1.25,1 -1.88,3.13 -1.88,6.39l0 19.61 -9.94 0 0 -47.04 9.94 0zm58.68 47.04l-10.3 0 0 -19.52c0,-2.37 -0.09,-3.98 -0.27,-4.85 -0.18,-0.88 -0.63,-1.62 -1.33,-2.22 -0.71,-0.61 -1.6,-0.92 -2.67,-0.92 -3.59,0 -5.39,2.66 -5.39,7.99l0 19.52 -10.29 0 0 -34.77 9.59 0 0 5.93c1.58,-2.81 3.14,-4.63 4.68,-5.42 1.53,-0.82 3.19,-1.21 4.98,-1.21 3.3,0 5.96,0.89 7.98,2.66 2.01,1.78 3.02,5.27 3.02,10.48l0 22.33zm18.75 -34.77l0 34.77 -10.3 0 0 -34.77 10.3 0zm0 -13.12l0 10.3 -10.3 0 0 -10.3 10.3 0zm31.36 24.9l11.32 22.99 -11.29 0 -7.26 -15.68 -6.06 6.88 0 8.8 -9.66 0 0 -47.04 9.66 0 0 28.21 1.51 -1.89c0.64,-0.87 1.18,-1.58 1.61,-2.11l10.15 -11.94 10 0 -9.98 11.78z"/>
   <polygon class="fil2" points="133.69,175.66 255.84,175.66 255.99,213.41 375.94,213.41 375.97,306.94 133.69,306.94 "/>
   <g>
    <path class="fil3" d="M378.33 213.41l-13.63 0 -0.24 86.67 -228.24 0.26 0 -122.7 120.3 0 0 -14.94 -136.54 0 -0.4 151 257.49 0 1.26 -100.29zm-121.81 -35.77l0 -14.94 0 14.94z"/>
   </g>
   <rect class="fil3" x="240.74" y="174.83" width="15.99" height="14.92"/>
   <rect class="fil3" x="240.74" y="213.41" width="15.58" height="16.05"/>
   <rect class="fil3" x="347.26" y="213.41" width="19.11" height="17.95"/>
   <rect class="fil3" x="347.26" y="249.64" width="18.16" height="17.95"/>
   <rect class="fil3" x="329.51" y="231.36" width="17.93" height="17.95"/>
   <rect class="fil3" x="329.05" y="267.62" width="18.39" height="17.95"/>
   <rect class="fil4" x="262.76" y="190.27" width="16.31" height="16.93"/>
   <rect class="fil3" x="285.35" y="190.27" width="16.31" height="16.93"/>
   <rect class="fil4" x="307.08" y="166.71" width="16.31" height="16.93"/>
   <rect class="fil4" x="329.49" y="166.71" width="16.31" height="16.93"/>
   <rect class="fil4" x="262.72" y="166.99" width="16.31" height="16.93"/>
   <rect class="fil3" x="285.7" y="142.86" width="16.31" height="16.93"/>
   <rect class="fil4" x="330.06" y="190.84" width="16.31" height="16.93"/>
   <rect class="fil3" x="350.97" y="142.86" width="16.31" height="16.93"/>
   <rect class="fil4" x="372.58" y="166.71" width="16.31" height="16.93"/>
   <rect class="fil4" x="307" y="120.11" width="16.31" height="16.93"/>
   <rect class="fil4" x="350.97" y="120.45" width="16.31" height="16.93"/>
   <rect class="fil4" x="330.42" y="96.05" width="16.31" height="16.93"/>
   <rect class="fil3" x="373.73" y="95.75" width="16.31" height="16.93"/>
   <rect class="fil4" x="263.84" y="120.11" width="16.31" height="16.93"/>
   <rect class="fil4" x="307.06" y="142.86" width="16.31" height="16.93"/>
   <rect class="fil4" x="286.88" y="81" width="12.14" height="12.6"/>
   <rect class="fil3" x="285.35" y="213.38" width="16.31" height="16.93"/>
   <rect class="fil3" x="150.04" y="190.27" width="16.31" height="98.08"/>
   <rect class="fil3" x="190.57" y="190.87" width="16.31" height="97.48"/>
   <rect class="fil3" x="173.1" y="190.27" width="51.84" height="16.93"/>
   <polygon class="fil3" points="218.47,300.74 280.16,300.74 280.16,318.77 218.47,318.77 "/>
   <path class="fil3" d="M169.72 335.12l161.15 0c-42.82,-19.72 -42.82,-19.72 -82.82,-19.72 -34.71,-0.06 -34.38,0 -78.33,19.72z"/>
  </g>
 </g>
</svg>
