<?xml version="1.0" encoding="UTF-8"?>
<!DOCTYPE svg PUBLIC "-//W3C//DTD SVG 1.1//EN" "http://www.w3.org/Graphics/SVG/1.1/DTD/svg11.dtd">
<!-- Creator: CorelDRAW X7 -->
<svg xmlns="http://www.w3.org/2000/svg" xml:space="preserve" width="600px" height="280px" version="1.1" style="shape-rendering:geometricPrecision; text-rendering:geometricPrecision; image-rendering:optimizeQuality; fill-rule:evenodd; clip-rule:evenodd"
viewBox="0 0 600 280"
 xmlns:xlink="http://www.w3.org/1999/xlink">
 <defs>
  <style type="text/css">
   <![CDATA[
    .fil2 {fill:#5B5B5B}
    .fil0 {fill:#FEFEFE}
    .fil1 {fill:#5B5B5B;fill-rule:nonzero}
   ]]>
  </style>
 </defs>
 <g id="Слой_x0020_1">
  <metadata id="CorelCorpID_0Corel-Layer"/>
  <rect class="fil0" width="600" height="280"/>
  <g id="_2718842091184">
   <path class="fil1" d="M113 79l6 11 -5 0 -5 -8 -2 0 0 8 -6 0 0 -20 6 0 0 8 2 0 3 -6c0,-1 1,-1 2,-2 0,0 1,-1 2,-1 0,0 1,0 1,0 0,0 1,1 1,1 0,0 0,0 1,0l0 4 -1 0c-1,0 -1,0 -1,0 -1,0 -1,0 -1,1l-3 4 0 0zm18 -4l5 0 -6 15c0,2 -1,3 -2,4 -1,0 -2,1 -3,1 -1,0 -1,0 -1,0 -1,0 -2,0 -2,0 0,0 -1,0 -1,-1l0 -3 3 0c0,0 1,0 1,-1 0,0 0,-1 0,-2l-6 -13 5 0 4 9 3 -9 0 0zm11 11l4 0c1,0 2,-1 2,-1l0 -6c0,0 0,0 -1,0 0,-1 0,-1 -1,-1l-1 0c0,0 0,0 -1,0 0,0 0,1 -1,1 0,0 0,0 -1,0l0 7 0 0zm0 4l0 4 -5 0 0 -19 5 0 0 1c0,0 1,-1 1,-1 1,0 1,0 2,0 1,-1 1,-1 2,-1l1 0c2,0 3,1 3,2 1,0 1,1 1,2l0 7c0,1 0,3 -1,3 0,1 -2,2 -3,2l-6 0zm13 -11c0,-1 0,-2 1,-3 1,-1 2,-1 4,-1l9 0 0 3 -8 0c-1,0 -1,1 -1,1l0 6c0,0 0,1 0,1 1,0 1,0 1,0 1,0 2,0 2,0 1,0 2,0 3,0 1,0 2,0 3,0l0 4c-1,0 -2,0 -3,0 -2,0 -2,0 -4,0 -1,0 -2,0 -3,0 -1,0 -2,0 -3,-1 -1,-1 -1,-2 -1,-3l0 -7 0 0zm25 -2l-1 -5 0 -2 5 0 0 2 -1 5 -3 0 0 0zm5 0l0 -5 0 -2 4 0 0 2 -1 5 -3 0 0 0zm7 -7l12 0c2,0 4,0 4,1 1,1 2,3 2,4l0 3c0,2 -1,4 -2,5 0,1 -2,1 -4,1l-7 0 0 6 -5 0 0 -20 0 0zm12 5c0,-1 0,-1 -1,-1l-6 0 0 6 6 0c1,0 1,-1 1,-2l0 -3zm14 11c0,0 1,0 1,0 1,0 1,0 1,0 1,0 1,-1 2,-1l0 -1 -5 0c0,0 0,0 0,0 -1,0 -1,0 -1,1l0 0c0,0 0,0 1,1 0,0 0,0 0,0l1 0 0 0zm-2 4c-2,0 -3,0 -4,-1 0,-1 -1,-2 -1,-3l0 -2c0,-1 1,-2 1,-3 1,-1 2,-1 4,-1l6 0 0 -1c0,0 -1,-1 -1,-1 0,0 0,0 0,0 -1,0 -2,0 -3,0 -1,0 -2,0 -2,0 -1,0 -2,0 -3,0l0 -3c1,0 2,0 3,0 1,0 2,-1 3,-1 1,0 2,0 3,0 1,0 2,1 4,2 0,0 1,1 1,3l0 11 -5 0 0 -2c-1,0 -1,1 -2,1 0,0 -1,1 -2,1 0,0 -1,0 -1,0l-1 0 0 0zm15 -6l0 -4 5 0c1,0 1,0 1,0 1,0 1,0 1,-1l0 0c0,0 0,0 -1,-1 0,0 0,0 -1,0l-7 0 0 -3 9 0c1,0 1,0 2,0 0,0 1,0 1,1 1,0 1,0 1,1 0,0 0,1 0,1 0,1 0,2 0,2 -1,1 -1,2 -2,2 1,0 1,0 2,1 1,1 1,2 1,3 0,1 0,2 -1,3 -1,1 -2,1 -3,1 -1,0 -3,0 -4,0 -1,0 -2,0 -3,0 -2,0 -3,0 -4,0l0 -4c1,0 2,0 3,0 1,0 2,0 3,0 1,0 2,0 3,0 0,0 1,0 1,0 0,0 0,0 0,-1l0 0c0,0 0,-1 0,-1 0,0 -1,0 -1,0l-6 0 0 0zm19 2l4 0c1,0 2,-1 2,-1l0 -6c0,0 0,0 0,0 -1,-1 -1,-1 -1,-1l-1 0c-1,0 -1,0 -2,0 0,0 0,1 -1,1 0,0 0,0 -1,0l0 7 0 0zm0 4l0 4 -5 0 0 -19 5 0 0 1c0,0 1,-1 2,-1 0,0 1,0 1,0 1,-1 1,-1 2,-1l2 0c1,0 2,1 2,2 1,0 2,1 2,2l0 7c0,1 -1,3 -2,3 0,1 -1,2 -3,2l-6 0 0 0zm19 -4c1,0 1,0 2,0 0,0 0,0 1,0 0,0 0,-1 1,-1l0 -1 -4 0c0,0 -1,0 -1,0 0,0 0,0 0,1l0 0c0,0 0,0 0,1 0,0 1,0 1,0l0 0 0 0zm-2 4c-1,0 -2,0 -3,-1 -1,-1 -1,-2 -1,-3l0 -2c0,-1 0,-2 1,-3 1,-1 2,-1 3,-1l6 0 0 -1c0,0 0,-1 -1,-1 0,0 0,0 0,0 -1,0 -2,0 -3,0 0,0 -1,0 -2,0 -1,0 -2,0 -3,0l0 -3c1,0 2,0 3,0 1,0 2,-1 3,-1 1,0 2,0 4,0 1,0 2,1 3,2 1,0 1,1 1,3l0 11 -4 0 -1 -2c0,0 -1,1 -2,1 0,0 -1,1 -1,1 -1,0 -1,0 -2,0l-1 0 0 0zm28 -21l1 4 -9 1c-1,0 -1,1 -1,1l0 2c0,0 1,0 1,0 1,0 1,0 2,0 0,0 1,0 1,0l2 0c1,0 2,0 3,1 0,0 1,1 1,3l0 4c0,2 -1,3 -1,4 -1,1 -2,1 -4,1l-6 0c-2,0 -3,0 -3,-1 -1,-1 -2,-2 -2,-4l0 -10c0,-1 1,-2 2,-3 1,-1 2,-2 4,-2l9 -1 0 0zm-5 17c0,0 1,0 1,-1l0 -3c0,-1 0,-1 -1,-1 0,-1 0,-1 0,-1l-1 0c-1,0 -1,0 -1,0 -1,0 -1,0 -1,0 -1,0 -1,1 -1,1l0 4c0,1 0,1 1,1l3 0 0 0zm24 -1c0,2 -1,3 -1,4 -1,1 -2,1 -4,1l-7 0c-1,0 -2,0 -3,-1 -1,-1 -1,-2 -1,-4l0 -6c0,-2 0,-3 1,-3 1,-1 2,-2 3,-2l7 0c2,0 3,1 4,2 0,0 1,1 1,3l0 6zm-5 -6c0,-1 -1,-1 -1,-1l-4 0c0,0 -1,0 -1,1l0 6c0,1 1,1 1,1l4 0c0,0 1,0 1,-1l0 -6zm16 -1l0 12 -5 0 0 -12 -5 0 0 -3 15 0 0 3 -5 0 0 0zm14 6l-2 0 0 6 -5 0 0 -15 5 0 0 5 2 0 2 -3c0,0 0,-1 0,-1 1,0 1,-1 1,-1 1,0 1,0 1,0 1,-1 1,-1 2,-1 0,0 1,0 1,0 0,0 0,0 1,1l0 0 0 3 -1 0c0,0 0,0 -1,1 0,0 0,0 0,0l-2 3 5 8 -6 0 -3 -6 0 0zm16 2c0,0 1,0 1,0 1,0 1,0 2,0 0,0 0,-1 1,-1l0 -1 -5 0c0,0 0,0 0,0 0,0 -1,0 -1,1l0 0c0,0 1,0 1,1 0,0 0,0 0,0l1 0 0 0zm-2 4c-1,0 -3,0 -4,-1 0,-1 -1,-2 -1,-3l0 -2c0,-1 1,-2 1,-3 1,-1 3,-1 4,-1l6 0 0 -1c0,0 0,-1 -1,-1 0,0 0,0 0,0 -1,0 -2,0 -3,0 -1,0 -2,0 -2,0 -1,0 -2,0 -3,0l0 -3c1,0 2,0 3,0 1,0 2,-1 3,-1 1,0 2,0 3,0 2,0 3,1 3,2 1,0 2,1 2,3l0 11 -5 0 0 -2c-1,0 -1,1 -2,1 0,0 -1,1 -1,1 -1,0 -2,0 -2,0l-1 0 0 0zm32 -10l0 -5 5 0 0 15 -5 0 0 -6 -5 0 0 6 -5 0 0 -15 5 0 0 5 5 0zm14 6c1,0 1,0 2,0 0,0 0,0 1,0 0,0 0,-1 1,-1l0 -1 -5 0c0,0 0,0 0,0 0,0 -1,0 -1,1l0 0c0,0 1,0 1,1 0,0 0,0 0,0l1 0 0 0zm-2 4c-1,0 -2,0 -3,-1 -1,-1 -2,-2 -2,-3l0 -2c0,-1 1,-2 2,-3 1,-1 2,-1 3,-1l6 0 0 -1c0,0 0,-1 -1,-1 0,0 0,0 0,0 -1,0 -2,0 -3,0 -1,0 -2,0 -2,0 -1,0 -2,0 -3,0l0 -3c1,0 2,0 3,0 1,0 2,-1 3,-1 1,0 2,0 3,0 2,0 3,1 4,2 0,0 1,1 1,3l0 11 -5 0 0 -2c0,0 -1,1 -2,1 0,0 -1,1 -1,1 -1,0 -2,0 -2,0l-1 0 0 0zm21 -4c1,0 1,0 2,0 0,0 1,0 1,0 1,0 1,0 1,0 1,0 2,0 2,0 0,-1 0,-1 0,-1l0 -11 -4 0 0 -4 9 0 0 15c0,1 0,3 -1,3 -1,2 -2,2 -4,2 -1,0 -2,0 -2,0 -1,0 -2,0 -2,0 -1,0 -1,0 -2,0l0 -4 0 0zm20 0c1,0 1,0 2,0 0,0 0,0 1,0 0,0 1,-1 1,-1l0 -1 -4 0c0,0 -1,0 -1,0 0,0 0,0 0,1l0 0c0,0 0,0 0,1 0,0 1,0 1,0l0 0 0 0zm-2 4c-1,0 -2,0 -3,-1 -1,-1 -1,-2 -1,-3l0 -2c0,-1 0,-2 1,-3 1,-1 2,-1 3,-1l6 0 0 -1c0,0 0,-1 0,-1 0,0 -1,0 -1,0 -1,0 -2,0 -3,0 0,0 -1,0 -2,0 -1,0 -2,0 -3,0l0 -3c1,0 2,0 3,0 1,0 2,-1 3,-1 1,0 3,0 4,0 1,0 2,1 3,2 1,0 1,1 1,3l0 11 -4 0 -1 -2c0,0 -1,1 -1,1 -1,0 -2,1 -2,1 -1,0 -1,0 -2,0l-1 0 0 0zm24 -15l5 0 -6 15 -5 0 -6 -15 5 0 3 10 4 -10 0 0zm12 11c0,0 0,0 1,0 0,0 1,0 1,0 0,0 1,-1 1,-1l0 -1 -4 0c-1,0 -1,0 -1,0 0,0 0,0 0,1l0 0c0,0 0,0 0,1 0,0 0,0 1,0l1 0 0 0zm-3 4c-1,0 -2,0 -3,-1 -1,-1 -1,-2 -1,-3l0 -2c0,-1 0,-2 1,-3 1,-1 2,-1 3,-1l6 0 0 -1c0,0 0,-1 0,-1 0,0 -1,0 -1,0 -1,0 -1,0 -2,0 -1,0 -2,0 -3,0 -1,0 -2,0 -3,0l0 -3c1,0 2,0 3,0 1,0 3,-1 4,-1 1,0 2,0 3,0 1,0 2,1 3,2 1,0 1,1 1,3l0 11 -4 0 -1 -2c0,0 -1,1 -1,1 -1,0 -1,1 -2,1 0,0 -1,0 -2,0l-1 0 0 0zm13 -13l3 -2 7 7 -7 8 -3 -3 4 -5 -4 -5 0 0zm11 5l-4 -5 3 -2 7 7 -7 8 -3 -3 4 -5 0 0z"/>
   <path class="fil1" d="M194 208l-3 0 0 -10 -3 0 0 -2 10 0 0 2 -4 0 0 10zm9 -7c0,0 -1,0 -1,1l0 0 3 0 0 0c0,-1 0,-1 0,-1l-2 0zm-4 0c0,0 0,-1 1,-1 0,-1 1,-2 2,-2l3 0c1,0 2,1 3,2 0,0 0,1 0,1l0 4 -6 0 0 0c0,0 0,1 1,1 0,0 0,0 0,0 0,0 1,0 1,0 1,0 2,0 2,0 1,0 2,0 2,0l0 2c-1,0 -2,0 -2,0 -1,0 -1,0 -2,0 -1,0 -1,0 -2,0 -1,0 -2,0 -2,0 -1,-1 -1,-2 -1,-3l0 -4zm17 -2l3 0 -3 4 3 5 -3 0 -2 -3 -2 3 -3 0 3 -5 -3 -4 3 0 2 3 2 -3 0 0zm10 3l0 -3 3 0 0 9 -3 0 0 -4 -3 0 0 4 -3 0 0 -9 3 0 0 3 3 0zm14 3c0,1 0,2 0,3 -1,0 -1,0 -2,0l-4 0c-1,0 -2,0 -2,0 -1,-1 -1,-2 -1,-3l0 -4c0,0 0,-1 1,-1 0,-1 1,-2 2,-2l4 0c1,0 1,1 2,2 0,0 0,1 0,1l0 4zm-2 -3c0,-1 -1,-1 -1,-1l-2 0c-1,0 -1,0 -1,1l0 3c0,1 0,1 1,1l2 0c0,0 1,0 1,-1l0 -3zm9 -1l0 7 -3 0 0 -7 -3 0 0 -2 9 0 0 2 -3 0 0 0zm7 5l3 0c1,0 1,-1 1,-1l0 -3c0,0 0,0 0,-1 -1,0 -1,0 -1,0l0 0c-1,0 -1,0 -1,0 0,0 -1,0 -1,0 0,0 -1,1 -1,1l0 4 0 0zm0 2l0 3 -3 0 0 -12 3 0 0 1c0,0 1,-1 1,-1 1,0 1,0 1,0 1,0 1,-1 1,-1l1 0c1,0 2,1 2,2 0,0 1,1 1,1l0 4c0,1 -1,2 -1,2 -1,1 -1,1 -2,1l-4 0 0 0zm12 -7c-1,0 -1,0 -1,1l0 0 3 0 0 0c0,-1 0,-1 0,-1l-2 0zm-4 0c0,0 1,-1 1,-1 1,-1 1,-2 2,-2l4 0c1,0 1,1 2,2 0,0 0,1 0,1l0 4 -6 0 0 0c0,0 0,1 0,1 1,0 1,0 1,0 0,0 1,0 2,0 0,0 1,0 1,0 1,0 1,0 2,0l0 2c-1,0 -1,0 -2,0 -1,0 -1,0 -2,0 -1,0 -2,0 -2,0 -1,0 -2,0 -2,0 0,-1 -1,-2 -1,-3l0 -4zm15 3l-1 0 0 4 -3 0 0 -9 3 0 0 3 1 0 1 -2c0,0 1,0 1,0 0,0 0,-1 1,-1 0,0 0,0 0,0 0,0 1,-1 1,-1 0,0 0,1 1,1 0,0 0,0 0,0l0 0 0 2 0 0c0,0 -1,0 -1,0 0,1 0,1 0,1l-1 1 3 5 -3 0 -3 -4 0 0zm23 -3l-3 4 -2 0 -3 -4 0 7 -3 0 0 -12 4 0 3 6 3 -6 4 0 0 12 -3 0 0 -7 0 0zm8 5c1,0 1,0 1,0 1,0 1,0 1,-1 0,0 0,0 1,0l0 -1 -3 0c0,0 0,0 0,0 -1,1 -1,1 -1,1l0 0c0,0 0,0 1,0 0,1 0,1 0,1l0 0 0 0zm-1 2c-1,0 -1,0 -2,0 0,-1 -1,-2 -1,-3l0 0c0,-1 1,-2 1,-2 1,-1 1,-1 2,-1l4 0 0 0c0,-1 0,-1 0,-1 -1,0 -1,0 -1,0 0,0 -1,0 -2,0 0,0 -1,0 -1,0 -1,0 -1,0 -2,0l0 -2c1,0 1,0 2,0 1,0 1,0 2,0 1,0 1,0 2,0 1,0 1,0 2,1 0,0 1,1 1,1l0 7 -3 0 0 -1c0,1 -1,1 -1,1 0,0 -1,0 -1,0 -1,0 -1,0 -1,0l-1 0 0 0zm12 -9l0 9 -3 0 0 -6 -1 0 0 -3 4 0zm-3 -3l3 0 0 2 -3 0 0 -2zm5 0l3 0 0 9c0,0 0,0 0,0 0,1 0,1 1,1l1 0 0 2c-1,0 -1,0 -1,0 0,0 -1,0 -1,0 0,0 0,0 0,0 -1,0 -2,0 -2,0 -1,-1 -1,-2 -1,-3l0 -9 0 0zm5 9l4 0 0 3 -4 0 0 -3zm8 -6l0 1c0,0 1,0 1,-1 0,0 1,0 1,0 0,0 1,-1 1,-1l1 0 0 3 -1 0c-1,0 -1,0 -1,0 -1,1 -1,1 -1,1 0,0 0,0 -1,0l0 6 -3 0 0 -9 3 0zm12 9l0 -1c0,1 -1,1 -1,1 -1,0 -1,0 -1,0 -1,0 -1,0 -1,0l-1 0c-1,0 -1,0 -2,0 0,-1 -1,-2 -1,-3l0 -6 3 0 0 6c0,0 0,0 0,0 1,1 1,1 1,1l0 0c1,0 1,0 1,0 0,-1 1,-1 1,-1 0,0 1,0 1,0l0 -6 3 0 0 9 -3 0zm13 0c-1,0 -2,0 -3,0 0,-1 0,-2 0,-3l0 -6c0,-1 0,-2 0,-2 1,-1 2,-1 3,-1l7 0 0 2 -6 0c-1,0 -1,0 -1,1l0 6c0,0 0,0 0,0 0,1 0,1 1,1 0,0 0,0 1,0 0,0 1,0 1,0 0,0 1,0 2,0l0 -3 -3 0 0 -2 6 0 0 7c-1,0 -2,0 -3,0 -1,0 -2,0 -3,0 0,0 -1,0 -2,0l0 0zm12 -9l0 1c0,0 1,0 1,-1 0,0 1,0 1,0 0,0 1,-1 1,-1l1 0 0 3 -2 0c0,0 0,0 0,0 -1,1 -1,1 -1,1 0,0 0,0 -1,0l0 6 -3 0 0 -9 3 0 0 0zm14 6c0,1 0,2 0,3 -1,0 -1,0 -2,0l-4 0c-1,0 -2,0 -2,0 -1,-1 -1,-2 -1,-3l0 -4c0,0 0,-1 1,-1 0,-1 1,-2 2,-2l4 0c1,0 1,1 2,2 0,0 0,1 0,1l0 4zm-3 -3c0,-1 0,-1 0,-1l-3 0c0,0 0,0 0,1l0 3c0,1 0,1 0,1l3 0c0,0 0,0 0,-1l0 -3zm12 6l0 -1c0,1 -1,1 -1,1 -1,0 -1,0 -1,0 -1,0 -1,0 -1,0l-1 0c-1,0 -2,0 -2,0 -1,-1 -1,-2 -1,-3l0 -6 3 0 0 6c0,0 0,0 0,0 0,1 1,1 1,1l0 0c1,0 1,0 1,0 0,-1 0,-1 1,-1 0,0 0,0 1,0l0 -6 3 0 0 9 -3 0zm7 -2l3 0c0,0 1,-1 1,-1l0 -3c0,0 0,0 -1,-1 0,0 0,0 0,0l-1 0c0,0 0,0 0,0 0,0 -1,0 -1,0 0,0 0,1 -1,1l0 4 0 0zm0 2l0 3 -3 0 0 -12 3 0 0 1c1,0 1,-1 1,-1 1,0 1,0 1,0 1,0 1,-1 1,-1l1 0c1,0 2,1 2,2 1,0 1,1 1,1l0 4c0,1 0,2 -1,2 0,1 -1,1 -2,1l-4 0 0 0zm8 -3l3 0 0 3 -1 2 -2 0 1 -2 -1 0 0 -3z"/>
   <path class="fil2" d="M300 102c24,0 43,19 43,42 0,24 -19,43 -43,43 -24,0 -43,-19 -43,-43 0,-23 19,-42 43,-42zm0 6c21,0 37,16 37,36 0,21 -16,37 -37,37 -21,0 -37,-16 -37,-37 0,-20 16,-36 37,-36z"/>
   <polygon class="fil2" points="318,144 304,135 289,125 289,144 289,164 304,154 "/>
  </g>
 </g>
</svg>
