<?xml version="1.0" encoding="UTF-8"?>
<!DOCTYPE svg PUBLIC "-//W3C//DTD SVG 1.1//EN" "http://www.w3.org/Graphics/SVG/1.1/DTD/svg11.dtd">
<!-- Creator: CorelDRAW 2017 -->
<svg xmlns="http://www.w3.org/2000/svg" xml:space="preserve" width="720px" height="480px" version="1.1" style="shape-rendering:geometricPrecision; text-rendering:geometricPrecision; image-rendering:optimizeQuality; fill-rule:evenodd; clip-rule:evenodd"
viewBox="0 0 720 480"
 xmlns:xlink="http://www.w3.org/1999/xlink">
 <defs>
  <style type="text/css">
   <![CDATA[
    .str0 {stroke:#2B2A29;stroke-width:2.36;stroke-miterlimit:22.9256}
    .str1 {stroke:black;stroke-width:2.36;stroke-miterlimit:22.9256}
    .fil0 {fill:none}
    .fil1 {fill:black}
    .fil2 {fill:white;fill-rule:nonzero}
   ]]>
  </style>
 </defs>
 <g id="Слой_x0020_1">
  <metadata id="CorelCorpID_0Corel-Layer"/>
  <rect class="fil0 str0" width="720" height="480"/>
  <rect class="fil1" x="206" y="149" width="300" height="182"/>
  <path class="fil2" d="M344.38 168.48l4.16 7.58 -4.06 0 -3.3 -6.08 -1.92 0 0 6.08 -3.84 0 0 -14.93 3.84 0 0 5.86 1.92 0 2.13 -4.05c0.31,-0.6 0.7,-1.09 1.16,-1.46 0.46,-0.38 1.07,-0.57 1.83,-0.57 0.24,0 0.47,0.01 0.7,0.03 0.23,0.03 0.43,0.05 0.62,0.08 0.21,0.04 0.41,0.08 0.59,0.11l0 2.88 -0.85 0c-0.21,0 -0.4,0.06 -0.57,0.2 -0.17,0.13 -0.3,0.28 -0.39,0.43l-2.02 3.84z"/>
  <path id="1" class="fil2" d="M357.17 164.76l3.95 0 -4.27 11.71c-0.41,1.12 -0.94,1.97 -1.6,2.54 -0.65,0.58 -1.54,0.86 -2.66,0.86 -0.27,0 -0.57,0 -0.89,0 -0.32,0 -0.62,-0.01 -0.9,-0.05 -0.33,-0.03 -0.66,-0.07 -0.98,-0.13l0 -2.78 1.91 0c0.54,0 0.9,-0.15 1.06,-0.45 0.16,-0.3 0.13,-0.72 -0.1,-1.26l-4.37 -10.44 3.95 0 2.66 7.32 2.24 -7.32z"/>
  <path id="2" class="fil2" d="M365.49 173.18l3.2 0c0.57,0 0.85,-0.29 0.85,-0.86l0 -3.94c0,-0.22 -0.07,-0.39 -0.21,-0.54 -0.14,-0.14 -0.32,-0.21 -0.53,-0.21l-0.75 0c-0.27,0 -0.55,0.02 -0.85,0.07 -0.3,0.04 -0.58,0.09 -0.83,0.14 -0.3,0.06 -0.59,0.13 -0.88,0.22l0 5.12zm0 2.88l0 3.62 -3.73 0 0 -14.93 3.31 0 0.21 1.07c0.37,-0.24 0.77,-0.46 1.19,-0.64 0.37,-0.16 0.79,-0.3 1.24,-0.44 0.46,-0.13 0.93,-0.2 1.41,-0.2l0.96 0c0.97,0 1.74,0.29 2.32,0.87 0.59,0.59 0.88,1.36 0.88,2.33l0 4.9c0,1.07 -0.3,1.91 -0.91,2.51 -0.6,0.6 -1.44,0.91 -2.51,0.91l-4.37 0z"/>
  <path id="3" class="fil2" d="M374.98 168.15c0,-1.07 0.31,-1.89 0.91,-2.5 0.61,-0.6 1.44,-0.9 2.51,-0.9l6.82 0 0 2.88 -5.65 0c-0.57,0 -0.85,0.28 -0.85,0.85l0 4.13c0,0.21 0.07,0.39 0.21,0.52 0.14,0.15 0.32,0.22 0.53,0.22 0.56,0 1.17,0 1.84,0 0.67,0 1.29,-0.03 1.87,-0.08 0.69,-0.06 1.37,-0.13 2.05,-0.2l0 2.77c-0.79,0.12 -1.6,0.17 -2.41,0.17 -0.7,0.13 -1.45,0.2 -2.27,0.2 -0.82,0 -1.6,0 -2.36,0 -0.96,0 -1.74,-0.3 -2.32,-0.88 -0.58,-0.58 -0.88,-1.35 -0.88,-2.31l0 -4.87z"/>
  <path id="4" class="fil2" d="M418.28 197.56c0.44,0 0.88,0 1.3,0 0.37,0 0.75,0 1.13,0 0.39,0 0.71,0 0.98,0 0.33,0 0.59,-0.1 0.78,-0.29 0.2,-0.19 0.29,-0.45 0.29,-0.78l0 -8.06 -2.77 0 0 -2.99 6.61 0 0 11.05c0,1.38 -0.33,2.4 -0.98,3.05 -0.65,0.66 -1.68,0.98 -3.07,0.98 -0.49,0 -0.98,0 -1.48,0 -0.51,0 -0.97,0 -1.38,0 -0.48,0 -0.95,-0.04 -1.41,-0.14l0 -2.82z"/>
  <path id="5" class="fil2" d="M431.19 200.37l-4.16 0 5.65 -14.93 4.27 0 5.65 14.93 -4.16 0 -0.96 -2.66 -5.33 0 -0.96 2.66zm1.92 -5.44l3.41 0 -1.71 -5.01 -1.7 5.01z"/>
  <polygon id="6" class="fil2" points="448.46,195.89 452.09,185.44 456.25,185.44 450.6,200.37 446.33,200.37 440.68,185.44 444.84,185.44 "/>
  <path id="7" class="fil2" d="M458.49 200.37l-4.16 0 5.65 -14.93 4.27 0 5.65 14.93 -4.16 0 -0.96 -2.66 -5.33 0 -0.96 2.66zm1.92 -5.44l3.41 0 -1.71 -5.01 -1.7 5.01z"/>
  <path id="8" class="fil2" d="M244.55 198.45l-2.15 1.92 -4.91 -5.65 4.91 -5.65 2.15 1.9 -3.24 3.75 3.24 3.73zm2.09 -3.73l3.25 3.73 -2.16 1.92 -4.9 -5.65 4.9 -5.65 2.16 1.9 -3.25 3.75z"/>
  <path id="9" class="fil2" d="M251.59 185.44l8.96 0c1.49,0 2.58,0.34 3.25,1.02 0.68,0.67 1.02,1.75 1.02,3.25l0 2.13c0,1.49 -0.34,2.58 -1.02,3.25 -0.67,0.68 -1.76,1.02 -3.25,1.02l-5.12 0 0 4.26 -3.84 0 0 -14.93zm9.39 4.27c0,-0.86 -0.43,-1.28 -1.28,-1.28l-4.27 0 0 4.69 4.27 0c0.85,0 1.28,-0.43 1.28,-1.28l0 -2.13z"/>
  <path id="10" class="fil2" d="M271 197.6c0.27,0 0.56,-0.02 0.86,-0.06 0.3,-0.05 0.57,-0.1 0.83,-0.15 0.3,-0.06 0.59,-0.13 0.87,-0.22l0 -1.28 -3.09 0c-0.21,0 -0.39,0.07 -0.53,0.22 -0.15,0.14 -0.22,0.32 -0.22,0.53l0 0.21c0,0.22 0.07,0.39 0.22,0.54 0.14,0.14 0.32,0.21 0.53,0.21l0.53 0zm-1.81 2.99c-0.97,0 -1.74,-0.3 -2.32,-0.88 -0.59,-0.58 -0.88,-1.36 -0.88,-2.32l0 -0.96c0,-0.97 0.29,-1.75 0.88,-2.33 0.58,-0.58 1.35,-0.87 2.32,-0.87l4.37 0 0 -0.82c0,-0.21 -0.07,-0.38 -0.21,-0.51 -0.14,-0.14 -0.32,-0.21 -0.53,-0.21 -0.57,0 -1.19,0 -1.85,0 -0.66,0 -1.28,0.03 -1.87,0.1 -0.68,0.09 -1.36,0.14 -2.04,0.14l0 -2.64c0.78,-0.12 1.58,-0.18 2.39,-0.18 0.69,-0.13 1.45,-0.19 2.28,-0.19 0.82,0 1.61,0 2.37,0 0.96,0 1.74,0.29 2.32,0.87 0.58,0.58 0.88,1.35 0.88,2.31l0 8.27 -3.31 0 -0.21 -1.06c-0.37,0.24 -0.77,0.45 -1.2,0.64 -0.37,0.15 -0.78,0.3 -1.24,0.43 -0.45,0.14 -0.92,0.21 -1.4,0.21l-0.75 0z"/>
  <path id="11" class="fil2" d="M280.28 196.11l0 -2.67 4.27 0c0.21,0 0.39,-0.07 0.53,-0.21 0.14,-0.14 0.21,-0.32 0.21,-0.54l0 -0.21c0,-0.21 -0.07,-0.39 -0.21,-0.53 -0.14,-0.14 -0.32,-0.22 -0.53,-0.22l-5.76 0 0 -2.66 7.04 0c0.48,0 0.92,0.07 1.31,0.22 0.39,0.15 0.72,0.36 1,0.62 0.28,0.26 0.5,0.57 0.65,0.92 0.16,0.35 0.24,0.72 0.24,1.12 0,0.59 -0.16,1.11 -0.48,1.55 -0.32,0.45 -0.8,0.74 -1.44,0.9 0.64,0.11 1.19,0.42 1.65,0.93 0.46,0.51 0.69,1.18 0.69,2.03 0,0.95 -0.29,1.72 -0.87,2.3 -0.58,0.57 -1.36,0.86 -2.33,0.86 -0.85,0 -1.73,0 -2.63,0 -0.9,0 -1.73,-0.06 -2.49,-0.19 -0.88,0 -1.73,-0.06 -2.56,-0.17l0 -2.57c0.73,0.09 1.46,0.16 2.2,0.24 0.64,0 1.33,0 2.07,0 0.74,0 1.45,0 2.13,0 0.22,0 0.39,-0.06 0.54,-0.2 0.14,-0.13 0.21,-0.3 0.21,-0.51l0 -0.3c0,-0.2 -0.07,-0.38 -0.21,-0.51 -0.15,-0.14 -0.32,-0.2 -0.54,-0.2l-4.69 0z"/>
  <path id="12" class="fil2" d="M294.68 197.49l3.2 0c0.57,0 0.85,-0.28 0.85,-0.85l0 -3.95c0,-0.21 -0.07,-0.39 -0.21,-0.53 -0.14,-0.14 -0.32,-0.21 -0.54,-0.21l-0.74 0c-0.27,0 -0.56,0.02 -0.86,0.06 -0.29,0.04 -0.57,0.09 -0.83,0.15 -0.3,0.06 -0.59,0.13 -0.87,0.21l0 5.12zm0 2.88l0 3.63 -3.73 0 0 -14.93 3.3 0 0.22 1.07c0.37,-0.25 0.76,-0.46 1.19,-0.65 0.37,-0.15 0.78,-0.3 1.24,-0.43 0.45,-0.14 0.92,-0.21 1.4,-0.21l0.96 0c0.97,0 1.75,0.3 2.33,0.88 0.58,0.58 0.87,1.36 0.87,2.32l0 4.91c0,1.07 -0.3,1.9 -0.9,2.51 -0.61,0.6 -1.44,0.9 -2.51,0.9l-4.37 0z"/>
  <path id="13" class="fil2" d="M308.86 197.6c0.27,0 0.56,-0.02 0.86,-0.06 0.29,-0.05 0.57,-0.1 0.83,-0.15 0.3,-0.06 0.59,-0.13 0.87,-0.22l0 -1.28 -3.09 0c-0.21,0 -0.39,0.07 -0.53,0.22 -0.15,0.14 -0.22,0.32 -0.22,0.53l0 0.21c0,0.22 0.07,0.39 0.22,0.54 0.14,0.14 0.32,0.21 0.53,0.21l0.53 0zm-1.81 2.99c-0.97,0 -1.74,-0.3 -2.33,-0.88 -0.58,-0.58 -0.87,-1.36 -0.87,-2.32l0 -0.96c0,-0.97 0.29,-1.75 0.87,-2.33 0.59,-0.58 1.36,-0.87 2.33,-0.87l4.37 0 0 -0.82c0,-0.21 -0.07,-0.38 -0.21,-0.51 -0.14,-0.14 -0.32,-0.21 -0.54,-0.21 -0.56,0 -1.18,0 -1.84,0 -0.66,0 -1.28,0.03 -1.87,0.1 -0.68,0.09 -1.36,0.14 -2.04,0.14l0 -2.64c0.78,-0.12 1.57,-0.18 2.39,-0.18 0.69,-0.13 1.45,-0.19 2.28,-0.19 0.82,0 1.61,0 2.37,0 0.96,0 1.74,0.29 2.32,0.87 0.58,0.58 0.87,1.35 0.87,2.31l0 8.27 -3.3 0 -0.21 -1.06c-0.37,0.24 -0.77,0.45 -1.2,0.64 -0.37,0.15 -0.78,0.3 -1.24,0.43 -0.45,0.14 -0.92,0.21 -1.4,0.21l-0.75 0z"/>
  <path id="14" class="fil2" d="M327.95 184.91l0.32 2.98 -6.61 0.76c-0.71,0.08 -1.07,0.44 -1.07,1.07l0 1.28c0.42,-0.09 0.84,-0.16 1.26,-0.22 0.37,-0.06 0.77,-0.11 1.19,-0.15 0.42,-0.05 0.81,-0.07 1.18,-0.07l0.96 0c0.97,0 1.74,0.29 2.32,0.88 0.59,0.58 0.88,1.35 0.88,2.32l0 3.41c0,1.07 -0.3,1.9 -0.91,2.51 -0.6,0.6 -1.44,0.91 -2.5,0.91l-4.7 0c-1.06,0 -1.9,-0.31 -2.5,-0.91 -0.61,-0.61 -0.91,-1.44 -0.91,-2.51l0 -7.57c0,-1.02 0.35,-1.88 1.03,-2.58 0.69,-0.7 1.63,-1.12 2.81,-1.26l7.25 -0.85zm-4.16 12.8c0.57,0 0.86,-0.28 0.86,-0.85l0 -2.64c0,-0.21 -0.07,-0.38 -0.22,-0.53 -0.14,-0.14 -0.32,-0.21 -0.53,-0.21l-0.75 0c-0.3,0 -0.6,0 -0.9,0 -0.31,0 -0.58,0.02 -0.82,0.07 -0.29,0.07 -0.57,0.12 -0.84,0.17l0 3.15c0,0.56 0.29,0.84 0.86,0.84l2.34 0z"/>
  <path id="15" class="fil2" d="M341.6 197.17c0,1.07 -0.3,1.9 -0.9,2.51 -0.61,0.6 -1.44,0.91 -2.51,0.91l-4.91 0c-1.06,0 -1.9,-0.31 -2.5,-0.91 -0.61,-0.61 -0.91,-1.44 -0.91,-2.51l0 -4.9c0,-1.07 0.3,-1.9 0.91,-2.51 0.6,-0.6 1.44,-0.91 2.5,-0.91l4.91 0c1.07,0 1.9,0.31 2.51,0.91 0.6,0.61 0.9,1.44 0.9,2.51l0 4.9zm-3.73 -4.58c0,-0.57 -0.28,-0.86 -0.85,-0.86l-2.56 0c-0.57,0 -0.86,0.29 -0.86,0.86l0 4.26c0,0.57 0.29,0.86 0.86,0.86l2.56 0c0.57,0 0.85,-0.29 0.85,-0.86l0 -4.26z"/>
  <polygon id="16" class="fil2" points="349.92,191.95 349.92,200.37 346.19,200.37 346.19,191.95 342.67,191.95 342.67,189.07 353.44,189.07 353.44,191.95 "/>
  <path id="17" class="fil2" d="M360.05 196.11l-1.6 0 0 4.26 -3.73 0 0 -11.3 3.73 0 0 4.16 1.71 0 1.17 -2.35c0.13,-0.27 0.29,-0.53 0.48,-0.77 0.19,-0.24 0.42,-0.45 0.67,-0.64 0.26,-0.18 0.55,-0.33 0.87,-0.44 0.32,-0.12 0.68,-0.18 1.08,-0.18 0.21,0 0.42,0.02 0.63,0.04 0.2,0.02 0.38,0.04 0.54,0.07l0.53 0.11 0 2.88 -0.75 0c-0.26,0 -0.49,0.07 -0.67,0.2 -0.17,0.14 -0.31,0.28 -0.39,0.44l-1.07 2.13 3.2 5.65 -4.05 0 -2.35 -4.26z"/>
  <path id="18" class="fil2" d="M372 197.6c0.27,0 0.55,-0.02 0.85,-0.06 0.3,-0.05 0.58,-0.1 0.83,-0.15 0.3,-0.06 0.59,-0.13 0.88,-0.22l0 -1.28 -3.1 0c-0.21,0 -0.39,0.07 -0.53,0.22 -0.14,0.14 -0.21,0.32 -0.21,0.53l0 0.21c0,0.22 0.07,0.39 0.21,0.54 0.14,0.14 0.32,0.21 0.53,0.21l0.54 0zm-1.82 2.99c-0.96,0 -1.74,-0.3 -2.32,-0.88 -0.58,-0.58 -0.88,-1.36 -0.88,-2.32l0 -0.96c0,-0.97 0.3,-1.75 0.88,-2.33 0.58,-0.58 1.36,-0.87 2.32,-0.87l4.38 0 0 -0.82c0,-0.21 -0.07,-0.38 -0.22,-0.51 -0.14,-0.14 -0.32,-0.21 -0.53,-0.21 -0.57,0 -1.18,0 -1.85,0 -0.66,0 -1.28,0.03 -1.86,0.1 -0.68,0.09 -1.37,0.14 -2.05,0.14l0 -2.64c0.78,-0.12 1.58,-0.18 2.39,-0.18 0.7,-0.13 1.46,-0.19 2.28,-0.19 0.83,0 1.62,0 2.37,0 0.97,0 1.74,0.29 2.32,0.87 0.59,0.58 0.88,1.35 0.88,2.31l0 8.27 -3.31 0 -0.21 -1.06c-0.37,0.24 -0.77,0.45 -1.19,0.64 -0.37,0.15 -0.79,0.3 -1.24,0.43 -0.46,0.14 -0.93,0.21 -1.41,0.21l-0.75 0z"/>
  <polygon id="19" class="fil2" points="394.18,193.23 394.18,189.07 397.91,189.07 397.91,200.37 394.18,200.37 394.18,196.11 390.34,196.11 390.34,200.37 386.61,200.37 386.61,189.07 390.34,189.07 390.34,193.23 "/>
  <path id="20" class="fil2" d="M404.52 197.6c0.27,0 0.56,-0.02 0.86,-0.06 0.3,-0.05 0.57,-0.1 0.83,-0.15 0.3,-0.06 0.59,-0.13 0.87,-0.22l0 -1.28 -3.09 0c-0.21,0 -0.39,0.07 -0.53,0.22 -0.14,0.14 -0.22,0.32 -0.22,0.53l0 0.21c0,0.22 0.08,0.39 0.22,0.54 0.14,0.14 0.32,0.21 0.53,0.21l0.53 0zm-1.81 2.99c-0.97,0 -1.74,-0.3 -2.32,-0.88 -0.59,-0.58 -0.88,-1.36 -0.88,-2.32l0 -0.96c0,-0.97 0.29,-1.75 0.88,-2.33 0.58,-0.58 1.35,-0.87 2.32,-0.87l4.37 0 0 -0.82c0,-0.21 -0.07,-0.38 -0.21,-0.51 -0.14,-0.14 -0.32,-0.21 -0.53,-0.21 -0.57,0 -1.19,0 -1.85,0 -0.66,0 -1.28,0.03 -1.86,0.1 -0.69,0.09 -1.37,0.14 -2.05,0.14l0 -2.64c0.78,-0.12 1.58,-0.18 2.39,-0.18 0.69,-0.13 1.45,-0.19 2.28,-0.19 0.82,0 1.61,0 2.37,0 0.96,0 1.74,0.29 2.32,0.87 0.59,0.58 0.88,1.35 0.88,2.31l0 8.27 -3.31 0 -0.21 -1.06c-0.37,0.24 -0.77,0.45 -1.2,0.64 -0.37,0.15 -0.78,0.3 -1.23,0.43 -0.46,0.14 -0.93,0.21 -1.41,0.21l-0.75 0z"/>
  <path id="21" class="fil2" d="M470.11 190.97l2.16 -1.9 4.9 5.65 -4.9 5.65 -2.16 -1.92 3.25 -3.73 -3.25 -3.75zm8.58 3.75l-3.24 -3.75 2.15 -1.9 4.91 5.65 -4.91 5.65 -2.15 -1.92 3.24 -3.73z"/>
  <polygon class="fil2" points="322.41,299.4 319.48,299.4 319.48,290.28 316.06,290.28 316.06,288 325.83,288 325.83,290.28 322.41,290.28 "/>
  <path id="1" class="fil2" d="M330.15 292.64c-0.43,0 -0.65,0.22 -0.65,0.65l0 0.9 2.77 0 0 -0.9c0,-0.43 -0.22,-0.65 -0.65,-0.65l-1.47 0zm-3.5 0.56c0,-0.81 0.23,-1.45 0.69,-1.91 0.46,-0.45 1.1,-0.69 1.91,-0.69l3.26 0c0.82,0 1.45,0.24 1.92,0.7 0.46,0.46 0.69,1.1 0.69,1.91l0 3.02 -5.62 0 0 0.61c0,0.16 0.05,0.28 0.16,0.39 0.11,0.1 0.25,0.15 0.41,0.15 0.47,0 0.97,0 1.52,0 0.55,0 1.06,0 1.54,0 0.56,-0.06 1.11,-0.12 1.66,-0.18l0 2.04c-0.63,0.09 -1.27,0.13 -1.94,0.13 -0.56,0.1 -1.17,0.15 -1.84,0.15 -0.66,0 -1.3,0 -1.92,0 -0.74,0 -1.33,-0.23 -1.77,-0.67 -0.45,-0.44 -0.67,-1.03 -0.67,-1.76l0 -3.89z"/>
  <polygon id="2" class="fil2" points="341.8,290.77 344.97,290.77 342.2,295.08 345.05,299.4 341.88,299.4 340.25,296.79 338.62,299.4 335.44,299.4 338.29,295.08 335.53,290.77 338.7,290.77 340.25,293.37 "/>
  <polygon id="3" class="fil2" points="351.49,293.94 351.49,290.77 354.34,290.77 354.34,299.4 351.49,299.4 351.49,296.14 348.56,296.14 348.56,299.4 345.71,299.4 345.71,290.77 348.56,290.77 348.56,293.94 "/>
  <path id="4" class="fil2" d="M364.76 296.96c0,0.81 -0.23,1.45 -0.69,1.91 -0.46,0.46 -1.1,0.69 -1.91,0.69l-3.75 0c-0.81,0 -1.45,-0.23 -1.91,-0.69 -0.46,-0.46 -0.69,-1.1 -0.69,-1.91l0 -3.75c0,-0.81 0.23,-1.45 0.69,-1.91 0.46,-0.46 1.1,-0.7 1.91,-0.7l3.75 0c0.81,0 1.45,0.24 1.91,0.7 0.46,0.46 0.69,1.1 0.69,1.91l0 3.75zm-2.85 -3.5c0,-0.44 -0.21,-0.66 -0.65,-0.66l-1.95 0c-0.44,0 -0.65,0.22 -0.65,0.66l0 3.25c0,0.44 0.21,0.65 0.65,0.65l1.95 0c0.44,0 0.65,-0.21 0.65,-0.65l0 -3.25z"/>
  <polygon id="5" class="fil2" points="371.12,292.97 371.12,299.4 368.27,299.4 368.27,292.97 365.58,292.97 365.58,290.77 373.81,290.77 373.81,292.97 "/>
  <path id="6" class="fil2" d="M377.63 297.2l2.45 0c0.43,0 0.65,-0.22 0.65,-0.65l0 -3.01c0,-0.17 -0.05,-0.3 -0.16,-0.41 -0.11,-0.11 -0.25,-0.16 -0.41,-0.16l-0.57 0c-0.21,0 -0.42,0.01 -0.65,0.05 -0.23,0.03 -0.44,0.07 -0.64,0.11 -0.23,0.04 -0.45,0.1 -0.67,0.16l0 3.91zm0 2.2l0 2.77 -2.85 0 0 -11.4 2.53 0 0.16 0.81c0.28,-0.18 0.59,-0.34 0.91,-0.49 0.29,-0.12 0.6,-0.23 0.95,-0.33 0.35,-0.1 0.7,-0.16 1.07,-0.16l0.74 0c0.74,0 1.33,0.23 1.77,0.67 0.45,0.45 0.67,1.04 0.67,1.78l0 3.74c0,0.82 -0.23,1.46 -0.69,1.92 -0.46,0.46 -1.1,0.69 -1.92,0.69l-3.34 0z"/>
  <path id="7" class="fil2" d="M388.39 292.64c-0.44,0 -0.66,0.22 -0.66,0.65l0 0.9 2.77 0 0 -0.9c0,-0.43 -0.21,-0.65 -0.65,-0.65l-1.46 0zm-3.51 0.56c0,-0.81 0.23,-1.45 0.7,-1.91 0.46,-0.45 1.1,-0.69 1.91,-0.69l3.26 0c0.81,0 1.45,0.24 1.91,0.7 0.46,0.46 0.69,1.1 0.69,1.91l0 3.02 -5.62 0 0 0.61c0,0.16 0.06,0.28 0.17,0.39 0.11,0.1 0.24,0.15 0.4,0.15 0.47,0 0.98,0 1.53,0 0.55,0 1.06,0 1.54,0 0.55,-0.06 1.1,-0.12 1.66,-0.18l0 2.04c-0.63,0.09 -1.28,0.13 -1.94,0.13 -0.57,0.1 -1.18,0.15 -1.84,0.15 -0.66,0 -1.3,0 -1.92,0 -0.74,0 -1.33,-0.23 -1.78,-0.67 -0.44,-0.44 -0.67,-1.03 -0.67,-1.76l0 -3.89z"/>
  <path id="8" class="fil2" d="M398.89 296.14l-1.22 0 0 3.26 -2.85 0 0 -8.63 2.85 0 0 3.17 1.3 0 0.9 -1.79c0.1,-0.2 0.22,-0.4 0.37,-0.58 0.14,-0.19 0.31,-0.35 0.51,-0.49 0.19,-0.14 0.41,-0.26 0.66,-0.34 0.24,-0.09 0.52,-0.14 0.82,-0.14 0.16,0 0.33,0.01 0.48,0.03 0.16,0.02 0.3,0.03 0.42,0.06l0.4 0.08 0 2.2 -0.57 0c-0.2,0 -0.37,0.05 -0.51,0.15 -0.13,0.11 -0.24,0.22 -0.3,0.34l-0.81 1.62 2.44 4.32 -3.1 0 -1.79 -3.26z"/>
  <polygon id="9" class="fil2" points="314.92,311.62 312.64,315.69 310.36,315.69 308.08,311.62 308.08,317.97 305.15,317.97 305.15,306.57 308.24,306.57 311.5,312.6 314.76,306.57 317.85,306.57 317.85,317.97 314.92,317.97 "/>
  <path id="10" class="fil2" d="M323.06 315.85c0.21,0 0.43,-0.01 0.66,-0.04 0.22,-0.04 0.44,-0.08 0.63,-0.12 0.23,-0.04 0.45,-0.1 0.67,-0.16l0 -0.98 -2.36 0c-0.17,0 -0.3,0.06 -0.41,0.16 -0.11,0.11 -0.16,0.25 -0.16,0.41l0 0.16c0,0.17 0.05,0.3 0.16,0.41 0.11,0.11 0.24,0.16 0.41,0.16l0.4 0zm-1.38 2.28c-0.74,0 -1.33,-0.22 -1.78,-0.66 -0.44,-0.45 -0.66,-1.04 -0.66,-1.78l0 -0.73c0,-0.74 0.22,-1.33 0.66,-1.78 0.45,-0.44 1.04,-0.67 1.78,-0.67l3.34 0 0 -0.62c0,-0.16 -0.06,-0.29 -0.16,-0.39 -0.11,-0.11 -0.25,-0.16 -0.41,-0.16 -0.44,0 -0.9,0 -1.41,0 -0.5,0 -0.98,0.03 -1.43,0.08 -0.52,0.07 -1.04,0.1 -1.56,0.1l0 -2.01c0.6,-0.09 1.21,-0.14 1.83,-0.14 0.53,-0.1 1.11,-0.15 1.74,-0.15 0.63,0 1.23,0 1.81,0 0.73,0 1.33,0.23 1.77,0.67 0.45,0.44 0.67,1.03 0.67,1.76l0 6.32 -2.52 0 -0.17 -0.81c-0.28,0.18 -0.58,0.35 -0.91,0.49 -0.28,0.11 -0.6,0.23 -0.94,0.33 -0.35,0.1 -0.71,0.15 -1.08,0.15l-0.57 0z"/>
  <path id="11" class="fil2" d="M332.92 309.66l0 8.31 -2.85 0 0 -6.11 -1.22 0 0 -2.2 4.07 0zm-2.85 -3.25l2.85 0 0 2.28 -2.85 0 0 -2.28z"/>
  <path id="12" class="fil2" d="M334.55 306.57l2.85 0 0 8.71c0,0.17 0.05,0.3 0.16,0.41 0.11,0.11 0.25,0.16 0.41,0.16l0.98 0 0 2.12c-0.22,0.03 -0.44,0.06 -0.67,0.08 -0.2,0.02 -0.41,0.04 -0.64,0.06 -0.23,0.02 -0.44,0.02 -0.65,0.02 -0.74,0 -1.33,-0.22 -1.77,-0.66 -0.45,-0.45 -0.67,-1.04 -0.67,-1.78l0 -9.12z"/>
  <polygon id="13" class="fil2" points="339.76,315.53 342.69,315.53 342.69,317.97 339.76,317.97 "/>
  <path id="14" class="fil2" d="M346.52 309.34l0.16 1.06c0.25,-0.22 0.53,-0.42 0.83,-0.61 0.26,-0.15 0.57,-0.29 0.92,-0.42 0.36,-0.13 0.75,-0.2 1.19,-0.2l0.73 0 0 2.53 -1.39 0c-0.28,0 -0.55,0.03 -0.8,0.08 -0.26,0.06 -0.48,0.11 -0.68,0.16 -0.23,0.08 -0.44,0.16 -0.63,0.25l0 5.78 -2.85 0 0 -8.63 2.52 0z"/>
  <path id="15" class="fil2" d="M357.76 317.97l-0.16 -0.81c-0.28,0.18 -0.59,0.35 -0.92,0.49 -0.28,0.11 -0.59,0.23 -0.94,0.33 -0.35,0.1 -0.71,0.15 -1.08,0.15l-0.73 0c-0.74,0 -1.33,-0.22 -1.77,-0.66 -0.45,-0.45 -0.67,-1.04 -0.67,-1.78l0 -6.35 2.85 0 0 5.86c0,0.16 0.05,0.3 0.16,0.41 0.11,0.11 0.25,0.16 0.41,0.16l0.57 0c0.21,0 0.42,-0.01 0.65,-0.05 0.23,-0.03 0.44,-0.07 0.64,-0.11 0.22,-0.04 0.45,-0.1 0.66,-0.16l0 -6.11 2.85 0 0 8.63 -2.52 0z"/>
  <path id="16" class="fil2" d="M369.73 318.09c-1.06,0 -1.84,-0.25 -2.34,-0.75 -0.5,-0.5 -0.75,-1.28 -0.75,-2.34l0 -5.19c0,-1.13 0.26,-1.96 0.77,-2.47 0.52,-0.51 1.35,-0.77 2.49,-0.77l5.86 0 0 2.28 -5.21 0c-0.65,0 -0.98,0.32 -0.98,0.97l0 5.19c0,0.25 0.07,0.45 0.22,0.59 0.15,0.15 0.35,0.22 0.6,0.22 0.32,0 0.68,0 1.08,0 0.4,0 0.77,0 1.11,0 0.41,0 0.81,0 1.23,0l0 -2.41 -2.12 0 0 -1.95 5.05 0 0 6.28c-0.82,0.11 -1.64,0.17 -2.46,0.17 -0.71,0.12 -1.47,0.18 -2.28,0.18 -0.82,0 -1.57,0 -2.27,0z"/>
  <path id="17" class="fil2" d="M380.73 309.34l0.16 1.06c0.25,-0.22 0.53,-0.42 0.83,-0.61 0.26,-0.15 0.57,-0.29 0.92,-0.42 0.36,-0.13 0.75,-0.2 1.18,-0.2l0.74 0 0 2.53 -1.39 0c-0.28,0 -0.55,0.03 -0.8,0.08 -0.26,0.06 -0.48,0.11 -0.68,0.16 -0.23,0.08 -0.44,0.16 -0.64,0.25l0 5.78 -2.85 0 0 -8.63 2.53 0z"/>
  <path id="18" class="fil2" d="M394.17 315.53c0,0.81 -0.23,1.45 -0.7,1.91 -0.46,0.46 -1.09,0.69 -1.91,0.69l-3.75 0c-0.81,0 -1.45,-0.23 -1.91,-0.69 -0.46,-0.46 -0.69,-1.1 -0.69,-1.91l0 -3.75c0,-0.81 0.23,-1.45 0.69,-1.91 0.46,-0.46 1.1,-0.7 1.91,-0.7l3.75 0c0.82,0 1.45,0.24 1.91,0.7 0.47,0.46 0.7,1.1 0.7,1.91l0 3.75zm-2.85 -3.5c0,-0.44 -0.22,-0.66 -0.66,-0.66l-1.95 0c-0.43,0 -0.65,0.22 -0.65,0.66l0 3.25c0,0.44 0.22,0.66 0.65,0.66l1.95 0c0.44,0 0.66,-0.22 0.66,-0.66l0 -3.25z"/>
  <path id="19" class="fil2" d="M401.91 317.97l-0.17 -0.81c-0.28,0.18 -0.58,0.35 -0.91,0.49 -0.28,0.11 -0.6,0.23 -0.95,0.33 -0.34,0.1 -0.7,0.15 -1.07,0.15l-0.73 0c-0.74,0 -1.33,-0.22 -1.78,-0.66 -0.44,-0.45 -0.67,-1.04 -0.67,-1.78l0 -6.35 2.85 0 0 5.86c0,0.16 0.06,0.3 0.17,0.41 0.11,0.11 0.24,0.16 0.4,0.16l0.57 0c0.21,0 0.43,-0.01 0.66,-0.05 0.22,-0.03 0.44,-0.07 0.63,-0.11 0.23,-0.04 0.45,-0.1 0.67,-0.16l0 -6.11 2.85 0 0 8.63 -2.52 0z"/>
  <path id="20" class="fil2" d="M408.91 315.77l2.44 0c0.44,0 0.66,-0.21 0.66,-0.65l0 -3.01c0,-0.17 -0.06,-0.3 -0.17,-0.41 -0.11,-0.11 -0.24,-0.16 -0.41,-0.16l-0.57 0c-0.2,0 -0.42,0.01 -0.65,0.05 -0.23,0.03 -0.44,0.07 -0.63,0.11 -0.23,0.04 -0.45,0.1 -0.67,0.16l0 3.91zm0 2.2l0 2.77 -2.85 0 0 -11.4 2.52 0 0.17 0.81c0.28,-0.18 0.58,-0.34 0.91,-0.49 0.28,-0.12 0.6,-0.23 0.94,-0.33 0.35,-0.1 0.71,-0.16 1.08,-0.16l0.73 0c0.74,0 1.33,0.23 1.78,0.67 0.44,0.45 0.67,1.04 0.67,1.78l0 3.74c0,0.82 -0.24,1.46 -0.7,1.92 -0.46,0.46 -1.1,0.69 -1.91,0.69l-3.34 0z"/>
  <g id="_2216471758912">
   <rect class="fil1 str1" x="-17.85" y="104.5" width="42.6" height="37" rx="3.91" ry="4.57"/>
   <rect class="fil1 str1" x="32.96" y="104.5" width="42.6" height="37" rx="3.91" ry="4.57"/>
   <rect class="fil1 str1" x="83.77" y="104.5" width="42.6" height="37" rx="3.91" ry="4.57"/>
   <rect class="fil1 str1" x="134.58" y="104.5" width="42.6" height="37" rx="3.91" ry="4.57"/>
   <rect class="fil1 str1" x="185.4" y="104.5" width="42.6" height="37" rx="3.91" ry="4.57"/>
   <rect class="fil1 str1" x="236.21" y="104.5" width="42.6" height="37" rx="3.91" ry="4.57"/>
   <rect class="fil1 str1" x="288.31" y="104.5" width="42.6" height="37" rx="3.91" ry="4.57"/>
   <rect class="fil1 str1" x="339.12" y="104.5" width="42.6" height="37" rx="3.91" ry="4.57"/>
   <rect class="fil1 str1" x="389.94" y="104.5" width="42.6" height="37" rx="3.91" ry="4.57"/>
   <rect class="fil1 str1" x="440.75" y="104.5" width="42.6" height="37" rx="3.91" ry="4.57"/>
   <rect class="fil1 str1" x="491.56" y="104.5" width="42.6" height="37" rx="3.91" ry="4.57"/>
   <rect class="fil1 str1" x="542.37" y="104.5" width="42.6" height="37" rx="3.91" ry="4.57"/>
   <rect class="fil1 str1" x="548.96" y="104.5" width="42.6" height="37" rx="3.91" ry="4.57"/>
   <rect class="fil1 str1" x="599.77" y="104.5" width="42.6" height="37" rx="3.91" ry="4.57"/>
   <rect class="fil1 str1" x="650.58" y="104.5" width="42.6" height="37" rx="3.91" ry="4.57"/>
   <rect class="fil1 str1" x="701.4" y="104.5" width="42.6" height="37" rx="3.91" ry="4.57"/>
  </g>
  <rect class="fil1" x="-105.5" y="149" width="303.5" height="182"/>
  <rect class="fil1" x="514" y="149" width="301.5" height="182"/>
  <g id="_2216471736928">
   <rect class="fil1 str1" x="-17.85" y="338.5" width="42.6" height="37" rx="3.91" ry="4.57"/>
   <rect class="fil1 str1" x="32.96" y="338.5" width="42.6" height="37" rx="3.91" ry="4.57"/>
   <rect class="fil1 str1" x="83.77" y="338.5" width="42.6" height="37" rx="3.91" ry="4.57"/>
   <rect class="fil1 str1" x="134.58" y="338.5" width="42.6" height="37" rx="3.91" ry="4.57"/>
   <rect class="fil1 str1" x="185.4" y="338.5" width="42.6" height="37" rx="3.91" ry="4.57"/>
   <rect class="fil1 str1" x="236.21" y="338.5" width="42.6" height="37" rx="3.91" ry="4.57"/>
   <rect class="fil1 str1" x="288.31" y="338.5" width="42.6" height="37" rx="3.91" ry="4.57"/>
   <rect class="fil1 str1" x="339.12" y="338.5" width="42.6" height="37" rx="3.91" ry="4.57"/>
   <rect class="fil1 str1" x="389.94" y="338.5" width="42.6" height="37" rx="3.91" ry="4.57"/>
   <rect class="fil1 str1" x="440.75" y="338.5" width="42.6" height="37" rx="3.91" ry="4.57"/>
   <rect class="fil1 str1" x="491.56" y="338.5" width="42.6" height="37" rx="3.91" ry="4.57"/>
   <rect class="fil1 str1" x="542.37" y="338.5" width="42.6" height="37" rx="3.91" ry="4.57"/>
   <rect class="fil1 str1" x="548.96" y="338.5" width="42.6" height="37" rx="3.91" ry="4.57"/>
   <rect class="fil1 str1" x="599.77" y="338.5" width="42.6" height="37" rx="3.91" ry="4.57"/>
   <rect class="fil1 str1" x="650.58" y="338.5" width="42.6" height="37" rx="3.91" ry="4.57"/>
   <rect class="fil1 str1" x="701.4" y="338.5" width="42.6" height="37" rx="3.91" ry="4.57"/>
  </g>
 </g>
</svg>
