<?xml version="1.0" encoding="UTF-8"?>
<!DOCTYPE svg PUBLIC "-//W3C//DTD SVG 1.1//EN" "http://www.w3.org/Graphics/SVG/1.1/DTD/svg11.dtd">
<!-- Creator: CorelDRAW 2017 -->
<svg xmlns="http://www.w3.org/2000/svg" xml:space="preserve" width="500px" height="500px" version="1.1" style="shape-rendering:geometricPrecision; text-rendering:geometricPrecision; image-rendering:optimizeQuality; fill-rule:evenodd; clip-rule:evenodd"
viewBox="0 0 500 500"
 xmlns:xlink="http://www.w3.org/1999/xlink">
 <defs>
  <style type="text/css">
   <![CDATA[
    .str0 {stroke:#FF7E0B;stroke-width:10;stroke-miterlimit:22.9256}
    .fil6 {fill:#EF7F1A}
    .fil3 {fill:#184440}
    .fil2 {fill:#364120}
    .fil4 {fill:#4B191E}
    .fil1 {fill:#5A3E0D}
    .fil5 {fill:#6B1613}
    .fil7 {fill:#FF992B}
    .fil8 {fill:#FF992B}
    .fil0 {fill:url(#id0)}
   ]]>
  </style>
  <radialGradient id="id0" gradientUnits="userSpaceOnUse" gradientTransform="matrix(1 -0 -0 1 0 0)" cx="250" cy="250" r="750.19" fx="250" fy="250">
   <stop offset="0" style="stop-opacity:1; stop-color:#7D7D7D"/>
   <stop offset="0.14902" style="stop-opacity:1; stop-color:#3E3E3E"/>
   <stop offset="1" style="stop-opacity:1; stop-color:black"/>
  </radialGradient>
 </defs>
 <g id="Слой_x0020_1">
  <metadata id="CorelCorpID_0Corel-Layer"/>
  <circle class="fil0 str0" cx="250" cy="250" r="232.45"/>
  <path class="fil1" d="M41.02 340.61c88.88,-116.1 202.27,-223.04 339.98,-277.61 -71.06,65.18 -152.63,192.09 -213.26,296.01 -16.73,28.67 -37.86,16.6 -50.74,39.99 -6.22,-4.28 -6.35,30.12 -12.34,25.16 -24.81,-20.57 -47.21,-47.42 -63.64,-83.55z"/>
  <path class="fil2" d="M454.35 150.15c-21.85,-42.65 -44.85,-65.65 -75.85,-87.15 -53.27,52.78 -94.65,110.43 -139.89,168.93 69.6,-36.16 143.61,-61.81 215.74,-81.78z"/>
  <path class="fil3" d="M44.9 348.2c-0.64,0.52 -6.75,-13.94 -6.23,-14.29 58,-38.88 126.13,-64.38 187.13,-97.17 83.68,-44.99 133.09,-62.34 226.7,-90.24 5.96,11.6 10.5,21.5 16,39.5 -87.05,23.56 -170.33,42.75 -225.5,66 -4.9,2.07 5.23,4.58 3.23,9.4 -2.72,6.57 -13.15,5.55 -19.79,8.35 -43.64,18.4 -87.03,37.53 -130.53,56.78 -8.69,3.85 -46.59,18.1 -51.01,21.67z"/>
  <path class="fil4" d="M211.1 259.45c0,29.06 -18.22,35.4 -18.22,64.47 95.66,-36.21 193.34,-48 282.62,-48.92 4,-28.5 -0.5,-65 -7.29,-88.92 -170.9,22.72 -167.91,49.9 -257.11,73.37z"/>
  <path class="fil4" d="M54.85 365.42c5.15,12.58 26.65,37.08 26.65,37.08 0,0 60.56,-32.93 90.09,-50.07 -2.53,-11.43 -47.72,-18.6 -53.7,-26.76 0,0 -32.36,18.11 -63.04,39.75z"/>
  <path class="fil5" d="M181.5 350c-35,10.5 -66.12,33.79 -99.72,52.48 8.08,9.65 17.59,18.32 28.12,26.57l71.6 -79.05z"/>
  <path class="fil6" d="M159.65 267.82c-45.5,-2.31 -41.88,-44.28 -3.59,-82.7 52.94,-53.12 189.26,-88.81 222.91,-15.58 25.03,54.46 -85.95,117.79 -125.24,143.22 -0.2,0.14 -0.46,0.22 -0.62,0.41 -29.94,35.55 -57.89,58.86 -106.64,54.72 -21.95,-1.86 -29.31,-20.85 -29.96,-37.75 -1.2,-31.16 37.41,-57.28 44.64,-62.32 0.28,-0.2 -1.75,0.11 -1.5,0zm98.28 34.15c18.57,-19.88 56.33,-51.52 45.54,-83.89 -17.12,-51.37 -146.18,0.29 -139.32,33.26 2.49,11.96 18.49,3.66 36.25,-2.4 45.75,-15.61 73.71,11.69 57.53,53.03z"/>
  <path class="fil7" d="M144 220c81.78,-61.34 171.28,-76.99 203.51,-22.74 2.01,3.39 5.82,8.67 9.49,2.74 34,-55 -119.54,-104.55 -213,20z"/>
  <path class="fil8" d="M182.63 291.54c21.64,-5.07 30.77,0.24 44.46,-4.64 6.57,-2.35 10.62,-9.31 10,-16.38 -3.74,-43.05 -99.43,12.71 -103.09,42.48 -0.08,0.63 -0.19,3.18 1,3.5 1.32,0.35 4.03,-1.62 5.18,-2.77 4.29,-4.28 11.45,-14.93 42.45,-22.19z"/>
 </g>
</svg>
