<?xml version="1.0" encoding="UTF-8"?>
<!DOCTYPE svg PUBLIC "-//W3C//DTD SVG 1.1//EN" "http://www.w3.org/Graphics/SVG/1.1/DTD/svg11.dtd">
<!-- Creator: CorelDRAW 2017 -->
<svg xmlns="http://www.w3.org/2000/svg" xml:space="preserve" width="500px" height="500px" version="1.1" style="shape-rendering:geometricPrecision; text-rendering:geometricPrecision; image-rendering:optimizeQuality; fill-rule:evenodd; clip-rule:evenodd"
viewBox="0 0 500 500"
 xmlns:xlink="http://www.w3.org/1999/xlink">
 <defs>
  <style type="text/css">
   <![CDATA[
    .str0 {stroke:black;stroke-width:16;stroke-miterlimit:22.9256}
    .fil2 {fill:black}
    .fil4 {fill:#1F1B20}
    .fil3 {fill:#DE1010}
    .fil1 {fill:#FD0000}
    .fil0 {fill:white}
   ]]>
  </style>
 </defs>
 <g id="Слой_x0020_1">
  <metadata id="CorelCorpID_0Corel-Layer"/>
  <circle class="fil0 str0" cx="250" cy="250" r="239.39"/>
 </g>
 <g id="Слой_x0020_1_0">
  <metadata id="CorelCorpID_1Corel-Layer"/>
  <g id="_2961117908224">
   <path class="fil1" d="M108.59 390.1c17.32,-17.15 0,0 17.32,-17.15 64.15,-64.07 127.9,-126.45 191.74,-191.3 17.38,-17.65 34.89,-34.5 52.21,-51.98 5.78,-5.83 11.81,-11.36 17.25,-17.34l-112 -1.62c-2.55,3.62 -7.04,7.58 -10.26,11.14l-10.33 11.11c-0.92,0.98 -1.81,1.64 -2.71,2.61l-5.1 5.64c-0.97,1 -1.81,1.56 -2.74,2.59 -3.38,3.72 -6.87,7.39 -10.31,11.12l-7.79 8.28c-1.01,1.18 -1.69,1.51 -2.74,2.59l-10.35 11.08c-1.72,1.93 -3.54,3.54 -5.25,5.45l-15.78 16.63 -0.05 -91.29 -84.51 0 1.4 282.44z"/>
   <path class="fil2" d="M229.29 300.06l53.58 50.77c2.61,2.75 5.24,4.14 7.85,7.58 -1.28,1.71 -4.83,4.55 -6.75,6.22l-28.87 26.28c-0.98,0.97 -0.49,0.2 -1.26,1.43l138.95 -0.01 0.02 -121.46c-2.3,1.39 -23.58,22.65 -27.32,26.16 -2.74,2.56 -6.66,5.87 -8.94,8.48 -0.84,-0.71 -1.01,-1.04 -1.79,-1.88l-5.95 -6.38c-2.56,-2.46 -5.27,-6.13 -7.82,-8.67l-15.79 -17.14c-5.28,-6.36 -15.64,-16.78 -21.68,-23.61l-5.85 -6.53c-1.19,-1.37 -3,-2.94 -3.86,-4.33 -1.76,1.03 -33.04,32.31 -36.19,35.4l-12.15 11.73c-5.36,5.14 -10.95,11.27 -16.18,15.96z"/>
   <polygon class="fil3" points="107.92,254.77 108.59,390.1 244.78,254.84 "/>
   <polygon class="fil4" points="260.61,269.4 392.79,392.24 253.83,392.26 290.72,358.41 229.29,300.06 "/>
  </g>
 </g>
</svg>
