<?xml version="1.0" encoding="UTF-8"?>
<!DOCTYPE svg PUBLIC "-//W3C//DTD SVG 1.1//EN" "http://www.w3.org/Graphics/SVG/1.1/DTD/svg11.dtd">
<!-- Creator: CorelDRAW 2017 -->
<svg xmlns="http://www.w3.org/2000/svg" xml:space="preserve" width="500px" height="500px" version="1.1" style="shape-rendering:geometricPrecision; text-rendering:geometricPrecision; image-rendering:optimizeQuality; fill-rule:evenodd; clip-rule:evenodd"
viewBox="0 0 500 500"
 xmlns:xlink="http://www.w3.org/1999/xlink">
 <defs>
  <style type="text/css">
   <![CDATA[
    .str0 {stroke:#00A6E4;stroke-width:16;stroke-miterlimit:22.9256}
    .fil3 {fill:none}
    .fil1 {fill:#00A6E4}
    .fil5 {fill:#02A3E4}
    .fil2 {fill:#EC1F79}
    .fil4 {fill:#FAFAFA}
    .fil8 {fill:#FAFEFE}
    .fil7 {fill:#FDFDFB}
    .fil6 {fill:#FDFDFD}
    .fil0 {fill:white}
   ]]>
  </style>
 </defs>
 <g id="Слой_x0020_1">
  <metadata id="CorelCorpID_0Corel-Layer"/>
  <circle class="fil0 str0" cx="250" cy="250" r="239.39"/>
 </g>
 <g id="Слой_x0020_1_0">
  <metadata id="CorelCorpID_1Corel-Layer"/>
  <g id="_2960963320544">
   <path class="fil1" d="M123.46 154.94c8.71,-3.56 12.85,10.05 4.86,13.18 -8.03,3.15 -15.03,-9.03 -4.86,-13.18zm76.44 -0.15c9.11,-3.34 12.94,10.84 4.25,13.46 -8.49,2.57 -14.06,-9.86 -4.25,-13.46zm-87.14 -44.42c-21.79,5.22 -17.17,28.12 -17.17,50.7 0,12.65 -1.61,57.95 0.61,66.78 5.4,21.43 29.03,16.99 51.2,16.99 10.35,0 61.68,0.74 67.56,-0.6l5.55 -2.24c1.92,-1.06 3.4,-2.35 4.87,-3.82 10.15,-10.1 6.61,-26.18 6.61,-44.93 0,-12.48 1.56,-58.56 -0.8,-67.3 -2.07,-7.66 -9.13,-14.78 -17.85,-16.06 -8.36,-1.23 -24.59,-0.29 -33.76,-0.29 -13.82,0 -56.5,-1.7 -66.82,0.77z"/>
   <path class="fil2" d="M367.74 221.33c-8.48,6.59 -20.53,11.53 -34.19,11.51 -15.13,-0.01 -25.76,-5.45 -35.09,-12.36 -5.56,-4.12 -12.02,-12.72 -15.25,-19.54 -1.69,-3.56 -2.39,-5 1.63,-6.16 2.49,1.87 2.36,3.23 4.08,6.52 17.8,34.06 66.63,34.48 86.45,5.03 1.54,-2.29 2.61,-4.01 3.87,-6.56 3.21,-6.48 7.37,-5.53 5.77,-0.32 -1.57,5.11 -7.79,12.64 -11.41,16.45 -1.19,1.25 -4.24,4.17 -5.86,5.43zm-2.77 -63.11c2.41,-2.02 4.85,-4.99 9.5,-3.22 3.59,1.37 5.22,4.92 3.91,9.17 -2.06,6.67 -15.39,6.66 -13.41,-5.95zm-62.83 -0.1c2.24,13.02 -11.42,12.45 -13.42,6.02 -1.41,-4.57 0.85,-8.55 4.5,-9.44 4.46,-1.08 6.65,1.36 8.92,3.42zm21.4 -51.72c-9.31,1.13 -19.96,5.4 -26.66,9.27 -1.94,1.12 -3.27,2.08 -5.28,3.42 -2.13,1.42 -2.95,2.38 -4.93,3.79 -4.93,3.53 -5.52,4.61 -8.97,9.35 -1.37,1.88 -2.49,2.63 -3.89,4.77 -0.97,1.47 -1.9,3.35 -3.24,5.51 -2.41,3.91 -4.13,8.23 -5.53,12.69 -5.81,18.51 -4.41,41.28 6.15,57.73 10.5,16.35 20.36,25.12 39.46,32.05 25.58,9.27 49.07,1.15 69.96,-13.32 2.77,-1.91 2.01,-2.48 4.13,-4.62 8.99,-9.12 12.79,-14.76 17.44,-27.85 11.03,-31.05 -4.19,-69.07 -33.05,-84.17 -3.92,-2.06 -8.06,-4 -12.73,-5.53 -10.81,-3.53 -21.12,-4.51 -32.86,-3.09z"/>
   <path class="fil3" d="M318.76 392.52c-26.37,6.62 -22.18,-18.49 -22.18,-38.35 0,-20.13 -0.96,-42.69 0.03,-62.52 1,-19.98 30.08,-21.32 30.25,2.5 0.05,7.69 0.87,24.62 -0.12,31.31 -0.73,4.92 -7.58,16.28 -9.37,21.57l52.88 -67.98c-0.41,-3.05 -2.56,-1.29 -4.2,-0.73 -2.54,0.87 1.71,0.63 -3.36,0.18l-0.55 6.14c0,0.2 0.07,0.54 0.12,0.81 -0.68,-1.33 -0.19,-0.61 -0.62,-1.49 -0.03,-0.07 -0.13,-0.32 -0.18,-0.39l-1.42 -1.29c-0.06,-0.04 -0.28,-0.09 -0.4,-0.16l0 -7.1c-3.23,2.6 -2.55,-3.85 -2.61,4.35 0,-0.29 -0.05,-1.34 -0.03,-1.58 0.17,-1.63 0.51,-3.02 0.9,-4.51 -1.96,0.1 -1.3,-0.17 -2.49,0.19l-1.75 0.91c4.53,22.74 -26,11.49 -12.56,-1.66 0.27,-2.69 1.32,-4.1 -2.2,-4.14 -4.8,-0.06 0.59,0.05 -3.61,2.52l-1.74 -1.67c-8.49,1 -19.08,0.15 -27.84,0.21 -13.12,0.09 -122.14,-0.53 -125.75,0.69 -2.61,0.88 1.12,0.3 -2.96,1.07 -1.2,0.23 -2.13,0.05 -3.29,0.18 -20.85,2.27 -38.31,0.08 -59.51,0.68 0,2.46 0.36,0.07 -1.89,1.16 0.13,0.21 0.34,0.28 0.4,0.62 0.07,0.41 0.61,0.98 0.72,1.16 0.82,1.3 0.36,0.19 1.22,2.05 4.48,2.23 5.48,2.2 7.65,6.34 4.44,8.45 2.29,27.32 2.61,40.85l43.83 -42.87c4.89,-5.69 15.27,-7.25 21.8,-1.86 5.3,4.38 6.23,13.97 1.56,20.87 -4.8,7.11 -41.98,40.66 -44.01,44.18 3.87,-1.72 8.65,-5.62 13.23,-7.87 3.6,2.32 6.96,6.44 10.22,9.66 14.6,14.41 27.76,21.8 26.25,37.19 0.24,-0.28 0.63,-1.01 0.73,-0.83l3.33 -2.99c0.14,-0.01 0.43,-0.03 0.56,-0.05l1.52 -0.48c-0.63,0.52 -2.12,-1.52 0.01,3.48 3.11,0.45 2,1.38 3.58,-0.87 -6,-17.19 -4.85,-11.07 -4.85,-31.31 0,-11.59 0,-23.19 0,-34.79 0,-11.83 -0.12,-20.4 6.48,-28.69 5.12,-6.45 12.24,-10.72 24.36,-10.85 11.57,-0.12 23.22,0.05 34.8,0.01 9.97,-0.03 20.45,3.19 20.33,15.18 -0.21,22.5 -36.94,12.66 -55.66,15.02l-0.03 13.57c13.29,2.03 53.55,-7.06 49.05,18.19 -0.95,5.32 -6.52,10.72 -12.11,11.3m-36.82 1.05l0.1 13.17c6.18,-0.28 40.14,-1.25 42.77,0.98 5.27,0.44 9.14,4.15 11.16,7.96 3.11,5.89 0.25,11.08 -1.36,15.8"/>
   <path class="fil1" d="M370.25 279.05l-52.88 67.98c1.79,-5.29 8.64,-16.65 9.37,-21.57 0.99,-6.69 0.17,-23.62 0.12,-31.31 -0.17,-23.82 -29.25,-22.48 -30.25,-2.5 -0.99,19.83 -0.03,42.39 -0.03,62.52 0,19.86 -4.19,44.97 22.18,38.35 1.36,-1.45 2.04,-1.41 3.9,-3.15l37.43 -47.79c4.03,-5.18 8.82,-12.08 13.27,-16.9 -2.56,9.58 -7.84,11.04 -7.78,24.27 0.04,8.85 -0.87,23.17 0.16,31.32 2.14,16.81 30.17,22.6 30.1,-6.95 -0.05,-21.17 -0.01,-42.34 -0.01,-63.51 0,-9.77 1.69,-21.25 -3.8,-28.01 -7.22,-8.86 -12.88,-5.17 -21.78,-2.75z"/>
   <path class="fil1" d="M197.79 383.74c1.51,-15.39 -11.65,-22.78 -26.25,-37.19 -3.26,-3.22 -6.62,-7.34 -10.22,-9.66 -4.58,2.25 -9.36,6.15 -13.23,7.87 2.03,-3.52 39.21,-37.07 44.01,-44.18 4.67,-6.9 3.74,-16.49 -1.56,-20.87 -6.53,-5.39 -16.91,-3.83 -21.8,1.86l-43.83 42.87c-0.32,-13.53 1.83,-32.4 -2.61,-40.85 -2.17,-4.14 -3.17,-4.11 -7.65,-6.34 -8.95,-2.45 -14.65,1.52 -17.61,6.59 -3.53,6.02 -2.39,13.97 -2.39,21.62 0,16.24 0,32.48 0,48.71 0,14.92 -3.55,33.62 9.65,38.79 7.6,2.98 13.68,-0.78 17.03,-4.86 4.66,-5.65 3.55,-13.06 3.57,-20.9l12.13 -11.84c3.26,2 11.02,10.19 14.12,13.33 6,6.07 22.04,24.3 30.3,25.2 11.59,1.25 13.74,-6.06 16.34,-10.15z"/>
   <path class="fil1" d="M207.52 382c2.48,0.92 0.95,4.88 13.48,9.9 8.44,3.37 35.9,2.08 46.44,2.08 15.57,0.01 11.97,-2.48 18.3,-5.39 1.61,-4.72 4.47,-9.91 1.36,-15.8 -2.02,-3.81 -5.89,-7.52 -11.16,-7.96l-43.01 -0.35c-1.31,-3.95 -1.39,-10.63 0.07,-14.27l36.89 -0.58c5.59,-0.58 11.16,-5.98 12.11,-11.3 4.5,-25.25 -35.76,-16.16 -49.05,-18.19l0.03 -13.57c18.72,-2.36 55.45,7.48 55.66,-15.02 0.12,-11.99 -10.36,-15.21 -20.33,-15.18 -11.58,0.04 -23.23,-0.13 -34.8,-0.01 -12.12,0.13 -19.24,4.4 -24.36,10.85 -6.6,8.29 -6.48,16.86 -6.48,28.69 0,11.6 0,23.2 0,34.79 0,20.24 -1.15,14.12 4.85,31.31z"/>
   <path class="fil4" d="M333.55 232.84c13.66,0.02 25.71,-4.92 34.19,-11.51 1.62,-1.26 4.67,-4.18 5.86,-5.43 3.62,-3.81 9.84,-11.34 11.41,-16.45 1.6,-5.21 -2.56,-6.16 -5.77,0.32 -1.26,2.55 -2.33,4.27 -3.87,6.56 -19.82,29.45 -68.65,29.03 -86.45,-5.03 -1.72,-3.29 -1.59,-4.65 -4.08,-6.52 -4.02,1.16 -3.32,2.6 -1.63,6.16 3.23,6.82 9.69,15.42 15.25,19.54 9.33,6.91 19.96,12.35 35.09,12.36z"/>
   <path class="fil5" d="M341.1 272.72c-13.44,13.15 17.09,24.4 12.56,1.66 -3.6,-1.38 -6.3,-6.43 -12.56,-1.66z"/>
   <path class="fil4" d="M199.9 154.79c-9.81,3.6 -4.24,16.03 4.25,13.46 8.69,-2.62 4.86,-16.8 -4.25,-13.46z"/>
   <path class="fil6" d="M302.14 158.12c-2.27,-2.06 -4.46,-4.5 -8.92,-3.42 -3.65,0.89 -5.91,4.87 -4.5,9.44 2,6.43 15.66,7 13.42,-6.02z"/>
   <path class="fil7" d="M123.46 154.94c-10.17,4.15 -3.17,16.33 4.86,13.18 7.99,-3.13 3.85,-16.74 -4.86,-13.18z"/>
   <path class="fil8" d="M364.97 158.22c-1.98,12.61 11.35,12.62 13.41,5.95 1.31,-4.25 -0.32,-7.8 -3.91,-9.17 -4.65,-1.77 -7.09,1.2 -9.5,3.22z"/>
   <path class="fil3" d="M269.89 349.63l-36.89 0.58c-1.46,3.64 -1.38,10.32 -0.07,14.27l43.01 0.35c-2.63,-2.23 -36.59,-1.26 -42.77,-0.98l-0.1 -13.17"/>
  </g>
 </g>
</svg>
