<?xml version="1.0" encoding="UTF-8"?>
<!DOCTYPE svg PUBLIC "-//W3C//DTD SVG 1.1//EN" "http://www.w3.org/Graphics/SVG/1.1/DTD/svg11.dtd">
<!-- Creator: CorelDRAW 2017 -->
<svg xmlns="http://www.w3.org/2000/svg" xml:space="preserve" width="500px" height="500px" version="1.1" style="shape-rendering:geometricPrecision; text-rendering:geometricPrecision; image-rendering:optimizeQuality; fill-rule:evenodd; clip-rule:evenodd"
viewBox="0 0 500 500"
 xmlns:xlink="http://www.w3.org/1999/xlink">
 <defs>
  <style type="text/css">
   <![CDATA[
    .fil3 {fill:#4D1978}
    .fil0 {fill:#5D1F8D}
    .fil2 {fill:#9B8DC2}
    .fil1 {fill:#FEFEFF}
   ]]>
  </style>
 </defs>
 <g id="Слой_x0020_1">
  <metadata id="CorelCorpID_0Corel-Layer"/>
  <circle class="fil0" cx="250" cy="250" r="229.25"/>
  <g id="_3131297433936">
   <path class="fil1" d="M244.47 223.69c1.03,-1.17 22.78,-14.32 26.32,-16.74 7.2,-4.94 7.22,-13.02 0,-17.95l-17.62 -11.11c-1.76,-1.15 -7.66,-4.44 -8.69,-5.65 -2.18,-0.85 -12.37,-7.61 -15.4,-9.46 -15.25,-9.27 -30.34,-19.21 -45.56,-28.58 -3.87,-2.38 -11.63,-8.83 -17.47,-5.6 -5.68,3.13 -4.39,12.83 -4.39,20.07l0.01 98.99c0,7.29 -1.27,17.22 4.91,19.93 5.68,2.5 12.37,-3.01 17.16,-6.01 10.27,-6.42 20.24,-12.51 30.27,-19.02l22.91 -14.36c1.95,-1.27 5.54,-3.71 7.55,-4.51z"/>
   <path class="fil2" d="M244.48 172.24c1.03,1.21 6.93,4.5 8.69,5.65l17.62 11.11c7.22,4.93 7.2,13.01 0,17.95 -3.54,2.42 -25.29,15.57 -26.32,16.74 1.88,-0.03 27.15,16.59 31.44,19.19l3.36 2.08c0.07,0.06 0.17,0.14 0.23,0.19l0.68 0.6c1.7,0.62 29.1,18.19 32.45,20.2 4.35,2.62 9.4,3.68 12.9,-0.39 2.94,-3.42 2.31,-9.95 2.31,-15.18 0,-5.95 0,-11.9 0,-17.86 0.01,-11.68 0.29,-23.71 -0.02,-35.34 -0.44,-16.33 -0.02,-33.28 -0.01,-49.68 0,-7.32 1.16,-17.09 -5.47,-19.36 -5.52,-1.9 -12.24,3.38 -17.08,6.52 -10.02,6.5 -19.99,12.58 -30.27,19.02 -2.01,1.27 -28.86,18.58 -30.51,18.56z"/>
   <path class="fil1" d="M305.13 318.32l-0.03 53.96 14.32 0 0.01 -22.41c2.75,-0.52 28.91,-0.18 34.01,-0.18 23.19,0 21.35,-3.3 21.35,-26.33 0,-8.69 -4,-13.19 -12.81,-13.19l-56.85 -0.01 0 8.16z"/>
   <path class="fil1" d="M206.09 327.6l-0.01 44.66 14.23 0.03 0.09 -41.43c3.18,1.66 25.04,14.81 26,14.91 1.14,0.11 5.45,-2.77 6.72,-3.54l19.68 -11.26 0.01 41.29 14.22 0c0,-14.62 0.06,-29.23 0.06,-43.85 0,-3.62 -0.01,-7.25 0,-10.87 0.01,-3.28 0.03,-7.1 -3.55,-7.34 -3.08,-0.2 -24.02,12.86 -28.19,15.23 -7.1,4.03 -7.79,5.69 -10.54,4.09l-30.82 -17.98c-3.89,-1.66 -7.48,-2.42 -7.86,3 -0.29,4.07 0.04,8.87 -0.04,13.06z"/>
   <path class="fil1" d="M165.28 360.23c1.57,1.23 6.56,7.54 8.19,9.17 1.16,1.16 1.64,1.72 2.43,2.89l19.24 -0.01c-0.83,-1.62 -5.06,-5.61 -6.07,-6.82 -2.06,-2.46 -9.03,-9.63 -9.66,-11.23 -2.06,-0.77 -12.66,-13.92 -15.39,-16.53 -1.24,-1.18 -1.3,-0.95 -1.95,-2.3 5.03,-5.04 24.88,-19.4 31.01,-25.16 -3.34,-0.21 -7.07,-0.07 -10.45,-0.07 -9.35,0 -7.17,-1.48 -12.46,3.06 -0.87,0.74 -1.75,1.49 -2.75,2.3l-27.17 22.59c-0.77,0.51 0.49,-0.11 -0.89,0.51l0 -28.43 -14.18 -0.03 0 62.11 14.16 -0.19 0.21 -19.22 11.24 -9 14.49 16.36z"/>
   <path class="fil3" d="M319.52 338.21c8.2,0 16.4,0 24.6,0 3.45,0 9.2,0.34 12.38,-0.15 4.51,-0.7 3.88,-4 3.88,-8.48 0,-10.33 -0.72,-8.86 -15.87,-8.86 -8.29,0 -16.59,0 -24.89,0l-0.1 17.49z"/>
  </g>
 </g>
</svg>
