<?xml version="1.0" encoding="UTF-8"?>
<!DOCTYPE svg PUBLIC "-//W3C//DTD SVG 1.1//EN" "http://www.w3.org/Graphics/SVG/1.1/DTD/svg11.dtd">
<!-- Creator: CorelDRAW 2017 -->
<svg xmlns="http://www.w3.org/2000/svg" xml:space="preserve" width="500px" height="500px" version="1.1" style="shape-rendering:geometricPrecision; text-rendering:geometricPrecision; image-rendering:optimizeQuality; fill-rule:evenodd; clip-rule:evenodd"
viewBox="0 0 500 500"
 xmlns:xlink="http://www.w3.org/1999/xlink">
 <defs>
  <style type="text/css">
   <![CDATA[
    .str0 {stroke:#6C5353;stroke-width:25;stroke-miterlimit:22.9256}
    .fil3 {fill:#241C1C}
    .fil2 {fill:#473636}
    .fil4 {fill:#6C5353}
    .fil1 {fill:#87A900}
    .fil6 {fill:#FFF347}
    .fil5 {fill:#FFFFFE}
    .fil0 {fill:white}
   ]]>
  </style>
 </defs>
 <g id="Слой_x0020_1">
  <metadata id="CorelCorpID_0Corel-Layer"/>
  <circle class="fil0 str0" cx="253.97" cy="253.97" r="228.47"/>
  <g id="_1709102096448">
   <path class="fil1" d="M262.17 311.59c-0.17,-12.7 4.24,-28.43 7.84,-38.9 3.69,-10.71 5.74,-24.97 21.19,-22.86l0.98 16.47c1.12,-1.32 1.23,-1.47 2.55,-3.72 0.24,-0.4 0.48,-0.84 0.7,-1.25 4.55,-8.28 2.78,-10.69 14.63,-11.17 6.02,10.78 2.59,46.45 -1.16,59.39l-11.4 1.08 1.5 -25.25c-6.34,21.2 -8.18,26.2 -20.39,24.86l0.9 -26.79c-1.35,6.29 -2.6,10.23 -3.87,18.08 -1.57,9.66 -2.37,10.21 -13.47,10.06zm-58.34 -8.45c-28.21,25.23 -28.6,-34 -2.65,-50.03 5.22,-3.22 11.99,-6.68 18.03,-3.81 6.96,3.31 7.69,10.54 6.18,17.25 -3.18,14.08 -5.86,25.83 -7.84,41.72l-11.72 2.21 -2 -7.34zm18.59 6.15c-1.17,-11.87 1.57,-28.5 5.12,-38.71 3.59,-10.31 6.18,-24.47 20.31,-20.09 -3.64,12.02 -12.47,25.74 -11.07,40.89 16.54,-23.57 11.15,-41.14 31.5,-41.46 -0.02,18.11 -6.91,43.01 -10.08,60.37l-12.73 1.55 2.49 -15.18c-0.43,0.31 -0.96,0.72 -1.26,0.97 -0.3,0.24 -0.87,0.66 -1.23,0.96 -0.34,0.28 -0.79,0.63 -1.15,0.94 -0.11,0.09 -2.8,2.65 -2.9,2.75 -5.49,5.41 -7.82,8.61 -19,7.01zm31.45 -78.67c6.22,0.25 5.98,2.28 7.18,7.82l-12.09 2.18c-1.37,-1.37 -2.77,-2.6 -4.65,-4.98 2.01,-2.84 3.61,-5.25 9.56,-5.02zm-116.98 78.26c0.68,-11.62 14.44,-41.08 19.62,-51.24 8.56,-16.8 17.07,-35.09 33.95,-35.73 0.71,12.47 -6.29,36.82 -8.45,48.97 -6.31,35.48 -2.99,37.82 -20.32,38.16l10.36 -58.3c-0.09,2.07 -12.48,28 -14.37,32.7 -8.35,20.67 -5.72,28.87 -20.79,25.44zm28.56 -110.91c-12.26,4.01 -18.05,4.29 -25.51,13.18 -6.52,7.77 -8.47,17.82 -10.17,29.84 -2.79,21.88 -3.14,70.22 5.02,89.28 10.93,25.54 41.63,22.76 70.17,24.17 37.02,-1.39 92.39,7.26 109.93,-19.2 15.13,-22.83 9.93,-88.74 3.25,-116.46 -3.63,-3.97 -3.95,-7.02 -9.18,-11.85 -19.42,-17.94 -122.57,-11.25 -143.51,-8.96z"/>
   <path class="fil2" d="M102.92 269.04c0,26.93 -4.74,72.73 4.7,91.85 4.79,9.71 16.49,18.57 30.32,18.85 16.55,0.35 33.77,-0.1 50.41,-0.1 12.29,-7.77 19.47,-14.2 16.61,-25.2 -28.54,-1.41 -59.24,1.37 -70.17,-24.17 -8.16,-19.06 -7.81,-67.4 -5.02,-89.28 -5.94,5.23 -9,4.24 -13.77,9.51 -4.39,-0.26 -5.98,7.97 -13.08,18.54z"/>
   <path class="fil3" d="M351.79 303.03c-7.47,-18.21 8.21,-28.62 18.11,-18.27 9.16,9.56 2.07,25.45 -18.11,18.27zm-0.29 -48.97c-1.44,-4.84 -4.27,-12.88 0.97,-18.21 17.41,-17.71 36.95,27.57 -0.97,18.21zm-33.5 -37.06c6.67,27.72 12.02,95.41 -3.11,118.24 -17.54,26.46 -72.91,17.81 -109.93,19.2 0,0 -16.61,25.2 -16.61,25.2l169.27 0.07c47.04,0.13 40.32,-43.99 40.32,-73.82 0,-19.32 0,-38.64 0,-57.96 0,-41.15 4.82,-77.27 -37.52,-77.27 0,0 -41.72,45.93 -42.42,46.34z"/>
   <path class="fil4" d="M102.92 269.04c0.07,-0.03 19.54,-21.62 26.85,-28.05 1.7,-12.02 3.65,-22.07 10.17,-29.84 7.46,-8.89 13.25,-9.17 25.51,-13.18 6.05,-3.97 21.66,-20.48 26.37,-27.32 -15.01,0 -35.36,-0.17 -50.35,-0.06 -15.87,0.11 -24.28,5.33 -31.32,14.33 -8.57,10.95 -7.24,19.8 -7.23,38.43 0,15.23 0,30.46 0,45.69z"/>
   <path class="fil2" d="M186.57 170.66c0,0 -21.12,27.31 -21.12,27.31 20.94,-2.29 124.09,-8.98 143.51,8.96 5.23,4.83 9.18,11.85 9.18,11.85 0,0 35.48,-38.66 43.46,-48.11 -33.14,-0.08 -107.1,-0.17 -107.1,-0.17 0,0 55.64,-64.81 55.64,-64.81l-10.14 -7.69c0,0 -57.45,66.63 -57.45,66.63 0,0 -30.76,-29.09 -30.76,-29.09 0,0 -8.78,10.54 -8.78,10.54 0,0 27.49,24.42 27.49,24.42l-43.93 0.16z"/>
   <path class="fil5" d="M262.17 311.59c11.1,0.15 11.9,-0.4 13.47,-10.06 1.27,-7.85 2.52,-11.79 3.87,-18.08l-0.9 26.79c12.21,1.34 14.05,-3.66 20.39,-24.86l-1.5 25.25 11.4 -1.08c3.75,-12.94 7.18,-48.61 1.16,-59.39 -11.85,0.48 -10.08,2.89 -14.63,11.17 -0.22,0.41 -0.46,0.85 -0.7,1.25 -1.32,2.25 -1.43,2.4 -2.55,3.72l-0.98 -16.47c-15.45,-2.11 -17.5,12.15 -21.19,22.86 -3.6,10.47 -8.01,26.2 -7.84,38.9z"/>
   <path class="fil5" d="M136.89 308.88c15.07,3.43 12.44,-4.77 20.79,-25.44 1.89,-4.7 14.28,-30.63 14.37,-32.7l-10.36 58.3c17.33,-0.34 14.01,-2.68 20.32,-38.16 2.16,-12.15 9.16,-36.5 8.45,-48.97 -16.88,0.64 -25.39,18.93 -33.95,35.73 -5.18,10.16 -18.94,39.62 -19.62,51.24z"/>
   <path class="fil5" d="M222.42 309.29c11.18,1.6 13.51,-1.6 19,-7.01 0.1,-0.1 2.79,-2.66 2.9,-2.75 0.36,-0.31 0.81,-0.66 1.15,-0.94 0.36,-0.3 0.93,-0.72 1.23,-0.96 0.3,-0.25 0.83,-0.66 1.26,-0.97l-2.49 15.18 12.73 -1.55c3.17,-17.36 10.06,-42.26 10.08,-60.37 -20.35,0.32 -14.96,17.89 -31.5,41.46 -1.4,-15.15 7.43,-28.87 11.07,-40.89 -14.13,-4.38 -16.72,9.78 -20.31,20.09 -3.55,10.21 -6.29,26.84 -5.12,38.71z"/>
   <path class="fil5" d="M195.74 297.68c-0.5,-15.15 1.18,-30.76 12.54,-40.43 3.05,5.48 4.05,5.1 3.5,11.47 -0.67,7.57 -8.59,21.2 -13.9,27.01l-2.14 1.95zm8.09 5.46l2 7.34 11.72 -2.21c1.98,-15.89 4.66,-27.64 7.84,-41.72 1.51,-6.71 0.78,-13.94 -6.18,-17.25 -6.04,-2.87 -12.81,0.59 -18.03,3.81 -25.95,16.03 -25.56,75.26 2.65,50.03z"/>
   <path class="fil1" d="M195.74 297.68l2.14 -1.95c5.31,-5.81 13.23,-19.44 13.9,-27.01 0.55,-6.37 -0.45,-5.99 -3.5,-11.47 -11.36,9.67 -13.04,25.28 -12.54,40.43z"/>
   <path class="fil5" d="M244.31 235.64c1.88,2.38 3.28,3.61 4.65,4.98l12.09 -2.18c-1.2,-5.54 -0.96,-7.57 -7.18,-7.82 -5.95,-0.23 -7.55,2.18 -9.56,5.02z"/>
   <circle class="fil6" cx="361.5" cy="244.5" r="15.5"/>
   <circle class="fil6" cx="361.5" cy="294.5" r="15.5"/>
  </g>
 </g>
</svg>
