<?xml version="1.0" encoding="UTF-8"?>
<!DOCTYPE svg PUBLIC "-//W3C//DTD SVG 1.1//EN" "http://www.w3.org/Graphics/SVG/1.1/DTD/svg11.dtd">
<!-- Creator: CorelDRAW 2017 -->
<svg xmlns="http://www.w3.org/2000/svg" xml:space="preserve" width="500px" height="500px" version="1.1" style="shape-rendering:geometricPrecision; text-rendering:geometricPrecision; image-rendering:optimizeQuality; fill-rule:evenodd; clip-rule:evenodd"
viewBox="0 0 500 500"
 xmlns:xlink="http://www.w3.org/1999/xlink">
 <defs>
  <style type="text/css">
   <![CDATA[
    .str0 {stroke:#C2C2C2;stroke-width:25;stroke-miterlimit:22.9256}
    .fil5 {fill:#1DCC00}
    .fil6 {fill:#32A7FF}
    .fil3 {fill:#C2C2C2}
    .fil4 {fill:#D4D4D4}
    .fil1 {fill:#FF4F37}
    .fil2 {fill:#FFD100}
    .fil0 {fill:white}
   ]]>
  </style>
 </defs>
 <g id="Слой_x0020_1">
  <metadata id="CorelCorpID_0Corel-Layer"/>
  <circle class="fil0 str0" cx="250" cy="250" r="226.5"/>
  <path class="fil1" d="M253.16 251.53l104.41 -0.23c1.78,-31.94 3.6,-57.8 1.52,-90.3 -4.78,-1.53 -28.98,-2.74 -56.29,-11.04 -16.39,-4.98 -34.78,-11.87 -49.04,-18.64l-0.6 120.21z"/>
  <path class="fil2" d="M140.61 160.9c-2.46,31.72 -0.07,59.33 1.62,90.28l104.24 0.02 -0.02 -119.95c-23.18,9.99 -49.99,20.46 -75.69,25.62 -9.99,2.01 -20.42,2.18 -30.15,4.03z"/>
  <path class="fil3" d="M250.37 112.24c0,0 43.59,17.56 56.92,21.84 20.52,6.57 42.13,11.2 65.5,12.35 4.9,11.45 2.52,78.3 1.27,94.15 -3.39,42.94 -10.57,77.44 -37.33,108.6 -3.89,4.52 -8.64,8.9 -12.59,12.56 -17.33,16.08 -50.05,39.62 -74.37,46.65l0.83 23.11c11.2,-3.68 34.79,-16.48 45.82,-23.2l33.22 -23.94c33.53,-31.11 47.82,-52.6 57.91,-97.54 1.89,-8.41 2.75,-15.66 4.27,-24.32 1.48,-8.51 1.4,-16.58 2.17,-26.4 1.36,-17.34 2.85,-35.23 2.26,-54.97l-3.46 -53.69c-36.37,0 -93.2,-17.59 -126.5,-32.39 -5.41,-2.41 -10.87,-4.77 -16.29,-6.55 -0.02,0.01 0.37,23.74 0.37,23.74z"/>
  <path class="fil4" d="M250.6 431.5l-0.83 -23.11c-17.64,-5.1 -49.17,-26.08 -61.44,-35.34 -7.18,-5.43 -12.65,-11.31 -18.97,-17.64 -50.16,-50.31 -48.7,-137.68 -43.05,-209.79 34.23,-1.19 64.77,-10.57 95.52,-22.25 7.09,-2.69 29,-11.36 29.17,-11.37 0,0 -0.45,-23.41 -0.42,-23.41 -5.66,1.01 -24.88,9.91 -32.51,12.74 -15.94,5.9 -43.33,15.41 -60.86,19.15 -4.09,0.87 -5.51,1.57 -9.17,2.26 -11.95,2.25 -27.56,4.7 -41.02,4.7l-1.46 25.98c-2.93,21.47 -2.28,59.5 0.14,81.64 1.99,18.11 1.02,28.48 6.11,49.91 7.09,29.86 14.44,52.61 36.08,77.08 9.08,10.27 18.59,19 29.19,27.96 7.03,5.95 26.57,18.52 34.31,22.85 8.52,4.77 29.84,16.95 39.21,18.64z"/>
  <path class="fil5" d="M246.42 390.39l0.09 -132.3 -102.83 0.07c-0.63,12.14 6.21,37.14 10.48,47.29 6.48,15.46 14.01,26.61 22.94,36.51 9.64,10.67 17.69,17.72 31.02,27.3 7.44,5.34 28.32,17.81 38.3,21.13z"/>
  <path class="fil6" d="M253.23 390.2c24.14,-7.76 51.59,-29.4 69.3,-48.42 8.84,-9.49 16.79,-20.85 22.72,-35.59 4.4,-10.95 11.14,-35.68 10.85,-48.15l-102.51 0.05 -0.36 132.11z"/>
 </g>
</svg>
