<?xml version="1.0" encoding="UTF-8"?>
<!DOCTYPE svg PUBLIC "-//W3C//DTD SVG 1.1//EN" "http://www.w3.org/Graphics/SVG/1.1/DTD/svg11.dtd">
<!-- Creator: CorelDRAW 2017 -->
<svg xmlns="http://www.w3.org/2000/svg" xml:space="preserve" width="500px" height="500px" version="1.1" style="shape-rendering:geometricPrecision; text-rendering:geometricPrecision; image-rendering:optimizeQuality; fill-rule:evenodd; clip-rule:evenodd"
viewBox="0 0 500 500"
 xmlns:xlink="http://www.w3.org/1999/xlink">
 <defs>
  <style type="text/css">
   <![CDATA[
    .str0 {stroke:black;stroke-width:25;stroke-miterlimit:22.9256}
    .fil1 {fill:black}
    .fil0 {fill:white}
    .fil2 {fill:black;fill-rule:nonzero}
   ]]>
  </style>
 </defs>
 <g id="Слой_x0020_1">
  <metadata id="CorelCorpID_0Corel-Layer"/>
  <circle class="fil0 str0" cx="250" cy="250" r="229.25"/>
  <path class="fil1" d="M208.01 132.04l0.05 195.2c4.23,-1.14 55.53,-31.6 63.73,-36.33l61.96 -36.42c0.12,-0.44 0.43,-0.48 0.36,-0.31l-72 -41.33 0.05 18.49c0.03,9.38 0.12,7.08 2.19,8.57 1.26,-2.29 8.65,-6.38 11.4,-5.77l36.08 21.1c-1.87,2.24 -85.76,51.18 -92.38,53.61l0.31 -169.64 199.24 114.64c-2.84,3.67 -27.49,17 -31.4,19.24 -10.61,6.09 -20.84,12.2 -31.68,18.3l-126.7 73.22c-10.64,6.32 -20.73,12.08 -31.64,18.34 -9.13,5.24 -22.59,13.98 -31.98,18.05l0.2 -292.92 42.21 23.96z"/>
  <path class="fil2" d="M247.53 391.22l0 -28.22 3.46 0 0 28.22 -3.46 0zm8.83 -24.28l0 -3.94 3.47 0 0 3.94 -3.47 0zm0 24.28l0 -20.46 3.47 0 0 20.46 -3.47 0zm8.12 1.7l3.35 0.47c0.14,1.04 0.53,1.79 1.18,2.27 0.86,0.64 2.03,0.96 3.53,0.96 1.6,0 2.84,-0.32 3.71,-0.96 0.88,-0.63 1.47,-1.53 1.78,-2.68 0.18,-0.71 0.26,-2.19 0.25,-4.44 -1.52,1.79 -3.41,2.68 -5.67,2.68 -2.81,0 -4.99,-1.01 -6.53,-3.04 -1.54,-2.02 -2.31,-4.45 -2.31,-7.29 0,-1.95 0.36,-3.75 1.06,-5.4 0.7,-1.64 1.73,-2.91 3.07,-3.81 1.34,-0.9 2.91,-1.35 4.73,-1.35 2.41,0 4.4,0.99 5.96,2.96l0 -2.53 3.2 0 0 17.67c0,3.19 -0.33,5.44 -0.98,6.77 -0.64,1.32 -1.67,2.37 -3.07,3.14 -1.41,0.77 -3.14,1.16 -5.18,1.16 -2.44,0 -4.41,-0.55 -5.9,-1.64 -1.51,-1.09 -2.23,-2.74 -2.18,-4.94zm2.84 -12.27c0,2.67 0.53,4.62 1.6,5.85 1.07,1.23 2.4,1.85 4,1.85 1.6,0 2.93,-0.62 4.02,-1.84 1.07,-1.22 1.61,-3.14 1.61,-5.75 0,-2.5 -0.55,-4.38 -1.67,-5.65 -1.1,-1.27 -2.45,-1.9 -4.01,-1.9 -1.54,0 -2.85,0.62 -3.93,1.87 -1.08,1.25 -1.62,3.1 -1.62,5.57zm19.72 10.57l0 -28.22 3.47 0 0 10.16c1.61,-1.89 3.64,-2.83 6.1,-2.83 1.5,0 2.81,0.3 3.92,0.89 1.12,0.6 1.91,1.42 2.39,2.47 0.48,1.06 0.72,2.59 0.72,4.58l0 12.95 -3.47 0 0 -12.93c0,-1.73 -0.38,-2.99 -1.12,-3.78 -0.75,-0.79 -1.8,-1.18 -3.17,-1.18 -1.01,0 -1.97,0.26 -2.87,0.79 -0.9,0.53 -1.54,1.26 -1.93,2.17 -0.38,0.91 -0.57,2.16 -0.57,3.76l0 11.17 -3.47 0zm29.45 -3.09l0.48 3.06c-0.98,0.2 -1.85,0.31 -2.61,0.31 -1.26,0 -2.23,-0.2 -2.93,-0.6 -0.69,-0.4 -1.17,-0.92 -1.45,-1.57 -0.29,-0.65 -0.43,-2.02 -0.43,-4.1l0 -11.78 -2.56 0 0 -2.69 2.56 0 0 -5.05 3.47 -2.09 0 7.14 3.47 0 0 2.69 -3.47 0 0 11.98c0,0.99 0.06,1.63 0.19,1.91 0.12,0.28 0.31,0.5 0.59,0.68 0.27,0.16 0.67,0.25 1.18,0.25 0.38,0 0.89,-0.05 1.51,-0.14zm7.68 -11.06l-4.89 -0.87c0.56,-1.99 1.51,-3.47 2.86,-4.43 1.34,-0.96 3.35,-1.44 6,-1.44 2.41,0 4.21,0.28 5.39,0.86 1.18,0.57 2.01,1.29 2.49,2.17 0.48,0.88 0.73,2.49 0.73,4.84l-0.08 6.31c0,1.79 0.08,3.12 0.25,3.97 0.17,0.86 0.5,1.77 0.97,2.74l-5.36 0c-0.14,-0.35 -0.32,-0.88 -0.52,-1.57 -0.09,-0.33 -0.15,-0.54 -0.19,-0.64 -0.92,0.91 -1.91,1.59 -2.96,2.04 -1.05,0.45 -2.16,0.68 -3.35,0.68 -2.1,0 -3.76,-0.57 -4.96,-1.71 -1.21,-1.14 -1.82,-2.58 -1.82,-4.33 0,-1.15 0.28,-2.18 0.83,-3.09 0.55,-0.9 1.32,-1.59 2.32,-2.07 0.99,-0.48 2.42,-0.9 4.3,-1.26 2.52,-0.48 4.27,-0.92 5.24,-1.33l0 -0.55c0,-1.05 -0.25,-1.8 -0.76,-2.25 -0.52,-0.45 -1.5,-0.67 -2.92,-0.67 -0.97,0 -1.71,0.19 -2.25,0.58 -0.55,0.38 -0.98,1.06 -1.32,2.02zm7.25 4.38c-0.69,0.23 -1.78,0.5 -3.29,0.82 -1.49,0.33 -2.48,0.64 -2.94,0.94 -0.7,0.51 -1.06,1.14 -1.06,1.91 0,0.76 0.29,1.41 0.85,1.96 0.57,0.56 1.28,0.83 2.15,0.83 0.98,0 1.91,-0.32 2.8,-0.96 0.65,-0.49 1.08,-1.08 1.28,-1.79 0.14,-0.46 0.21,-1.34 0.21,-2.64l0 -1.07zm10.65 9.77l0 -28.22 5.4 0 0 28.22 -5.4 0zm10.96 0l0 -28.22 5.4 0 0 28.22 -5.4 0zm9.69 -10.48c0,-1.8 0.44,-3.54 1.32,-5.22 0.89,-1.69 2.15,-2.97 3.77,-3.86 1.62,-0.88 3.43,-1.33 5.43,-1.33 3.09,0 5.62,1.01 7.6,3.02 1.98,2.01 2.96,4.55 2.96,7.62 0,3.1 -0.99,5.67 -2.99,7.71 -1.99,2.04 -4.5,3.05 -7.53,3.05 -1.87,0 -3.66,-0.42 -5.36,-1.27 -1.7,-0.85 -2.99,-2.09 -3.88,-3.73 -0.88,-1.64 -1.32,-3.63 -1.32,-5.99zm5.55 0.29c0,2.03 0.48,3.59 1.44,4.67 0.97,1.08 2.15,1.62 3.56,1.62 1.41,0 2.59,-0.54 3.54,-1.62 0.96,-1.08 1.44,-2.65 1.44,-4.71 0,-2 -0.48,-3.54 -1.44,-4.62 -0.95,-1.09 -2.13,-1.62 -3.54,-1.62 -1.41,0 -2.59,0.53 -3.56,1.62 -0.96,1.08 -1.44,2.63 -1.44,4.66zm17.18 -10.27l5.76 0 4.9 14.52 4.79 -14.52 5.6 0 -7.21 19.69 -1.3 3.56c-0.48,1.19 -0.94,2.09 -1.37,2.72 -0.43,0.63 -0.92,1.14 -1.48,1.53 -0.56,0.39 -1.25,0.69 -2.07,0.91 -0.82,0.22 -1.74,0.33 -2.78,0.33 -1.03,0 -2.06,-0.11 -3.06,-0.33l-0.48 -4.22c0.85,0.17 1.62,0.25 2.3,0.25 1.26,0 2.2,-0.36 2.8,-1.11 0.61,-0.74 1.07,-1.69 1.39,-2.83l-7.79 -20.5z"/>
 </g>
</svg>
