<?xml version="1.0" encoding="UTF-8"?>
<!DOCTYPE svg PUBLIC "-//W3C//DTD SVG 1.1//EN" "http://www.w3.org/Graphics/SVG/1.1/DTD/svg11.dtd">
<!-- Creator: CorelDRAW X7 -->
<svg xmlns="http://www.w3.org/2000/svg" xml:space="preserve" width="100px" height="100px" version="1.1" style="shape-rendering:geometricPrecision; text-rendering:geometricPrecision; image-rendering:optimizeQuality; fill-rule:evenodd; clip-rule:evenodd"
viewBox="0 0 100 100"
 xmlns:xlink="http://www.w3.org/1999/xlink">
 <defs>
  <style type="text/css">
   <![CDATA[
    .fil0 {fill:black;fill-rule:nonzero}
   ]]>
  </style>
 </defs>
 <g id="Слой_x0020_1">
  <metadata id="CorelCorpID_0Corel-Layer"/>
  <path class="fil0" d="M74 64c0,5 -1,10 -4,12 -3,3 -7,4 -13,4 -3,0 -7,0 -11,0 -3,0 -7,0 -10,-1 -4,0 -7,0 -11,0l0 -11c4,0 7,0 10,0 3,0 6,0 10,0 3,0 6,0 9,0 1,0 2,-1 3,-2 1,0 1,-1 1,-3l0 -3c0,-3 -1,-5 -5,-5l-18 0 0 -12 16 0c4,0 6,-2 6,-5l0 -2c0,-4 -2,-5 -6,-5l-25 0 0 -13 30 0c5,0 10,2 12,4 3,3 4,7 4,12 0,4 0,6 -2,9 -2,2 -4,3 -6,4 1,1 2,1 3,2 2,1 3,2 4,3 1,1 2,3 2,5 1,1 1,4 1,6l0 1z"/>
 </g>
</svg>
