<?xml version="1.0" encoding="UTF-8"?>
<!DOCTYPE svg PUBLIC "-//W3C//DTD SVG 1.1//EN" "http://www.w3.org/Graphics/SVG/1.1/DTD/svg11.dtd">
<!-- Creator: CorelDRAW 2017 -->
<svg xmlns="http://www.w3.org/2000/svg" xml:space="preserve" width="500px" height="500px" version="1.1" style="shape-rendering:geometricPrecision; text-rendering:geometricPrecision; image-rendering:optimizeQuality; fill-rule:evenodd; clip-rule:evenodd"
viewBox="0 0 500 500"
 xmlns:xlink="http://www.w3.org/1999/xlink">
 <defs>
  <style type="text/css">
   <![CDATA[
    .str0 {stroke:#00BD00;stroke-width:20;stroke-miterlimit:22.9256}
    .fil1 {fill:#00BD00}
    .fil0 {fill:#EDEDED}
   ]]>
  </style>
 </defs>
 <g id="Слой_x0020_1">
  <metadata id="CorelCorpID_0Corel-Layer"/>
  <circle class="fil0 str0" cx="250" cy="250" r="231.1"/>
 </g>
 <g id="Слой_x0020_1_0">
  <metadata id="CorelCorpID_1Corel-Layer"/>
  <g id="_2512091356592">
   <path class="fil1" d="M165.85 249.17c0,21.17 8.43,44.36 22.98,58.3 1.99,1.9 2.97,2.31 5,4.12 12.04,10.75 34.05,19.7 49.98,19.7 8.96,0 15.91,0.5 24.56,-2 4.94,-1.42 20.64,-9.79 23.26,5.64 2.77,16.4 -27.81,19.58 -40.35,19.58 -15.24,0 -32.13,-3.64 -43.38,-8.04 -17.73,-6.94 -33.52,-18.05 -44.79,-33.19 -29.67,-39.83 -27.25,-97.38 6.25,-133.59l13.66 -12.05c2.74,-2.04 5.02,-3.57 7.87,-5.4 12.71,-8.16 34.43,-16.31 49.61,-16.75 5.1,-0.15 7.51,-1.14 12.42,-0.85 23.69,1.37 42,6.99 60.08,18.75 2.8,1.82 5.24,3.49 7.7,5.58 24.11,20.51 37.58,47.95 37.58,81.86 0,18.42 -4.46,35.18 -10.77,47.29 -8.3,15.9 -24.18,33.61 -43.73,23.8 -12.92,-6.49 -13.34,-14.16 -14.35,-26.3 -1.63,1.09 -2.76,1.73 -4.34,3.13 -22.45,19.94 -58.06,18.84 -80.05,-3.34 -51.63,-52.05 9.01,-128.7 66.44,-101.27 10.44,4.99 14.18,10.28 17.12,11.07 2.17,-9.28 17.58,-10.49 20.29,-1.21 1.55,5.34 -0.14,74.28 0.42,88.33 0.67,16.96 18.79,8.73 24.58,-31.88 2.59,-18.13 -1.04,-35.72 -7.4,-48.34 -12.41,-24.64 -45.38,-44.23 -72.72,-44.23 -28.56,0 -44.83,4.68 -64.92,24.67 -3.34,3.32 -6.08,7.19 -8.74,11.16 -2.9,4.35 -4.68,7.86 -7.09,12.82 -3.64,7.49 -7.17,21.84 -7.17,32.64zm-60.55 -1.66c0,33.72 9.29,62.56 28.31,87.81 0.77,1.03 7.35,9.15 7.35,9.24 0,7.76 -9.7,21.59 -14.08,27.39 -5.98,7.9 -14.15,14.25 -21.58,20.72 10.53,0.87 8.52,1.65 22.39,1.65 11.56,0 23.04,-2.18 32.69,-4.63 5.07,-1.29 9.33,-2.5 14.08,-4.17 17.9,-6.27 8.38,-7.42 26.22,-0.31 33.33,13.29 79.97,10.27 111.42,-5.54 4.28,-2.15 7.66,-3.79 11.39,-6.03 6.26,-3.78 15.34,-9.55 20.49,-14.35 6.2,-5.78 12.4,-11.28 17.62,-18.04 27.97,-36.22 39.31,-76.46 29.8,-122.71 -4.41,-21.42 -16.98,-48.54 -32.07,-64.15 -1.73,-1.79 -2.93,-2.75 -4.49,-4.64 -2.74,-3.33 -5.63,-5.58 -8.78,-8.63 -19.28,-18.69 -59.42,-35.44 -88.15,-35.44 -21.05,0 -38.5,0.66 -58.42,8.76 -4.57,1.86 -8.25,3.57 -12.21,5.21 -3.44,1.42 -8.14,4.15 -11.33,6.08 -6.7,4.06 -14.59,9.17 -20.27,14.58 -7.09,6.76 -9.94,8.34 -17.33,17.5 -9.65,11.93 -12.95,18.08 -20.07,32.19 -7.04,13.96 -12.98,36.79 -12.98,57.51z"/>
   <path class="fil1" d="M208.15 249.17c0,9.14 -0.06,12.69 3.41,21.47 1.19,3.02 5.57,9.71 7.98,11.93 12.19,11.21 29.8,13.18 45.02,6.42 2.17,-0.97 4.29,-2.12 6.3,-3.65l5.22 -4.73c15.45,-16.04 15.32,-43.03 1.55,-57.79 -23.6,-25.28 -69.48,-12.32 -69.48,26.35z"/>
  </g>
 </g>
</svg>
