<?xml version="1.0" encoding="UTF-8"?>
<!DOCTYPE svg PUBLIC "-//W3C//DTD SVG 1.1//EN" "http://www.w3.org/Graphics/SVG/1.1/DTD/svg11.dtd">
<!-- Creator: CorelDRAW 2017 -->
<svg xmlns="http://www.w3.org/2000/svg" xml:space="preserve" width="500px" height="500px" version="1.1" style="shape-rendering:geometricPrecision; text-rendering:geometricPrecision; image-rendering:optimizeQuality; fill-rule:evenodd; clip-rule:evenodd"
viewBox="0 0 500 500"
 xmlns:xlink="http://www.w3.org/1999/xlink">
 <defs>
  <style type="text/css">
   <![CDATA[
    .fil1 {fill:#009FF0}
    .fil0 {fill:#E8E8E8}
   ]]>
  </style>
 </defs>
 <g id="Слой_x0020_1">
  <metadata id="CorelCorpID_0Corel-Layer"/>
  <g id="_1918116993136">
   <path class="fil0" d="M22 233.76c0,46.35 -0.2,72.18 21.14,115.48 23.01,46.69 58.34,83.06 105.19,106.45 60.64,30.28 141.37,30.8 202.07,0.65 69.99,-34.76 127.6,-111.75 127.6,-189.87 0,-46.35 0.2,-72.18 -21.14,-115.47 -23.01,-46.69 -58.34,-83.07 -105.18,-106.46 -86.88,-43.38 -196.13,-24.35 -263.78,43.48 -35.13,35.22 -65.9,92.07 -65.9,145.74z"/>
   <path class="fil1" d="M234.79 49.72c-113.91,12.86 -192.45,106.1 -182.97,216.55 9.24,107.58 98.63,190.26 216.52,183.68 104.51,-5.84 192.98,-103.26 182.78,-218.2 -5.28,-59.54 -36.41,-107.17 -67.09,-133.02 -33.72,-28.42 -87.68,-55.96 -149.24,-49.01z"/>
   <path class="fil0" d="M230.76 89.17c-92.59,13.8 -152.46,95.21 -139.92,183.41 11.54,81.19 88.03,152.2 183.56,138.56 81.99,-11.71 152.51,-87.93 138.95,-183.67 -11.31,-79.86 -87.77,-152.43 -182.59,-138.3z"/>
   <path class="fil1" d="M145.91 179.89l0.01 136.61c-0.02,12.85 -8.64,16.39 43.47,13.86l8.77 -0.85c2.24,-14.77 1.06,-66.61 0.85,-86.14 -0.27,-27.01 -13.03,-20.52 96.21,-20.52 7.79,0 9.52,0.92 9.53,8.99l0.01 88.5c-0.01,13.64 -1.37,10.02 44.33,10.02 12.11,0 8.91,1.89 8.9,-31.18l-0.02 -73.12c-0.01,-34.72 -24.66,-56.33 -58.91,-56.33l-144.3 0c-10.23,0 -8.84,-0.52 -8.85,10.16z"/>
   <path class="fil1" d="M225.11 260.7c0,20.01 -1.11,49.93 1.06,68.74 13.63,1.85 36.39,1.31 50.58,0.13 3.17,-19.19 1.34,-48.45 1.31,-68.87 -0.02,-11.86 0.87,-9.32 -25.17,-9.28 -27.56,0.05 -27.78,-3.48 -27.78,9.28z"/>
  </g>
 </g>
</svg>
