<?xml version="1.0" encoding="UTF-8"?>
<!DOCTYPE svg PUBLIC "-//W3C//DTD SVG 1.1//EN" "http://www.w3.org/Graphics/SVG/1.1/DTD/svg11.dtd">
<!-- Creator: CorelDRAW 2017 -->
<svg xmlns="http://www.w3.org/2000/svg" xml:space="preserve" width="500px" height="500px" version="1.1" style="shape-rendering:geometricPrecision; text-rendering:geometricPrecision; image-rendering:optimizeQuality; fill-rule:evenodd; clip-rule:evenodd"
viewBox="0 0 500 500"
 xmlns:xlink="http://www.w3.org/1999/xlink">
 <defs>
  <style type="text/css">
   <![CDATA[
    .str0 {stroke:#D0550E;stroke-width:16;stroke-miterlimit:22.9256}
    .fil3 {fill:#211F1E}
    .fil2 {fill:#D0550E}
    .fil1 {fill:#FEFEFE}
    .fil0 {fill:white}
   ]]>
  </style>
 </defs>
 <g id="Слой_x0020_1">
  <metadata id="CorelCorpID_0Corel-Layer"/>
  <circle class="fil0 str0" cx="250" cy="250" r="239.39"/>
 </g>
 <g id="Слой_x0020_1_0">
  <metadata id="CorelCorpID_1Corel-Layer"/>
  <g id="_2960962797408">
   <path class="fil1" d="M160.81 385.21c-1.36,-1.81 -1.01,-1.25 -2.88,-3.98 -0.73,-1.67 -21.06,-33.14 -21.45,-33.45 -1.6,-1.27 -43.36,-5.14 -49.29,-5.81 -5.86,-0.66 -6.69,-0.12 -11.01,-2.92 -2.94,-1.9 -5.55,-3.4 -7.62,-5.91 -4.17,-5.04 -5.62,-13.1 -6.32,-21.2 -1.5,-17.32 -1.61,-35.75 -1.91,-53.28 -0.31,-18.16 -0.47,-36.41 -0.23,-54.61 0.09,-7.18 0.13,-19.16 1.9,-25.57 2.13,-7.72 12.16,-16.37 17.42,-17.13l78.01 -11.04c2.81,-0.31 9.79,0.58 11.78,1.81 0.96,2.15 0.53,19.97 0.57,23.96 0.04,4.12 0.63,7.89 -1.16,11.17 -6.79,12.47 -13.38,27.01 -20.37,39.42l-10.33 -0.48c-1.67,-2.66 -20.53,-32.8 -21.39,-35.07l-18.17 1.74c-1.05,0.66 -0.79,0.07 -0.71,2.11l1.53 114.54c2.35,0.84 14.23,1.23 17.48,1.33l-0.82 -70.26 10.15 0.22c0.94,0.4 15.33,25.84 17.48,28.42 0.08,-0.07 0.19,-0.17 0.23,-0.23 1.39,-1.52 7.44,-13.57 8.35,-15.32 2.58,-4.99 5.97,-10.46 8.09,-15.55l10.23 0.18c0.71,4.54 0.32,12.79 0.38,17.72 0.15,13.27 0.98,121.96 1.77,126.42 -11.71,2.77 -10.37,2.42 -11.71,2.77z"/>
   <path class="fil2" d="M97.59 193.38l18.94 -2.26c0.86,2.27 19.72,32.41 21.39,35.07l10.33 0.48c6.98,-12.41 13.58,-26.95 20.37,-39.42 1.79,-3.28 1.2,-7.05 1.16,-11.17 -0.04,-3.99 0.39,-21.81 -0.57,-23.96 -1.99,-1.23 -8.97,-2.12 -11.78,-1.81l-78.01 11.04c-5.26,0.76 -15.29,9.41 -17.42,17.13 -1.78,6.41 -1.81,18.39 -1.9,25.57 -0.24,18.2 -0.08,36.45 0.23,54.61 0.3,17.53 0.41,35.96 1.91,53.28 0.7,8.1 2.15,16.16 6.32,21.2 2.07,2.51 4.68,4.01 7.62,5.91 4.32,2.8 5.15,2.26 11.01,2.92 5.93,0.67 47.69,4.53 49.29,5.81 0.39,0.31 20.72,31.78 21.45,33.45 3.2,3.21 -0.4,5.66 14.59,1.21 -0.79,-4.46 -1.62,-113.15 -1.77,-126.42 -0.06,-4.93 0.33,-13.18 -0.38,-17.71l-10.23 -0.19c-2.12,5.09 -5.51,10.56 -8.09,15.55 -0.91,1.75 -6.96,13.8 -8.35,15.32 -0.04,0.06 -0.15,0.16 -0.23,0.23 -2.15,-2.58 -16.54,-28.02 -17.48,-28.42l-10.15 -0.22 0.83 70.26c-3.26,-0.1 -15.14,-0.49 -17.49,-1.33l-1.59 -116.13z"/>
   <path class="fil3" d="M258.54 297.91c8.11,-1 15.06,-7.21 16.23,-15.43 1.23,-8.65 0.87,-17.94 -2.03,-25.52 -1.41,-3.68 -3.14,-6.6 -5.23,-9.2 -1.53,-1.91 -5.43,-5.39 -7.83,-6.58 -6.65,-3.29 -45.46,-1.23 -55.05,-0.89 -13.27,0.49 -15.79,-0.94 -19.76,9.09 -3.66,9.29 -1.77,42.9 -1.65,55.15 0.09,9.33 0.22,18.66 0.41,27.97 0.15,7.04 -0.2,16.72 8.27,20.59 10.67,4.86 36.12,6.93 49.55,7.98 6.83,0.54 18.85,-1.55 23.88,-4.57 2.63,-1.58 5.54,-4.76 7.25,-7.17 2.68,-3.76 3.21,-5.29 3.44,-10.77 0.3,-7.34 0.3,-20.51 -1.35,-27.16 -1.73,-6.96 -8.08,-12.85 -16.13,-13.49z"/>
   <path class="fil3" d="M305.89 146.39c-1.25,-3.29 -0.78,-4.52 -2.99,-7.41 -5.37,-7.03 -15.89,-7.78 -24.41,-6.57 -12.18,1.71 -18.22,0.74 -23.02,9.76 -1.53,2.88 -1.48,5.32 -2.55,8.05 -0.78,-6.47 -2.88,-8.81 -8.77,-10.14 -7.5,-1.69 -9.15,-1.08 -16.68,-0.08l-40.8 5.88c-3.79,0.63 -4.72,0.47 -5.22,4.42 -0.59,4.59 0.39,48.84 0.43,55.99 5.05,0.25 8.26,0.36 13.37,0.08 -0.08,-8.9 -1.09,-48.13 -0.26,-53.6 1.9,-0.77 11.66,-2.53 13.72,-1.79l0.61 53.16c2.19,0.83 11.1,1.2 13.49,-0.09l-0.63 -55.31c3.11,-0.66 14.27,-2.23 16.97,-1.99 2.43,3.96 1.57,47.03 1.9,55.4 5.03,0.79 8.07,0.49 13.02,0.23l-0.11 -12.42c1.73,2.26 3.5,6.28 7.83,8.48 8.07,4.09 35.41,0.99 44.8,0.09l0.09 -10.83c-9.39,-2.31 -29.49,1.72 -34.33,1.38 -6.26,-0.43 -4.39,-10.17 -4.49,-18.36 7.02,-0.59 14.27,-1.47 21.33,-2.22 6.08,-0.65 9.43,-0.29 13.58,-4.37 1.22,-1.21 1.62,-2.16 2.67,-3.24 1.63,12.46 -5.04,35.53 26.77,34.93 5.83,-0.11 14.25,-1.4 19.55,-0.97 -1.74,11.31 -8.79,9.5 -17.11,9.96 -8.54,0.49 -17.12,1.15 -25.7,1.49l0.01 10.91c9.51,0.47 18.75,-0.17 28.32,-0.68 8.74,-0.47 17.76,0.66 23.79,-6.33 5.38,-6.22 6.31,-13.7 6.25,-24.07 -0.05,-9.64 0.37,-52.53 -1.65,-58.8 -0.71,-2.21 -1.34,-3.14 -3.45,-3.98 -7.99,-3.18 -9.36,-1.94 -19.47,-0.49 -6.64,0.96 -20.08,2.3 -25.54,4.59 -3.81,1.6 -5.65,4.13 -7.67,7.19 -2.88,4.36 -2.7,6.19 -3.65,11.75z"/>
   <path class="fil3" d="M307.58 241.46c-0.71,2.65 -0.08,16.3 -0.05,20.11 3.43,0.89 35.91,-0.19 43.86,0.28l1.04 112.46c4.83,0.85 10.33,1.23 15.23,1.8 7.14,0.82 7.68,-1.19 13.59,-2.83l-1 -111.47c12.59,-0.58 41.92,0.79 51.01,-0.6l-0.19 -21.88c-4.57,-1.48 -52.9,0.49 -61.73,0.7 -20.54,0.49 -41.19,0.77 -61.76,1.43z"/>
   <path class="fil3" d="M280.5 366.29c4.62,0.59 9.15,1.05 13.71,1.58 5.23,0.61 8.63,-1.72 13.34,-2.53l-1.29 -124.42c-6.97,-0.98 -19.66,-0.17 -27.07,0.1 -0.42,1.66 0.64,122.34 1.31,125.27z"/>
   <path class="fil3" d="M371.04 119.3l0.05 8.65c5.29,1.45 5.15,0.99 10.69,0.23 5.55,-0.76 31.62,-4.85 33.35,-3.65 0.65,0.55 0.53,0.08 0.91,1.39 0.51,1.79 0.46,13.82 0.3,15.02 -24.15,3.94 -47.11,-0.98 -46.97,27.28 0.06,12.44 2.73,20.85 14.28,22.82 6.43,1.1 27.52,-0.81 34.44,-2.04 12.71,-2.25 10.66,-13.55 10.48,-26.02 -0.16,-11.61 0.38,-25.39 -0.7,-36.7 -0.56,-5.93 -3.57,-8.07 -8.19,-10.15 -6.47,-2.93 -8.68,-2.45 -16.05,-1.4 -10.6,1.51 -22.03,3.57 -32.59,4.57z"/>
   <path class="fil1" d="M351.72 182.06l-0.35 -49.37c-2.83,-0.04 -22.98,2.64 -25.02,3.46 -6.75,2.73 -5.6,15.32 -5.63,23.33 -0.02,4.66 0.01,9.34 0.18,13.99 0.48,13.51 7.31,10.65 17.63,9.77 4.1,-0.36 9.32,-0.46 13.19,-1.18z"/>
   <path class="fil1" d="M210.89 264.34l0.22 22.67c7.06,0.29 14.19,0.4 21.16,0.62 9.72,0.31 11.72,1.17 12.78,-8.98 2.57,-24.47 -8.23,-19.99 -29.93,-20.03 -5.04,0 -4.22,0.43 -4.23,5.72z"/>
   <path class="fil1" d="M211.75 333.09c3.86,1.48 28.97,3.91 33.95,3.47 1.09,-2.87 0.39,-11.92 0.11,-15.42 -0.43,-5.56 -0.54,-9.08 -4.36,-11.92 -3.16,-2.35 -8.08,-1.81 -14.12,-2.09 -5.23,-0.24 -10.59,-0.62 -15.83,-0.81l0.25 26.77z"/>
   <path class="fil1" d="M416.61 151.97c-7.78,0.7 -21.88,1.77 -28.84,3.67 -4.07,1.11 -6.18,4.65 -6.28,9.94 -0.09,4.87 -0.31,11.18 2.12,14.59 1.47,2.07 2.63,1.38 5.82,1.1l22.32 -2.04c5.49,-0.61 5.23,-0.33 5.08,-11.01 -0.08,-5.42 -0.16,-10.82 -0.22,-16.25z"/>
   <path class="fil1" d="M267.71 159.78c3.36,0.35 16.5,-1.62 20.74,-2.17 5.13,-0.68 4.48,-2.21 4.39,-7.31 -0.09,-4.94 -0.21,-6.3 -2.55,-9.12 -2.29,-0.23 -16.25,1.58 -18.17,2.35 -5.57,2.24 -4.47,11.73 -4.41,16.25z"/>
  </g>
 </g>
</svg>
