<?xml version="1.0" encoding="UTF-8"?>
<!DOCTYPE svg PUBLIC "-//W3C//DTD SVG 1.1//EN" "http://www.w3.org/Graphics/SVG/1.1/DTD/svg11.dtd">
<!-- Creator: CorelDRAW 2017 -->
<svg xmlns="http://www.w3.org/2000/svg" xml:space="preserve" width="500px" height="500px" version="1.1" style="shape-rendering:geometricPrecision; text-rendering:geometricPrecision; image-rendering:optimizeQuality; fill-rule:evenodd; clip-rule:evenodd"
viewBox="0 0 500 500"
 xmlns:xlink="http://www.w3.org/1999/xlink">
 <defs>
  <style type="text/css">
   <![CDATA[
    .fil0 {fill:#299C14}
    .fil2 {fill:white}
    .fil1 {fill:white;fill-rule:nonzero}
   ]]>
  </style>
 </defs>
 <g id="Слой_x0020_1">
  <metadata id="CorelCorpID_0Corel-Layer"/>
  <ellipse class="fil0" cx="250" cy="250" rx="221" ry="224"/>
  <path class="fil1" d="M119.05 345.93l-5.5 13.25c-0.7,1.75 -1.9,4.8 -2.3,6.1l-0.2 0c-0.4,-1.3 -1.6,-4.35 -2.3,-6.1l-5.5 -13.25 -7.15 0 0 35 6.9 0 0 -8.6c-0.15,-4.25 -0.35,-8.5 -0.5,-12.75l0.25 -0.1 3.15 9.2 1.75 4.75 7 0 1.75 -4.75 3.15 -9.2 0.25 0.1c-0.2,4.25 -0.35,8.5 -0.55,12.75l0 8.6 6.95 0 0 -35 -7.15 0z"/>
  <path id="1" class="fil1" d="M135.25 350.53c2.1,0 3.75,-1.75 3.75,-3.75 0,-2.15 -1.65,-3.75 -3.75,-3.75 -2.2,0 -3.75,1.6 -3.75,3.75 0,2.1 1.55,3.75 3.75,3.75zm-3.45 30.4l6.85 0 0 -26.5 -6.85 0 0 26.5z"/>
  <path id="2" class="fil1" d="M152.5 381.53c6.05,0 9.7,-3.7 9.85,-9.95l-6.85 0c-0.15,2.25 -1,3.45 -2.85,3.45 -1.75,0 -2.7,-1.2 -2.7,-3.45l0 -7.9c0,-2.25 0.95,-3.4 2.7,-3.4 1.7,0 2.55,1.15 2.65,3.4l6.85 0c-0.2,-6.2 -3.4,-9.9 -9.65,-9.9 -5.95,0 -9.45,3.7 -9.45,9.9l0 7.9c0,6.25 3.5,9.95 9.45,9.95z"/>
  <path id="3" class="fil1" d="M177.25 353.78c-3,0 -5.3,1.2 -6.7,3.45l-0.5 -2.8 -4.5 0 0 26.5 6.8 0 0 -16.65c0,-2.8 1.75,-4.1 4.6,-4.1 1.25,0 2.25,0.25 3.2,0.7l0 -6.5c-0.7,-0.4 -1.7,-0.6 -2.9,-0.6z"/>
  <path id="4" class="fil1" d="M192.25 381.58c6.2,0 9.85,-3.8 9.85,-10.55l0 -6.75c0,-6.75 -3.65,-10.5 -9.85,-10.5 -6.2,0 -9.85,3.75 -9.85,10.5l0 6.75c0,6.75 3.65,10.55 9.85,10.55zm0 -6.6c-1.9,0 -2.9,-1.2 -2.9,-3.95l0 -6.75c0,-2.75 1,-3.9 2.9,-3.9 1.9,0 2.9,1.15 2.9,3.9l0 6.75c0,2.75 -1,3.95 -2.9,3.95z"/>
  <path id="5" class="fil1" d="M215.2 381.68c5.95,0 9.4,-3.35 9.4,-8.35 0,-9.6 -12.5,-8.15 -12.5,-11.85 0,-1 0.95,-1.7 2.4,-1.7 1.95,0 2.65,1.1 2.8,2.8l6.55 0c-0.4,-5 -3,-8.8 -9.35,-8.8 -5.6,0 -9.15,2.85 -9.15,7.7 0,8.95 12.45,7.75 12.45,11.9 0,1.25 -1.05,2.1 -2.85,2.1 -2.5,0 -3.15,-1.7 -3.25,-3l-6.8 0c0.15,4.7 3.4,9.2 10.3,9.2z"/>
  <path id="6" class="fil1" d="M237.35 381.58c6.2,0 9.85,-3.8 9.85,-10.55l0 -6.75c0,-6.75 -3.65,-10.5 -9.85,-10.5 -6.2,0 -9.85,3.75 -9.85,10.5l0 6.75c0,6.75 3.65,10.55 9.85,10.55zm0 -6.6c-1.9,0 -2.9,-1.2 -2.9,-3.95l0 -6.75c0,-2.75 1,-3.9 2.9,-3.9 1.9,0 2.9,1.15 2.9,3.9l0 6.75c0,2.75 -1,3.95 -2.9,3.95z"/>
  <path id="7" class="fil1" d="M262.8 350.13l1.7 0 0 -6.15 -1.7 0c-7.25,0 -9.95,4.3 -9.95,9.8l0 0.65 -3.7 0 0 6.25 3.7 0 0 20.25 6.75 0 0 -20.25 4.45 0 0 -6.25 -4.45 0 0 -0.65c0,-2.6 0.8,-3.65 3.2,-3.65z"/>
  <path id="8" class="fil1" d="M278.25 374.93c-2.05,0 -3,-0.95 -3,-3.15l0 -11.2 4.35 0 0 -6.15 -4.35 0 0 -6.4 -6.75 0 0 6.4 -3.45 0 0 6.15 3.45 0 0 11.1c0,5.9 3.55,9.65 9.25,9.65l2.2 0 0 -6.4 -1.7 0z"/>
  <path id="9" class="fil1" d="M304.9 381.53c7.1,0 11.35,-4.45 11.35,-11.95l0 -12.3c0,-7.5 -4.25,-11.95 -11.35,-11.95 -7.1,0 -11.35,4.45 -11.35,11.95l0 12.3c0,7.5 4.25,11.95 11.35,11.95zm0 -6.9c-2.65,0 -4,-1.75 -4,-5.05l0 -12.3c0,-3.3 1.35,-5.05 4,-5.05 2.65,0 4,1.75 4,5.05l0 12.3c0,3.3 -1.35,5.05 -4,5.05z"/>
  <path id="10" class="fil1" d="M332.35 350.13l1.7 0 0 -6.15 -1.7 0c-7.25,0 -9.95,4.3 -9.95,9.8l0 0.65 -3.7 0 0 6.25 3.7 0 0 20.25 6.75 0 0 -20.25 4.45 0 0 -6.25 -4.45 0 0 -0.65c0,-2.6 0.8,-3.65 3.2,-3.65z"/>
  <path id="11" class="fil1" d="M348.25 350.13l1.7 0 0 -6.15 -1.7 0c-7.25,0 -9.95,4.3 -9.95,9.8l0 0.65 -3.7 0 0 6.25 3.7 0 0 20.25 6.75 0 0 -20.25 4.45 0 0 -6.25 -4.45 0 0 -0.65c0,-2.6 0.8,-3.65 3.2,-3.65z"/>
  <path id="12" class="fil1" d="M356.1 350.53c2.1,0 3.75,-1.75 3.75,-3.75 0,-2.15 -1.65,-3.75 -3.75,-3.75 -2.2,0 -3.75,1.6 -3.75,3.75 0,2.1 1.55,3.75 3.75,3.75zm-3.45 30.4l6.85 0 0 -26.5 -6.85 0 0 26.5z"/>
  <path id="13" class="fil1" d="M373.35 381.53c6.05,0 9.7,-3.7 9.85,-9.95l-6.85 0c-0.15,2.25 -1,3.45 -2.85,3.45 -1.75,0 -2.7,-1.2 -2.7,-3.45l0 -7.9c0,-2.25 0.95,-3.4 2.7,-3.4 1.7,0 2.55,1.15 2.65,3.4l6.85 0c-0.2,-6.2 -3.4,-9.9 -9.65,-9.9 -5.95,0 -9.45,3.7 -9.45,9.9l0 7.9c0,6.25 3.5,9.95 9.45,9.95z"/>
  <path id="14" class="fil1" d="M398.7 372.48c-0.45,1.8 -1.05,2.55 -3.1,2.55 -1.8,0 -2.75,-1.2 -2.75,-3.95l0 -1.1 12.4 0 0 -5.95c0,-6.45 -3.6,-10.25 -9.7,-10.25 -6,0 -9.55,3.8 -9.55,10.25l0 7.05c0,6.55 3.55,10.45 9.5,10.45 5.9,0 9.55,-3.35 10.1,-9.05l-6.9 0zm-3.1 -12.4c1.9,0 2.9,1.15 2.9,3.85l0 1.4 -5.65 0 0 -1.4c0,-2.7 0.95,-3.85 2.75,-3.85z"/>
  <path id="15" class="fil1" d="M169.68 440.93l19.4 0 0 -6.3 -12.26 0c0,-5.3 12.11,-11.25 12.11,-20.2 0,-4.4 -2.96,-9.1 -9.61,-9.1 -5.65,0 -9,3.4 -9.3,10.05l6.41 0c0.09,-2.35 1.2,-3.65 3,-3.65 1.95,0 2.74,1.55 2.74,3.05 0,5.85 -12.49,10.85 -12.49,21.95l0 4.2z"/>
  <path id="16" class="fil1" d="M202.62 441.43c6.35,0 10.1,-3.9 10.1,-10.55l0 -14.8c0,-6.7 -3.75,-10.65 -10.1,-10.65 -6.3,0 -10.05,3.95 -10.05,10.65l0 14.8c0,6.65 3.75,10.55 10.05,10.55zm0 -6.3c-2.35,0 -3.55,-1.45 -3.55,-4.25l0 -14.8c0,-2.85 1.2,-4.35 3.55,-4.35 2.36,0 3.6,1.5 3.6,4.35l0 14.8c0,2.8 -1.24,4.25 -3.6,4.25z"/>
  <polygon id="17" class="fil1" points="223.27,405.93 215.97,410.43 215.97,417.73 220.77,414.98 220.77,440.93 227.52,440.93 227.52,405.93 "/>
  <path id="18" class="fil1" d="M243.52 418.03c-1.4,0 -2.95,0.45 -3.95,1.25l0 -4.4c0,-2.05 1.05,-2.95 2.75,-2.95 1.7,0 2.5,1.15 2.7,3l6.8 0c-0.15,-5.9 -3.85,-9.6 -9.5,-9.6 -5.75,0 -9.6,3.8 -9.6,9.65l0 16.9c0,5.8 3.9,9.65 9.65,9.65 5.75,0 9.65,-3.85 9.65,-9.65l0 -4.95c0,-5.1 -3.4,-8.9 -8.5,-8.9zm1.65 13.8c0,1.95 -1.05,3.1 -2.8,3.1 -1.75,0 -2.8,-1.15 -2.8,-3.1l0 -4.4c0,-2 1.05,-3.2 2.85,-3.2 1.75,0 2.75,1.2 2.75,3.2l0 4.4z"/>
  <polygon id="19" class="fil1" points="285.83,440.93 278.97,427.58 285.08,414.43 277.62,414.43 274.58,421.63 271.52,414.43 264.08,414.43 270.32,427.58 263.33,440.93 270.98,440.93 274.58,433.23 278.18,440.93 "/>
  <path id="20" class="fil1" d="M298.37 418.03c-1.4,0 -2.95,0.45 -3.95,1.25l0 -4.4c0,-2.05 1.05,-2.95 2.75,-2.95 1.7,0 2.5,1.15 2.7,3l6.8 0c-0.15,-5.9 -3.85,-9.6 -9.5,-9.6 -5.75,0 -9.6,3.8 -9.6,9.65l0 16.9c0,5.8 3.9,9.65 9.65,9.65 5.75,0 9.65,-3.85 9.65,-9.65l0 -4.95c0,-5.1 -3.4,-8.9 -8.5,-8.9zm1.65 13.8c0,1.95 -1.05,3.1 -2.8,3.1 -1.75,0 -2.8,-1.15 -2.8,-3.1l0 -4.4c0,-2 1.05,-3.2 2.85,-3.2 1.75,0 2.75,1.2 2.75,3.2l0 4.4z"/>
  <polygon id="21" class="fil1" points="331.37,426.83 327.77,426.83 327.77,415.18 322.37,415.18 321.32,426.83 316.07,426.83 321.88,405.93 315.23,405.93 308.82,429.33 308.82,432.93 321.23,432.93 321.23,440.93 327.77,440.93 327.77,432.93 331.37,432.93 "/>
  <polygon class="fil2" points="147.21,275.3 147.21,124.72 278.34,76.5 352.78,99.34 352.78,302.37 281.72,323.52 147.21,275.3 280.03,291.38 280.03,117.11 192.9,136.56 192.9,255.85 "/>
 </g>
</svg>
