<?xml version="1.0" encoding="UTF-8"?>
<!DOCTYPE svg PUBLIC "-//W3C//DTD SVG 1.1//EN" "http://www.w3.org/Graphics/SVG/1.1/DTD/svg11.dtd">
<!-- Creator: CorelDRAW 2017 -->
<svg xmlns="http://www.w3.org/2000/svg" xml:space="preserve" width="500px" height="500px" version="1.1" style="shape-rendering:geometricPrecision; text-rendering:geometricPrecision; image-rendering:optimizeQuality; fill-rule:evenodd; clip-rule:evenodd"
viewBox="0 0 500 500"
 xmlns:xlink="http://www.w3.org/1999/xlink">
 <defs>
  <style type="text/css">
   <![CDATA[
    .fil0 {fill:#EB3D01}
    .fil3 {fill:white}
    .fil4 {fill:white}
    .fil2 {fill:white;fill-rule:nonzero}
    .fil1 {fill:white;fill-rule:nonzero}
   ]]>
  </style>
 </defs>
 <g id="Слой_x0020_1">
  <metadata id="CorelCorpID_0Corel-Layer"/>
  <circle class="fil0" cx="250" cy="250" r="239.39"/>
 </g>
 <g id="Слой_x0020_1_0">
  <metadata id="CorelCorpID_1Corel-Layer"/>
  <path class="fil1" d="M106.99 390.48c0,-5.94 1.6,-10.59 4.79,-13.95 3.19,-3.35 7.31,-5.03 12.36,-5.03 3.31,0 6.28,0.79 8.94,2.37 2.65,1.57 4.67,3.77 6.07,6.6 1.39,2.81 2.09,6.01 2.09,9.59 0,3.62 -0.74,6.87 -2.2,9.73 -1.47,2.87 -3.54,5.04 -6.23,6.5 -2.69,1.48 -5.59,2.21 -8.7,2.21 -3.37,0 -6.38,-0.82 -9.04,-2.44 -2.65,-1.63 -4.66,-3.84 -6.03,-6.66 -1.37,-2.81 -2.05,-5.78 -2.05,-8.92zm4.9 0.08c0,4.31 1.16,7.7 3.47,10.17 2.32,2.48 5.23,3.72 8.73,3.72 3.57,0 6.49,-1.25 8.8,-3.75 2.3,-2.5 3.45,-6.05 3.45,-10.65 0,-2.91 -0.49,-5.45 -1.48,-7.62 -0.98,-2.16 -2.42,-3.85 -4.31,-5.04 -1.9,-1.19 -4.03,-1.79 -6.39,-1.79 -3.35,0 -6.23,1.15 -8.65,3.45 -2.41,2.3 -3.62,6.13 -3.62,11.51zm48.66 17.34l0 -22.55 -8.3 0 0 22.55 -4.4 0 0 -22.55 -3.9 0 0 -3.4 3.9 0 0 -2.51c0,-2.56 0.55,-4.53 1.66,-5.89 1.1,-1.37 2.85,-2.05 5.25,-2.05 1.58,0 3.07,0.18 4.47,0.56l-0.68 3.71c-0.87,-0.14 -1.66,-0.22 -2.38,-0.22 -1.51,0 -2.54,0.3 -3.1,0.9 -0.55,0.6 -0.82,1.88 -0.82,3.83l0 1.67 8.3 0 0 -2.51c0,-2.56 0.55,-4.53 1.65,-5.89 1.11,-1.37 2.86,-2.05 5.25,-2.05 1.58,0 3.07,0.18 4.47,0.56l-0.68 3.71c-0.86,-0.14 -1.65,-0.22 -2.37,-0.22 -1.52,0 -2.55,0.3 -3.1,0.9 -0.56,0.6 -0.83,1.88 -0.83,3.83l0 1.67 5.03 0 0 3.4 -5.03 0 0 22.55 -4.39 0zm12.79 -30.75l0 -5.05 4.39 0 0 5.05 -4.39 0zm0 30.75l0 -25.95 4.39 0 0 25.95 -4.39 0zm28.04 -9.5l4.3 0.6c-0.48,2.96 -1.68,5.27 -3.62,6.94 -1.94,1.68 -4.33,2.51 -7.16,2.51 -3.54,0 -6.39,-1.16 -8.54,-3.47 -2.16,-2.32 -3.23,-5.64 -3.23,-9.95 0,-2.8 0.47,-5.25 1.39,-7.35 0.93,-2.09 2.33,-3.66 4.23,-4.7 1.9,-1.05 3.95,-1.58 6.19,-1.58 2.81,0 5.11,0.71 6.9,2.13 1.79,1.43 2.94,3.45 3.44,6.07l-4.25 0.65c-0.41,-1.74 -1.13,-3.05 -2.17,-3.93 -1.03,-0.88 -2.28,-1.32 -3.75,-1.32 -2.21,0 -4.01,0.79 -5.41,2.38 -1.38,1.59 -2.07,4.09 -2.07,7.52 0,3.48 0.67,6.01 2,7.58 1.34,1.58 3.08,2.37 5.22,2.37 1.74,0 3.18,-0.52 4.33,-1.58 1.16,-1.05 1.89,-2.68 2.2,-4.87zm25.75 1.1l4.55 0.6c-0.71,2.64 -2.03,4.7 -3.97,6.16 -1.93,1.46 -4.4,2.19 -7.41,2.19 -3.78,0 -6.78,-1.17 -9,-3.5 -2.21,-2.32 -3.32,-5.6 -3.32,-9.81 0,-4.35 1.12,-7.73 3.36,-10.13 2.24,-2.41 5.15,-3.61 8.72,-3.61 3.46,0 6.29,1.18 8.48,3.53 2.19,2.36 3.29,5.68 3.29,9.95 0,0.26 -0.01,0.65 -0.02,1.17l-19.33 0c0.17,2.84 0.97,5.03 2.42,6.53 1.44,1.51 3.25,2.27 5.4,2.27 1.61,0 2.99,-0.42 4.12,-1.27 1.14,-0.85 2.04,-2.21 2.71,-4.08zm-14.4 -7.05l14.45 0c-0.19,-2.18 -0.75,-3.82 -1.66,-4.91 -1.39,-1.69 -3.21,-2.54 -5.43,-2.54 -2.02,0 -3.71,0.68 -5.08,2.03 -1.37,1.35 -2.13,3.15 -2.28,5.42zm38.85 15.45l0 -35.8 7.1 0 8.47 25.34c0.78,2.36 1.35,4.13 1.71,5.3 0.4,-1.3 1.05,-3.21 1.91,-5.74l8.62 -24.9 6.34 0 0 35.8 -4.55 0 0 -29.95 -10.45 29.95 -4.27 0 -10.33 -30.5 0 30.5 -4.55 0zm39.55 -12.97c0,-4.8 1.33,-8.35 4.01,-10.65 2.22,-1.92 4.95,-2.88 8.16,-2.88 3.55,0 6.47,1.17 8.74,3.5 2.26,2.33 3.39,5.55 3.39,9.66 0,3.33 -0.5,5.95 -1.5,7.86 -1,1.91 -2.46,3.39 -4.38,4.45 -1.9,1.06 -4,1.58 -6.25,1.58 -3.64,0 -6.57,-1.16 -8.81,-3.48 -2.24,-2.33 -3.36,-5.68 -3.36,-10.04zm4.5 0c0,3.32 0.72,5.8 2.17,7.45 1.46,1.65 3.29,2.47 5.5,2.47 2.18,0 4,-0.82 5.45,-2.48 1.45,-1.66 2.18,-4.19 2.18,-7.58 0,-3.2 -0.73,-5.62 -2.19,-7.26 -1.46,-1.65 -3.28,-2.48 -5.44,-2.48 -2.21,0 -4.04,0.82 -5.5,2.46 -1.45,1.64 -2.17,4.12 -2.17,7.42zm29.01 12.97l-4.1 0 0 -35.8 4.4 0 0 12.78c1.86,-2.32 4.22,-3.48 7.11,-3.48 1.59,0 3.1,0.32 4.53,0.96 1.42,0.64 2.59,1.55 3.52,2.71 0.91,1.16 1.64,2.56 2.15,4.21 0.53,1.63 0.79,3.39 0.79,5.25 0,4.44 -1.1,7.87 -3.29,10.29 -2.2,2.42 -4.84,3.63 -7.91,3.63 -3.06,0 -5.46,-1.27 -7.2,-3.82l0 3.27zm-0.05 -13.17c0,3.1 0.42,5.35 1.26,6.73 1.39,2.26 3.25,3.39 5.61,3.39 1.93,0 3.59,-0.83 4.98,-2.5 1.4,-1.67 2.1,-4.15 2.1,-7.45 0,-3.38 -0.67,-5.87 -2.01,-7.48 -1.34,-1.61 -2.97,-2.42 -4.87,-2.42 -1.92,0 -3.58,0.83 -4.97,2.5 -1.4,1.67 -2.1,4.08 -2.1,7.23zm23.81 -17.63l0 -5 4.4 0 0 5 -4.4 0zm0 30.8l0 -25.95 4.4 0 0 25.95 -4.4 0zm11 0l0 -35.8 4.4 0 0 35.8 -4.4 0zm28.91 -8.4l4.55 0.6c-0.71,2.64 -2.03,4.7 -3.96,6.16 -1.94,1.46 -4.41,2.19 -7.41,2.19 -3.79,0 -6.79,-1.17 -9,-3.5 -2.22,-2.32 -3.33,-5.6 -3.33,-9.81 0,-4.35 1.12,-7.73 3.36,-10.13 2.24,-2.41 5.15,-3.61 8.73,-3.61 3.45,0 6.28,1.18 8.47,3.53 2.19,2.36 3.29,5.68 3.29,9.95 0,0.26 -0.01,0.65 -0.02,1.17l-19.33 0c0.17,2.84 0.97,5.03 2.42,6.53 1.44,1.51 3.25,2.27 5.41,2.27 1.61,0 2.98,-0.42 4.11,-1.27 1.14,-0.85 2.04,-2.21 2.71,-4.08zm-14.4 -7.05l14.45 0c-0.19,-2.18 -0.75,-3.82 -1.66,-4.91 -1.39,-1.69 -3.2,-2.54 -5.43,-2.54 -2.02,0 -3.71,0.68 -5.08,2.03 -1.37,1.35 -2.13,3.15 -2.28,5.42z"/>
 </g>
 <g id="Слой_x0020_1_1">
  <metadata id="CorelCorpID_2Corel-Layer"/>
  <path class="fil2" d="M3395.42 3847.79l-17.19 41.41c-2.19,5.47 -5.94,15 -7.19,19.06l-0.62 0c-1.25,-4.06 -5,-13.59 -7.19,-19.06l-17.19 -41.41 -22.34 0 0 109.38 21.56 0 0 -26.88c-0.47,-13.28 -1.09,-26.56 -1.56,-39.84l0.78 -0.31 9.84 28.75 5.47 14.84 21.87 0 5.47 -14.84 9.85 -28.75 0.78 0.31c-0.63,13.28 -1.1,26.56 -1.72,39.84l0 26.88 21.72 0 0 -109.38 -22.35 0 0.01 0z"/>
  <path id="_1" class="fil2" d="M3446.04 3862.17c6.56,0 11.72,-5.47 11.72,-11.72 0,-6.72 -5.16,-11.72 -11.72,-11.72 -6.87,0 -11.72,5 -11.72,11.72 0,6.56 4.85,11.72 11.72,11.72zm-10.78 95l21.41 0 0 -82.82 -21.41 0 0 82.82z"/>
  <path id="_2" class="fil2" d="M3499.95 3959.04c18.9,0 30.31,-11.56 30.78,-31.09l-21.41 0c-0.47,7.03 -3.12,10.78 -8.91,10.78 -5.46,0 -8.43,-3.75 -8.43,-10.78l0 -24.69c0,-7.03 2.97,-10.62 8.43,-10.62 5.32,0 7.97,3.59 8.29,10.62l21.4 0c-0.62,-19.37 -10.62,-30.94 -30.15,-30.94 -18.6,0 -29.54,11.57 -29.54,30.94l0 24.69c0,19.53 10.94,31.09 29.54,31.09l0 0z"/>
  <path id="_3" class="fil2" d="M3577.29 3872.32c-9.37,0 -16.56,3.75 -20.94,10.78l-1.56 -8.74 -14.06 0 0 82.81 21.25 0 0 -52.03c0,-8.75 5.47,-12.82 14.37,-12.82 3.91,0 7.04,0.79 10.01,2.19l0 -20.31c-2.19,-1.25 -5.32,-1.88 -9.07,-1.88l0 0z"/>
  <path id="_4" class="fil2" d="M3624.17 3959.2c19.37,0 30.78,-11.88 30.78,-32.97l0 -21.09c0,-21.1 -11.41,-32.82 -30.78,-32.82 -19.38,0 -30.78,11.72 -30.78,32.82l0 21.09c0,21.09 11.4,32.97 30.78,32.97zm0 -20.63c-5.94,0 -9.07,-3.75 -9.07,-12.34l0 -21.09c0,-8.6 3.13,-12.19 9.07,-12.19 5.93,0 9.06,3.59 9.06,12.19l0 21.09c0,8.59 -3.13,12.34 -9.06,12.34z"/>
  <path id="_5" class="fil2" d="M3695.89 3959.51c18.59,0 29.37,-10.47 29.37,-26.09 0,-30 -39.06,-25.47 -39.06,-37.03 0,-3.13 2.97,-5.32 7.5,-5.32 6.09,0 8.28,3.44 8.75,8.75l20.47 0c-1.25,-15.62 -9.38,-27.5 -29.22,-27.5 -17.5,0 -28.6,8.91 -28.6,24.07 0,27.96 38.91,24.21 38.91,37.18 0,3.91 -3.28,6.56 -8.91,6.56 -7.81,0 -9.84,-5.31 -10.15,-9.37l-21.25 0c0.47,14.69 10.62,28.75 32.18,28.75l0.01 0z"/>
  <path id="_6" class="fil2" d="M3765.1 3959.2c19.38,0 30.78,-11.88 30.78,-32.97l0 -21.09c0,-21.1 -11.4,-32.82 -30.78,-32.82 -19.37,0 -30.78,11.72 -30.78,32.82l0 21.09c0,21.09 11.41,32.97 30.78,32.97zm0 -20.63c-5.93,0 -9.06,-3.75 -9.06,-12.34l0 -21.09c0,-8.6 3.13,-12.19 9.06,-12.19 5.94,0 9.07,3.59 9.07,12.19l0 21.09c0,8.59 -3.13,12.34 -9.07,12.34z"/>
  <path id="_7" class="fil2" d="M3844.64 3860.92l5.31 0 0 -19.22 -5.31 0c-22.66,0 -31.1,13.43 -31.1,30.62l0 2.03 -11.56 0 0 19.53 11.56 0 0 63.29 21.1 0 0 -63.29 13.9 0 0 -19.53 -13.9 0 0 -2.03c0,-8.12 2.5,-11.4 10,-11.4z"/>
  <path id="_8" class="fil2" d="M3892.92 3938.42c-6.41,0 -9.38,-2.97 -9.38,-9.85l0 -35 13.6 0 0 -19.21 -13.6 0 0 -20 -21.09 0 0 20 -10.78 0 0 19.21 10.78 0 0 34.69c0,18.44 11.09,30.16 28.9,30.16l6.88 0 0 -20 -5.31 0 0 0z"/>
  <path id="_9" class="fil2" d="M3976.2 3959.04c22.19,0 35.47,-13.9 35.47,-37.34l0 -38.44c0,-23.44 -13.28,-37.34 -35.47,-37.34 -22.19,0 -35.47,13.9 -35.47,37.34l0 38.44c0,23.44 13.28,37.34 35.47,37.34zm0 -21.56c-8.28,0 -12.5,-5.47 -12.5,-15.78l0 -38.44c0,-10.31 4.22,-15.78 12.5,-15.78 8.28,0 12.5,5.47 12.5,15.78l0 38.44c0,10.31 -4.22,15.78 -12.5,15.78z"/>
  <path id="_10" class="fil2" d="M4061.98 3860.92l5.31 0 0 -19.22 -5.31 0c-22.66,0 -31.09,13.43 -31.09,30.62l0 2.03 -11.57 0 0 19.53 11.57 0 0 63.29 21.09 0 0 -63.29 13.91 0 0 -19.53 -13.91 0 0 -2.03c0,-8.12 2.5,-11.4 10,-11.4z"/>
  <path id="_11" class="fil2" d="M4111.67 3860.92l5.31 0 0 -19.22 -5.31 0c-22.66,0 -31.1,13.43 -31.1,30.62l0 2.03 -11.56 0 0 19.53 11.56 0 0 63.29 21.1 0 0 -63.29 13.9 0 0 -19.53 -13.9 0 0 -2.03c0,-8.12 2.5,-11.4 10,-11.4z"/>
  <path id="_12" class="fil2" d="M4136.2 3862.17c6.56,0 11.72,-5.47 11.72,-11.72 0,-6.72 -5.16,-11.72 -11.72,-11.72 -6.88,0 -11.72,5 -11.72,11.72 0,6.56 4.84,11.72 11.72,11.72zm-10.78 95l21.4 0 0 -82.82 -21.4 0 0 82.82z"/>
  <path id="_13" class="fil2" d="M4190.11 3959.04c18.9,0 30.31,-11.56 30.78,-31.09l-21.41 0c-0.47,7.03 -3.12,10.78 -8.91,10.78 -5.46,0 -8.43,-3.75 -8.43,-10.78l0 -24.69c0,-7.03 2.97,-10.62 8.43,-10.62 5.32,0 7.97,3.59 8.28,10.62l21.41 0c-0.62,-19.37 -10.62,-30.94 -30.16,-30.94 -18.59,0 -29.53,11.57 -29.53,30.94l0 24.69c0,19.53 10.94,31.09 29.53,31.09l0.01 0z"/>
  <path id="_14" class="fil2" d="M4269.32 3930.76c-1.4,5.63 -3.28,7.97 -9.68,7.97 -5.63,0 -8.6,-3.75 -8.6,-12.34l0 -3.44 38.75 0 0 -18.59c0,-20.16 -11.25,-32.04 -30.31,-32.04 -18.75,0 -29.84,11.88 -29.84,32.04l0 22.03c0,20.46 11.09,32.65 29.68,32.65 18.44,0 29.85,-10.47 31.57,-28.28l-21.57 0 0 0zm-9.68 -38.75c5.93,0 9.06,3.59 9.06,12.03l0 4.38 -17.66 0 0 -4.38c0,-8.44 2.97,-12.03 8.6,-12.03z"/>
  <path id="_15" class="fil2" d="M3553.64 4144.67l60.62 0 0 -19.69 -38.31 0c0,-16.56 37.84,-35.16 37.84,-63.13 0,-13.75 -9.25,-28.43 -30.03,-28.43 -17.66,0 -28.13,10.62 -29.06,31.4l20.03 0c0.28,-7.34 3.75,-11.4 9.38,-11.4 6.09,0 8.56,4.84 8.56,9.53 0,18.28 -39.03,33.91 -39.03,68.59l0 13.13 0 0z"/>
  <path id="_16" class="fil2" d="M3656.57 4146.23c19.85,0 31.56,-12.19 31.56,-32.97l0 -46.25c0,-20.94 -11.71,-33.28 -31.56,-33.28 -19.69,0 -31.4,12.34 -31.4,33.28l0 46.25c0,20.78 11.71,32.97 31.4,32.97zm0 -19.69c-7.34,0 -11.09,-4.53 -11.09,-13.28l0 -46.25c0,-8.91 3.75,-13.59 11.09,-13.59 7.38,0 11.25,4.69 11.25,13.59l0 46.25c0,8.75 -3.87,13.28 -11.25,13.28z"/>
  <polygon id="_17" class="fil2" points="3721.1,4035.29 3698.29,4049.35 3698.29,4072.17 3713.29,4063.57 3713.29,4144.67 3734.39,4144.67 3734.39,4035.29 "/>
  <path id="_18" class="fil2" d="M3784.39 4073.1c-4.38,0 -9.22,1.41 -12.35,3.91l0 -13.75c0,-6.41 3.28,-9.22 8.6,-9.22 5.31,0 7.81,3.6 8.43,9.38l21.25 0c-0.47,-18.44 -12.03,-30 -29.68,-30 -17.97,0 -30,11.87 -30,30.15l0 52.82c0,18.12 12.18,30.15 30.15,30.15 17.97,0 30.16,-12.03 30.16,-30.15l0 -15.47c0,-15.94 -10.63,-27.82 -26.56,-27.82zm5.15 43.13c0,6.09 -3.28,9.69 -8.75,9.69 -5.47,0 -8.75,-3.6 -8.75,-9.69l0 -13.75c0,-6.25 3.28,-10 8.91,-10 5.47,0 8.59,3.75 8.59,10l0 13.75 0 0z"/>
  <polygon id="_19" class="fil2" points="3916.6,4144.67 3895.17,4102.95 3914.26,4061.85 3890.95,4061.85 3881.45,4084.35 3871.89,4061.85 3848.64,4061.85 3868.14,4102.95 3846.29,4144.67 3870.2,4144.67 3881.45,4120.61 3892.7,4144.67 "/>
  <path id="_20" class="fil2" d="M3955.79 4073.1c-4.37,0 -9.22,1.41 -12.34,3.91l0 -13.75c0,-6.41 3.28,-9.22 8.59,-9.22 5.31,0 7.82,3.6 8.44,9.38l21.25 0c-0.47,-18.44 -12.03,-30 -29.69,-30 -17.97,0 -30,11.87 -30,30.15l0 52.82c0,18.12 12.19,30.15 30.16,30.15 17.97,0 30.16,-12.03 30.16,-30.15l0 -15.47c0,-15.94 -10.63,-27.82 -26.57,-27.82zm5.16 43.13c0,6.09 -3.28,9.69 -8.75,9.69 -5.47,0 -8.75,-3.6 -8.75,-9.69l0 -13.75c0,-6.25 3.28,-10 8.91,-10 5.47,0 8.59,3.75 8.59,10l0 13.75 0 0z"/>
  <polygon id="_21" class="fil2" points="4058.92,4100.61 4047.67,4100.61 4047.67,4064.2 4030.79,4064.2 4027.51,4100.61 4011.1,4100.61 4029.26,4035.29 4008.48,4035.29 3988.45,4108.42 3988.45,4119.67 4027.23,4119.67 4027.23,4144.67 4047.67,4144.67 4047.67,4119.67 4058.92,4119.67 "/>
  <polygon class="fil3" points="3483.42,3627.07 3483.42,3156.51 3893.2,3005.82 4125.82,3077.2 4125.82,3711.67 3903.76,3777.76 3483.42,3627.07 3898.48,3677.32 3898.48,3132.73 3626.2,3193.51 3626.2,3566.29 "/>
 </g>
 <g id="Слой_x0020_1_2">
  <metadata id="CorelCorpID_3Corel-Layer"/>
  <polygon class="fil4" points="138.71,281.74 138.71,118.71 280.69,66.5 361.29,91.23 361.29,311.05 284.35,333.95 138.71,281.74 282.52,299.15 282.52,110.47 188.18,131.53 188.18,260.68 "/>
 </g>
</svg>
