<?xml version="1.0" encoding="UTF-8"?>
<!DOCTYPE svg PUBLIC "-//W3C//DTD SVG 1.1//EN" "http://www.w3.org/Graphics/SVG/1.1/DTD/svg11.dtd">
<!-- Creator: CorelDRAW 2017 -->
<svg xmlns="http://www.w3.org/2000/svg" xml:space="preserve" width="500px" height="500px" version="1.1" style="shape-rendering:geometricPrecision; text-rendering:geometricPrecision; image-rendering:optimizeQuality; fill-rule:evenodd; clip-rule:evenodd"
viewBox="0 0 500 500"
 xmlns:xlink="http://www.w3.org/1999/xlink">
 <defs>
  <style type="text/css">
   <![CDATA[
    .str2 {stroke:#EE3668;stroke-width:20;stroke-miterlimit:22.9256}
    .str1 {stroke:#EE3668;stroke-width:8;stroke-miterlimit:22.9256}
    .str0 {stroke:#EE3668;stroke-width:25;stroke-miterlimit:22.9256}
    .fil2 {fill:none}
    .fil1 {fill:#EE3667}
    .fil3 {fill:#EE3668}
    .fil0 {fill:white}
   ]]>
  </style>
 </defs>
 <g id="Слой_x0020_1">
  <metadata id="CorelCorpID_0Corel-Layer"/>
  <circle class="fil0 str0" cx="250" cy="250" r="230.97"/>
 </g>
 <g id="Слой_x0020_1_0">
  <metadata id="CorelCorpID_1Corel-Layer"/>
  <g id="_2454420873056">
   <path class="fil1 str1" d="M294.85 182.94c0,2.62 0.82,4.64 2.72,5.79 3.69,2.25 14.28,-1.15 31.21,7.94l7.02 4.55c13.07,9.75 22.71,26.92 22.71,44.36 0,24.48 -12.65,44.45 -34.71,54.13 -1.95,0.85 -3.4,1.46 -5.73,2.1 -4.88,1.36 -7.8,2.17 -13.35,2.31 -1.69,0.04 -5.75,0.42 -6.8,1.02 -4.85,2.78 -4.3,12.26 3.4,12.26 8.01,0 16.98,-1.52 24.03,-4.23 4.06,-1.56 8.69,-3.78 12.38,-6 17.46,-10.51 30.28,-29.38 33.05,-49.66 2.46,-17.98 -0.84,-32.6 -9.88,-47.69l-5.87 -8.08c-0.84,-0.96 -1.09,-1.43 -2.05,-2.38l-12.44 -10.7c-1.93,-1.29 -3.56,-2.37 -5.75,-3.45 -7.81,-3.84 -10.5,-5.38 -20.22,-7.35 -2.09,-0.42 -5.87,-1 -8.14,-1.05 -3.17,-0.08 -5.67,-0.72 -8.08,0.44 -1.81,0.86 -3.5,3.13 -3.5,5.69z"/>
   <path class="fil1 str1" d="M372.12 201.32c0,2.39 0.04,4.1 1.98,5.85 4.19,3.77 8.89,0.2 12.68,-2.08l15.1 -8.73c1.29,-0.76 2.57,-1.23 3.51,-2.27 4.52,-4.97 -0.03,-14.54 -8.99,-9.68l-18.56 10.72c-1.9,1.14 -5.72,2.82 -5.72,6.19z"/>
   <path class="fil1 str1" d="M345.57 176.13c3.93,0 5.33,-2.14 6.91,-5l8.47 -14.67c2.46,-4.08 4.02,-5.97 4.02,-9.6 0,-4.45 -5.66,-8.09 -10.57,-4.44 -1.36,1.01 -5.6,9 -7.02,11.36 -0.68,1.12 -0.95,1.64 -1.58,2.84 -3,5.64 -8.11,11.04 -5.92,15.67 0.95,2 2.89,3.84 5.69,3.84z"/>
   <path class="fil1 str1" d="M358.51 353.14c3.47,0 6.46,-2.96 6.46,-5.45 0,-3.19 0.13,-3.06 -1.46,-5.68l-12.77 -21.95c-4.36,-4.89 -15.55,-0.51 -9.87,8.85l4.21 7.36c1.97,3.25 3.54,6.24 5.49,9.49 1.84,3.06 3.3,7.38 7.94,7.38z"/>
   <path class="fil1 str1" d="M372.12 291.19c0,4.61 1.53,5.17 5.22,7.38 2.49,1.49 20.64,12.36 22.35,12.36 4.39,0 7.49,-2 7.49,-6.47 0,-4.57 -4.2,-6.08 -7.13,-7.85l-19.29 -11.01c-4.15,-1.45 -8.64,1.51 -8.64,5.59z"/>
   <path class="fil1 str1" d="M294.85 335.78l0 26.89c0,1.73 0.72,2.88 1.61,3.84 3.68,3.98 11.33,1.68 11.33,-4.52l0 -25.53c0,-8.59 -12.94,-8.38 -12.94,-0.68z"/>
   <path class="fil1 str1" d="M294.85 130.86l0 27.91c0,3.75 6.65,7.83 10.98,3.5 0.97,-0.97 1.96,-2.68 1.96,-4.52l0 -25.87c0,-3.55 -3.18,-6.47 -6.81,-6.47 -2.6,0 -6.13,2.91 -6.13,5.45z"/>
   <path class="fil1 str1" d="M384.04 246.94c0,3.45 2.53,6.46 6.12,6.46l26.55 0c3.44,0 5.47,-2.71 5.79,-5.64l0 -1.61c-0.17,-1.6 -0.88,-3.14 -2.17,-4.19 -1.19,-0.98 -2.61,-1.49 -4.64,-1.49l-25.19 0c-3.48,0 -6.46,2.99 -6.46,6.47z"/>
   <path class="fil2 str2" d="M136.09 122.35l116.25 0c10.09,0 18.34,8.26 18.34,18.35l0 218.6c0,10.09 -8.25,18.35 -18.34,18.35l-116.25 0c-10.09,0 -18.35,-8.26 -18.35,-18.35l0 -218.6c0,-10.09 8.26,-18.35 18.35,-18.35z"/>
   <rect class="fil3 str1" x="168.68" y="147.54" width="51.06" height="13.28" rx="12.65" ry="10.05"/>
   <circle class="fil3 str1" cx="194.21" cy="339.35" r="12.76"/>
  </g>
 </g>
</svg>
