<?xml version="1.0" encoding="UTF-8"?>
<!DOCTYPE svg PUBLIC "-//W3C//DTD SVG 1.1//EN" "http://www.w3.org/Graphics/SVG/1.1/DTD/svg11.dtd">
<!-- Creator: CorelDRAW 2017 -->
<svg xmlns="http://www.w3.org/2000/svg" xml:space="preserve" width="500px" height="500px" version="1.1" style="shape-rendering:geometricPrecision; text-rendering:geometricPrecision; image-rendering:optimizeQuality; fill-rule:evenodd; clip-rule:evenodd"
viewBox="0 0 500 500"
 xmlns:xlink="http://www.w3.org/1999/xlink">
 <defs>
  <style type="text/css">
   <![CDATA[
    .str1 {stroke:#424242;stroke-width:4;stroke-miterlimit:22.9256}
    .str2 {stroke:#48AFD1;stroke-width:4;stroke-miterlimit:22.9256}
    .str3 {stroke:#787878;stroke-width:4;stroke-miterlimit:22.9256}
    .str0 {stroke:#48AFD1;stroke-width:16;stroke-miterlimit:22.9256}
    .fil7 {fill:black}
    .fil2 {fill:#0D2B34}
    .fil4 {fill:#1F1B20}
    .fil1 {fill:#48AFD1}
    .fil3 {fill:#727271}
    .fil6 {fill:#F8E5C8}
    .fil8 {fill:#FEFEFE}
    .fil5 {fill:#FFEA94}
    .fil0 {fill:white}
   ]]>
  </style>
 </defs>
 <g id="Слой_x0020_1">
  <metadata id="CorelCorpID_0Corel-Layer"/>
  <circle class="fil0 str0" cx="250" cy="250" r="239.39"/>
 </g>
 <g id="Слой_x0020_1_0">
  <metadata id="CorelCorpID_1Corel-Layer"/>
  <g id="_2645711129952">
   <path class="fil1" d="M378.26 119.75l-13.05 -42.52c0,0 -249.68,77.82 -275.06,86.29l13.31 42.43 274.8 -86.2z"/>
   <polygon class="fil2" points="229.92,166.28 186.05,180.04 139.53,147.81 182.7,134.11 "/>
   <polygon class="fil2" points="148.92,191.69 103.46,205.95 90.07,163.26 101.7,159.52 "/>
   <path class="fil2" d="M314.68 92.71c0,0 50.38,-15.94 50.38,-15.94 0,0 13.2,42.98 13.2,42.98 0,0 -16.37,5.13 -16.37,5.13 -15.59,-10.46 -47.21,-32.17 -47.21,-32.17z"/>
   <polygon class="fil2" points="316.84,139.01 272.97,152.77 226.45,120.54 269.62,106.84 "/>
  </g>
  <path class="fil3 str1" d="M125.2 237.57l244.94 0c9.37,0 16.97,6.33 16.97,14.13l0 142.99c0.3,4.35 -1.93,8.33 -4.37,10.31 -2.81,2.29 -7.43,3.82 -12.6,3.82l-244.94 0c-9.37,0 -16.96,-6.33 -16.96,-14.13l0 -142.99c0,-7.8 7.59,-14.13 16.96,-14.13z"/>
  <path class="fil4" d="M385.12 279.8c-8.45,-0.78 -15.03,-1.01 -23.68,-1.01 -98.84,0 -184.3,50 -233.05,128.08 0,0 242.05,-0.08 242.05,-0.08 8,-0.5 14,-2.5 14.13,-13.67 0.23,-18.51 0.47,-101.04 0.55,-113.32z"/>
  <polygon class="fil5 str2" points="249.01,279.93 261.31,302.57 288.78,306.21 268.91,323.85 273.59,348.75 249.01,337.01 224.43,348.75 229.1,323.85 209.24,306.21 236.7,302.57 "/>
  <path class="fil6" d="M163.83 372.24c0,0 0.01,1.37 0.01,1.37 14.69,-0.17 29.32,-0.16 44.01,0l0.06 18.88c0,0 2.3,-0.02 2.3,-0.02 0.08,-1.74 0.05,-5 0,-7.97 -0.05,-3.54 0,-10.89 0,-10.89l78.13 -0.32c0,3.1 -0.16,19.34 -0.16,19.34 0,0 2.52,0 2.52,0l0.15 -19.34 44.02 0.16c0,0 0,-2.04 0,-2.04 0,0 -171.04,0.83 -171.04,0.83z"/>
  <path class="fil1" d="M391.53 208.94l0.27 44.47c0,0 -261.52,0.49 -288.27,0l0 -44.47 288 0z"/>
  <polygon class="fil2" points="236.06,208.94 190.09,208.94 155.35,253.62 200.64,253.77 "/>
  <polygon class="fil2" points="151.18,208.94 103.53,208.94 103.53,253.68 115.75,253.77 "/>
  <path class="fil2" d="M338.96 253.77c0,0 52.84,0.13 52.84,0.13 0,0 -0.27,-44.96 -0.27,-44.96 0,0 -17.15,0 -17.15,0 -11.75,14.65 -35.42,44.83 -35.42,44.83z"/>
  <polygon class="fil2" points="327.17,208.94 281.19,208.94 246.45,253.62 291.74,253.77 "/>
  <path class="fil7 str3" d="M134.55 161.22c20.59,21.3 41.19,42.6 61.79,63.91 6.89,6.61 6.36,16.09 -5.2,15.61l-73.9 -0.21c-0.08,-40.17 1.16,-39.73 0.54,-72.95 -0.21,-11.39 12.57,-12.31 16.77,-6.36l0 0z"/>
  <circle class="fil8" cx="129.26" cy="170.76" r="4.78"/>
  <circle class="fil8" cx="182.81" cy="228.02" r="4.78"/>
  <circle class="fil8" cx="128.97" cy="229.99" r="4.78"/>
 </g>
</svg>
