<?xml version="1.0" encoding="UTF-8"?>
<!DOCTYPE svg PUBLIC "-//W3C//DTD SVG 1.1//EN" "http://www.w3.org/Graphics/SVG/1.1/DTD/svg11.dtd">
<!-- Creator: CorelDRAW 2017 -->
<svg xmlns="http://www.w3.org/2000/svg" xml:space="preserve" width="500px" height="500px" version="1.1" style="shape-rendering:geometricPrecision; text-rendering:geometricPrecision; image-rendering:optimizeQuality; fill-rule:evenodd; clip-rule:evenodd"
viewBox="0 0 500 500"
 xmlns:xlink="http://www.w3.org/1999/xlink">
 <defs>
  <style type="text/css">
   <![CDATA[
    .str1 {stroke:#575757;stroke-width:8;stroke-miterlimit:22.9256}
    .str0 {stroke:#575757;stroke-width:16;stroke-miterlimit:22.9256}
    .fil4 {fill:#FEFEFE}
    .fil1 {fill:#E31E24}
    .fil0 {fill:#00A0E3}
    .fil2 {fill:black}
    .fil5 {fill:white}
    .fil3 {fill:#FEFEFE;fill-rule:nonzero}
   ]]>
  </style>
 </defs>
 <g id="Слой_x0020_1">
  <metadata id="CorelCorpID_0Corel-Layer"/>
  <circle class="fil0 str0" cx="250" cy="250" r="239.39"/>
  <path class="fil1 str1" d="M249.29 316.02c-69.09,-20.95 -107.11,-77.4 -119.5,-159.34 -0.8,-5.29 -0.7,-6.68 -1.29,-12.18 -1.56,-14.57 -1.7,-34.49 -1.91,-50.43 36.88,-18.38 77.92,-30.62 122.87,-37.07 42.82,5.34 84.12,17.83 123.95,37.2 -5.38,108.09 -37.69,191.9 -124.12,221.82z"/>
  <path class="fil2" d="M251.24 107.35c-38.33,4.15 -119.99,36.72 -120.12,34.42 -0.42,-7.39 -0.7,-15.09 -1.12,-22.48l-1.5 -23.61c38.23,-17.7 78.71,-30.05 122.02,-35.68 43.3,5.63 82.71,17.68 120.55,36.18 -4.57,45.61 -4.07,32.11 -5.13,45.29 -40.93,-18.95 -76.37,-29.97 -114.7,-34.12z"/>
  <path class="fil3" d="M262.53 84.65l-9.48 0c-0.58,0 -1.02,0.12 -1.3,0.35 -0.29,0.23 -0.53,0.63 -0.72,1.22l-0.92 0 0 -7.82 0.92 0c0.19,0.6 0.42,1.01 0.72,1.23 0.28,0.22 0.71,0.33 1.3,0.33l18.16 0 0 0.81c-0.66,0.16 -1.12,0.38 -1.39,0.64 -0.26,0.26 -0.39,0.64 -0.39,1.16l0 6.89c0,0.52 0.12,0.9 0.38,1.16 0.26,0.26 0.72,0.48 1.4,0.64l0 0.61c-7.27,3.67 -14.34,5.5 -21.16,5.5 -6.2,0 -11.25,-1.3 -15.16,-3.88 -4.92,-3.25 -7.38,-7.78 -7.38,-13.57 0,-5.39 2.18,-9.69 6.56,-12.88 4.16,-3.03 9.68,-4.54 16.56,-4.54 2.19,0 4.26,0.18 6.2,0.53 1.93,0.35 4.14,0.94 6.6,1.77 1.27,0.45 2.18,0.67 2.72,0.67 0.39,0 0.85,-0.19 1.38,-0.56l0.81 0.37 -4.52 8.05 -0.81 -0.37c-0.02,-0.54 -0.11,-0.92 -0.25,-1.16 -0.16,-0.24 -0.49,-0.53 -1.02,-0.87 -1.14,-0.76 -2.82,-1.4 -5.02,-1.93 -2.21,-0.53 -4.3,-0.8 -6.27,-0.8 -4,0 -7.33,0.99 -9.96,2.96 -2.98,2.25 -4.47,5.2 -4.47,8.88 0,3.55 1.46,6.42 4.36,8.62 2.66,2.01 6.17,3.01 10.52,3.01 2.13,0 4.22,-0.22 6.28,-0.65 2.06,-0.43 3.84,-1.01 5.35,-1.76l0 -4.61z"/>
  <path class="fil1 str1" d="M250.34 362.51c-82.67,-25.89 -119.52,-106.4 -120.98,-221.44 35.71,-18.39 76.12,-30.62 119.64,-37.07 41.46,5.35 81.59,17.23 120.15,36.6 -6.28,108.02 -35.13,191.99 -118.81,221.91z"/>
  <g>
   <path class="fil4" d="M305.75 270.82c1.58,0.18 1.86,0.63 3.98,0.3 1.42,-0.22 2.35,-0.65 3.61,-0.94 0,0 0.44,-0.5 0.51,-0.56 -1.03,-0.02 -1.12,0.17 -1.7,-0.35 -1.91,-0.09 -3.07,-1.29 -4.68,-1.43 -0.85,-0.07 -1.64,0.14 -2.08,0.77 -0.64,0.9 0.02,1.59 0.36,2.21zm13.33 -39.88c-0.86,0.84 -2.08,0.04 -1.98,1.74 1.95,0.49 2.12,-0.81 2.92,-1.49 -0.33,-0.65 0.45,-0.55 -0.33,-0.46l-0.61 0.21zm-1.98 16.61c1.84,0.26 4.16,-0.84 4.75,-1.9l-5.14 0.12 -0.36 1.31c0.36,0.26 0.33,0.23 0.75,0.47zm-22.66 -20.19c-1.12,-0.19 -2.27,0.07 -3.51,0.15 -3.78,0.57 -8.29,0.6 -11.86,-0.47 -2.9,-0.87 -6.88,-3.21 -7.28,-5.18 -0.48,-0.33 -0.17,0.01 -0.64,-0.6 -0.02,-0.02 -0.3,-0.48 -0.32,-0.51 -0.66,-1.25 -0.88,-2.9 -1.33,-3.82l-0.14 1c-0.3,1.55 0.17,2.95 0.58,4.41 0.34,0.37 0.69,1.3 1.07,1.89l1.11 1.55c0.01,-0.03 0.05,0.1 0.07,0.15l4.57 2.74c1.03,0.03 2.81,0.41 3.48,1.25 0.55,0.69 1.24,2.22 0.73,3.16 -0.9,1.65 -5.92,1.62 -7.52,0.65 -0.98,-0.22 -1.21,-0.31 -2.08,-0.72 -0.38,-0.18 -0.58,-0.26 -0.92,-0.49 -0.67,-0.47 -0.34,-0.23 -0.67,-0.6 -1.31,-0.33 -1.46,-0.85 -2.37,-1.66 -0.56,-0.5 -0.66,-0.44 -1.19,-1.04 -0.39,-0.44 -0.34,-0.5 -0.86,-1 -0.56,-0.59 -0.29,-0.15 -0.33,-0.75 -1.01,-0.45 -0.75,-0.46 -1.4,-1.24 -0.3,-0.37 -0.64,-1.46 -0.75,-0.5l1.29 2.03 1.79 2.32c1.01,1.63 3.32,3.38 5.05,4.55 1.66,1.13 6.44,2.64 7.07,3.17 1.99,-0.05 4.25,0.6 6.64,0.56 2.18,-0.04 4.45,-0.75 6.57,-0.58 0.6,-0.42 1.12,-0.44 1.98,-0.64 0.38,-0.09 0.74,-0.15 1.15,-0.29l1.12 -0.52c-1.3,-0.02 -3.37,0.18 -4.25,-0.29 -0.83,0.09 -0.78,0.14 -1.72,-0.02 -1,-0.17 -0.74,-0.11 -1.3,-0.49 -1.55,0.04 -3.09,-0.75 -3.73,-1.59 -0.97,-1.27 -0.24,-2.61 0.13,-3.77 2.58,0.11 8.43,-0.45 10.04,-0.22 0.07,-0.03 4.06,0.06 4.12,0.04 4.33,-0.57 8.74,1.9 10.3,3.95 0.94,1.23 1.75,2.93 2.02,4.75 0.3,2.03 -0.26,4.17 0.03,6.08 -0.67,0.84 -1.34,5.06 -2.46,7.49 -0.14,0.3 -0.13,0.3 -0.29,0.57 -0.35,0.56 -0.14,0.25 -0.4,0.53 0.03,1.59 -2.87,6.75 -3.77,8.25 -4.58,7.65 -7.12,13.38 -15.61,18.54 -11.16,6.8 -38.79,12.03 -49.41,3.94l-2.93 -2.5c-1.04,-1.79 -2.72,-4.05 -3.16,-5.48l-2.48 -7.91c0.27,-2.08 -0.41,-4.84 -0.43,-7.1 -0.03,-2.36 0.27,-4.91 0.18,-7.18 -1.06,0.66 -2.17,1.88 -3.35,2.24 -0.93,1.51 -7.1,3.4 -10.21,3.17 -3.37,-0.24 -7.85,-2.73 -6.11,-5.78 0.7,-2.17 2.84,-4.02 5.28,-4.88 3.3,-1.17 6.07,0.83 6.61,3.06 -0.65,0.94 -1.84,2.22 -3.95,1.84 -1.43,-0.25 -2.33,-1.94 -3.41,-1.96 -0.42,2.74 1.04,4.28 3.6,4.83 3.7,0.79 5.36,-0.8 7.57,-1.18 0.45,-0.87 0.45,-0.75 1.29,-1.37 0.76,-1.12 1.49,-2.1 1.92,-3.63 0.6,-2.12 -0.08,-3.34 0.07,-5.09 -0.85,-0.75 -1.1,-1.92 -2,-2.71 -1.01,-0.88 -2.04,-1.03 -2.92,-1.73 -2.7,0.3 -6.98,-0.1 -9.42,1.42 -3.59,0.86 -5.84,3.79 -6.54,7.43 -0.92,1.19 -1.51,5.07 -2.63,5.79 -0.35,1.08 -0.62,1.41 -1.22,2.32 -0.26,0.39 -0.36,0.55 -0.65,0.99 -0.49,0.72 -0.23,0.24 -0.62,0.95 2.1,0.05 4.88,0.32 5.96,1.6 1.47,0.14 1.98,1.45 2.72,2.72 0.42,3.6 -0.51,3.49 -1.17,6.5 -0.05,1.21 -0.09,2.15 0.44,3.25 0.51,1.05 0.93,1.11 1.36,2.08 0.05,0.02 0.13,0.01 0.15,0.07 0.04,0.1 0.31,0.15 0.34,0.16 0.74,0.36 -0.03,0.14 0.8,0.47l6.18 4.03c3.46,2.21 2.16,2.63 3.8,6.06 0.53,2.41 1.27,3.31 3.87,3.85 2.01,0.41 5.02,0.74 7.12,1.01 3.48,1.04 3.71,0.84 5.72,3.58 6.26,8.53 7.99,-1.85 22.06,3.25 2.78,0.28 4.44,0.16 6.71,-0.87 1.89,-0.85 2.79,-1.82 4.26,-2.55 0.59,-0.53 0.86,-0.71 1.56,-1.18 0.3,-0.2 0.57,-0.43 0.81,-0.58 0.86,-0.55 0.07,-0.25 0.92,-0.41 0.62,-0.73 0.3,-0.53 1.32,-0.9 0.12,-0.21 0.01,-0.06 0.28,-0.38 0.02,-0.04 0.18,-0.14 0.2,-0.23 1.51,-0.4 14.81,-5.01 15.63,-5.02 0.53,-0.52 0.3,-0.33 1.07,-0.72 1.23,-0.64 1.8,-0.85 2.85,-2.14 0.99,-1.2 1.63,-3.03 2.03,-4.77 0.94,-4.09 2.19,-6.56 3.48,-10.14 6.69,-8.21 8.11,-16.16 11.39,-24.53l-21.15 -16.48zm21.15 16.48c0.6,-0.95 1.84,-2.98 2.19,-3.9 0.96,-2.51 -0.61,-3.08 -0.67,-4.88 -1,-0.79 -1.37,-2.34 -2.07,-3.45 -0.74,-1.19 -1.98,-2.37 -2.29,-3.11 -1.27,-0.54 -1.84,-1.08 -3.73,-1.49 -1.5,-0.33 -3.13,-0.56 -4.76,-0.56 -2.27,0 -8.24,0.13 -9.82,0.91l21.15 16.48zm-40.97 -30.43c2.32,0.61 7.04,1.89 8.22,3.36 0.8,0.09 1.17,0.28 1.75,0.74 0.56,0.44 0.9,0.84 1.08,1.4 0.9,2.73 -5.43,5.64 -10.56,3.61l-1.56 -0.58c0.18,0.52 1.44,1.49 2.06,1.9 2.57,1.66 8.77,3.48 10.44,2.37 0.39,-0.26 0.35,0.22 -0.12,-0.99 -1.44,-3.72 4.59,-2.14 7.72,-1.59 1.42,0.38 2.24,0.63 3.13,1.36 -1,-2.4 -5.22,-6.38 -7.71,-8.02 -0.68,-0.44 -2.79,-1.5 -3.18,-1.91 -2.28,-0.68 -4.35,-1.73 -6.97,-2.11 -2.87,-0.82 -6.02,-0.29 -8.24,-0.77l3.94 1.23zm-22.87 90.58l0.11 4.46c1.41,-1.99 1.23,-2.31 3.17,-3.72 1.37,-0.99 2.34,-2.04 3.57,-3.18 0.22,-2.61 -2.29,-4.47 -4.3,-2.68 -1.42,1.27 -2.01,3.05 -2.55,5.12zm30.75 -7.79l0.85 0.67c0.34,0.3 0.33,0.33 0.75,0.63 0.76,0.55 0.85,0.36 1.36,1.19 0.94,0.14 1.13,0.4 2.09,0.53 -0.84,-1.42 -1.51,-2.78 -1.78,-4.81 -0.29,-2.2 -0.67,-3.93 -3.81,-3.43 -1.5,0.67 -1.07,2.67 -0.22,3.92l0.76 1.3zm-52.32 1.55c-0.52,2.18 -1.12,3.74 -1.07,6.24 0.72,-1.06 1.26,-1.95 2.27,-2.6 0.94,-0.61 2.05,-1.39 3.26,-1.82 0.55,-0.98 2.62,-1.5 3.43,-2.45 1.06,-1.24 0.31,-3.53 -0.97,-4.15 -3.82,-1.84 -6.24,4.07 -6.92,4.78zm-16.64 -7.46l7.05 -2.78c2.8,-1.2 2.96,-4.79 -0.79,-5.31 -3.67,0.18 -8.25,6.03 -8.46,10.05 0.71,-0.81 1.2,-1.29 2.2,-1.96zm-14.98 -16.29c0.22,-0.72 0.23,-0.43 0.7,-0.66 0.12,-0.22 -0.2,-0.19 0.92,-0.89l4.24 -1.94c0.81,-0.76 3.66,-1.32 4.82,-2.34 1.76,-1.53 0.56,-3.83 -0.15,-5.08 -2.47,-0.52 -2.04,-1.08 -4.43,0.28 -3.75,2.11 -6.15,6.48 -6.77,10.72 0.04,0.02 0.1,0.09 0.11,0.09 0.02,0 0.13,0.02 0.15,0.02 0.03,0 0.34,-0.15 0.41,-0.2zm45.19 -12.07c-0.83,0.37 -0.93,0.64 -2,1.04 -0.4,-0.31 2.15,-8.31 2.26,-9.4 -1.16,-0.12 -1.36,-0.07 -2.25,-0.5 -0.19,-2.08 2.03,-3.46 4.34,-3.54 -0.76,-0.61 0.15,-0.22 -1.07,-0.37 -0.04,-0.01 -0.72,0.03 -0.77,0.04l-4.55 1.26c-0.64,0.7 -1.12,0.58 -1.84,1.49 -0.7,0.88 -0.73,1.63 -0.65,2.9 1.23,1.55 1.14,0.9 2.43,1.77 -0.14,0.11 -0.93,3.81 -1.11,4.01 -0.39,0.44 0.05,0.24 -0.61,0.59 -0.28,0.71 -1.37,1.82 -2.3,2.05 -1.56,0.38 -2.11,-0.74 -2.34,-1.92 -0.48,-0.62 -0.18,-2.69 -1.44,-3.26 -0.67,4.28 2.33,9.99 3.77,13.82 0,0.5 2.01,1.23 4,1 1.41,-0.16 0.92,-2.52 2.13,-2.19 4.64,0.56 4.47,0.36 8.45,-0.93 3.22,-1.04 3.78,1.18 5.55,-0.58 0.63,-0.63 0.57,-0.91 1.1,-1.1 0.64,-1.21 3.05,-3.82 5.7,-2.59 1.75,0.3 2.97,1.13 4.27,1.78 -0.25,-1.06 -1.4,-1.54 -2.25,-2.41l-4.05 -1.3 -4.55 0.36c-1.1,0.68 -1.63,0.67 -2.7,1.53 -0.99,0.79 -1.39,1.11 -2.86,1.36 -1.92,0.24 -4.99,0.39 -6.65,-0.29 0.18,-1.9 1.51,-1.84 2.69,-2.96l-2.7 -1.66zm2.7 1.66c0.68,-0.16 2.39,-0.82 3.68,-1.31 0.09,-0.12 -0.01,-0.02 0.35,-0.33 0.25,-0.22 0.36,-0.28 0.58,-0.47 0.77,-0.66 0.5,-0.59 1.35,-1.01 1.88,-2.42 2.29,-2.74 2.7,-6.4 0.27,-1.28 1.22,-1.35 2.92,-1.1 1.13,0.17 2.14,0.66 3.25,0.92 -0.34,-1.07 -0.3,-0.5 -0.87,-1.12l-1.07 -0.4c-5.47,-0.95 -5.83,-0.16 -9.88,1.41 -0.4,0.9 -0.42,0.03 -0.72,1.45 2.42,0.88 1.37,1.59 -0.81,3.74 -1.06,1.05 -2.6,1.9 -4.18,2.96l2.7 1.66zm-35.69 -38.79c-1.21,-3.29 -4.54,-7.49 -4.37,-12.9l0.84 1.24c0.08,0.18 0.16,0.39 0.26,0.56 0.47,0.74 0.2,0.35 0.57,0.68 0.13,1.85 4.03,6.79 5.23,8.25 2.19,2.67 4.5,4.66 7.22,6.63 1.41,0.86 2.95,1.75 4.59,2.51 1.01,0.46 4.11,1.54 4.8,2.05l4.15 1.03 2.48 0.12c-1.43,-0.04 -0.49,-0.19 -0.82,-0.45 -1.38,0.11 -3.75,-0.82 -4.55,-1.4l-4.67 -2.39c-0.04,-0.04 -0.11,-0.11 -0.16,-0.16 -1.09,-0.17 -1.77,-1 -2.67,-1.7l-2.02 -1.86c-0.35,-0.37 -0.1,-0.02 -0.36,-0.42 -0.86,-0.6 -3.09,-3.02 -3.47,-4.17 -0.95,-0.53 -3.84,-5.4 -4.57,-6.76 -0.56,-0.95 -1.51,-2.18 -1.26,-3.34 0.28,-1.31 1.48,-1.86 3.24,-1.62l0.76 0.21 2.25 0.58 3.67 0.92c2.67,1.29 13.19,2.24 16.89,2.65 3.84,0.06 7.54,-0.1 11.28,-0.48 2.55,-0.26 8.51,-1.78 9.84,-1.74 0.8,-0.67 4.88,-1.83 6.13,-2.16 0.67,-0.54 3.29,-1.64 4.14,-2.11 1.48,-0.81 2.77,-1.73 4.27,-2.41 0.03,-0.04 0.09,-0.15 0.11,-0.12l1.26 -1.24c-0.75,0.93 -12.1,5.11 -14.81,5.59 -2.14,1.34 -11.72,2.46 -15.1,2.64 -3.63,0.2 -13.6,-0.59 -15.69,-2.48 -1.38,-0.04 -3.95,-1.38 -5.06,-1.98 -1.95,-1.08 -3.69,-1.4 -3.54,-3.72 2.41,-1.67 9.43,-2.2 11.21,-1.93 0.74,-0.37 -0.12,-0.08 0.95,-0.28l3.47 -0.37c1.42,-0.16 2.9,-0.4 4.31,-0.64 7.73,-1.3 14.45,-3.15 21.35,-6.21 0.26,-0.11 0.57,-0.25 0.77,-0.37 0.65,-0.36 0.43,-0.12 0.59,-0.45 4.52,-1.43 5.68,-4.48 7.99,-6.84 -0.64,0.48 -1.22,0.88 -1.98,1.39 -1.04,0.7 -2.99,1.85 -4.23,2.37 -1.96,1.43 -7.75,3.76 -10.96,4.3 -4.82,2.26 -13.22,1.91 -17.19,3.19 -6.17,0.21 -14.37,-0.48 -18.34,-5.03 -0.45,-0.51 -0.79,-1.31 -1.25,-1.82l-1.73 1.79c-1.29,0.65 -1.27,1.5 -2.08,2.15 -1.73,1.4 -1.98,0.45 -2,0.43 -0.95,-0.92 -0.58,-3.21 0.07,-4.28l-0.3 -1.28c-2.2,-2.16 -0.79,-2.27 -0.39,-2.94 -0.27,-0.54 -0.28,-0.42 -1.3,-1.03l-0.52 -0.3c-0.21,2.62 -0.89,-1.22 -1.49,1.59 -2.14,0 -0.59,0.15 -1.09,-0.61 -1.11,1.25 -2.25,2.43 -3.48,3.88 -0.81,0.97 -2.37,2.95 -2.98,4.21 -1.87,2.53 -4.42,7.54 -5.37,11.06 -1.93,3.71 -2.91,12.87 -2.58,17.87 0.41,6.33 3.05,15.71 4.55,18.08 0.15,1.66 2.2,4.3 2.6,7.04l3.64 6.08c0.42,-0.2 0.67,-0.35 0.99,-0.55l2.29 -5.36c0.41,-1.42 0.65,-2.82 1.28,-4.11 0.78,-1.61 2.1,-2.44 2.81,-3.53 1.23,-0.48 1.69,-1.6 5.87,-2.39 5.16,-0.97 7.23,0.18 8.16,-0.62l-1.85 -1.6c-1.55,-0.67 -5.65,-4.56 -7.03,-6.12l-5.62 -6.82 0 0zm-15.01 -26.31c1.97,-3.82 4.7,-7.25 7.25,-10.16 3.37,-3.84 9.53,-6.47 10.5,-7.57 15.34,-6.33 14.85,-4.99 31.52,-7.62 2.74,0.15 4.69,0.39 7.29,0.94 8.32,1.79 7.74,2.71 11.96,4.02 0.51,-0.54 0.59,-0.97 0.92,-1.72 0.14,-0.31 0.26,-0.62 0.46,-0.91l0.75 -0.76c0.36,-2.11 8.52,-3.24 9.81,-2.63 0.72,0.3 0.97,-0.26 -0.09,0.37 -1.79,0.49 -7.02,2.52 -7.97,3.64 -1.43,3.49 -1.05,2 -0.3,5.63 0.68,0.59 0.59,0.72 1.19,1.35 0.49,0.52 0.89,0.89 1.43,1.34 1.93,1.62 7.94,1.39 7.84,1.83 1.62,-0.44 3.11,-1.05 4.92,-0.57 1.72,0.65 4.33,0.74 6.16,0.87 1.86,0.14 3.24,1.35 4.69,1.78 0.89,0.63 2.54,0.79 3.12,2.31 -0.34,1.27 -2.24,2.48 -3.55,2.52 -0.06,0.05 -0.15,0.05 -0.18,0.14 -0.12,0.34 -1.87,0.78 -2.32,0.87l0.37 0.04c2.78,-0.05 6.36,-0.4 9.03,0 4.2,0.64 2.79,2.28 1.94,4.67 4.28,-0.88 3.9,-2.09 5.31,-2.63 0.95,-2.6 1.92,-3.06 1.8,-6.68 -1.09,0.43 -0.74,0.57 -1.87,1.16 0.3,-1.93 0.39,-2.38 -0.06,-4.31l-0.53 1.14c0.13,1.61 -1.64,2.59 -3.47,2.9l-0.64 -0.81c-0.18,-0.28 -0.29,-0.56 -0.45,-0.91 -0.3,-0.63 -0.47,-0.96 -0.84,-1.61 -0.62,-1.06 -2.42,-3.2 -2.83,-4.29 0.49,0.36 4.43,-0.39 5.26,-0.4 1.51,0 5.66,-2.56 6.83,-2.87 0.96,1.41 0.89,3.71 0.61,5.35 -0.06,1.41 -0.17,0.57 0.45,0.96 0.49,-0.88 0.04,-0.43 0.92,-0.94 0.14,-0.94 0.4,-0.88 0.92,-1.96 1.27,-2.61 1.13,-4.91 1.65,-6.81 2.2,0.6 3.27,2.66 4.77,3.84 -0.64,-2.15 -2.55,-3.41 -3.58,-4.74 -0.37,-0.16 -2.28,-1.44 -2.65,-1.83 -0.57,-0.6 -1.24,-1.89 -1.48,-2.64 -4.08,0.19 -3.21,0.9 -6.07,-0.53 -0.24,-0.67 -0.5,-1.22 -0.6,-2.18 -4.49,-0.37 -5.91,-0.83 -6.8,-4.74 -1.54,-2.89 0.82,-3.11 -3.21,-5.17 -2.3,-1.18 -4.59,-1.44 -6.95,-0.95 -8.62,0.42 -17.17,-7.43 -18.68,-7.84l-1.29 -0.34c0.28,1.64 -0.46,0.55 0.73,1.42 -1.66,-0.3 -2.1,-1.34 -2.77,-1.95 0.1,0.55 0.41,1.21 0.31,1.64 -0.34,1.38 -0.76,-1.12 -0.49,0.96 0.18,0.68 0.23,0.5 0.64,1.23 0.99,0.29 1.04,0.67 1.62,1.34l4.64 4.42c-1.9,-0.07 -3.52,-0.67 -5,-1.5 -0.97,-0.55 -3.28,-1.93 -3.61,-2.7 -1.89,-0.68 -1.7,-1.34 -2.9,-1.94 -2.28,1.35 -4.36,2.21 -7.47,2.97 -2.19,0.54 -7.11,1.79 -9.13,1.57 -1.32,0.77 -8.84,1.4 -10.65,1.04l-3.68 0.65c1.83,-0.36 10.62,1.33 12.39,1.86 -6.32,0.56 -12.35,0.45 -18.73,1.27 -3.55,0.45 -13.53,2.05 -16.04,3.34 -3.29,0.72 -6.51,2.03 -9.16,3.37 -1.39,0.71 -2.64,1.51 -3.67,2.25 -1.06,0.77 -2.25,2.15 -3.37,2.56 -0.22,0.97 -0.58,0.9 -1.13,1.99 3,-0.6 5.64,-2.18 8.95,-2.71l-9.99 9.15c-4.47,4.57 -10.42,12.41 -11.53,18.58l-0.26 3.18 0.77 -0.48c0.52,-0.8 2.11,-2.02 3.02,-2.57 0.11,-0.94 3.35,-2.63 4.27,-2.91l-3.38 6.82 -0.74 2.73c-1.25,1.16 -3.71,10.08 -4.31,12.35 -1.7,6.49 -0.81,9.02 0.86,14.12l0.51 -0.99c0.09,-0.33 0.12,-0.97 0.2,-1.35 0.22,-1 0.62,-1.42 1.11,-1.99 0.05,0.05 0.13,0.07 0.15,0.16l3.73 6.42c3.59,5.54 7.93,11.37 13.14,15.76 0.59,0.5 1.12,0.62 1.35,1.18l1 0.52 1.02 0.46 -1.47 -2.45c-1.53,-1.02 -5.78,-9.67 -6.81,-12.3 -1.02,-2.58 -1.57,-4.66 -2.25,-7.36 -0.37,-1.49 -0.85,-7.18 -1.38,-7.9 0.39,-1.92 0.16,-5.12 0.42,-7.38 0.25,-2.19 0.74,-4.28 1.29,-6.42 0.94,-3.71 2.55,-7.77 4.46,-10.82l0.08 -0.14zm88.73 -5.71c-2.15,1.71 -7.63,5.16 -11.03,6.18 -0.63,0.82 -6.99,2.83 -8.59,3.1 -1.21,0.71 -8.19,2.11 -10.29,2.45 -3.99,0.65 -8.04,1.08 -12.22,1.22 -2.41,0.14 -4.97,0.1 -7.41,0.1 -2.88,-0.01 -5.91,-0.57 -7.23,0.66 0.56,1.74 3.48,2.08 5.57,2.31 4.4,0.59 8.95,0.26 13.36,-0.14 2.94,-0.27 10.04,-1.93 11.96,-1.83 1.11,-0.71 10.02,-2.64 17.25,-7.07 0.7,-0.42 1.57,-1.06 2.37,-1.2 0.95,-1.12 2.64,-2.14 3.81,-3 0.83,-0.6 2.81,-2.63 3.76,-3 0.09,-1.16 0.12,-0.27 -0.15,-0.55l-1.16 0.77zm-110.43 -25.11c-0.45,1.67 -0.58,1.87 -0.46,3.72 2.15,7.65 4.69,5.97 4.03,9.54 -1.21,0.21 -3.58,-1.16 -4.6,-1.73 -1.31,-0.75 -2.76,-1.78 -2.59,-3.53 -0.59,-0.49 -0.9,-1.21 -2.45,-2.45 -0.66,-0.54 -2.31,-1.18 -2.66,-1.53 -2.51,-0.53 -4.58,-1.03 -6.82,0.23 5.88,0.42 6.97,0.78 7.75,5.96 0.36,2.42 2.28,1.18 3.98,2.99l3.47 3.26c1.39,0.34 4.34,1.36 5.73,1.92 3.03,1.24 2.36,1.73 2.29,4.81 3.28,-5.61 4.99,-7.14 9.26,-11.41 -1.39,0.5 -3.62,2.49 -5.2,1.84 -1.56,-1.31 -1.09,-5.17 0.11,-6.39 1.83,-1.1 3.02,1.33 4.4,-3.71l-1.59 -2.38c-0.66,-0.72 -1.47,-1 -1.75,-1.83 -0.88,-0.42 -2.63,-1.64 -3.32,-1.72 0.67,0.32 0.17,0.05 0.65,0.37 0.88,0.6 2.33,2.37 2.56,3.27 0.83,3.3 -2.14,1.23 -4.04,1.44 -0.39,1.35 -1.01,1.67 -1.19,3.9 -0.13,1.56 -0.08,3.21 -0.13,4.78 -1.88,-0.87 -4.23,-7.12 -3.68,-9.2 0.95,-0.31 1.1,0 2.01,-0.53l-0.41 -1.6c-0.04,-0.03 -0.1,-0.08 -0.12,-0.1l-0.47 -0.96c-1.52,-0.75 -1.31,-1.83 -4.01,-2.76 -0.85,-0.74 -3.41,-0.94 -4.7,-0.58 2.35,0.68 3.37,0.41 4.97,1.83 0.14,1.26 -0.55,2.13 -1.02,2.55zm80.3 -34.61c0.54,0.48 2.8,5.69 3.46,6.82 0.64,1.08 1.39,2.24 2.04,3.15 0.89,1.26 1.8,2.16 2.37,3.4l2.09 2.3c0.71,0.81 1.48,1.82 2.48,2.38 -0.27,-2.08 0.15,0.42 0.49,-0.96 0.1,-0.43 -0.21,-1.09 -0.31,-1.64 0.67,0.61 1.11,1.65 2.77,1.95 -1.19,-0.87 -0.45,0.22 -0.73,-1.42l1.29 0.34c-0.54,-0.85 -1.19,-1.07 -2.05,-1.76 -1.12,-0.9 -1.54,-1 -1.61,-1.72 -1.14,-0.48 -0.65,-0.18 -0.8,-0.67 -1.64,-0.77 -7.39,-7.57 -7.87,-8.57 -0.91,-0.91 -1.63,-2.17 -2.51,-3.39l-1.14 -1.77 0.03 1.56zm42.64 34c-3.82,-0.07 -6.09,-2.65 -7.3,-5.35 1.53,0.33 3.34,1.01 4.95,1.5 1.74,0.54 1.96,1.51 2.35,3.85z"/>
  </g>
  <g>
   <path class="fil5" d="M138.47 437.54l22.68 0 8.98 -25.8c6.34,-17.68 25.05,-20.45 25.05,-12.76 0,3.5 -4.76,15.62 -6.27,19.44l-6.58 19.12 21.92 0c6.1,-11.53 9.9,-42.34 27.98,-42.34 11.02,0 7.12,3.46 0.48,23.16 -1.48,4.4 -6.24,15.76 -6.53,19.18l21.93 0c2.89,-6.02 5.17,-14.36 7.67,-21.06 1.3,-3.47 7.45,-18.65 7.45,-22.04 0,-19.08 -29.6,-13.83 -44.61,-3.78 -0.28,-3.38 -3.02,-5.42 -5.28,-6.82 -8.11,-5.02 -23.8,-1.05 -32.29,3.28 -2.41,1.23 -3.65,2.57 -6.29,2.79 -0.87,-3.27 -2.85,-4.8 -5.77,-6.33 -3.33,-1.74 -6.05,-1.99 -10.86,-1.99 -0.22,2.59 -1.14,4.76 -2.05,7.03 -1.06,2.65 -1.61,4.59 -2.6,7.23l-15.01 41.69z"/>
   <path class="fil5" d="M269.28 400.49c0,12.89 24.2,15.31 24.2,21.17 0,12.95 -33.2,5.7 -34.03,5.3 -1.29,2.44 -2.74,4.9 -3.02,8.32 13.63,3.17 36.54,4.2 49.11,-2.31 8.06,-4.18 11.38,-7.97 11.38,-15.84 0,-11.75 -23.44,-11.43 -23.44,-21.17 0,-9.18 27.09,-5.4 34.02,-3.78 1.28,-2.42 2.33,-5.32 3.03,-8.32 -3.63,-0.3 -6.38,-1.27 -10.59,-1.52 -15.62,-0.92 -34.32,-2.54 -45.96,9.24 -1.76,1.78 -4.7,5.85 -4.7,8.91z"/>
   <path class="fil5" d="M319.19 437.54l22.68 0c0.23,-2.7 9.64,-27 11.25,-31.85 1.03,-3.09 2.59,-7.82 3.87,-10.49 -6.74,0 -12.38,0.72 -18.21,1.44 -7.73,0.97 -4.82,0.87 -9.01,11.41 -1.88,4.76 -3.46,9.68 -5.19,14.47 -0.97,2.67 -1.64,4.19 -2.65,7.18 -1.02,3.04 -2.03,4.8 -2.74,7.84z"/>
   <path class="fil5" d="M338.09 383.86c-0.34,4.13 -1.96,4.63 -2.27,8.32 3.92,0 7.77,-1.21 11.39,-1.47 4.22,-0.31 8.46,-0.8 12.05,-0.8 0.35,-4.14 1.96,-4.63 2.27,-8.32 -10.14,0 -15.88,1.64 -23.44,2.27z"/>
  </g>
  <path class="fil3" d="M148.99 110.4l-3.57 2.01c-0.21,0.12 -0.35,0.26 -0.4,0.42 -0.06,0.16 -0.05,0.38 0.02,0.68l-0.35 0.19 -1.88 -3.35 0.34 -0.2c0.22,0.22 0.41,0.35 0.57,0.38 0.16,0.03 0.35,-0.01 0.57,-0.13l6.84 -3.85 0.19 0.34c-0.21,0.21 -0.33,0.4 -0.37,0.57 -0.03,0.17 0.01,0.36 0.13,0.58l1.67 2.96c0.12,0.22 0.27,0.36 0.43,0.42 0.15,0.05 0.38,0.05 0.68,-0.03l0.14 0.26c-1.85,3.12 -4.07,5.4 -6.63,6.85 -2.34,1.31 -4.55,1.83 -6.64,1.55 -2.64,-0.36 -4.66,-1.77 -6.06,-4.26 -1.3,-2.31 -1.52,-4.62 -0.64,-6.91 0.83,-2.18 2.55,-4 5.14,-5.46 0.82,-0.46 1.64,-0.83 2.45,-1.09 0.82,-0.25 1.79,-0.47 2.92,-0.63 0.58,-0.08 0.98,-0.18 1.18,-0.29 0.15,-0.09 0.28,-0.27 0.39,-0.54l0.39 -0.01 0.25 4.41 -0.4 0.01c-0.14,-0.22 -0.26,-0.37 -0.38,-0.44 -0.11,-0.07 -0.31,-0.12 -0.59,-0.16 -0.61,-0.08 -1.4,0 -2.35,0.24 -0.97,0.24 -1.82,0.57 -2.56,0.98 -1.5,0.85 -2.52,1.98 -3.03,3.39 -0.58,1.59 -0.43,3.17 0.46,4.75 0.86,1.52 2.1,2.44 3.72,2.77 1.49,0.3 3.05,-0.02 4.69,-0.94 0.8,-0.45 1.53,-0.99 2.21,-1.61 0.67,-0.62 1.2,-1.24 1.58,-1.88l-1.11 -1.98zm17.72 -6.25l-6.84 2.99 -0.09 2.6c-0.01,0.36 0.02,0.62 0.09,0.79 0.14,0.33 0.49,0.45 1.05,0.36l0.16 0.36 -5.02 2.2 -0.16 -0.36c0.27,-0.2 0.45,-0.4 0.54,-0.61 0.09,-0.22 0.14,-0.59 0.15,-1.1l0.48 -14.09c0.02,-0.45 -0.02,-0.79 -0.12,-1.01 -0.15,-0.34 -0.47,-0.49 -0.97,-0.45l-0.16 -0.36 5.38 -2.36 0.16 0.37c-0.38,0.32 -0.5,0.63 -0.37,0.94 0.09,0.21 0.27,0.43 0.53,0.64l10.89 9.16c0.46,0.39 0.82,0.63 1.09,0.73 0.26,0.1 0.56,0.11 0.9,0.04l0.16 0.36 -5.6 2.45 -0.16 -0.36c0.45,-0.3 0.59,-0.63 0.43,-1.01 -0.07,-0.16 -0.25,-0.36 -0.53,-0.6l-1.99 -1.68zm-1.85 -1.66l-4.78 -4.29 -0.14 6.44 4.92 -2.15zm20.81 -0.55l-9.22 -9.12 3.02 9.7c0.07,0.24 0.18,0.41 0.33,0.5 0.14,0.09 0.36,0.13 0.66,0.12l0.12 0.38 -4.62 1.44 -0.12 -0.38c0.25,-0.17 0.41,-0.32 0.48,-0.48 0.07,-0.16 0.07,-0.36 -0.01,-0.6l-4.16 -13.38c-0.07,-0.23 -0.18,-0.39 -0.33,-0.48 -0.14,-0.09 -0.36,-0.13 -0.66,-0.12l-0.12 -0.38 6.07 -1.89 0.12 0.38c-0.33,0.2 -0.45,0.47 -0.35,0.81 0.05,0.15 0.16,0.31 0.33,0.48l6.83 6.8 1.88 -9.36c0.08,-0.41 0.09,-0.7 0.04,-0.86 -0.09,-0.32 -0.34,-0.44 -0.74,-0.36l-0.12 -0.37 5.98 -1.86 0.12 0.38c-0.26,0.16 -0.41,0.32 -0.48,0.48 -0.07,0.15 -0.07,0.35 0,0.58l4.16 13.38c0.08,0.24 0.19,0.41 0.33,0.49 0.15,0.09 0.37,0.13 0.67,0.13l0.12 0.38 -4.93 1.53 -0.12 -0.38c0.24,-0.15 0.4,-0.31 0.47,-0.47 0.08,-0.16 0.07,-0.36 0,-0.6l-3.02 -9.71 -2.73 12.84zm13.79 -5.11l-3.18 -13.65c-0.05,-0.24 -0.15,-0.41 -0.29,-0.51 -0.14,-0.1 -0.35,-0.16 -0.65,-0.17l-0.09 -0.39 5.03 -1.17 0.09 0.39c-0.27,0.14 -0.44,0.28 -0.52,0.44 -0.07,0.15 -0.09,0.35 -0.03,0.59l3.17 13.65c0.06,0.24 0.16,0.41 0.3,0.52 0.14,0.1 0.36,0.16 0.65,0.16l0.09 0.39 -5.03 1.17 -0.09 -0.39c0.26,-0.14 0.43,-0.29 0.51,-0.44 0.08,-0.15 0.09,-0.35 0.04,-0.59zm20.93 -8.89l-4.03 0.71c-0.25,0.04 -0.43,0.13 -0.53,0.26 -0.1,0.13 -0.17,0.35 -0.2,0.65l-0.39 0.06 -0.67 -3.79 0.39 -0.07c0.14,0.28 0.27,0.47 0.41,0.55 0.15,0.08 0.34,0.11 0.59,0.06l7.72 -1.36 0.07 0.39c-0.27,0.13 -0.44,0.27 -0.54,0.42 -0.08,0.14 -0.11,0.34 -0.06,0.59l0.58 3.34c0.05,0.25 0.13,0.43 0.27,0.53 0.13,0.11 0.34,0.18 0.65,0.21l0.05 0.29c-2.78,2.33 -5.63,3.74 -8.53,4.25 -2.64,0.47 -4.9,0.22 -6.78,-0.74 -2.37,-1.21 -3.81,-3.22 -4.3,-6.03 -0.46,-2.61 0.1,-4.86 1.69,-6.73 1.51,-1.78 3.73,-2.93 6.66,-3.44 0.93,-0.16 1.82,-0.24 2.68,-0.21 0.85,0.03 1.84,0.15 2.96,0.37 0.58,0.12 0.98,0.16 1.21,0.12 0.17,-0.03 0.35,-0.16 0.54,-0.38l0.37 0.12 -1.23 4.24 -0.38 -0.12c-0.05,-0.26 -0.12,-0.44 -0.2,-0.54 -0.09,-0.11 -0.25,-0.22 -0.51,-0.35 -0.55,-0.28 -1.32,-0.46 -2.3,-0.56 -0.99,-0.09 -1.9,-0.06 -2.73,0.09 -1.71,0.3 -3.04,1.02 -3.99,2.18 -1.08,1.31 -1.46,2.85 -1.14,4.63 0.3,1.73 1.17,3.01 2.59,3.86 1.3,0.77 2.88,0.99 4.73,0.67 0.91,-0.16 1.78,-0.43 2.62,-0.79 0.84,-0.36 1.55,-0.77 2.12,-1.25l-0.39 -2.23z"/>
  <path class="fil3" d="M291.59 79.12l-2.41 3.32 -0.29 -0.23c0.02,-0.07 0.04,-0.13 0.04,-0.18 0.05,-0.25 -0.13,-0.57 -0.52,-0.93 -1.18,-1.14 -2.67,-1.86 -4.47,-2.15 -0.79,-0.13 -1.51,-0.15 -2.15,-0.05 -0.47,0.08 -0.86,0.24 -1.19,0.5 -0.32,0.26 -0.51,0.56 -0.57,0.92 -0.09,0.58 0.19,1.03 0.86,1.35 0.34,0.16 1.09,0.4 2.26,0.71l1.73 0.47c1.03,0.28 1.86,0.57 2.48,0.87 0.61,0.3 1.14,0.67 1.59,1.1 0.45,0.45 0.77,1 0.97,1.65 0.2,0.65 0.24,1.31 0.13,2 -0.17,1.07 -0.68,1.98 -1.51,2.71 -0.75,0.66 -1.82,1.07 -3.21,1.22 -1.03,0.12 -2.11,0.09 -3.25,-0.1 -2.03,-0.32 -3.95,-1.14 -5.77,-2.43 -0.39,-0.26 -0.62,-0.4 -0.71,-0.41 -0.09,-0.02 -0.26,0.04 -0.5,0.17l-0.3 -0.22 2.28 -3.49 0.3 0.21c-0.01,0.06 -0.02,0.11 -0.02,0.14 -0.06,0.34 0.05,0.68 0.32,1.01 0.42,0.52 1.12,1.01 2.08,1.49 0.97,0.48 1.91,0.8 2.83,0.94 0.99,0.17 1.87,0.14 2.63,-0.09 0.42,-0.12 0.77,-0.32 1.05,-0.6 0.29,-0.27 0.46,-0.58 0.51,-0.91 0.08,-0.51 -0.13,-0.92 -0.64,-1.23 -0.36,-0.21 -1.11,-0.48 -2.25,-0.79l-1.71 -0.46c-1.14,-0.31 -1.94,-0.56 -2.41,-0.75 -0.46,-0.18 -0.91,-0.43 -1.35,-0.75 -0.63,-0.45 -1.08,-1.05 -1.36,-1.78 -0.26,-0.67 -0.32,-1.4 -0.19,-2.18 0.21,-1.31 0.83,-2.31 1.86,-3.01 1.35,-0.93 3.2,-1.21 5.54,-0.83 0.98,0.16 1.88,0.41 2.69,0.74 0.82,0.34 1.82,0.88 3,1.62 0.41,0.24 0.66,0.37 0.76,0.38 0.15,0.03 0.35,-0.03 0.59,-0.17l0.28 0.22zm5.58 8.73l-0.95 4.16 9.72 2.24c0.23,0.05 0.41,0.03 0.55,-0.04 0.14,-0.08 0.28,-0.24 0.41,-0.48l0.37 0.08 -0.9 3.91 -0.36 -0.09c-0.02,-0.28 -0.07,-0.48 -0.17,-0.61 -0.09,-0.13 -0.25,-0.22 -0.47,-0.27l-13.75 -3.16 0.08 -0.37c0.29,-0.01 0.49,-0.06 0.62,-0.16 0.13,-0.09 0.22,-0.25 0.27,-0.48l2.95 -12.82c0.05,-0.23 0.04,-0.41 -0.04,-0.55 -0.07,-0.15 -0.23,-0.28 -0.48,-0.42l0.08 -0.36 13.48 3.09c0.22,0.05 0.4,0.04 0.54,-0.03 0.15,-0.08 0.29,-0.24 0.42,-0.49l0.36 0.09 -0.9 3.9 -0.36 -0.08c-0.01,-0.28 -0.07,-0.48 -0.16,-0.61 -0.1,-0.13 -0.25,-0.23 -0.47,-0.28l-9.46 -2.17 -0.82 3.59 6.13 1.41c0.22,0.05 0.41,0.04 0.55,-0.04 0.14,-0.07 0.28,-0.23 0.41,-0.48l0.36 0.09 -0.87 3.81 -0.37 -0.08c-0.01,-0.27 -0.07,-0.48 -0.16,-0.61 -0.09,-0.13 -0.25,-0.23 -0.47,-0.28l-6.14 -1.41zm17.64 5l-1.62 4.89c-0.07,0.21 -0.07,0.4 -0.01,0.55 0.07,0.16 0.21,0.3 0.44,0.45l-0.11 0.36 -4.61 -1.52 0.12 -0.36c0.28,0.01 0.49,-0.02 0.62,-0.1 0.14,-0.09 0.25,-0.23 0.32,-0.45l4.12 -12.5c0.08,-0.22 0.08,-0.41 0.02,-0.55 -0.06,-0.15 -0.21,-0.31 -0.44,-0.46l0.11 -0.36 9.25 3.05c1.12,0.38 1.99,0.74 2.61,1.08 0.62,0.35 1.12,0.77 1.5,1.26 0.45,0.56 0.71,1.21 0.78,1.95 0.06,0.7 -0.03,1.41 -0.26,2.12 -0.8,2.42 -2.6,3.38 -5.42,2.91l1.53 5.01c0.27,0.88 0.49,1.46 0.65,1.75 0.17,0.28 0.42,0.48 0.75,0.62l-0.12 0.35 -5.34 -1.76 0.12 -0.35c0.39,0.06 0.61,-0.01 0.68,-0.21 0.04,-0.13 -0.03,-0.5 -0.2,-1.11l-1.58 -5.33 -3.91 -1.29zm0.8 -2.44l4.98 1.64c0.74,0.24 1.26,0.4 1.58,0.45 0.32,0.06 0.63,0.06 0.92,0.01 0.65,-0.12 1.1,-0.56 1.36,-1.33 0.25,-0.78 0.15,-1.4 -0.3,-1.88 -0.21,-0.23 -0.46,-0.41 -0.73,-0.55 -0.28,-0.14 -0.8,-0.33 -1.55,-0.57l-4.98 -1.65 -1.28 3.88zm12.23 12.47l4.88 -12.22c0.08,-0.21 0.1,-0.39 0.05,-0.54 -0.06,-0.15 -0.19,-0.32 -0.42,-0.49l0.14 -0.34 4.51 1.8 -0.14 0.34c-0.28,-0.03 -0.49,-0.02 -0.63,0.06 -0.15,0.08 -0.26,0.22 -0.35,0.44l-4.88 12.22c-0.08,0.21 -0.1,0.4 -0.05,0.56 0.06,0.16 0.2,0.31 0.42,0.48l-0.14 0.34 -4.51 -1.8 0.14 -0.34c0.28,0.03 0.49,0 0.63,-0.07 0.15,-0.07 0.26,-0.22 0.35,-0.44zm12.74 -0.6l-1.9 3.82 8.92 4.46c0.21,0.1 0.39,0.13 0.54,0.09 0.16,-0.04 0.33,-0.16 0.52,-0.37l0.33 0.17 -1.79 3.58 -0.34 -0.16c0.06,-0.28 0.05,-0.49 -0.01,-0.64 -0.06,-0.15 -0.19,-0.27 -0.4,-0.38l-12.61 -6.3 0.16 -0.34c0.28,0.05 0.49,0.05 0.64,-0.01 0.15,-0.06 0.28,-0.2 0.38,-0.41l5.88 -11.76c0.11,-0.21 0.14,-0.39 0.1,-0.55 -0.04,-0.15 -0.16,-0.33 -0.37,-0.52l0.16 -0.33 12.37 6.18c0.2,0.11 0.38,0.13 0.54,0.1 0.16,-0.05 0.33,-0.17 0.52,-0.38l0.33 0.17 -1.79 3.59 -0.34 -0.17c0.06,-0.27 0.05,-0.48 -0.01,-0.64 -0.06,-0.14 -0.19,-0.27 -0.39,-0.37l-8.68 -4.34 -1.65 3.3 5.63 2.81c0.2,0.1 0.38,0.13 0.54,0.09 0.15,-0.04 0.33,-0.16 0.52,-0.37l0.33 0.17 -1.75 3.5 -0.34 -0.16c0.06,-0.27 0.05,-0.48 -0.01,-0.64 -0.06,-0.15 -0.19,-0.27 -0.39,-0.38l-5.64 -2.81zm23.98 4.86l-3.46 2.21 -0.18 -0.32c0.05,-0.06 0.08,-0.11 0.11,-0.15 0.13,-0.22 0.08,-0.58 -0.15,-1.06 -0.68,-1.49 -1.81,-2.71 -3.38,-3.64 -0.69,-0.41 -1.35,-0.68 -1.99,-0.83 -0.46,-0.09 -0.89,-0.08 -1.28,0.04 -0.39,0.12 -0.68,0.33 -0.87,0.64 -0.29,0.5 -0.19,1.03 0.3,1.57 0.26,0.28 0.88,0.77 1.85,1.49l1.44 1.07c0.86,0.64 1.52,1.21 1.99,1.72 0.46,0.5 0.82,1.03 1.08,1.6 0.25,0.59 0.35,1.22 0.3,1.89 -0.05,0.68 -0.25,1.31 -0.61,1.91 -0.55,0.94 -1.35,1.6 -2.39,1.97 -0.95,0.34 -2.09,0.33 -3.44,-0.03 -1,-0.27 -2,-0.7 -2.99,-1.28 -1.77,-1.05 -3.26,-2.51 -4.48,-4.38 -0.27,-0.38 -0.44,-0.6 -0.51,-0.64 -0.08,-0.05 -0.26,-0.06 -0.53,-0.02l-0.2 -0.32 3.4 -2.42 0.2 0.31c-0.03,0.06 -0.06,0.1 -0.07,0.13 -0.18,0.29 -0.2,0.64 -0.07,1.06 0.2,0.63 0.67,1.34 1.39,2.14 0.73,0.8 1.49,1.44 2.29,1.91 0.87,0.52 1.7,0.81 2.48,0.88 0.44,0.04 0.84,-0.02 1.2,-0.17 0.37,-0.16 0.63,-0.38 0.81,-0.67 0.26,-0.45 0.21,-0.91 -0.15,-1.38 -0.26,-0.33 -0.86,-0.85 -1.81,-1.56l-1.42 -1.05c-0.94,-0.7 -1.6,-1.23 -1.97,-1.57 -0.36,-0.34 -0.69,-0.75 -0.98,-1.2 -0.42,-0.65 -0.63,-1.37 -0.62,-2.16 0.01,-0.71 0.22,-1.41 0.62,-2.1 0.68,-1.13 1.62,-1.84 2.83,-2.12 1.6,-0.37 3.42,0.05 5.47,1.26 0.85,0.51 1.6,1.07 2.23,1.68 0.64,0.61 1.37,1.47 2.2,2.59 0.29,0.37 0.48,0.58 0.56,0.64 0.14,0.08 0.34,0.1 0.61,0.05l0.19 0.31z"/>
 </g>
</svg>
