<?xml version="1.0" encoding="UTF-8"?>
<!DOCTYPE svg PUBLIC "-//W3C//DTD SVG 1.1//EN" "http://www.w3.org/Graphics/SVG/1.1/DTD/svg11.dtd">
<!-- Creator: CorelDRAW 2017 -->
<svg xmlns="http://www.w3.org/2000/svg" xml:space="preserve" width="500px" height="500px" version="1.1" style="shape-rendering:geometricPrecision; text-rendering:geometricPrecision; image-rendering:optimizeQuality; fill-rule:evenodd; clip-rule:evenodd"
viewBox="0 0 500 500"
 xmlns:xlink="http://www.w3.org/1999/xlink">
 <defs>
  <style type="text/css">
   <![CDATA[
    .str0 {stroke:#D5FF00;stroke-width:25;stroke-miterlimit:22.9256}
    .fil0 {fill:#3B4A35}
    .fil1 {fill:#D5FF00}
   ]]>
  </style>
 </defs>
 <g id="Слой_x0020_1">
  <metadata id="CorelCorpID_0Corel-Layer"/>
  <circle class="fil0 str0" cx="250" cy="250" r="230.97"/>
 </g>
 <g id="Слой_x0020_1_0">
  <metadata id="CorelCorpID_1Corel-Layer"/>
  <g id="_2453008222272">
   <path class="fil1" d="M95.86 347.43c36.18,1.52 29.51,0.23 29.98,-14.81l2.17 -67.18c0.85,-27.21 -0.31,-61.53 2.28,-87.81l36.75 163.51c1.99,8.41 0.66,6.31 26.17,6.31 7.78,0 5.91,-2.34 9.84,-16.84 13.11,-48.43 27.21,-103.91 38.1,-152.15 1.44,8.71 1.03,107.46 1.24,125.82 0.05,4.45 -0.79,39.91 2.04,42.3 4.17,2.36 24.35,1.29 30.63,0.59 2.26,-6.06 -3.71,-127.66 -4.58,-151.34l-1.29 -37.84c-0.31,-10.72 3.42,-7.83 -39.35,-7.83 -7.46,0 -5.31,-0.51 -9.23,13.97l-15.51 57.69c-3.46,12.7 -6.59,25.5 -9.99,38.29 -3.12,11.71 -5.63,26.97 -9.52,37.82 -3.22,-12.55 -5.23,-25.53 -8.06,-38.13 -2.88,-12.83 -5.76,-25.64 -8.64,-38.39l-13.86 -56.99c-0.72,-2.99 -1.22,-6.17 -2.22,-9.48 -1.47,-4.93 -1.49,-4.78 -6.71,-4.78l-35.38 0c-7.39,0 -5.34,3.7 -6.2,19.05 -0.49,8.79 -0.96,17.58 -1.45,26.37 -1.35,24.16 -9.33,145.28 -7.21,151.85z"/>
   <path class="fil1" d="M328.23 202.6c-4.49,-2.02 -13.27,-1 -19.37,-1.07 -16.24,-0.17 -12.54,-6.72 -12.54,43.81 0,47.78 -10.81,100.42 45.68,104.53 29.19,2.12 41.46,-6.55 62.5,-11.95l-0.5 -135.82c-2.92,-0.55 -27.33,-2.1 -32.02,1.21l-0.24 115.15c-35.88,6.62 -42.98,0.98 -42.96,-35.38 0.01,-14.53 1.8,-71.21 -0.55,-80.48z"/>
  </g>
 </g>
</svg>
