<?xml version="1.0" encoding="UTF-8"?>
<!DOCTYPE svg PUBLIC "-//W3C//DTD SVG 1.1//EN" "http://www.w3.org/Graphics/SVG/1.1/DTD/svg11.dtd">
<!-- Creator: CorelDRAW 2017 -->
<svg xmlns="http://www.w3.org/2000/svg" xml:space="preserve" width="500px" height="500px" version="1.1" style="shape-rendering:geometricPrecision; text-rendering:geometricPrecision; image-rendering:optimizeQuality; fill-rule:evenodd; clip-rule:evenodd"
viewBox="0 0 500 500"
 xmlns:xlink="http://www.w3.org/1999/xlink">
 <defs>
  <style type="text/css">
   <![CDATA[
    .str0 {stroke:#DCF51B;stroke-width:25;stroke-miterlimit:22.9256}
    .fil0 {fill:#575757}
    .fil2 {fill:#DCF51B}
    .fil1 {fill:#DCF51B;fill-rule:nonzero}
   ]]>
  </style>
 </defs>
 <g id="Слой_x0020_1">
  <metadata id="CorelCorpID_0Corel-Layer"/>
  <circle class="fil0 str0" cx="250" cy="250" r="232.45"/>
 </g>
 <g id="Слой_x0020_1_0">
  <metadata id="CorelCorpID_1Corel-Layer"/>
  <path class="fil1" d="M132.1 334.31l9.17 8.99 -5.76 13.14 16.87 16.53 12.88 -6.15 9.01 8.83 -57.56 26.05 -8.99 -8.82 24.38 -58.57zm-0.79 31.94l-9.42 21.29 20.94 -10 -11.52 -11.29zm-16.32 -75.04l4.05 9.63 -5.78 2.43c2.93,0.66 5.41,1.86 7.46,3.57 2.05,1.71 3.55,3.69 4.48,5.91 1.91,4.53 1.72,9.18 -0.57,13.95 -2.3,4.76 -6.7,8.51 -13.23,11.26 -6.67,2.8 -12.41,3.37 -17.21,1.69 -4.8,-1.69 -8.2,-4.93 -10.22,-9.73 -1.84,-4.4 -1.62,-8.99 0.68,-13.73l-19.58 8.24 -4.37 -10.39 54.29 -22.83zm-8.77 36.34c4.21,-1.77 7.01,-3.63 8.41,-5.57 2.02,-2.83 2.4,-5.74 1.14,-8.74 -1,-2.39 -2.88,-4 -5.63,-4.8 -2.76,-0.83 -6.15,-0.38 -10.22,1.33 -4.54,1.91 -7.46,4.09 -8.77,6.56 -1.31,2.47 -1.44,4.96 -0.37,7.5 1.04,2.46 2.89,4.11 5.56,4.95 2.67,0.82 5.96,0.42 9.88,-1.23zm-15.32 -43.48c-3.75,0.23 -7.43,-0.46 -11.05,-2.09 -3.63,-1.63 -6.46,-4.07 -8.51,-7.34 -2.06,-3.26 -3.22,-6.97 -3.48,-11.14 -0.4,-6.45 1.36,-11.84 5.3,-16.22 3.94,-4.38 9.09,-6.76 15.5,-7.16 6.46,-0.4 11.93,1.35 16.43,5.23 4.5,3.9 6.95,8.99 7.34,15.3 0.24,3.9 -0.42,7.68 -1.96,11.33 -1.55,3.64 -3.97,6.5 -7.28,8.56 -3.29,2.05 -7.39,3.23 -12.29,3.53zm-0.11 -11.61c4.22,-0.26 7.4,-1.46 9.52,-3.6 2.14,-2.15 3.11,-4.68 2.92,-7.62 -0.18,-2.93 -1.45,-5.33 -3.83,-7.17 -2.37,-1.84 -5.7,-2.64 -9.98,-2.37 -4.18,0.25 -7.33,1.45 -9.45,3.58 -2.13,2.12 -3.1,4.65 -2.92,7.58 0.18,2.94 1.45,5.33 3.84,7.2 2.36,1.86 5.67,2.66 9.9,2.4zm20.95 -42.24l-56.67 -15.98 3.06 -10.85 20.45 5.77c-2.87,-4.43 -3.67,-8.92 -2.37,-13.52 1.41,-5 4.38,-8.62 8.93,-10.86 4.55,-2.25 10.22,-2.42 17.02,-0.5 7.02,1.98 11.96,5.17 14.82,9.58 2.84,4.4 3.59,9 2.25,13.77 -0.66,2.34 -1.92,4.48 -3.76,6.42 -1.86,1.95 -4.16,3.42 -6.92,4.42l6.03 1.7 -2.84 10.05zm-18.31 -16.7c4.26,1.2 7.61,1.42 10.02,0.65 3.44,-1.07 5.6,-3.15 6.48,-6.28 0.67,-2.4 0.22,-4.74 -1.36,-7.02 -1.58,-2.27 -4.59,-4.03 -9.01,-5.27 -4.71,-1.33 -8.34,-1.43 -10.9,-0.32 -2.57,1.12 -4.22,3 -4.98,5.66 -0.73,2.62 -0.33,5.07 1.22,7.37 1.54,2.3 4.38,4.04 8.53,5.21zm38.16 -59.32l8.11 -8.05c2.51,3.58 3.72,7.27 3.67,11.06 -0.08,3.8 -1.48,7.6 -4.21,11.4 -4.34,6.02 -9.52,9.06 -15.53,9.11 -4.8,0.01 -9.61,-1.71 -14.43,-5.18 -5.74,-4.13 -9.16,-8.88 -10.26,-14.21 -1.11,-5.33 0,-10.3 3.3,-14.88 3.7,-5.14 8.32,-7.98 13.87,-8.51 5.54,-0.52 11.79,1.81 18.72,7l-16.47 22.9c2.76,1.89 5.4,2.67 7.93,2.35 2.52,-0.31 4.55,-1.53 6.05,-3.62 1.04,-1.44 1.51,-2.92 1.43,-4.45 -0.08,-1.53 -0.8,-3.18 -2.18,-4.92zm-8.9 -7.22c-2.71,-1.84 -5.22,-2.62 -7.54,-2.31 -2.32,0.3 -4.15,1.38 -5.49,3.25 -1.44,2 -1.89,4.17 -1.37,6.52 0.52,2.35 2.06,4.42 4.58,6.2l9.82 -13.66zm50.6 -17.2l-22.82 -54.29 16.46 -6.92 25.3 32.94 -5.95 -41.07 16.5 -6.94 22.82 54.29 -10.16 4.27 -18 -42.72 7.26 47.23 -10.56 4.44 -28.62 -38.25 17.93 42.75 -10.16 4.27zm92.99 -22.84l-0.09 -6.39c-1.53,2.3 -3.54,4.14 -6.06,5.53 -2.52,1.38 -5.18,2.09 -7.99,2.13 -2.88,0.04 -5.46,-0.55 -7.75,-1.78 -2.31,-1.23 -3.98,-2.99 -5.03,-5.25 -1.06,-2.27 -1.61,-5.42 -1.67,-9.45l-0.39 -27.07 11.27 -0.16 0.28 19.66c0.09,6.01 0.34,9.68 0.79,11.04 0.43,1.35 1.2,2.42 2.32,3.18 1.11,0.78 2.51,1.16 4.21,1.14 1.93,-0.03 3.65,-0.59 5.17,-1.67 1.52,-1.07 2.55,-2.41 3.09,-3.99 0.53,-1.58 0.77,-5.42 0.68,-11.55l-0.26 -18.04 11.27 -0.16 0.61 42.68 -10.45 0.15zm22.02 -9.92l11.31 1.98c-0.24,2.21 0.15,4.1 1.2,5.63 1.03,1.55 2.81,2.74 5.32,3.58 2.77,0.93 5.02,1.12 6.76,0.58 1.18,-0.4 1.97,-1.2 2.37,-2.4 0.27,-0.81 0.23,-1.57 -0.09,-2.27 -0.36,-0.69 -1.4,-1.57 -3.1,-2.62 -8,-4.81 -12.89,-8.39 -14.67,-10.74 -2.47,-3.27 -3.05,-6.85 -1.75,-10.73 1.19,-3.53 3.57,-6.01 7.14,-7.47 3.57,-1.46 8.26,-1.22 14.07,0.73 5.53,1.86 9.35,4.16 11.43,6.87 2.08,2.72 3.04,6.02 2.86,9.91l-10.69 -1.51c0.11,-1.73 -0.31,-3.23 -1.24,-4.48 -0.92,-1.25 -2.51,-2.25 -4.76,-3 -2.83,-0.95 -4.99,-1.24 -6.49,-0.87 -1.01,0.29 -1.65,0.88 -1.95,1.77 -0.26,0.76 -0.13,1.53 0.41,2.3 0.73,1.04 3.74,3.17 9.02,6.39 5.28,3.21 8.74,6.14 10.37,8.78 1.61,2.65 1.83,5.7 0.69,9.1 -1.25,3.7 -3.87,6.38 -7.87,8 -3.99,1.63 -9.02,1.42 -15.1,-0.62 -5.51,-1.85 -9.5,-4.43 -11.98,-7.74 -2.46,-3.3 -3.56,-7.02 -3.26,-11.17zm70.39 33.09l8.04 8.12c-3.58,2.51 -7.27,3.72 -11.06,3.66 -3.8,-0.08 -7.6,-1.48 -11.39,-4.21 -6.02,-4.33 -9.07,-9.51 -9.12,-15.52 -0.01,-4.8 1.71,-9.61 5.18,-14.43 4.13,-5.74 8.88,-9.17 14.21,-10.26 5.34,-1.11 10.3,0 14.88,3.29 5.14,3.7 7.98,8.33 8.51,13.88 0.53,5.54 -1.81,11.78 -7,18.72l-22.9 -16.48c-1.89,2.77 -2.67,5.41 -2.35,7.94 0.32,2.52 1.53,4.54 3.62,6.05 1.44,1.03 2.92,1.51 4.45,1.42 1.54,-0.07 3.18,-0.8 4.93,-2.18zm7.21 -8.89c1.84,-2.71 2.62,-5.22 2.31,-7.54 -0.3,-2.33 -1.38,-4.15 -3.25,-5.5 -1.99,-1.43 -4.17,-1.88 -6.52,-1.36 -2.35,0.52 -4.42,2.06 -6.2,4.58l13.66 9.82zm50.58 29.25l5.19 10.82 -22.89 22.32 31.63 -4.07 5.04 10.54 -43.55 4.17 -7.86 0.75c-2.67,0.17 -4.79,0.14 -6.36,-0.11 -1.56,-0.24 -2.98,-0.72 -4.21,-1.42 -1.25,-0.7 -2.43,-1.72 -3.58,-3.08 -1.15,-1.33 -2.19,-2.97 -3.12,-4.92 -0.94,-1.95 -1.65,-3.98 -2.15,-6.07l7.51 -4.69c0.46,1.75 0.99,3.27 1.61,4.56 1.13,2.37 2.67,3.79 4.61,4.26 1.94,0.47 4.14,0.5 6.58,0.07l31.55 -33.13zm24.83 59.28l1.16 10.46 -6.23 0.69c2.28,1.13 4.19,2.76 5.77,4.93 1.56,2.18 2.5,4.68 2.81,7.5 0.54,4.92 -0.93,9.31 -4.42,13.17 -3.48,3.86 -8.69,6.17 -15.58,6.93 -7.1,0.78 -12.79,-0.34 -17.11,-3.37 -4.32,-3.02 -6.75,-7 -7.29,-11.94 -0.26,-2.34 -0.03,-4.52 0.7,-6.53 0.72,-1.99 2.09,-4.19 4.12,-6.53l-21.23 2.33 -1.23 -11.2 58.53 -6.44zm-19.34 13.3c-4.78,0.52 -8.21,1.85 -10.29,4 -2.07,2.13 -2.96,4.56 -2.66,7.26 0.29,2.6 1.57,4.65 3.86,6.15 2.29,1.5 5.82,1.98 10.6,1.45 4.47,-0.49 7.69,-1.74 9.65,-3.76 1.98,-2.02 2.81,-4.34 2.52,-6.97 -0.3,-2.74 -1.61,-4.9 -3.94,-6.46 -2.32,-1.58 -5.57,-2.13 -9.74,-1.67zm3.12 44.36c3.66,0.84 6.99,2.55 10,5.14 3.01,2.59 5.03,5.75 6.07,9.46 1.05,3.71 1.11,7.6 0.17,11.67 -1.45,6.29 -4.68,10.97 -9.69,14.05 -5.03,3.07 -10.64,3.89 -16.9,2.45 -6.3,-1.45 -11.06,-4.69 -14.26,-9.69 -3.21,-5.01 -4.11,-10.59 -2.69,-16.75 0.88,-3.81 2.58,-7.24 5.1,-10.3 2.52,-3.05 5.65,-5.1 9.41,-6.14 3.74,-1.03 8,-0.99 12.79,0.11zm-3.19 11.16c-4.13,-0.95 -7.52,-0.7 -10.16,0.75 -2.66,1.45 -4.31,3.6 -4.97,6.47 -0.66,2.86 -0.12,5.52 1.64,7.97 1.75,2.44 4.72,4.15 8.9,5.11 4.07,0.94 7.43,0.69 10.07,-0.75 2.65,-1.43 4.3,-3.58 4.96,-6.44 0.66,-2.87 0.12,-5.53 -1.63,-8 -1.75,-2.45 -4.69,-4.16 -8.81,-5.11zm4.96 55.77l-5.63 9.76 -15.11 -8.71c-0.74,1.74 -0.91,3.18 -0.49,4.32 0.42,1.13 1.72,2.97 3.9,5.5 2.92,3.36 4.45,6.06 4.61,8.14 0.17,2.07 -0.44,4.32 -1.84,6.74 -0.43,0.75 -1.23,2 -2.41,3.77l-6.47 -3.68c1.49,-2.59 2.21,-4.38 2.13,-5.37 -0.09,-1.02 -1.16,-2.68 -3.21,-4.97 -2.74,-3.1 -3.89,-5.96 -3.44,-8.55 -2.64,2.59 -6.84,3.65 -12.6,3.19 -0.3,-0.04 -0.61,-0.04 -0.95,-0.05l-13.34 -0.41 6.05 -10.51 13.54 1.31c2.73,0.25 4.62,0.18 5.67,-0.2 1.03,-0.37 1.97,-1.28 2.8,-2.72l-15.82 -9.12 5.62 -9.76 36.99 21.32zm-30.1 45.17l-7.98 7.36 -18.19 -19.72 5.43 31.48 -8.16 7.53 -28.94 -31.38 7.98 -7.36 18.45 20 -5.51 -31.93 7.98 -7.36 28.94 31.38z"/>
  <polygon class="fil2" points="343.5,250 269.97,201.23 196.43,152.47 196.43,250 196.43,347.53 269.97,298.77 "/>
 </g>
</svg>
