<?xml version="1.0" encoding="UTF-8"?>
<!DOCTYPE svg PUBLIC "-//W3C//DTD SVG 1.1//EN" "http://www.w3.org/Graphics/SVG/1.1/DTD/svg11.dtd">
<!-- Creator: CorelDRAW 2017 -->
<svg xmlns="http://www.w3.org/2000/svg" xml:space="preserve" width="500px" height="500px" version="1.1" style="shape-rendering:geometricPrecision; text-rendering:geometricPrecision; image-rendering:optimizeQuality; fill-rule:evenodd; clip-rule:evenodd"
viewBox="0 0 500 500"
 xmlns:xlink="http://www.w3.org/1999/xlink">
 <defs>
  <style type="text/css">
   <![CDATA[
    .str1 {stroke:black;stroke-width:4;stroke-miterlimit:22.9256}
    .str0 {stroke:black;stroke-width:5;stroke-miterlimit:22.9256}
    .fil83 {fill:none}
    .fil5 {fill:black}
    .fil0 {fill:#00CCFF}
    .fil3 {fill:#2D5775}
    .fil1 {fill:#304885}
    .fil4 {fill:#663333}
    .fil2 {fill:#CBCD92}
    .fil6 {fill:black;fill-rule:nonzero}
    .fil7 {fill:#E44F49;fill-rule:nonzero}
    .fil8 {fill:#E55247;fill-rule:nonzero}
    .fil9 {fill:#E55546;fill-rule:nonzero}
    .fil10 {fill:#E65844;fill-rule:nonzero}
    .fil82 {fill:#E65845;fill-rule:nonzero}
    .fil11 {fill:#E65C43;fill-rule:nonzero}
    .fil12 {fill:#E75F41;fill-rule:nonzero}
    .fil81 {fill:#E76140;fill-rule:nonzero}
    .fil13 {fill:#E76240;fill-rule:nonzero}
    .fil14 {fill:#E8653E;fill-rule:nonzero}
    .fil15 {fill:#E9683D;fill-rule:nonzero}
    .fil80 {fill:#E96A3C;fill-rule:nonzero}
    .fil16 {fill:#E96B3B;fill-rule:nonzero}
    .fil17 {fill:#EA6F3A;fill-rule:nonzero}
    .fil18 {fill:#EA7238;fill-rule:nonzero}
    .fil79 {fill:#EB7337;fill-rule:nonzero}
    .fil19 {fill:#EB7537;fill-rule:nonzero}
    .fil20 {fill:#EB7835;fill-rule:nonzero}
    .fil21 {fill:#EC7B33;fill-rule:nonzero}
    .fil78 {fill:#EC7C33;fill-rule:nonzero}
    .fil22 {fill:#ED7E32;fill-rule:nonzero}
    .fil23 {fill:#ED8230;fill-rule:nonzero}
    .fil24 {fill:#EE852F;fill-rule:nonzero}
    .fil25 {fill:#EE882D;fill-rule:nonzero}
    .fil26 {fill:#EF8B2C;fill-rule:nonzero}
    .fil27 {fill:#EF8E2A;fill-rule:nonzero}
    .fil28 {fill:#F09129;fill-rule:nonzero}
    .fil29 {fill:#F19427;fill-rule:nonzero}
    .fil77 {fill:#F19726;fill-rule:nonzero}
    .fil30 {fill:#F19826;fill-rule:nonzero}
    .fil31 {fill:#F29B24;fill-rule:nonzero}
    .fil76 {fill:#F29C24;fill-rule:nonzero}
    .fil75 {fill:#F29E22;fill-rule:nonzero}
    .fil32 {fill:#F29E23;fill-rule:nonzero}
    .fil33 {fill:#F3A121;fill-rule:nonzero}
    .fil34 {fill:#F3A420;fill-rule:nonzero}
    .fil74 {fill:#F4A61F;fill-rule:nonzero}
    .fil35 {fill:#F4A71E;fill-rule:nonzero}
    .fil73 {fill:#F4A91D;fill-rule:nonzero}
    .fil36 {fill:#F4AB1C;fill-rule:nonzero}
    .fil72 {fill:#F5AB1C;fill-rule:nonzero}
    .fil37 {fill:#F5AE1B;fill-rule:nonzero}
    .fil71 {fill:#F6B01A;fill-rule:nonzero}
    .fil38 {fill:#F6B119;fill-rule:nonzero}
    .fil70 {fill:#F6B318;fill-rule:nonzero}
    .fil39 {fill:#F6B418;fill-rule:nonzero}
    .fil69 {fill:#F6B517;fill-rule:nonzero}
    .fil40 {fill:#F7B716;fill-rule:nonzero}
    .fil68 {fill:#F7B816;fill-rule:nonzero}
    .fil41 {fill:#F7BA15;fill-rule:nonzero}
    .fil67 {fill:#F7BB15;fill-rule:nonzero}
    .fil42 {fill:#F8BD13;fill-rule:nonzero}
    .fil66 {fill:#F8C012;fill-rule:nonzero}
    .fil43 {fill:#F8C112;fill-rule:nonzero}
    .fil65 {fill:#F9C211;fill-rule:nonzero}
    .fil44 {fill:#F9C410;fill-rule:nonzero}
    .fil64 {fill:#F9C510;fill-rule:nonzero}
    .fil63 {fill:#FAC70E;fill-rule:nonzero}
    .fil45 {fill:#FAC70F;fill-rule:nonzero}
    .fil46 {fill:#FACA0D;fill-rule:nonzero}
    .fil62 {fill:#FBCC0C;fill-rule:nonzero}
    .fil47 {fill:#FBCD0C;fill-rule:nonzero}
    .fil61 {fill:#FBCF0B;fill-rule:nonzero}
    .fil48 {fill:#FBD00A;fill-rule:nonzero}
    .fil60 {fill:#FBD209;fill-rule:nonzero}
    .fil49 {fill:#FCD408;fill-rule:nonzero}
    .fil50 {fill:#FCD707;fill-rule:nonzero}
    .fil59 {fill:#FDD906;fill-rule:nonzero}
    .fil51 {fill:#FDDA05;fill-rule:nonzero}
    .fil58 {fill:#FDDC05;fill-rule:nonzero}
    .fil52 {fill:#FEDD04;fill-rule:nonzero}
    .fil57 {fill:#FEDE03;fill-rule:nonzero}
    .fil53 {fill:#FEE002;fill-rule:nonzero}
    .fil56 {fill:#FEE102;fill-rule:nonzero}
    .fil54 {fill:#FFE301;fill-rule:nonzero}
    .fil55 {fill:#FFE500;fill-rule:nonzero}
    .fil84 {fill:url(#id1);fill-rule:nonzero}
   ]]>
  </style>
    <clipPath id="id0">
     <path d="M46.73 212.27l-16.22 0 0 -55.58 -18.93 0 0 -13.9 54.08 0 0 13.9 -18.93 0 0 55.58zm42.82 -41.19c-2.4,0 -3.61,1.32 -3.61,3.97l0 5.44 15.32 0 0 -5.44c0,-2.65 -1.2,-3.97 -3.6,-3.97l-8.11 0zm-19.38 3.39c0,-4.95 1.28,-8.8 3.83,-11.61 2.56,-2.79 6.09,-4.19 10.6,-4.19l18.02 0c4.51,0 8.04,1.4 10.59,4.21 2.55,2.82 3.84,6.71 3.84,11.67l0 18.36 -31.11 0 0 3.76c0,0.94 0.3,1.72 0.9,2.35 0.6,0.63 1.36,0.94 2.26,0.94 2.58,0 5.38,0 8.43,0 3.03,0 5.88,0 8.52,0 3.06,-0.39 6.12,-0.75 9.19,-1.13l0 12.45c-3.49,0.53 -7.06,0.78 -10.73,0.78 -3.11,0.6 -6.51,0.91 -10.19,0.91 -3.65,0 -7.2,0 -10.63,0 -4.08,0 -7.36,-1.36 -9.83,-4.05 -2.46,-2.7 -3.69,-6.31 -3.69,-10.76l0 -23.69 0 0zm110.87 -1.4c-1.02,0 -2.13,0.09 -3.33,0.29 -1.21,0.19 -2.31,0.43 -3.34,0.69 -1.19,0.27 -2.44,0.59 -3.7,1l0 37.22 -15.77 0 0 -35.73c0,-1 -0.3,-1.83 -0.91,-2.49 -0.59,-0.66 -1.35,-0.98 -2.24,-0.98l-0.45 0c-1.02,0 -2.13,0.09 -3.34,0.29 -1.19,0.19 -2.3,0.43 -3.33,0.69 -1.2,0.27 -2.43,0.59 -3.71,1l0 37.22 -15.76 0 0 -52.61 13.96 0 0.91 4.96c1.56,-1.12 3.24,-2.12 5.04,-2.98 1.57,-0.72 3.32,-1.41 5.24,-2.03 1.92,-0.63 3.9,-0.94 5.94,-0.94l0.91 0c2.7,0 4.97,0.56 6.8,1.69 1.83,1.12 3.31,2.54 4.46,4.26 1.5,-1.12 3.19,-2.12 5.04,-2.98 1.56,-0.72 3.42,-1.41 5.55,-2.03 2.14,-0.63 4.47,-0.94 6.99,-0.94l0.91 0c4.08,0 7.35,1.35 9.81,4.07 2.48,2.72 3.7,6.31 3.7,10.81l0 38.72 -15.77 0 0 -35.73c0,-1 -0.3,-1.83 -0.91,-2.49 -0.59,-0.66 -1.35,-0.98 -2.25,-0.98l-0.45 0 0 0zm43.27 25.81l13.52 0c2.4,0 3.61,-1.33 3.61,-3.98l0 -18.36c0,-1 -0.3,-1.83 -0.91,-2.49 -0.59,-0.66 -1.34,-0.98 -2.25,-0.98l-3.16 0c-1.14,0 -2.34,0.09 -3.59,0.29 -1.27,0.19 -2.44,0.43 -3.53,0.69 -1.26,0.27 -2.49,0.59 -3.69,1l0 23.82 0 0.01zm0 13.39l0 16.87 -15.78 0 0 -69.48 13.98 0 0.9 4.96c1.56,-1.12 3.24,-2.12 5.05,-2.98 1.56,-0.72 3.29,-1.41 5.23,-2.03 1.92,-0.63 3.9,-0.94 5.95,-0.94l4.04 0c4.1,0 7.37,1.35 9.84,4.07 2.46,2.72 3.69,6.31 3.69,10.81l0 22.84c0,4.96 -1.26,8.84 -3.83,11.67 -2.56,2.81 -6.08,4.21 -10.59,4.21l-18.48 0zm41.09 -76.27c10.21,-0.01 20.42,-0.02 30.63,-0.02 0.89,0 1.64,-0.31 2.23,-0.94 1.98,-2.09 0.34,-5.66 -2.19,-5.66l-16.13 0c-4.05,0 -7.3,-1.34 -9.74,-4.03 -2.44,-2.69 -3.67,-6.27 -3.67,-10.73l0 -3.44c0,-4.47 1.23,-8.04 3.67,-10.73 2.44,-2.69 5.69,-4.04 9.74,-4.04l30.39 0 0 12.8 -25.02 0c-0.91,0 -1.65,0.32 -2.24,0.98 -0.6,0.66 -0.9,1.48 -0.9,2.47 0,0.98 0.3,1.79 0.9,2.45 0.59,0.66 1.33,0.99 2.24,0.99l16.08 0c4.05,0 7.3,1.33 9.74,4 2.45,2.66 3.66,6.2 3.66,10.63l0 3.9c0,4.43 -1.21,7.97 -3.66,10.63 -2.44,2.67 -5.69,4 -9.74,4 -3.81,0 -16.53,-0.06 -20.52,-0.06l0.24 46.69c0,0.99 0.29,1.82 0.89,2.48 0.6,0.67 1.34,0.99 2.26,0.99l5.41 0 0 12.91c-1.21,0.19 -2.43,0.36 -3.71,0.49 -1.06,0.13 -2.25,0.25 -3.51,0.35 -1.26,0.1 -2.46,0.15 -3.6,0.15 -4.09,0 -7.37,-1.36 -9.83,-4.07 -2.45,-2.71 -3.71,-6.32 -3.7,-10.82l0.08 -62.37 0 0zm49.5 63.36c1.14,0 2.34,-0.09 3.61,-0.29 1.26,-0.19 2.43,-0.43 3.51,-0.7 1.27,-0.26 2.5,-0.6 3.7,-0.99l0 -5.95 -13.08 0c-0.89,0 -1.64,0.32 -2.25,0.99 -0.59,0.65 -0.89,1.49 -0.89,2.48l0 0.99c0,0.99 0.3,1.83 0.89,2.48 0.61,0.66 1.36,0.99 2.25,0.99l2.26 0 0 0zm-7.66 13.9c-4.1,0 -7.36,-1.35 -9.83,-4.07 -2.46,-2.71 -3.69,-6.32 -3.69,-10.82l0 -4.46c0,-4.5 1.23,-8.12 3.69,-10.82 2.47,-2.72 5.73,-4.07 9.83,-4.07l18.48 0 0 -3.81c0,-0.96 -0.3,-1.75 -0.9,-2.38 -0.61,-0.64 -1.36,-0.96 -2.25,-0.96 -2.41,0 -5.01,0 -7.8,0 -2.8,0 -5.42,0.14 -7.89,0.46 -2.88,0.41 -5.77,0.63 -8.66,0.63l0 -12.26c3.31,-0.56 6.68,-0.85 10.1,-0.85 2.95,-0.58 6.16,-0.89 9.65,-0.89 3.48,0 6.81,0 10,0 4.09,0 7.37,1.37 9.83,4.07 2.46,2.69 3.7,6.27 3.7,10.74l0 38.5 -13.99 0 -0.89 -4.96c-1.56,1.12 -3.25,2.11 -5.05,2.97 -1.56,0.73 -3.3,1.41 -5.22,2.04 -1.92,0.62 -3.91,0.94 -5.96,0.94l-3.15 0 0 0zm60.86 -64.27l-0.02 10.67 11.27 0 0 13.41 -11.27 0 0 22.82c0,0.99 0.3,1.82 0.91,2.48 0.59,0.66 1.35,0.99 2.25,0.99l11.71 0 0 12.96c-1.73,0.26 -3.57,0.4 -5.49,0.4 -1.62,0.3 -3.46,0.44 -5.5,0.44 -2.04,0 -4.08,0 -6.13,0 -4.08,0 -7.37,-1.36 -9.82,-4.05 -2.48,-2.72 -3.7,-6.31 -3.7,-10.81l0 -25.23 -5.41 0 0 -13.41 4.28 0 0.26 -49.96 -5.36 0 0 -13.29 7.12 0.16 0.03 -11.92 13.85 0 0 11.76 11.17 0 0 13.29 -11.17 0 0 22.63c0,0.99 0.29,1.81 0.89,2.47 0.6,0.65 1.35,0.98 2.24,0.98l11.61 0 0 12.84c-1.72,0.27 -11.83,0.37 -13.73,0.37l0.01 0zm38.74 22.09c-2.39,0 -3.6,1.32 -3.6,3.97l0 5.44 15.32 0 0 -5.44c0,-2.65 -1.2,-3.97 -3.6,-3.97l-8.12 0zm-19.38 3.39c0,-4.95 1.29,-8.8 3.83,-11.61 2.56,-2.79 6.09,-4.19 10.6,-4.19l18.02 0c4.51,0 8.04,1.4 10.6,4.21 2.55,2.82 3.83,6.71 3.83,11.67l0 18.36 -31.1 0 0 3.76c0,0.94 0.3,1.72 0.9,2.35 0.6,0.63 1.35,0.94 2.26,0.94 2.59,0 5.38,0 8.42,0 3.04,0 5.88,0 8.52,0 3.07,-0.39 6.12,-0.75 9.19,-1.13l0 12.45c-3.49,0.53 -7.05,0.78 -10.73,0.78 -3.11,0.6 -6.51,0.91 -10.19,0.91 -3.65,0 -7.19,0 -10.62,0 -4.09,0 -7.37,-1.36 -9.82,-4.05 -2.48,-2.7 -3.71,-6.31 -3.71,-10.76l0 -23.69 0 0zm68.06 1.57c0,0.99 0.3,1.83 0.9,2.48 0.61,0.66 1.36,0.99 2.26,0.99l16.21 0c4.1,0 7.38,1.34 9.84,4.04 2.46,2.68 3.69,6.25 3.69,10.73l0 3.93c0,4.47 -1.23,8.04 -3.69,10.72 -2.46,2.69 -5.74,4.04 -9.84,4.04 -3.84,0 -7.77,0 -11.8,0 -4.02,0 -7.72,-0.31 -11.09,-0.91 -3.89,0 -7.68,-0.25 -11.35,-0.77l0 -12.87c3.24,0.38 6.52,0.76 9.81,1.14 2.9,0 6.02,0 9.39,0 3.36,0 6.58,0 9.65,0 0.9,0 1.65,-0.31 2.24,-0.94 0.61,-0.64 0.92,-1.44 0.92,-2.38l0 -3.33 -19.38 0c-4.1,0 -7.38,-1.36 -9.84,-4.07 -2.47,-2.71 -3.69,-6.32 -3.69,-10.82l0 -3.47c0,-4.51 1.22,-8.1 3.69,-10.83 2.46,-2.7 5.74,-4.06 9.84,-4.06l30.64 0 0 12.91 -25.24 0c-0.9,0 -1.65,0.32 -2.26,0.98 -0.6,0.67 -0.9,1.5 -0.9,2.49l0 0zm-336.45 -96.36l10.73 44.29 9.38 -44.29 17.42 0 -16.97 68.9 -16.99 0 -10.72 -42.81 -10.73 42.81 -16.97 0 -16.99 -68.9 17.43 0 9.38 44.29 10.73 -44.29 14.3 0 0 0zm59.43 28.06c-2.39,0 -3.58,1.3 -3.58,3.93l0 5.41 15.2 0 0 -5.41c0,-2.63 -1.19,-3.93 -3.57,-3.93l-8.05 0 0 0zm-19.22 3.35c0,-4.9 1.28,-8.72 3.8,-11.5 2.54,-2.77 6.04,-4.16 10.51,-4.16l17.87 0c4.47,0 7.98,1.39 10.5,4.18 2.54,2.79 3.8,6.65 3.8,11.57l0 18.21 -30.84 0 0 3.72c0,0.94 0.3,1.71 0.9,2.32 0.59,0.63 1.34,0.95 2.24,0.95 2.55,0 5.35,0 8.36,0 3,0 5.82,0 8.44,0 3.04,-0.38 6.08,-0.75 9.11,-1.12l0 12.33c-3.46,0.53 -7,0.78 -10.63,0.78 -3.09,0.6 -6.46,0.9 -10.1,0.9 -3.63,0 -7.16,0 -10.54,0 -4.06,0 -7.31,-1.35 -9.75,-4.03 -2.44,-2.67 -3.67,-6.22 -3.67,-10.66l0 -23.49 0 0zm86.25 1.07c0,-0.98 -0.29,-1.8 -0.89,-2.46 -0.6,-0.66 -1.35,-0.99 -2.24,-0.99l-2.23 0c-1.5,0 -2.86,0.05 -4.12,0.16 -1.25,0.09 -2.38,0.21 -3.38,0.34 -1.14,0.19 -2.21,0.36 -3.23,0.49l0 25.59 12.52 0c2.38,0 3.57,-1.32 3.57,-3.93l0 -19.2 0 0zm15.64 20.66c0,4.92 -1.27,8.79 -3.8,11.57 -2.53,2.79 -6.02,4.19 -10.5,4.19l-33.07 0 0 -68.9 15.64 0 0 17.72c1.73,-0.39 3.49,-0.72 5.28,-0.99 1.55,-0.26 3.2,-0.48 4.96,-0.69 1.76,-0.19 3.41,-0.29 4.96,-0.29l3.13 0c4.05,0 7.29,1.35 9.74,4.04 2.44,2.68 3.66,6.26 3.66,10.72l0 22.63zm78.65 -34.44l0 50.2 -15.64 0 0 -36.91 -6.7 0 0 -13.29 22.34 0zm-15.64 -19.68l15.64 0 0 13.78 -15.64 0 0 -13.78zm81.33 29.04c-2.39,0 -3.58,1.3 -3.58,3.93l0 5.41 15.2 0 0 -5.41c0,-2.63 -1.19,-3.93 -3.57,-3.93l-8.06 0 0.01 0zm-19.22 3.35c0,-4.9 1.26,-8.72 3.8,-11.5 2.54,-2.77 6.03,-4.16 10.51,-4.16l17.86 0c4.47,0 7.97,1.39 10.51,4.18 2.54,2.79 3.8,6.65 3.8,11.57l0 18.21 -30.84 0 0 3.72c0,0.94 0.3,1.71 0.9,2.32 0.59,0.63 1.34,0.95 2.23,0.95 2.56,0 5.34,0 8.35,0 3.02,0 5.84,0 8.46,0 3.03,-0.38 6.07,-0.75 9.11,-1.12l0 12.33c-3.46,0.53 -7,0.78 -10.63,0.78 -3.1,0.6 -6.46,0.9 -10.1,0.9 -3.64,0 -7.16,0 -10.55,0 -4.05,0 -7.3,-1.35 -9.74,-4.03 -2.45,-2.67 -3.67,-6.22 -3.67,-10.66l0 -23.49 0 0z"/>
    </clipPath>
  <linearGradient id="id1" gradientUnits="userSpaceOnUse" x1="250.85" y1="258.95" x2="249.15" y2="381.2">
   <stop offset="0" style="stop-opacity:1; stop-color:#FEE002"/>
   <stop offset="0.223529" style="stop-opacity:1; stop-color:#FEE002"/>
   <stop offset="0.490196" style="stop-opacity:1; stop-color:#E44F49"/>
   <stop offset="1" style="stop-opacity:1; stop-color:#FEDF02"/>
  </linearGradient>
 </defs>
 <g id="Слой_x0020_1">
  <metadata id="CorelCorpID_0Corel-Layer"/>
  <circle class="fil0" cx="238.4" cy="237.42" r="187.51"/>
  <g id="_2216469008608">
   <path class="fil1" d="M184.74 402.15l0.12 0.11c-0.01,0 -0.16,-0.07 -0.12,-0.11zm47.35 -358.97l13.28 0c7.18,0.23 14.44,0.87 21.8,1.9 10.09,1.4 19.1,3.83 28.61,6.45 10.57,2.92 23.37,8.24 32.91,13.58 17.22,9.64 19.41,11.67 34.56,23.38 6.82,5.27 17.94,16.47 23.41,23.48 9.42,12.02 16.3,21.03 23.49,34.83 1.21,2.35 2.71,5.11 3.77,7.66 1.22,2.97 2.42,5.27 3.59,8.22 3.39,8.56 6.34,16.83 8.63,26.05 3.53,14.16 5.41,29.14 5.67,44.13l0 7.34c-0.15,8.26 -0.78,16.46 -1.91,24.5 -0.95,6.88 -2.23,13.04 -3.84,19.4 -3.06,12.15 -7.45,22.97 -12.27,34.24 -5.23,12.24 -14.1,25.58 -22.17,36.13 -5.84,7.64 -12.44,14.57 -19.21,21.38 -1.27,1.27 -1.78,1.64 -3.13,2.78l-6.26 5.56c-7.41,5.8 -12.06,9.44 -20.19,14.89l-10.84 6.49c-1.58,0.78 -2.44,1.39 -3.81,2.1 -13.35,6.95 -27.24,12.34 -41.93,16 -20.25,5.04 -33.24,5.68 -54.22,5.68 -18.98,0 -41.55,-4.61 -58.88,-11.27l-24.39 -10.68c-4.99,-2.79 -9.88,-5.46 -14.62,-8.64 -11.52,-7.71 -22.25,-16.07 -32.05,-25.86 -2.58,-2.59 -6.43,-6.34 -8.6,-9.13 -1.06,-1.37 -1.63,-1.86 -2.7,-3.22 -5.8,-7.41 -9.44,-12.06 -14.88,-20.19 -1.61,-2.4 -2.82,-4.6 -4.33,-7.09 -4.52,-7.49 -8.4,-15.31 -11.64,-23.44 -3.45,-8.68 -6.32,-16.76 -8.63,-26.05 -5.04,-20.25 -5.66,-33.24 -5.66,-54.22 0,-7.58 0.97,-15.14 1.9,-21.74 1.4,-10.1 3.83,-19.11 6.45,-28.62 0.71,-2.57 1.8,-5.89 2.85,-8.58 5.27,-13.64 11.21,-26.78 19.37,-38.94 9.11,-13.58 17.37,-23.49 28.82,-35.01 1.27,-1.27 1.78,-1.64 3.14,-2.78 1.2,-1 1.75,-1.87 3.04,-2.87l9.74 -7.99c2.21,-1.65 4.26,-3.34 6.56,-4.87 7.09,-4.72 14.2,-9.38 21.75,-13.31 2.35,-1.23 5.11,-2.72 7.66,-3.77 2.97,-1.24 5.27,-2.44 8.22,-3.61 22.02,-8.73 44.13,-13.52 66.94,-14.29l0 0zm-48.53 358.57l0.85 0.22 -0.85 -0.22zm0 0c-2.24,-0.18 -12.26,-4.2 -14.71,-5.38 -7.98,-3.84 -12.18,-5.57 -19.79,-10.16 -7.35,-4.41 -11.36,-7.34 -18.24,-12.48l-13.37 -11.47c-32.91,-32.56 -53.29,-75.69 -53.29,-124.03 0,-14.15 0.88,-25.6 3.55,-37.04l3.16 0c-0.15,1.64 -0.98,4.68 -1.43,6.46 -0.58,2.28 -1.12,4.08 -0.72,6.71 0.75,5.02 0.95,9.62 1.78,14.38 0.61,3.5 3.44,4.04 8.08,7.69 12.73,10.01 24.55,26.11 31.02,40.7 1.45,3.27 1.09,2.94 -0.49,5.64 -9.59,16.29 -10.87,32.08 7.59,42.81 2.91,1.69 2.24,1.2 3.19,4.69 1.69,6.14 3.04,6.16 8.6,11.11 4.47,3.98 17.06,13.43 22.36,13.88 0.1,3.96 3.24,11.5 4.68,15.03 1.74,4.27 4.64,8.93 7.26,12.44 8.73,11.76 19.89,17.81 20.77,19.02l0 0zm164.31 -217.51l0.13 0.12c-0.01,0 -0.16,-0.08 -0.13,-0.12zm7.49 -6.69l0.12 0.11c0,-0.01 -0.15,-0.07 -0.12,-0.11zm1.18 -0.4l0.13 0.12c-0.01,-0.01 -0.16,-0.08 -0.13,-0.12zm0.79 -0.39l0.13 0.11c-0.01,0 -0.17,-0.07 -0.13,-0.11zm0.79 -0.39c0.42,-0.43 1.49,0.62 0.44,0.2 0,-0.01 -1.09,0.45 -0.44,-0.2zm1.98 -0.41l-0.77 0.46 0.77 -0.46zm0 0c1.54,-2.29 1.52,-2.71 0.34,-5.47 -3.5,-8.25 -1.44,-2.29 0.06,-11.46 1.57,-9.63 3.26,-4.69 8.16,-0.3 2.35,2.11 4.03,2.65 8.38,2.65 1.43,2.14 2.24,3.97 4.33,3.97 3.07,0.01 2.93,-2.73 2.36,-5.15 0.33,0.22 9.27,9.42 9.46,0.4 1.27,0.61 1.89,0.61 3.15,0 1.44,2.72 2.5,5.95 3.95,8.67 -1.37,0.11 -5.24,1.95 -6.88,2.58 -3.51,1.34 -2.98,2.05 -2.98,6.48 -1.62,-0.14 -2.63,-1.23 -3.77,-2.14 -4.39,-3.44 -7.24,-7.84 -10,-7.73 -1.33,0.05 -6.42,3.02 -8.03,3.83 -1.45,0.73 -2.46,1.3 -3.98,1.94 -1.75,0.72 -2.74,1.31 -4.55,1.73zm-211.61 -18.12c3.85,-2.58 4.54,-0.28 7.88,0 0.47,5.68 4.48,10.52 4.73,11.43 -2.67,1.79 -4.92,3.55 -7.89,5.12 0.53,-6.18 5.13,-4.29 5.13,-7.88 0,-3.66 -3.5,-3.15 -5.91,-3.15 0,-4.07 -2.32,-3.31 -3.94,-5.52zm-60.29 -9.85l0 0zm0.39 -0.4l-0.39 0.4 0.39 -0.4zm235.64 -3.15l0 0zm-1.18 -2.75l0 0zm-0.79 -2.36l0.13 0.11c-0.01,-0.01 -0.17,-0.08 -0.13,-0.11zm-106.38 -20.5l0 0zm0.39 -0.39l-0.39 0.39 0.39 -0.39zm0.39 -0.39l-0.39 0.39 0.39 -0.39zm126.88 0l0 0zm-126.88 0l0 0zm130.03 -5.13l3.69 7.02c-2.31,0.12 -2.42,0.81 -3.69,1.65l-3.15 -3.54c4.13,-0.1 3.39,-2.29 3.15,-5.13zm-0.39 -0.79l0.39 0.79 -0.39 -0.79zm-0.4 -0.79l0.4 0.79 -0.4 -0.79zm-0.39 -0.79l0.39 0.79 -0.39 -0.79zm-128.06 -0.39c2.84,0 1.96,0.33 3.94,0.79 -0.31,1.33 -1.39,3.17 -2.76,3.54 -0.02,-1.05 -0.82,-3.53 -1.18,-4.33zm127.67 -0.39l0.39 0.78 -0.39 -0.78zm0 0l0 0zm-135.55 0.39l0.53 -2.49c0.48,0.48 0.17,0.21 0.62,0.55 1.29,0.96 0.49,-0.36 1.6,1.15 -1.45,0.34 -1.1,0.66 -2.75,0.79zm134.76 -1.57l0 0zm0 0l0 0zm-255.74 39c0.4,-1.67 6.14,-10.13 7.44,-11.88 7.76,-10.46 15.14,-19.57 24.97,-28.22 1.47,-1.29 1.8,-0.87 3.45,-1.66 0.35,1.29 0.58,1.29 1.58,1.97 -2.01,3.01 -0.25,4.15 0.39,5.12l-14.13 13.07c-5.21,4.15 -13.77,12.87 -18.87,17.37 -0.97,0.85 -1.39,0.99 -2.37,1.96 -0.91,0.91 -1.43,1.59 -2.46,2.27l0 0zm111.91 -42.55c-0.32,1.4 -1.61,3.09 -2.42,4.28 -1.06,1.56 -2.14,2.02 -4.67,2.02 -0.32,-1.2 -0.74,-1.24 -1.57,-1.97 4.61,-1.07 6.48,-3.75 8.66,-4.33zm0 0l0 0zm7.89 -5.91c1.77,0.2 0.99,-0.59 1.18,1.18l-1.18 -1.18zm0 0l0 0zm-1.58 -0.79c0.42,-0.42 1.5,0.63 0.44,0.21 -0.01,0 -1.1,0.45 -0.44,-0.21zm-14.18 -3.15c1.18,0.32 0.86,-0.01 1.18,1.18 -1.65,-0.44 -0.65,-0.16 -1.18,-1.18zm-42.56 -9.46l0.11 0.11c-0.01,0 -0.15,-0.07 -0.11,-0.11zm0.78 -0.39l0.13 0.11c-0.01,-0.01 -0.17,-0.08 -0.13,-0.11zm1.18 -0.4l0 0zm0 0c1.91,-1.65 10.91,-5.82 13.4,-7.09 10.89,-5.51 24.29,-9.56 36.5,-12.37 9.32,-2.15 15.31,-2.48 24.52,-3.45 10.74,-1.14 28.24,-0.24 38.85,1.46 16.43,2.64 33.34,7.59 47.9,14.76 1.63,0.81 3.17,1.28 4.85,2.23 1.69,0.95 2.95,1.63 4.62,2.49 1.16,0.6 3.66,1.85 4.33,2.76 -5.84,-0.48 -6.17,-4.33 -10.99,-0.73 -3.45,2.59 -5.09,3.28 -1.76,7.16 0.63,0.72 0.57,0.81 1.23,1.54 14.16,15.89 5.13,13.51 10.63,19.72l5.52 4.72c4.1,3.49 4.23,0.06 7.19,0.69 -0.72,3.07 0.94,6.53 3.54,8.27 -1.28,1.93 -1.18,0.65 -1.18,3.95 -7.95,-0.67 -8.66,-12.42 -14.13,-9.42 -5.55,3.04 -3.75,5.77 -2.02,9.02 -1.93,1.29 -5.33,5.49 -4.1,8.44 0.04,0.11 0.23,0.37 0.28,0.45 0.03,0.05 0.11,0.14 0.14,0.18 0.02,0.06 0.09,0.15 0.11,0.19l0.41 1.78 1.18 0c-0.35,0.78 -0.4,0.82 -0.06,1.6 0.66,1.52 0.37,0.84 1.25,1.15 0.09,4.11 5.11,5.82 5.95,0.45 0.27,-1.68 0.47,-1.89 1.53,-2.81 4.1,3 1.04,4.46 5.13,5.91 2.28,0.81 3.69,4.05 5.06,6 1.73,2.46 1.05,2.62 -5.87,2.66 -11.94,0.08 -3.68,8.21 -0.21,15.64 0.89,1.9 -0.84,1.63 1.56,7.85 0.56,1.44 1.2,2.65 2.67,2.84 0.96,0.11 7.63,-2.21 8.61,-2.68 -1.34,5.74 -1.33,1.5 -3.29,4.18l-7.74 17.9c-3.5,7.84 -7.85,14.91 -12.46,21.82 -1.78,2.67 -6.88,7.95 -3.6,10.77 5.09,4.4 3.54,1.54 4.9,12.44 1.44,11.44 -1.58,9.93 -1.73,14.12 -0.09,2.44 4.43,5.19 6.09,6.73 0.89,0.83 1.21,1.32 2.23,2.11l11.36 9.92c2.72,2.41 10.27,8.87 14.01,6.33 1.61,-1.1 1.98,-4.01 3.74,-4.93 0.97,-0.51 5.42,-1.37 6.9,-1.77 2.1,-0.58 4.47,-1.28 6.73,-1.94 4.28,-1.24 8.64,-2.83 13.04,-3.9 6.42,-1.56 6.79,0.27 6.72,9.07l-0.8 11.82c-0.64,13.3 -1.53,18.68 -8.29,30.33 -2.57,4.42 -5.74,12.61 -8.71,16.51 -1.29,1.7 -2.51,3.16 -3.83,4.83l-8.05 9.29c-1.21,1.44 -2.77,2.79 -4.12,4.16 -0.81,0.81 -1.35,1.37 -2.16,2.17l-4.55 4.13c-0.97,0.86 -1.36,0.98 -2.36,1.97 -6.19,6.17 -17.47,13.42 -24.99,17.96 -17.72,10.69 -40.7,19 -62.86,22.64 -13.05,2.16 -27.3,2.45 -40.68,1.44 -2.44,-0.19 -5.2,-0.76 -7.9,-0.76l-2.02 -2.72c-0.29,-0.23 -0.47,-0.31 -0.73,-0.45 -2.89,-1.58 -4.35,-2.43 -4.35,-6.29 4.44,0 4.73,-0.01 4.73,-4.33 0.97,-0.47 2.22,-0.77 3.21,-1.13 1.3,-0.46 1.99,-0.99 3.22,-1.54 2.7,-1.2 2.87,1.15 6.59,-1.67 2.6,-1.97 2.78,-1.81 2.75,-6.3 -0.03,-4.31 -0.49,-4.93 -0.79,-8.67 4.93,-2.62 15.26,-8.74 18.37,-13.15 0.82,-1.17 1.03,-2.24 0.96,-4.19 -0.2,-7.27 -3.41,-1.36 3.64,-9.74 6.37,-7.57 7.76,-9.41 7.76,-21.78 -3.37,-2.26 -4.61,-1.56 -8.63,-2 -11.21,-1.25 -22.34,-5.16 -31.54,-11.03 -2.14,-1.36 -3.96,-3.1 -5.98,-4.66 -2.45,-1.92 -5.43,-1.07 -8.28,-0.1 -2.53,0.85 -8.03,4.87 -6.5,2.52 0.24,-0.38 0.43,-0.45 0.71,-0.77 2.13,-2.3 0.36,-5.28 -0.85,-7.61 -9.59,-18.41 -15.97,-9.14 -21.21,-14.25 -2.52,-2.45 -2.17,-6.55 -4.89,-9.3 -1.27,-1.28 -2.42,-2.14 -3.76,-3.33 -1.24,-1.09 -2.7,-2.09 -4.11,-2.99 -1.34,-0.86 -3.03,-1.82 -4.52,-2.58 -17.82,-9.1 -14.51,-2.65 -21,-6.58 -2.02,-1.22 -6.98,-5.03 -9.1,-5.12 -6.95,-0.3 -0.55,9.8 -18.75,-2.49 -1.51,-1.02 -0.87,-0.4 -1.75,-1.8 -5.68,-8.94 -11.2,-10.23 -11.42,-13.43 -0.06,-0.93 0.58,-5.71 0.79,-6.32 1.02,-3.02 4.62,-5.52 4.38,-9.83 -0.13,-2.25 -1.77,-2.93 -4.35,-2.79 -4.22,0.23 -6.14,3.2 -9.07,5.16 -2.34,-2.03 -1.83,-3.41 -2.27,-6.81 -0.33,-2.58 -0.1,-6.6 -0.1,-9.35 3.88,-2.6 5.72,-7.34 7.89,-11.42 11.51,0 9.29,2.51 14.46,4.47 1.79,0.69 3.57,-0.65 4.84,-1.32 0.3,3.55 1.79,3.93 5.52,3.93 0,6.49 0.79,11.31 0.79,17.74 -1.46,-0.77 -1.69,-1.19 -3.59,-1.54 -1.6,-0.3 -7.96,-1.18 -9.29,-0.32 -5.18,3.36 4.81,9.12 8.61,10.46 4.79,1.7 2.61,4.63 9.52,6.64 4.23,1.22 5.1,1.74 7.87,-1.34 2.2,-2.43 0.99,-3.39 -0.79,-4.96 -2.44,-2.15 -3.48,-6.26 -7.21,-6.58l0 -0.78c1.71,-0.46 3.79,-2.99 5.29,-4.17 1.57,-1.23 4.24,-2.75 3.57,-5.43 -0.63,-2.51 -2.84,-4.09 -1.77,-6.92 0.81,-2.14 3.61,-3.11 5.78,-4.11 1.91,-0.89 4.56,-2.57 6.32,-3.16 4.16,-1.41 6.96,3.17 10.76,-1.83l6.6 -7.98c1.82,-2.09 3.21,-2.4 5.89,-3.56 7.12,-3.07 13.88,-5.01 21.53,-7.24 2.72,-0.79 20.57,-4.95 21.8,-6.59 0.83,-1.09 0.59,-2.53 -0.14,-3.5 -0.82,-1.07 -2.1,-1.34 -3.67,-1.47 0.25,-2.95 2.67,-1.62 2.76,-5.51 4.92,0 3.13,0.2 6.14,2.52 3.77,2.92 4.85,8.95 9.9,2.88 2.26,-2.72 2.88,-2.21 2.88,-6.19 -1.3,-0.87 -0.56,-1.04 -2.37,-1.18 0.88,-3.3 13.21,-8.05 10.54,-12.48 -1.4,-2.31 -4.21,-1.12 -6.6,-0.93 -0.06,-2.8 -1.81,-3.71 -2.2,-5.67 -0.71,-3.61 6.36,-6.82 -3.3,-9.32 -1.73,-0.45 -5.81,-0.79 -7.5,0.02 -1.24,-2.34 -3.69,-6.58 -5.62,-8.17 -3.81,-3.15 -7.27,-1.61 -7.38,3.44 -6.31,0 -4.43,0.66 -7.58,3.85l-8.48 8.47c-1.23,1.24 -1.98,1.66 -3.17,2.75 -1.62,1.51 -3.9,4.86 -5.99,5.43 -0.32,-3.78 -3.16,-8.61 -3.16,-15.38 3.75,-0.87 22.73,-13.1 26.95,-14.84 2.54,-1.03 2.59,0.07 4.97,0.26 -0.14,1.67 -0.69,2.28 0.39,3.53 0.81,0.95 2.18,1.19 3.93,1.22 5.48,0.06 4.01,0.42 6.03,4.22 0.64,1.19 1.22,1.79 3.04,1.71 3.87,-0.16 4.06,-7.87 7.5,-7.92 3.06,-0.05 4.33,6.78 8.9,0.64 1.56,-2.1 4.92,-8.59 0.15,-9.69 0,-7.3 -1.67,-3.62 -2.73,-7.13 -1.12,-3.74 -2.03,-2.95 -5.82,-4.42 -2.26,-0.88 -3.46,-0.51 -4.06,-3.04 2.72,0 5.69,-1.19 7.74,-2.15 3.02,-1.44 0.29,-0.76 3.01,-0.32 1.8,0.3 2.68,-0.48 3.05,-1.86 4.26,2.85 2.98,-1.37 8.22,5.58 1.72,2.28 1.57,1.52 1.25,4.69 -0.16,1.61 -0.13,2.04 0.47,3.04l1.48 2.05c-1.75,7.56 -5.27,4.08 -1.52,14.53 1.44,4.04 1.29,3.73 6.17,6.84 2.59,1.66 7.6,2.43 9.09,-1.33 2.03,-5.11 1.38,-0.99 11.26,-8.44l13.64 -12.76c1.05,-1.41 0.9,-2.46 1.07,-3.99 0.2,-1.78 2.12,-3.21 -0.69,-5.08 3.1,-4.65 -3.18,-9.96 -4.01,-10.98 -1.29,-1.6 -2.21,-3.07 -3.33,-4.95l-1.7 -4.2c-1.02,-1.9 -1.33,-1.06 -3.84,-1.69 -3.35,-0.82 -5.24,-4.12 -9.24,-2.29 -1.45,0.67 -0.87,0.77 -2.06,1.11 -2.19,0.63 -3.5,-0.09 -4.2,2.5 -4.34,0 -3.84,0.09 -6.97,-1.31 -2.72,-1.22 -4.6,-0.63 -5.24,2.1 -3.86,-0.32 -0.43,-3.37 -12.44,-0.63 -1.77,0.41 -4.94,0.26 -5.94,1.98 -1.27,2.18 0.6,4.22 1.04,6.14 -0.53,0.71 -3.39,2.69 -4.31,3.17l-4.36 1.16c-0.64,0.07 -3.69,0.3 -3.02,3.38 0.32,1.49 1.05,2 2.63,2.13 -1.21,1.66 -0.71,0.17 -3.16,0 -1.51,-0.09 -3,0.69 -3.93,1.18 0,-0.96 -0.25,-3.01 -0.23,-3.19 0.19,-1.89 2.93,-3.13 0.23,-8.22 2.78,-0.75 3.54,-3.98 3.54,-7.49 -3.39,-2.28 -3.4,-1.98 -7.17,0.32l-5.03 2.84c-0.75,0.45 -0.86,0.68 -1.59,1.17 0,2.54 0.18,2.45 1.18,3.94l3.55 0c-0.65,0.56 -2.26,2.79 -3.15,2.37 -1.57,-0.76 -0.22,-2.81 -2.62,-3.7 -1.21,-0.45 -1.56,-0.1 -2.83,-0.32 -2.04,-0.36 -0.45,-0.86 -2.77,-0.7 -1.59,0.12 -5.56,1.76 -6.86,3.03 -1.03,1.04 -0.69,0.99 -0.69,2.87 -2.26,-1.52 -4.08,-3.69 -6.11,-0.21 -0.41,0.7 -0.35,0.75 -0.83,1.53 -0.6,1 -0.62,0.71 -1,1.76 -0.4,1.09 -0.33,3.12 -0.33,4.79 -1.98,0.47 -4.36,0.81 -4.69,2.85 -0.36,2.3 1.85,3.75 2.72,5.04 -1.73,-0.04 -1.23,-0.26 -2.76,-0.4 0,-3.5 -1.18,-4.47 -4.33,-4.72 0.84,-3.63 0.1,-3.85 -3.01,-4.88 -4.36,-1.46 -2.8,-1.28 -7.24,-0.25 3.18,-6 -2.04,-5.91 -7.09,-5.91 0.09,-3.88 0.49,-0.77 -0.74,-4.78l-1.24 -2.71 -3.15 0 0 0z"/>
   <path class="fil1" d="M134.31 241.77c0,9.48 4.52,6.73 5.89,7.48 0.31,0.16 2.08,2.27 2.44,2.72 3.65,4.66 5.05,1.64 8.12,-1.24 1.8,-1.69 2.06,-0.98 2.06,-4.23 0,-0.77 -3.53,-5.79 -4.22,-6.41 -0.68,-0.63 -6.33,-3.83 -7.21,-3.83 -1.17,0 -3.96,1.11 -4.72,1.57 -1.26,0.76 -2.36,1.95 -2.36,3.94l0 0z"/>
   <path class="fil1" d="M288.38 117.26c0,2.27 2.31,3.03 3.76,4.1 2.52,1.85 2.36,2.13 5.99,1.32 4.31,-0.96 8.77,-1.97 8.77,-7.39 0,-3.96 -4.2,-3.16 -7.89,-3.16 -3.64,0 -10.63,1.95 -10.63,5.13l0 0z"/>
  </g>
  <path class="fil2 str0" d="M224.27 241.13l166.71 0c6.65,0 12.03,5.39 12.03,12.03l0 191.64c0,6.64 -5.38,12.02 -12.03,12.02l-166.71 0c-6.64,0 -12.03,-5.38 -12.03,-12.02l0 -191.64c0,-6.64 5.39,-12.03 12.03,-12.03z"/>
  <path class="fil3" d="M233.46 342.62l45.75 0c1.82,0 3.29,1.28 3.29,2.85l0 45.24c0,1.57 -1.47,2.85 -3.29,2.85l-45.75 0c-1.82,0 -3.3,-1.28 -3.3,-2.85l0 -45.24c0,-1.57 1.48,-2.85 3.3,-2.85z"/>
  <path class="fil4" d="M239.92 303.9l137.44 0c5.48,0 9.92,0.63 9.92,1.4l0 22.38c0,0.78 -4.44,1.41 -9.92,1.41l-137.44 0c-5.48,0 -9.92,-0.63 -9.92,-1.41l0 -22.38c0,-0.77 4.44,-1.4 9.92,-1.4z"/>
  <path class="fil5" d="M292.72 343.37l88.19 0c3.52,0 6.37,0.11 6.37,0.24l0 3.79c0,0.13 -2.85,0.23 -6.37,0.23l-88.19 0c-3.52,0 -6.37,-0.1 -6.37,-0.23l0 -3.79c0,-0.13 2.85,-0.24 6.37,-0.24z"/>
  <path class="fil4" d="M240.49 423.97l136.3 0c5.43,0 9.84,0.38 9.84,0.85l0 13.39c0,0.46 -4.41,0.84 -9.84,0.84l-136.3 0c-5.43,0 -9.84,-0.38 -9.84,-0.84l0 -13.39c0,-0.47 4.41,-0.85 9.84,-0.85z"/>
  <polygon class="fil6" points="253.04,293.44 245.38,260.87 252.16,260.87 257,283.25 262.95,260.87 270.79,260.87 276.47,283.63 281.43,260.87 288.05,260.87 280.2,293.44 273.16,293.44 266.74,269.09 260.27,293.44 "/>
  <polygon id="_1" class="fil6" points="295.97,293.44 288.31,260.87 295.09,260.87 299.94,283.25 305.88,260.87 313.72,260.87 319.41,283.63 324.37,260.87 330.99,260.87 323.14,293.44 316.09,293.44 309.67,269.09 303.2,293.44 "/>
  <polygon id="_2" class="fil6" points="338.91,293.44 331.25,260.87 338.03,260.87 342.87,283.25 348.82,260.87 356.67,260.87 362.34,283.63 367.3,260.87 373.93,260.87 366.08,293.44 359.04,293.44 352.61,269.09 346.15,293.44 "/>
  <path class="fil5" d="M292.72 389.57l88.19 0c3.52,0 6.37,0.11 6.37,0.24l0 3.79c0,0.13 -2.85,0.23 -6.37,0.23l-88.19 0c-3.52,0 -6.37,-0.1 -6.37,-0.23l0 -3.79c0,-0.13 2.85,-0.24 6.37,-0.24z"/>
  <path class="fil5" d="M292.72 367.62l88.19 0c3.52,0 6.37,0.1 6.37,0.23l0 3.79c0,0.13 -2.85,0.24 -6.37,0.24l-88.19 0c-3.52,0 -6.37,-0.11 -6.37,-0.24l0 -3.79c0,-0.13 2.85,-0.23 6.37,-0.23z"/>
  <path class="fil5" d="M292.72 356.15l88.19 0c3.52,0 6.37,0.1 6.37,0.23l0 3.79c0,0.13 -2.85,0.24 -6.37,0.24l-88.19 0c-3.52,0 -6.37,-0.11 -6.37,-0.24l0 -3.79c0,-0.13 2.85,-0.23 6.37,-0.23z"/>
  <path class="fil5" d="M292.72 378.1l88.19 0c3.52,0 6.37,0.11 6.37,0.24l0 3.79c0,0.13 -2.85,0.23 -6.37,0.23l-88.19 0c-3.52,0 -6.37,-0.1 -6.37,-0.23l0 -3.79c0,-0.13 2.85,-0.24 6.37,-0.24z"/>
  <path class="fil5" d="M239.92 400.39l137.45 0c5.47,0 9.92,0.1 9.92,0.23l0 3.79c0,0.13 -4.45,0.24 -9.92,0.24l-137.45 0c-5.48,0 -9.92,-0.11 -9.92,-0.24l0 -3.79c0,-0.13 4.44,-0.23 9.92,-0.23z"/>
  <path class="fil5" d="M239.92 410.54l137.45 0c5.47,0 9.92,0.11 9.92,0.24l0 3.79c0,0.13 -4.45,0.23 -9.92,0.23l-137.45 0c-5.48,0 -9.92,-0.1 -9.92,-0.23l0 -3.79c0,-0.13 4.44,-0.24 9.92,-0.24z"/>
  <g id="_2504599913760">
   <g>
   </g>
   <g style="clip-path:url(#id0)">
    <g id="_2504599914432">
     <polygon class="fil7" points="246.09,155.94 246.06,154.94 253.91,154.91 253.94,155.91 "/>
     <path id="_1_0" class="fil8" d="M247.39 155.77l5.24 -0.02 -0.02 -0.66 -5.24 0.02 0.02 0.66zm-3.9 0.5l-0.06 -1.64 13.08 -0.06 0.06 1.66 -13.08 0.04 0 0z"/>
     <path id="_2_1" class="fil9" d="M244.78 156.1l10.48 -0.04 -0.04 -1.31 -10.48 0.04 0.04 1.31zm-3.9 0.52l-0.08 -2.31 18.32 -0.07 0.08 2.31 -18.32 0.07z"/>
     <path id="_3" class="fil10" d="M242.19 156.44l15.7 -0.06 -0.07 -1.97 -15.71 0.05 0.08 1.98 0 0zm-3.92 0.51l-0.11 -2.96 23.57 -0.09 0.11 2.96 -23.57 0.09z"/>
     <path id="_4" class="fil11" d="M239.58 156.78l20.94 -0.07 -0.1 -2.64 -20.94 0.07 0.1 2.64zm-3.92 0.52l-0.13 -3.63 28.81 -0.11 0.13 3.62 -28.81 0.12z"/>
     <path id="_5" class="fil12" d="M236.97 157.12l26.19 -0.09 -0.13 -3.3 -26.19 0.09 0.13 3.3zm-3.91 0.52l-0.16 -4.3 34.04 -0.12 0.16 4.29 -34.04 0.13z"/>
     <path id="_6" class="fil13" d="M234.36 157.46l31.42 -0.11 -0.14 -3.96 -31.42 0.12 0.14 3.95zm-3.9 0.51l-0.19 -4.95 39.27 -0.14 0.19 4.95 -39.27 0.14z"/>
     <path id="_7" class="fil14" d="M231.76 157.8l36.65 -0.13 -0.16 -4.62 -36.66 0.14 0.17 4.61 0 0zm-3.91 0.51l-0.21 -5.6 44.51 -0.17 0.21 5.61 -44.51 0.16z"/>
     <path id="_8" class="fil15" d="M229.15 158.14l41.89 -0.16 -0.19 -5.26 -41.89 0.15 0.19 5.27zm-3.91 0.51l-0.22 -6.26 49.74 -0.19 0.23 6.27 -49.75 0.18z"/>
     <path id="_9" class="fil16" d="M226.55 158.48l47.12 -0.18 -0.22 -5.92 -47.12 0.16 0.22 5.94zm-3.92 0.51l-0.24 -6.92 54.98 -0.21 0.24 6.92 -54.98 0.21z"/>
     <path id="_10" class="fil17" d="M223.94 158.82l52.36 -0.19 -0.24 -6.59 -52.36 0.18 0.24 6.6zm-3.9 0.51l-0.28 -7.58 60.22 -0.23 0.26 7.58 -60.2 0.23 0 0z"/>
     <path id="_11" class="fil18" d="M221.33 159.16l57.6 -0.21 -0.26 -7.25 -57.6 0.2 0.26 7.26zm-3.9 0.51l-0.3 -8.25 65.44 -0.23 0.31 8.24 -65.45 0.24 0 0z"/>
     <path id="_12" class="fil19" d="M218.73 159.49l62.83 -0.22 -0.29 -7.91 -62.83 0.23 0.29 7.9zm-3.91 0.52l-0.33 -8.91 70.69 -0.25 0.33 8.9 -70.69 0.26z"/>
     <path id="_13" class="fil20" d="M216.12 159.83l68.08 -0.24 -0.32 -8.57 -68.07 0.25 0.31 8.56zm-3.91 0.52l-0.35 -9.57 75.93 -0.27 0.35 9.56 -75.93 0.28z"/>
     <path id="_14" class="fil21" d="M213.51 160.17l73.32 -0.27 -0.34 -9.22 -73.31 0.27 0.33 9.22zm-3.91 0.51l-0.37 -10.21 81.17 -0.3 0.37 10.22 -81.17 0.29z"/>
     <path id="_15" class="fil22" d="M210.91 160.51l78.54 -0.28 -0.36 -9.89 -78.54 0.28 0.36 9.89zm-3.91 0.51l-0.4 -10.87 86.4 -0.32 0.4 10.87 -86.4 0.32z"/>
     <path id="_16" class="fil23" d="M208.31 160.85l83.77 -0.3 -0.38 -10.54 -83.78 0.29 0.39 10.55 0 0zm-3.91 0.51l-0.43 -11.54 91.64 -0.33 0.42 11.53 -91.63 0.34z"/>
     <path id="_17" class="fil24" d="M205.7 161.19l89.01 -0.32 -0.41 -11.2 -89.01 0.31 0.41 11.21zm-3.91 0.51l-0.44 -12.2 96.86 -0.35 0.44 12.2 -96.86 0.35z"/>
     <path id="_18" class="fil25" d="M203.09 161.53l94.25 -0.34 -0.43 -11.86 -94.25 0.34 0.43 11.86zm-3.91 0.51l-0.46 -12.86 102.1 -0.37 0.46 12.86 -102.1 0.37z"/>
     <path id="_19" class="fil26" d="M200.48 161.87l99.49 -0.36 -0.45 -12.52 -99.49 0.36 0.45 12.52zm-3.9 0.51l-0.49 -13.51 107.34 -0.39 0.48 13.51 -107.33 0.39z"/>
     <path id="_20" class="fil27" d="M197.88 162.2l104.72 -0.38 -0.47 -13.17 -104.73 0.38 0.48 13.17 0 0zm-3.91 0.52l-0.51 -14.17 112.57 -0.41 0.52 14.17 -112.58 0.41 0 0z"/>
     <path id="_21" class="fil28" d="M195.28 162.54l109.96 -0.4 -0.52 -13.83 -109.95 0.39 0.51 13.84zm-3.92 0.52l-0.54 -14.83 117.82 -0.43 0.54 14.83 -117.82 0.43z"/>
     <path id="_22" class="fil29" d="M192.67 162.88l115.2 -0.41 -0.54 -14.5 -115.19 0.41 0.53 14.5zm-3.92 0.52l-0.56 -15.49 123.06 -0.45 0.56 15.48 -123.06 0.46z"/>
     <path id="_23" class="fil30" d="M190.06 163.22l120.44 -0.43 -0.56 -15.16 -120.44 0.43 0.56 15.16zm-3.9 0.51l-0.6 -16.15 128.29 -0.46 0.59 16.15 -128.28 0.46 0 0z"/>
     <path id="_24" class="fil31" d="M187.45 163.56l125.67 -0.45 -0.57 -15.82 -125.67 0.46 0.57 15.81zm-3.9 0.51l-0.62 -16.81 133.52 -0.48 0.62 16.81 -133.52 0.48z"/>
     <path id="_25" class="fil32" d="M184.85 163.9l130.9 -0.47 -0.59 -16.48 -130.91 0.48 0.6 16.47 0 0zm-3.91 0.51l-0.64 -17.47 138.76 -0.5 0.64 17.47 -138.76 0.5z"/>
     <path id="_26" class="fil33" d="M182.24 164.24l136.14 -0.49 -0.62 -17.14 -136.14 0.5 0.62 17.13zm-3.91 0.51l-0.66 -18.12 144 -0.53 0.66 18.13 -144 0.52z"/>
     <path id="_27" class="fil34" d="M179.64 164.58l141.37 -0.52 -0.65 -17.78 -141.37 0.5 0.65 17.8 0 0zm-3.92 0.51l-0.67 -18.78 149.23 -0.55 0.67 18.79 -149.23 0.54 0 0z"/>
     <path id="_28" class="fil35" d="M177.03 164.92l146.61 -0.53 -0.67 -18.46 -146.61 0.53 0.67 18.46 0 0zm-3.9 0.51l-0.71 -19.44 154.47 -0.57 0.7 19.44 -154.46 0.57z"/>
     <path id="_29" class="fil36" d="M174.43 165.25l151.84 -0.54 -0.69 -19.12 -151.85 0.55 0.7 19.11 0 0zm-3.91 0.52l-0.73 -20.11 159.69 -0.57 0.74 20.1 -159.7 0.58z"/>
     <path id="_30" class="fil37" d="M171.82 165.6l157.09 -0.57 -0.73 -19.78 -157.08 0.58 0.72 19.77 0 0zm-3.91 0.51l-0.76 -20.77 164.94 -0.59 0.76 20.76 -164.94 0.6z"/>
     <path id="_31" class="fil38" d="M169.21 165.93l162.33 -0.58 -0.75 -20.44 -162.33 0.6 0.75 20.42 0 0zm-3.91 0.52l-0.78 -21.43 170.18 -0.61 0.78 21.42 -170.18 0.62 0 0z"/>
     <path id="_32" class="fil39" d="M166.6 166.28l167.57 -0.61 -0.77 -21.1 -167.57 0.62 0.77 21.09zm-3.9 0.5l-0.81 -22.07 175.42 -0.64 0.8 22.08 -175.41 0.63z"/>
     <path id="_33" class="fil40" d="M164 166.61l172.79 -0.62 -0.79 -21.76 -172.79 0.63 0.79 21.75zm-3.91 0.51l-0.83 -22.73 180.65 -0.66 0.83 22.74 -180.65 0.65z"/>
     <path id="_34" class="fil41" d="M161.4 166.96l178.02 -0.65 -0.81 -22.42 -178.03 0.65 0.82 22.42 0 0zm-3.91 0.5l-0.86 -23.4 185.88 -0.67 0.86 23.39 -185.88 0.68 0 0z"/>
     <path id="_35" class="fil42" d="M158.79 167.3l183.26 -0.67 -0.84 -23.07 -183.26 0.66 0.84 23.08zm-3.91 0.5l-0.88 -24.06 191.12 -0.69 0.88 24.06 -191.12 0.69z"/>
     <path id="_36" class="fil43" d="M156.18 167.64l188.5 -0.69 -0.86 -23.73 -188.5 0.68 0.86 23.74zm-3.91 0.5l-0.89 -24.72 196.35 -0.71 0.89 24.72 -196.35 0.71z"/>
     <path id="_37" class="fil44" d="M153.57 167.98l193.74 -0.71 -0.88 -24.39 -193.74 0.71 0.88 24.39zm-3.9 0.5l-0.92 -25.38 201.58 -0.73 0.93 25.38 -201.59 0.73z"/>
     <path id="_38" class="fil45" d="M150.97 168.31l198.97 -0.73 -0.9 -25.04 -198.98 0.73 0.91 25.04zm-3.91 0.51l-0.95 -26.03 206.83 -0.75 0.95 26.03 -206.83 0.75z"/>
     <path id="_39" class="fil46" d="M148.37 168.65l204.21 -0.74 -0.95 -25.71 -204.2 0.74 0.94 25.71zm-3.92 0.51l-0.97 -26.69 212.07 -0.77 0.97 26.69 -212.07 0.77z"/>
     <path id="_40" class="fil47" d="M145.76 168.99l209.45 -0.76 -0.97 -26.37 -209.45 0.76 0.97 26.37zm-3.91 0.51l-1 -27.36 217.31 -0.78 0.99 27.34 -217.3 0.8z"/>
     <path id="_41" class="fil48" d="M143.15 169.33l214.69 -0.78 -0.99 -27.03 -214.68 0.78 0.98 27.03zm-3.91 0.5l-1.02 -28.01 222.54 -0.8 1.02 28.01 -222.54 0.8z"/>
     <path id="_42" class="fil49" d="M140.54 169.67l219.93 -0.8 -1.01 -27.69 -219.92 0.8 1 27.69zm-3.9 0.5l-1.05 -28.67 227.77 -0.82 1.05 28.67 -227.77 0.82z"/>
     <path id="_43" class="fil50" d="M137.94 170.01l225.15 -0.82 -1.03 -28.35 -225.15 0.83 1.03 28.34zm-3.91 0.5l-1.07 -29.33 233.01 -0.84 1.07 29.33 -233.01 0.84z"/>
     <path id="_44" class="fil51" d="M135.34 170.35l230.38 -0.84 -1.05 -29 -230.39 0.84 1.06 29zm-3.92 0.5l-1.08 -29.98 238.24 -0.87 1.09 29.99 -238.25 0.86z"/>
     <path id="_45" class="fil52" d="M132.73 170.69l235.62 -0.87 -1.08 -29.65 -235.62 0.85 1.08 29.67 0 0zm-3.92 0.5l-1.1 -30.64 243.48 -0.89 1.11 30.65 -243.49 0.88z"/>
     <path id="_46" class="fil53" d="M130.12 171.03l240.86 -0.88 -1.1 -30.32 -240.86 0.87 1.1 30.33zm-3.9 0.5l-1.15 -31.31 248.71 -0.89 1.15 31.29 -248.71 0.91z"/>
     <path id="_47" class="fil54" d="M127.51 171.36l246.1 -0.89 -1.12 -30.98 -246.1 0.89 1.12 30.98zm-3.9 0.51l-1.17 -31.97 253.95 -0.91 1.17 31.96 -253.95 0.92z"/>
     <path id="_48" class="fil55" d="M124.91 171.7l251.34 -0.91 -1.16 -31.64 -251.34 0.92 1.16 31.63zm-3.91 0.51l-1.19 -32.63 259.19 -0.93 1.19 32.62 -259.19 0.94z"/>
     <path id="_49" class="fil55" d="M122.3 172.04l256.58 -0.93 -1.18 -32.3 -256.58 0.94 1.18 32.29zm-3.91 0.51l-1.21 -33.29 264.43 -0.95 1.21 33.28 -264.43 0.96z"/>
     <path id="_50" class="fil55" d="M119.7 172.38l261.81 -0.95 -1.21 -32.96 -261.81 0.96 1.21 32.95zm-3.92 0.5l-1.23 -33.93 269.67 -0.98 1.23 33.94 -269.67 0.97z"/>
     <path id="_51" class="fil55" d="M117.09 172.72l267.04 -0.96 -1.22 -33.63 -267.04 0.97 1.22 33.62zm-3.9 0.5l-1.27 -34.59 274.9 -1 1.26 34.6 -274.89 0.99z"/>
     <path id="_52" class="fil55" d="M114.49 173.06l272.27 -0.99 -1.25 -34.28 -272.27 0.99 1.25 34.28zm-3.91 0.5l-1.29 -35.26 280.13 -1.01 1.29 35.27 -280.13 1z"/>
     <path id="_53" class="fil55" d="M111.88 173.4l277.51 -1.01 -1.27 -34.93 -277.51 1 1.27 34.94zm-3.91 0.5l-1.31 -35.92 285.37 -1.03 1.31 35.92 -285.37 1.03z"/>
     <path id="_54" class="fil55" d="M109.27 173.74l282.75 -1.03 -1.29 -35.59 -282.75 1.02 1.29 35.6zm-3.91 0.5l-1.32 -36.58 290.6 -1.06 1.32 36.59 -290.6 1.05z"/>
     <path id="_55" class="fil55" d="M106.66 174.08l287.99 -1.05 -1.31 -36.25 -287.99 1.05 1.31 36.25zm-3.9 0.5l-1.36 -37.24 295.85 -1.07 1.35 37.24 -295.84 1.07 0 0z"/>
     <path id="_56" class="fil55" d="M104.06 174.42l293.23 -1.07 -1.35 -36.91 -293.23 1.06 1.35 36.92zm-3.91 0.5l-1.38 -37.9 301.08 -1.09 1.38 37.9 -301.08 1.09 0 0z"/>
     <path id="_57" class="fil55" d="M101.46 174.75l298.46 -1.07 -1.38 -37.58 -298.46 1.08 1.38 37.57zm-3.91 0.51l-1.41 -38.55 306.31 -1.12 1.41 38.56 -306.31 1.11z"/>
     <path id="_58" class="fil55" d="M98.85 175.09l303.7 -1.1 -1.4 -38.23 -303.7 1.1 1.4 38.23zm-3.91 0.51l-1.43 -39.22 311.55 -1.13 1.43 39.22 -311.55 1.13z"/>
     <path id="_59" class="fil55" d="M96.24 175.43l308.94 -1.12 -1.42 -38.89 -308.94 1.12 1.42 38.89zm-3.91 0.51l-1.45 -39.88 316.79 -1.15 1.45 39.88 -316.79 1.15z"/>
     <path id="_60" class="fil55" d="M93.63 175.77l314.18 -1.14 -1.44 -39.55 -314.18 1.14 1.44 39.55zm-3.9 0.51l-1.48 -40.54 322.02 -1.17 1.48 40.54 -322.02 1.17z"/>
     <path id="_61" class="fil55" d="M91.03 176.11l319.4 -1.16 -1.45 -40.2 -319.41 1.16 1.46 40.2 0 0zm-3.91 0.51l-1.5 -41.2 327.26 -1.19 1.5 41.2 -327.26 1.19z"/>
     <path id="_62" class="fil54" d="M88.43 176.45l324.63 -1.18 -1.49 -40.86 -324.63 1.18 1.49 40.86zm-3.92 0.51l-1.52 -41.86 332.5 -1.21 1.52 41.86 -332.5 1.21z"/>
     <path id="_63" class="fil56" d="M85.82 176.79l329.87 -1.19 -1.51 -41.53 -329.87 1.19 1.51 41.53zm-3.91 0.51l-1.55 -42.51 337.74 -1.24 1.55 42.52 -337.74 1.23z"/>
     <path id="_64" class="fil57" d="M83.21 177.13l335.12 -1.22 -1.54 -42.18 -335.11 1.21 1.53 42.19 0 0zm-3.9 0.51l-1.58 -43.18 342.97 -1.24 1.57 43.17 -342.96 1.25 0 0z"/>
     <path id="_65" class="fil58" d="M80.6 177.46l340.36 -1.23 -1.56 -42.84 -340.36 1.23 1.56 42.84zm-3.9 0.52l-1.6 -43.84 348.2 -1.26 1.6 43.83 -348.2 1.27z"/>
     <path id="_66" class="fil59" d="M78 177.8l345.59 -1.25 -1.59 -43.5 -345.59 1.25 1.59 43.5zm-3.91 0.52l-1.62 -44.5 353.44 -1.28 1.62 44.49 -353.44 1.29z"/>
     <path id="_67" class="fil50" d="M75.39 178.14l350.83 -1.27 -1.61 -44.16 -350.83 1.27 1.61 44.16zm-3.91 0.52l-1.64 -45.16 358.68 -1.3 1.64 45.15 -358.68 1.31z"/>
     <path id="_68" class="fil49" d="M72.79 178.48l356.06 -1.29 -1.64 -44.82 -356.06 1.3 1.64 44.81zm-3.92 0.51l-1.66 -45.81 363.92 -1.32 1.66 45.81 -363.92 1.32z"/>
     <path id="_69" class="fil60" d="M70.18 178.82l361.3 -1.3 -1.66 -45.49 -361.3 1.31 1.66 45.48zm-3.9 0.51l-1.7 -46.46 369.14 -1.35 1.7 46.47 -369.14 1.34z"/>
     <path id="_70" class="fil61" d="M67.58 179.16l366.52 -1.33 -1.67 -46.14 -366.53 1.33 1.68 46.14zm-3.91 0.51l-1.72 -47.13 374.38 -1.36 1.72 47.14 -374.38 1.35z"/>
     <path id="_71" class="fil62" d="M64.97 179.5l371.76 -1.35 -1.7 -46.79 -371.76 1.34 1.7 46.8zm-3.91 0.51l-1.74 -47.79 379.62 -1.38 1.75 47.8 -379.63 1.37z"/>
     <path id="_72" class="fil46" d="M62.36 179.84l377 -1.37 -1.72 -47.45 -377 1.36 1.72 47.46zm-3.91 0.51l-1.75 -48.45 384.85 -1.4 1.77 48.45 -384.87 1.4 0 0z"/>
     <path id="_73" class="fil63" d="M59.75 180.18l382.25 -1.39 -1.75 -48.11 -382.24 1.39 1.75 48.11 -0.01 0zm-3.9 0.51l-1.79 -49.11 390.1 -1.42 1.79 49.11 -390.1 1.42z"/>
     <path id="_74" class="fil64" d="M57.16 180.51l387.47 -1.4 -1.78 -48.77 -387.48 1.4 1.79 48.77 0 0zm-3.92 0.52l-1.81 -49.77 395.33 -1.43 1.81 49.76 -395.33 1.44z"/>
     <path id="_75" class="fil65" d="M54.55 180.85l392.71 -1.41 -1.81 -49.44 -392.71 1.42 1.81 49.43zm-3.91 0.52l-1.84 -50.42 400.56 -1.46 1.84 50.42 -400.56 1.46z"/>
     <path id="_76" class="fil66" d="M51.94 181.19l397.95 -1.44 -1.83 -50.09 -397.95 1.44 1.83 50.09zm-3.91 0.52l-1.86 -51.09 405.8 -1.47 1.86 51.09 -405.8 1.47z"/>
     <path id="_77" class="fil42" d="M49.33 181.53l403.19 -1.46 -1.85 -50.75 -403.19 1.46 1.85 50.75zm-3.9 0.51l-1.89 -51.74 411.04 -1.49 1.88 51.75 -411.03 1.48 0 0z"/>
     <path id="_78" class="fil67" d="M46.72 181.87l408.43 -1.48 -1.87 -51.41 -408.43 1.48 1.87 51.41zm-3.9 0.51l-1.91 -52.4 416.27 -1.51 1.91 52.4 -416.27 1.51z"/>
     <path id="_79" class="fil68" d="M44.12 182.21l413.65 -1.5 -1.88 -52.07 -413.66 1.5 1.89 52.07zm-3.91 0.51l-1.93 -53.06 421.51 -1.53 1.93 53.06 -421.51 1.53z"/>
     <path id="_80" class="fil69" d="M41.52 182.55l418.88 -1.52 -1.92 -52.72 -418.88 1.51 1.92 52.73zm-3.92 0.51l-1.95 -53.72 426.75 -1.55 1.96 53.72 -426.76 1.55z"/>
     <path id="_81" class="fil70" d="M38.91 182.89l424.13 -1.53 -1.95 -53.39 -424.12 1.53 1.94 53.39zm-3.91 0.51l-1.99 -54.37 432 -1.58 1.98 54.38 -431.99 1.57z"/>
     <path id="_82" class="fil71" d="M36.3 183.22l429.37 -1.54 -1.97 -54.06 -429.36 1.56 1.96 54.04 0 0zm-3.9 0.52l-2.01 -55.04 437.22 -1.58 2 55.03 -437.21 1.59 0 0z"/>
     <path id="_83" class="fil37" d="M33.7 183.56l434.6 -1.57 -1.99 -54.7 -434.61 1.57 2 54.7 0 0zm-3.91 0.52l-2.03 -55.7 442.45 -1.6 2.03 55.69 -442.45 1.61z"/>
     <path id="_84" class="fil72" d="M31.09 183.9l439.84 -1.59 -2.02 -55.37 -439.84 1.6 2.02 55.36 0 0zm-3.91 0.52l-2.05 -56.36 447.69 -1.62 2.05 56.35 -447.69 1.63z"/>
     <path id="_85" class="fil73" d="M28.49 184.24l445.07 -1.61 -2.04 -56.03 -445.08 1.62 2.05 56.02 0 0zm-3.92 0.52l-2.07 -57.02 452.93 -1.64 2.07 57.01 -452.93 1.65z"/>
     <path id="_86" class="fil74" d="M25.88 184.58l450.31 -1.63 -2.07 -56.69 -450.31 1.65 2.07 56.67zm-3.91 0.51l-2.1 -57.67 458.16 -1.66 2.1 57.67 -458.16 1.66z"/>
     <path id="_87" class="fil34" d="M23.27 184.92l455.55 -1.64 -2.09 -57.36 -455.55 1.66 2.09 57.34zm-3.9 0.51l-2.13 -58.33 463.39 -1.68 2.13 58.33 -463.39 1.68z"/>
     <path id="_88" class="fil33" d="M20.67 185.27l460.77 -1.68 -2.1 -58.01 -460.78 1.68 2.11 58.01 0 0zm-3.91 0.5l-2.15 -58.99 468.63 -1.7 2.15 59 -468.63 1.69z"/>
     <path id="_89" class="fil75" d="M18.06 185.61l466.01 -1.7 -2.13 -58.66 -466.01 1.69 2.13 58.67zm-3.91 0.5l-2.17 -59.65 473.87 -1.72 2.18 59.66 -473.88 1.71z"/>
     <path id="_90" class="fil76" d="M15.45 185.95l471.26 -1.72 -2.16 -59.32 -471.25 1.71 2.15 59.33 0 0zm-3.91 0.5l-2.2 -60.31 479.12 -1.74 2.2 60.31 -479.12 1.74z"/>
     <path id="_91" class="fil77" d="M12.85 186.29l476.49 -1.74 -2.19 -59.98 -476.49 1.73 2.19 59.99zm-3.91 0.5l-2.22 -60.97 484.34 -1.75 2.23 60.96 -484.35 1.76z"/>
     <path id="_92" class="fil27" d="M10.24 186.62l481.73 -1.75 -2.21 -60.64 -481.73 1.75 2.21 60.65 0 -0.01zm-3.9 0.51l-2.25 -61.63 489.58 -1.77 2.24 61.62 -489.57 1.78z"/>
     <path id="_93" class="fil24" d="M7.64 186.96l486.96 -1.76 -2.24 -61.31 -486.96 1.77 2.24 61.3zm-3.91 0.51l-2.27 -62.29 494.81 -1.79 2.27 62.28 -494.81 1.8z"/>
     <path id="_94" class="fil78" d="M5.03 187.3l492.2 -1.78 -2.26 -61.97 -492.2 1.79 2.26 61.96zm-3.91 0.51l-2.29 -62.95 500.05 -1.81 2.29 62.95 -500.05 1.81z"/>
     <path id="_95" class="fil79" d="M2.42 187.64l497.44 -1.81 -2.28 -62.62 -497.44 1.81 2.28 62.62zm-3.91 0.5l-2.31 -63.6 505.29 -1.83 2.31 63.61 -505.29 1.82z"/>
     <path id="_96" class="fil80" d="M-0.19 187.98l502.68 -1.83 -2.3 -63.28 -502.68 1.83 2.3 63.28zm-3.9 0.5l-2.34 -64.26 510.52 -1.85 2.34 64.26 -510.52 1.85z"/>
     <path id="_97" class="fil81" d="M-2.78 188.32l507.9 -1.85 -2.34 -63.93 -507.89 1.84 2.33 63.94zm-3.92 0.5l-2.36 -64.92 515.76 -1.87 2.37 64.92 -515.77 1.87z"/>
     <path id="_98" class="fil82" d="M-5.39 188.66l513.13 -1.87 -2.35 -64.59 -513.13 1.86 2.35 64.6zm-3.91 0.5l-2.4 -65.58 521 -1.89 2.4 65.58 -521 1.89z"/>
     <path id="_99" class="fil7" d="M-8 189l518.38 -1.88 -2.38 -65.26 -518.38 1.88 2.38 65.26zm-3.91 0.5l-2.42 -66.24 526.24 -1.91 2.42 66.24 -526.24 1.91z"/>
     <path id="_100" class="fil82" d="M-10.61 189.34l523.62 -1.9 -2.4 -65.92 -523.62 1.9 2.4 65.92zm-3.9 0.5l-2.44 -66.9 531.47 -1.93 2.44 66.91 -531.47 1.92z"/>
     <path id="_101" class="fil81" d="M-13.22 189.68l528.86 -1.93 -2.42 -66.57 -528.86 1.92 2.42 66.58zm-3.9 0.5l-2.46 -67.56 536.7 -1.94 2.46 67.56 -536.7 1.94z"/>
     <path id="_102" class="fil80" d="M-15.82 190.01l534.09 -1.94 -2.45 -67.23 -534.09 1.94 2.45 67.23zm-3.91 0.51l-2.48 -68.22 541.94 -1.96 2.48 68.21 -541.94 1.97z"/>
     <path id="_103" class="fil79" d="M-18.42 190.35l539.32 -1.96 -2.48 -67.89 -539.32 1.96 2.48 67.89zm-3.92 0.5l-2.5 -68.87 547.18 -1.98 2.5 68.87 -547.18 1.98z"/>
     <path id="_104" class="fil78" d="M-21.03 190.69l544.56 -1.98 -2.5 -68.55 -544.56 1.97 2.5 68.56 0 0zm-3.91 0.5l-2.53 -69.53 552.41 -2 2.53 69.53 -552.41 2z"/>
     <path id="_105" class="fil24" d="M-23.64 191.03l549.8 -1.99 -2.52 -69.22 -549.8 2 2.52 69.21zm-3.9 0.5l-2.56 -70.19 557.64 -2.02 2.56 70.19 -557.64 2.02z"/>
     <path id="_106" class="fil27" d="M-26.24 191.37l555.03 -2.01 -2.54 -69.88 -555.03 2.02 2.54 69.87 0 0zm-3.91 0.5l-2.59 -70.86 562.89 -2.03 2.59 70.86 -562.89 2.03z"/>
     <path id="_107" class="fil77" d="M-28.85 191.71l560.26 -2.04 -2.56 -70.52 -560.26 2.03 2.56 70.53zm-3.91 0.5l-2.61 -71.51 568.13 -2.06 2.61 71.52 -568.13 2.05z"/>
     <path id="_108" class="fil76" d="M-31.46 192.05l565.51 -2.06 -2.59 -71.18 -565.51 2.05 2.59 71.19zm-3.91 0.5l-2.63 -72.17 573.37 -2.08 2.63 72.17 -573.37 2.08z"/>
     <path id="_109" class="fil75" d="M-34.06 192.39l570.74 -2.08 -2.62 -71.84 -570.74 2.07 2.62 71.85zm-3.91 0.5l-2.66 -72.83 578.61 -2.11 2.65 72.84 -578.6 2.1 0 0z"/>
     <path id="_110" class="fil33" d="M-36.67 192.72l575.98 -2.09 -2.64 -72.5 -575.98 2.08 2.64 72.51 0 0zm-3.9 0.51l-2.68 -73.49 583.82 -2.11 2.68 73.48 -583.82 2.12z"/>
     <path id="_111" class="fil34" d="M-39.27 193.06l581.21 -2.1 -2.67 -73.17 -581.21 2.11 2.67 73.16zm-3.91 0.51l-2.7 -74.15 589.06 -2.14 2.7 74.15 -589.06 2.14z"/>
     <path id="_112" class="fil74" d="M-41.88 193.4l586.45 -2.12 -2.69 -73.83 -586.45 2.13 2.69 73.82 0 0zm-3.91 0.51l-2.72 -74.82 594.3 -2.14 2.72 74.81 -594.3 2.15z"/>
     <path id="_113" class="fil73" d="M-44.49 193.74l591.69 -2.15 -2.71 -74.48 -591.69 2.15 2.71 74.48zm-3.91 0.51l-2.74 -75.47 599.54 -2.18 2.74 75.48 -599.54 2.17z"/>
     <path id="_114" class="fil72" d="M-47.1 194.08l596.93 -2.17 -2.73 -75.14 -596.93 2.17 2.73 75.14zm-3.9 0.5l-2.77 -76.12 604.77 -2.2 2.78 76.14 -604.78 2.18 0 0z"/>
     <path id="_115" class="fil37" d="M-49.69 194.42l602.15 -2.19 -2.76 -75.8 -602.16 2.19 2.77 75.8 0 0zm-3.92 0.51l-2.8 -76.79 610.02 -2.22 2.8 76.79 -610.02 2.22z"/>
     <path id="_116" class="fil71" d="M-52.3 194.76l607.4 -2.2 -2.8 -76.46 -607.38 2.19 2.78 76.47 0 0zm-3.91 0.5l-2.83 -77.44 615.25 -2.24 2.83 77.45 -615.25 2.23z"/>
     <path id="_117" class="fil70" d="M-54.91 195.1l612.63 -2.22 -2.81 -77.12 -612.63 2.22 2.81 77.12zm-3.91 0.51l-2.85 -78.12 620.49 -2.25 2.85 78.11 -620.49 2.26z"/>
     <path id="_118" class="fil69" d="M-57.52 195.44l617.87 -2.24 -2.83 -77.78 -617.87 2.24 2.83 77.78zm-3.9 0.51l-2.88 -78.77 625.73 -2.27 2.87 78.77 -625.72 2.27 0 0z"/>
     <path id="_119" class="fil68" d="M-60.13 195.77l623.11 -2.26 -2.85 -78.43 -623.11 2.26 2.85 78.43zm-3.9 0.52l-2.9 -79.43 630.96 -2.29 2.9 79.43 -630.96 2.29z"/>
     <path id="_120" class="fil67" d="M-62.73 196.11l628.34 -2.28 -2.88 -79.09 -628.34 2.28 2.88 79.09zm-3.91 0.52l-2.91 -80.09 636.19 -2.31 2.91 80.09 -636.19 2.31z"/>
     <path id="_121" class="fil42" d="M-65.33 196.45l633.57 -2.3 -2.91 -79.75 -633.57 2.3 2.91 79.75zm-3.92 0.51l-2.93 -80.74 641.43 -2.33 2.93 80.74 -641.43 2.33z"/>
     <path id="_122" class="fil66" d="M-67.94 196.79l638.81 -2.32 -2.93 -80.41 -638.81 2.31 2.93 80.42 0 0zm-3.91 0.51l-2.96 -81.4 646.66 -2.35 2.96 81.4 -646.66 2.35z"/>
     <path id="_123" class="fil65" d="M-70.55 197.13l644.05 -2.33 -2.95 -81.08 -644.05 2.33 2.95 81.08zm-3.9 0.51l-2.99 -82.06 651.89 -2.37 3 82.06 -651.9 2.37z"/>
     <path id="_124" class="fil64" d="M-73.15 197.47l649.29 -2.35 -2.98 -81.73 -649.29 2.35 2.98 81.73zm-3.91 0.51l-3.02 -82.73 657.14 -2.38 3.02 82.73 -657.14 2.38z"/>
     <path id="_125" class="fil63" d="M-75.76 197.81l654.53 -2.37 -3.01 -82.39 -654.51 2.37 3 82.39 -0.01 0zm-3.91 0.51l-3.04 -83.38 662.38 -2.41 3.04 83.39 -662.38 2.4z"/>
     <path id="_126" class="fil46" d="M-78.36 198.15l659.75 -2.4 -3.02 -83.04 -659.76 2.39 3.03 83.05zm-3.92 0.51l-3.06 -84.04 667.62 -2.43 3.06 84.05 -667.62 2.42z"/>
     <path id="_127" class="fil62" d="M-80.97 198.48l664.99 -2.41 -3.05 -83.7 -664.99 2.41 3.05 83.7zm-3.9 0.52l-3.1 -84.7 672.86 -2.44 3.08 84.69 -672.84 2.45 0 0z"/>
     <path id="_128" class="fil61" d="M-83.57 198.82l670.22 -2.42 -3.07 -84.37 -670.23 2.42 3.08 84.37 0 0zm-3.91 0.52l-3.11 -85.36 678.07 -2.46 3.12 85.35 -678.08 2.47z"/>
     <path id="_129" class="fil60" d="M-86.18 199.16l675.46 -2.44 -3.1 -85.03 -675.46 2.45 3.1 85.02zm-3.91 0.52l-3.13 -86.03 683.31 -2.47 3.13 86.01 -683.31 2.49 0 0z"/>
     <path id="_130" class="fil49" d="M-88.79 199.5l680.7 -2.46 -3.12 -85.69 -680.7 2.47 3.12 85.68zm-3.91 0.52l-3.15 -86.69 688.55 -2.49 3.15 86.68 -688.55 2.5z"/>
     <path id="_131" class="fil50" d="M-91.4 199.84l685.94 -2.48 -3.14 -86.35 -685.94 2.49 3.14 86.34zm-3.9 0.51l-3.18 -87.33 693.79 -2.52 3.18 87.34 -693.79 2.51z"/>
     <path id="_132" class="fil59" d="M-94 200.18l691.17 -2.51 -3.17 -87 -691.17 2.51 3.17 87zm-3.91 0.51l-3.2 -87.99 699.02 -2.54 3.21 88 -699.03 2.53z"/>
     <path id="_133" class="fil58" d="M-96.6 200.52l696.41 -2.53 -3.2 -87.65 -696.41 2.52 3.2 87.66zm-3.91 0.51l-3.24 -88.65 704.27 -2.56 3.23 88.66 -704.26 2.55z"/>
     <path id="_134" class="fil57" d="M-99.21 200.86l701.64 -2.54 -3.22 -88.32 -701.64 2.53 3.22 88.33zm-3.91 0.51l-3.26 -89.31 709.5 -2.58 3.26 89.31 -709.5 2.58z"/>
     <path id="_135" class="fil56" d="M-101.82 201.2l706.88 -2.56 -3.24 -88.98 -706.88 2.55 3.24 88.99zm-3.91 0.51l-3.28 -89.98 714.74 -2.59 3.28 89.97 -714.74 2.6 0 0z"/>
     <path id="_136" class="fil54" d="M-104.43 201.54l712.12 -2.58 -3.26 -89.64 -712.12 2.58 3.26 89.64zm-3.9 0.51l-3.31 -90.64 719.98 -2.6 3.3 90.63 -719.97 2.61 0 0z"/>
     <path id="_137" class="fil55" d="M-107.04 201.87l717.36 -2.59 -3.28 -90.3 -717.36 2.6 3.28 90.29zm-3.9 0.52l-3.32 -91.3 725.2 -2.62 3.33 91.29 -725.21 2.63 0 0z"/>
     <path id="_138" class="fil55" d="M-109.63 202.21l722.58 -2.62 -3.32 -90.95 -722.58 2.62 3.32 90.95zm-3.92 0.52l-3.34 -91.95 730.44 -2.65 3.34 91.95 -730.44 2.65z"/>
     <path id="_139" class="fil55" d="M-112.24 202.55l727.82 -2.64 -3.34 -91.62 -727.82 2.65 3.34 91.61zm-3.91 0.52l-3.37 -92.61 735.67 -2.67 3.37 92.6 -735.67 2.68z"/>
     <path id="_140" class="fil55" d="M-114.85 202.89l733.06 -2.65 -3.36 -92.28 -733.06 2.65 3.36 92.28zm-3.91 0.51l-3.39 -93.26 740.91 -2.69 3.4 93.26 -740.92 2.69 0 0z"/>
     <path id="_141" class="fil55" d="M-117.46 203.23l738.3 -2.67 -3.38 -92.95 -738.3 2.69 3.38 92.93 0 0zm-3.9 0.51l-3.43 -93.93 746.15 -2.7 3.43 93.92 -746.15 2.71z"/>
     <path id="_142" class="fil55" d="M-120.06 203.57l743.54 -2.69 -3.41 -93.59 -743.55 2.69 3.42 93.59 0 0zm-3.91 0.51l-3.45 -94.59 751.39 -2.72 3.45 94.59 -751.39 2.72z"/>
     <path id="_143" class="fil55" d="M-122.66 203.92l748.77 -2.72 -3.45 -94.26 -748.77 2.72 3.45 94.26zm-3.92 0.5l-3.47 -95.24 756.63 -2.75 3.47 95.25 -756.63 2.74z"/>
     <path id="_144" class="fil55" d="M-125.27 204.25l754 -2.74 -3.46 -94.91 -754 2.74 3.46 94.91zm-3.92 0.51l-3.49 -95.9 761.87 -2.77 3.49 95.91 -761.87 2.76z"/>
     <path id="_145" class="fil55" d="M-127.88 204.6l759.24 -2.77 -3.48 -95.57 -759.24 2.76 3.48 95.58zm-3.9 0.5l-3.53 -96.56 767.1 -2.78 3.52 96.56 -767.09 2.78z"/>
     <path id="_146" class="fil55" d="M-130.49 204.92l764.48 -2.76 -3.5 -96.24 -764.48 2.77 3.5 96.23zm-3.9 0.52l-3.55 -97.22 772.33 -2.8 3.55 97.21 -772.33 2.81z"/>
     <path id="_147" class="fil55" d="M-133.09 205.27l769.71 -2.79 -3.53 -96.9 -769.71 2.79 3.53 96.9zm-3.91 0.51l-3.56 -97.89 777.56 -2.81 3.56 97.87 -777.56 2.83 0 0z"/>
     <path id="_148" class="fil55" d="M-135.7 205.61l774.95 -2.81 -3.55 -97.56 -774.95 2.82 3.55 97.55zm-3.91 0.5l-3.58 -98.54 782.8 -2.83 3.58 98.54 -782.8 2.83z"/>
     <path id="_149" class="fil55" d="M-138.31 205.95l780.19 -2.83 -3.57 -98.22 -780.19 2.84 3.57 98.21zm-3.91 0.5l-3.61 -99.19 788.05 -2.86 3.61 99.2 -788.05 2.85 0 0z"/>
     <path id="_150" class="fil55" d="M-140.91 206.29l785.43 -2.86 -3.61 -98.87 -785.42 2.86 3.6 98.87zm-3.91 0.5l-3.64 -99.85 793.28 -2.88 3.64 99.86 -793.28 2.87z"/>
     <path id="_151" class="fil54" d="M-143.51 206.63l790.66 -2.88 -3.63 -99.52 -790.67 2.87 3.64 99.53zm-3.91 0.5l-3.67 -100.51 798.51 -2.9 3.67 100.52 -798.51 2.89z"/>
     <path id="_152" class="fil53" d="M-146.12 206.97l795.9 -2.89 -3.66 -100.19 -795.9 2.88 3.66 100.2zm-3.91 0.5l-3.69 -101.17 803.75 -2.92 3.69 101.17 -803.75 2.92z"/>
     <path id="_153" class="fil52" d="M-148.73 207.31l801.14 -2.91 -3.68 -100.85 -801.13 2.9 3.67 100.86zm-3.91 0.5l-3.71 -101.84 808.99 -2.93 3.71 101.84 -808.99 2.93z"/>
     <path id="_154" class="fil51" d="M-151.34 207.65l806.37 -2.93 -3.69 -101.51 -806.37 2.93 3.69 101.51zm-3.9 0.5l-3.74 -102.5 814.23 -2.94 3.73 102.49 -814.22 2.95z"/>
     <path id="_155" class="fil50" d="M-153.95 207.98l811.61 -2.94 -3.71 -102.17 -811.61 2.95 3.71 102.16zm-3.9 0.51l-3.76 -103.16 819.46 -2.96 3.76 103.15 -819.46 2.97z"/>
     <path id="_156" class="fil49" d="M-156.54 208.32l816.83 -2.96 -3.75 -102.83 -816.83 2.97 3.75 102.82zm-3.92 0.51l-3.78 -103.81 824.7 -2.99 3.78 103.81 -824.7 2.99z"/>
     <path id="_157" class="fil48" d="M-159.15 208.66l822.07 -2.99 -3.77 -103.48 -822.07 2.98 3.77 103.49zm-3.91 0.51l-3.8 -104.47 829.92 -3.01 3.8 104.47 -829.92 3.01z"/>
     <path id="_158" class="fil47" d="M-161.76 209l827.31 -3 -3.79 -104.15 -827.31 3 3.79 104.15zm-3.91 0.5l-3.83 -105.12 835.17 -3.03 3.83 105.13 -835.17 3.02z"/>
     <path id="_159" class="fil46" d="M-164.37 209.34l832.56 -3.02 -3.82 -104.81 -832.56 3.02 3.82 104.81zm-3.9 0.5l-3.86 -105.79 840.4 -3.04 3.86 105.78 -840.4 3.05 0 0z"/>
     <path id="_160" class="fil45" d="M-166.97 209.68l837.79 -3.04 -3.84 -105.46 -837.8 3.03 3.85 105.47zm-3.91 0.5l-3.88 -106.45 845.64 -3.06 3.88 106.45 -845.64 3.06z"/>
     <path id="_161" class="fil44" d="M-169.57 210.02l843.02 -3.06 -3.88 -106.12 -843.02 3.06 3.88 106.12zm-3.92 0.5l-3.9 -107.11 850.88 -3.08 3.9 107.11 -850.88 3.08z"/>
     <path id="_162" class="fil43" d="M-172.18 210.36l848.26 -3.08 -3.9 -106.78 -848.25 3.08 3.89 106.78zm-3.92 0.5l-3.92 -107.76 856.12 -3.11 3.92 107.77 -856.12 3.1z"/>
     <path id="_163" class="fil42" d="M-174.79 210.7l853.49 -3.11 -3.91 -107.43 -853.49 3.1 3.91 107.44zm-3.9 0.5l-3.96 -108.42 861.35 -3.12 3.95 108.42 -861.34 3.12z"/>
     <path id="_164" class="fil41" d="M-177.4 211.03l858.73 -3.11 -3.93 -108.1 -858.73 3.11 3.93 108.1zm-3.9 0.51l-3.98 -109.08 866.58 -3.14 3.98 109.08 -866.58 3.14z"/>
     <path id="_165" class="fil40" d="M-180 211.37l863.96 -3.13 -3.96 -108.76 -863.96 3.13 3.96 108.76zm-3.91 0.51l-3.99 -109.75 871.81 -3.15 4 109.73 -871.82 3.17z"/>
     <path id="_166" class="fil39" d="M-182.61 211.71l869.2 -3.15 -3.98 -109.42 -869.2 3.15 3.98 109.42zm-3.91 0.51l-4.01 -110.41 877.05 -3.17 4.02 110.4 -877.06 3.18 0 0z"/>
     <path id="_167" class="fil38" d="M-185.21 212.05l874.44 -3.17 -4.02 -110.08 -874.43 3.18 4.01 110.07zm-3.92 0.5l-4.04 -111.06 882.3 -3.19 4.04 111.06 -882.3 3.19z"/>
     <path id="_168" class="fil37" d="M-187.82 212.39l879.68 -3.19 -4.04 -110.74 -879.68 3.2 4.04 110.73zm-3.9 0.5l-4.08 -111.71 887.53 -3.23 4.07 111.73 -887.52 3.21z"/>
     <path id="_169" class="fil36" d="M-190.42 212.73l884.91 -3.22 -4.06 -111.38 -884.92 3.21 4.07 111.39 0 0zm-3.91 0.5l-4.1 -112.37 892.76 -3.24 4.1 112.38 -892.76 3.23z"/>
     <path id="_170" class="fil35" d="M-193.03 213.07l890.15 -3.23 -4.09 -112.05 -890.15 3.22 4.09 112.06zm-3.91 0.5l-4.12 -113.03 898 -3.27 4.12 113.04 -898 3.26 0 0z"/>
     <path id="_171" class="fil34" d="M-195.64 213.41l895.39 -3.25 -4.11 -112.71 -895.39 3.24 4.11 112.72zm-3.91 0.5l-4.14 -113.7 903.24 -3.28 4.14 113.71 -903.24 3.27z"/>
     <path id="_172" class="fil33" d="M-198.25 213.74l900.62 -3.26 -4.12 -113.37 -900.62 3.26 4.12 113.37zm-3.9 0.52l-4.17 -114.37 908.48 -3.29 4.16 114.36 -908.47 3.3z"/>
     <path id="_173" class="fil32" d="M-200.85 214.08l905.85 -3.28 -4.15 -114.03 -905.85 3.29 4.15 114.02 0 0zm-3.91 0.51l-4.19 -115.02 913.71 -3.31 4.19 115.02 -913.71 3.31 0 0z"/>
     <path id="_174" class="fil31" d="M-203.45 214.42l911.08 -3.3 -4.18 -114.69 -911.08 3.31 4.18 114.68zm-3.91 0.52l-4.22 -115.68 918.94 -3.34 4.23 115.68 -918.95 3.34 0 0z"/>
     <path id="_175" class="fil30" d="M-206.06 214.76l916.32 -3.33 -4.2 -115.34 -916.32 3.32 4.2 115.35 0 0zm-3.91 0.5l-4.23 -116.32 924.17 -3.36 4.24 116.34 -924.18 3.34 0 0z"/>
     <path id="_176" class="fil29" d="M-208.67 215.1l921.57 -3.34 -4.23 -116.01 -921.56 3.34 4.22 116.01zm-3.91 0.51l-4.26 -116.99 929.42 -3.38 4.26 117 -929.42 3.37z"/>
     <path id="_177" class="fil28" d="M-211.28 215.44l926.81 -3.36 -4.25 -116.67 -926.81 3.36 4.25 116.67 0 0zm-3.9 0.51l-4.29 -117.66 934.65 -3.39 4.29 117.66 -934.65 3.39z"/>
     <path id="_178" class="fil27" d="M-213.87 215.78l932.03 -3.38 -4.27 -117.32 -932.05 3.37 4.29 117.33zm-3.92 0.51l-4.31 -118.32 939.89 -3.41 4.31 118.32 -939.89 3.41z"/>
     <path id="_179" class="fil26" d="M-216.48 216.12l937.27 -3.4 -4.31 -117.98 -937.27 3.4 4.31 117.98zm-3.92 0.51l-4.33 -118.98 945.13 -3.43 4.33 118.98 -945.13 3.43z"/>
     <path id="_180" class="fil25" d="M-219.09 216.46l942.51 -3.42 -4.33 -118.64 -942.51 3.42 4.33 118.64zm-3.91 0.51l-4.36 -119.64 950.36 -3.45 4.36 119.64 -950.36 3.45z"/>
     <path id="_181" class="fil24" d="M-221.7 216.79l947.74 -3.43 -4.34 -119.3 -947.74 3.43 4.34 119.3zm-3.9 0.52l-4.39 -120.29 955.6 -3.48 4.38 120.3 -955.59 3.47z"/>
     <path id="_182" class="fil23" d="M-224.31 217.13l952.98 -3.45 -4.36 -119.96 -952.98 3.45 4.36 119.96zm-3.9 0.52l-4.41 -120.95 960.83 -3.49 4.41 120.95 -960.83 3.49z"/>
     <path id="_183" class="fil22" d="M-226.91 217.47l958.21 -3.47 -4.39 -120.62 -958.21 3.47 4.39 120.62zm-3.91 0.52l-4.43 -121.62 966.07 -3.5 4.44 121.6 -966.08 3.52 0 0z"/>
     <path id="_184" class="fil21" d="M-229.51 217.81l963.45 -3.49 -4.43 -121.28 -963.44 3.49 4.42 121.28 0 0zm-3.92 0.52l-4.45 -122.28 971.31 -3.52 4.45 122.27 -971.31 3.53z"/>
     <path id="_185" class="fil20" d="M-232.12 218.15l968.69 -3.51 -4.45 -121.94 -968.68 3.52 4.44 121.93zm-3.92 0.51l-4.47 -122.93 976.55 -3.54 4.47 122.93 -976.55 3.54z"/>
     <path id="_186" class="fil19" d="M-234.73 218.49l973.93 -3.53 -4.47 -122.6 -973.93 3.54 4.47 122.59zm-3.9 0.51l-4.51 -123.59 981.77 -3.56 4.51 123.59 -981.77 3.56z"/>
     <path id="_187" class="fil18" d="M-237.33 218.83l979.16 -3.55 -4.49 -123.25 -979.17 3.55 4.5 123.25zm-3.91 0.51l-4.53 -124.24 987.01 -3.59 4.53 124.25 -987.01 3.58z"/>
     <path id="_188" class="fil17" d="M-239.94 219.17l984.4 -3.57 -4.52 -123.91 -984.4 3.56 4.52 123.92zm-3.91 0.51l-4.55 -124.9 992.25 -3.61 4.55 124.91 -992.25 3.6z"/>
     <path id="_189" class="fil16" d="M-242.55 219.51l989.64 -3.59 -4.54 -124.57 -989.64 3.58 4.54 124.58zm-3.91 0.51l-4.57 -125.57 997.49 -3.62 4.57 125.57 -997.49 3.62 0 0z"/>
     <path id="_190" class="fil15" d="M-245.16 219.85l994.87 -3.61 -4.55 -125.23 -994.87 3.6 4.55 125.24zm-3.9 0.51l-4.6 -126.23 1002.73 -3.63 4.59 126.22 -1002.72 3.64z"/>
     <path id="_191" class="fil14" d="M-247.76 220.18l1000.1 -3.62 -4.58 -125.89 -1000.1 3.62 4.58 125.89zm-3.91 0.52l-4.62 -126.89 1007.96 -3.65 4.62 126.88 -1007.96 3.66z"/>
     <path id="_192" class="fil13" d="M-250.36 220.52l1005.33 -3.64 -4.61 -126.55 -1005.33 3.65 4.61 126.54zm-3.91 0.52l-4.66 -127.55 1013.2 -3.67 4.66 127.54 -1013.2 3.68 0 0z"/>
     <path id="_193" class="fil12" d="M-252.97 220.86l1010.58 -3.66 -4.64 -127.21 -1010.57 3.66 4.63 127.21 0 0zm-3.91 0.51l-4.67 -128.19 1018.43 -3.7 4.67 128.2 -1018.43 3.69z"/>
     <path id="_194" class="fil11" d="M-255.58 221.2l1015.82 -3.68 -4.66 -127.87 -1015.82 3.68 4.66 127.87zm-3.91 0.51l-4.69 -128.86 1023.67 -3.71 4.69 128.86 -1023.67 3.71z"/>
     <path id="_195" class="fil10" d="M-258.19 221.54l1021.06 -3.7 -4.68 -128.53 -1021.06 3.7 4.68 128.53 0 0zm-3.9 0.51l-4.72 -129.52 1028.9 -3.73 4.72 129.53 -1028.9 3.72z"/>
     <path id="_196" class="fil9" d="M-260.78 221.88l1026.28 -3.72 -4.7 -129.18 -1026.3 3.71 4.72 129.19 0 0zm-3.92 0.51l-4.74 -130.18 1034.14 -3.75 4.74 130.18 -1034.14 3.75z"/>
     <path id="_197" class="fil8" d="M-263.39 222.22l1031.52 -3.74 -4.74 -129.84 -1031.52 3.73 4.74 129.85zm-3.92 0.51l-4.76 -130.84 1039.38 -3.77 4.76 130.84 -1039.38 3.77z"/>
     <path id="_198" class="fil7" d="M-266 222.56l1036.76 -3.76 -4.76 -130.51 -1036.76 3.77 4.76 130.5 0 0zm-3.91 0.51l-4.79 -131.5 1044.61 -3.79 4.79 131.5 -1044.61 3.79 0 0z"/>
     <path id="_199" class="fil8" d="M-268.61 222.89l1041.99 -3.77 -4.77 -131.17 -1041.99 3.78 4.77 131.16zm-3.9 0.52l-4.82 -132.15 1049.85 -3.81 4.81 132.15 -1049.84 3.81z"/>
     <path id="_200" class="fil9" d="M-271.22 223.23l1047.23 -3.79 -4.79 -131.83 -1047.23 3.8 4.79 131.82 0 0zm-3.9 0.52l-4.84 -132.81 1055.08 -3.83 4.85 132.81 -1055.09 3.83z"/>
     <path id="_201" class="fil10" d="M-273.82 223.57l1052.46 -3.81 -4.82 -132.49 -1052.46 3.82 4.82 132.48 0 0zm-3.91 0.52l-4.87 -133.48 1060.33 -3.84 4.87 133.48 -1060.33 3.84z"/>
     <path id="_202" class="fil11" d="M-276.42 223.92l1057.7 -3.84 -4.86 -133.15 -1057.7 3.84 4.86 133.15zm-3.92 0.51l-4.89 -134.14 1065.57 -3.86 4.89 134.13 -1065.57 3.87z"/>
     <path id="_203" class="fil12" d="M-279.03 224.25l1062.94 -3.85 -4.88 -133.81 -1062.94 3.86 4.88 133.8zm-3.92 0.51l-4.9 -134.79 1070.8 -3.88 4.9 134.79 -1070.8 3.88z"/>
     <path id="_204" class="fil13" d="M-281.64 224.6l1068.18 -3.88 -4.9 -134.47 -1068.18 3.89 4.9 134.46zm-3.9 0.5l-4.94 -135.45 1076.03 -3.9 4.93 135.45 -1076.02 3.9z"/>
     <path id="_205" class="fil14" d="M-284.24 224.94l1073.41 -3.9 -4.92 -135.12 -1073.42 3.89 4.93 135.13zm-3.91 0.5l-4.96 -136.1 1081.26 -3.93 4.96 136.11 -1081.26 3.92z"/>
     <path id="_206" class="fil15" d="M-286.85 225.28l1078.65 -3.91 -4.95 -135.79 -1078.65 3.91 4.95 135.79zm-3.91 0.5l-4.98 -136.76 1086.5 -3.95 4.98 136.77 -1086.5 3.94z"/>
     <path id="_207" class="fil16" d="M-289.46 225.62l1083.89 -3.94 -4.97 -136.44 -1083.89 3.93 4.97 136.45zm-3.91 0.5l-5 -137.43 1091.74 -3.96 5 137.44 -1091.74 3.95z"/>
     <path id="_208" class="fil17" d="M-292.06 225.96l1089.12 -3.96 -5 -137.1 -1089.12 3.95 5 137.11zm-3.91 0.5l-5.03 -138.09 1096.98 -3.97 5.02 138.08 -1096.97 3.98z"/>
     <path id="_209" class="fil18" d="M-294.67 226.29l1094.35 -3.97 -5.01 -137.76 -1094.35 3.97 5.01 137.76zm-3.9 0.51l-5.07 -138.75 1102.22 -3.99 5.06 138.74 -1102.21 4z"/>
     <path id="_210" class="fil19" d="M-297.27 226.63l1099.59 -3.99 -5.04 -138.42 -1099.59 4 5.04 138.41zm-3.91 0.51l-5.09 -139.41 1107.45 -4.01 5.09 139.4 -1107.45 4.02z"/>
     <path id="_211" class="fil20" d="M-299.88 226.97l1104.83 -4 -5.07 -139.09 -1104.83 4.01 5.07 139.08zm-3.91 0.51l-5.1 -140.07 1112.68 -4.03 5.11 140.06 -1112.69 4.04z"/>
     <path id="_212" class="fil21" d="M-302.49 227.31l1110.07 -4.03 -5.09 -139.74 -1110.07 4.03 5.09 139.74zm-3.91 0.5l-5.12 -140.72 1117.92 -4.05 5.12 140.72 -1117.92 4.05z"/>
     <path id="_213" class="fil22" d="M-305.1 227.65l1115.31 -4.05 -5.11 -140.4 -1115.31 4.05 5.11 140.4zm-3.9 0.5l-5.15 -141.38 1123.15 -4.07 5.15 141.39 -1123.15 4.06z"/>
     <path id="_214" class="fil23" d="M-307.69 227.99l1120.53 -4.07 -5.14 -141.05 -1120.54 4.06 5.15 141.06 0 0zm-3.92 0.5l-5.17 -142.04 1128.39 -4.09 5.17 142.04 -1128.39 4.09z"/>
     <path id="_215" class="fil24" d="M-310.3 228.33l1125.77 -4.09 -5.17 -141.71 -1125.77 4.08 5.17 141.72zm-3.91 0.5l-5.2 -142.7 1133.62 -4.11 5.2 142.7 -1133.62 4.11z"/>
     <path id="_216" class="fil25" d="M-312.91 228.67l1131.01 -4.11 -5.19 -142.37 -1131.01 4.11 5.19 142.37zm-3.91 0.5l-5.22 -143.36 1138.86 -4.13 5.22 143.36 -1138.86 4.13z"/>
     <path id="_217" class="fil26" d="M-315.52 229l1136.25 -4.11 -5.21 -143.04 -1136.24 4.12 5.2 143.03zm-3.9 0.51l-5.25 -144.02 1144.1 -4.14 5.25 144.01 -1144.1 4.15z"/>
     <path id="_218" class="fil27" d="M-318.13 229.34l1141.48 -4.13 -5.22 -143.7 -1141.48 4.14 5.22 143.69zm-3.9 0.51l-5.28 -144.68 1149.34 -4.16 5.28 144.67 -1149.34 4.17z"/>
     <path id="_219" class="fil28" d="M-320.72 229.68l1146.71 -4.16 -5.26 -144.35 -1146.71 4.16 5.26 144.35 0 0zm-3.92 0.51l-5.3 -145.34 1154.58 -4.18 5.3 145.34 -1154.58 4.18z"/>
     <path id="_220" class="fil29" d="M-323.33 230.02l1151.95 -4.18 -5.29 -145.01 -1151.95 4.18 5.29 145.01zm-3.92 0.5l-5.32 -145.99 1159.82 -4.2 5.32 145.99 -1159.82 4.2z"/>
     <path id="_221" class="fil30" d="M-325.94 230.36l1157.19 -4.2 -5.31 -145.67 -1157.19 4.2 5.31 145.67zm-3.91 0.5l-5.34 -146.65 1165.04 -4.22 5.34 146.65 -1165.04 4.22z"/>
     <path id="_222" class="fil31" d="M-328.55 230.7l1162.43 -4.22 -5.33 -146.33 -1162.43 4.22 5.33 146.33zm-3.9 0.5l-5.37 -147.31 1170.27 -4.24 5.37 147.31 -1170.27 4.24z"/>
     <path id="_223" class="fil32" d="M-331.15 231.04l1167.66 -4.24 -5.35 -146.98 -1167.67 4.23 5.36 146.99 0 0zm-3.91 0.5l-5.39 -147.97 1175.51 -4.26 5.39 147.97 -1175.51 4.26z"/>
     <path id="_224" class="fil33" d="M-333.76 231.38l1172.9 -4.25 -5.38 -147.65 -1172.9 4.25 5.38 147.65zm-3.91 0.5l-5.41 -148.62 1180.75 -4.3 5.41 148.64 -1180.75 4.28z"/>
     <path id="_225" class="fil34" d="M-336.36 231.72l1178.13 -4.28 -5.4 -148.3 -1178.14 4.27 5.41 148.31zm-3.92 0.5l-5.43 -149.29 1185.99 -4.3 5.43 149.3 -1185.99 4.29z"/>
     <path id="_226" class="fil35" d="M-338.97 232.05l1183.37 -4.29 -5.43 -148.96 -1183.37 4.29 5.43 148.96 0 0zm-3.91 0.51l-5.46 -149.95 1191.23 -4.33 5.46 149.97 -1191.23 4.31z"/>
     <path id="_227" class="fil36" d="M-341.58 232.39l1188.61 -4.31 -5.45 -149.62 -1188.6 4.31 5.44 149.62 0 0zm-3.9 0.51l-5.5 -150.61 1196.46 -4.34 5.5 150.61 -1196.46 4.34 0 0z"/>
     <path id="_228" class="fil37" d="M-344.18 232.73l1193.84 -4.33 -5.48 -150.28 -1193.83 4.34 5.47 150.27 0 0zm-3.91 0.51l-5.52 -151.27 1201.7 -4.36 5.52 151.27 -1201.7 4.36z"/>
     <path id="_229" class="fil38" d="M-346.79 233.07l1199.08 -4.34 -5.5 -150.95 -1199.08 4.35 5.5 150.94zm-3.91 0.5l-5.54 -151.92 1206.94 -4.38 5.54 151.93 -1206.94 4.37 0 0z"/>
     <path id="_230" class="fil39" d="M-349.4 233.41l1204.32 -4.36 -5.52 -151.61 -1204.32 4.37 5.52 151.6 0 0zm-3.91 0.51l-5.55 -152.59 1212.17 -4.4 5.55 152.59 -1212.17 4.4z"/>
     <path id="_231" class="fil40" d="M-352.01 233.75l1209.56 -4.39 -5.54 -152.26 -1209.56 4.39 5.54 152.26zm-3.9 0.51l-5.58 -153.25 1217.4 -4.42 5.58 153.26 -1217.4 4.41z"/>
     <path id="_232" class="fil41" d="M-354.6 234.09l1214.78 -4.41 -5.57 -152.91 -1214.79 4.4 5.58 152.92 0 0zm-2.61 0.34l-5.6 -153.58 1220.02 -4.42 5.6 153.57 -1220.02 4.43z"/>
    </g>
   </g>
   <path class="fil83 str1" d="M46.73 212.27l-16.22 0 0 -55.58 -18.93 0 0 -13.9 54.08 0 0 13.9 -18.93 0 0 55.58zm42.82 -41.19c-2.4,0 -3.61,1.32 -3.61,3.97l0 5.44 15.32 0 0 -5.44c0,-2.65 -1.2,-3.97 -3.6,-3.97l-8.11 0zm-19.38 3.39c0,-4.95 1.28,-8.8 3.83,-11.61 2.56,-2.79 6.09,-4.19 10.6,-4.19l18.02 0c4.51,0 8.04,1.4 10.59,4.21 2.55,2.82 3.84,6.71 3.84,11.67l0 18.36 -31.11 0 0 3.76c0,0.94 0.3,1.72 0.9,2.35 0.6,0.63 1.36,0.94 2.26,0.94 2.58,0 5.38,0 8.43,0 3.03,0 5.88,0 8.52,0 3.06,-0.39 6.12,-0.75 9.19,-1.13l0 12.45c-3.49,0.53 -7.06,0.78 -10.73,0.78 -3.11,0.6 -6.51,0.91 -10.19,0.91 -3.65,0 -7.2,0 -10.63,0 -4.08,0 -7.36,-1.36 -9.83,-4.05 -2.46,-2.7 -3.69,-6.31 -3.69,-10.76l0 -23.69 0 0zm110.87 -1.4c-1.02,0 -2.13,0.09 -3.33,0.29 -1.21,0.19 -2.31,0.43 -3.34,0.69 -1.19,0.27 -2.44,0.59 -3.7,1l0 37.22 -15.77 0 0 -35.73c0,-1 -0.3,-1.83 -0.91,-2.49 -0.59,-0.66 -1.35,-0.98 -2.24,-0.98l-0.45 0c-1.02,0 -2.13,0.09 -3.34,0.29 -1.19,0.19 -2.3,0.43 -3.33,0.69 -1.2,0.27 -2.43,0.59 -3.71,1l0 37.22 -15.76 0 0 -52.61 13.96 0 0.91 4.96c1.56,-1.12 3.24,-2.12 5.04,-2.98 1.57,-0.72 3.32,-1.41 5.24,-2.03 1.92,-0.63 3.9,-0.94 5.94,-0.94l0.91 0c2.7,0 4.97,0.56 6.8,1.69 1.83,1.12 3.31,2.54 4.46,4.26 1.5,-1.12 3.19,-2.12 5.04,-2.98 1.56,-0.72 3.42,-1.41 5.55,-2.03 2.14,-0.63 4.47,-0.94 6.99,-0.94l0.91 0c4.08,0 7.35,1.35 9.81,4.07 2.48,2.72 3.7,6.31 3.7,10.81l0 38.72 -15.77 0 0 -35.73c0,-1 -0.3,-1.83 -0.91,-2.49 -0.59,-0.66 -1.35,-0.98 -2.25,-0.98l-0.45 0 0 0zm43.27 25.81l13.52 0c2.4,0 3.61,-1.33 3.61,-3.98l0 -18.36c0,-1 -0.3,-1.83 -0.91,-2.49 -0.59,-0.66 -1.34,-0.98 -2.25,-0.98l-3.16 0c-1.14,0 -2.34,0.09 -3.59,0.29 -1.27,0.19 -2.44,0.43 -3.53,0.69 -1.26,0.27 -2.49,0.59 -3.69,1l0 23.82 0 0.01zm0 13.39l0 16.87 -15.78 0 0 -69.48 13.98 0 0.9 4.96c1.56,-1.12 3.24,-2.12 5.05,-2.98 1.56,-0.72 3.29,-1.41 5.23,-2.03 1.92,-0.63 3.9,-0.94 5.95,-0.94l4.04 0c4.1,0 7.37,1.35 9.84,4.07 2.46,2.72 3.69,6.31 3.69,10.81l0 22.84c0,4.96 -1.26,8.84 -3.83,11.67 -2.56,2.81 -6.08,4.21 -10.59,4.21l-18.48 0zm41.09 -76.27c10.21,-0.01 20.42,-0.02 30.63,-0.02 0.89,0 1.64,-0.31 2.23,-0.94 1.98,-2.09 0.34,-5.66 -2.19,-5.66l-16.13 0c-4.05,0 -7.3,-1.34 -9.74,-4.03 -2.44,-2.69 -3.67,-6.27 -3.67,-10.73l0 -3.44c0,-4.47 1.23,-8.04 3.67,-10.73 2.44,-2.69 5.69,-4.04 9.74,-4.04l30.39 0 0 12.8 -25.02 0c-0.91,0 -1.65,0.32 -2.24,0.98 -0.6,0.66 -0.9,1.48 -0.9,2.47 0,0.98 0.3,1.79 0.9,2.45 0.59,0.66 1.33,0.99 2.24,0.99l16.08 0c4.05,0 7.3,1.33 9.74,4 2.45,2.66 3.66,6.2 3.66,10.63l0 3.9c0,4.43 -1.21,7.97 -3.66,10.63 -2.44,2.67 -5.69,4 -9.74,4 -3.81,0 -16.53,-0.06 -20.52,-0.06l0.24 46.69c0,0.99 0.29,1.82 0.89,2.48 0.6,0.67 1.34,0.99 2.26,0.99l5.41 0 0 12.91c-1.21,0.19 -2.43,0.36 -3.71,0.49 -1.06,0.13 -2.25,0.25 -3.51,0.35 -1.26,0.1 -2.46,0.15 -3.6,0.15 -4.09,0 -7.37,-1.36 -9.83,-4.07 -2.45,-2.71 -3.71,-6.32 -3.7,-10.82l0.08 -62.37 0 0zm49.5 63.36c1.14,0 2.34,-0.09 3.61,-0.29 1.26,-0.19 2.43,-0.43 3.51,-0.7 1.27,-0.26 2.5,-0.6 3.7,-0.99l0 -5.95 -13.08 0c-0.89,0 -1.64,0.32 -2.25,0.99 -0.59,0.65 -0.89,1.49 -0.89,2.48l0 0.99c0,0.99 0.3,1.83 0.89,2.48 0.61,0.66 1.36,0.99 2.25,0.99l2.26 0 0 0zm-7.66 13.9c-4.1,0 -7.36,-1.35 -9.83,-4.07 -2.46,-2.71 -3.69,-6.32 -3.69,-10.82l0 -4.46c0,-4.5 1.23,-8.12 3.69,-10.82 2.47,-2.72 5.73,-4.07 9.83,-4.07l18.48 0 0 -3.81c0,-0.96 -0.3,-1.75 -0.9,-2.38 -0.61,-0.64 -1.36,-0.96 -2.25,-0.96 -2.41,0 -5.01,0 -7.8,0 -2.8,0 -5.42,0.14 -7.89,0.46 -2.88,0.41 -5.77,0.63 -8.66,0.63l0 -12.26c3.31,-0.56 6.68,-0.85 10.1,-0.85 2.95,-0.58 6.16,-0.89 9.65,-0.89 3.48,0 6.81,0 10,0 4.09,0 7.37,1.37 9.83,4.07 2.46,2.69 3.7,6.27 3.7,10.74l0 38.5 -13.99 0 -0.89 -4.96c-1.56,1.12 -3.25,2.11 -5.05,2.97 -1.56,0.73 -3.3,1.41 -5.22,2.04 -1.92,0.62 -3.91,0.94 -5.96,0.94l-3.15 0 0 0zm60.86 -64.27l-0.02 10.67 11.27 0 0 13.41 -11.27 0 0 22.82c0,0.99 0.3,1.82 0.91,2.48 0.59,0.66 1.35,0.99 2.25,0.99l11.71 0 0 12.96c-1.73,0.26 -3.57,0.4 -5.49,0.4 -1.62,0.3 -3.46,0.44 -5.5,0.44 -2.04,0 -4.08,0 -6.13,0 -4.08,0 -7.37,-1.36 -9.82,-4.05 -2.48,-2.72 -3.7,-6.31 -3.7,-10.81l0 -25.23 -5.41 0 0 -13.41 4.28 0 0.26 -49.96 -5.36 0 0 -13.29 7.12 0.16 0.03 -11.92 13.85 0 0 11.76 11.17 0 0 13.29 -11.17 0 0 22.63c0,0.99 0.29,1.81 0.89,2.47 0.6,0.65 1.35,0.98 2.24,0.98l11.61 0 0 12.84c-1.72,0.27 -11.83,0.37 -13.73,0.37l0.01 0zm38.74 22.09c-2.39,0 -3.6,1.32 -3.6,3.97l0 5.44 15.32 0 0 -5.44c0,-2.65 -1.2,-3.97 -3.6,-3.97l-8.12 0zm-19.38 3.39c0,-4.95 1.29,-8.8 3.83,-11.61 2.56,-2.79 6.09,-4.19 10.6,-4.19l18.02 0c4.51,0 8.04,1.4 10.6,4.21 2.55,2.82 3.83,6.71 3.83,11.67l0 18.36 -31.1 0 0 3.76c0,0.94 0.3,1.72 0.9,2.35 0.6,0.63 1.35,0.94 2.26,0.94 2.59,0 5.38,0 8.42,0 3.04,0 5.88,0 8.52,0 3.07,-0.39 6.12,-0.75 9.19,-1.13l0 12.45c-3.49,0.53 -7.05,0.78 -10.73,0.78 -3.11,0.6 -6.51,0.91 -10.19,0.91 -3.65,0 -7.19,0 -10.62,0 -4.09,0 -7.37,-1.36 -9.82,-4.05 -2.48,-2.7 -3.71,-6.31 -3.71,-10.76l0 -23.69 0 0zm68.06 1.57c0,0.99 0.3,1.83 0.9,2.48 0.61,0.66 1.36,0.99 2.26,0.99l16.21 0c4.1,0 7.38,1.34 9.84,4.04 2.46,2.68 3.69,6.25 3.69,10.73l0 3.93c0,4.47 -1.23,8.04 -3.69,10.72 -2.46,2.69 -5.74,4.04 -9.84,4.04 -3.84,0 -7.77,0 -11.8,0 -4.02,0 -7.72,-0.31 -11.09,-0.91 -3.89,0 -7.68,-0.25 -11.35,-0.77l0 -12.87c3.24,0.38 6.52,0.76 9.81,1.14 2.9,0 6.02,0 9.39,0 3.36,0 6.58,0 9.65,0 0.9,0 1.65,-0.31 2.24,-0.94 0.61,-0.64 0.92,-1.44 0.92,-2.38l0 -3.33 -19.38 0c-4.1,0 -7.38,-1.36 -9.84,-4.07 -2.47,-2.71 -3.69,-6.32 -3.69,-10.82l0 -3.47c0,-4.51 1.22,-8.1 3.69,-10.83 2.46,-2.7 5.74,-4.06 9.84,-4.06l30.64 0 0 12.91 -25.24 0c-0.9,0 -1.65,0.32 -2.26,0.98 -0.6,0.67 -0.9,1.5 -0.9,2.49l0 0zm-336.45 -96.36l10.73 44.29 9.38 -44.29 17.42 0 -16.97 68.9 -16.99 0 -10.72 -42.81 -10.73 42.81 -16.97 0 -16.99 -68.9 17.43 0 9.38 44.29 10.73 -44.29 14.3 0 0 0zm59.43 28.06c-2.39,0 -3.58,1.3 -3.58,3.93l0 5.41 15.2 0 0 -5.41c0,-2.63 -1.19,-3.93 -3.57,-3.93l-8.05 0 0 0zm-19.22 3.35c0,-4.9 1.28,-8.72 3.8,-11.5 2.54,-2.77 6.04,-4.16 10.51,-4.16l17.87 0c4.47,0 7.98,1.39 10.5,4.18 2.54,2.79 3.8,6.65 3.8,11.57l0 18.21 -30.84 0 0 3.72c0,0.94 0.3,1.71 0.9,2.32 0.59,0.63 1.34,0.95 2.24,0.95 2.55,0 5.35,0 8.36,0 3,0 5.82,0 8.44,0 3.04,-0.38 6.08,-0.75 9.11,-1.12l0 12.33c-3.46,0.53 -7,0.78 -10.63,0.78 -3.09,0.6 -6.46,0.9 -10.1,0.9 -3.63,0 -7.16,0 -10.54,0 -4.06,0 -7.31,-1.35 -9.75,-4.03 -2.44,-2.67 -3.67,-6.22 -3.67,-10.66l0 -23.49 0 0zm86.25 1.07c0,-0.98 -0.29,-1.8 -0.89,-2.46 -0.6,-0.66 -1.35,-0.99 -2.24,-0.99l-2.23 0c-1.5,0 -2.86,0.05 -4.12,0.16 -1.25,0.09 -2.38,0.21 -3.38,0.34 -1.14,0.19 -2.21,0.36 -3.23,0.49l0 25.59 12.52 0c2.38,0 3.57,-1.32 3.57,-3.93l0 -19.2 0 0zm15.64 20.66c0,4.92 -1.27,8.79 -3.8,11.57 -2.53,2.79 -6.02,4.19 -10.5,4.19l-33.07 0 0 -68.9 15.64 0 0 17.72c1.73,-0.39 3.49,-0.72 5.28,-0.99 1.55,-0.26 3.2,-0.48 4.96,-0.69 1.76,-0.19 3.41,-0.29 4.96,-0.29l3.13 0c4.05,0 7.29,1.35 9.74,4.04 2.44,2.68 3.66,6.26 3.66,10.72l0 22.63zm78.65 -34.44l0 50.2 -15.64 0 0 -36.91 -6.7 0 0 -13.29 22.34 0zm-15.64 -19.68l15.64 0 0 13.78 -15.64 0 0 -13.78zm81.33 29.04c-2.39,0 -3.58,1.3 -3.58,3.93l0 5.41 15.2 0 0 -5.41c0,-2.63 -1.19,-3.93 -3.57,-3.93l-8.06 0 0.01 0zm-19.22 3.35c0,-4.9 1.26,-8.72 3.8,-11.5 2.54,-2.77 6.03,-4.16 10.51,-4.16l17.86 0c4.47,0 7.97,1.39 10.51,4.18 2.54,2.79 3.8,6.65 3.8,11.57l0 18.21 -30.84 0 0 3.72c0,0.94 0.3,1.71 0.9,2.32 0.59,0.63 1.34,0.95 2.23,0.95 2.56,0 5.34,0 8.35,0 3.02,0 5.84,0 8.46,0 3.03,-0.38 6.07,-0.75 9.11,-1.12l0 12.33c-3.46,0.53 -7,0.78 -10.63,0.78 -3.1,0.6 -6.46,0.9 -10.1,0.9 -3.64,0 -7.16,0 -10.55,0 -4.05,0 -7.3,-1.35 -9.74,-4.03 -2.45,-2.67 -3.67,-6.22 -3.67,-10.66l0 -23.49 0 0z"/>
   <path id="_233" class="fil83 str1" d="M46.73 212.27l-16.22 0 0 -55.58 -18.93 0 0 -13.9 54.08 0 0 13.9 -18.93 0 0 55.58zm42.82 -41.19c-2.4,0 -3.61,1.32 -3.61,3.97l0 5.44 15.32 0 0 -5.44c0,-2.65 -1.2,-3.97 -3.6,-3.97l-8.11 0zm-19.38 3.39c0,-4.95 1.28,-8.8 3.83,-11.61 2.56,-2.79 6.09,-4.19 10.6,-4.19l18.02 0c4.51,0 8.04,1.4 10.59,4.21 2.55,2.82 3.84,6.71 3.84,11.67l0 18.36 -31.11 0 0 3.76c0,0.94 0.3,1.72 0.9,2.35 0.6,0.63 1.36,0.94 2.26,0.94 2.58,0 5.38,0 8.43,0 3.03,0 5.88,0 8.52,0 3.06,-0.39 6.12,-0.75 9.19,-1.13l0 12.45c-3.49,0.53 -7.06,0.78 -10.73,0.78 -3.11,0.6 -6.51,0.91 -10.19,0.91 -3.65,0 -7.2,0 -10.63,0 -4.08,0 -7.36,-1.36 -9.83,-4.05 -2.46,-2.7 -3.69,-6.31 -3.69,-10.76l0 -23.69 0 0zm110.87 -1.4c-1.02,0 -2.13,0.09 -3.33,0.29 -1.21,0.19 -2.31,0.43 -3.34,0.69 -1.19,0.27 -2.44,0.59 -3.7,1l0 37.22 -15.77 0 0 -35.73c0,-1 -0.3,-1.83 -0.91,-2.49 -0.59,-0.66 -1.35,-0.98 -2.24,-0.98l-0.45 0c-1.02,0 -2.13,0.09 -3.34,0.29 -1.19,0.19 -2.3,0.43 -3.33,0.69 -1.2,0.27 -2.43,0.59 -3.71,1l0 37.22 -15.76 0 0 -52.61 13.96 0 0.91 4.96c1.56,-1.12 3.24,-2.12 5.04,-2.98 1.57,-0.72 3.32,-1.41 5.24,-2.03 1.92,-0.63 3.9,-0.94 5.94,-0.94l0.91 0c2.7,0 4.97,0.56 6.8,1.69 1.83,1.12 3.31,2.54 4.46,4.26 1.5,-1.12 3.19,-2.12 5.04,-2.98 1.56,-0.72 3.42,-1.41 5.55,-2.03 2.14,-0.63 4.47,-0.94 6.99,-0.94l0.91 0c4.08,0 7.35,1.35 9.81,4.07 2.48,2.72 3.7,6.31 3.7,10.81l0 38.72 -15.77 0 0 -35.73c0,-1 -0.3,-1.83 -0.91,-2.49 -0.59,-0.66 -1.35,-0.98 -2.25,-0.98l-0.45 0 0 0zm43.27 25.81l13.52 0c2.4,0 3.61,-1.33 3.61,-3.98l0 -18.36c0,-1 -0.3,-1.83 -0.91,-2.49 -0.59,-0.66 -1.34,-0.98 -2.25,-0.98l-3.16 0c-1.14,0 -2.34,0.09 -3.59,0.29 -1.27,0.19 -2.44,0.43 -3.53,0.69 -1.26,0.27 -2.49,0.59 -3.69,1l0 23.82 0 0.01zm0 13.39l0 16.87 -15.78 0 0 -69.48 13.98 0 0.9 4.96c1.56,-1.12 3.24,-2.12 5.05,-2.98 1.56,-0.72 3.29,-1.41 5.23,-2.03 1.92,-0.63 3.9,-0.94 5.95,-0.94l4.04 0c4.1,0 7.37,1.35 9.84,4.07 2.46,2.72 3.69,6.31 3.69,10.81l0 22.84c0,4.96 -1.26,8.84 -3.83,11.67 -2.56,2.81 -6.08,4.21 -10.59,4.21l-18.48 0zm41.09 -76.27c10.21,-0.01 20.42,-0.02 30.63,-0.02 0.89,0 1.64,-0.31 2.23,-0.94 1.98,-2.09 0.34,-5.66 -2.19,-5.66l-16.13 0c-4.05,0 -7.3,-1.34 -9.74,-4.03 -2.44,-2.69 -3.67,-6.27 -3.67,-10.73l0 -3.44c0,-4.47 1.23,-8.04 3.67,-10.73 2.44,-2.69 5.69,-4.04 9.74,-4.04l30.39 0 0 12.8 -25.02 0c-0.91,0 -1.65,0.32 -2.24,0.98 -0.6,0.66 -0.9,1.48 -0.9,2.47 0,0.98 0.3,1.79 0.9,2.45 0.59,0.66 1.33,0.99 2.24,0.99l16.08 0c4.05,0 7.3,1.33 9.74,4 2.45,2.66 3.66,6.2 3.66,10.63l0 3.9c0,4.43 -1.21,7.97 -3.66,10.63 -2.44,2.67 -5.69,4 -9.74,4 -3.81,0 -16.53,-0.06 -20.52,-0.06l0.24 46.69c0,0.99 0.29,1.82 0.89,2.48 0.6,0.67 1.34,0.99 2.26,0.99l5.41 0 0 12.91c-1.21,0.19 -2.43,0.36 -3.71,0.49 -1.06,0.13 -2.25,0.25 -3.51,0.35 -1.26,0.1 -2.46,0.15 -3.6,0.15 -4.09,0 -7.37,-1.36 -9.83,-4.07 -2.45,-2.71 -3.71,-6.32 -3.7,-10.82l0.08 -62.37 0 0zm49.5 63.36c1.14,0 2.34,-0.09 3.61,-0.29 1.26,-0.19 2.43,-0.43 3.51,-0.7 1.27,-0.26 2.5,-0.6 3.7,-0.99l0 -5.95 -13.08 0c-0.89,0 -1.64,0.32 -2.25,0.99 -0.59,0.65 -0.89,1.49 -0.89,2.48l0 0.99c0,0.99 0.3,1.83 0.89,2.48 0.61,0.66 1.36,0.99 2.25,0.99l2.26 0 0 0zm-7.66 13.9c-4.1,0 -7.36,-1.35 -9.83,-4.07 -2.46,-2.71 -3.69,-6.32 -3.69,-10.82l0 -4.46c0,-4.5 1.23,-8.12 3.69,-10.82 2.47,-2.72 5.73,-4.07 9.83,-4.07l18.48 0 0 -3.81c0,-0.96 -0.3,-1.75 -0.9,-2.38 -0.61,-0.64 -1.36,-0.96 -2.25,-0.96 -2.41,0 -5.01,0 -7.8,0 -2.8,0 -5.42,0.14 -7.89,0.46 -2.88,0.41 -5.77,0.63 -8.66,0.63l0 -12.26c3.31,-0.56 6.68,-0.85 10.1,-0.85 2.95,-0.58 6.16,-0.89 9.65,-0.89 3.48,0 6.81,0 10,0 4.09,0 7.37,1.37 9.83,4.07 2.46,2.69 3.7,6.27 3.7,10.74l0 38.5 -13.99 0 -0.89 -4.96c-1.56,1.12 -3.25,2.11 -5.05,2.97 -1.56,0.73 -3.3,1.41 -5.22,2.04 -1.92,0.62 -3.91,0.94 -5.96,0.94l-3.15 0 0 0zm60.86 -64.27l-0.02 10.67 11.27 0 0 13.41 -11.27 0 0 22.82c0,0.99 0.3,1.82 0.91,2.48 0.59,0.66 1.35,0.99 2.25,0.99l11.71 0 0 12.96c-1.73,0.26 -3.57,0.4 -5.49,0.4 -1.62,0.3 -3.46,0.44 -5.5,0.44 -2.04,0 -4.08,0 -6.13,0 -4.08,0 -7.37,-1.36 -9.82,-4.05 -2.48,-2.72 -3.7,-6.31 -3.7,-10.81l0 -25.23 -5.41 0 0 -13.41 4.28 0 0.26 -49.96 -5.36 0 0 -13.29 7.12 0.16 0.03 -11.92 13.85 0 0 11.76 11.17 0 0 13.29 -11.17 0 0 22.63c0,0.99 0.29,1.81 0.89,2.47 0.6,0.65 1.35,0.98 2.24,0.98l11.61 0 0 12.84c-1.72,0.27 -11.83,0.37 -13.73,0.37l0.01 0zm38.74 22.09c-2.39,0 -3.6,1.32 -3.6,3.97l0 5.44 15.32 0 0 -5.44c0,-2.65 -1.2,-3.97 -3.6,-3.97l-8.12 0zm-19.38 3.39c0,-4.95 1.29,-8.8 3.83,-11.61 2.56,-2.79 6.09,-4.19 10.6,-4.19l18.02 0c4.51,0 8.04,1.4 10.6,4.21 2.55,2.82 3.83,6.71 3.83,11.67l0 18.36 -31.1 0 0 3.76c0,0.94 0.3,1.72 0.9,2.35 0.6,0.63 1.35,0.94 2.26,0.94 2.59,0 5.38,0 8.42,0 3.04,0 5.88,0 8.52,0 3.07,-0.39 6.12,-0.75 9.19,-1.13l0 12.45c-3.49,0.53 -7.05,0.78 -10.73,0.78 -3.11,0.6 -6.51,0.91 -10.19,0.91 -3.65,0 -7.19,0 -10.62,0 -4.09,0 -7.37,-1.36 -9.82,-4.05 -2.48,-2.7 -3.71,-6.31 -3.71,-10.76l0 -23.69 0 0zm68.06 1.57c0,0.99 0.3,1.83 0.9,2.48 0.61,0.66 1.36,0.99 2.26,0.99l16.21 0c4.1,0 7.38,1.34 9.84,4.04 2.46,2.68 3.69,6.25 3.69,10.73l0 3.93c0,4.47 -1.23,8.04 -3.69,10.72 -2.46,2.69 -5.74,4.04 -9.84,4.04 -3.84,0 -7.77,0 -11.8,0 -4.02,0 -7.72,-0.31 -11.09,-0.91 -3.89,0 -7.68,-0.25 -11.35,-0.77l0 -12.87c3.24,0.38 6.52,0.76 9.81,1.14 2.9,0 6.02,0 9.39,0 3.36,0 6.58,0 9.65,0 0.9,0 1.65,-0.31 2.24,-0.94 0.61,-0.64 0.92,-1.44 0.92,-2.38l0 -3.33 -19.38 0c-4.1,0 -7.38,-1.36 -9.84,-4.07 -2.47,-2.71 -3.69,-6.32 -3.69,-10.82l0 -3.47c0,-4.51 1.22,-8.1 3.69,-10.83 2.46,-2.7 5.74,-4.06 9.84,-4.06l30.64 0 0 12.91 -25.24 0c-0.9,0 -1.65,0.32 -2.26,0.98 -0.6,0.67 -0.9,1.5 -0.9,2.49l0 0zm-336.45 -96.36l10.73 44.29 9.38 -44.29 17.42 0 -16.97 68.9 -16.99 0 -10.72 -42.81 -10.73 42.81 -16.97 0 -16.99 -68.9 17.43 0 9.38 44.29 10.73 -44.29 14.3 0 0 0zm59.43 28.06c-2.39,0 -3.58,1.3 -3.58,3.93l0 5.41 15.2 0 0 -5.41c0,-2.63 -1.19,-3.93 -3.57,-3.93l-8.05 0 0 0zm-19.22 3.35c0,-4.9 1.28,-8.72 3.8,-11.5 2.54,-2.77 6.04,-4.16 10.51,-4.16l17.87 0c4.47,0 7.98,1.39 10.5,4.18 2.54,2.79 3.8,6.65 3.8,11.57l0 18.21 -30.84 0 0 3.72c0,0.94 0.3,1.71 0.9,2.32 0.59,0.63 1.34,0.95 2.24,0.95 2.55,0 5.35,0 8.36,0 3,0 5.82,0 8.44,0 3.04,-0.38 6.08,-0.75 9.11,-1.12l0 12.33c-3.46,0.53 -7,0.78 -10.63,0.78 -3.09,0.6 -6.46,0.9 -10.1,0.9 -3.63,0 -7.16,0 -10.54,0 -4.06,0 -7.31,-1.35 -9.75,-4.03 -2.44,-2.67 -3.67,-6.22 -3.67,-10.66l0 -23.49 0 0zm86.25 1.07c0,-0.98 -0.29,-1.8 -0.89,-2.46 -0.6,-0.66 -1.35,-0.99 -2.24,-0.99l-2.23 0c-1.5,0 -2.86,0.05 -4.12,0.16 -1.25,0.09 -2.38,0.21 -3.38,0.34 -1.14,0.19 -2.21,0.36 -3.23,0.49l0 25.59 12.52 0c2.38,0 3.57,-1.32 3.57,-3.93l0 -19.2 0 0zm15.64 20.66c0,4.92 -1.27,8.79 -3.8,11.57 -2.53,2.79 -6.02,4.19 -10.5,4.19l-33.07 0 0 -68.9 15.64 0 0 17.72c1.73,-0.39 3.49,-0.72 5.28,-0.99 1.55,-0.26 3.2,-0.48 4.96,-0.69 1.76,-0.19 3.41,-0.29 4.96,-0.29l3.13 0c4.05,0 7.29,1.35 9.74,4.04 2.44,2.68 3.66,6.26 3.66,10.72l0 22.63zm78.65 -34.44l0 50.2 -15.64 0 0 -36.91 -6.7 0 0 -13.29 22.34 0zm-15.64 -19.68l15.64 0 0 13.78 -15.64 0 0 -13.78zm81.33 29.04c-2.39,0 -3.58,1.3 -3.58,3.93l0 5.41 15.2 0 0 -5.41c0,-2.63 -1.19,-3.93 -3.57,-3.93l-8.06 0 0.01 0zm-19.22 3.35c0,-4.9 1.26,-8.72 3.8,-11.5 2.54,-2.77 6.03,-4.16 10.51,-4.16l17.86 0c4.47,0 7.97,1.39 10.51,4.18 2.54,2.79 3.8,6.65 3.8,11.57l0 18.21 -30.84 0 0 3.72c0,0.94 0.3,1.71 0.9,2.32 0.59,0.63 1.34,0.95 2.23,0.95 2.56,0 5.34,0 8.35,0 3.02,0 5.84,0 8.46,0 3.03,-0.38 6.07,-0.75 9.11,-1.12l0 12.33c-3.46,0.53 -7,0.78 -10.63,0.78 -3.1,0.6 -6.46,0.9 -10.1,0.9 -3.64,0 -7.16,0 -10.55,0 -4.05,0 -7.3,-1.35 -9.74,-4.03 -2.45,-2.67 -3.67,-6.22 -3.67,-10.66l0 -23.49 0 0z"/>
  </g>
  <path class="fil84 str0" d="M45.16 378.96l0 -119.96 36.39 0 21.5 81.82 21.25 -81.82 36.47 0 0 119.96 -22.45 0 -0.08 -91.67 -0.69 -0.03 -22.97 91.7 -23.35 0 -22.81 -91.52 -0.73 0.1 -0.08 91.42 -22.45 0zm197.21 0l0 -13.01c-3.19,4.64 -7.35,8.32 -12.52,11.09 -5.16,2.73 -10.61,4.1 -16.33,4.1 -5.87,0 -11.12,-1.28 -15.75,-3.85 -4.66,-2.57 -8.01,-6.2 -10.08,-10.84 -2.09,-4.66 -3.13,-11.08 -3.13,-19.29l0 -55.16 22.96 0 0 40.05c0,12.26 0.41,19.74 1.28,22.51 0.84,2.76 2.37,4.97 4.63,6.56 2.24,1.62 5.09,2.43 8.55,2.43 3.94,0 7.45,-1.09 10.58,-3.24 3.13,-2.15 5.25,-4.83 6.4,-8.04 1.14,-3.21 1.73,-11.03 1.73,-23.52l0 -36.75 22.95 0 0 86.96 -21.27 0zm36.66 -24.46l23.12 -3.52c0.98,4.44 2.96,7.82 5.98,10.11 2.99,2.32 7.2,3.46 12.59,3.46 5.95,0 10.42,-1.08 13.43,-3.26 2.01,-1.54 3.02,-3.61 3.02,-6.17 0,-1.74 -0.56,-3.19 -1.65,-4.33 -1.14,-1.09 -3.71,-2.12 -7.68,-3.04 -18.57,-4.11 -30.32,-7.85 -35.3,-11.23 -6.89,-4.72 -10.33,-11.26 -10.33,-19.61 0,-7.56 2.99,-13.9 8.94,-19.04 5.95,-5.14 15.16,-7.71 27.64,-7.71 11.9,0 20.75,1.96 26.53,5.84 5.78,3.91 9.78,9.66 11.96,17.29l-21.62 4.02c-0.92,-3.41 -2.71,-6.03 -5.3,-7.85 -2.6,-1.82 -6.32,-2.71 -11.14,-2.71 -6.09,0 -10.45,0.84 -13.1,2.54 -1.76,1.21 -2.63,2.77 -2.63,4.66 0,1.65 0.75,3.05 2.29,4.19 2.1,1.54 9.27,3.69 21.56,6.48 12.29,2.8 20.86,6.2 25.72,10.25 4.83,4.08 7.23,9.8 7.23,17.12 0,7.96 -3.32,14.82 -10,20.55 -6.64,5.72 -16.5,8.6 -29.57,8.6 -11.84,0 -21.22,-2.4 -28.15,-7.17 -6.89,-4.78 -11.42,-11.26 -13.54,-19.47zm151.66 -3.01l22.95 3.85c-2.93,8.4 -7.59,14.8 -13.93,19.21 -6.37,4.38 -14.33,6.59 -23.85,6.59 -15.1,0 -26.3,-4.94 -33.54,-14.82 -5.72,-7.94 -8.6,-17.94 -8.6,-30.02 0,-14.41 3.77,-25.72 11.29,-33.88 7.51,-8.18 17.03,-12.26 28.53,-12.26 12.91,0 23.09,4.28 30.58,12.82 7.46,8.54 11.03,21.64 10.7,39.29l-57.47 0c0.17,6.82 2.01,12.12 5.56,15.92 3.51,3.79 7.92,5.7 13.17,5.7 3.61,0 6.62,-0.98 9.05,-2.94 2.46,-1.95 4.3,-5.11 5.56,-9.46zm1.34 -23.29c-0.17,-6.68 -1.87,-11.76 -5.14,-15.22 -3.27,-3.49 -7.23,-5.23 -11.92,-5.23 -5,0 -9.13,1.85 -12.4,5.51 -3.27,3.65 -4.86,8.65 -4.8,14.94l34.26 0z"/>
 </g>
</svg>
