<?xml version="1.0" encoding="UTF-8"?>
<!DOCTYPE svg PUBLIC "-//W3C//DTD SVG 1.1//EN" "http://www.w3.org/Graphics/SVG/1.1/DTD/svg11.dtd">
<!-- Creator: CorelDRAW 2017 -->
<svg xmlns="http://www.w3.org/2000/svg" xml:space="preserve" width="500px" height="500px" version="1.1" style="shape-rendering:geometricPrecision; text-rendering:geometricPrecision; image-rendering:optimizeQuality; fill-rule:evenodd; clip-rule:evenodd"
viewBox="0 0 500 500"
 xmlns:xlink="http://www.w3.org/1999/xlink">
 <defs>
  <style type="text/css">
   <![CDATA[
    .str0 {stroke:#008DD2;stroke-width:20;stroke-miterlimit:22.9256}
    .str1 {stroke:#424242;stroke-miterlimit:22.9256}
    .fil90 {fill:none}
    .fil1 {fill:#D9DADA}
    .fil89 {fill:#B2B3B3}
    .fil92 {fill:black}
    .fil87 {fill:#2BBBDA}
    .fil88 {fill:#2BBBDA}
    .fil86 {fill:#2DBCDA}
    .fil30 {fill:#2FBCDB}
    .fil85 {fill:#30BCDB}
    .fil51 {fill:#32BDDB}
    .fil52 {fill:#33BEDB}
    .fil84 {fill:#34BEDC}
    .fil29 {fill:#36BFDC}
    .fil83 {fill:#37BFDC}
    .fil82 {fill:#39BFDD}
    .fil3 {fill:#3AC0DD}
    .fil81 {fill:#3BC0DD}
    .fil31 {fill:#3CC0DD}
    .fil80 {fill:#3DC1DD}
    .fil79 {fill:#40C1DE}
    .fil53 {fill:#41C2DE}
    .fil2 {fill:#424242}
    .fil93 {fill:#424242}
    .fil78 {fill:#42C2DE}
    .fil50 {fill:#43C3DE}
    .fil77 {fill:#44C3DF}
    .fil28 {fill:#45C3DF}
    .fil76 {fill:#47C4DF}
    .fil75 {fill:#49C4E0}
    .fil4 {fill:#4AC5DF}
    .fil74 {fill:#4DC6E0}
    .fil54 {fill:#50C7E0}
    .fil49 {fill:#53C8E1}
    .fil27 {fill:#55C8E1}
    .fil94 {fill:#575757}
    .fil32 {fill:#57C9E2}
    .fil5 {fill:#59CAE2}
    .fil73 {fill:#5ACAE3}
    .fil55 {fill:#5ECBE3}
    .fil26 {fill:#64CDE4}
    .fil72 {fill:#67CEE5}
    .fil6 {fill:#68CFE5}
    .fil56 {fill:#6CD0E5}
    .fil33 {fill:#72D2E6}
    .fil25 {fill:#73D2E7}
    .fil48 {fill:#74D2E7}
    .fil7 {fill:#77D4E7}
    .fil57 {fill:#7BD5E8}
    .fil34 {fill:#7FD6E9}
    .fil71 {fill:#81D6E9}
    .fil24 {fill:#82D7E9}
    .fil47 {fill:#84D8EA}
    .fil8 {fill:#87D8EA}
    .fil58 {fill:#89D9EA}
    .fil35 {fill:#8CDAEB}
    .fil70 {fill:#8EDBEB}
    .fil23 {fill:#92DCEC}
    .fil91 {fill:#949494}
    .fil46 {fill:#95DDEC}
    .fil9 {fill:#96DDED}
    .fil59 {fill:#97DEED}
    .fil36 {fill:#9ADFED}
    .fil69 {fill:#9BDFEE}
    .fil22 {fill:#A1E1EF}
    .fil10 {fill:#A5E2EF}
    .fil37 {fill:#A7E3F0}
    .fil68 {fill:#A8E3F0}
    .fil21 {fill:#B0E6F1}
    .fil60 {fill:#B4E7F2}
    .fil11 {fill:#B5E7F2}
    .fil45 {fill:#B6E8F2}
    .fil20 {fill:#C0EBF4}
    .fil38 {fill:#C2EBF4}
    .fil12 {fill:#C4ECF5}
    .fil44 {fill:#C6EDF5}
    .fil67 {fill:#CFEFF7}
    .fil19 {fill:#CFF0F7}
    .fil61 {fill:#D0F0F7}
    .fil13 {fill:#D3F1F7}
    .fil43 {fill:#D7F2F8}
    .fil66 {fill:#DCF4F9}
    .fil39 {fill:#DDF4F9}
    .fil18 {fill:#DEF5F9}
    .fil14 {fill:#E3F6FA}
    .fil42 {fill:#E7F7FB}
    .fil65 {fill:#E9F8FB}
    .fil40 {fill:#EAF8FB}
    .fil62 {fill:#EDF9FC}
    .fil17 {fill:#EEF9FC}
    .fil15 {fill:#F2FBFD}
    .fil64 {fill:#F6FCFD}
    .fil41 {fill:#F8FDFE}
    .fil63 {fill:#FBFEFE}
    .fil0 {fill:#FCD844}
    .fil16 {fill:#FDFEFF}
    .fil95 {fill:#008DD2;fill-rule:nonzero}
   ]]>
  </style>
    <clipPath id="id0">
     <path d="M149.7 122.99c35.19,0 70.41,0 105.6,0 35.2,0 70.41,0 105.63,0 3.52,0 8.02,2.52 8.43,5.64 4.99,38.59 9.76,75.31 16.25,113.84 0.53,3.14 -2.4,5.72 -6.48,5.71 -40.92,-0.04 -81.84,-0.14 -122.73,-0.22 -40.89,-0.09 -81.81,-0.17 -122.71,-0.2 -4.08,-0.01 -7.09,-2.59 -6.66,-5.71 5.18,-37.8 8.71,-75.89 13.9,-113.42 0.43,-3.13 5.26,-5.64 8.77,-5.64z"/>
    </clipPath>
 </defs>
 <g id="Слой_x0020_1">
  <metadata id="CorelCorpID_0Corel-Layer"/>
  <circle class="fil0 str0" cx="250" cy="250" r="229.7"/>
 </g>
 <g id="Слой_x0020_1_0">
  <metadata id="CorelCorpID_1Corel-Layer"/>
  <path class="fil1" d="M133.81 109.13c40.46,0 80.95,0 121.42,0 40.46,0 80.95,0 121.45,0 4.04,0 7.26,3.44 7.72,7.59 2.83,25.22 6.27,50.42 9.79,75.6 3.51,25.2 7.19,50.4 10.86,75.59 0.19,1.27 0,2.48 -0.48,3.54 -1.09,2.4 -3.71,4.05 -6.97,4.05 -47.05,-0.06 -94.1,-0.19 -141.12,-0.3 -47.01,-0.12 -94.06,-0.22 -141.08,-0.27 -3.01,0 -5.51,-1.41 -6.79,-3.51 -0.72,-1.18 -1.05,-2.58 -0.87,-4.08 2.98,-25.09 5.95,-50.21 8.92,-75.3 2.96,-25.09 5.91,-50.22 8.92,-75.32 0.49,-4.16 4.19,-7.59 8.23,-7.59z"/>
  <path class="fil2" d="M137.9 112.69c39.15,0 78.32,0 117.47,0 39.14,0 78.31,0 117.49,0 3.91,0 7.02,3.27 7.47,7.2 2.73,23.92 6.07,47.83 9.47,71.71 3.4,23.9 6.95,47.81 10.51,71.7 0.58,3.96 -2.67,7.2 -7.21,7.2 -45.52,-0.06 -91.03,-0.18 -136.52,-0.29 -45.48,-0.11 -91,-0.21 -136.49,-0.25 -4.54,0 -7.88,-3.25 -7.41,-7.2 2.88,-23.8 5.76,-47.63 8.63,-71.42 2.87,-23.8 5.72,-47.64 8.63,-71.45 0.48,-3.95 4.05,-7.2 7.96,-7.2z"/>
  <g>
   <g style="clip-path:url(#id0)">
    <polygon class="fil3" points="266.68,100.46 -69.26,99.18 -68.77,91.53 "/>
    <polygon id="1" class="fil4" points="266.68,100.46 -68.85,92.8 -68.02,86.43 "/>
    <polygon id="2" class="fil5" points="266.68,100.46 -68.19,87.71 -66.95,81.35 "/>
    <polygon id="3" class="fil6" points="266.68,100.46 -67.19,82.62 -65.54,76.29 "/>
    <polygon id="4" class="fil7" points="266.68,100.46 -65.87,77.55 -63.81,71.25 "/>
    <polygon id="5" class="fil8" points="266.68,100.46 -64.22,72.51 -61.75,66.24 "/>
    <polygon id="6" class="fil9" points="266.68,100.46 -62.24,67.49 -59.37,61.27 "/>
    <polygon id="7" class="fil10" points="266.68,100.46 -59.94,62.51 -56.66,56.33 "/>
    <polygon id="8" class="fil11" points="266.68,100.46 -57.32,57.56 -53.64,51.43 "/>
    <polygon id="9" class="fil12" points="266.68,100.46 -54.37,52.66 -50.3,46.59 "/>
    <polygon id="10" class="fil13" points="266.68,100.46 -51.11,47.8 -46.65,41.8 "/>
    <polygon id="11" class="fil14" points="266.68,100.46 -47.54,43 -42.68,37.06 "/>
    <polygon id="12" class="fil15" points="266.68,100.46 -43.65,38.25 -38.42,32.39 "/>
    <polygon id="13" class="fil16" points="266.68,100.46 -39.46,33.56 -33.85,27.79 "/>
    <polygon id="14" class="fil17" points="266.68,100.46 -34.97,28.94 -28.98,23.26 "/>
    <polygon id="15" class="fil18" points="266.68,100.46 -30.18,24.39 -23.83,18.8 "/>
    <polygon id="16" class="fil19" points="266.68,100.46 -25.1,19.92 -18.38,14.42 "/>
    <polygon id="17" class="fil20" points="266.68,100.46 -19.72,15.52 -12.66,10.13 "/>
    <polygon id="18" class="fil21" points="266.68,100.46 -14.07,11.21 -6.66,5.93 "/>
    <polygon id="19" class="fil22" points="266.68,100.46 -8.14,6.99 -0.39,1.82 "/>
    <polygon id="20" class="fil23" points="266.68,100.46 -1.94,2.86 6.15,-2.19 "/>
    <polygon id="21" class="fil24" points="266.68,100.46 4.53,-1.18 12.94,-6.1 "/>
    <polygon id="22" class="fil25" points="266.68,100.46 11.26,-5.11 19.98,-9.9 "/>
    <polygon id="23" class="fil26" points="266.68,100.46 18.24,-8.94 27.26,-13.6 "/>
    <polygon id="24" class="fil27" points="266.68,100.46 25.46,-12.67 34.79,-17.18 "/>
    <polygon id="25" class="fil28" points="266.68,100.46 32.92,-16.28 42.54,-20.65 "/>
    <polygon id="26" class="fil29" points="266.68,100.46 40.61,-19.77 50.51,-24 "/>
    <polygon id="27" class="fil30" points="266.68,100.46 48.53,-23.15 58.69,-27.22 "/>
    <polygon id="28" class="fil31" points="266.68,100.46 56.66,-26.41 67.08,-30.32 "/>
    <polygon id="29" class="fil4" points="266.68,100.46 65,-29.54 75.67,-33.29 "/>
    <polygon id="30" class="fil32" points="266.68,100.46 73.53,-32.54 84.44,-36.13 "/>
    <polygon id="31" class="fil26" points="266.68,100.46 82.26,-35.41 93.4,-38.83 "/>
    <polygon id="32" class="fil33" points="266.68,100.46 91.17,-38.14 102.52,-41.39 "/>
    <polygon id="33" class="fil34" points="266.68,100.46 100.25,-40.74 111.81,-43.82 "/>
    <polygon id="34" class="fil35" points="266.68,100.46 109.5,-43.2 121.25,-46.1 "/>
    <polygon id="35" class="fil36" points="266.68,100.46 118.9,-45.52 130.84,-48.24 "/>
    <polygon id="36" class="fil37" points="266.68,100.46 128.45,-47.7 140.56,-50.23 "/>
    <polygon id="37" class="fil11" points="266.68,100.46 138.13,-49.72 150.4,-52.07 "/>
    <polygon id="38" class="fil38" points="266.68,100.46 147.95,-51.6 160.36,-53.77 "/>
    <polygon id="39" class="fil19" points="266.68,100.46 157.87,-53.33 170.42,-55.31 "/>
    <polygon id="40" class="fil39" points="266.68,100.46 167.91,-54.91 180.58,-56.69 "/>
    <polygon id="41" class="fil40" points="266.68,100.46 178.04,-56.34 190.82,-57.92 "/>
    <polygon id="42" class="fil41" points="266.68,100.46 188.26,-57.61 201.14,-59 "/>
    <polygon id="43" class="fil41" points="266.68,100.46 198.56,-58.72 211.52,-59.92 "/>
    <polygon id="44" class="fil42" points="266.68,100.46 208.93,-59.68 221.95,-60.68 "/>
    <polygon id="45" class="fil43" points="266.68,100.46 219.35,-60.48 232.44,-61.28 "/>
    <polygon id="46" class="fil44" points="266.68,100.46 229.82,-61.12 242.95,-61.72 "/>
    <polygon id="47" class="fil45" points="266.68,100.46 240.32,-61.6 253.49,-62 "/>
    <polygon id="48" class="fil10" points="266.68,100.46 250.86,-61.92 264.04,-62.12 "/>
    <polygon id="49" class="fil46" points="266.68,100.46 261.4,-62.08 274.59,-62.08 "/>
    <polygon id="50" class="fil47" points="266.68,100.46 271.95,-62.08 285.14,-61.88 "/>
    <polygon id="51" class="fil48" points="266.68,100.46 282.5,-61.92 295.67,-61.52 "/>
    <polygon id="52" class="fil26" points="266.68,100.46 293.03,-61.6 306.17,-61 "/>
    <polygon id="53" class="fil49" points="266.68,100.46 303.54,-61.12 316.63,-60.32 "/>
    <polygon id="54" class="fil50" points="266.68,100.46 314.01,-60.48 327.04,-59.48 "/>
    <polygon id="55" class="fil51" points="266.68,100.46 324.43,-59.68 337.39,-58.48 "/>
    <polygon id="56" class="fil52" points="266.68,100.46 334.79,-58.72 347.67,-57.33 "/>
    <polygon id="57" class="fil53" points="266.68,100.46 345.09,-57.61 357.87,-56.02 "/>
    <polygon id="58" class="fil54" points="266.68,100.46 355.31,-56.34 367.98,-54.56 "/>
    <polygon id="59" class="fil55" points="266.68,100.46 365.45,-54.91 377.99,-52.94 "/>
    <polygon id="60" class="fil56" points="266.68,100.46 375.48,-53.33 387.89,-51.17 "/>
    <polygon id="61" class="fil57" points="266.68,100.46 385.41,-51.6 397.67,-49.25 "/>
    <polygon id="62" class="fil58" points="266.68,100.46 395.22,-49.72 407.33,-47.19 "/>
    <polygon id="63" class="fil59" points="266.68,100.46 404.91,-47.7 416.84,-44.98 "/>
    <polygon id="64" class="fil10" points="266.68,100.46 414.45,-45.52 426.21,-42.62 "/>
    <polygon id="65" class="fil60" points="266.68,100.46 423.86,-43.2 435.41,-40.13 "/>
    <polygon id="66" class="fil38" points="266.68,100.46 433.1,-40.74 444.46,-37.49 "/>
    <polygon id="67" class="fil61" points="266.68,100.46 442.18,-38.14 453.32,-34.72 "/>
    <polygon id="68" class="fil18" points="266.68,100.46 451.1,-35.41 462,-31.82 "/>
    <polygon id="69" class="fil62" points="266.68,100.46 459.82,-32.54 470.49,-28.78 "/>
    <polygon id="70" class="fil63" points="266.68,100.46 468.36,-29.54 478.78,-25.62 "/>
    <polygon id="71" class="fil64" points="266.68,100.46 476.7,-26.41 486.86,-22.34 "/>
    <polygon id="72" class="fil65" points="266.68,100.46 484.83,-23.15 494.72,-18.93 "/>
    <polygon id="73" class="fil66" points="266.68,100.46 492.74,-19.77 502.36,-15.4 "/>
    <polygon id="74" class="fil67" points="266.68,100.46 500.44,-16.28 509.76,-11.76 "/>
    <polygon id="75" class="fil38" points="266.68,100.46 507.9,-12.67 516.93,-8.01 "/>
    <polygon id="76" class="fil11" points="266.68,100.46 515.12,-8.94 523.84,-4.16 "/>
    <polygon id="77" class="fil68" points="266.68,100.46 522.1,-5.11 530.51,-0.19 "/>
    <polygon id="78" class="fil69" points="266.68,100.46 528.82,-1.18 536.91,3.87 "/>
    <polygon id="79" class="fil70" points="266.68,100.46 535.29,2.86 543.05,8.02 "/>
    <polygon id="80" class="fil71" points="266.68,100.46 541.49,6.99 548.91,12.27 "/>
    <polygon id="81" class="fil48" points="266.68,100.46 547.43,11.21 554.49,16.6 "/>
    <polygon id="82" class="fil72" points="266.68,100.46 553.08,15.52 559.79,21.02 "/>
    <polygon id="83" class="fil73" points="266.68,100.46 558.45,19.92 564.81,25.51 "/>
    <polygon id="84" class="fil74" points="266.68,100.46 563.54,24.39 569.52,30.08 "/>
    <polygon id="85" class="fil75" points="266.68,100.46 568.33,28.94 573.94,34.72 "/>
    <polygon id="86" class="fil76" points="266.68,100.46 572.82,33.56 578.06,39.42 "/>
    <polygon id="87" class="fil77" points="266.68,100.46 577.01,38.25 581.87,44.19 "/>
    <polygon id="88" class="fil78" points="266.68,100.46 580.89,43 585.36,49.01 "/>
    <polygon id="89" class="fil79" points="266.68,100.46 584.47,47.8 588.55,53.87 "/>
    <polygon id="90" class="fil80" points="266.68,100.46 587.73,52.66 591.41,58.79 "/>
    <polygon id="91" class="fil81" points="266.68,100.46 590.67,57.56 593.95,63.75 "/>
    <polygon id="92" class="fil82" points="266.68,100.46 593.3,62.51 596.18,68.74 "/>
    <polygon id="93" class="fil83" points="266.68,100.46 595.6,67.49 598.07,73.77 "/>
    <polygon id="94" class="fil84" points="266.68,100.46 597.58,72.51 599.64,78.82 "/>
    <polygon id="95" class="fil51" points="266.68,100.46 599.23,77.55 600.88,83.89 "/>
    <polygon id="96" class="fil85" points="266.68,100.46 600.55,82.62 601.79,88.98 "/>
    <polygon id="97" class="fil86" points="266.68,100.46 601.54,87.71 602.37,94.08 "/>
    <polygon id="98" class="fil87" points="266.68,100.46 602.21,92.8 602.62,99.18 "/>
    <polygon id="99" class="fil88" points="266.68,100.46 602.54,97.91 602.54,104.29 "/>
    <polygon id="100" class="fil3" points="266.68,100.46 602.54,103.01 602.12,109.39 "/>
    <polygon id="101" class="fil4" points="266.68,100.46 602.21,108.12 601.38,114.49 "/>
    <polygon id="102" class="fil5" points="266.68,100.46 601.54,113.21 600.3,119.57 "/>
    <polygon id="103" class="fil6" points="266.68,100.46 600.55,118.3 598.9,124.63 "/>
    <polygon id="104" class="fil7" points="266.68,100.46 599.23,123.36 597.16,129.67 "/>
    <polygon id="105" class="fil8" points="266.68,100.46 597.58,128.41 595.11,134.68 "/>
    <polygon id="106" class="fil9" points="266.68,100.46 595.6,133.42 592.72,139.65 "/>
    <polygon id="107" class="fil10" points="266.68,100.46 593.3,138.41 590.02,144.59 "/>
    <polygon id="108" class="fil11" points="266.68,100.46 590.67,143.35 586.99,149.48 "/>
    <polygon id="109" class="fil12" points="266.68,100.46 587.73,148.26 583.65,154.33 "/>
    <polygon id="110" class="fil13" points="266.68,100.46 584.47,153.12 580,159.12 "/>
    <polygon id="111" class="fil14" points="266.68,100.46 580.89,157.92 576.04,163.85 "/>
    <polygon id="112" class="fil15" points="266.68,100.46 577.01,162.67 571.77,168.53 "/>
    <polygon id="113" class="fil16" points="266.68,100.46 572.82,167.35 567.2,173.13 "/>
    <polygon id="114" class="fil17" points="266.68,100.46 568.33,171.97 562.34,177.66 "/>
    <polygon id="115" class="fil18" points="266.68,100.46 563.54,176.52 557.18,182.12 "/>
    <polygon id="116" class="fil19" points="266.68,100.46 558.45,181 551.74,186.5 "/>
    <polygon id="117" class="fil20" points="266.68,100.46 553.08,185.4 546.01,190.79 "/>
    <polygon id="118" class="fil21" points="266.68,100.46 547.43,189.71 540.01,194.99 "/>
    <polygon id="119" class="fil22" points="266.68,100.46 541.49,193.93 533.74,199.1 "/>
    <polygon id="120" class="fil23" points="266.68,100.46 535.29,198.06 527.21,203.11 "/>
    <polygon id="121" class="fil24" points="266.68,100.46 528.82,202.1 520.42,207.02 "/>
    <polygon id="122" class="fil25" points="266.68,100.46 522.1,206.03 513.37,210.82 "/>
    <polygon id="123" class="fil26" points="266.68,100.46 515.12,209.86 506.09,214.52 "/>
    <polygon id="124" class="fil27" points="266.68,100.46 507.9,213.59 498.57,218.1 "/>
    <polygon id="125" class="fil28" points="266.68,100.46 500.44,217.2 490.82,221.57 "/>
    <polygon id="126" class="fil29" points="266.68,100.46 492.74,220.69 482.85,224.91 "/>
    <polygon id="127" class="fil30" points="266.68,100.46 484.83,224.07 474.66,228.14 "/>
    <polygon id="128" class="fil31" points="266.68,100.46 476.7,227.33 466.27,231.24 "/>
    <polygon id="129" class="fil4" points="266.68,100.46 468.36,230.45 457.69,234.21 "/>
    <polygon id="130" class="fil32" points="266.68,100.46 459.82,233.46 448.91,237.04 "/>
    <polygon id="131" class="fil26" points="266.68,100.46 451.1,236.33 439.96,239.75 "/>
    <polygon id="132" class="fil33" points="266.68,100.46 442.18,239.06 430.83,242.31 "/>
    <polygon id="133" class="fil34" points="266.68,100.46 433.1,241.66 421.54,244.74 "/>
    <polygon id="134" class="fil35" points="266.68,100.46 423.86,244.12 412.1,247.02 "/>
    <polygon id="135" class="fil36" points="266.68,100.46 414.45,246.44 402.52,249.16 "/>
    <polygon id="136" class="fil37" points="266.68,100.46 404.91,248.62 392.8,251.15 "/>
    <polygon id="137" class="fil11" points="266.68,100.46 395.22,250.64 382.96,252.99 "/>
    <polygon id="138" class="fil38" points="266.68,100.46 385.41,252.52 373,254.69 "/>
    <polygon id="139" class="fil19" points="266.68,100.46 375.48,254.25 362.94,256.23 "/>
    <polygon id="140" class="fil39" points="266.68,100.46 365.45,255.83 352.78,257.61 "/>
    <polygon id="141" class="fil40" points="266.68,100.46 355.31,257.26 342.54,258.84 "/>
    <polygon id="142" class="fil41" points="266.68,100.46 345.09,258.53 332.22,259.92 "/>
    <polygon id="143" class="fil41" points="266.68,100.46 334.79,259.64 321.84,260.84 "/>
    <polygon id="144" class="fil42" points="266.68,100.46 324.43,260.6 311.4,261.59 "/>
    <polygon id="145" class="fil43" points="266.68,100.46 314.01,261.4 300.92,262.2 "/>
    <polygon id="146" class="fil44" points="266.68,100.46 303.54,262.04 290.4,262.64 "/>
    <polygon id="147" class="fil45" points="266.68,100.46 293.03,262.52 279.87,262.92 "/>
    <polygon id="148" class="fil10" points="266.68,100.46 282.5,262.84 269.32,263.04 "/>
    <polygon id="149" class="fil46" points="266.68,100.46 271.95,263 258.76,263 "/>
    <polygon id="150" class="fil47" points="266.68,100.46 261.4,263 248.22,262.8 "/>
    <polygon id="151" class="fil48" points="266.68,100.46 250.86,262.84 237.69,262.44 "/>
    <polygon id="152" class="fil26" points="266.68,100.46 240.32,262.52 227.19,261.91 "/>
    <polygon id="153" class="fil49" points="266.68,100.46 229.82,262.04 216.73,261.24 "/>
    <polygon id="154" class="fil50" points="266.68,100.46 219.35,261.4 206.32,260.4 "/>
    <polygon id="155" class="fil51" points="266.68,100.46 208.93,260.6 195.97,259.4 "/>
    <polygon id="156" class="fil52" points="266.68,100.46 198.56,259.64 185.69,258.25 "/>
    <polygon id="157" class="fil53" points="266.68,100.46 188.26,258.53 175.49,256.94 "/>
    <polygon id="158" class="fil54" points="266.68,100.46 178.04,257.26 165.37,255.47 "/>
    <polygon id="159" class="fil55" points="266.68,100.46 167.91,255.83 155.36,253.86 "/>
    <polygon id="160" class="fil56" points="266.68,100.46 157.87,254.25 145.46,252.09 "/>
    <polygon id="161" class="fil57" points="266.68,100.46 147.95,252.52 135.68,250.17 "/>
    <polygon id="162" class="fil58" points="266.68,100.46 138.13,250.64 126.03,248.11 "/>
    <polygon id="163" class="fil59" points="266.68,100.46 128.45,248.62 116.51,245.9 "/>
    <polygon id="164" class="fil10" points="266.68,100.46 118.9,246.44 107.15,243.54 "/>
    <polygon id="165" class="fil60" points="266.68,100.46 109.5,244.12 97.94,241.05 "/>
    <polygon id="166" class="fil38" points="266.68,100.46 100.25,241.66 88.9,238.41 "/>
    <polygon id="167" class="fil61" points="266.68,100.46 91.17,239.06 80.03,235.64 "/>
    <polygon id="168" class="fil18" points="266.68,100.46 82.26,236.33 71.35,232.74 "/>
    <polygon id="169" class="fil62" points="266.68,100.46 73.53,233.46 62.86,229.7 "/>
    <polygon id="170" class="fil63" points="266.68,100.46 65,230.45 54.57,226.54 "/>
    <polygon id="171" class="fil64" points="266.68,100.46 56.66,227.33 46.49,223.26 "/>
    <polygon id="172" class="fil65" points="266.68,100.46 48.53,224.07 38.63,219.85 "/>
    <polygon id="173" class="fil66" points="266.68,100.46 40.61,220.69 31,216.32 "/>
    <polygon id="174" class="fil67" points="266.68,100.46 32.92,217.2 23.59,212.68 "/>
    <polygon id="175" class="fil38" points="266.68,100.46 25.46,213.59 16.43,208.93 "/>
    <polygon id="176" class="fil11" points="266.68,100.46 18.24,209.86 9.51,205.07 "/>
    <polygon id="177" class="fil68" points="266.68,100.46 11.26,206.03 2.85,201.11 "/>
    <polygon id="178" class="fil69" points="266.68,100.46 4.53,202.1 -3.56,197.05 "/>
    <polygon id="179" class="fil70" points="266.68,100.46 -1.94,198.06 -9.69,192.9 "/>
    <polygon id="180" class="fil71" points="266.68,100.46 -8.14,193.93 -15.55,188.65 "/>
    <polygon id="181" class="fil48" points="266.68,100.46 -14.07,189.71 -21.14,184.32 "/>
    <polygon id="182" class="fil72" points="266.68,100.46 -19.72,185.4 -26.44,179.9 "/>
    <polygon id="183" class="fil73" points="266.68,100.46 -25.1,181 -31.45,175.41 "/>
    <polygon id="184" class="fil74" points="266.68,100.46 -30.18,176.52 -36.17,170.84 "/>
    <polygon id="185" class="fil75" points="266.68,100.46 -34.97,171.97 -40.59,166.2 "/>
    <polygon id="186" class="fil76" points="266.68,100.46 -39.46,167.35 -44.7,161.5 "/>
    <polygon id="187" class="fil77" points="266.68,100.46 -43.65,162.67 -48.51,156.73 "/>
    <polygon id="188" class="fil78" points="266.68,100.46 -47.54,157.92 -52.01,151.91 "/>
    <polygon id="189" class="fil79" points="266.68,100.46 -51.11,153.12 -55.19,147.04 "/>
    <polygon id="190" class="fil80" points="266.68,100.46 -54.37,148.26 -58.05,142.13 "/>
    <polygon id="191" class="fil81" points="266.68,100.46 -57.32,143.35 -60.6,137.17 "/>
    <polygon id="192" class="fil82" points="266.68,100.46 -59.94,138.41 -62.82,132.18 "/>
    <polygon id="193" class="fil83" points="266.68,100.46 -62.24,133.42 -64.72,127.15 "/>
    <polygon id="194" class="fil84" points="266.68,100.46 -64.22,128.41 -66.28,122.1 "/>
    <polygon id="195" class="fil51" points="266.68,100.46 -65.87,123.36 -67.53,117.03 "/>
    <polygon id="196" class="fil85" points="266.68,100.46 -67.19,118.3 -68.44,111.94 "/>
    <polygon id="197" class="fil86" points="266.68,100.46 -68.19,113.21 -69.02,106.84 "/>
    <polygon id="198" class="fil87" points="266.68,100.46 -68.85,108.12 -69.26,101.74 "/>
    <polygon id="199" class="fil88" points="266.68,100.46 -69.18,103.01 -69.18,97.91 "/>
   </g>
  </g>
  <path class="fil89" d="M266.07 326.2c19.55,-0.25 38.43,-2.26 57.98,-4.72l-0.09 -5.03c1.2,-6.48 -26.82,1.57 -31.51,-12.58 -2.15,-6.47 -4.19,-12.29 -4.69,-18.87 -7.16,0 -14.31,0 -21.46,0 0.84,9.45 0.34,16.57 2.68,23.27 2.86,8.18 11.74,5.66 11.74,7.24 0,0.88 -14.65,0.94 -14.65,0.94l-18.44 0c0,0 -14.41,-0.06 -14.41,-0.94 0,-1.58 8.87,0.94 11.73,-7.24 2.34,-6.7 1.84,-13.82 2.68,-23.27 -7.15,0 -14.3,0 -21.45,0 -0.51,6.58 -2.55,12.4 -4.7,18.87 -4.69,14.15 -32.71,6.1 -31.5,12.58l-0.1 5.03c19.55,2.46 38.08,4.47 57.63,4.72l18.56 0z"/>
  <path class="fil90 str1" d="M208.87 315.22c31.13,2.43 62.96,2.5 95.52,0"/>
  <path class="fil91" d="M404.57 270.35l-6.42 12.56c-0.81,2.64 -3.48,4.52 -6.89,4.52 -44.72,-0.06 -89.45,-0.18 -134.14,-0.29 -44.69,-0.11 -89.42,-0.21 -134.11,-0.25 -2.99,0 -5.45,-1.45 -6.61,-3.59l-7.79 -12.98c0,0 2.66,3.67 5.85,3.65 34.62,0.08 242.62,0.91 284.26,0.91 3.56,0 5.85,-4.53 5.85,-4.53z"/>
  <path class="fil92" d="M254.01 111.19l0.45 -0.41c1.5,-1.36 3.91,-1.31 5.2,0.25l33.46 40.44 -2.26 3.29 -37.11 -38.37c-1.4,-1.46 -1.24,-3.84 0.26,-5.2z"/>
  <rect class="fil93" transform="matrix(0.527311 -0.271945 0.271945 0.527311 286.018 134.782)" width="7" height="164"/>
  <g>
   <rect class="fil92" transform="matrix(0.677933 -0.349624 0.271945 0.527311 284.947 134)" width="7" height="4.63"/>
   <rect class="fil92" transform="matrix(0.677933 -0.349624 0.271945 0.527311 329.546 220.479)" width="7" height="4.63"/>
   <rect class="fil92" transform="matrix(0.677933 -0.349624 0.271945 0.527311 295.791 155.027)" width="7" height="4.63"/>
   <rect class="fil92" transform="matrix(0.677933 -0.349624 0.271945 0.527311 320.3 202.551)" width="7" height="4.63"/>
  </g>
  <path class="fil94" d="M312.69 179.06l-20.46 -29.37 -3.76 2.86 22.57 27.74c0,0 1.65,-1.23 1.65,-1.23z"/>
  <g>
   <path class="fil95" d="M266.07 400.8l0 -56.95 18.44 0c6.98,0 11.53,0.28 13.65,0.85 3.26,0.86 5.99,2.72 8.19,5.58 2.2,2.86 3.3,6.56 3.3,11.1 0,3.5 -0.64,6.43 -1.89,8.81 -1.28,2.39 -2.88,4.26 -4.83,5.62 -1.95,1.35 -3.94,2.26 -5.95,2.69 -2.75,0.55 -6.71,0.83 -11.9,0.83l-7.48 0 0 21.47 -11.53 0zm11.53 -47.32l0 16.22 6.27 0c4.52,0 7.53,-0.3 9.05,-0.9 1.53,-0.6 2.72,-1.52 3.58,-2.81 0.86,-1.27 1.3,-2.74 1.3,-4.44 0,-2.08 -0.61,-3.79 -1.81,-5.14 -1.23,-1.36 -2.75,-2.2 -4.62,-2.55 -1.36,-0.25 -4.11,-0.38 -8.24,-0.38l-5.53 0zm77.94 26.32l11.14 3.42c-1.71,6.27 -4.56,10.92 -8.54,13.97 -3.98,3.04 -9.01,4.56 -15.13,4.56 -7.56,0 -13.78,-2.58 -18.66,-7.75 -4.86,-5.17 -7.3,-12.24 -7.3,-21.21 0,-9.48 2.45,-16.85 7.34,-22.1 4.89,-5.25 11.33,-7.87 19.31,-7.87 6.98,0 12.64,2.07 16.98,6.19 2.6,2.44 4.54,5.94 5.84,10.51l-11.38 2.7c-0.67,-2.94 -2.08,-5.27 -4.21,-6.98 -2.15,-1.71 -4.75,-2.56 -7.8,-2.56 -4.22,0 -7.66,1.51 -10.28,4.55 -2.64,3.02 -3.95,7.93 -3.95,14.71 0,7.19 1.3,12.32 3.88,15.37 2.6,3.06 5.97,4.58 10.12,4.58 3.06,0 5.7,-0.97 7.9,-2.92 2.2,-1.94 3.79,-4.99 4.74,-9.17z"/>
   <path class="fil95" d="M150 400.8l0 -56.95 17.27 0 10.21 38.84 10.09 -38.84 17.31 0 0 56.95 -10.66 0 -0.04 -44.83 -11.23 44.83 -11.08 0 -11.17 -44.83 -0.04 44.83 -10.66 0zm61.08 -41.28l11.61 0 9.9 29.28 9.67 -29.28 11.29 0 -14.55 39.73 -2.63 7.17c-0.97,2.4 -1.88,4.23 -2.76,5.5 -0.86,1.26 -1.86,2.29 -2.99,3.07 -1.13,0.8 -2.52,1.41 -4.18,1.85 -1.64,0.44 -3.51,0.66 -5.59,0.66 -2.09,0 -4.16,-0.22 -6.19,-0.66l-0.96 -8.51c1.71,0.33 3.27,0.5 4.64,0.5 2.55,0 4.43,-0.74 5.65,-2.24 1.22,-1.5 2.16,-3.41 2.81,-5.71l-15.72 -41.36z"/>
  </g>
 </g>
</svg>
