<?xml version="1.0" encoding="UTF-8"?>
<!DOCTYPE svg PUBLIC "-//W3C//DTD SVG 1.1//EN" "http://www.w3.org/Graphics/SVG/1.1/DTD/svg11.dtd">
<!-- Creator: CorelDRAW 2017 -->
<svg xmlns="http://www.w3.org/2000/svg" xml:space="preserve" width="500px" height="500px" version="1.1" style="shape-rendering:geometricPrecision; text-rendering:geometricPrecision; image-rendering:optimizeQuality; fill-rule:evenodd; clip-rule:evenodd"
viewBox="0 0 500 500"
 xmlns:xlink="http://www.w3.org/1999/xlink">
 <defs>
  <style type="text/css">
   <![CDATA[
    .fil1 {fill:#383838}
    .fil2 {fill:#595959}
    .fil0 {fill:#B2B3B3}
   ]]>
  </style>
 </defs>
 <g id="Слой_x0020_1">
  <metadata id="CorelCorpID_0Corel-Layer"/>
  <path class="fil0" d="M175.1 80.19l242.01 0 0 246c0,57.21 -46.8,104 -104,104l-242.01 0 0 -246c0,-57.2 46.8,-104 104,-104z"/>
  <path class="fil1" d="M266.69 88.26l139.85 0 0 186.48c0,79.08 -93.46,137 -172.27,137l-140.81 0 0 -185.41c0,-79.08 94.42,-138.07 173.23,-138.07zm6.24 -60.46l192.13 0 0 256.19c0,108.64 -128.4,188.21 -236.66,188.21l-193.46 0 0 -254.72c0,-108.64 129.72,-189.68 237.99,-189.68z"/>
  <circle class="fil2" cx="250" cy="250" r="41.02"/>
  <path class="fil1" d="M250 128c67.38,0 122,54.62 122,122 0,67.38 -54.62,122 -122,122 -67.38,0 -122,-54.62 -122,-122 0,-67.38 54.62,-122 122,-122zm0 38c46.39,0 84,37.61 84,84 0,46.39 -37.61,84 -84,84 -46.39,0 -84,-37.61 -84,-84 0,-46.39 37.61,-84 84,-84z"/>
 </g>
</svg>
