<?xml version="1.0" encoding="UTF-8"?>
<!DOCTYPE svg PUBLIC "-//W3C//DTD SVG 1.1//EN" "http://www.w3.org/Graphics/SVG/1.1/DTD/svg11.dtd">
<!-- Creator: CorelDRAW 2017 -->
<svg xmlns="http://www.w3.org/2000/svg" xml:space="preserve" width="500px" height="500px" version="1.1" style="shape-rendering:geometricPrecision; text-rendering:geometricPrecision; image-rendering:optimizeQuality; fill-rule:evenodd; clip-rule:evenodd"
viewBox="0 0 500 500"
 xmlns:xlink="http://www.w3.org/1999/xlink">
 <defs>
  <style type="text/css">
   <![CDATA[
    .fil15 {fill:#016260}
    .fil7 {fill:#028DAB}
    .fil12 {fill:#0B7C93}
    .fil9 {fill:#18B4CA}
    .fil1 {fill:#1AC9E6}
    .fil11 {fill:#27A5B8}
    .fil4 {fill:#28747B}
    .fil14 {fill:#2EC5D9}
    .fil6 {fill:#37D3EA}
    .fil5 {fill:#489DB1}
    .fil8 {fill:#56D9E8}
    .fil13 {fill:#74D5DA}
    .fil10 {fill:#76ABB4}
    .fil3 {fill:#A3D3DA}
    .fil2 {fill:#BADDE5}
    .fil0 {fill:#DCF2FA}
   ]]>
  </style>
 </defs>
 <g id="Слой_x0020_1">
  <metadata id="CorelCorpID_0Corel-Layer"/>
  <g id="_1918184462832">
   <path class="fil0" d="M175.1 80.19l242.01 0 0 246c0,57.21 -46.8,104 -104,104l-242.01 0 0 -246c0,-57.2 46.8,-104 104,-104z"/>
   <g>
    <path class="fil1" d="M290.84 260.57l-2.68 3.66c-6.68,16.04 -21.97,28.67 -42.5,27.23 -10.51,-0.73 -17.61,-4.63 -23.71,-10.18 -4,-3.64 -11.79,-13.26 -12.06,-19.26l0.56 8.4 -3.97 -2.31c-0.59,-0.42 -1.03,-0.67 -1.62,-1.13 -3,-2.37 0.2,0.4 -3.09,-3.27l-4.04 -4.26c-5.01,-3.34 -12.18,-1.79 -18.59,-2.48 -1.59,1.38 -3.97,8.57 2.69,12.6 0.48,0.29 12.76,2.99 16.12,4.09l-3.25 2.87c-5.14,3.21 -18.98,10.33 -24.75,10.97 -2.18,10.03 -4.48,11 -4.63,22.4l18.2 13.48c0.27,0.23 0.63,0.65 0.89,0.88 6.26,5.41 18.15,8.27 23.12,12.27 2.48,2.01 1.08,2.39 4.78,5.62 25.22,-3.11 26.78,7.09 43.6,1.46 12.02,-4.01 24.93,0.31 32.25,-3.18l26.42 -16.03c1.7,-0.53 6.59,-0.72 8.78,-0.93 1.89,-7.03 5.82,-9.12 13,-13.68 0.41,-0.26 1.02,-0.68 1.57,-0.93l0.32 -16.16c-6.74,-5.01 -6.87,-4.37 -14.69,-7.39 -5.21,-2 -10.83,-4.7 -15.19,-7.44 0.57,-0.44 0.52,-3.54 10.59,-2.87 4.64,0.31 8.77,0.85 13.88,0.93 -0.52,-19.09 -3.7,-5.38 -29.95,-24.41 -7.65,2.98 -8.97,2.84 -9.95,13.07l-2.1 -4.02z"/>
    <path class="fil2" d="M164.66 186.72c3.34,2.86 -0.52,4.22 5.71,-3.89 -0.01,14.06 1.19,0.92 19.75,3.98 36.7,6.04 11.51,-0.91 38.34,-0.95 10.17,-0.01 20.85,-3.24 27.29,-1.56 11.1,2.89 2.32,1.22 10.37,6.15 2.53,-2.46 4.68,-4.66 7.54,-6.89 2.54,4.3 -0.58,2.47 7.42,3.27 -0.98,5.96 -2.12,7.33 0.79,12.17l18.22 -6.05c13.46,-4.98 19.6,-4.28 32.74,-2.17l-0.35 -1.86c0.35,-5.11 -1.16,-2.38 1.55,-5.72l-1.2 -7.94c-5.28,-5.76 -8.84,-11.63 -15.67,-17.12 -60.71,-48.82 -153.18,-6.47 -152.5,28.58z"/>
    <path class="fil3" d="M164.66 186.72c-3.24,1.72 -1.76,-3.1 -2.95,4.16l1.38 21.68c5.53,-2.49 3.93,1.48 5.52,-5.95 1.57,10.68 1.15,8.57 10,10.65 20.48,4.8 5.46,3.56 33.27,3.53 -0.02,10.5 -0.54,1.9 2.75,5.44 17.32,-24.05 58.87,-23.86 72.71,5.82l0.02 -0.25 15.54 -6.63c11.69,-3.92 3.82,3.57 14.81,2.2 4.17,-0.52 2.1,-0.05 4.49,-2.56l11.18 -5.23 0.97 0.41c2.11,-8.23 6.06,-18.35 3.84,-28.82l-4.16 -7.97c-2.71,3.34 -1.2,0.61 -1.55,5.72l0.35 1.86c-13.14,-2.11 -19.28,-2.81 -32.74,2.17l-18.22 6.05c-2.91,-4.84 -1.77,-6.21 -0.79,-12.17 -8,-0.8 -4.88,1.03 -7.42,-3.27 -2.86,2.23 -5.01,4.43 -7.54,6.89 -8.05,-4.93 0.73,-3.26 -10.37,-6.15 -6.44,-1.68 -17.12,1.55 -27.29,1.56 -26.83,0.04 -1.64,6.99 -38.34,0.95 -18.56,-3.06 -19.76,10.08 -19.75,-3.98 -6.23,8.11 -2.37,6.75 -5.71,3.89z"/>
    <path class="fil4" d="M129.94 235.96c-0.73,9.13 0.5,8.69 3.7,11.9l4.08 -14.49c0.28,-7.94 1.77,-10.97 3.97,-16.78 3.97,-10.44 3.16,-4.25 6.78,-16.14 0.1,-0.3 0.26,-0.85 0.37,-1.16 2.47,-7.45 5.23,-19.03 9.36,-21.14 3.29,5.86 1.26,7.25 3.51,12.73 1.19,-7.26 -0.29,-2.44 2.95,-4.16 -0.68,-35.05 91.79,-77.4 152.5,-28.58 6.83,5.49 10.39,11.36 15.67,17.12l4.01 -2.09c3.45,4.46 4.61,4.93 5.89,9.88 1.31,5.07 -1.57,1.27 1.77,4.94l3.45 2.62c6.69,4.79 2.15,3.23 6.09,12.5 0.75,1.77 3.55,6.99 4.96,9.74 4.87,9.42 3.95,13.83 7.2,22.25 1.54,-1.47 4.11,4.19 2.38,-8.11 -26.74,-129.97 -215.89,-132.31 -238.64,8.97z"/>
    <path class="fil5" d="M207.7 255.49c14.73,2.96 21.31,6.51 39.82,6.69 20.07,0.19 25.58,-3.02 42.27,-5.66l-1.63 7.71 2.68 -3.66c2.06,-10.79 -1.71,-18.75 -3.48,-28.77l-0.02 0.25c-6.27,-2 -2.7,-0.06 -8.01,1 -4.31,0.86 1.57,1.29 -2.44,-0.28 -4.32,-1.69 2.9,-4.21 -0.95,-0.73 -20.31,-0.88 -52.48,0.09 -62.41,-1.68 -4.86,9.41 -5.31,12.87 -5.83,25.13z"/>
    <path class="fil6" d="M154.29 311.65l1.92 7.04c10.8,1.26 6.49,5.85 16.13,12.01 5.03,3.21 6.08,2.09 10.53,4.43l10.54 4.49c11.01,4.3 0.96,7.92 19.09,9.73 8.82,0.87 6.24,0.94 12.33,2.69 3.11,0.89 26.04,5.36 32.15,3.65l30.01 -6.79c10.54,-2.34 6.83,-5.63 17.68,-6.93l2.49 -0.12c10.91,-1.92 3.84,-6.45 12.31,-8.96 11.33,-3.37 3.69,-1.41 6.71,1.33 6.64,-2.63 2.01,0.08 5.31,-3.88l14.53 -13.4 0.2 -7.73c-6.79,0.79 -4.43,-0.63 -8.29,5.08 -0.44,-1.17 0,-5.04 0,-5.43 -0.55,0.25 -1.16,0.67 -1.57,0.93 -7.18,4.56 -11.11,6.65 -13,13.68 -2.19,0.21 -7.08,0.4 -8.78,0.93l-26.42 16.03c-7.32,3.49 -20.23,-0.83 -32.25,3.18 -16.82,5.63 -18.38,-4.57 -43.6,-1.46 -3.7,-3.23 -2.3,-3.61 -4.78,-5.62 -4.97,-4 -16.86,-6.86 -23.12,-12.27 -0.26,-0.23 -0.62,-0.65 -0.89,-0.88l-18.2 -13.48c-5.42,-3.59 -1.73,-1.26 -5.22,-7.62l-6.14 -0.11 0.33 9.48z"/>
    <path class="fil7" d="M208.54 258.27l1.35 3.75c0.27,6 8.06,15.62 12.06,19.26 6.1,5.55 13.2,9.45 23.71,10.18 20.53,1.44 35.82,-11.19 42.5,-27.23l1.63 -7.71c-16.69,2.64 -22.2,5.85 -42.27,5.66 -18.51,-0.18 -25.09,-3.73 -39.82,-6.69l0.84 2.78z"/>
    <path class="fil8" d="M184.01 349.44c15.57,0.2 8.68,5.4 34.72,10.64 30.24,6.09 39.79,2.24 61.46,-2.06 7.07,-1.41 12.75,-1.09 19.38,-3.52 5.11,-1.88 10.09,-4.73 14.69,-7.72 6.78,-4.42 6.15,-6.29 11.92,-12.56 -3.02,-2.74 4.62,-4.7 -6.71,-1.33 -8.47,2.51 -1.4,7.04 -12.31,8.96l-2.49 0.12c-10.85,1.3 -7.14,4.59 -17.68,6.93l-30.01 6.79c-6.11,1.71 -29.04,-2.76 -32.15,-3.65 -6.09,-1.75 -3.51,-1.82 -12.33,-2.69 -18.13,-1.81 -8.08,-5.43 -19.09,-9.73l-10.54 -4.49c-4.45,-2.34 -5.5,-1.22 -10.53,-4.43 -9.64,-6.16 -5.33,-10.75 -16.13,-12.01l-1.92 -7.04c-4.82,-3.25 -0.66,-0.95 -8.63,-2.99 3.23,12.6 28.68,38.85 38.35,40.78z"/>
    <path class="fil9" d="M302.89 251.52c26.25,19.03 29.43,5.32 29.95,24.41 -5.11,-0.08 -9.24,-0.62 -13.88,-0.93 -10.07,-0.67 -10.02,2.43 -10.59,2.87 4.36,2.74 9.98,5.44 15.19,7.44 7.82,3.02 7.95,2.38 14.69,7.39l-0.32 16.16c0,0.39 -0.44,4.26 0,5.43 3.86,-5.71 1.5,-4.29 8.29,-5.08 6.54,0.32 4.63,-4.55 6.39,-11.8 2.26,-9.34 3.77,-7.77 2.87,-18.91 -11.6,-4.39 7.13,-13.18 -29.09,-26.59 6.17,-10.63 5.22,0.77 6.76,-9.49 1.38,-9.17 0.22,-3.07 -4.76,-9.59l-25.5 18.69z"/>
    <path class="fil7" d="M129.94 235.96l0.84 30.79c6.32,-6.51 10.59,7.7 7.7,11.13 5.76,-28.37 4.69,-6.57 9.28,-23.66 9.22,-0.23 8.02,2.77 14.36,-2.3l1.93 -1.86c-6.24,-16.47 -3.16,8.76 -4.89,-19.75 -0.12,-2.07 -1.26,-5.64 -1.5,-10.77l7.3 0.47 -1.87 -7.45 -1.38 -21.68c-2.25,-5.48 -0.22,-6.87 -3.51,-12.73 -4.13,2.11 -6.89,13.69 -9.36,21.14 -0.11,0.31 -0.27,0.86 -0.37,1.16 -3.62,11.89 -2.81,5.7 -6.78,16.14 -2.2,5.81 -3.69,8.84 -3.97,16.78l-4.08 14.49c-3.2,-3.21 -4.43,-2.77 -3.7,-11.9z"/>
    <path class="fil9" d="M153.96 302.17l6.14 0.11c3.49,6.36 -0.2,4.03 5.22,7.62 0.15,-11.4 2.45,-12.37 4.63,-22.4 5.77,-0.64 19.61,-7.76 24.75,-10.97l3.25 -2.87c-3.36,-1.1 -15.64,-3.8 -16.12,-4.09 -6.66,-4.03 -4.28,-11.22 -2.69,-12.6l0 -3.86c-9.54,-0.19 -19.8,2.31 -24.1,10.53l-2.01 7.69c-0.09,-0.07 0.7,-0.77 -0.73,-0.29l-5.92 8.3c-3.55,9.12 0.48,18.84 7.58,22.83z"/>
    <path class="fil7" d="M334.35 219.99l-0.97 -0.41c-1.48,9.19 -2.19,5.47 -4.99,13.25 4.98,6.52 6.14,0.42 4.76,9.59 -1.54,10.26 -0.59,-1.14 -6.76,9.49 36.22,13.41 17.49,22.2 29.09,26.59l-0.38 -4.29c1.8,1.93 3.36,3.84 5.3,5.47 0.49,-10.68 -0.55,-2.12 3.39,-5.61 0.38,-6.58 0.19,-13.72 -0.46,-20.47 -1.13,-11.8 -2.28,-7.38 -6.27,-14.61 -2.21,-4.02 0.03,-0.3 -1.65,-3.9l-1.19 -2.61c-2.59,-4.74 -5.57,-4.55 -8.27,-21.63 -4.01,5.09 1.49,7.83 -11.6,9.14z"/>
    <path class="fil10" d="M214.63 226.23l-1.1 4.13c9.93,1.77 42.1,0.8 62.41,1.68 3.85,-3.48 -3.37,-0.96 0.95,0.73 4.01,1.57 -1.87,1.14 2.44,0.28 5.31,-1.06 1.74,-3 8.01,-1 -13.84,-29.68 -55.39,-29.87 -72.71,-5.82z"/>
    <path class="fil11" d="M130.78 266.75c1.49,13.51 7.48,34.4 14.88,41.91 7.97,2.04 3.81,-0.26 8.63,2.99l-0.33 -9.48c-7.1,-3.99 -11.13,-13.71 -7.58,-22.83l5.92 -8.3c1.43,-0.48 0.64,0.22 0.73,0.29l2.01 -7.69c4.3,-8.22 14.56,-10.72 24.1,-10.53l5.49 -1.2c-5.65,-6.56 -8.05,-5.51 -14.53,-9.63 1.34,-8.69 6.1,-4.37 -0.32,-14.15l-4.82 -8.12 -7.3 -0.47c0.24,5.13 1.38,8.7 1.5,10.77 1.73,28.51 -1.35,3.28 4.89,19.75l-1.93 1.86c-6.34,5.07 -5.14,2.07 -14.36,2.3 -4.59,17.09 -3.52,-4.71 -9.28,23.66 2.89,-3.43 -1.38,-17.64 -7.7,-11.13z"/>
    <path class="fil12" d="M332.83 175.26l1.2 7.94 4.16 7.97c2.22,10.47 -1.73,20.59 -3.84,28.82 13.09,-1.31 7.59,-4.05 11.6,-9.14 2.7,17.08 5.68,16.89 8.27,21.63l1.19 2.61c1.68,3.6 -0.56,-0.12 1.65,3.9 3.99,7.23 5.14,2.81 6.27,14.61 0.65,6.75 0.84,13.89 0.46,20.47l-0.53 4.69 3.69 0.14c3.95,-16.17 4.21,-33.49 1.63,-51.91 1.73,12.3 -0.84,6.64 -2.38,8.11 -3.25,-8.42 -2.33,-12.83 -7.2,-22.25 -1.41,-2.75 -4.21,-7.97 -4.96,-9.74 -3.94,-9.27 0.6,-7.71 -6.09,-12.5l-3.45 -2.62c-3.34,-3.67 -0.46,0.13 -1.77,-4.94 -1.28,-4.95 -2.44,-5.42 -5.89,-9.88l-4.01 2.09z"/>
    <path class="fil13" d="M326.18 334.22c-5.77,6.27 -5.14,8.14 -11.92,12.56 -4.6,2.99 -9.58,5.84 -14.69,7.72 -6.63,2.43 -12.31,2.11 -19.38,3.52 -21.67,4.3 -31.22,8.15 -61.46,2.06 -26.04,-5.24 -19.15,-10.44 -34.72,-10.64 5.21,7.97 29.22,16.44 40.45,18.53 45.73,8.55 93.68,-7.05 120.28,-42.96 3.54,-4.78 0.8,-0.09 3.22,-5.25 -2.73,-0.87 -2.22,1.78 -1.94,-2.82l-14.53 13.4c-3.3,3.96 1.33,1.25 -5.31,3.88z"/>
    <path class="fil13" d="M163.09 212.56l1.87 7.45 4.82 8.12c6.52,4.23 9.43,11.54 18.37,16.72 8.78,5.07 12.96,6.66 20.39,13.42l-0.84 -2.78c0.52,-12.26 0.97,-15.72 5.83,-25.13l1.1 -4.13c-3.29,-3.54 -2.77,5.06 -2.75,-5.44 -27.81,0.03 -12.79,1.27 -33.27,-3.53 -8.85,-2.08 -8.43,0.03 -10,-10.65 -1.59,7.43 0.01,3.46 -5.52,5.95z"/>
    <path class="fil13" d="M287.36 231.8c1.77,10.02 5.54,17.98 3.48,28.77l2.1 4.02c0.98,-10.23 2.3,-10.09 9.95,-13.07l25.5 -18.69c2.8,-7.78 3.51,-4.06 4.99,-13.25l-11.18 5.23c-2.39,2.51 -0.32,2.04 -4.49,2.56 -10.99,1.37 -3.12,-6.12 -14.81,-2.2l-15.54 6.63z"/>
    <path class="fil14" d="M179.14 253.11l0 3.86c6.41,0.69 13.58,-0.86 18.59,2.48l4.04 4.26c3.29,3.67 0.09,0.9 3.09,3.27 0.59,0.46 1.03,0.71 1.62,1.13l3.97 2.31 -0.56 -8.4 -1.35 -3.75c-7.43,-6.76 -11.61,-8.35 -20.39,-13.42 -8.94,-5.18 -11.85,-12.49 -18.37,-16.72 6.42,9.78 1.66,5.46 0.32,14.15 6.48,4.12 8.88,3.07 14.53,9.63l-5.49 1.2z"/>
    <path class="fil5" d="M355.48 278.5c0.9,11.14 -0.61,9.57 -2.87,18.91 -1.76,7.25 0.15,12.12 -6.39,11.8l-0.2 7.73c-0.28,4.6 -0.79,1.95 1.94,2.82 7.81,-11.71 15.74,-24.08 18.99,-40.86l-3.69 -0.14 0.53 -4.69c-3.94,3.49 -2.9,-5.07 -3.39,5.61 -1.94,-1.63 -3.5,-3.54 -5.3,-5.47l0.38 4.29z"/>
   </g>
   <path class="fil15" d="M266.69 88.26l139.85 0 0 186.48c0,79.08 -93.46,137 -172.27,137l-140.81 0 0 -185.41c0,-79.08 94.42,-138.07 173.23,-138.07zm6.24 -60.46l192.13 0 0 256.19c0,108.64 -128.4,188.21 -236.66,188.21l-193.46 0 0 -254.72c0,-108.64 129.72,-189.68 237.99,-189.68z"/>
  </g>
 </g>
</svg>
