<?xml version="1.0" encoding="UTF-8"?>
<!DOCTYPE svg PUBLIC "-//W3C//DTD SVG 1.1//EN" "http://www.w3.org/Graphics/SVG/1.1/DTD/svg11.dtd">
<!-- Creator: CorelDRAW 2017 -->
<svg xmlns="http://www.w3.org/2000/svg" xml:space="preserve" width="500px" height="500px" version="1.1" style="shape-rendering:geometricPrecision; text-rendering:geometricPrecision; image-rendering:optimizeQuality; fill-rule:evenodd; clip-rule:evenodd"
viewBox="0 0 500 500"
 xmlns:xlink="http://www.w3.org/1999/xlink">
 <defs>
  <style type="text/css">
   <![CDATA[
    .str0 {stroke:white;stroke-width:25;stroke-miterlimit:22.9256}
    .fil3 {fill:none}
    .fil0 {fill:#2B2A29}
    .fil1 {fill:#1EC7F0}
    .fil4 {fill:#7CEE25}
    .fil6 {fill:#9D6060}
    .fil2 {fill:#FDEC16}
    .fil5 {fill:#FE442D}
   ]]>
  </style>
 </defs>
 <g id="Слой_x0020_1">
  <metadata id="CorelCorpID_0Corel-Layer"/>
  <circle class="fil0 str0" cx="250" cy="250" r="232.45"/>
  <g id="_1709094943248">
   <path class="fil1" d="M353.21 201.59c-0.95,-0.66 -0.97,-0.49 -2.01,-1.11l-49.28 13.26 -162.45 43.77 0 89.21c71.06,-19.2 142.24,-37.95 213.33,-57.04 14.75,-8.69 10.35,-6.13 14.75,-8.69 16.2,-9.39 31.57,-15.82 32.69,-34.06 0.44,-7.11 -1.42,-12.78 -4.37,-17.6 -5.52,-7.7 -6.56,-6.66 -42.66,-27.74z"/>
   <path class="fil2" d="M139.44 168.34c34.27,-9.66 68.79,-18.14 103.05,-28.1 -8.34,-5.45 -39.01,-21.33 -49.64,-27.46 -4.64,-2.68 -11.68,-7.17 -17.08,-8.67 -16.01,-4.46 -28.99,5.57 -33.6,15.52 -4.57,9.83 -2.91,35.95 -2.73,48.71z"/>
   <path class="fil3" d="M208.28 328.49l-17.25 4.3 -51.56 13.93c0,21.8 -0.58,52.95 31.24,50.08 9.47,-0.85 20.64,-9.09 27.67,-13.42 17.48,-10.77 34.53,-20.58 51.65,-31.23 5.14,-3.2 99.23,-59.5 102.77,-62.47"/>
   <path class="fil4" d="M242.49 140.24c-34.26,9.97 -68.78,18.44 -103.05,28.1l0.03 89.17 211.73 -57.03c-34.94,-19.33 -108.71,-60.24 -108.71,-60.24z"/>
   <path class="fil5" d="M352.8 289.59l-161.63 43.14 -51.54 13.92c0,6.84 -1.35,23.35 1.79,31.64 8.03,18.27 16.85,19 28.75,18.48 9.82,-0.65 20.59,-8.68 27.92,-13.21 17.07,-10.54 34.5,-20.25 51.2,-30.93 8.45,-5.41 17.13,-10.51 25.55,-15.49 15.51,-9.17 36.16,-22.47 51.16,-30.99 5.34,-3.03 27.03,-16.61 26.8,-16.56z"/>
  </g>
  <polygon class="fil6" points="3252.71,997.06 3257.59,993 3252.29,994.5 "/>
 </g>
</svg>
