<?xml version="1.0" encoding="UTF-8"?>
<!DOCTYPE svg PUBLIC "-//W3C//DTD SVG 1.1//EN" "http://www.w3.org/Graphics/SVG/1.1/DTD/svg11.dtd">
<!-- Creator: CorelDRAW 2017 -->
<svg xmlns="http://www.w3.org/2000/svg" xml:space="preserve" width="500px" height="500px" version="1.1" style="shape-rendering:geometricPrecision; text-rendering:geometricPrecision; image-rendering:optimizeQuality; fill-rule:evenodd; clip-rule:evenodd"
viewBox="0 0 500 500"
 xmlns:xlink="http://www.w3.org/1999/xlink">
 <defs>
  <style type="text/css">
   <![CDATA[
    .str0 {stroke:#575757;stroke-width:16;stroke-miterlimit:22.9256}
    .fil3 {fill:black}
    .fil0 {fill:#575757}
    .fil5 {fill:#77B900}
    .fil2 {fill:#9E9E9E}
    .fil1 {fill:#C2C2C2}
    .fil6 {fill:#E6E6E6}
    .fil4 {fill:black;fill-rule:nonzero}
   ]]>
  </style>
 </defs>
 <g id="Слой_x0020_1">
  <metadata id="CorelCorpID_0Corel-Layer"/>
  <path class="fil0" d="M167.61 218.6l-36.66 0.01c0.37,0.4 2.32,0.85 3.03,1.19 3.41,1.66 5.83,2.94 6.27,7.43 0.24,2.44 -0.58,5.22 -2.08,6.6 -1.63,1.51 -4.25,1.71 -6.97,2.09l-31.22 4.81c0,8.87 -0.84,6.49 3.48,7.11l26.86 0.05c0,1.38 -0.15,3.89 0.21,4.85 0.55,-0.02 2,-0.3 2.53,-0.42 -0.08,0.88 -0.45,1.58 -0.71,2.45l-1.49 4.83c-0.27,0.94 -0.84,1.74 -0.54,2.62 0,7.99 -1.44,6.53 6.11,6.53 6.46,0 12.92,0 19.38,0 0.03,-0.02 0.06,-0.09 0.07,-0.07 0.12,0.47 -0.03,0.06 0.27,-0.42 0.02,-0.03 0.05,-0.1 0.09,-0.14 0.48,5.82 1.27,10.15 3.37,14.33 6.02,12.04 19.33,15.71 31.69,17.4 2.73,0.37 7.12,0.62 11.58,0.72l8.11 0c1.53,-0.04 2.91,-0.1 4.04,-0.2 0.7,-0.06 1.59,-0.01 2.31,-0.01 1.41,0 3.04,0.07 4.43,0 0.92,-0.05 0.88,-0.19 1.89,-0.22 0.76,-0.02 1.57,0.04 2.33,0.02l8.38 -0.68c6.21,-0.66 12.82,-1.44 14.97,-7.36 0.48,-1.31 1.5,-5.93 1.5,-7.56 0.56,0.37 1.19,1.34 1.66,1.92 1.1,1.37 4.23,4.15 5.63,5.12 2.85,1.96 5.98,3.6 9.54,4.78 3.68,1.22 7.15,2.11 11.53,2.81 12.8,2.05 28.83,0.89 41.81,0.96l10.17 -0.57c3.47,-0.46 5.54,-0.16 9.38,-1.37 1.65,-0.53 3.52,-1.52 4.57,-2.81 1.47,-1.82 3.07,-7.91 3.81,-10.51 0.31,-1.07 0.49,-1.76 0.77,-2.82 0.25,-0.96 0.66,-1.83 -0.37,-2.45 -1.42,-0.87 -20.36,0.75 -23.69,0.72 -1.46,-0.01 -2.23,0.15 -3.38,0.21 -1.14,0.07 -2.43,-0.08 -3.57,0.01 -3.94,0.33 -10.06,0.43 -14.13,0.42 -1.36,0 -1.89,-0.23 -3.36,-0.22 -4.73,0.03 -9.31,-0.36 -13.32,-1.02 -2.01,-0.33 -3.92,-0.84 -5.51,-1.64 -3.52,-1.78 -5.58,-3.39 -6.97,-7.37 -0.58,-1.66 -0.97,-4.25 -0.97,-6.4 1.54,0 10.86,-1.4 13.29,-1.67 4.5,-0.51 9,-1.08 13.46,-1.71 11.6,-1.65 28.79,-3.12 39.46,-6.06 6.66,-1.83 10.31,-3.2 16.39,-6.36 2.3,-1.2 3.78,-2.34 5.69,-3.8l2.05 -1.74c0.47,-0.45 0.58,-0.46 1.05,-0.85l3.64 -3.94 -0.21 -0.21c0.01,-0.03 0.09,-0.48 0.21,-0.63l30.55 0c0.47,-1.06 0.93,-3 1.27,-4.22 0.45,-1.62 0.93,-2.88 1.69,-4.2 1.83,-3.18 4.74,-5.1 8,-6.54 4.41,-1.94 8.43,-1.77 12.63,-2.12 1.76,-0.15 3.63,-0.23 5.71,-0.21 1.17,0.01 1.34,0.21 2.51,0.23l8.86 -0.01c4.11,0 7.68,0.21 11.6,0.22 4.04,0.01 4.56,-2.32 5.86,-5.93 1.05,-2.89 2.56,-5.86 2.56,-9.04l-20.44 0c-1.01,0 -6.62,0.33 -6.81,-0.41 -0.01,-0.06 -0.04,-0.14 -0.05,-0.21l-0.09 -2.54c0,-0.98 0,-1.97 0,-2.95l-9.04 0c-0.28,0.02 -0.54,0.05 -0.78,0.09 -1.56,0.23 -3.03,0.23 -4.6,0.45 -1.74,0.24 -2.99,0.35 -4.7,0.57 -12.93,1.72 -27.14,7.65 -35.34,18.18l-3.28 4.52 0 -3.16 -32.87 0c0.5,0.65 5.21,2.28 4.22,7.8 -2.09,11.75 -25.57,14.15 -35.04,15.53l-30.46 4.31c-0.73,0.1 -1.99,0.37 -2.77,0.38 0.36,-1.54 1.09,-3.93 1.68,-5.26 -2.46,0 -4.91,0 -7.37,0 -2.58,0 -4.57,-0.22 -6.95,-0.22l-10.75 0c-1.82,0.01 -3.16,0.35 -3.16,-0.42 -2.15,4.83 -5.51,16.82 -5.49,22.12 0.01,1.21 -0.08,1.69 -0.18,2.58 -0.13,1.16 0.19,1.48 0.2,2.69 0.03,4.38 0.82,6.02 1.68,9.7 -5.57,0 -12.4,0.9 -18.13,1.05 -1.08,0.02 -1.29,0.22 -2.52,0.22l-10.54 0.42c-6.74,-0.03 -13.56,-0.35 -19.98,-1.94 -10.45,-2.6 -13.4,-8.65 -11.39,-20.37 0.5,-2.93 1.24,-6.26 2.06,-8.91 2.94,-9.5 7.19,-17.32 15.49,-22.85 1.77,-1.19 5.17,-3.12 7.11,-3.85 10.48,-3.93 20.15,-4.39 31.79,-4.04 1.08,0.03 1.3,0.22 2.52,0.22 4.74,0.01 12.05,1 15.61,0.85 0.99,-0.04 1.37,-0.26 1.76,-0.98 0.27,-0.5 0.56,-1.48 0.52,-2.16l-1.32 -9.64c-1.62,-6.44 -7.97,-7.71 -14.25,-7.67 -1.99,0.01 -3.17,-0.2 -5.08,-0.21l-0.32 0c-13.96,0.03 -21.33,-0.21 -35.1,3.33 -9.09,2.33 -15.48,5.52 -22.67,10.41 -6.04,4.11 -11.33,10.12 -15.42,16.19 -0.13,0.18 -0.09,0.14 -0.26,0.37 -0.18,0.24 -0.22,0.29 -0.38,0.46 0.04,-1.64 0.42,-1.84 0.43,-5.9 0,-3.51 -0.24,-2.94 -0.64,-5.69zm-11.8 50.15c-6.46,0 -12.92,0 -19.38,0 -7.55,0 -6.11,1.46 -6.11,-6.53 -0.58,0.46 -0.5,0.76 -0.98,2.19l-5.13 16.56 -10.54 1.06c-9.46,0.5 -24.56,0.88 -33.38,-0.75 -1.44,-0.27 -2.46,-0.59 -3.7,-0.94 -1.12,-0.3 -2.36,-0.74 -3.44,-1.19 -1.85,-0.79 -3.89,-2.73 -4.63,-4.64 -0.97,-2.5 0.26,-5.86 1.28,-7.49 1.17,-1.85 2.74,-3.5 4.61,-4.66 5.07,-3.13 8.62,-3.23 14.49,-4.05 2.9,-0.41 5.57,-0.75 8.35,-1.13l33.28 -4.44c-0.36,-0.96 -0.21,-3.47 -0.21,-4.85l-26.86 -0.05c-4.32,-0.62 -3.48,1.76 -3.48,-7.11l-14.81 2.05c-8.59,1.41 -19.65,4.07 -27.27,8.34 -3.06,1.72 -6.34,3.36 -8.87,5.88l-3.05 3.06c-1.53,1.58 -3.18,4.37 -4.16,6.37 -1.25,2.54 -2.24,5.81 -2.53,9.21l0 3.94c0.23,2.52 0.93,4.98 2.28,7.13 3.31,5.29 9.25,8.14 15.24,10.04 15.82,5.03 45.34,3.86 62.33,2.54 4.97,-0.39 10.1,-0.99 14.88,-1.76 5.23,-0.84 9.41,-1.38 12.77,-4.09 2.59,-2.09 3.78,-7.81 5.05,-11.6 0.7,-2.08 1.26,-4.22 2,-6.42 0.38,-1.15 0.61,-2.07 1,-3.22 0.37,-1.09 0.79,-2.3 0.97,-3.45zm96.3 -26.55c0,0.77 1.34,0.43 3.16,0.42l10.75 0c2.38,0 4.37,0.22 6.95,0.22 2.46,0 4.91,0 7.37,0 3.59,-11.77 10.08,-20.49 22.04,-23.48 9.81,-2.45 26.28,-3.08 35.91,-0.76 1.77,0.43 2.85,0.96 4.42,1.48l32.87 0c0,-3.62 -1.51,-6.57 -3.1,-8.7 -1.46,-1.96 -4.03,-4.13 -6.31,-5.28 -0.74,-0.37 -1.12,-0.67 -1.78,-0.95 -8.63,-3.66 -17.03,-5.05 -26.73,-5.51 -0.86,-0.04 -1.22,-0.18 -2.14,-0.21l-12.97 0c-3.03,0.04 -5.78,0.14 -7.5,0.36 -11.31,1.47 -16.44,1.74 -28.36,6.62 -6.16,2.53 -11.37,5.88 -16.28,9.85 -0.62,0.5 -0.86,0.83 -1.57,1.38 -4.31,3.33 -10.11,11.47 -12.87,16.41 -1.15,2.06 -3.1,5.86 -3.86,8.15zm117.15 -4.21c0.47,0.14 0.58,-0.01 0.21,0.21 -0.02,0.77 -0.98,3.79 -1.24,4.66l-14.52 50.38c-2.3,8.24 -1.28,6.91 14.5,6.91 2.41,0 10.08,0.31 11.63,-0.17 3.18,-1 3.53,-4.35 4.38,-7.42 1.72,-6.13 3.56,-12.21 5.27,-18.33l7.89 -27.51c0.45,-1.6 0.94,-3.13 1.34,-4.56 0.42,-1.52 1.07,-3.3 1.3,-4.8l-30.55 0c-0.12,0.15 -0.2,0.6 -0.21,0.63zm-238.31 -19.38l36.66 -0.01c-1.51,-4.96 -3.31,-7.79 -7.07,-10.62 -6.51,-4.91 -14.91,-6.86 -23.11,-7.86 -3.67,-0.45 -6.92,-0.63 -10.16,-0.69l-11.28 0 -0.55 0c-11.53,0 -23.27,0.14 -33.43,1.41 -3.05,0.39 -4.85,0.56 -7.18,1.68 -5.19,2.49 -5.56,5.31 -7.28,10.42 -1.15,3.43 -1.02,4.2 -1.71,7.14 1.58,0 2.45,0.35 3.92,0.12 2.69,-0.41 9.33,-0.66 12.01,-1.05l13.99 -1.18c4.78,-0.24 10.06,-0.63 14.75,-0.63 5.32,0 5.35,-0.57 12.47,0.18l5.84 0.69c0.79,0.14 1.2,0.34 2.13,0.4zm329.76 -13.07c-0.29,-1.8 -2.39,-3.83 -3.93,-4.49 -1.94,-0.83 -4.46,-0.97 -6.91,-1.32 -1.27,-0.18 -2.56,0.01 -3.82,-0.18 -0.41,-0.06 -1.34,-0.1 -2.53,-0.12l-10.1 0 -0.1 0c0,0.98 0,1.97 0,2.95l0.09 2.54c0.01,0.07 0.04,0.15 0.05,0.21 0.19,0.74 5.8,0.41 6.81,0.41l20.44 0z"/>
  <g id="_2001537836944">
   <circle class="fil1 str0" cx="250" cy="250" r="238.97"/>
   <path class="fil2" d="M481.52 248c0,-127.64 -103,-229.79 -230.51,-229.79 -126.76,0 -230.98,101.7 -230.99,228.82l461.5 0.97 0 0z"/>
   <circle class="fil3" cx="250" cy="250" r="169.05"/>
   <path class="fil4" d="M130.13 122.21l-27.06 -28.9 -10.3 9.64 -5.5 -5.87 27.59 -25.84 5.5 5.88 -10.25 9.59 27.07 28.91 -7.05 6.59 0 0zm22.43 -19.93l-23.45 -41.48 8.41 -4.75 9.23 16.34 16.33 -9.24 -9.23 -16.34 8.39 -4.75 23.46 41.49 -8.4 4.74 -10.25 -18.13 -16.33 9.24 10.25 18.12 -8.41 4.76 0 0zm42.71 -22.32l-10.37 -46.5 34.42 -7.68 1.75 7.86 -25.01 5.58 2.31 10.33 23.25 -5.19 1.76 7.85 -23.25 5.2 2.8 12.59 25.92 -5.78 1.76 7.87 -35.34 7.88 0 -0.01zm68.72 -7.75l-3.74 -48.81 9.79 1.53 1.97 33.43 13.63 -31 11.34 1.76 3.09 34.17 12.29 -31.77 9.57 1.49 -18.67 45.32 -10.19 -1.59 -3.8 -36.64 -14.83 33.74 -10.45 -1.63 0 0zm88.69 32.85l-9.07 -5.06 1.68 -11.47 -16.69 -9.31 -8.74 7.54 -8.92 -4.96 39.37 -32.61 8.91 4.96 -6.54 50.91 0 0zm-6.2 -25.1l2.8 -18.62 -14.2 12.28 11.4 6.35 0 -0.01zm14.47 33.55l14.04 -14.32 6.86 -31.93 8.05 7.89 -5.17 21.37 21.04 -5.79 7.91 7.75 -31.84 7.51 -14 14.27 -6.89 -6.75 0 0z"/>
   <path class="fil5" d="M220.74 163.09c-0.18,0.12 -0.48,0.02 -0.59,0.28 -0.11,0.26 -0.43,0.21 -0.59,0.26 -0.15,0.05 -0.4,0.17 -0.59,0.22 -0.18,0.06 -0.38,0.13 -0.59,0.18 -5.57,1.47 -8.32,0.58 -19.83,4.62 -6.5,2.29 -13.37,5.23 -19.02,8.44 -8.89,5.05 -27.13,16.67 -31.75,23.28 0.55,5.61 8.52,18.25 11.09,22.13 13.72,20.61 34.68,35.86 61.82,38.81l0.04 14.69 123.6 0.34 0.05 -130.06 -123.66 0.01 0.02 16.8 0 0z"/>
   <path class="fil3" d="M220.76 173.28c14.44,-0.17 23.54,2.16 34.16,8.03 6.86,3.78 20.05,14.23 22.4,19.76 -3.66,6.18 -15.81,17.57 -22.19,22.08 -10.5,7.4 -18.89,10.99 -34.39,8.06l1.16 9.05c6.67,2.19 18.37,0.02 24.46,-2 7.06,-2.34 14.42,-6.07 19.86,-9.64 9.23,-6.07 27.27,-20.69 31.76,-28.25 -6.48,-9.26 -18.83,-18.93 -30.72,-25.77 -13,-7.46 -28.61,-11.68 -46.41,-10.82l-0.09 9.5 0 0z"/>
   <path class="fil3" d="M220.73 251.32c0.02,1.77 -0.04,3.61 -0.02,5.37l0.52 4.02c0.04,0.17 0.12,0.42 0.21,0.62 29.82,3.98 92.54,-16.99 107.56,-32.12 -1.67,-2.48 -19.06,-12.31 -22.09,-13.42 -2.84,1.88 -5.34,4.41 -8.12,6.7 -23.18,19.08 -45.73,30.35 -78.06,28.83l0 0z"/>
   <path class="fil3" d="M220.75 251.12l-0.04 -10.82c-18.9,-3.94 -34.31,-19.4 -38.18,-36.42 7.08,-9.39 24.85,-17.07 38.17,-18.71l0.04 -11.73c-20.11,1.71 -33.96,9.46 -47.09,21.68 -7.73,7.2 -6.64,7.46 -3.38,14.58 8.59,18.75 25.53,38.65 50.48,41.42l0 0z"/>
   <path class="fil3" d="M220.74 194.74c0.7,0.36 0.24,0.22 1.67,0.71 0.81,0.27 1.43,0.4 2.26,0.61 1.78,0.46 2.75,0.73 4.25,1.41 7.83,3.59 11.71,14.49 14.69,17.08l16.12 -13.48c-1.74,-3.93 -9.75,-9.73 -15.05,-12.32 -7.87,-3.85 -14.07,-4.18 -23.73,-3.68l-0.21 9.67 0 0z"/>
   <path class="fil3" d="M198.63 205.29c0.73,8.47 11.4,22.62 22.09,25.54l0.02 -35.46c-11.62,-0.6 -16.38,4.59 -22.11,9.92l0 0z"/>
   <path class="fil6" d="M250.34 341.06c5.6,0.5 24.87,0.42 29.59,-0.92 8.06,-2.3 11.39,-9.87 11.25,-20.03 -0.13,-9.86 -3.72,-16.86 -11.38,-19.55 -5.07,-1.78 -23.52,-2.08 -29.4,-1.45l-0.06 41.95 0 0z"/>
   <path class="fil6" d="M313.59 341.02l11.61 0.19 2.67 -7.44 19.8 -0.07 2.5 7.5 12.49 -0.01c-0.13,-1.41 -15.14,-39.36 -16.66,-42.14l-15.67 -0.02 -16.74 41.99 0 0z"/>
   <path class="fil6" d="M137.34 341.12l11.99 0.07 0.04 -31.98c2.35,-0.25 10.01,-0.24 12.04,0.17 3.56,0.72 5.46,3 6.19,6.69 1.13,5.67 0.58,18.57 0.55,25.06l11.61 -0.02c0,-7.02 0,-14.01 0,-21 0.02,-15.64 -5.51,-21.01 -21.2,-21.14 -6.94,-0.05 -14.28,-0.24 -21.18,-0.01l-0.04 42.16 0 0z"/>
   <path class="fil6" d="M195.16 341.09l17.37 0.03 13.54 -42.01 -12.06 -0.08c-1.87,4.65 -6.53,21.82 -8.72,29.01l-1.48 4.02 -9.35 -33.03 -12.72 0.01 13.42 42.05 0 0z"/>
   <path class="fil6" d="M308.53 341.08l0.13 -41.98 -11.86 -0.05 -0.1 40.85c0.1,1.38 0.18,1.23 1.6,1.27l10.23 -0.09 0 0z"/>
   <polygon class="fil6" points="231.16,341.09 243.05,341.12 243.05,299.03 231.27,299.03 "/>
   <path class="fil3" d="M262.15 332.16c10.13,0.62 17.23,-1.02 17.36,-11.69 0.13,-10.57 -6.93,-13.45 -17.37,-12.17l0.01 23.85 0 0.01z"/>
   <path class="fil3" d="M330.69 326.46l14.25 -0.02c-0.26,-2.03 -2.55,-7.36 -3.37,-9.67 -0.88,-2.45 -2.36,-7.97 -3.69,-9.59 -0.81,1.31 -7.11,18.01 -7.19,19.29l0 -0.01z"/>
   <path class="fil2" d="M262.49 320.68l-0.01 -12.78c10.44,-1.28 17.5,1.61 17.37,12.18 0,0.2 -0.01,0.4 -0.01,0.6l11.68 0c0.01,-0.32 0.01,-0.64 0,-0.96 -0.13,-9.87 -3.72,-16.87 -11.38,-19.56 -5.07,-1.78 -23.52,-2.07 -29.4,-1.45l-0.03 21.97 11.78 0 0 0z"/>
   <path class="fil2" d="M179.8 321.37c0,-0.33 0,-0.65 0,-0.99 0.02,-16.16 -5.51,-21.71 -21.19,-21.84 -6.93,-0.06 -14.27,-0.24 -21.16,0l-0.02 22.83 11.98 0 0.01 -12.25c2.36,-0.26 10.01,-0.25 12.04,0.17 3.56,0.76 5.46,3.1 6.2,6.92 0.25,1.37 0.42,3.16 0.53,5.16l11.61 0 0 0z"/>
   <path class="fil2" d="M219.23 320.68l7.16 -22.18 -12.18 -0.07c-1.41,3.5 -4.41,14.1 -6.75,22.25l11.77 0 0 0zm-18.46 0l-6.31 -22.27 -12.84 0.01 7.11 22.26 12.04 0z"/>
   <path class="fil2" d="M354.81 320.68c-4.04,-10.13 -8.21,-20.28 -8.98,-21.69l-15.62 -0.08 -8.53 21.8 10.91 -0.03c2.01,-5.52 5.21,-13.16 5.75,-14.05 1.63,5.44 2.58,8.51 4.68,13.91l11.8 0.14 -0.01 0z"/>
   <polygon class="fil2" points="243.05,320.68 243.05,298.41 231.23,298.42 231.17,320.68 "/>
   <polygon class="fil2" points="297.01,320.65 309.13,320.68 309.12,298.91 297.12,298.92 "/>
   <path class="fil4" d="M29.03 263.43l35.66 -2.25 0.46 7.22 -35.67 2.25 -0.45 -7.22 0 0zm1.93 22.07l29.21 -5.36 -1.91 -10.4 5.94 -1.09 5.12 27.88 -5.94 1.09 -1.91 -10.36 -29.21 5.36 -1.3 -7.12zm22.98 40.4l4.15 5.73c-1.83,1.54 -2.89,3.15 -3.2,4.82 -0.31,1.67 0.1,3.45 1.2,5.34 1.16,1.99 2.47,3.26 3.91,3.78 1.43,0.52 2.72,0.45 3.86,-0.21 0.74,-0.43 1.23,-1.01 1.5,-1.73 0.26,-0.72 0.26,-1.73 0.02,-3.01 -0.16,-0.88 -0.67,-2.78 -1.54,-5.75 -1.1,-3.81 -1.44,-6.75 -1.01,-8.8 0.6,-2.88 2.13,-5.03 4.58,-6.46 1.57,-0.92 3.32,-1.34 5.2,-1.25 1.89,0.09 3.69,0.76 5.37,2.02 1.7,1.25 3.24,3.06 4.62,5.43 2.24,3.86 3.08,7.27 2.5,10.22 -0.58,2.95 -2.27,5.31 -5.08,7.08l-3.85 -6.13c1.43,-1.2 2.24,-2.43 2.43,-3.71 0.19,-1.27 -0.22,-2.78 -1.22,-4.53 -1.05,-1.8 -2.25,-2.98 -3.59,-3.56 -0.86,-0.37 -1.69,-0.33 -2.49,0.14 -0.73,0.43 -1.18,1.1 -1.34,2.01 -0.21,1.18 0.21,3.49 1.25,6.93 1.05,3.45 1.6,6.11 1.68,8.01 0.08,1.89 -0.3,3.63 -1.16,5.23 -0.84,1.59 -2.24,2.95 -4.19,4.09 -1.77,1.03 -3.71,1.51 -5.84,1.43 -2.11,-0.09 -4.07,-0.81 -5.87,-2.17 -1.79,-1.35 -3.48,-3.38 -5.04,-6.06 -2.27,-3.9 -3.12,-7.42 -2.53,-10.57 0.58,-3.13 2.47,-5.91 5.68,-8.32l0 0zm15.42 47.65l28.16 -22 6.68 8.55 -15.28 20.05 23.11 -10.01 6.69 8.56 -28.17 21.99 -4.11 -5.27 22.16 -17.34 -26.51 11.77 -4.29 -5.49 17.86 -22.84 -22.19 17.3 -4.11 -5.27 0 0zm28.42 33.85l22.95 -27.4 20.27 16.99 -3.87 4.63 -14.74 -12.34 -5.09 6.08 13.7 11.48 -3.88 4.63 -13.7 -11.48 -6.22 7.42 15.27 12.8 -3.88 4.62 -20.81 -17.43 0 0zm52.81 38.51l-6.62 -4.12 1.68 -8.53 -12.15 -7.58 -6.83 5.33 -6.5 -4.05 30.68 -22.98 6.49 4.04 -6.75 37.89 0 0zm-3.73 -19.02l2.78 -13.85 -11.09 8.68 8.31 5.17 0 0zm7.25 20.66l14.51 -32.65 6.4 2.84 3.72 27.85 9.73 -21.88 6.11 2.72 -14.52 32.65 -6.6 -2.93 -3.7 -27.34 -9.54 21.46 -6.11 -2.72 0 0zm41.07 15.85l8.22 -28.53 -10.16 -2.93 1.68 -5.8 27.23 7.86 -1.67 5.8 -10.12 -2.92 -8.24 28.53 -6.94 -2.01 0 0zm43.56 7.88l2.39 -29.6 -10.55 -0.85 0.48 -6.02 28.26 2.28 -0.49 6.02 -10.49 -0.85 -2.39 29.6 -7.21 -0.58 0 0zm17.97 -15.41c-0.45,-3.63 -0.28,-6.73 0.5,-9.33 0.57,-1.9 1.47,-3.66 2.69,-5.28 1.22,-1.61 2.62,-2.85 4.18,-3.76 2.1,-1.21 4.6,-2 7.48,-2.36 5.24,-0.65 9.62,0.46 13.17,3.32 3.53,2.86 5.67,7.19 6.38,12.98 0.72,5.73 -0.29,10.42 -3.01,14.04 -2.7,3.62 -6.68,5.76 -11.89,6.41 -5.27,0.65 -9.67,-0.44 -13.18,-3.29 -3.51,-2.83 -5.62,-7.07 -6.32,-12.73l0 0zm7.35 -1.16c0.49,4.02 1.8,6.95 3.92,8.8 2.11,1.84 4.6,2.59 7.46,2.24 2.87,-0.36 5.09,-1.68 6.67,-3.96 1.57,-2.3 2.11,-5.49 1.6,-9.62 -0.51,-4.06 -1.78,-6.99 -3.81,-8.77 -2.03,-1.79 -4.53,-2.49 -7.49,-2.12 -2.95,0.36 -5.22,1.68 -6.78,3.93 -1.55,2.24 -2.08,5.42 -1.57,9.5zm37.05 -23.32l13.56 -4.54c2.68,-0.9 4.72,-1.46 6.11,-1.68 1.39,-0.21 2.73,-0.14 4.01,0.21 1.28,0.36 2.45,1.01 3.54,1.96 1.09,0.93 1.88,2.14 2.37,3.6 0.53,1.58 0.59,3.18 0.18,4.79 -0.41,1.61 -1.24,2.98 -2.48,4.14 2.27,-0.09 4.19,0.4 5.79,1.49 1.59,1.08 2.71,2.6 3.37,4.56 0.52,1.55 0.66,3.17 0.43,4.87 -0.23,1.69 -0.81,3.19 -1.76,4.49 -0.95,1.28 -2.31,2.32 -4.05,3.14 -1.1,0.5 -3.83,1.5 -8.18,2.99l-11.54 3.87 -11.35 -33.89 0 0zm8.74 3.33l2.62 7.81 4.48 -1.5c2.66,-0.89 4.3,-1.48 4.92,-1.78 1.13,-0.52 1.92,-1.23 2.36,-2.13 0.45,-0.9 0.49,-1.89 0.12,-2.97 -0.35,-1.05 -0.93,-1.79 -1.72,-2.26 -0.8,-0.46 -1.78,-0.57 -2.96,-0.32 -0.71,0.15 -2.67,0.76 -5.88,1.84l-3.94 1.31 0 0zm4.51 13.44l3.04 9.09 6.34 -2.12c2.47,-0.83 4.01,-1.42 4.63,-1.78 0.95,-0.53 1.63,-1.26 2.03,-2.19 0.4,-0.93 0.4,-2 0,-3.21 -0.35,-1.03 -0.88,-1.81 -1.62,-2.35 -0.72,-0.54 -1.62,-0.82 -2.65,-0.83 -1.04,-0.01 -3.13,0.5 -6.24,1.54l-5.53 1.85 0 0zm31.93 4.75l-16.07 -31.92 23.63 -11.89 2.71 5.39 -17.16 8.64 3.57 7.09 15.96 -8.03 2.71 5.39 -15.95 8.03 4.35 8.65 17.79 -8.96 2.72 5.4 -24.26 12.21 0 0zm40.31 -24.29l-22.4 -27.85 9.01 -7.25c3.43,-2.75 5.75,-4.4 7.02,-4.95 1.93,-0.87 3.99,-1.03 6.2,-0.5 2.2,0.54 4.19,1.91 5.98,4.13 1.37,1.71 2.22,3.39 2.53,5.05 0.32,1.67 0.27,3.21 -0.15,4.65 -0.42,1.43 -1.03,2.65 -1.85,3.66 -1.13,1.34 -2.96,3.04 -5.49,5.08l-3.67 2.94 8.46 10.5 -5.64 4.54 0 0zm-12.98 -27.68l6.38 7.93 3.08 -2.47c2.2,-1.77 3.55,-3.1 4.07,-3.99 0.51,-0.9 0.73,-1.82 0.64,-2.78 -0.08,-0.96 -0.44,-1.86 -1.11,-2.69 -0.82,-1.02 -1.79,-1.62 -2.92,-1.8 -1.12,-0.18 -2.2,0 -3.25,0.57 -0.77,0.41 -2.16,1.43 -4.18,3.06l-2.71 2.17zm38.41 5.77l-26.21 -23.96 4.41 -5.59 21.48 20.14 11.01 -14.14 4.77 3.71 -15.46 19.84 0 0zm35.04 -51.58l-3.83 6.79 -8.61 -1.32 -7.05 12.47 5.62 6.59 -3.78 6.66 -24.26 -29.68 3.76 -6.66 38.15 5.15 0 0zm-18.84 4.54l-13.96 -2.2 9.13 10.71 4.83 -8.51 0 0zm22.46 -12.4l-13.82 -5.94 -24.19 3.87 3.34 -7.77 16.34 -2.19 -9.75 -13.14 3.27 -7.62 13.88 20.22 13.78 5.91 -2.85 6.66 0 0zm9.2 -22.09l-34.35 -9.88 7.31 -25.42 5.81 1.67 -5.31 18.46 7.62 2.2 4.93 -17.18 5.81 1.67 -4.94 17.18 9.32 2.67 5.5 -19.14 5.8 1.66 -7.5 26.11 0 0zm-26.3 -36.49l1.61 -13.07c0.37,-2.94 0.87,-5.16 1.52,-6.64 0.87,-2 2.18,-3.65 3.93,-4.93 1.75,-1.29 3.8,-2.18 6.16,-2.67 2.37,-0.49 5.21,-0.53 8.53,-0.12 2.92,0.37 5.39,1.04 7.4,2.03 2.48,1.2 4.42,2.73 5.8,4.57 1.06,1.39 1.8,3.18 2.21,5.37 0.31,1.64 0.3,3.77 -0.03,6.42l-1.68 13.44 -35.45 -4.4 0 0zm6.88 -6.44l23.47 2.92 0.67 -5.32c0.24,-2 0.31,-3.45 0.19,-4.35 -0.14,-1.21 -0.52,-2.23 -1.12,-3.07 -0.6,-0.86 -1.65,-1.62 -3.18,-2.3 -1.53,-0.67 -3.66,-1.18 -6.41,-1.52 -2.74,-0.35 -4.86,-0.37 -6.4,-0.06 -1.53,0.3 -2.74,0.83 -3.68,1.59 -0.92,0.76 -1.62,1.79 -2.08,3.1 -0.35,0.96 -0.71,2.9 -1.07,5.81l-0.39 3.2 0 0z"/>
   <path class="fil4" d="M69.38 303.42l2.46 6.37 -4.58 1.78c-1.85,0.71 -3.36,1.11 -4.55,1.2 -1.19,0.08 -2.38,-0.16 -3.57,-0.7 -1.2,-0.56 -2.31,-1.42 -3.31,-2.57l2.18 -2.28c0.92,1.12 1.86,1.8 2.82,2.06 0.98,0.25 2.09,0.14 3.36,-0.32l-1.19 -3.08 6.38 -2.46z"/>
  </g>
 </g>
</svg>
