<?xml version="1.0" encoding="UTF-8"?>
<!DOCTYPE svg PUBLIC "-//W3C//DTD SVG 1.1//EN" "http://www.w3.org/Graphics/SVG/1.1/DTD/svg11.dtd">
<!-- Creator: CorelDRAW 2017 -->
<svg xmlns="http://www.w3.org/2000/svg" xml:space="preserve" width="500px" height="500px" version="1.1" style="shape-rendering:geometricPrecision; text-rendering:geometricPrecision; image-rendering:optimizeQuality; fill-rule:evenodd; clip-rule:evenodd"
viewBox="0 0 500 500"
 xmlns:xlink="http://www.w3.org/1999/xlink">
 <defs>
  <style type="text/css">
   <![CDATA[
    .str0 {stroke:#D44A4A;stroke-width:20;stroke-miterlimit:22.9256}
    .fil2 {fill:#00A0E3}
    .fil1 {fill:#0082EF}
    .fil9 {fill:#009A00}
    .fil3 {fill:#2BBBDA}
    .fil7 {fill:#42DE00}
    .fil4 {fill:#49A14D}
    .fil6 {fill:#D44A4A}
    .fil8 {fill:#F02222}
    .fil5 {fill:#F20000}
    .fil0 {fill:white}
    .fil10 {fill:#2B2A29;fill-rule:nonzero}
   ]]>
  </style>
 </defs>
 <g id="Слой_x0020_1">
  <metadata id="CorelCorpID_0Corel-Layer"/>
  <circle class="fil0 str0" cx="250" cy="250" r="239.39"/>
 </g>
 <g id="Слой_x0020_1_0">
  <metadata id="CorelCorpID_1Corel-Layer"/>
  <g id="_1951644300880">
   <polygon class="fil1" points="142.51,316.88 171.26,238.81 275.67,239.7 257.93,317.48 "/>
   <polygon class="fil2" points="140.02,163.35 157.14,240.06 275.67,239.7 256.62,163.05 "/>
   <rect class="fil3" transform="matrix(-0.0841103 -0.141488 0.0816529 -0.141698 142.554 316.967)" width="543.75" height="543.75"/>
   <rect class="fil4" transform="matrix(-0.0799775 -0.141488 0.0776408 -0.141698 272.514 240.911)" width="543.75" height="543.75"/>
   <polygon class="fil5" points="273.4,392.79 313.22,315.48 402.96,315.77 361.03,392.3 "/>
   <polygon class="fil6" points="271.75,239.41 288.86,316.12 403.18,316.13 360.01,238.77 "/>
   <polygon class="fil7" points="271.75,240.7 314.13,163.88 402.12,163.4 359.96,240.36 "/>
   <rect class="fil8" transform="matrix(-0.0746915 -0.141488 0.0725093 -0.141698 274.008 392.936)" width="543.75" height="543.75" rx="5.09" ry="5.09"/>
   <polygon class="fil9" points="271.24,86.93 314.13,163.88 402.17,163.31 358.76,86.5 "/>
   <polygon class="fil6" points="103.78,316.16 234.28,316 274.68,392.79 103.78,393.13 "/>
   <path class="fil10" d="M118.68 381.8l0 -54.96 17.8 0c6.74,0 11.13,0.27 13.18,0.82 3.14,0.83 5.78,2.62 7.9,5.38 2.12,2.77 3.19,6.34 3.19,10.71 0,3.38 -0.62,6.21 -1.83,8.51 -1.23,2.3 -2.78,4.11 -4.66,5.42 -1.88,1.31 -3.8,2.18 -5.74,2.6 -2.65,0.53 -6.48,0.79 -11.49,0.79l-7.22 0 0 20.73 -11.13 0zm11.13 -45.67l0 15.66 6.05 0c4.37,0 7.27,-0.3 8.74,-0.87 1.47,-0.58 2.62,-1.47 3.46,-2.72 0.83,-1.22 1.25,-2.64 1.25,-4.28 0,-2.01 -0.59,-3.66 -1.75,-4.96 -1.18,-1.31 -2.65,-2.13 -4.46,-2.46 -1.31,-0.25 -3.96,-0.37 -7.95,-0.37l-5.34 0zm50.05 45.67l-10.52 0 0 -39.84 9.75 0 0 5.66c1.68,-2.68 3.19,-4.43 4.53,-5.26 1.34,-0.83 2.86,-1.24 4.57,-1.24 2.4,0 4.72,0.66 6.94,1.98l-3.26 9.19c-1.78,-1.16 -3.43,-1.73 -4.95,-1.73 -1.48,0 -2.74,0.41 -3.76,1.21 -1.03,0.82 -1.83,2.28 -2.42,4.4 -0.59,2.13 -0.88,6.58 -0.88,13.35l0 12.28zm17.36 -20.41c0,-3.5 0.86,-6.89 2.58,-10.17 1.73,-3.28 4.17,-5.78 7.33,-7.51 3.16,-1.72 6.68,-2.59 10.58,-2.59 6.03,0 10.95,1.95 14.8,5.87 3.85,3.93 5.77,8.86 5.77,14.85 0,6.04 -1.94,11.04 -5.82,15.01 -3.89,3.96 -8.77,5.95 -14.67,5.95 -3.65,0 -7.13,-0.84 -10.44,-2.49 -3.3,-1.65 -5.82,-4.06 -7.55,-7.26 -1.72,-3.19 -2.58,-7.08 -2.58,-11.66zm10.82 0.57c0,3.95 0.93,6.98 2.8,9.08 1.88,2.11 4.19,3.16 6.94,3.16 2.73,0 5.04,-1.05 6.89,-3.16 1.86,-2.1 2.79,-5.16 2.79,-9.16 0,-3.9 -0.93,-6.91 -2.79,-9.01 -1.85,-2.11 -4.16,-3.16 -6.89,-3.16 -2.75,0 -5.06,1.05 -6.94,3.16 -1.87,2.1 -2.8,5.13 -2.8,9.09z"/>
  </g>
 </g>
</svg>
