<?xml version="1.0" encoding="UTF-8"?>
<!DOCTYPE svg PUBLIC "-//W3C//DTD SVG 1.1//EN" "http://www.w3.org/Graphics/SVG/1.1/DTD/svg11.dtd">
<!-- Creator: CorelDRAW 2017 -->
<svg xmlns="http://www.w3.org/2000/svg" xml:space="preserve" width="500px" height="500px" version="1.1" style="shape-rendering:geometricPrecision; text-rendering:geometricPrecision; image-rendering:optimizeQuality; fill-rule:evenodd; clip-rule:evenodd"
viewBox="0 0 500 500"
 xmlns:xlink="http://www.w3.org/1999/xlink">
 <defs>
  <style type="text/css">
   <![CDATA[
    .fil1 {fill:#D50000}
    .fil0 {fill:#FF1744}
   ]]>
  </style>
 </defs>
 <g id="Слой_x0020_1">
  <metadata id="CorelCorpID_0Corel-Layer"/>
  <g id="_1918170702528">
   <path class="fil0" d="M366 431.42c-3.79,2.51 -6.57,5.09 -10.99,7.88 -3.74,2.35 -7.43,4.58 -11.49,6.55 -8.16,3.96 -16.79,7.27 -26.27,9.06 -44.17,8.31 -80.47,-13.74 -108.97,-49.86 -6.1,-7.73 -17.59,-26.1 -21.52,-35.64 -0.16,-1.89 -2.15,-4.28 -2.91,-5.92 -0.48,-1.05 -0.93,-1.96 -1.41,-3.06 -12.57,-28.99 -19.47,-61.49 -20.81,-94.37 -0.07,-1.7 -0.31,-2.28 -0.31,-4.42l-0.21 -14.3c0.32,-2.84 0.22,-11.85 0.78,-18.24 1.78,-20.71 1.94,-25.97 7.18,-49.12 3.06,-13.53 6.27,-22.44 10.97,-34.48l7.01 -15.37c0.63,-1.04 1.32,-1.94 1.58,-3.22 0.91,-2.12 2.22,-4.24 3.28,-6.32 10.94,-21.24 28.51,-42.43 46.07,-55.53 37.19,-27.74 78.74,-28.68 117.42,-4.1 1.73,1.1 3.69,2.54 5.37,3.75 1.84,1.31 3.32,2.62 5.23,3.89 -1.46,-2.87 -11.91,-10.97 -14.34,-12.99 -3.76,-3.13 -12.31,-9.14 -15.77,-11.25 -31.08,-18.96 -59.04,-26.57 -95.34,-25.23 -7.95,0.29 -21.99,2.93 -29.43,4.77 -11.44,2.84 -26.86,8.72 -37.69,14.92 -9.47,5.43 -15.54,9.41 -24.16,16.05 -7.71,5.93 -12.32,10.46 -19.32,17.2 -0.93,0.9 -1.33,1.59 -2.23,2.43 -1.55,1.47 -2.96,3.18 -4.42,4.9l-4.21 4.79c-7.8,9.6 -13.09,16.71 -19.54,27.27 -4.16,6.83 -6.41,11.43 -10.07,18.25 -0.62,1.15 -0.96,2.06 -1.55,3.27 -0.57,1.2 -0.99,2.09 -1.52,3.29 -4.9,11.02 -9.98,23.11 -13.2,35.07 -4.89,18.22 -9.56,39.52 -10.31,58.92 -0.24,6.19 -0.62,7.37 -0.6,14.77 0.01,2.28 -0.3,2.91 -0.33,4.79 -0.02,2 0.32,2.34 0.34,4.42 0.31,30.54 5.03,56.39 14.18,84.8 0.47,1.47 0.81,2.18 1.29,3.58 2.5,7.4 7.97,20.07 11.35,27 0.57,1.17 1.14,2.06 1.66,3.13 0.58,1.19 0.99,1.93 1.64,3.15 3.95,7.41 12.98,22.84 17.96,28.85l16.82 20.28c8.09,8.42 12.69,12.45 21.51,19.67 4.7,3.85 9.06,6.37 13.27,9.53 3.52,2.63 7.32,4.44 11.04,6.71l11.67 5.95c31.35,13.86 67.3,18.23 101.2,9.96 6.27,-1.53 13.94,-3.66 19.97,-6.08 8.95,-3.59 15.53,-6.59 24.02,-11.43 5.98,-3.41 10.83,-7.09 16.41,-10.82 1.06,-0.71 1.45,-1.03 2.41,-1.83 0.96,-0.79 1.72,-1.27 2.59,-1.99 2.28,-1.86 13.26,-10.47 14.7,-13.28z"/>
   <path class="fil1" d="M188.63 126.91l6.61 -10.7c2.18,-3.45 4.78,-6.8 7.28,-9.87l5.5 -6.16c2.01,-1.92 3.66,-3.72 5.77,-5.45 2.07,-1.71 4.03,-3.31 6.27,-4.84 4.67,-3.21 9.04,-5.38 14.69,-7.4 14.72,-5.26 30,-1.96 42.62,5.79 7.02,4.31 18.4,14.49 23.25,21.97l4.69 6.78c7.14,10.76 10.78,18.97 15.78,31.16 0.63,1.55 0.96,2.77 1.6,4.31l3.06 8.79c5.47,17.74 9.67,36.72 11.42,55.71 0.34,3.72 0.82,7.57 0.92,11.41 0.18,6.78 1.25,17.6 0.65,24.05 -0.32,3.39 -0.15,12.87 -0.6,18.09 -0.18,2.09 -0.25,3.88 -0.36,5.83 -0.7,12.84 -3.84,30.36 -6.59,42.46 -1.62,7.14 -5.55,20.92 -8.2,27.93 -3.31,8.73 -6.49,16.71 -10.83,24.7l-6.44 10.9c-0.78,1.2 -1.53,2.2 -2.31,3.43 -0.91,1.43 -1.56,1.98 -2.41,3.32 -0.89,1.42 -1.45,2.04 -2.45,3.26l-4.02 4.65c-0.57,0.57 -0.83,0.99 -1.37,1.63l-5.72 5.52c-1.11,0.91 -1.93,1.74 -3,2.58 -1.12,0.86 -2.04,1.49 -3.2,2.35 -14.96,11.07 -32.97,14.17 -49.95,7.13 -7.26,-3.01 -13.92,-7.67 -19.84,-13.24l-5.75 -5.86c-2.38,-2.33 -6.49,-8.08 -8.75,-11.38l-5.7 -8.86c-1.11,-1.83 -3.24,-6.54 -4.49,-7.49 3.93,9.54 15.42,27.91 21.52,35.64 28.5,36.12 64.8,58.17 108.97,49.86 9.48,-1.79 18.11,-5.1 26.27,-9.06 4.06,-1.97 7.75,-4.2 11.49,-6.55 4.42,-2.79 7.2,-5.37 10.99,-7.88 2.18,-0.07 17.41,-18.13 18.18,-19.35 1.09,-1.74 2.12,-2.86 3.35,-4.37 3.79,-4.62 12.53,-18.17 15.38,-23.16l8.2 -15.39c0.89,-1.96 1.64,-3.46 2.5,-5.41l8.01 -19.3c6.85,-17.4 12.46,-43.27 14.52,-62.62l1.28 -15.39c0.01,-2.71 0.31,-4.93 0.31,-8.12 -0.02,-3.21 0.3,-4.9 0.3,-8.12l-1.83 -31.34c-1.56,-17.18 -6.19,-37.98 -11.29,-53.66 -0.68,-2.08 -1.22,-4.04 -1.99,-6.04 -3.81,-9.99 -4.72,-12.55 -9.1,-22.4l-5.14 -10.65c-0.98,-1.77 -1.74,-3.38 -2.71,-5.17 -2.77,-5.12 -8.75,-15.12 -11.84,-19.39l-6.44 -9.05c-1.22,-1.47 -2.38,-2.72 -3.38,-4.33 -0.51,-0.81 -0.92,-1.39 -1.57,-2.13l-15.67 -16.94c-1.38,-1.1 -0.28,-0.47 -1.07,-0.49 -1.91,-1.27 -3.39,-2.58 -5.23,-3.89 -1.68,-1.21 -3.64,-2.65 -5.37,-3.75 -38.68,-24.58 -80.23,-23.64 -117.42,4.1 -17.56,13.1 -35.13,34.29 -46.07,55.53 -1.06,2.08 -2.37,4.2 -3.28,6.32z"/>
  </g>
 </g>
</svg>
