<?xml version="1.0" encoding="UTF-8"?>
<!DOCTYPE svg PUBLIC "-//W3C//DTD SVG 1.1//EN" "http://www.w3.org/Graphics/SVG/1.1/DTD/svg11.dtd">
<!-- Creator: CorelDRAW 2017 -->
<svg xmlns="http://www.w3.org/2000/svg" xml:space="preserve" width="500px" height="500px" version="1.1" style="shape-rendering:geometricPrecision; text-rendering:geometricPrecision; image-rendering:optimizeQuality; fill-rule:evenodd; clip-rule:evenodd"
viewBox="0 0 500 500"
 xmlns:xlink="http://www.w3.org/1999/xlink">
 <defs>
  <style type="text/css">
   <![CDATA[
    .str3 {stroke:#1745D1;stroke-width:10;stroke-miterlimit:22.9256}
    .str1 {stroke:#0F7699;stroke-width:4;stroke-miterlimit:22.9256}
    .str0 {stroke:#0F7699;stroke-width:25;stroke-miterlimit:22.9256}
    .str2 {stroke:black;stroke-width:2.36;stroke-miterlimit:22.9256}
    .fil2 {fill:none;fill-rule:nonzero}
    .fil4 {fill:#1745D1}
    .fil3 {fill:#E6E6E6}
    .fil5 {fill:#EB3232}
    .fil1 {fill:#E6E6E6;fill-rule:nonzero}
    .fil0 {fill:url(#id0)}
   ]]>
  </style>
  <linearGradient id="id0" gradientUnits="userSpaceOnUse" x1="430.42" y1="382.17" x2="56.83" y2="119.83">
   <stop offset="0" style="stop-opacity:1; stop-color:#F77474"/>
   <stop offset="0.129412" style="stop-opacity:1; stop-color:#F5AC82"/>
   <stop offset="0.25098" style="stop-opacity:1; stop-color:yellow"/>
   <stop offset="0.368627" style="stop-opacity:1; stop-color:#5EF25E"/>
   <stop offset="0.490196" style="stop-opacity:1; stop-color:#7474F2"/>
   <stop offset="0.619608" style="stop-opacity:1; stop-color:#C77BF2"/>
   <stop offset="0.74902" style="stop-opacity:1; stop-color:#F77474"/>
   <stop offset="0.870588" style="stop-opacity:1; stop-color:#F5AC82"/>
   <stop offset="1" style="stop-opacity:1; stop-color:yellow"/>
  </linearGradient>
 </defs>
 <g id="Слой_x0020_1">
  <metadata id="CorelCorpID_0Corel-Layer"/>
  <path class="fil0 str0" d="M384.55 65.62c101.83,74.31 124.14,217.1 49.83,318.93 -74.31,101.83 -217.1,124.14 -318.93,49.83 -101.83,-74.31 -124.14,-217.1 -49.83,-318.92 74.31,-101.83 217.1,-124.15 318.93,-49.84z"/>
  <path class="fil1" d="M99.27 365.16l-14.17 -22.17c-2.37,-3.7 -3.25,-6.91 -2.65,-9.65 0.6,-2.74 2.75,-5.29 6.43,-7.65l5.28 -3.37c3.69,-2.36 6.9,-3.24 9.64,-2.64 2.74,0.61 5.29,2.76 7.66,6.45l8.1 12.66 10.55 -6.75 6.08 9.51 -36.92 23.61zm-4.31 -29.96c-2.11,1.34 -2.49,3.08 -1.14,5.18l6.75 10.56 11.61 -7.43 -6.75 -10.55c-1.34,-2.12 -3.08,-2.49 -5.19,-1.15l-5.28 3.39z"/>
  <path id="1" class="fil1" d="M113.13 298.9l3.42 11.71 -46.71 -3.64 -3.52 -12.03 37.4 -28.22 3.43 11.72 -6.7 4.91 4.38 15.03 8.3 0.52zm-16.87 -0.95l-2.81 -9.63 -12.72 8.94 15.53 0.69z"/>
  <path id="2" class="fil1" d="M94.15 228.44c4.01,0.09 6.94,1.11 8.78,3.08 1.85,1.97 2.72,4.99 2.63,9.08 -0.06,2.51 -0.13,5.21 -0.2,8.14 -0.06,2.92 -0.13,5.64 -0.19,8.13 -0.07,2.93 -0.4,5.84 -1,8.75l-7.97 -0.18c0.06,-2.85 0.13,-5.62 0.19,-8.33 0.06,-2.34 0.11,-4.79 0.17,-7.36 0.06,-2.56 0.12,-4.85 0.16,-6.85 0.03,-0.96 -0.23,-1.73 -0.75,-2.3 -0.52,-0.58 -1.24,-0.88 -2.16,-0.91l-2.39 -0.04c-2.4,-0.06 -3.61,1.16 -3.68,3.66l-0.35 15.03 -8.77 -0.21 0.32 -13.77c0.06,-2.5 -1.17,-3.79 -3.67,-3.84l-1.26 -0.03c-2.5,-0.06 -3.78,1.16 -3.84,3.67l-0.46 20.03 -8.78 -0.21 0.54 -23.16c0.09,-4.09 1.09,-7.07 3,-8.95 1.9,-1.87 4.76,-2.76 8.56,-2.68 2.5,0.06 4.53,0.68 6.07,1.86 1.54,1.19 2.6,2.72 3.19,4.62 0.26,-0.91 0.67,-1.82 1.22,-2.73 0.56,-0.9 1.29,-1.69 2.21,-2.35 0.93,-0.68 2.03,-1.21 3.33,-1.62 1.31,-0.41 2.8,-0.59 4.48,-0.56l0.62 0.03z"/>
  <polygon id="3" class="fil1" points="118.96,186.87 115.04,197.44 98.27,191.21 92.81,205.88 109.58,212.11 105.65,222.68 64.53,207.4 68.46,196.83 84.61,202.83 90.07,188.15 73.92,182.15 77.84,171.59 "/>
  <path id="4" class="fil1" d="M105.63 152.01l9.09 -11.17c2.77,-3.4 5.55,-5.24 8.33,-5.53 2.8,-0.28 5.89,0.96 9.29,3.72l2.91 2.38c3.4,2.76 5.24,5.54 5.53,8.34 0.28,2.78 -0.96,5.87 -3.74,9.28l-16.21 19.91 -34.02 -27.71 7.12 -8.75 11.7 9.53zm49.61 -15.33l-7.12 8.75 -34 -27.68 7.12 -8.75 34 27.68zm-30.01 11.1c-1.93,-1.58 -3.7,-1.39 -5.28,0.55l-7.51 9.23 8.7 7.09 7.51 -9.23c1.58,-1.94 1.41,-3.7 -0.52,-5.27l-2.9 -2.37z"/>
  <polygon id="5" class="fil1" points="193.16,116.39 162.32,132.43 142.08,93.49 172.92,77.45 176.96,85.24 156.12,96.08 160.04,103.61 176.43,95.09 180.48,102.88 164.09,111.4 168.27,119.44 189.11,108.6 "/>
  <path id="6" class="fil1" d="M208.86 65.5l25.98 -4.13c4.32,-0.69 7.62,-0.21 9.89,1.44 2.28,1.63 3.75,4.62 4.44,8.94l0.98 6.19c0.69,4.32 0.21,7.62 -1.44,9.89 -1.65,2.27 -4.63,3.74 -8.97,4.43l-14.84 2.36 1.97 12.38 -11.13 1.77 -6.88 -43.27zm29.18 8.03c-0.4,-2.48 -1.83,-3.51 -4.31,-3.12l-12.36 1.97 2.16 13.59 12.37 -1.97c2.47,-0.38 3.51,-1.82 3.12,-4.29l-0.98 -6.18z"/>
  <polygon id="7" class="fil1" points="297.58,111.69 286.51,109.51 291.63,83.47 271.76,106.61 260.08,104.3 268.55,61.26 279.61,63.43 274.36,90.14 294.36,66.34 306.04,68.64 "/>
  <polygon id="8" class="fil1" points="338.05,133.29 328.21,127.82 336.9,112.22 323.23,104.6 314.53,120.2 304.69,114.71 326.05,76.37 335.9,81.86 327.49,96.95 341.16,104.58 349.57,89.48 359.42,94.95 "/>
  <polygon id="9" class="fil1" points="351.77,146.5 344.07,138.25 376.1,108.34 399.4,133.29 393.01,139.26 377.42,122.55 "/>
  <polygon id="10" class="fil1" points="379.86,185.81 374.66,175.81 405.78,159.64 399.72,147.97 407.51,143.92 424.84,177.27 417.05,181.32 410.98,169.65 "/>
  <path id="11" class="fil1" d="M425.01 222.73c2.45,-0.51 3.43,-1.99 2.92,-4.45l-2.15 -10.41c-0.51,-2.46 -1.98,-3.44 -4.43,-2.93l-19.61 4.04c-2.45,0.5 -3.43,1.98 -2.92,4.44l2.15 10.41c0.5,2.46 1.98,3.44 4.43,2.93l19.61 -4.03zm-17.34 15.07c-4.29,0.88 -7.61,0.55 -9.95,-0.99 -2.34,-1.54 -3.96,-4.45 -4.84,-8.75l-3.16 -15.33c-0.88,-4.29 -0.55,-7.61 0.99,-9.95 1.54,-2.35 4.46,-3.95 8.75,-4.84l19.62 -4.04c4.29,-0.88 7.61,-0.55 9.95,0.99 2.34,1.54 3.95,4.46 4.84,8.75l3.16 15.33c0.87,4.29 0.55,7.61 -0.99,9.95 -1.54,2.35 -4.46,3.96 -8.76,4.84l-19.61 4.04z"/>
  <polygon id="12" class="fil1" points="391.95,284.73 393.36,273.54 411.09,275.76 413.03,260.22 395.3,258 396.7,246.81 440.25,252.25 438.85,263.45 421.74,261.31 419.8,276.85 436.91,278.99 435.5,290.17 "/>
  <path id="13" class="fil1" d="M411.43 316.98l-7.01 12.57c-2.13,3.83 -4.56,6.13 -7.25,6.9 -2.7,0.76 -5.96,0.08 -9.8,-2.07l-3.28 -1.83c-3.84,-2.13 -6.13,-4.54 -6.9,-7.25 -0.77,-2.69 -0.09,-5.96 2.05,-9.78l12.49 -22.43 38.34 21.37 -5.49 9.85 -13.15 -7.33zm-46.21 23.69l5.47 -9.84 38.34 21.36 -5.47 9.85 -38.34 -21.37zm27.64 -16.12c2.21,1.22 3.92,0.74 5.13,-1.45l5.79 -10.39 -9.89 -5.51 -5.8 10.39c-1.21,2.18 -0.72,3.9 1.47,5.12l3.3 1.84z"/>
  <path id="14" class="fil2 str1" d="M99.27 365.16l-14.17 -22.17c-2.37,-3.7 -3.25,-6.91 -2.65,-9.65 0.6,-2.74 2.75,-5.29 6.43,-7.65l5.28 -3.37c3.69,-2.36 6.9,-3.24 9.64,-2.64 2.74,0.61 5.29,2.76 7.66,6.45l8.1 12.66 10.55 -6.75 6.08 9.51 -36.92 23.61zm-4.31 -29.96c-2.11,1.34 -2.49,3.08 -1.14,5.18l6.75 10.56 11.61 -7.43 -6.75 -10.55c-1.34,-2.12 -3.08,-2.49 -5.19,-1.15l-5.28 3.39z"/>
  <path id="15" class="fil2 str1" d="M113.13 298.9l3.42 11.71 -46.71 -3.64 -3.52 -12.03 37.4 -28.22 3.43 11.72 -6.7 4.91 4.38 15.03 8.3 0.52zm-16.87 -0.95l-2.81 -9.63 -12.72 8.94 15.53 0.69z"/>
  <path id="16" class="fil2 str1" d="M94.15 228.44c4.01,0.09 6.94,1.11 8.78,3.08 1.85,1.97 2.72,4.99 2.63,9.08 -0.06,2.51 -0.13,5.21 -0.2,8.14 -0.06,2.92 -0.13,5.64 -0.19,8.13 -0.07,2.93 -0.4,5.84 -1,8.75l-7.97 -0.18c0.06,-2.85 0.13,-5.62 0.19,-8.33 0.06,-2.34 0.11,-4.79 0.17,-7.36 0.06,-2.56 0.12,-4.85 0.16,-6.85 0.03,-0.96 -0.23,-1.73 -0.75,-2.3 -0.52,-0.58 -1.24,-0.88 -2.16,-0.91l-2.39 -0.04c-2.4,-0.06 -3.61,1.16 -3.68,3.66l-0.35 15.03 -8.77 -0.21 0.32 -13.77c0.06,-2.5 -1.17,-3.79 -3.67,-3.84l-1.26 -0.03c-2.5,-0.06 -3.78,1.16 -3.84,3.67l-0.46 20.03 -8.78 -0.21 0.54 -23.16c0.09,-4.09 1.09,-7.07 3,-8.95 1.9,-1.87 4.76,-2.76 8.56,-2.68 2.5,0.06 4.53,0.68 6.07,1.86 1.54,1.19 2.6,2.72 3.19,4.62 0.26,-0.91 0.67,-1.82 1.22,-2.73 0.56,-0.9 1.29,-1.69 2.21,-2.35 0.93,-0.68 2.03,-1.21 3.33,-1.62 1.31,-0.41 2.8,-0.59 4.48,-0.56l0.62 0.03z"/>
  <polygon id="17" class="fil2 str1" points="118.96,186.87 115.04,197.44 98.27,191.21 92.81,205.88 109.58,212.11 105.65,222.68 64.53,207.4 68.46,196.83 84.61,202.83 90.07,188.15 73.92,182.15 77.84,171.59 "/>
  <path id="18" class="fil2 str1" d="M105.63 152.01l9.09 -11.17c2.77,-3.4 5.55,-5.24 8.33,-5.53 2.8,-0.28 5.89,0.96 9.29,3.72l2.91 2.38c3.4,2.76 5.24,5.54 5.53,8.34 0.28,2.78 -0.96,5.87 -3.74,9.28l-16.21 19.91 -34.02 -27.71 7.12 -8.75 11.7 9.53zm49.61 -15.33l-7.12 8.75 -34 -27.68 7.12 -8.75 34 27.68zm-30.01 11.1c-1.93,-1.58 -3.7,-1.39 -5.28,0.55l-7.51 9.23 8.7 7.09 7.51 -9.23c1.58,-1.94 1.41,-3.7 -0.52,-5.27l-2.9 -2.37z"/>
  <polygon id="19" class="fil2 str1" points="193.16,116.39 162.32,132.43 142.08,93.49 172.92,77.45 176.96,85.24 156.12,96.08 160.04,103.61 176.43,95.09 180.48,102.88 164.09,111.4 168.27,119.44 189.11,108.6 "/>
  <path id="20" class="fil2 str1" d="M208.86 65.5l25.98 -4.13c4.32,-0.69 7.62,-0.21 9.89,1.44 2.28,1.63 3.75,4.62 4.44,8.94l0.98 6.19c0.69,4.32 0.21,7.62 -1.44,9.89 -1.65,2.27 -4.63,3.74 -8.97,4.43l-14.84 2.36 1.97 12.38 -11.13 1.77 -6.88 -43.27zm29.18 8.03c-0.4,-2.48 -1.83,-3.51 -4.31,-3.12l-12.36 1.97 2.16 13.59 12.37 -1.97c2.47,-0.38 3.51,-1.82 3.12,-4.29l-0.98 -6.18z"/>
  <polygon id="21" class="fil2 str1" points="297.58,111.69 286.51,109.51 291.63,83.47 271.76,106.61 260.08,104.3 268.55,61.26 279.61,63.43 274.36,90.14 294.36,66.34 306.04,68.64 "/>
  <polygon id="22" class="fil2 str1" points="338.05,133.29 328.21,127.82 336.9,112.22 323.23,104.6 314.53,120.2 304.69,114.71 326.05,76.37 335.9,81.86 327.49,96.95 341.16,104.58 349.57,89.48 359.42,94.95 "/>
  <polygon id="23" class="fil2 str1" points="351.77,146.5 344.07,138.25 376.1,108.34 399.4,133.29 393.01,139.26 377.42,122.55 "/>
  <polygon id="24" class="fil2 str1" points="379.86,185.81 374.66,175.81 405.78,159.64 399.72,147.97 407.51,143.92 424.84,177.27 417.05,181.32 410.98,169.65 "/>
  <path id="25" class="fil2 str1" d="M425.01 222.73c2.45,-0.51 3.43,-1.99 2.92,-4.45l-2.15 -10.41c-0.51,-2.46 -1.98,-3.44 -4.43,-2.93l-19.61 4.04c-2.45,0.5 -3.43,1.98 -2.92,4.44l2.15 10.41c0.5,2.46 1.98,3.44 4.43,2.93l19.61 -4.03zm-17.34 15.07c-4.29,0.88 -7.61,0.55 -9.95,-0.99 -2.34,-1.54 -3.96,-4.45 -4.84,-8.75l-3.16 -15.33c-0.88,-4.29 -0.55,-7.61 0.99,-9.95 1.54,-2.35 4.46,-3.95 8.75,-4.84l19.62 -4.04c4.29,-0.88 7.61,-0.55 9.95,0.99 2.34,1.54 3.95,4.46 4.84,8.75l3.16 15.33c0.87,4.29 0.55,7.61 -0.99,9.95 -1.54,2.35 -4.46,3.96 -8.76,4.84l-19.61 4.04z"/>
  <polygon id="26" class="fil2 str1" points="391.95,284.73 393.36,273.54 411.09,275.76 413.03,260.22 395.3,258 396.7,246.81 440.25,252.25 438.85,263.45 421.74,261.31 419.8,276.85 436.91,278.99 435.5,290.17 "/>
  <path id="27" class="fil2 str1" d="M411.43 316.98l-7.01 12.57c-2.13,3.83 -4.56,6.13 -7.25,6.9 -2.7,0.76 -5.96,0.08 -9.8,-2.07l-3.28 -1.83c-3.84,-2.13 -6.13,-4.54 -6.9,-7.25 -0.77,-2.69 -0.09,-5.96 2.05,-9.78l12.49 -22.43 38.34 21.37 -5.49 9.85 -13.15 -7.33zm-46.21 23.69l5.47 -9.84 38.34 21.36 -5.47 9.85 -38.34 -21.37zm27.64 -16.12c2.21,1.22 3.92,0.74 5.13,-1.45l5.79 -10.39 -9.89 -5.51 -5.8 10.39c-1.21,2.18 -0.72,3.9 1.47,5.12l3.3 1.84z"/>
  <ellipse class="fil3 str2" cx="250.55" cy="340.1" rx="18.84" ry="19.95"/>
  <path class="fil4 str3" d="M198.67 138l102.66 0c5.18,0 9.42,4.08 9.42,9.07l0 205.86c0,4.99 -4.24,9.07 -9.42,9.07l-102.66 0c-5.18,0 -9.42,-4.08 -9.42,-9.07l0 -205.86c0,-4.99 4.24,-9.07 9.42,-9.07zm8.19 14.06l86.28 0c4.35,0 7.91,3.42 7.91,7.62l0 149.81c0,4.19 -3.56,7.62 -7.91,7.62l-86.28 0c-4.35,0 -7.91,-3.43 -7.91,-7.62l0 -149.81c0,-4.2 3.56,-7.62 7.91,-7.62zm43.14 166.86c11.7,0 21.19,9.14 21.19,20.41 0,11.27 -9.49,20.4 -21.19,20.4 -11.7,0 -21.19,-9.13 -21.19,-20.4 0,-11.27 9.49,-20.41 21.19,-20.41z"/>
  <rect class="fil3" x="194.74" y="141.71" width="109.26" height="170.49" rx="7.53" ry="7.25"/>
  <g>
   <path class="fil5" d="M273.86 258.22l-19.75 -0.04 0.18 -0.09 0.28 -0.1 0.36 -0.18 0.19 -0.09 0.27 -0.18 0.28 -0.09 0.18 -0.05 0.09 -0.23 0.41 -0.23 0.14 -0.23 0.55 -0.04 0 -0.19 0.18 -0.04 0.19 -0.09 0.27 -0.19 0.23 -0.13 0.09 -0.19 0.14 -0.23 0.46 -0.27 0.18 -0.05 0 -0.27 1.51 -1.19 0.09 -0.18 0.1 -0.19 0.04 -0.18 0.23 -0.09 0.37 -0.64 0.18 -0.28 0.09 -0.18 0.19 -0.37 0.09 -0.27 0.09 -0.19 0.09 -0.18 0.09 -0.18 0.18 -0.28 0.1 -0.18 0.18 -0.28 0.09 -0.27 0.18 -0.37 0.1 -0.18 0.09 -0.18 0.18 -0.46 0.09 -0.18 0.09 -0.37 0.09 -0.28 0.1 -0.27 0.09 -0.18 0.09 -0.37 0.09 -0.28 0.19 -0.27 0.09 -0.46 0.09 -0.27 0.09 -0.19 0.09 -0.36 0.09 -0.37 0.09 -0.37 0.05 -0.73 0.18 0 0.05 -0.55 0.14 -0.68 9.03 -0.05 0 15.75zm-25.34 -15.84l10.31 0.18 0 2.75 -0.09 0.91 -0.09 0.55 -0.1 0.55 -0.09 0.28 -0.09 0.27 -0.09 0.19 -0.09 0.64 -0.1 0.37 -0.18 0.36 -0.04 0.37 -0.19 0 -0.04 0.27 -0.1 0.28 -0.09 0.27 -0.09 0.19 -0.18 0.36 -0.18 0.28 -0.19 0.27 -0.18 0.28 -0.18 0.27 -0.46 0.55 -0.87 0.96 -0.46 0.37 -0.28 0.18 -0.27 0.19 -0.27 0.18 -0.19 0.09 -0.27 0.18 -0.19 0.1 -0.18 0.09 -0.27 0.18 -0.37 0.18 -0.27 0.09 -0.19 0.1 -0.18 0.09 -0.19 0.09 -0.4 -0.14 -0.1 -0.18 -0.09 -0.37 -0.09 -0.82 -0.09 -0.46 -0.09 -0.64 -0.1 -0.46 -0.09 -0.37 -0.09 -0.54 -0.09 -0.56 -0.09 -0.27 -0.09 -0.55 -0.09 -0.55 -0.1 -0.55 -0.09 -0.46 -0.09 -0.27 -0.09 -0.46 -0.09 -0.64 -0.09 -0.46 -0.1 -0.37 -0.09 -0.55 -0.09 -0.55 -0.09 -0.27 -0.09 -0.46 -0.09 -0.36 -0.1 -0.37 -0.09 -0.37 -0.09 -0.27 -0.09 -0.46 -0.05 -0.73zm-26.37 0.09l3.75 -0.05 2.75 -0.04 0.05 0.18 0.09 0.64 0.18 0.64 0.09 0.19 0.09 0.45 0.09 0.19 0.1 0.18 0.09 0.28 0.09 0.18 0.09 0.36 0.09 0.19 0.28 0.46 0.09 0.18 0.09 0.27 0.09 0.19 0.09 0.18 0.19 0.28 0.09 0.18 0.18 0.27 0.19 0.28 0.09 0.27 0.27 0.37 0.09 0.18 0.19 0.28 0.18 0.27 0.18 0.28 0.19 0.27 0.18 0.28 0.27 0.36 0.37 0.46 1.51 1.61 0.28 0.18 0.36 0.27 0.19 0.1 0.27 0.18 0.18 0.09 0.28 0.18 0.27 0.19 0.28 0.18 1 0.92 0.37 0.27 0.18 0.09 1.1 0 0.28 -0.09 0.32 -0.14 0.04 -0.18 0.19 0 0.04 -0.37 0 -1 -0.18 -0.46 -0.18 -0.28 -1.47 -1.56 -0.46 -0.54 -0.45 -0.55 -0.28 -0.37 -0.27 -0.37 -0.28 -0.36 -0.09 -0.19 -0.18 -0.27 -0.19 -0.28 -0.09 -0.18 -0.09 -0.18 -0.18 -0.28 -0.09 -0.27 -0.09 -0.19 -0.1 -0.36 -0.09 -0.28 -0.09 -0.27 -0.09 -0.46 -0.09 -0.46 -0.09 -1.1 0 -1.19 0.09 -0.36 0.23 -0.42 4.48 0 4.99 0.14 0.1 0.55 0.09 0.37 0.09 0.36 0.09 0.46 0.09 0.55 0.09 0.55 0.1 0.27 0.09 0.55 0.09 0.55 0.09 0.28 0.09 0.55 0.09 0.55 0.1 0.37 0.09 0.55 0.09 0.45 0.09 0.28 0.09 0.55 0.09 0.64 0.1 0.46 0.09 0.36 0.09 0.37 0.09 0.55 0.09 0.37 0.09 0.45 0.1 0.55 0.09 0.55 0.09 0.55 0.09 0.28 0.09 0.55 0.05 1.1 -0.55 0.04 -0.46 0.09 -0.46 0.1 -0.27 0.09 -0.37 0.09 -0.18 0.09 -0.55 0.09 -0.28 0.09 -0.36 0.09 -0.83 0.09 -0.46 0.1 -5.49 0 -0.92 -0.1 -0.64 -0.09 -0.55 -0.09 -0.18 -0.09 -0.37 -0.09 -0.27 -0.09 -0.37 -0.09 -0.27 -0.09 -0.18 -0.1 -0.28 -0.09 -0.27 -0.09 -0.28 -0.09 -0.18 -0.09 -0.19 -0.09 -0.18 -0.1 -0.27 -0.09 -0.19 -0.09 -0.18 -0.09 -0.18 -0.09 -0.28 -0.19 -0.18 -0.09 -0.19 -0.09 -0.27 -0.18 -0.27 -0.19 -0.28 -0.18 -0.46 -0.36 -0.73 -0.65 -0.87 -0.77 -0.64 -0.74 -0.37 -0.46 -0.36 -0.45 -0.19 -0.28 -0.27 -0.37 -0.19 -0.27 -0.18 -0.27 -0.18 -0.28 -0.18 -0.27 -0.1 -0.19 -0.18 -0.27 -0.09 -0.19 -0.09 -0.18 -0.18 -0.27 -0.1 -0.19 -0.09 -0.18 -0.09 -0.18 -0.09 -0.19 -0.09 -0.18 -0.09 -0.18 -0.1 -0.19 -0.18 -0.36 -0.09 -0.28 -0.09 -0.18 -0.1 -0.28 -0.09 -0.18 -0.09 -0.18 -0.09 -0.19 -0.09 -0.27 -0.09 -0.18 -0.09 -0.37 -0.09 -0.18 -0.1 -0.19 -0.09 -0.36 -0.09 -0.19 -0.09 -0.27 -0.09 -0.46 -0.09 -0.18 -0.1 -0.64 -0.04 -0.46zm13.74 -4.03l0.13 -0.18 0.09 -0.19 0.1 -0.18 0.18 -0.28 0.09 -0.18 0.28 -0.37 0.36 -0.45 0.73 -0.83 0.05 -0.18 0.23 -0.09 0.04 -0.19 0.24 -0.09 0.04 -0.18 0.82 -0.69 0.46 -0.36 0.37 -0.28 0.36 -0.27 0.28 -0.19 0.18 -0.09 0.28 -0.09 0.27 -0.09 0.28 -0.09 0.27 -0.19 0.18 -0.09 0.19 -0.09 0.36 -0.05 0.05 0.28 0.09 0.37 0.09 0.27 0.09 0.46 0.1 0.55 0.09 0.36 0.09 0.28 0.09 0.55 0.09 0.27 0.09 0.37 0.1 0.46 0.09 0.36 0.09 0.28 0.09 0.27 0.09 0.37 0.09 0.37 0.1 0.36 0.04 0.83 -8.38 -0.09 -0.04 -1.01zm10.44 -7.15l2.47 0.05 0.46 0.09 0.36 0.09 0.55 0.09 0.28 0.1 0.27 0.09 0.28 0.09 0.27 0.09 0.27 0.09 0.28 0.09 0.18 0.1 0.19 0.09 0.18 0.09 0.18 0.09 0.19 0.09 0.18 0.09 0.27 0.19 0.28 0.18 0.18 0.09 0.37 0.28 0.36 0.27 0.83 0.73 0.18 0.05 0.78 0.91 0.28 0.37 0.27 0.37 0.18 0.27 0.19 0.28 0.09 0.18 0.18 0.28 0.09 0.18 0.19 0.27 0.09 0.19 0.09 0.18 0.09 0.18 0.09 0.19 0.09 0.27 0.1 0.18 0.09 0.28 0.04 0.46 -10.53 0 -0.04 -0.92 -0.1 -0.73 -0.09 -0.55 -0.09 -0.18 -0.09 -0.46 -0.09 -0.55 -0.09 -0.19 -0.09 -0.36 -0.1 -0.55 -0.09 -0.28 -0.09 -0.36 -0.09 -0.64 -0.09 -0.37 -0.09 -0.37 -0.1 -0.45 -0.09 -0.56 -0.04 -0.73zm27.53 8.06l-8.94 0 -0.05 -2.1 -0.09 -0.55 -0.09 -0.92 -0.09 -0.18 -0.09 -0.28 -0.1 -0.27 -0.09 -0.46 -0.09 -0.36 -0.09 -0.28 -0.09 -0.28 -0.09 -0.18 -0.19 -0.46 -0.09 -0.18 -0.09 -0.18 -0.09 -0.28 -0.09 -0.27 -0.1 -0.19 -0.09 -0.18 -0.09 -0.18 -0.09 -0.19 -0.05 -0.18 -0.18 0 -0.04 -0.27 -0.1 -0.19 -0.18 -0.27 -0.09 -0.18 -0.28 -0.37 -0.09 -0.18 -0.18 -0.28 -0.05 -0.18 -0.18 0 -0.04 -0.19 -0.28 -0.36 -0.27 -0.37 -0.05 -0.18 -0.19 0 -0.41 -0.55 -0.04 -0.18 -0.18 0 -0.1 -0.23 -0.18 -0.05 -0.18 -0.32 -0.92 -0.82 -0.18 -0.1 -0.64 -0.54 -0.19 -0.1 -0.18 -0.09 -0.18 -0.04 0 -0.19 -0.37 -0.23 -0.27 -0.04 -0.09 -0.23 -0.28 -0.18 -0.55 -0.37 18.01 -0.05 0 15.48zm-36.78 -15.29l-0.19 0.04 -0.18 0.1 -0.18 0.09 -0.28 0.09 -0.27 0.18 -0.37 0.18 -0.18 0.1 -0.19 0.09 -0.27 0.18 -0.27 0.18 -0.28 0.19 -0.37 0.27 -0.54 0.46 -1.06 0.96 -0.46 0.55 -0.27 0.37 -0.28 0.36 -0.18 0.28 -0.09 0.18 -0.18 0.28 -0.1 0.18 -0.09 0.18 -0.09 0.19 -0.09 0.18 -0.09 0.18 -0.19 0.28 -0.09 0.27 -0.09 0.18 -0.09 0.19 -0.09 0.27 -0.09 0.19 -0.09 0.27 -0.1 0.27 -0.09 0.28 -0.09 0.37 -0.09 0.18 -0.09 0.46 -0.1 0.36 -0.09 0.28 -0.09 0.55 -0.09 0.46 -0.09 0.55 -0.09 0.45 -0.09 0.74 -0.09 1.65 -0.05 0.91 -0.18 0.05 -0.28 0.09 -0.28 0.09 -6.27 -0.04 0 -2.84 0.09 -0.74 0.1 -0.55 0.09 -0.55 0.09 -0.27 0.09 -0.46 0.09 -0.37 0.09 -0.36 0.1 -0.18 0.09 -0.28 0.09 -0.37 0.09 -0.18 0.09 -0.18 0.09 -0.19 0.1 -0.27 0.09 -0.18 0.09 -0.28 0.09 -0.18 0.09 -0.19 0.09 -0.18 0.09 -0.18 0.09 -0.18 0.1 -0.19 0.09 -0.18 0.09 -0.18 0.18 -0.28 0.1 -0.18 0.18 -0.28 0.18 -0.27 0.19 -0.28 0.18 -0.27 0.18 -0.27 0.18 -0.28 0.28 -0.37 0.36 -0.46 0.56 -0.64 0.91 -1 0.83 -0.92 0.41 -0.5 8.79 -0.05 0 0.27 -0.18 0.1zm-5.68 -3.58l5.36 -5.22 0.04 -0.18 0.23 -0.09 0.05 -0.19 0.82 -0.68 0.55 -0.46 0.32 -0.05 0.09 0.19 0.09 0.46 0.1 0.27 0.09 0.55 0.09 0.46 0.09 0.37 0.09 0.54 0.09 0.37 0.09 0.27 0.09 0.46 0.1 0.19 0.09 0.36 0.09 0.55 0.09 0.28 0.09 0.27 0.1 0.46 0.09 0.36 0.09 0.28 0.04 0.46 -0.18 0.05 -0.46 0 -8.38 -0.14 -0.04 -0.19zm42.46 0.28l-29.64 0 -0.05 -0.64 -0.09 -0.28 -0.09 -0.27 -0.09 -0.73 -0.09 -0.19 -0.09 -0.46 -0.1 -0.36 -0.09 -0.64 -0.09 -0.19 -0.18 -0.91 -0.09 -0.46 -0.1 -0.55 -0.09 -0.55 -0.09 -0.27 -0.09 -0.37 -0.09 -0.46 -0.09 -0.55 -0.09 -0.27 -0.1 -0.37 -0.09 -0.55 -0.09 -0.37 -0.05 -1 0.19 0 0.46 -0.6 1.83 -1.74 0.23 -0.14 0.13 -0.32 1.24 -1.05 0.83 -0.92 0.04 -0.18 0.28 -0.14 0.18 -0.04 0.18 -0.32 0.18 -0.1 25.89 -0.04 0 16.03zm0 -19.15l-22.95 0 0 -0.18 0.27 0 0.32 -0.46 0.18 -0.27 0.1 -0.18 0.27 -0.37 0.09 -0.19 0.09 -0.18 0.28 -0.36 0.09 -0.19 0.27 -0.46 0.1 -0.27 0.04 -0.19 0.18 0 0.05 -0.18 0.19 -0.36 0.08 -0.19 0.1 -0.27 0.18 -0.28 0.18 -0.36 0.09 -0.19 0.1 -0.27 0.18 -0.37 0.09 -0.27 0.09 -0.28 0.19 -0.46 0.09 -0.18 0.09 -0.27 0.18 -0.37 0.09 -0.46 0.1 -0.18 0.09 -0.27 0.09 -0.19 0.09 -0.36 0.09 -0.19 0.09 -0.27 0.1 -0.46 0.09 -0.37 0.09 -0.18 0.09 -0.55 0.09 -0.37 0.09 -0.36 0.09 -0.46 0.1 -0.28 0.09 -0.45 0.09 -0.28 0.09 -0.55 0.09 -0.55 0.09 -0.55 0.14 -0.41 16.82 -0.05 0 15.39zm-24.24 -14.74l-0.23 0.27 -0.18 0.37 -0.18 0.27 -0.19 0.28 -0.18 0.27 -0.18 0.28 -0.19 0.27 -0.27 0.37 -0.18 0.27 -0.19 0.28 -0.27 0.36 -0.18 0.28 -0.28 0.36 -0.27 0.37 -0.46 0.55 -0.73 0.83 -0.23 0.32 -0.83 0.73 -0.55 0.46 -0.55 0.46 -0.55 0.45 -0.45 0.37 -0.37 0.27 -0.37 0.28 -0.45 0.36 -0.19 0.1 -0.41 -0.05 -0.09 -0.37 -0.09 -0.27 -0.09 -0.28 -0.1 -0.55 -0.09 -0.27 -0.09 -0.55 -0.09 -0.55 -0.09 -0.73 0 -4.12 0.09 -0.83 0.09 -0.91 0.09 -0.37 0.14 -0.32 2.84 0 6.69 0.04 -0.05 0.37 -0.05 0.28zm3.76 -7.97l-0.14 0.36 -0.09 0.28 -0.09 0.36 -0.09 0.19 -0.1 0.27 -0.09 0.37 -0.09 0.18 -0.09 0.18 -0.09 0.37 -0.09 0.18 -0.1 0.37 -0.09 0.27 -0.09 0.37 -0.09 0.18 -0.23 0.42 -0.18 0.09 -7.24 0 -3.48 -0.09 -0.18 -0.05 0.05 -0.55 0.09 -0.18 0.09 -0.27 0.09 -0.28 0.09 -0.18 0.09 -0.19 0.09 -0.18 0.1 -0.28 0.09 -0.27 0.09 -0.18 0.09 -0.28 0.09 -0.27 0.09 -0.19 0.1 -0.27 0.09 -0.19 0.09 -0.27 0.09 -0.18 0.09 -0.19 0.19 -0.36 0.09 -0.28 0.09 -0.18 0.09 -0.18 0.09 -0.19 0.18 -0.27 0.1 -0.18 0.09 -0.19 0.09 -0.18 0.18 -0.28 0.09 -0.18 0.19 -0.28 0.09 -0.18 0.18 -0.27 0.19 -0.28 0.18 -0.27 0.18 -0.28 0.28 -0.36 0.18 -0.28 0.27 -0.36 0.37 -0.46 0.37 -0.46 0.55 -0.64 0.55 -0.64 1.14 -1.24 0.37 -0.27 0.36 -0.28 0.19 -0.09 0.36 -0.18 0.28 -0.09 0.27 -0.1 0.28 0 0.36 0.1 0.28 0.09 0.18 0.09 0.27 0.18 0.24 0.14 0.27 0.37 0.09 0.18 0.09 0.18 0.09 0.18 0.1 0.19 0.09 0.36 0.09 0.28 0.09 0.37 0.09 0.45 0.09 0.28 0.1 0.27 0.09 0.55 0.09 0.28 0.09 0.64 0.09 0.27 0.1 0.83 0 2.65 -0.05 0.65zm20.48 4.21l-16.64 0 0.05 -1.28 0 -2.57 -0.09 -1.28 -0.09 -0.37 -0.09 -0.82 -0.1 -0.55 -0.09 -0.64 -0.09 -0.64 -0.09 -0.55 -0.09 -0.55 -0.09 -0.28 -0.1 -0.55 -0.09 -0.27 -0.09 -0.46 -0.09 -0.64 -0.09 -0.28 -0.09 -0.36 -0.09 -0.46 -0.1 -0.27 -0.09 -0.28 -0.09 -0.27 -0.09 -0.28 -0.09 -0.37 -0.09 -0.18 -0.1 -0.46 -0.09 -0.18 -0.09 -0.18 -0.09 -0.37 -0.18 -0.46 -0.1 -0.36 -0.09 -0.19 -0.09 -0.18 -0.09 -0.37 -0.09 -0.18 -0.09 -0.18 -0.1 -0.37 -0.18 -0.27 -0.18 -0.46 -0.09 -0.19 -0.1 -0.18 -0.08 -0.18 -0.19 -0.37 -0.18 -0.27 -0.19 -0.37 -0.09 -0.18 -0.18 -0.28 -0.18 -0.37 -0.1 -0.18 -0.18 -0.27 -0.09 -0.19 -0.18 -0.27 -0.19 -0.27 -0.18 -0.28 -1.33 -1.42 -0.27 -0.18 -0.28 -0.19 -0.18 -0.09 -0.18 -0.09 -0.19 -0.09 -0.27 -0.09 -0.19 -0.1 -0.36 -0.09 -1.1 0 -0.18 0.09 -0.46 0.1 -0.28 0.18 -0.18 0.09 -0.27 0.19 -1.61 1.51 -0.36 0.46 -0.37 0.45 -0.27 0.37 -0.28 0.36 -0.27 0.37 -0.28 0.37 -0.36 0.46 -0.28 0.36 -0.27 0.37 -0.28 0.36 -0.27 0.37 -0.19 0.28 -0.27 0.36 -0.18 0.28 -0.19 0.27 -0.18 0.28 -0.09 0.18 -0.19 0.28 -0.18 0.27 -0.27 0.37 -0.19 0.36 -0.09 0.19 -0.18 0.27 -0.19 0.37 -0.18 0.27 -0.09 0.19 -0.18 0.27 -0.09 0.28 -0.19 0.27 -0.09 0.18 -0.09 0.19 -0.09 0.18 -0.09 0.18 -0.09 0.18 -0.1 0.19 -0.18 0.37 -0.09 0.18 -0.09 0.28 -0.09 0.18 -0.09 0.18 -0.1 0.27 -0.09 0.19 -0.09 0.18 -0.09 0.28 -0.09 0.27 -0.1 0.18 -0.09 0.37 -0.09 0.18 -0.09 0.19 -0.09 0.27 -0.09 0.28 -0.09 0.27 -0.1 0.37 -0.09 0.27 -0.09 0.37 -0.09 0.46 -0.09 0.18 -0.09 0.55 -0.1 0.46 -0.09 0.36 -0.09 0.55 -0.09 0.55 -0.09 0.83 -0.05 3.02 -0.18 0.05 -31.87 0.09 -0.23 0.14 -0.09 0.27 0.04 2.34 3.03 0 1.37 -0.1 20.24 0 7.78 0.19 0.19 0.04 0.04 1.01 0.09 1.01 0.1 0.64 0.09 1.1 0.09 0.46 0.09 0.82 0.09 0.28 0.09 0.73 0.1 0.28 0.09 0.64 0.09 0.45 0.09 0.64 0.09 0.28 0.09 0.64 0.09 0.46 0.1 0.37 0.09 0.18 0.09 0.37 0.09 0.45 0.09 0.46 0.1 0.37 0.09 0.18 0.18 0.46 0.09 0.37 0.09 0.36 0.09 0.28 0 0.55 -0.59 0.68 -0.46 0.37 -0.37 0.27 -0.18 0.1 -0.18 0.09 -0.19 0.09 -31.96 0.09 -1.23 0.14 0.04 2.79 1.19 0 2.66 -0.09 18.68 0 6.78 0.09 0.27 0.19 -0.55 0.45 -0.55 0.46 -0.64 0.55 -0.73 0.64 -1.19 1.1 -0.23 0.14 -0.82 0.92 -0.46 0.54 -0.28 0.37 -0.27 0.37 -0.28 0.36 -0.18 0.28 -0.18 0.27 -0.28 0.37 -0.27 0.37 -0.18 0.27 -0.28 0.37 -0.18 0.27 -0.19 0.28 -0.27 0.36 -0.19 0.28 -0.18 0.27 -0.18 0.28 -0.18 0.27 -0.19 0.28 -0.18 0.27 -0.18 0.28 -0.09 0.18 -0.19 0.28 -0.18 0.27 -0.18 0.28 -0.1 0.18 -0.18 0.27 -0.18 0.28 -0.18 0.27 -0.1 0.19 -0.18 0.27 -0.27 0.37 -0.19 0.36 -0.18 0.28 -0.09 0.18 -0.19 0.28 -0.09 0.18 -0.18 0.36 -0.09 0.19 -0.19 0.37 -0.13 0.23 -0.74 0 -8.15 0 -8.15 0.04 -0.04 0.37 -0.09 0.36 -0.05 2.11 15.75 0.14 0.19 0.04 -0.05 0.19 -0.18 0.27 -0.1 0.19 -0.09 0.18 -0.09 0.64 -0.09 0.37 -0.09 0.27 -0.09 0.37 -0.1 0.45 -0.09 0.55 -0.09 0.28 -0.09 0.37 -0.09 0.45 -0.09 0.92 -0.1 0.46 -0.09 0.55 -0.09 1 -0.09 0.37 -0.09 1.38 -0.09 0.54 0 3.58 0.09 1.1 0.09 0.55 -0.05 0.5 -14.05 0.14 -0.09 0.27 0 1.56 0.13 1.05 0.64 0 8.52 0 5.4 0.05 0.05 0.27 0.09 0.64 0.09 0.37 0.09 0.28 0.1 0.36 0.09 0.19 0.09 0.27 0.09 0.37 0.09 0.18 0.09 0.27 0.1 0.28 0.09 0.27 0.09 0.19 0.09 0.18 0.09 0.18 0.09 0.28 0.19 0.27 0.09 0.28 0.09 0.18 0.18 0.37 0.09 0.18 0.1 0.19 0.18 0.27 0.09 0.18 0.09 0.19 0.19 0.27 0.09 0.18 0.18 0.28 0.18 0.27 0.1 0.19 0.18 0.27 0.18 0.28 0.28 0.36 0.18 0.28 0.28 0.37 0.18 0.27 0.18 0.27 0.28 0.37 0.27 0.37 0.37 0.46 0.46 0.54 1.69 1.79 0.46 0.37 0.36 0.27 0.55 0.46 0.37 0.28 0.28 0.18 0.27 0.18 0.27 0.18 0.28 0.19 0.18 0.09 -25 0.09 -0.32 0.14 -0.09 0.27 -0.05 2.57 8.15 -0.05 38.1 -0.05 0.05 0.19 0.09 0.18 0.09 0.46 0.09 0.37 0.09 0.55 0.09 0.82 0.1 0.55 0.09 0.92 0.09 0.55 0.09 0.55 0.09 0.73 0.09 1.1 0.1 0.36 0.09 1.84 0.09 1.65 0 3.75 -0.09 0.19 -0.09 0.36 -0.1 0.18 -0.09 0.19 -0.18 0.46 -0.09 0.18 -0.19 0.37 -0.18 0.27 -0.18 0.28 -0.19 0.27 -0.18 0.28 -0.18 0.27 -0.37 0.46 -0.36 0.46 -0.92 1 -0.23 0.32 -1.19 1.1 -0.55 0.46 -0.36 0.28 -0.37 0.27 -0.28 0.18 -0.27 0.19 -0.28 0.18 -0.18 0.09 -0.27 0.19 -0.19 0.09 -0.27 0.18 -0.18 0.09 -0.19 0.09 -0.18 0.09 -0.18 0.1 -0.19 0.09 -0.18 0.09 -0.18 0.09 -0.55 0.18 -0.28 0.1 -0.46 0.09 -0.18 0.09 -1.65 0 -0.64 -0.09 -0.27 -0.09 -0.46 -0.1 -0.18 -0.09 -0.37 -0.09 -0.18 -0.09 -0.19 -0.09 -0.27 -0.09 -0.28 -0.1 -0.27 -0.09 -0.28 -0.18 -0.18 -0.09 -0.18 -0.09 -0.18 -0.09 -0.19 -0.1 -0.27 -0.18 -0.19 -0.09 -0.27 -0.18 -0.18 -0.1 -0.28 -0.18 -0.37 -0.27 -0.18 -0.05 0 -0.27 0.55 0.04 1.1 0 0.37 -0.09 0.73 -0.09 0.27 -0.09 0.28 -0.09 0.27 -0.1 0.37 -0.09 0.37 -0.09 0.27 -0.09 0.18 -0.09 0.19 -0.09 0.36 -0.19 0.19 -0.09 0.18 -0.09 0.27 -0.19 0.37 -0.27 1.24 -1.14 0.27 -0.37 0.09 -0.18 0.09 -0.19 0.19 -0.27 0.09 -0.18 0.09 -0.28 0.09 -0.18 0.09 -0.19 0.1 -0.27 0.09 -0.18 0.09 -0.28 0.09 -0.37 0.09 -0.18 0.09 -0.37 0.1 -0.64 0.09 -0.36 0 -2.57 -0.09 -0.36 -0.1 -0.65 -0.09 -0.27 -0.09 -0.18 -0.09 -0.28 -0.09 -0.18 -0.09 -0.19 -0.1 -0.18 -0.09 -0.18 -0.18 -0.28 -0.28 -0.36 -0.96 -1.06 -0.36 -0.27 -0.28 -0.18 -0.18 -0.1 -0.28 -0.18 -0.18 -0.09 -0.18 -0.09 -0.18 -0.09 -0.19 -0.09 -0.27 -0.1 -0.28 -0.09 -0.27 -0.09 -0.37 -0.09 -0.46 -0.09 -0.27 -0.1 -0.92 -0.09 -2.65 0 -0.19 0.09 -0.91 0.1 -0.46 0.09 -0.28 0.09 -0.36 0.09 -0.19 0.09 -0.18 0.1 -0.27 0.18 -0.19 0.09 -0.36 0.27 -0.46 0.37 -0.78 0.69 -0.46 0.55 -0.27 0.36 -0.19 0.28 -0.09 0.18 -0.18 0.28 -0.09 0.18 -0.18 0.27 -0.1 0.19 -0.09 0.18 -0.09 0.18 -0.09 0.28 -0.09 0.18 -0.09 0.28 -0.09 0.18 -0.1 0.18 -0.09 0.28 -0.09 0.27 -0.09 0.28 -0.09 0.37 -0.09 0.45 -0.1 0.28 -0.09 0.55 0 2.93 0.09 0.55 0.1 0.36 0.09 0.46 0.09 0.19 0.09 0.27 0.09 0.37 0.09 0.18 0.1 0.18 0.09 0.28 0.09 0.18 0.09 0.18 0.09 0.19 0.18 0.27 0.1 0.19 0.18 0.27 0.09 0.18 0.27 0.37 0.28 0.37 0.46 0.55 0.78 0.87 0.54 0.45 0.46 0.37 0.28 0.18 0.36 0.28 0.28 0.18 0.18 0.09 0.28 0.19 0.18 0.09 0.18 0.09 0.28 0.18 0.18 0.09 0.18 0.1 0.19 0.09 0.18 0.09 0.18 0.09 0.19 0.09 0.18 0.1 0.28 0.09 0.27 0.18 0.28 0.09 0.27 0.09 0.18 0.09 0.37 0.1 0.18 0.09 0.37 0.09 0.18 0.09 0.37 0.09 0.27 0.09 0.46 0.09 0.37 0.1 0.36 0.09 4.12 0 1.01 -0.09 0.55 -0.1 0.28 -0.09 0.55 -0.09 0.36 -0.09 0.37 -0.09 0.37 -0.09 0.27 -0.09 0.18 -0.1 0.37 -0.09 0.18 -0.09 0.19 -0.09 0.27 -0.09 0.18 -0.09 0.28 -0.09 0.18 -0.1 0.19 -0.09 0.18 -0.09 0.27 -0.18 0.19 -0.1 0.27 -0.18 0.18 -0.09 0.37 -0.27 0.28 -0.19 0.36 -0.27 0.73 -0.64 1.06 -0.96 0.36 -0.46 0.28 -0.37 0.27 -0.37 0.19 -0.27 0.04 -0.37 0.19 0 0.23 -0.36 0.09 -0.28 0.18 -0.37 0.18 -0.27 0.09 -0.37 0.1 -0.18 0.09 -0.18 0.18 -0.37 0.09 -0.27 0.09 -0.37 0.09 -0.28 0.1 -0.27 0.09 -0.55 0.09 -0.27 0.09 -0.55 0.09 -0.55 0.09 -0.28 0.1 -0.64 0.09 -0.46 0.09 -0.82 0.09 -0.92 0.09 -1.01 0 -5.22 -0.09 -1.83 -0.09 -0.73 -0.09 -0.37 -0.09 -0.64 -0.1 -0.73 -0.09 -0.28 -0.09 -0.55 -0.09 -0.55 -0.09 -0.55 -0.05 -0.27 21.4 0 0 -78.14z"/>
  </g>
  <path class="fil5" d="M298.81 239.39l0 3.11 -48.66 0 0 -3.11 48.66 0zm0 -37.64l0 3.09 -6.55 -0.04 -0.23 0.42 -0.09 0.18 -0.09 0.18 -0.05 0.28 -0.18 0 -0.05 0.46 -0.18 0.36 -0.32 0.23 -1.1 0.09 -0.55 -0.41 0.04 -1.19 0.05 -0.64 -12.55 0 0.05 8.15 0.09 0.64 0 4.31 -0.09 1.1 -0.09 0.37 -0.09 0.64 -0.05 0.73 22.03 -0.03 0 3.23 -23.68 0 0 0.19 -0.18 0 -0.05 0.37 -0.36 0.45 -0.28 0.37 -0.27 0.37 -0.37 0.45 -0.46 0.55 -0.87 0.74 -0.04 0.18 -0.97 0.87 -0.36 0.23 0 0.18 -0.18 0.05 -0.37 0.27 -0.37 0.23 0 0.18 -0.18 0.05 -0.46 0.18 -0.09 0.23 -0.28 0.05 -0.36 0.18 -0.18 0.09 -0.19 0.1 -0.18 0.09 -0.18 0.09 -0.37 0.18 -0.18 0.09 -0.28 0.09 -0.18 0.1 -0.46 0.09 -0.18 0.09 -0.37 0.09 -0.55 0.09 -0.36 0.09 -0.74 0.09 -3.48 0 -0.64 -0.09 -0.64 -0.09 -0.18 -0.09 -0.37 -0.09 -0.73 -0.09 -0.28 -0.09 -0.36 -0.1 -0.19 -0.09 -0.27 -0.09 -0.18 -0.09 -0.37 -0.18 -0.18 -0.09 -0.28 -0.1 -0.27 -0.18 -0.28 -0.09 -0.13 -0.23 -0.32 -0.23 -0.37 -0.14 0 -0.18 -0.19 -0.05 -0.09 -0.23 -0.27 -0.04 -0.5 -0.6 -0.28 -0.46 -0.09 -0.18 -0.28 -0.36 -0.22 -0.1 -0.05 -0.18 -0.09 -0.27 -0.09 -0.28 -0.1 -0.37 -0.09 -0.27 -0.09 -0.46 -0.09 -0.27 -0.09 -0.28 -0.09 -0.27 -0.05 -0.74 -1.81 0 0 -3.11 2.18 0 0.04 -0.46 0.09 -0.36 0.19 -0.55 0.09 -0.19 0.09 -0.27 0.09 -0.28 0.09 -0.18 0.1 -0.18 0.18 -0.28 0.05 -0.18 0.18 0 0.04 -0.28 0.1 -0.18 0.22 -0.09 0.05 -0.27 0.46 -0.56 0.36 -0.45 0.33 -0.09 0 -0.28 0.27 -0.04 0.64 -0.55 0.37 -0.51 0.18 -0.04 0.09 -0.23 0.28 0 0.04 -0.19 0.32 -0.13 0.19 -0.32 0.18 -0.05 0.37 -0.23 0 -0.18 0.27 -0.05 0.37 -0.27 0.27 -0.1 0.55 -0.45 0.18 -0.09 0.19 -0.1 0.18 -0.09 0.18 -0.09 0.55 -0.37 0.19 -0.09 0.18 -0.09 0.18 -0.09 0.19 -0.09 0.45 -0.09 0.19 -0.1 0.45 -0.18 0.28 -0.04 0 -0.19 0.64 -0.04 0.28 -0.1 0.27 -0.09 0.46 -0.04 0 -0.19 0.55 -0.04 2.84 0 0.55 0.09 1.28 0.09 0.27 0.09 0.28 0.09 0.73 0.1 0.37 0.09 0.36 0.09 0.46 0.09 0.28 0.09 0.36 0.09 0.28 0.1 0.18 0.09 0.37 0.09 0.27 0.09 0.18 0.09 0.19 0.05 -0.05 -6.69 -24.11 -0.09 0 -3.12 24.07 0 -0.05 -9.52 -0.05 -5.86 -23.97 0 0 -3.12 24.07 0 -0.05 -3.94 -0.09 -14.84 -0.09 -0.82 -0.09 -8.98 0 -2.01 2.42 -0.05 0.14 0.78 0.09 1.19 0.09 0.64 0.09 0.46 0.1 0.55 0.09 0.46 0.09 0.36 0.09 0.28 0.09 0.46 0.09 0.36 0.1 0.18 0.09 0.28 0.09 0.37 0.09 0.18 0.09 0.27 0.09 0.19 0.09 0.27 0.1 0.28 0.09 0.18 0.09 0.18 0.09 0.19 0.09 0.18 0.09 0.18 0.1 0.19 0.09 0.18 0.09 0.18 0.18 0.28 0.19 0.27 0.18 0.28 0.18 0.27 0.28 0.37 0.27 0.37 0.37 0.45 0.36 0.46 0.55 0.64 0.37 0.46 0.55 0.64 0.55 0.64 0.27 0.37 0.37 0.46 0.27 0.36 0.37 0.46 0.28 0.37 0.36 0.45 0.28 0.37 0.36 0.46 0.28 0.37 0.36 0.45 0.37 0.46 0.28 0.37 0.27 0.36 0.28 0.37 0.18 0.28 0.27 0.36 0.19 0.28 0.18 0.27 0.27 0.37 0.28 0.36 0.37 0.46 0.91 1.01 0.18 0.28 0.28 0.36 0.18 0.28 0.18 0.27 0.19 0.28 0.09 0.18 0.18 0.27 0.09 0.19 0.19 0.27 0.09 0.28 0.18 0.27 0.09 0.28 0.19 0.27 0.09 0.28 0.18 0.27 0.09 0.18 0.09 0.28 0.1 0.18 0.09 0.28 0.09 0.18 0.09 0.18 0.09 0.19 0.1 0.27 0.09 0.46 0.09 0.37 0.09 0.27 0.09 0.28 0.05 0.27 0.27 0.05 0.28 0.09 2.29 0 2.61 0 0 2.92 -4.08 0.01 -0.37 0.09 -0.18 0.09 -0.05 0.23 0.1 0.18 0.09 0.46 0.09 0.28 0.09 0.55 0.09 2.01 0.09 1.1 0 4.22 -0.09 0.82 -0.09 0.55 -0.09 0.37 -0.09 0.55 -0.09 0.45 -0.1 0.28 -0.09 0.36 -0.09 0.46 -0.09 0.28 -0.09 0.36 -0.09 0.19 -0.09 0.45 -0.1 0.19 -0.09 0.46 -0.09 0.18 0 0.37 5.5 0.01zm-7.01 -5.24l-0.14 0.46 -0.09 0.37 -0.09 0.27 -0.09 0.28 -0.09 0.55 -0.1 0.36 -0.09 0.28 -0.09 0.46 -0.09 0.55 -0.09 0.27 -0.19 0.55 -0.09 0.37 -0.04 0.36 -13.65 0 0 -15.38 14.33 0.09 0.19 0.45 0.09 0.46 0.09 0.55 0.09 0.92 0.09 0.55 0.1 1.65 0 4.94 -0.05 0.64zm-15.11 -22.53l0.09 -0.37 0.18 -0.04 0.28 -0.18 0.36 -0.19 1.2 0 0.82 0.09 0.27 0.1 0.28 0.09 0.27 0.09 0.28 0.09 0.18 0.05 0 0.18 0.28 0.04 0.27 0.1 0.27 0.09 0.28 0.09 0.18 0.09 0.28 0.18 0.18 0.05 0 0.18 0.28 0.14 0.22 0.14 0.05 0.18 0.37 0.23 0.73 0.64 2.15 2.06 0.55 0.64 0.05 0.19 0.18 0 0 0.18 0.18 0 0 0.18 0.19 0 0.23 0.37 0.04 0.18 0.18 0 0.1 0.32 0.32 0.23 0.18 0.37 0.09 0.18 0.19 0.28 0.04 0.27 0.18 0 0 0.28 0.19 0 0.13 0.27 0.19 0.28 0.09 0.18 0.09 0.27 0.09 0.19 0.05 0.18 -13.1 0 -0.04 -0.27 -0.1 -5.23 -0.04 -3.66zm22.12 87.39l-48.66 -0.09 0 -3.02 48.16 -0.05 0.5 0 0 3.16z"/>
 </g>
</svg>
