<?xml version="1.0" encoding="UTF-8"?>
<!DOCTYPE svg PUBLIC "-//W3C//DTD SVG 1.1//EN" "http://www.w3.org/Graphics/SVG/1.1/DTD/svg11.dtd">
<!-- Creator: CorelDRAW 2017 -->
<svg xmlns="http://www.w3.org/2000/svg" xml:space="preserve" width="500px" height="500px" version="1.1" style="shape-rendering:geometricPrecision; text-rendering:geometricPrecision; image-rendering:optimizeQuality; fill-rule:evenodd; clip-rule:evenodd"
viewBox="0 0 500 500"
 xmlns:xlink="http://www.w3.org/1999/xlink">
 <defs>
  <style type="text/css">
   <![CDATA[
    .str0 {stroke:#575757;stroke-width:16;stroke-miterlimit:22.9256}
    .fil3 {fill:black}
    .fil1 {fill:#373B81}
    .fil2 {fill:#F0C00F}
    .fil0 {fill:white}
   ]]>
  </style>
 </defs>
 <g id="Слой_x0020_1">
  <metadata id="CorelCorpID_0Corel-Layer"/>
  <circle class="fil0 str0" cx="250" cy="250" r="239.39"/>
  <g id="_2037458624112">
   <path class="fil1" d="M141.75 166.23c0,35.34 31.64,71.23 60.46,86.48 0,8.92 0.77,14.9 0.76,23.73 0,8.41 0,16.83 0,25.25l23.15 -25.84c2.84,-3.03 5.56,-6.81 8.23,-8.6 23.55,5.49 22.33,6.88 48.98,6.88 27.51,0 55.15,-12.57 67.69,-34.86 20.56,-36.52 -6.33,-76.88 -35.33,-98.51 -19.88,-14.85 -34.31,-20.8 -57.77,-27.18 -5.81,-1.58 -17.67,-5.38 -23.57,-5.52 1.67,2.27 22.79,13.7 27.1,16.53 5,3.29 8.53,5.42 13.24,8.95 2.31,1.72 3.72,2.89 6.03,4.69 24.26,18.99 47.58,58.9 28.03,90.15 -12.6,20.13 -38.34,24.24 -60.52,21.93 -4.26,-0.44 -10.41,-2.1 -14.64,-2.2l0 18.38c-3.99,-1.92 -8.56,-2.73 -16.33,-6.64 -2.65,-1.33 -14.29,-5.95 -14.29,-8.68l0 -145.4c-12.5,0 -32.2,9.23 -42.27,18.18 -9.77,8.67 -18.95,24.04 -18.95,42.28l0 0z"/>
   <path class="fil2" d="M233.59 238.93c12.47,0 18.94,-0.39 30.15,-4.29 6.47,-2.24 14.26,-7.04 18.25,-11.59 16.33,-18.58 6.16,-45.59 -5.68,-65.1 -3.67,-6.04 -7.72,-12.49 -12.01,-17.84 -4.78,-6 -8.63,-10.34 -14.06,-15.78 -3.25,-3.24 -12.44,-12.08 -16.65,-13.21l0 127.81 0 0z"/>
   <g id="_2037464039360">
    <path class="fil3" d="M151.64 355.73l-5.92 0 0 -24.96c4.55,0 8.31,-0.72 10.3,2.82 2.51,4.43 1.96,6.54 1.96,11.99 0,4.61 -2.03,10.15 -6.34,10.15l0 0zm-27.5 38.08l21.58 0 0 -27.5c5.31,0 17.51,0.26 22.26,-0.58 14.35,-2.55 12.85,-14.77 12.85,-27.34 0,-12.54 -5.98,-18.19 -19.46,-18.19l-37.23 0 0 73.61z"/>
    <path class="fil3" d="M187.6 335.85c0,2.05 3.99,1.27 8.04,1.27 10.17,0 9.94,-1.38 13.72,4.88 0.91,1.5 2.62,5.05 2.77,6.96 -12.82,0 -20.28,-1.68 -28.16,11.6 -3.62,6.09 -6.52,23.33 -6.52,33.25l20.3 0 2.17 -16.87c2.1,-12.56 6.83,-11.05 15.6,-11.05 0,2.25 0.83,5.21 1.24,7.22 0.48,2.41 0.85,4.7 1.33,7.13 0.48,2.37 0.9,4.45 1.36,7.11 0.26,1.56 0.94,5.56 1.57,6.88l21.58 0 -8.12 -32.07c-1.83,-7.37 -6.44,-26.49 -9.58,-31.04 -3.32,-4.79 -11.03,-10.5 -16.57,-10.5l-20.73 0 0 15.23 0 0z"/>
    <path class="fil3" d="M312.41 335.85c0,2.11 6.05,1.27 10.14,1.27 5.11,0 6.48,-0.63 9.43,2 4.04,3.61 5.24,9.84 6.41,16.43 1.16,6.52 2.49,12.64 3.74,19.11 1.18,6.15 2.26,13.01 3.69,19.15l21.58 0c-2.94,-12.6 -7.73,-29.21 -11,-42.31 -0.59,-2.37 -1.11,-4.64 -1.78,-7.11 -0.41,-1.48 -1.43,-6.04 -2.03,-7.27l23.27 0 0 -16.5 -63.45 0 0 15.23z"/>
    <path class="fil3" d="M240.48 321.47l0 44.84c0,6.76 1.18,12.63 3.26,17.47 1.76,4.09 5.66,10.03 11.13,10.03l32.15 0c0,-19.6 2.14,-16.5 -7.19,-16.5 -2.96,0 -5.92,-0.01 -8.89,0 -3.57,0 -8.89,1.36 -8.89,-8.88l0 -48.23 -20.3 0c-0.98,0 -1.27,0.3 -1.27,1.27l0 0z"/>
    <polygon class="fil3" points="288.71,393.81 309.86,393.81 309.86,343.46 288.71,343.46 "/>
    <polygon class="fil3" points="288.71,337.12 309.86,337.12 309.86,320.2 288.71,320.2 "/>
   </g>
  </g>
 </g>
</svg>
