<?xml version="1.0" encoding="UTF-8"?>
<!DOCTYPE svg PUBLIC "-//W3C//DTD SVG 1.1//EN" "http://www.w3.org/Graphics/SVG/1.1/DTD/svg11.dtd">
<!-- Creator: CorelDRAW 2017 -->
<svg xmlns="http://www.w3.org/2000/svg" xml:space="preserve" width="500px" height="500px" version="1.1" style="shape-rendering:geometricPrecision; text-rendering:geometricPrecision; image-rendering:optimizeQuality; fill-rule:evenodd; clip-rule:evenodd"
viewBox="0 0 500 500"
 xmlns:xlink="http://www.w3.org/1999/xlink">
 <defs>
  <style type="text/css">
   <![CDATA[
    .str0 {stroke:#CB0506;stroke-width:20;stroke-miterlimit:22.9256}
    .fil1 {fill:#CB0506}
    .fil2 {fill:#FA8C8D}
    .fil0 {fill:white}
    .fil3 {fill:white;fill-rule:nonzero}
   ]]>
  </style>
 </defs>
 <g id="Слой_x0020_1">
  <metadata id="CorelCorpID_0Corel-Layer"/>
  <circle class="fil0 str0" cx="250" cy="250" r="229.7"/>
 </g>
 <g id="Слой_x0020_1_0">
  <metadata id="CorelCorpID_1Corel-Layer"/>
  <g id="_1495237914832">
   <path class="fil1" d="M377.79 175.06l-67.18 0c-8.28,-0.07 -11.77,-1.72 -16.13,-6.21 -7.98,-8.24 -6.21,-25.26 -6.21,-38.54 0,-14.93 0.06,-29.87 -0.01,-44.8 -39.24,0.56 -78.89,0.03 -118.17,0.03 -9.59,0 -18.13,-0.41 -24.97,4.26 -5.02,3.42 -10.26,10.03 -10.98,18.75 -0.69,8.43 -0.12,47.41 -0.12,59.07l0 206.45c-0.02,11.15 1.29,16.24 7.47,22.38 5.98,5.94 10.87,7.49 21.75,7.47l177.23 -0.01c10.48,0 17.97,1.03 25.84,-4.01 14.65,-9.4 11.47,-27.48 11.47,-47.59 0,-58.8 -0.52,-118.71 0.01,-177.25z"/>
   <path class="fil2" d="M377.79 175.06c-0.12,-13 1.16,-9.49 -5.87,-16.51l-67.17 -67.14c-7.04,-7.04 -3.53,-5.73 -16.49,-5.9 0.07,14.93 0.01,29.87 0.01,44.8 0,13.28 -1.77,30.3 6.21,38.54 4.36,4.49 7.85,6.14 16.13,6.21l67.18 0z"/>
  </g>
  <path class="fil3" d="M157.65 256.66l46.6 0c4.93,0 7.4,2.34 7.4,7l0 17.3c-0.27,4.33 -2.73,6.57 -7.4,6.7l-34.5 0 0 18.9 -12.1 0 0 -49.9zm12.1 9.5l0 12.1 27.6 0c1.8,0 2.7,-0.77 2.7,-2.3l0 -7.5c0,-1.53 -0.9,-2.3 -2.7,-2.3l-27.6 0z"/>
  <path id="1" class="fil3" d="M222.15 256.66l38.4 0c14.67,-0.06 22.1,7.37 22.3,22.3l0 4.7c-0.2,15.27 -7.97,22.9 -23.3,22.9l-37.4 0 0 -49.9zm12.5 10.1l0 29.7 18.8 0c10.74,0 16.14,-5.96 16.2,-17.9 0,-7.86 -4.26,-11.8 -12.8,-11.8l-22.2 0z"/>
  <polygon id="2" class="fil3" points="293.15,256.66 343.45,256.66 343.45,266.06 305.25,266.06 305.25,278.06 325.95,278.06 325.95,288.16 305.25,288.16 305.25,306.26 293.85,306.26 293.15,306.56 "/>
 </g>
</svg>
