<?xml version="1.0" encoding="UTF-8"?>
<!DOCTYPE svg PUBLIC "-//W3C//DTD SVG 1.1//EN" "http://www.w3.org/Graphics/SVG/1.1/DTD/svg11.dtd">
<!-- Creator: CorelDRAW 2017 -->
<svg xmlns="http://www.w3.org/2000/svg" xml:space="preserve" width="500px" height="500px" version="1.1" style="shape-rendering:geometricPrecision; text-rendering:geometricPrecision; image-rendering:optimizeQuality; fill-rule:evenodd; clip-rule:evenodd"
viewBox="0 0 500 500"
 xmlns:xlink="http://www.w3.org/1999/xlink">
 <defs>
  <style type="text/css">
   <![CDATA[
    .str3 {stroke:black;stroke-miterlimit:22.9256}
    .str2 {stroke:black;stroke-width:2;stroke-miterlimit:22.9256}
    .str0 {stroke:#2E2E2E;stroke-width:25;stroke-miterlimit:22.9256}
    .str1 {stroke:#2B2A29;stroke-width:2.36;stroke-miterlimit:22.9256}
    .fil6 {fill:#FEFEFE}
    .fil8 {fill:#E5097F}
    .fil11 {fill:#DC5E9E}
    .fil1 {fill:#57A7B3}
    .fil14 {fill:#0082EF}
    .fil12 {fill:#00BD00}
    .fil16 {fill:#02ADEF}
    .fil4 {fill:#17D5F5}
    .fil2 {fill:#575757}
    .fil10 {fill:#727271}
    .fil13 {fill:#77B900}
    .fil18 {fill:#9B22EC}
    .fil3 {fill:#9DC8D6}
    .fil5 {fill:#C2C2C2}
    .fil9 {fill:#C5C6C6}
    .fil7 {fill:#DEDBDB}
    .fil17 {fill:#E02626}
    .fil15 {fill:#F08B21}
    .fil0 {fill:white}
   ]]>
  </style>
 </defs>
 <g id="Слой_x0020_1">
  <metadata id="CorelCorpID_0Corel-Layer"/>
  <circle class="fil0 str0" cx="250" cy="250" r="225.5"/>
  <g id="_1950361535728">
   <circle class="fil1 str1" cx="332.55" cy="288.49" r="91.04"/>
   <path class="fil2 str2" d="M332.55 188.19c55.39,0 100.3,44.9 100.3,100.3 0,55.39 -44.91,100.29 -100.3,100.29 -55.39,0 -100.29,-44.9 -100.29,-100.29 0,-55.4 44.9,-100.3 100.29,-100.3zm0 21.6c43.46,0 78.69,35.24 78.69,78.7 0,43.46 -35.23,78.69 -78.69,78.69 -43.46,0 -78.69,-35.23 -78.69,-78.69 0,-43.46 35.23,-78.7 78.69,-78.7z"/>
   <circle class="fil3" cx="332.55" cy="288.49" r="66.74"/>
   <circle class="fil4" cx="332.86" cy="288.8" r="46.6"/>
   <path class="fil5" d="M293.98 355.99c-17.66,-9.84 -27.78,-21.99 -35.49,-43.59 2.17,-8 4.04,-13.67 7.38,-21.26 1.84,22.33 10.59,38.47 27.72,51.74l0.39 13.11z"/>
   <path class="fil6" d="M293.59 342.88c-13.26,-11.18 -28.02,-27.68 -27.39,-52.08 2.18,-8.01 17.75,-31.24 42.17,-42.52 -28.28,16.29 -25.2,57.95 -11.14,70.15l-3.64 24.45z"/>
   <path class="fil7" d="M297.08 319.2c-20.85,-24.54 -8.51,-65.43 14.79,-72.84 23.32,-10.11 37.64,-4.07 49.72,5.28 3.03,2.34 8.17,8.27 8.17,8.27 -4.39,0.56 -17.85,1.64 -29.88,8.52 -0.13,0.07 0.13,-0.05 0,0 0,0 -9.88,-3.57 -20.09,3.59 -8.63,6.05 -7.65,18.78 -7.73,18.9 -0.05,0.09 -0.11,0.17 -0.17,0.25 -9.61,13.17 -14.24,24.03 -14.81,28.03z"/>
   <circle class="fil8 str3" cx="332.55" cy="288.49" r="21.6"/>
   <path class="fil6" d="M323.68 242.58c22.56,0.54 37.49,5.72 46.08,17.33 8.53,0.01 15.87,-0.39 23.78,1.44 -1.54,-3.95 -2.7,-5.82 -5.75,-9.69 -19.65,-9.88 -40.91,-12.11 -64.11,-9.08z"/>
   <path class="fil9" d="M407.39 265.34c-6.01,-5.48 -12.44,-10.02 -19.6,-13.68 2.2,3.38 4.73,5.87 5.85,9.93 4.65,1.11 9.09,2.64 13.75,3.75z"/>
   <path class="fil10" d="M257.16 314.35l-16.91 11.11c8.34,21.5 23.59,36.71 42.54,49.05l10.83 -16.32c-18.33,-10.15 -30.61,-24.96 -36.46,-43.84z"/>
   <circle class="fil11" cx="340.74" cy="295" r="10.99"/>
  </g>
  <path class="fil12" d="M364.64 429.69c-3.45,-12.83 -8.19,-25.19 -13.74,-35.52 -6.74,1.29 -13.7,1.96 -20.82,1.96 -10.65,0 -20.95,-1.51 -30.69,-4.33 -11.64,19.17 -20.85,47.33 -22.26,69.85 31.05,-3.76 60.3,-14.11 87.51,-31.96z"/>
  <path class="fil13" d="M458.4 204.05c-12.56,8.09 -27.26,14.69 -39.27,17.18 -6.54,-8.98 -14.41,-16.94 -23.33,-23.58 3.38,-18.66 15.96,-43.61 29.54,-57.2 1.68,-1.67 3.36,-3.17 5.03,-4.48 12.63,21.83 22.76,44.31 28.03,68.08z"/>
  <path class="fil14" d="M404.48 397.17c12.67,-13.83 24.36,-28.74 33.6,-46.34 -6.5,-1.43 -12.51,-2.09 -17.68,-1.8 -5.64,8.06 -12.32,15.33 -19.85,21.61 -0.28,7.59 1.17,16.74 3.93,26.53z"/>
  <path class="fil15" d="M452.3 317.99c-5.32,-2.79 -10.23,-5.75 -14.54,-8.82 1.6,-7.47 2.44,-15.21 2.44,-23.16 0,-8.6 -0.99,-16.98 -2.86,-25.02 7.24,-4.91 15.95,-9.38 25.76,-13.34 -0.04,25.19 -3.4,48.6 -10.8,70.34z"/>
  <path class="fil15" d="M382.94 83.11c0.18,2.32 0.27,4.75 0.27,7.28 0,27.47 -10.72,65.27 -25,89.13 -8.98,-2.36 -18.41,-3.63 -28.13,-3.63 -9.12,0 -17.97,1.11 -26.44,3.2 -14.97,-23.67 -26.7,-60.71 -26.7,-87.92 0,-25.27 9.28,-40.56 22.61,-48.75 31.02,7.6 59.08,20.67 83.39,40.69z"/>
  <path class="fil16" d="M261.65 199.73c-2,-21.81 -17.72,-54.56 -34.82,-71.66 -23.47,-23.47 -46.68,-14.98 -60.36,-1.31 -13.67,13.67 -21.32,35.21 2.15,58.68 17.4,17.4 50.35,34.52 71.79,36.63 6.01,-8.4 13.16,-15.92 21.24,-22.34z"/>
  <path class="fil17" d="M223.04 309.86c-1.94,-8.06 -2.97,-16.49 -2.97,-25.16 0,-8.54 1,-16.84 2.88,-24.79 -25.67,-19.1 -74.93,-34.33 -109.63,-34.33 -48.88,0 -63.33,30.63 -63.33,59.33 0,28.7 15.34,61.97 64.22,61.97 34.65,0 83.4,-16.93 108.83,-37.02z"/>
  <path class="fil18" d="M217.1 460.84c1.6,-1.35 3.21,-2.83 4.82,-4.44 20.1,-20.1 38.54,-59.18 39.86,-84 -8.42,-6.67 -15.85,-14.55 -22.02,-23.37 -24.34,1.32 -63.73,21.47 -84.22,41.96 -14.78,14.77 -18.74,28.88 -16.7,41.17 24.44,15.17 50.75,23.97 78.26,28.68z"/>
 </g>
</svg>
