<?xml version="1.0" encoding="UTF-8"?>
<!DOCTYPE svg PUBLIC "-//W3C//DTD SVG 1.1//EN" "http://www.w3.org/Graphics/SVG/1.1/DTD/svg11.dtd">
<!-- Creator: CorelDRAW 2017 -->
<svg xmlns="http://www.w3.org/2000/svg" xml:space="preserve" width="500px" height="500px" version="1.1" style="shape-rendering:geometricPrecision; text-rendering:geometricPrecision; image-rendering:optimizeQuality; fill-rule:evenodd; clip-rule:evenodd"
viewBox="0 0 500 500"
 xmlns:xlink="http://www.w3.org/1999/xlink">
 <defs>
  <style type="text/css">
   <![CDATA[
    .str0 {stroke:#054085;stroke-width:25;stroke-miterlimit:22.9256}
    .fil1 {fill:#054085}
    .fil2 {fill:#21216C}
    .fil11 {fill:#3C96C9}
    .fil12 {fill:#6BA4CD}
    .fil3 {fill:#85435D}
    .fil4 {fill:#860F44}
    .fil7 {fill:#BA9300}
    .fil6 {fill:#CF0000}
    .fil5 {fill:#D13800}
    .fil8 {fill:#E8B300}
    .fil10 {fill:#F2BD00}
    .fil9 {fill:#FBCC00}
    .fil0 {fill:white}
    .fil13 {fill:#2B2A29;fill-rule:nonzero}
   ]]>
  </style>
 </defs>
 <g id="Слой_x0020_1">
  <metadata id="CorelCorpID_0Corel-Layer"/>
  <circle class="fil0 str0" cx="250" cy="250" r="225.5"/>
  <path class="fil1" d="M130.4 334.82l79.45 -75.91c6.61,6.18 14.67,10.85 23.61,13.42l-16.99 59.76c-9.2,-2.63 -17.96,-6.33 -26.12,-10.96l-1.35 134.87c-21.98,2.38 -41.87,-4.26 -58,-27l-0.6 -94.18z"/>
  <path class="fil2" d="M209.67 259.42l-79.44 75.91 0.41 -81.34 63.79 -17.94c3.14,9 8.42,16.99 15.24,23.37z"/>
  <path class="fil3" d="M130.63 221.09c0,-10.96 1.42,-21.68 4.08,-31.94l57.7 15.41c-0.91,4.09 -1.39,8.34 -1.39,12.7 0,6.72 1.14,13.17 3.23,19.17l-63.79 17.94 0.17 -33.28z"/>
  <g id="_1950562341424">
   <path class="fil4" d="M134.94 189.31c5.15,-19.84 14.97,-37.98 28.24,-52.81l43.07 41.91c-6.62,7.32 -11.4,16.33 -13.62,26.31l-57.69 -15.41z"/>
   <path class="fil5" d="M233.7 161.85c-10.82,2.99 -20.19,8.97 -27.5,17.07l-43.07 -41.91c14.69,-16.44 33.53,-29.11 55,-35.3l15.57 60.14z"/>
  </g>
  <path class="fil6" d="M217.82 102.09c9.92,-2.86 20.38,-4.4 31.23,-4.4 11.32,0 22.28,1.57 32.67,4.49l-16.98 59.76c-4.99,-1.39 -10.26,-2.14 -15.69,-2.14 -5.39,0 -10.6,0.73 -15.55,2.1l-15.68 -59.81z"/>
  <path class="fil7" d="M233.38 272.93l-16.98 59.75c10.52,3.01 21.64,4.62 33.14,4.62 10.26,0 20.22,-1.28 29.73,-3.7l-15.75 -60.1c-4.48,1.11 -9.16,1.7 -13.98,1.7 -5.61,0 -11.03,-0.8 -16.16,-2.27z"/>
  <path class="fil8" d="M289.66 259.69l44.55 43.3c-15,14.87 -33.88,25.83 -55,31.19l-15.75 -60.09c10,-2.47 18.98,-7.52 26.2,-14.4z"/>
  <path class="fil9" d="M264.14 162.18c10.72,3.29 19.92,9.54 26.99,17.84l44.25 -40.67c-14.22,-16.84 -32.69,-30.05 -53.97,-36.85l-17.27 59.68z"/>
  <path class="fil10" d="M362.31 192.79c-4.54,-19.99 -13.8,-38.42 -26.59,-53.66l-44.35 40.55c6.38,7.53 10.88,16.69 12.79,26.73l58.15 -13.62z"/>
  <path class="fil11" d="M331.5 305c14.48,-14.51 22.85,-33.25 28.91,-52.21l-56.66 -15.89c-2.95,9.41 -8.29,17.34 -15.76,24.31l43.51 43.79z"/>
  <path class="fil12" d="M304.5 205c2.91,10.84 2.1,21.79 -1.16,32.19l57.07 15.6c6.7,-21 6.4,-42.68 0.84,-64.32l-56.75 16.53z"/>
  <path class="fil13" d="M259.52 399.82l0 -43.29 14.02 0c5.31,0 8.76,0.21 10.38,0.64 2.47,0.66 4.55,2.07 6.22,4.24 1.68,2.18 2.51,4.99 2.51,8.44 0,2.66 -0.48,4.89 -1.44,6.7 -0.97,1.81 -2.19,3.24 -3.67,4.27 -1.48,1.03 -2.99,1.72 -4.52,2.05 -2.09,0.41 -5.1,0.62 -9.05,0.62l-5.69 0 0 16.33 -8.76 0zm8.76 -35.98l0 12.34 4.77 0c3.44,0 5.72,-0.23 6.88,-0.69 1.16,-0.45 2.07,-1.16 2.73,-2.13 0.65,-0.97 0.98,-2.09 0.98,-3.38 0,-1.58 -0.46,-2.88 -1.38,-3.91 -0.93,-1.03 -2.08,-1.67 -3.51,-1.94 -1.03,-0.19 -3.12,-0.29 -6.26,-0.29l-4.21 0zm31.57 35.98l0 -43.29 18.41 0c4.62,0 7.99,0.39 10.09,1.17 2.1,0.77 3.78,2.15 5.04,4.14 1.26,1.99 1.89,4.26 1.89,6.82 0,3.25 -0.95,5.93 -2.85,8.05 -1.91,2.12 -4.75,3.45 -8.54,4 1.89,1.1 3.44,2.31 4.66,3.63 1.23,1.32 2.88,3.67 4.96,7.03l5.28 8.45 -10.45 0 -6.27 -9.45c-2.25,-3.36 -3.79,-5.47 -4.63,-6.35 -0.82,-0.87 -1.7,-1.47 -2.63,-1.8 -0.93,-0.32 -2.41,-0.48 -4.42,-0.48l-1.77 0 0 18.08 -8.77 0zm8.77 -24.97l6.46 0c4.2,0 6.81,-0.18 7.85,-0.54 1.04,-0.35 1.87,-0.96 2.45,-1.83 0.6,-0.87 0.89,-1.96 0.89,-3.26 0,-1.46 -0.39,-2.63 -1.17,-3.53 -0.77,-0.9 -1.87,-1.46 -3.28,-1.7 -0.72,-0.1 -2.84,-0.15 -6.38,-0.15l-6.82 0 0 11.01zm33.08 3.58c0,-4.41 0.66,-8.12 1.98,-11.12 0.98,-2.21 2.33,-4.19 4.04,-5.95 1.7,-1.75 3.56,-3.05 5.59,-3.91 2.7,-1.14 5.81,-1.71 9.34,-1.71 6.39,0 11.49,1.99 15.33,5.95 3.83,3.97 5.74,9.48 5.74,16.54 0,7.01 -1.9,12.49 -5.7,16.44 -3.8,3.96 -8.89,5.94 -15.25,5.94 -6.44,0 -11.57,-1.97 -15.37,-5.91 -3.8,-3.93 -5.7,-9.35 -5.7,-16.27zm9.01 -0.29c0,4.91 1.14,8.63 3.41,11.17 2.26,2.53 5.14,3.8 8.63,3.8 3.5,0 6.36,-1.26 8.61,-3.77 2.24,-2.52 3.35,-6.29 3.35,-11.32 0,-4.97 -1.08,-8.68 -3.27,-11.11 -2.18,-2.45 -5.07,-3.67 -8.69,-3.67 -3.61,0 -6.52,1.24 -8.73,3.71 -2.2,2.48 -3.31,6.2 -3.31,11.19z"/>
 </g>
</svg>
