<?xml version="1.0" encoding="UTF-8"?>
<!DOCTYPE svg PUBLIC "-//W3C//DTD SVG 1.1//EN" "http://www.w3.org/Graphics/SVG/1.1/DTD/svg11.dtd">
<!-- Creator: CorelDRAW 2017 -->
<svg xmlns="http://www.w3.org/2000/svg" xml:space="preserve" width="500px" height="500px" version="1.1" style="shape-rendering:geometricPrecision; text-rendering:geometricPrecision; image-rendering:optimizeQuality; fill-rule:evenodd; clip-rule:evenodd"
viewBox="0 0 500 500"
 xmlns:xlink="http://www.w3.org/1999/xlink">
 <defs>
  <style type="text/css">
   <![CDATA[
    .str0 {stroke:#2B2A29;stroke-width:4;stroke-miterlimit:22.9256}
    .fil17 {fill:none;fill-rule:nonzero}
    .fil12 {fill:#010202}
    .fil15 {fill:#05111C}
    .fil4 {fill:#094592}
    .fil8 {fill:#0C52A4}
    .fil11 {fill:#0D397D}
    .fil1 {fill:#151D4D}
    .fil7 {fill:#213572}
    .fil2 {fill:#24539D}
    .fil13 {fill:#2568C8}
    .fil6 {fill:#336BB4}
    .fil9 {fill:#437CB5}
    .fil14 {fill:#6599CE}
    .fil3 {fill:#73AEEA}
    .fil10 {fill:#7EC1F9}
    .fil5 {fill:#9ACEFB}
    .fil16 {fill:#8C8C8C;fill-rule:nonzero}
    .fil0 {fill:url(#id0)}
   ]]>
  </style>
  <radialGradient id="id0" gradientUnits="userSpaceOnUse" gradientTransform="matrix(1 -0 -0 1 0 0)" cx="250" cy="250" r="258" fx="250" fy="250">
   <stop offset="0" style="stop-opacity:1; stop-color:#FEFEFE"/>
   <stop offset="0.701961" style="stop-opacity:1; stop-color:#95D8E0"/>
   <stop offset="1" style="stop-opacity:1; stop-color:#2DB3C2"/>
  </radialGradient>
 </defs>
 <g id="Слой_x0020_1">
  <metadata id="CorelCorpID_0Corel-Layer"/>
  <circle class="fil0" cx="250" cy="250" r="236"/>
 </g>
 <g id="Слой_x0020_1_0">
  <metadata id="CorelCorpID_1Corel-Layer"/>
  <g id="_1921725008000">
   <path class="fil1" d="M143.55 137.78l0 38c0.1,5.9 1.16,9.79 -1.91,10.11 -0.11,0.1 -0.25,0.23 -0.32,0.29l-1.27 0.89c2.05,1.45 -0.01,-0.23 1.09,1.52 2.07,3.32 1.22,0.25 2.35,2.78 1.41,3.17 0.64,64.22 0.44,66.48 3.46,-0.45 0.44,-1.31 5.94,-3.17 5.82,-1.95 16.3,-1.24 16.08,8 1.57,0.23 3.67,-0.25 5.19,0.97 1.71,0.69 3.85,0.67 4.82,2.07 0.73,1.06 1.39,4.41 1.06,5.49l0.6 0.78c2.9,5.11 3.65,21.11 3.14,27.54 -0.27,3.38 -1.27,5.34 -1.71,8.47l-0.14 2.38c9.01,-0.58 18.95,-0.5 27.9,-0.16 9.19,0.35 18.95,-0.3 28.22,-0.07l94.32 -0.41c0.38,-4.3 0.21,-10.44 -0.08,-14.81 -0.34,-4.98 0.36,-9.86 0.08,-14.85l-2.38 -1.19c-2.35,-0.66 -4.06,-1.38 -6.84,-1.81 -1.62,-0.26 -2.49,-0.13 -3.91,-0.24 -2.2,-0.17 -1.03,-0.31 -2.79,-0.63 -8.18,-1.48 -4.67,8.53 -21.42,9.96 -5.87,0.51 -9.2,-0.49 -12.04,-3.57 0.23,-0.11 2.57,-0.92 2.78,-0.99 7.45,-2.55 1.86,0.19 9.68,-3.78l3.87 -1.75c5.11,-2.59 9.03,-6.31 12.72,-10.41 4.16,-4.63 4.54,-7.39 6.18,-8.96 4.67,-10.8 -0.35,-13.11 3.41,-15.81l3.52 -2.99c0.32,-1.68 7.71,-11.05 7.72,-21.55 0.02,-12.66 0.25,-85.28 -0.71,-87.44 -2.59,-0.85 -39.91,-0.28 -46.33,-0.33 -15.39,-0.12 -30.82,0.07 -46.22,0.04 -31.03,-0.06 -62,0.31 -93.09,0.04l0.05 9.11z"/>
   <path class="fil2" d="M322.13 237.91l-3.52 2.99c-3.76,2.7 1.26,5.01 -3.41,15.81 -1.04,4.04 -3.59,5.72 -4.26,9.08 2.44,-1.06 2.04,-2.66 4.74,-4.52l1.03 2.01c0.58,-0.67 0.55,-0.2 0.73,-1.51 1.99,0.06 7.16,2.48 7.25,2.57 1.6,1.71 -0.79,10.23 2.28,14.55l2.38 1.19c0.28,4.99 -0.42,9.87 -0.08,14.85 0.29,4.37 0.46,10.51 0.08,14.81l-94.32 0.41c-1.14,0.8 -2.63,0.43 -3.89,1.21 1.31,0.99 2.11,0.86 3.25,1.54 -0.4,1.04 -0.22,0.21 -0.61,0.8 -0.46,0.71 -0.33,0.37 -0.71,1.31 -0.05,0.11 -0.82,2.65 -0.83,2.7 -0.36,1.79 -0.25,5.52 -0.24,7.5 0.89,0.44 1.79,0.44 2.32,0.75 2.43,1.4 1.79,5.81 1.62,8.51 -1.31,1 -1,0.65 -2.06,1.91 -3.36,3.97 -1.78,8.82 -2.59,10.93 -1.16,3.04 -0.11,-3.67 -2.72,5.37 -0.04,0.13 -0.09,0.25 -0.13,0.38l-0.27 0.76c-0.13,0.43 -0.25,-0.07 -0.35,1.24 3.1,-0.03 5.49,-2.07 8.49,-2.61 2.66,-0.72 8.26,-4.09 11.25,-5.46 2.28,-1.05 3.89,-1.35 6.21,-2.15 2.77,-0.96 2.17,-2.15 5.9,-2.64 6.1,-0.8 9.67,0.49 12.73,-4.2 2.33,-3.57 5.03,-7.1 7.79,-9.75 3.82,-3.69 5.46,-2.38 14.43,-2.22 8.8,0.15 48.3,0.7 51.87,-0.28 0.59,-3.99 0.11,-21.26 0,-27.23 -0.03,-1.43 -0.64,-7.77 0.42,-8.83l0.8 -0.29c2.95,-0.48 2.51,0.73 6.98,0.63 2.33,-0.06 7.39,-0.92 9.2,-0.31 1.42,0.48 9.07,9.42 20.09,5.06 2.32,-0.93 4.67,-1.33 6.42,-2.65 7.33,-5.56 16.15,-2.33 22.73,-13.79 6.21,-10.82 6.24,-27.32 2.81,-38.96 -0.38,-1.31 -1.46,-6.21 -1.44,-7.38 2.34,-0.2 4.83,-0.1 6.46,0.79 3.42,0.07 3.11,1.97 6.16,0.51 -0.24,-2.14 0.29,-0.9 -1.16,-1.92 -0.11,-0.08 -1.8,-0.84 -2.1,-0.98 -4.14,-1.99 -4.53,-4.04 -7.75,-5.09 -6.65,-2.17 -2.49,-0.45 -6.56,-6.29 -1.43,-2.05 -3.04,-4.39 0.25,-8.69 1.55,-2.03 2.35,-0.97 2.42,-4.25l-2.64 -0.79c6.31,-2.03 12.31,0.68 15.29,-0.4 2.78,-1.01 0.53,0.2 1.73,-1.37 -6.92,0 -14.42,-0.69 -21.13,0.58 -5.31,1.01 -4.28,0.16 -11.28,1.12 -4.25,0.58 -20.78,-5.35 -29.74,-2.62 0.82,3.39 3.96,0.05 5.78,2.11 1.79,2.03 -2.11,3.94 -2.11,3.94l0.03 2.97c4.99,0.2 2.56,3.02 6.17,4.59 8.78,3.83 -1.66,4.64 9.23,7.25 -0.47,1.25 -0.3,0.5 -0.91,1.3 -2.08,2.71 0.41,-1.6 -0.62,0.75 1.9,0.46 2.01,1.26 3.29,1.76 2.47,0.96 1.25,-0.72 3.37,1.33l-3.49 0.81c1.37,0.64 1.78,1.33 1.61,2.74l-0.49 1.38c-0.43,1.72 0.43,10.18 0.81,11.13l-2.01 1.06c0.01,0.76 0.09,1.74 -0.02,2.47 -0.43,2.84 -0.31,0.81 -0.65,1.98 -0.46,1.6 -0.03,1.31 -0.21,2.57l-0.28 1.02c-0.04,0.11 -0.1,0.25 -0.14,0.35 -0.05,0.1 -0.12,0.24 -0.17,0.35l-1.02 1.61c-1.93,2.24 -2.87,1.18 -3.67,1.99 -0.7,1.39 -0.37,2.03 -1.05,3.53 -0.38,0.84 -0.98,1.56 -1.53,2.64 -5.54,-1.05 -2.93,1.21 -6.43,3.35 -1.54,0.93 -7.06,0.7 -9.07,0.82 -2.6,0.15 -2.63,0.77 -5.02,-0.2l-1.41 -0.61c-0.69,-0.19 -1.49,-0.18 -2.27,-0.19 -4.64,-0.05 -4.1,-0.37 -6.04,1.45 -2.85,2.69 -3.14,0.36 -3.68,0.12 -2.5,-1.12 -4.23,0.02 -7.25,-1.18 -0.11,-0.04 -0.24,-0.11 -0.35,-0.15 -0.12,-0.05 -0.25,-0.1 -0.36,-0.15 -1.96,-0.76 -2.43,-0.46 -3.51,-2.84 -0.99,-2.21 -0.66,-3.82 -1.15,-6.08 -0.84,-3.81 -0.96,-10.61 -1.05,-15l-2.02 -1.03c-0.01,-2.73 -0.13,-2.45 -0.57,-4.49 -0.66,-3.06 -0.25,-1.47 0.61,-3.58 -2.1,0.84 -3.02,3.36 -4.17,4.74 -0.34,0.41 -0.37,0.4 -0.82,0.85l0.32 -2.15z"/>
   <path class="fil3" d="M172.15 92.08c-0.57,4.11 -2.23,4.99 -3.81,8.21l-1.86 0.33c-1,2.98 -0.75,2.7 -2.85,4.77 -2.56,2.52 -7.74,5.89 -11.44,6.65l-3.22 -0.19c-0.54,-1.8 -0.11,-3.49 -0.55,-5.18 -0.11,-0.42 -0.74,-1.52 -1.18,-1.77 -4.19,-2.4 -0.6,6.43 -0.53,7.8l-3.51 -0.21c-2.23,-3.34 -0.81,-3.21 -1.98,-6.23 -0.9,-2.31 -2.85,-1.7 -4.74,-2.61 -5.65,-4.41 -0.27,-4.76 -5.08,-5.81 -0.61,2.36 -0.62,2.77 0.06,5.44 2.84,1.09 5.91,1.05 7.65,5.16 0.43,1.02 0.82,1.85 0.93,3.11 -1.54,0.01 -3.09,-0.04 -4.3,-0.8 -1.86,-1.15 -0.64,-0.24 -1.16,-1.36l-0.7 -2.08c-0.09,0.12 -0.15,0.31 -0.2,0.41l-0.71 1.51c-1.06,1.67 -1.6,1.14 -4.93,2.66 -1.57,0.72 -5.12,2.9 -6.25,3.04 -0.34,-1.28 -0.04,-10.65 -4.34,-13.88l-3.08 2.43c-0.05,1.63 -3.15,3.04 -4.52,5.14 -4.37,6.72 -1.4,3.52 -5.05,5.03 0.39,2.83 1.47,-0.01 0.54,3.74 -0.3,1.22 -0.62,1.82 -0.92,3.45 -1.99,12.86 -0.19,28.11 -1.5,40.57 -0.38,3.64 -2.36,9.43 -2.31,11.29 1.39,1.72 2.09,2.17 3.31,3.78 2.21,2.92 2.22,1.44 5.28,2.42 2.88,3.49 1.29,1.46 4.78,3.85 2.19,1.51 2.21,3.28 5.96,1.76 -2.42,-2.66 -8,-0.46 -8.22,-6.61l10.72 -0.99c1.61,-1.08 1.24,-0.72 3.35,-0.97l0.28 -10.07 2.61 1.79c2.64,2.24 3.54,4.92 5.41,7.86 2.16,3.38 3.22,9.4 7.55,10.37 3.07,-0.32 2.01,-4.21 1.91,-10.11l0 -38 -0.62 -9.74 77.1 0.11c1.29,-0.98 2.94,-0.74 4.77,-0.74 5.49,-0.01 11.12,-4.5 15.07,-7.94 2.52,-2.2 3.31,-2.13 2.78,-5.29 11.21,-0.12 97.79,-0.97 100.95,0.47l0.39 51.38c0.48,2.47 2.14,-2.09 2.06,6.67 -0.03,4.48 -0.95,5.93 0.19,7.1l0.19 -50.94c0.48,-3.77 0.23,-18.2 -0.65,-16.47 -0.1,0.19 0.13,-0.32 -1.41,-0.61l-39.99 -0.24c-6.95,-0.03 -38.5,0.28 -42.66,-0.32l-2.02 -0.23c-6.32,-0.97 -5.21,2.03 -10.93,-2.34 -9.43,-7.2 -18.73,-10.3 -30.22,-14.45 -9.59,-3.47 -26.48,-8.56 -36.19,-6.55 -4.65,0.97 -5.33,3.91 -10.21,4.43z"/>
   <path class="fil4" d="M172.72 320.61c-3.34,6.99 -5.28,4.41 -14.32,9 -2.84,1.44 -5.1,2.62 -7.64,4.19l-6.94 4.31c-2.43,1.45 -5.2,2.37 -7.96,3.87 -2.27,1.23 -4.92,2.21 -8.65,2.28 -2.53,0.04 -3.46,0.08 -5.17,-0.69 -4.36,-1.95 -5.87,-2.38 -9.21,-7.56 -6.35,0.33 -5.79,7.14 -24.26,1.41 -0.16,-0.05 -1.14,-0.33 -1.68,-0.45 -1.33,-0.29 -1.85,-0.44 -3.67,-0.44 3.51,3.52 16.49,0.77 10.3,8.9 -2.03,2.66 -0.74,2.38 -2.77,3.81 -0.1,3.12 -1.54,6.26 -2.86,8.57 -1.35,2.37 -3.86,5.09 -2.96,8.5 -0.72,9.64 0.44,6.53 -1.27,18.32 -0.48,3.24 -0.89,15.87 0.67,17.88 3.29,1.43 6.29,-1.32 8.9,-2.91 5.73,-3.48 6.04,-2.33 8.85,-3.99 3.02,-1.78 3.83,-2.97 7.93,-4.32l16.23 -8.98c5.4,-2.99 3.34,-4.84 6.45,-6.48l8.43 -3.67c4,-1.09 6.87,-1 9.7,-3.46 -3.73,0.34 -0.99,0.36 -2.04,-0.85 0.78,-3.48 0.16,-4.47 -2.57,-5.66 -1.32,0.63 -1.19,0.54 -1.9,1.64l-1.42 2.4c-0.06,0.08 -0.17,0.23 -0.27,0.33 -3.27,-1.56 -0.09,-3.47 -3.08,-3.76 -2.95,-0.29 -0.84,1.64 -5.12,-0.63 -2.02,-1.08 -0.26,-0.37 -2.55,-0.69 -3.79,-0.54 -4.54,-2.1 -7.53,1.23 0.81,2.88 4.64,6.41 4.57,8.73l-0.67 1.91c-3.86,-1.16 -2.01,-6.28 -4.76,-6.18 -1.7,4.01 1.3,4.94 1.47,8.38 -0.91,1.76 -1.71,1.61 -1.88,3.26 -0.08,0.78 0.19,1.74 0.22,2.09 0,0.01 0.66,1.07 -0.7,2.87 -6.98,-3.39 2.94,-6.17 -1.54,-11.73 -5.6,2.87 0.4,2.64 -1.54,5.45 -2.41,-0.96 -0.25,-0.44 -2.94,-4.53 -1.88,-0.1 -1.84,-0.39 -3.4,0.33 -0.15,0.06 -0.51,0.33 -0.64,0.41l-0.62 0.43c-4.33,2.87 -1.58,3.71 -3.98,5.75 -1.52,1.29 -2.58,1 -4.59,3.11 -1.41,1.49 -2.41,3.38 -4.77,3.25 0.56,-4.28 3.25,-1.2 2.76,-6.23 2.98,0.64 2.22,1.14 4.09,-1.08 1.97,-2.33 2.08,-1.3 2.97,-3.38 -1.54,-2.03 -2.18,-1.17 -3.64,-3.27 -0.86,-1.23 -1.42,-3.39 -2.31,-4.88 -1.42,-2.38 -1.47,-2.53 -1.27,-5.72 0.41,-6.44 -0.99,-2.19 -2.06,-5.13 11.5,-8.16 5.14,-5.03 9.17,-9.18 1.94,0.15 2.96,0.86 4.31,2.24l3.94 2.23c2.48,0.96 0.69,0.11 2.46,2.11 5.84,0.08 24.12,0.36 29.43,-0.36l8.47 -0.76c1.28,-1.8 0.71,-2.09 2.47,-3.68l3.33 -2.82c3.72,-2.22 14.15,1.3 15.58,4.64 -0.28,-2.01 -1.42,-1.44 4.28,-2.05 3.75,-0.4 16.04,-1.58 18.99,-2.51l11.77 -3.52 3.36 -2.77c0.59,-7.48 -2.1,-9.1 -5.29,-13.36 -3.92,-5.25 -8.48,-5.17 -9.19,-10.26 3.18,0.44 5.54,2.74 8.06,4.7 1.15,0.89 2.38,1.35 3.59,1.97 2.88,1.49 7.8,3.97 11.46,2.4 0.52,-0.22 0.7,-0.41 0.91,-0.57 0.07,-0.06 0.18,-0.17 0.25,-0.23l0.52 -0.49c0.07,-0.07 0.19,-0.17 0.26,-0.24l1.01 -1.26c0.16,-0.39 0.41,-2.32 0.43,-2.51 0.4,-3.03 0.2,-3.02 1.24,-5.31 0.26,0.21 1.77,0.32 1.57,3.62l-1.69 8.33c-0.72,1.85 -1.38,2.98 -3.1,3.9 -2.06,1.08 0.98,-0.46 -0.68,0.28 -0.06,0.03 -0.98,0.44 -1.01,0.45l-4.68 1.39c-0.31,8 2.94,8.64 -0.45,12.58l-0.72 0.82c-1.69,2.21 -0.74,3.89 -0.07,5.35 0.05,0.11 0.16,0.27 0.2,0.41 -2.47,0.59 -1.61,2.02 -6.16,4.1 -1.17,0.54 -1.55,0.31 -2.72,0.88 0.12,1.52 0.36,2.09 1.05,3.06 0.39,0.55 1.45,1.52 2.06,1.94 -1.65,1.87 -1.39,0.74 -1.54,2.66 3.65,-0.29 -0.35,-0.58 3.1,-1.5 -0.18,3.42 0.16,-0.24 -0.65,2.19l-1.59 2.28c-0.8,1 -0.48,0.49 -0.81,1.49 1.16,-0.82 2.1,-1.63 3.04,-2.35 0.91,-0.69 0.88,-0.75 1.41,-1.13 2,-1.47 -0.09,-0.68 2.44,-1.13 2.2,-1.95 3.43,-4.22 8.1,-6.34 2.09,-0.94 3.25,-1.56 4.97,-2.7 1.52,-1.01 3.2,-1.66 4.32,-3.09 -3,0.54 -5.39,2.58 -8.49,2.61 0.1,-1.31 0.22,-0.81 0.35,-1.24l0.27 -0.76c0.04,-0.13 0.09,-0.25 0.13,-0.38 2.61,-9.04 1.56,-2.33 2.72,-5.37 0.81,-2.11 -0.77,-6.96 2.59,-10.93 1.06,-1.26 0.75,-0.91 2.06,-1.91 0.17,-2.7 0.81,-7.11 -1.62,-8.51 -0.53,-0.31 -1.43,-0.31 -2.32,-0.75 -0.01,-1.98 -0.12,-5.71 0.24,-7.5 0.01,-0.05 0.78,-2.59 0.83,-2.7 0.38,-0.94 0.25,-0.6 0.71,-1.31 0.39,-0.59 0.21,0.24 0.61,-0.8 -1.14,-0.68 -1.94,-0.55 -3.25,-1.54 1.26,-0.78 2.75,-0.41 3.89,-1.21 -9.27,-0.23 -19.03,0.42 -28.22,0.07 -8.95,-0.34 -18.89,-0.42 -27.9,0.16l0.14 -2.38 -0.7 1.32c-0.06,0.14 -0.11,0.27 -0.17,0.41 -1.28,3.11 -3.12,8.85 -5.46,10.88z"/>
   <path class="fil5" d="M174.8 257.58c2.59,0.36 17.73,0.49 19.68,-0.14 1.38,-2.82 0.38,-23.77 0.53,-28.83 8.35,-0.94 16.58,1.89 29.06,-4.19 7.24,-3.53 13.41,-9.2 16.25,-17.69 6.04,-18.05 -2.87,-35.56 -24.47,-40.48 -9.97,-2.27 -21.72,-0.92 -32.17,-0.6 -11.13,0.33 -9.27,-0.87 -9.26,7.57 0.02,11.58 -0.43,81.57 0.38,84.36z"/>
   <path class="fil6" d="M143.55 137.78l-0.05 -9.11c31.09,0.27 62.06,-0.1 93.09,-0.04 15.4,0.03 30.83,-0.16 46.22,-0.04 6.42,0.05 43.74,-0.52 46.33,0.33 0.96,2.16 0.73,74.78 0.71,87.44 -0.01,10.5 -7.4,19.87 -7.72,21.55l-0.32 2.15c0.45,-0.45 0.48,-0.44 0.82,-0.85 1.15,-1.38 2.07,-3.9 4.17,-4.74 -0.86,2.11 -1.27,0.52 -0.61,3.58 0.44,2.04 0.56,1.76 0.57,4.49l2.02 1.03c0.09,4.39 0.21,11.19 1.05,15 0.49,2.26 0.16,3.87 1.15,6.08 1.08,2.38 1.55,2.08 3.51,2.84 0.11,0.05 0.24,0.1 0.36,0.15 0.11,0.04 0.24,0.11 0.35,0.15 3.02,1.2 4.75,0.06 7.25,1.18 0.54,0.24 0.83,2.57 3.68,-0.12 1.94,-1.82 1.4,-1.5 6.04,-1.45 0.78,0.01 1.58,0 2.27,0.19l1.41 0.61c2.39,0.97 2.42,0.35 5.02,0.2 2.01,-0.12 7.53,0.11 9.07,-0.82 3.5,-2.14 0.89,-4.4 6.43,-3.35 0.55,-1.08 1.15,-1.8 1.53,-2.64 0.68,-1.5 0.35,-2.14 1.05,-3.53 0.8,-0.81 1.74,0.25 3.67,-1.99l1.02 -1.61c0.05,-0.11 0.12,-0.25 0.17,-0.35 0.04,-0.1 0.1,-0.24 0.14,-0.35l0.28 -1.02c0.18,-1.26 -0.25,-0.97 0.21,-2.57 0.34,-1.17 0.22,0.86 0.65,-1.98 0.11,-0.73 0.03,-1.71 0.02,-2.47l2.01 -1.06c-0.38,-0.95 -1.24,-9.41 -0.81,-11.13l0.49 -1.38c0.17,-1.41 -0.24,-2.1 -1.61,-2.74l3.49 -0.81c-2.12,-2.05 -0.9,-0.37 -3.37,-1.33 -1.28,-0.5 -1.39,-1.3 -3.29,-1.76 1.03,-2.35 -1.46,1.96 0.62,-0.75 0.61,-0.8 0.44,-0.05 0.91,-1.3 -10.89,-2.61 -0.45,-3.42 -9.23,-7.25 -3.61,-1.57 -1.18,-4.39 -6.17,-4.59l-0.03 -2.97c0,0 3.9,-1.91 2.11,-3.94 -1.82,-2.06 -4.96,1.28 -5.78,-2.11 -1.94,0.05 -4.91,0.73 -6.84,0.95 -5.31,0.59 -3.58,1.04 -6.22,1.55 -11.47,2.23 -1.39,-0.81 -11.06,3.55 -0.04,-2.61 2.4,-3.03 0.35,-8.03 -3.18,0.82 -0.77,0.52 -3.14,1.61 -4.74,2.17 -4.4,2.76 -6.45,5.1l-0.77 0.67c-0.29,-8.63 0.07,-19.01 0.09,-28.11 0.02,-7.97 -1.08,-21.2 0.12,-28.48 -2.94,-4.42 0.25,-17.27 -0.93,-22.87 -4.52,-1.19 -105.65,0.66 -109.57,-0.39l-77.1 -0.11 0.62 9.74z"/>
   <path class="fil7" d="M86.64 127.7c-0.67,-0.25 -0.52,-0.38 -0.5,0.32 -1.08,1.53 -3.16,2.75 -4.6,4.16 -1.71,1.67 -1.91,3.1 -2.69,5.48 -1.69,5.14 -1.48,10.04 -0.63,15.6 0.89,5.83 2.29,7.49 5.96,11.12 5.83,5.79 9.7,5.26 7.94,8.6 -0.69,1.29 -4.85,2.41 -6.51,2.79 -1.82,-0.38 -0.48,-0.31 -2.75,0.83 -5.49,2.77 -14.19,6.96 -16.59,13.56 0.32,7.92 4.36,8.84 8.79,12.67 4.2,3.63 5.64,2.78 9.91,5.42 3.82,2.37 15.98,5.74 20.34,6.24 6.43,0.74 15.16,-0.98 20.23,-0.08l-0.22 9.23c1.43,-1.1 0.21,0.45 0.73,-1.2l-0.39 -45.72 -3.22 0.19 -10.72 0.99c0.22,6.15 5.8,3.95 8.22,6.61 -3.75,1.52 -3.77,-0.25 -5.96,-1.76 -3.49,-2.39 -1.9,-0.36 -4.78,-3.85 -3.06,-0.98 -3.07,0.5 -5.28,-2.42 -1.22,-1.61 -1.92,-2.06 -3.31,-3.78 -0.05,-1.86 1.93,-7.65 2.31,-11.29 1.31,-12.46 -0.49,-27.71 1.5,-40.57 -1.02,0.69 -0.18,0.13 -0.97,0.86 -3.1,2.92 -4.07,1.59 -7.93,2.74l-4.77 1.54c-1.76,0.54 -2.12,1.13 -4.11,1.72z"/>
   <path class="fil8" d="M261.72 111.22c4.16,0.6 35.71,0.29 42.66,0.32l39.99 0.24c1.54,0.29 1.31,0.8 1.41,0.61 0.88,-1.73 1.13,12.7 0.65,16.47 0.07,0.13 0.12,0.31 0.15,0.41l0.39 5.94c0.06,8.95 0.57,41.56 -0.05,45.41 0.5,0.75 -1.17,0.84 1.15,0.53 1.03,-0.14 0.85,-0.27 1.33,-0.66l-2.38 0.48c0.12,-4.74 -0.41,-18.54 0.9,-21.77 0.07,0 0.17,0.01 0.19,0.1l1.4 1.53 2.13 -0.96c1.99,-1.24 -1.48,-0.72 2.53,-1.09 7.33,-0.67 2.2,-0.29 5.73,-1 2.52,-0.5 4.97,0.51 6.03,0.31 3.68,-0.68 -0.88,-3.08 3.53,-1.97 0.24,-1.89 0.52,-1.31 0.59,-3.52 0.7,-0.01 1.31,0.05 1.98,-0.12 1.8,-0.46 1.16,-0.99 2.51,-2.08 0.76,-0.61 0.72,-0.32 1.59,-0.81 -0.74,-3.09 0.18,-1.46 0.52,-4.66 0.12,-1.16 -0.09,-1.74 0.31,-2.87 0.5,-1.38 0.89,-0.81 1.12,-1.91 0.58,-2.82 -1.77,-0.05 -1.08,-4.12 0.33,-1.94 0.87,-0.04 -0.6,-2.45 -0.69,-1.14 -0.35,-0.5 -0.75,-1.53 2.51,-0.87 0.21,-1.12 4.15,-0.47 -0.94,-4.4 -11.2,-6.46 -11.2,-6.46 -1.74,-1.09 -1.08,0.4 -1.25,-2l0 -3.03c0.26,-2.51 0.03,-1.43 1.98,-3.17 2.26,-2.01 3.61,-4.11 7.17,-5.33l-1.99 -2.4c-2.6,-4.29 -3.17,-3.19 -5.04,-5.73 -1.84,-2.5 -0.11,-1.59 -2.12,-2.36 -1.5,-0.58 1.2,0.51 -0.77,-0.27l-1.14 -0.5c-0.1,-0.04 -0.23,-0.13 -0.33,-0.17l-1.34 -0.3c-0.06,0 -0.21,0.03 -0.27,0.03 -0.06,0.01 -0.23,0.03 -0.29,0.03 -0.06,0 -0.25,-0.02 -0.3,-0.02l-0.66 -0.12c0.91,-1.58 2.76,-3.16 3.45,-5.32 3.11,-9.71 2.51,-2.56 5.69,-12.06 0.66,-1.96 3.13,-3.09 1.81,-5.73 -2.1,1 -0.04,2.79 -5.65,3.08l1.42 -7.81c-0.46,1.14 -0.61,1.3 -0.95,2.64 -2.05,0.36 -2.58,-0.32 -3.55,0.99l-2.82 4.48c-1.62,2.48 -3.3,5.16 -4.53,6.68 -2.75,0.08 -2.21,-0.21 -4.57,-0.68 -0.06,-5.17 3.52,-5.89 4.73,-10.39l2.05 -0.53c0.75,-0.67 1.49,-2.8 1.54,-4.25 -4.08,-2.94 -4.24,-0.57 -7.04,4.8l-3.18 4.17c-3.28,4.69 -8.41,7.23 -14.93,6.69 -5,-0.41 -5.52,-4.53 -10.1,-1.5 -0.47,3.95 2.3,4.23 4.58,5.82 -0.28,3.05 -1.18,2.82 -3.15,4.39 -2.46,1.96 -4.52,3.76 -7.89,5.47 -0.95,0.47 -1.5,0.67 -2.4,1.17 -1.38,0.75 -0.24,0.57 -2.19,0.99 -0.72,-1.26 -1.03,-2.86 -2.49,-3.66 -1.87,0.66 -1.2,1.37 -2.22,2.96 -1.31,2.04 -3.82,1.58 -5.4,4.34 -0.56,0.98 -0.26,0.69 -0.59,1.97l-0.37 1.23c-0.02,-0.08 -0.08,0.26 -0.15,0.38 -2.79,1.42 -36.24,1.67 -41.63,1.12z"/>
   <path class="fil6" d="M78.42 294.38c-2.55,1.99 -4.34,8.15 -6.18,11.31 -2.15,3.68 -4.45,7.4 -4.6,13.14 3.08,-1.3 -1.5,0.49 5.62,0.49 2.48,0 4.95,-0.01 7.43,0.02 0.24,1.01 0.44,1.8 0.81,2.56 1.02,-0.57 1.55,-0.62 2.6,-0.91 0.8,-0.22 0.95,-0.23 1.56,-0.46l3.05 0.58c0.67,0.34 1.14,0.47 2.15,0.09 3.56,-1.33 0.34,-2.87 6.72,-0.88 5.08,1.57 4.99,-0.38 7.05,-0.87 4.12,-0.98 39.32,0.44 42.34,-0.31 5.74,-1.42 4.26,-0.79 11.57,-0.84 5.34,-0.04 3.51,0.42 5.44,0.77 1.12,0.21 0.78,0 1.98,-0.35 1.73,-0.52 5.41,-1.41 7.21,-0.17 -0.63,1.23 -1.37,1.79 -1.53,3.18 0.04,-0.98 0.19,-0.61 1.08,-1.12 2.34,-2.03 4.18,-7.77 5.46,-10.88 0.06,-0.14 0.11,-0.27 0.17,-0.41l0.7 -1.32c0.44,-3.13 1.44,-5.09 1.71,-8.47 0.51,-6.43 -0.24,-22.43 -3.14,-27.54l-0.6 -0.78c1.13,4.63 5.08,19.32 2.55,23.8 -0.99,-2.71 0.48,-4.05 -2.54,-4.33 -3.69,-0.34 -2.15,1.01 -4.43,1.91 -3.18,1.27 -2.49,-0.83 -5.31,-0.85 -0.71,-0.01 -1.76,0.33 -2.48,0.72 -2.03,1.08 -2.59,1.4 -7.1,1.09 -7.15,-0.5 -3.57,0 -8.57,0.6 -4.93,0.6 -2.72,1.41 -1.6,4.68 -5.71,0.08 -25.73,-0.44 -29.87,0.79 -3.08,0.91 -3.3,0.51 -6.92,0.67 -5.96,0.27 -4.87,2.15 -7.9,-2.01 -3.58,-4.91 1.6,-1.04 -3.9,-7.47l-2.55 0.5c-0.08,0.12 -0.12,0.3 -0.16,0.39 -0.03,0.09 -0.1,0.27 -0.14,0.38l-0.73 2.24c-3.08,0.01 -4.72,0.38 -7.38,-0.32 -1.43,-0.38 0.84,-0.65 -1.54,-0.23 -7.35,1.3 -3.32,-0.46 -8.03,0.61z"/>
   <path class="fil9" d="M101.02 271.32c-9.35,6.04 -4.57,7.25 -11,11.58l-6.32 4.98c-1.57,1.32 -4.74,4.54 -5.28,6.5 4.71,-1.07 0.68,0.69 8.03,-0.61 2.38,-0.42 0.11,-0.15 1.54,0.23 2.66,0.7 4.3,0.33 7.38,0.32l0.73 -2.24c0.04,-0.11 0.11,-0.29 0.14,-0.38 0.04,-0.09 0.08,-0.27 0.16,-0.39l2.55 -0.5c5.5,6.43 0.32,2.56 3.9,7.47 3.03,4.16 1.94,2.28 7.9,2.01 3.62,-0.16 3.84,0.24 6.92,-0.67 4.14,-1.23 24.16,-0.71 29.87,-0.79 -1.12,-3.27 -3.33,-4.08 1.6,-4.68 5,-0.6 1.42,-1.1 8.57,-0.6 4.51,0.31 5.07,-0.01 7.1,-1.09 0.72,-0.39 1.77,-0.73 2.48,-0.72 2.82,0.02 2.13,2.12 5.31,0.85 2.28,-0.9 0.74,-2.25 4.43,-1.91 3.02,0.28 1.55,1.62 2.54,4.33 2.53,-4.48 -1.42,-19.17 -2.55,-23.8 0.33,-1.08 -0.33,-4.43 -1.06,-5.49 -0.97,-1.4 -3.11,-1.38 -4.82,-2.07 -9.46,-1.49 -27.14,1.2 -36.46,3.37 -17.75,4.11 -13.09,4.22 -29.55,9.63 -0.65,-0.58 -1.68,-1.42 -2.34,-2.45 -1.5,-2.38 0.43,-1.66 -1.77,-2.88z"/>
   <path class="fil10" d="M248.83 237.33l-0.1 14.97c2.02,5.25 40.16,14.36 50.68,-5.46 2.99,-5.64 3.15,-13 0.23,-18.59 -7.08,-13.56 -38.93,-16.06 -29.98,-25.05 4.52,-4.55 17.6,-1.58 23.39,0.87 0.56,0.24 1.61,0.8 2.13,0.96 1.62,0.5 0.7,0.74 1.91,-0.09 1.26,-2 0.65,-10.69 0.51,-13.75 -7.92,-6.19 -27.34,-6.38 -37.21,-1.39 -4.58,2.32 -8.79,6.77 -10.54,12.06 -4.72,14.37 6.36,21.91 17.18,26.77 4.73,2.13 13.36,4.53 14.56,8.49 2.52,8.37 -11.16,6.59 -15.18,5.91 -8.97,-1.52 -14.64,-5.8 -17.58,-5.7z"/>
   <path class="fil11" d="M349.4 180.49l2.59 0.45c-0.22,3.3 -1.42,0.58 -1.18,4.85 5.04,2.08 4.64,3.18 8.76,5.68 5.34,3.22 3.37,3.84 6.48,7.85 2.97,0 4.92,-1.66 7.03,-1.36 2.71,0.39 2.25,2.55 5.78,2.98 5.57,0.69 0.49,-0.83 7.47,1.26 3.43,1.03 4.9,0.1 7.64,-0.46 1.52,-0.32 2.39,-0.12 3.87,-0.26 2.26,-0.21 1.9,-0.72 3.69,-0.8 1.6,-0.07 5.15,0.78 7.6,0.85 4.66,0.12 12.13,-0.41 16.45,-1.22 -3.3,-2.28 -5.82,0.61 -12.22,-0.06 -1.17,-0.12 -2.39,-0.32 -4.2,-0.33 -5.18,-0.05 -5.09,0.09 -7.62,-2.15 -1.2,-1.07 -1.7,-1.21 -2.68,-2.47 -1.01,-1.3 -1.08,-1.71 -2.56,-2.42 -1.63,-0.66 -3.61,-2.58 -4.91,-3.74 1.08,-4.03 5.36,-3.86 7.11,-6.95 -9.44,3.25 -5.63,8.65 -13.81,0.58 -4.31,-4.25 -4.59,-5.1 -2.7,-6.94l2.36 -1.76c0.7,-0.54 2.33,-2.24 3.11,-3.03 7.72,-7.9 4.26,-21.75 0.88,-29.45l1.8 -0.35c-0.92,-1.3 0.06,-0.12 -0.9,-0.94 -1.38,-1.19 -1.92,-1.03 -3.19,-3.05 -0.75,-1.21 -0.38,-0.98 -1.43,-2.17 -4.27,-4.84 -4.55,-7.35 -10.4,-9.83 -2.73,-0.7 -4.44,-1.24 -6.87,-2.13 0.17,2.4 -0.49,0.91 1.25,2 0,0 10.26,2.06 11.2,6.46 -3.94,-0.65 -1.64,-0.4 -4.15,0.47 0.4,1.03 0.06,0.39 0.75,1.53 1.47,2.41 0.93,0.51 0.6,2.45 -0.69,4.07 1.66,1.3 1.08,4.12 -0.23,1.1 -0.62,0.53 -1.12,1.91 -0.4,1.13 -0.19,1.71 -0.31,2.87 -0.34,3.2 -1.26,1.57 -0.52,4.66 -0.87,0.49 -0.83,0.2 -1.59,0.81 -1.35,1.09 -0.71,1.62 -2.51,2.08 -0.67,0.17 -1.28,0.11 -1.98,0.12 -0.07,2.21 -0.35,1.63 -0.59,3.52 -4.41,-1.11 0.15,1.29 -3.53,1.97 -1.06,0.2 -3.51,-0.81 -6.03,-0.31 -3.53,0.71 1.6,0.33 -5.73,1 -4.01,0.37 -0.54,-0.15 -2.53,1.09l-2.13 0.96 -1.4 -1.53c-0.02,-0.09 -0.12,-0.1 -0.19,-0.1 -1.31,3.23 -0.78,17.03 -0.9,21.77l2.38 -0.48z"/>
   <path class="fil9" d="M220.03 128.15c3.92,1.05 105.05,-0.8 109.57,0.39 1.18,5.6 -2.01,18.45 0.93,22.87 4.73,2.44 7.92,7.05 10.36,11.95 1.15,2.33 1.82,6.07 2.52,8.82 1.03,4.03 -0.62,6.71 3.51,8.44 0.62,-3.85 0.11,-36.46 0.05,-45.41l-0.39 -5.94c-0.03,-0.1 -0.08,-0.28 -0.15,-0.41l-0.19 50.94c-1.14,-1.17 -0.22,-2.62 -0.19,-7.1 0.08,-8.76 -1.58,-4.2 -2.06,-6.67l-0.39 -51.38c-3.16,-1.44 -89.74,-0.59 -100.95,-0.47 0.53,3.16 -0.26,3.09 -2.78,5.29 -3.95,3.44 -9.58,7.93 -15.07,7.94 -1.83,0 -3.48,-0.24 -4.77,0.74z"/>
   <path class="fil2" d="M67.64 318.83c-1.31,3.43 -0.76,10.61 1.02,12.76 2.72,0.67 5.02,2 7.7,2.51 3.31,0.64 4.59,2.04 6.86,2.43 1.82,0 2.34,0.15 3.67,0.44 0.54,0.12 1.52,0.4 1.68,0.45 18.47,5.73 17.91,-1.08 24.26,-1.41 3.34,5.18 4.85,5.61 9.21,7.56 1.71,0.77 2.64,0.73 5.17,0.69 3.73,-0.07 6.38,-1.05 8.65,-2.28 2.76,-1.5 5.53,-2.42 7.96,-3.87l6.94 -4.31c2.54,-1.57 4.8,-2.75 7.64,-4.19 9.04,-4.59 10.98,-2.01 14.32,-9 -0.89,0.51 -1.04,0.14 -1.08,1.12 0.16,-1.39 0.9,-1.95 1.53,-3.18 -1.8,-1.24 -5.48,-0.35 -7.21,0.17 -1.2,0.35 -0.86,0.56 -1.98,0.35 -1.93,-0.35 -0.1,-0.81 -5.44,-0.77 -7.31,0.05 -5.83,-0.58 -11.57,0.84 -3.02,0.75 -38.22,-0.67 -42.34,0.31 -2.06,0.49 -1.97,2.44 -7.05,0.87 -6.38,-1.99 -3.16,-0.45 -6.72,0.88 -1.01,0.38 -1.48,0.25 -2.15,-0.09l-3.05 -0.58c-0.61,0.23 -0.76,0.24 -1.56,0.46 -1.05,0.29 -1.58,0.34 -2.6,0.91 -0.37,-0.76 -0.57,-1.55 -0.81,-2.56 -2.48,-0.03 -4.95,-0.02 -7.43,-0.02 -7.12,0 -2.54,-1.79 -5.62,-0.49z"/>
   <path class="fil12" d="M236.31 352.45c-1.12,1.43 -2.8,2.08 -4.32,3.09 -1.72,1.14 -2.88,1.76 -4.97,2.7 -4.67,2.12 -5.9,4.39 -8.1,6.34 -0.93,2.77 -5,4.54 -8.64,7.78 -1.43,1.27 -2.48,2.75 -4.1,4.1 -1.55,1.28 -3.22,1.92 -5.02,3.18 -7.88,5.53 -5.59,6.02 -18.51,6.28 -1.41,0.03 -2.58,0.06 -3.8,-0.36 -1.04,-0.36 -0.82,-0.38 -1.4,-0.73 -0.11,-0.07 -0.23,-0.16 -0.35,-0.23l-1.1 -0.7c0,10.65 11.42,9.37 17.23,7.35 1.53,-0.53 3.04,-1.42 4.52,-2.16 2.02,-1.02 2.31,-1.49 4.02,-2.66 7.21,-4.9 6.17,-4.8 11.35,-9.19 1.27,-1.07 2.54,-1.79 3.81,-2.86 8.29,-7.01 1.88,-3.87 14.94,-11.77 6.7,-4.04 20.11,-11.15 27.45,-13.12 4.13,-1.1 6.98,-0.93 10.45,-2.9 6.1,-3.44 8.68,-10.41 14.15,-13.07 5.69,-2.76 42.04,0.12 52.53,-1.39 5.3,-0.76 6.74,-0.23 9.21,-4.15 1.37,-2.18 1.24,-2.06 1.4,-5.31 0.28,-5.48 0,-10.9 0.54,-15.85 0.44,-4.01 1.03,-7.34 4.21,-9.14 7.83,-4.42 16.85,2.74 20.57,3.71 4.62,1.21 8.06,0.88 12.12,-0.3 4.89,-1.41 6.47,-3.22 11.85,-4.58 3.85,-0.97 11.99,-5.06 15.44,-8.18 2.07,-1.87 4.32,-5.78 5.36,-8.51 3.22,-8.51 3.22,-13.12 1.89,-23.04 -0.29,-2.19 0,-4.33 -0.17,-6.51 -0.29,-3.82 -1.97,-8.44 -0.43,-11.78 1.51,-3.27 1.49,-1.68 1.49,-5.7l1.03 0c-1.63,-0.89 -4.12,-0.99 -6.46,-0.79 -0.02,1.17 1.06,6.07 1.44,7.38 3.43,11.64 3.4,28.14 -2.81,38.96 -6.58,11.46 -15.4,8.23 -22.73,13.79 -1.75,1.32 -4.1,1.72 -6.42,2.65 -11.02,4.36 -18.67,-4.58 -20.09,-5.06 -1.81,-0.61 -6.87,0.25 -9.2,0.31 -4.47,0.1 -4.03,-1.11 -6.98,-0.63l-0.8 0.29c-1.06,1.06 -0.45,7.4 -0.42,8.83 0.11,5.97 0.59,23.24 0,27.23 -3.57,0.98 -43.07,0.43 -51.87,0.28 -8.97,-0.16 -10.61,-1.47 -14.43,2.22 -2.76,2.65 -5.46,6.18 -7.79,9.75 -3.06,4.69 -6.63,3.4 -12.73,4.2 -3.73,0.49 -3.13,1.68 -5.9,2.64 -2.32,0.8 -3.93,1.1 -6.21,2.15 -2.99,1.37 -8.59,4.74 -11.25,5.46z"/>
   <path class="fil11" d="M178.27 350.97c6.47,4.36 3.79,4.77 5.9,7.69 1.72,2.37 6.31,2.63 9.21,4.57l-6.09 3.52c-0.12,-0.34 0.28,-0.81 -0.46,-1.99 -0.67,-1.05 -1.01,-0.11 -1.59,-2.28 -4.52,0.36 -2.42,1.74 -4.62,2.55 -0.46,-1.26 -0.13,-0.76 0.15,-1.19 0.8,-1.22 0.93,-0.49 1.48,-1.64 -0.11,-0.07 -0.31,-0.29 -0.36,-0.19l-1.31 -0.77c-0.44,-0.33 -0.81,-0.78 -1.21,-1.22 -2.16,-1.05 -1.53,-0.27 -2.36,3.08 -0.49,1.97 1.04,-0.38 -0.71,1.25l-0.69 -1.74c-0.58,0.77 -0.69,4.21 -0.71,5.81 2.7,-0.27 1.14,-0.46 2.01,-0.66 3.17,-0.73 2.03,3.49 5.73,1.12 -0.53,-1.61 0.01,-0.19 -2.96,-1.66l-2.82 -1.94c0.12,-0.07 0.33,-0.29 0.39,-0.16l12.39 2.95c-0.11,0.66 -3.59,5.77 -5.05,6.44 -1.62,0.75 -2.85,0.74 -4.24,1.45l-2.65 1.93c-0.97,0.68 0.32,0 -1.19,0.74 -0.79,1.77 -0.51,2.83 -0.51,5.27l1.1 0.7c0.12,0.07 0.24,0.16 0.35,0.23 0.58,0.35 0.36,0.37 1.4,0.73 1.22,0.42 2.39,0.39 3.8,0.36 12.92,-0.26 10.63,-0.75 18.51,-6.28 1.8,-1.26 3.47,-1.9 5.02,-3.18 1.62,-1.35 2.67,-2.83 4.1,-4.1 3.64,-3.24 7.71,-5.01 8.64,-7.78 -2.53,0.45 -0.44,-0.34 -2.44,1.13 -0.53,0.38 -0.5,0.44 -1.41,1.13 -0.94,0.72 -1.88,1.53 -3.04,2.35 0.33,-1 0.01,-0.49 0.81,-1.49l1.59 -2.28c0.81,-2.43 0.47,1.23 0.65,-2.19 -3.45,0.92 0.55,1.21 -3.1,1.5 0.15,-1.92 -0.11,-0.79 1.54,-2.66 -0.61,-0.42 -1.67,-1.39 -2.06,-1.94 -0.69,-0.97 -0.93,-1.54 -1.05,-3.06 1.17,-0.57 1.55,-0.34 2.72,-0.88 4.55,-2.08 3.69,-3.51 6.16,-4.1 -0.04,-0.14 -0.15,-0.3 -0.2,-0.41 -0.67,-1.46 -1.62,-3.14 0.07,-5.35l0.72 -0.82c3.39,-3.94 0.14,-4.58 0.45,-12.58l4.68 -1.39c0.03,-0.01 0.95,-0.42 1.01,-0.45 1.66,-0.74 -1.38,0.8 0.68,-0.28 1.72,-0.92 2.38,-2.05 3.1,-3.9l1.69 -8.33c0.2,-3.3 -1.31,-3.41 -1.57,-3.62 -1.04,2.29 -0.84,2.28 -1.24,5.31 -0.02,0.19 -0.27,2.12 -0.43,2.51l-1.01 1.26c-0.07,0.07 -0.19,0.17 -0.26,0.24l-0.52 0.49c-0.07,0.06 -0.18,0.17 -0.25,0.23 -0.21,0.16 -0.39,0.35 -0.91,0.57 -3.66,1.57 -8.58,-0.91 -11.46,-2.4 -1.21,-0.62 -2.44,-1.08 -3.59,-1.97 -2.52,-1.96 -4.88,-4.26 -8.06,-4.7 0.71,5.09 5.27,5.01 9.19,10.26 3.19,4.26 5.88,5.88 5.29,13.36l-3.36 2.77 -11.77 3.52c-2.95,0.93 -15.24,2.11 -18.99,2.51 -5.7,0.61 -4.56,0.04 -4.28,2.05z"/>
   <path class="fil13" d="M150.82 368.7c2.43,-1.88 4.68,-2.05 8.27,-2.33 5.06,-0.39 4.27,-0.95 7.69,-2.88 2.86,-4.81 -0.61,-6.16 -0.78,-8.49 -0.34,-4.77 2.84,-3.85 6.18,-3.3 1.04,2.39 0.35,3.15 2.52,2.62 -0.61,4.53 1.93,2.62 4.67,5.7 0.4,0.44 0.77,0.89 1.21,1.22l1.31 0.77c0.05,-0.1 0.25,0.12 0.36,0.19 -0.55,1.15 -0.68,0.42 -1.48,1.64 -0.28,0.43 -0.61,-0.07 -0.15,1.19 2.2,-0.81 0.1,-2.19 4.62,-2.55 0.58,2.17 0.92,1.23 1.59,2.28 0.74,1.18 0.34,1.65 0.46,1.99l6.09 -3.52c-2.9,-1.94 -7.49,-2.2 -9.21,-4.57 -2.11,-2.92 0.57,-3.33 -5.9,-7.69 -1.43,-3.34 -11.86,-6.86 -15.58,-4.64l-3.33 2.82c-1.76,1.59 -1.19,1.88 -2.47,3.68l-8.47 0.76c-5.31,0.72 -23.59,0.44 -29.43,0.36 -1.77,-2 0.02,-1.15 -2.46,-2.11l-3.94 -2.23c-1.35,-1.38 -2.37,-2.09 -4.31,-2.24 -4.03,4.15 2.33,1.02 -9.17,9.18 1.07,2.94 2.47,-1.31 2.06,5.13 -0.2,3.19 -0.15,3.34 1.27,5.72 0.89,1.49 1.45,3.65 2.31,4.88 1.46,2.1 2.1,1.24 3.64,3.27 -0.89,2.08 -1,1.05 -2.97,3.38 -1.87,2.22 -1.11,1.72 -4.09,1.08 0.49,5.03 -2.2,1.95 -2.76,6.23 2.36,0.13 3.36,-1.76 4.77,-3.25 2.01,-2.11 3.07,-1.82 4.59,-3.11 2.4,-2.04 -0.35,-2.88 3.98,-5.75l0.62 -0.43c0.13,-0.08 0.49,-0.35 0.64,-0.41 1.56,-0.72 1.52,-0.43 3.4,-0.33 2.69,4.09 0.53,3.57 2.94,4.53 1.94,-2.81 -4.06,-2.58 1.54,-5.45 4.48,5.56 -5.44,8.34 1.54,11.73 1.36,-1.8 0.7,-2.86 0.7,-2.87 -0.03,-0.35 -0.3,-1.31 -0.22,-2.09 0.17,-1.65 0.97,-1.5 1.88,-3.26 -0.17,-3.44 -3.17,-4.37 -1.47,-8.38 2.75,-0.1 0.9,5.02 4.76,6.18l0.67 -1.91c0.07,-2.32 -3.76,-5.85 -4.57,-8.73 2.99,-3.33 3.74,-1.77 7.53,-1.23 2.29,0.32 0.53,-0.39 2.55,0.69 4.28,2.27 2.17,0.34 5.12,0.63 2.99,0.29 -0.19,2.2 3.08,3.76 0.1,-0.1 0.21,-0.25 0.27,-0.33l1.42 -2.4c0.71,-1.1 0.58,-1.01 1.9,-1.64 2.73,1.19 3.35,2.18 2.57,5.66 1.05,1.21 -1.69,1.19 2.04,0.85z"/>
   <path class="fil13" d="M364.45 202.6c8.96,-2.73 25.49,3.2 29.74,2.62 7,-0.96 5.97,-0.11 11.28,-1.12 6.71,-1.27 14.21,-0.58 21.13,-0.58 0.04,-0.01 1.02,1.16 0.42,-1.38 -0.31,-1.3 -0.41,-0.97 -1.44,-1.83 -4.32,0.81 -11.79,1.34 -16.45,1.22 -2.45,-0.07 -6,-0.92 -7.6,-0.85 -1.79,0.08 -1.43,0.59 -3.69,0.8 -1.48,0.14 -2.35,-0.06 -3.87,0.26 -2.74,0.56 -4.21,1.49 -7.64,0.46 -6.98,-2.09 -1.9,-0.57 -7.47,-1.26 -3.53,-0.43 -3.07,-2.59 -5.78,-2.98 -2.11,-0.3 -4.06,1.36 -7.03,1.36 -3.11,-4.01 -1.14,-4.63 -6.48,-7.85 -4.12,-2.5 -3.72,-3.6 -8.76,-5.68 -0.24,-4.27 0.96,-1.55 1.18,-4.85l-2.59 -0.45c-0.48,0.39 -0.3,0.52 -1.33,0.66 -2.32,0.31 -0.65,0.22 -1.15,-0.53 -4.13,-1.73 -2.48,-4.41 -3.51,-8.44 -0.7,-2.75 -1.37,-6.49 -2.52,-8.82 -2.44,-4.9 -5.63,-9.51 -10.36,-11.95 -1.2,7.28 -0.1,20.51 -0.12,28.48 -0.02,9.1 -0.38,19.48 -0.09,28.11l0.77 -0.67c2.05,-2.34 1.71,-2.93 6.45,-5.1 2.37,-1.09 -0.04,-0.79 3.14,-1.61 2.05,5 -0.39,5.42 -0.35,8.03 9.67,-4.36 -0.41,-1.32 11.06,-3.55 2.64,-0.51 0.91,-0.96 6.22,-1.55 1.93,-0.22 4.9,-0.9 6.84,-0.95z"/>
   <path class="fil14" d="M398.5 182.19l15.77 -10.52c3.44,-2.39 2.57,-5.3 6.89,-6.62 4.32,-1.32 4.89,-3.23 4.97,-8.27 -0.14,-4.46 -2.61,-5.7 -6.18,-6.69 -7.13,-1.98 -3.62,0.01 -15.1,-3.9 -4.54,-1.55 -12.9,-5.36 -14.71,-4.95l-1.8 0.35c3.38,7.7 6.84,21.55 -0.88,29.45 -0.78,0.79 -2.41,2.49 -3.11,3.03l-2.36 1.76c-1.89,1.84 -1.61,2.69 2.7,6.94 8.18,8.07 4.37,2.67 13.81,-0.58z"/>
   <path class="fil11" d="M259.7 110.99l2.02 0.23c5.39,0.55 38.84,0.3 41.63,-1.12 0.07,-0.12 0.13,-0.46 0.15,-0.38l0.37 -1.23c0.33,-1.28 0.03,-0.99 0.59,-1.97 1.58,-2.76 4.09,-2.3 5.4,-4.34 1.02,-1.59 0.35,-2.3 2.22,-2.96 1.46,0.8 1.77,2.4 2.49,3.66 1.95,-0.42 0.81,-0.24 2.19,-0.99 0.9,-0.5 1.45,-0.7 2.4,-1.17 3.37,-1.71 5.43,-3.51 7.89,-5.47 1.97,-1.57 2.87,-1.34 3.15,-4.39 -2.28,-1.59 -5.05,-1.87 -4.58,-5.82 4.58,-3.03 5.1,1.09 10.1,1.5 6.52,0.54 11.65,-2 14.93,-6.69l3.18 -4.17c2.8,-5.37 2.96,-7.74 7.04,-4.8 -0.25,-1.29 -0.05,-1.08 -0.51,-1.91 -3.1,-0.72 -3.58,-0.2 -5.45,2.26 -7.41,9.73 -2.38,3.02 -20.45,6.77 -10.59,2.19 -24.01,5.91 -33.14,11.53 -4.83,2.97 -8.57,7.66 -16.67,10.55 -2.62,0.93 -5.43,0.26 -7.24,1.49 -4.17,2.8 2.75,1.1 -8.09,5.26l-6.36 2.88c-1.23,0.58 -2.35,0.8 -3.26,1.28z"/>
   <path class="fil14" d="M329.13 309.91c-0.99,0.91 -10.09,0.56 -12.38,0.62 0.05,0.17 0.15,0.36 0.21,0.5 0.05,0.13 0.14,0.33 0.2,0.48l0.45 1.4c0.04,1.09 -1.49,1.81 -1.51,1.83 -0.07,0.05 -0.22,0.13 -0.29,0.18 -1.9,1.5 0.08,3.51 -4.25,3.81 -4.89,0.33 -2.8,0.57 -6.22,2.18l-2.88 1.79c-1.23,0.77 -1.34,0.6 -2.69,0.69 -2.22,0.13 -3.06,0.37 -5.16,0.5 -0.32,0.02 -2.44,0.13 -2.57,0.17 -1.73,0.51 -1.64,-0.95 -1.67,1.41l55.25 0.05 -0.08 -36.55c-2.37,-2.45 -4.65,-2.94 -7.34,-4.2 -4.02,-1.9 -5.31,-3.66 -8.2,-3.93 -0.62,6.11 -0.16,15.57 -0.17,22.3 0,3.27 0.63,6.15 -0.7,6.77z"/>
   <path class="fil6" d="M290.37 325.47c0.03,-2.36 -0.06,-0.9 1.67,-1.41 0.13,-0.04 2.25,-0.15 2.57,-0.17 2.1,-0.13 2.94,-0.37 5.16,-0.5 1.35,-0.09 1.46,0.08 2.69,-0.69l2.88 -1.79c3.42,-1.61 1.33,-1.85 6.22,-2.18 4.33,-0.3 2.35,-2.31 4.25,-3.81 0.07,-0.05 0.22,-0.13 0.29,-0.18 0.02,-0.02 1.55,-0.74 1.51,-1.83l-0.45 -1.4c-0.06,-0.15 -0.15,-0.35 -0.2,-0.48 -0.06,-0.14 -0.16,-0.33 -0.21,-0.5 2.29,-0.06 11.39,0.29 12.38,-0.62l-53.51 0.87c-2.14,0.03 -15.52,-0.51 -17.09,0.58 0.86,1.09 1.83,1.67 3.42,1.24 -1.66,1.06 -2.43,0.02 -3.52,1.61 -0.08,0.11 -0.13,0.25 -0.19,0.37 -0.62,1.26 0.31,0.89 -1.27,2.78l-3.48 5.1c-0.73,2.01 1.95,2.56 4.07,3 3.31,0.68 2.25,-0.72 4.03,1.4l3.51 4.76c0.92,1.91 0.63,1.45 0.08,3.03 1.95,-0.11 1.2,-0.06 2.55,-0.5 -0.2,1.7 -0.49,1.25 -0.51,3.58 4.48,0.33 2.76,0.85 5.74,-2.81 10.82,-13.35 7.32,-9.13 17.41,-9.45z"/>
   <path class="fil9" d="M122.44 176.91l3.22 -0.19 0.39 45.72c-0.52,1.65 0.7,0.1 -0.73,1.2l-2.22 1c-5.92,1 -4.3,4.17 -16.95,4.55 -15.08,0.45 -15.03,7.18 -9.75,5.14l22.5 -4.37c2.92,-0.68 4.78,-2 7.62,-2.29 0.29,5.43 -0.27,11.86 -0.34,17.44l-0.14 17.31c3.78,0.91 -0.03,-0.64 1.84,-0.1 0.06,0.01 0.18,0.08 0.25,0.11l2.64 0.56c2.38,-0.04 5.2,-0.51 6.44,-2.46l-8.37 1.75c-1.03,-7.02 -0.17,-48.17 0.43,-56.76 2.04,-0.98 5.08,-1.58 8.21,-1.56l1.27 2.42c1.52,2.16 3.03,1.17 3.75,-1.05 0.17,-0.49 0.27,-1.15 0.4,-1.65l0.27 11.11c-0.18,0.79 -0.67,0.37 -1.6,1.51 -2.33,2.86 -1.44,14.09 -1.41,18.04 0.03,3.26 -0.49,4.49 -0.46,7.54l3.19 0.29 -0.08 6.86 -2.69 -0.38 0.02 8.16c3.13,1.77 2.21,-0.92 2.8,1.83l0.99 -0.79c0.2,-2.26 0.97,-63.31 -0.44,-66.48 -1.13,-2.53 -0.28,0.54 -2.35,-2.78 -1.1,-1.75 0.96,-0.07 -1.09,-1.52l1.27 -0.89c0.07,-0.06 0.21,-0.19 0.32,-0.29 -4.33,-0.97 -5.39,-6.99 -7.55,-10.37 -1.87,-2.94 -2.77,-5.62 -5.41,-7.86l-2.61 -1.79 -0.28 10.07c-2.11,0.25 -1.74,-0.11 -3.35,0.97z"/>
   <path class="fil15" d="M166.78 363.49c-3.42,1.93 -2.63,2.49 -7.69,2.88 -3.59,0.28 -5.84,0.45 -8.27,2.33 -2.83,2.46 -5.7,2.37 -9.7,3.46l-8.43 3.67c-3.11,1.64 -1.05,3.49 -6.45,6.48l-16.23 8.98c-4.1,1.35 -4.91,2.54 -7.93,4.32 -2.81,1.66 -3.12,0.51 -8.85,3.99 -2.61,1.59 -5.61,4.34 -8.9,2.91 -1.56,-2.01 -1.15,-14.64 -0.67,-17.88 1.71,-11.79 0.55,-8.68 1.27,-18.32 -0.87,0.82 -1.02,-0.17 -1.38,4.1 -0.2,2.27 -0.44,2.3 -0.82,4.31 -0.64,3.37 0.05,7.09 -0.23,10.56 -0.62,7.83 -3.86,18.31 4.71,19.5 7.01,0.98 22.03,-5.61 27.77,-9.1 3.81,-2.32 10.31,-5.47 13.34,-7.72 0.99,-0.74 2.11,-1.44 2.94,-2.19l1.26 -1.31c0.54,-0.51 0.88,-0.76 1.45,-1.12 5.65,-3.66 7.82,-4.05 14.74,-6.32 6.05,-1.97 7.88,0.3 14.4,-0.49 4.41,-0.53 0.89,-2.75 12.89,0.05 0.49,0.87 0.28,0.62 0.51,2.05 1.51,-0.74 0.22,-0.06 1.19,-0.74l2.65 -1.93c1.39,-0.71 2.62,-0.7 4.24,-1.45 1.46,-0.67 4.94,-5.78 5.05,-6.44l-12.39 -2.95c-0.06,-0.13 -0.27,0.09 -0.39,0.16l2.82 1.94c2.97,1.47 2.43,0.05 2.96,1.66 -3.7,2.37 -2.56,-1.85 -5.73,-1.12 -0.87,0.2 0.69,0.39 -2.01,0.66 0.02,-1.6 0.13,-5.04 0.71,-5.81 0.25,-1.39 0.47,-0.76 -0.13,-1.84 -3.36,1.76 0.5,1.71 -3.64,1.77 -1.99,0.02 -3.09,0.26 -5.06,0.95z"/>
   <path class="fil1" d="M108.24 89.51c0.4,5.04 5.02,7.03 7.29,10.27 -0.65,2.19 -0.79,1.56 -1.16,3.7l3.08 -2.43c4.3,3.23 4,12.6 4.34,13.88 1.13,-0.14 4.68,-2.32 6.25,-3.04 3.33,-1.52 3.87,-0.99 4.93,-2.66l0.71 -1.51c0.05,-0.1 0.11,-0.29 0.2,-0.41l0.7 2.08c0.52,1.12 -0.7,0.21 1.16,1.36 1.21,0.76 2.76,0.81 4.3,0.8 -0.11,-1.26 -0.5,-2.09 -0.93,-3.11 -1.74,-4.11 -4.81,-4.07 -7.65,-5.16 -0.68,-2.67 -0.67,-3.08 -0.06,-5.44 4.81,1.05 -0.57,1.4 5.08,5.81 1.98,0.36 2.52,0.5 4.08,-0.79 -5.33,-0.01 -3.97,-1.88 -4.93,-4.73 -0.04,-0.11 -0.1,-0.24 -0.14,-0.34l-0.58 -1.61c4.64,-1.31 0.74,0.51 3.76,0.39 4.62,-0.18 0.52,-2.58 3.43,-2.96 0.72,-0.96 1.93,-0.48 3.59,-0.47 4.11,0.04 3.1,0.62 4.01,-2.02 0.36,-1.03 -0.44,-3.65 6.44,-2.15 2.46,0.54 1.56,0.79 3.53,1.03 4.92,0.59 6.55,-0.19 10.13,3.03 0.28,0.25 -0.26,0.33 1.06,1.1 -0.72,1.77 -0.02,0.26 -0.88,1.61l-2.72 3.53c0.41,1.64 -0.41,0.72 1.08,1.02 1.58,-3.22 3.24,-4.1 3.81,-8.21 -11.97,-6.21 -18.8,-7.28 -30.92,-9.4 -3.7,-0.65 -14.84,-0.6 -19.68,-0.37 -3.16,0.15 -8.82,1.58 -11.62,3.78 -1.22,0.96 -1.59,1.57 -1.69,3.42z"/>
   <path class="fil1" d="M195.03 182.97l0 30.72c14.89,2.09 27.85,-3.27 26.51,-18.93 -1.19,-14.01 -13.06,-16.64 -24.52,-15.25 -2.77,0.34 -1.99,0.61 -1.99,3.46z"/>
   <path class="fil11" d="M359.33 75.13l-2.05 0.53c-1.21,4.5 -4.79,5.22 -4.73,10.39 2.36,0.47 1.82,0.76 4.57,0.68 1.23,-1.52 2.91,-4.2 4.53,-6.68l2.82 -4.48c0.97,-1.31 1.5,-0.63 3.55,-0.99 0.34,-1.34 0.49,-1.5 0.95,-2.64l-1.42 7.81c5.61,-0.29 3.55,-2.08 5.65,-3.08 1.32,2.64 -1.15,3.77 -1.81,5.73 -3.18,9.5 -2.58,2.35 -5.69,12.06 -0.69,2.16 -2.54,3.74 -3.45,5.32l0.66 0.12c0.05,0 0.24,0.02 0.3,0.02 0.06,0 0.23,-0.02 0.29,-0.03 0.06,0 0.21,-0.03 0.27,-0.03l1.34 0.3c0.1,0.04 0.23,0.13 0.33,0.17l1.14 0.5c1.97,0.78 -0.73,-0.31 0.77,0.27 2.01,0.77 0.28,-0.14 2.12,2.36 1.87,2.54 2.44,1.44 5.04,5.73l1.99 2.4c-3.56,1.22 -4.91,3.32 -7.17,5.33 -1.95,1.74 -1.72,0.66 -1.98,3.17 1.47,-0.68 0.27,-0.05 1.21,-0.69l2.6 -2.15c4.42,-3.8 6.11,-4.39 7.09,-5.24 1.37,-1.2 2.04,-2.05 3.39,-3.24 4.45,-3.92 9.47,-7.65 9.44,-16.18 0.15,-3.14 -1.45,-4.39 -3.11,-6.04 -2.32,-2.31 -2.8,-2.38 -5.73,-4.03 -4.27,-2.4 -5.45,-0.82 -6.83,-2.92 -2.11,-3.19 1.58,-4.98 -4.78,-4.98 0.23,-2.85 1.3,-2.3 1.54,-5.14 -6.4,-6.75 -8.39,4.5 -9.53,6.39 -1.08,1.8 -0.74,1.31 -3.31,1.31l0 -2.05z"/>
   <path class="fil14" d="M137.21 260.53c1.25,0.25 4.89,-0.99 5.73,-1.89 -0.59,-2.75 0.33,-0.06 -2.8,-1.83l-0.02 -8.16 2.69 0.38 0.08 -6.86 -3.19 -0.29c-0.03,-3.05 0.49,-4.28 0.46,-7.54 -0.03,-3.95 -0.92,-15.18 1.41,-18.04 0.93,-1.14 1.42,-0.72 1.6,-1.51l-0.27 -11.11c-0.13,0.5 -0.23,1.16 -0.4,1.65 -0.72,2.22 -2.23,3.21 -3.75,1.05l-1.27 -2.42c-3.13,-0.02 -6.17,0.58 -8.21,1.56 -0.6,8.59 -1.46,49.74 -0.43,56.76l8.37 -1.75z"/>
   <path class="fil11" d="M96.4 234.33c0.84,2.02 -0.09,0.91 2.23,0.8 0.48,-0.02 2.62,-0.24 3.39,-0.31 0.33,-0.03 11.97,-3.11 17.49,-3.57 -0.16,1.82 -1.05,2.12 1.67,3.96 1.47,0.99 0.75,0.24 1.99,1.62 1.04,1.17 0.13,1.11 1.98,1.61 0,3.89 0.08,7.76 -0.19,11.56 -0.19,2.74 0.19,7.76 0.19,11.55 -2.99,0.69 -0.92,0.83 -6.6,1.61 -4.06,0.56 -8.74,2.62 -12.09,4.85l-4.24 2.44c-0.09,0.06 -0.23,0.14 -0.32,0.2 -1.1,0.72 -0.28,0.13 -0.88,0.67 2.2,1.22 0.27,0.5 1.77,2.88 0.66,1.03 1.69,1.87 2.34,2.45 16.46,-5.41 11.8,-5.52 29.55,-9.63 9.32,-2.17 27,-4.86 36.46,-3.37 -1.52,-1.22 -3.62,-0.74 -5.19,-0.97 0.22,-9.24 -10.26,-9.95 -16.08,-8 -5.5,1.86 -2.48,2.72 -5.94,3.17l-0.99 0.79c-0.84,0.9 -4.48,2.14 -5.73,1.89 -1.24,1.95 -4.06,2.42 -6.44,2.46l-2.64 -0.56c-0.07,-0.03 -0.19,-0.1 -0.25,-0.11 -1.87,-0.54 1.94,1.01 -1.84,0.1l0.14 -17.31c0.07,-5.58 0.63,-12.01 0.34,-17.44 -2.84,0.29 -4.7,1.61 -7.62,2.29l-22.5 4.37z"/>
   <path class="fil1" d="M136.48 103.65c1.89,0.91 3.84,0.3 4.74,2.61 1.17,3.02 -0.25,2.89 1.98,6.23l3.51 0.21c-0.07,-1.37 -3.66,-10.2 0.53,-7.8 0.44,0.25 1.07,1.35 1.18,1.77 0.44,1.69 0.01,3.38 0.55,5.18l3.22 0.19c3.7,-0.76 8.88,-4.13 11.44,-6.65 2.1,-2.07 1.85,-1.79 2.85,-4.77l1.86 -0.33c-1.49,-0.3 -0.67,0.62 -1.08,-1.02l2.72 -3.53c0.86,-1.35 0.16,0.16 0.88,-1.61 -1.32,-0.77 -0.78,-0.85 -1.06,-1.1 -3.58,-3.22 -5.21,-2.44 -10.13,-3.03 -1.97,-0.24 -1.07,-0.49 -3.53,-1.03 -6.88,-1.5 -6.08,1.12 -6.44,2.15 -0.91,2.64 0.1,2.06 -4.01,2.02 -1.66,-0.01 -2.87,-0.49 -3.59,0.47 -2.91,0.38 1.19,2.78 -3.43,2.96 -3.02,0.12 0.88,-1.7 -3.76,-0.39l0.58 1.61c0.04,0.1 0.1,0.23 0.14,0.34 0.96,2.85 -0.4,4.72 4.93,4.73 -1.56,1.29 -2.1,1.15 -4.08,0.79z"/>
   <path class="fil11" d="M326.97 278.89c-3.07,-4.32 -0.68,-12.84 -2.28,-14.55 -0.09,-0.09 -5.26,-2.51 -7.25,-2.57 -0.18,1.31 -0.15,0.84 -0.73,1.51l-1.03 -2.01c-2.7,1.86 -2.3,3.46 -4.74,4.52 0.67,-3.36 3.22,-5.04 4.26,-9.08 -1.64,1.57 -2.02,4.33 -6.18,8.96 -3.69,4.1 -7.61,7.82 -12.72,10.41l-3.87 1.75c-7.82,3.97 -2.23,1.23 -9.68,3.78 -0.21,0.07 -2.55,0.88 -2.78,0.99 2.84,3.08 6.17,4.08 12.04,3.57 16.75,-1.43 13.24,-11.44 21.42,-9.96 1.76,0.32 0.59,0.46 2.79,0.63 1.42,0.11 2.29,-0.02 3.91,0.24 2.78,0.43 4.49,1.15 6.84,1.81z"/>
   <path class="fil15" d="M82.53 122.38c4.8,1.28 -0.47,2.92 4.62,4.1l-0.51 1.22c1.99,-0.59 2.35,-1.18 4.11,-1.72l4.77 -1.54c3.86,-1.15 4.83,0.18 7.93,-2.74 0.79,-0.73 -0.05,-0.17 0.97,-0.86 0.3,-1.63 0.62,-2.23 0.92,-3.45 0.93,-3.75 -0.15,-0.91 -0.54,-3.74 3.65,-1.51 0.68,1.69 5.05,-5.03 1.37,-2.1 4.47,-3.51 4.52,-5.14 0.37,-2.14 0.51,-1.51 1.16,-3.7 -2.27,-3.24 -6.89,-5.23 -7.29,-10.27 -0.81,1.2 -0.44,2.28 -0.41,3.65 0.03,1.09 0.05,-0.26 -0.03,1.14 -0.42,7.46 2.52,6.95 2.89,10.25 0.28,2.54 -1.6,2.42 -4.02,2.42 -0.91,-1.92 2.88,-0.17 -2.11,-3 -0.11,-0.06 -0.24,-0.13 -0.34,-0.19l-1.96 -1.65c-0.08,-0.06 -0.21,-0.14 -0.31,-0.2l-1.92 -1.16c-0.1,-0.06 -0.23,-0.14 -0.32,-0.19l-2.74 -1.88c-0.08,-0.07 -0.18,-0.19 -0.26,-0.26l-2.08 -1.53c-1.35,-0.79 -3.24,-2.19 -4.15,-0.5 -0.67,1.26 0.82,2.19 1.66,3 1.07,1.04 1.56,1.65 2.72,2.42 -1.76,2.62 -1.86,0.56 -1.03,4.11 -2.87,-1.92 -4.94,-3.91 -8.22,-5.65 0.08,3.63 -0.22,0.68 1.54,3.09 -0.07,0.03 -0.22,-0.06 -0.25,0.03 -0.48,1.93 -0.24,-1.73 -1.29,0.99l5.98 5.32c2.25,1.84 0.33,0.69 2.78,1.33 2.27,0.59 1.07,-0.37 2.06,1.53 0.5,0.96 0.28,1.27 1.76,2.35 1.46,1.09 3.81,1.98 5.4,2.82l0 3.09c-11.01,5.82 -8.75,0.93 -15.32,-2.14 -3.65,-1.71 -4.25,-1.01 -7.86,-3.96 -1.76,-1.44 -5.68,-4.12 -8.15,-4.18 1.5,2.84 1.79,1.91 4.4,3.82 1.19,0.86 1.14,0.86 2.44,1.67 6.63,4.18 1.33,1.41 8.06,4.26 2.18,0.93 2.75,2.46 5.13,3.09l0 1.54c-1.79,0.15 -1.23,1.01 -4.7,-1.45l-6.57 -4.74c-0.87,-0.56 -1.25,-0.9 -2.12,-1.47l-2.06 -1.53c-0.52,-0.39 0.3,-0.21 -1.3,-0.76 -1.19,-0.42 -0.35,-0.2 -1.74,-0.32l1.35 1.22c3.17,2.81 0.71,1.93 3.98,3.72l3.4 2.77z"/>
   <path class="fil12" d="M123.1 224.64l2.22 -1 0.22 -9.23c-5.07,-0.9 -13.8,0.82 -20.23,0.08 -4.36,-0.5 -16.52,-3.87 -20.34,-6.24 -4.27,-2.64 -5.71,-1.79 -9.91,-5.42 -4.43,-3.83 -8.47,-4.75 -8.79,-12.67 -1.09,5.17 1.22,11.97 5.35,16.06 5.77,5.71 14.3,9.51 22.21,11.68 6.3,1.72 24.12,5.8 29.78,3.08 -0.28,0.77 -0.59,0.48 -0.78,1.66 -0.15,1 -0.01,0.73 0.27,2z"/>
   <path class="fil15" d="M72.77 144.46c-1.49,0.49 -1.3,-0.34 -0.22,1.13 1.79,2.46 4.24,1.51 4.33,5.54 -2.81,-0.65 -5.03,-3.31 -5.13,1.54 1.66,0.45 2.75,1.32 3.59,2.57 -1.35,-0.31 -5.53,-2.59 -2.09,2.06l7.6 11.43c0.82,0.93 4.14,4.59 4.76,5l0 2.04c1.66,-0.38 5.82,-1.5 6.51,-2.79 1.76,-3.34 -2.11,-2.81 -7.94,-8.6 -3.67,-3.63 -5.07,-5.29 -5.96,-11.12 -0.85,-5.56 -1.06,-10.46 0.63,-15.6 0.78,-2.38 0.98,-3.81 2.69,-5.48 1.44,-1.41 3.52,-2.63 4.6,-4.16 -0.87,0.23 -2.06,0.84 -2.74,1.39l-1.9 2.21c-2.49,-1.67 -2.47,-3.25 -6.16,-4.11 0.35,1.64 0.52,0.8 0,2.06 -2.27,-0.61 -3.2,-2.37 -5.65,-2.57l5.81 5.49c1.12,0.93 2.67,1.49 2.78,2.88 0.19,2.55 -1.75,0.81 -2.72,0.2l-3.71 -2.12c-1.25,-0.78 -0.01,-1.16 -1.5,-0.48 -2.44,1.13 2.05,3.6 3.04,4.2 2.08,1.26 2.77,0.71 2.98,3.18 -1.67,-0.45 -3.74,-2.58 -5.65,-3.59 0.34,4.15 4.85,3.69 5.65,6.67 -2.52,-0.58 -7.26,-4.45 -3.6,1.03z"/>
   <path class="fil12" d="M398.5 182.19c-1.75,3.09 -6.03,2.92 -7.11,6.95 1.3,1.16 3.28,3.08 4.91,3.74 0.75,-3.18 5.31,-5.35 8.83,-7.76 8.31,-5.66 7.29,-4.43 14.14,-11.02 2.05,-1.96 2.24,-1.62 4.18,-4.03 2.75,-3.42 3.74,-4.31 3.17,-11.25 -0.09,-1.13 0.08,0.1 -0.11,-0.91 -0.28,-1.45 -0.06,-0.57 -0.38,-1.13 -0.08,5.04 -0.65,6.95 -4.97,8.27 -4.32,1.32 -3.45,4.23 -6.89,6.62l-15.77 10.52z"/>
   <path class="fil12" d="M367.35 120.09l0 3.03c2.43,0.89 4.14,1.43 6.87,2.13l-1.12 -1.24c1.86,-2.72 9.2,-7.52 13.84,-12.54 3,-3.24 3.8,-4.15 4.94,-7.9 0.71,-2.34 0.91,-8.69 -0.8,-10.98 0.03,8.53 -4.99,12.26 -9.44,16.18 -1.35,1.19 -2.02,2.04 -3.39,3.24 -0.98,0.85 -2.67,1.44 -7.09,5.24l-2.6 2.15c-0.94,0.64 0.26,0.01 -1.21,0.69z"/>
   <path class="fil12" d="M90.75 349.24c2.03,-1.43 0.74,-1.15 2.77,-3.81 6.19,-8.13 -6.79,-5.38 -10.3,-8.9 -2.27,-0.39 -3.55,-1.79 -6.86,-2.43 -2.68,-0.51 -4.98,-1.84 -7.7,-2.51 2.64,6.78 8.02,7.98 12.91,10.51 1.31,0.68 1.63,0.82 3.16,1.47l3.63 2.02c1.33,1.09 0.89,1.32 2.39,1.72l0 1.93z"/>
   <path class="fil13" d="M74.83 240.49c2.87,0 3.31,0.22 5.43,-1.24 3.55,-2.44 5.75,-2.33 6.89,-3.89 -2.3,-3.15 -11.55,-2.57 -16.43,-2.57 -3.51,0 -5.26,7.7 4.11,7.7z"/>
   <path class="fil4" d="M166.78 363.49c1.97,-0.69 3.07,-0.93 5.06,-0.95 4.14,-0.06 0.28,-0.01 3.64,-1.77 0.6,1.08 0.38,0.45 0.13,1.84l0.69 1.74c1.75,-1.63 0.22,0.72 0.71,-1.25 0.83,-3.35 0.2,-4.13 2.36,-3.08 -2.74,-3.08 -5.28,-1.17 -4.67,-5.7 -2.17,0.53 -1.48,-0.23 -2.52,-2.62 -3.34,-0.55 -6.52,-1.47 -6.18,3.3 0.17,2.33 3.64,3.68 0.78,8.49z"/>
   <path class="fil15" d="M74.31 127c-0.19,-2.39 -0.03,-1.26 -1.61,-2.5 -1.45,-1.13 -0.55,-1.09 -2.49,-1.61 0.19,2.39 0.04,1.26 1.61,2.49 1.45,1.14 0.55,1.1 2.49,1.62z"/>
   <path class="fil12" d="M418.9 207.62c1.77,0 1.99,-0.38 3.59,-0.51l0 -1.03 -4.62 0c0.19,0.77 0.12,1.54 1.03,1.54z"/>
   <path class="fil12" d="M82.02 129.57c-0.22,-1.95 0.29,-1.51 -2.06,-2.06 0.97,1.82 -0.09,1.48 2.06,2.06z"/>
   <path class="fil12" d="M82.53 122.38l-1.03 0c0.58,2.14 0.23,1.08 2.06,2.05 -0.41,-1.52 -0.21,-0.83 -1.03,-2.05z"/>
   <polygon class="fil12" points="103.07,235.87 106.67,235.87 106.67,235.36 103.07,235.36 "/>
   <polygon class="fil12" points="104.1,111.08 103.07,111.08 104,112.21 "/>
   <polygon class="fil12" points="79.96,121.35 79.96,121.86 80.56,121.43 "/>
   <polygon class="fil12" points="102.56,110.56 102.56,110.05 101.96,110.48 "/>
   <polygon class="fil12" points="79.96,121.35 79.96,120.84 79.36,121.26 "/>
   <path class="fil12" d="M101.02 110.05l0.15 -0.15c-0.01,0.01 -0.2,0.1 -0.15,0.15z"/>
   <polygon class="fil12" points="103.07,111.08 102.56,110.56 "/>
  </g>
  <path class="fil16" d="M266.62 349.17c-2.3,0 -4.63,1.33 -7.06,4 -2.4,2.66 -4.37,6.1 -5.91,10.23 -1.53,4.13 -2.3,8.2 -2.3,12.17 0,5.33 1.04,10.33 3.07,14.93 2.07,4.63 4.9,8.33 8.53,11.1 3.6,2.77 7.37,4.17 11.27,4.17 2.1,0 3.77,-0.6 5,-1.77 2.07,-2.4 3.8,-6.3 5.13,-11.73 1.34,-5.4 2,-11.17 2,-17.3 0,-5.4 -0.8,-10.04 -2.4,-13.94 -1.59,-3.86 -3.83,-6.83 -6.73,-8.83 -2.9,-2.03 -6.43,-3.03 -10.6,-3.03zm10.9 -17.57l-5.96 6.93 0.39 0.4c8.74,-5.7 16.17,-8.56 22.37,-8.56 4.7,0 8.87,1.13 12.57,3.43 3.67,2.27 6.53,5.4 8.6,9.33 2.03,3.94 3.06,8.47 3.06,13.54 0,6.13 -1,12.5 -3.03,19.03 -2,6.57 -4.87,12.9 -8.6,19 -3.7,6.1 -8.03,11.5 -13,16.27 -4.4,4.3 -9.87,7.73 -16.4,10.23 -6.5,2.5 -12.9,3.77 -19.13,3.77 -12.07,0 -21.24,-2.57 -27.57,-7.67 -6.3,-5.13 -9.47,-12.6 -9.47,-22.37 0,-8.66 2.81,-19.4 8.4,-32.2 5.6,-12.76 14.27,-28.16 25.97,-46.16 4.63,-7.37 8.43,-12.64 11.43,-15.84 1.5,-1.63 2.91,-2.76 4.2,-3.43 1.3,-0.63 3.34,-1.17 6.14,-1.57 4.9,-0.76 9.83,-1.16 14.83,-1.16 7.63,0 11.43,2.06 11.43,6.16 0,2.07 -2.4,5.27 -7.23,9.57 -2.8,2.33 -7.3,7.3 -13.56,14.87l-5.44 6.43z"/>
  <path id="1" class="fil16" d="M365.52 377.8l-6.63 0.4c-9.6,0.63 -15.53,0.97 -17.8,0.97 -3.97,0 -7.1,-0.2 -9.34,-0.64 -2.26,-0.43 -3.76,-1.16 -4.5,-2.23 -0.76,-1.1 -1.13,-2.67 -1.13,-4.73 0,-1.64 0.47,-3.97 1.4,-6.94 0.97,-3 2.8,-7.96 5.54,-14.86 2.2,-5.4 3.86,-9.67 4.96,-12.77 3.47,-9 6.2,-15.47 8.24,-19.43 0.63,-1.24 1.2,-2.27 1.7,-3.07 0.5,-0.83 1.06,-1.8 1.7,-2.9 2.16,-3.37 4.76,-6.07 7.83,-8 6.97,-4.7 13.57,-7.03 19.8,-7.03 4.97,0 7.43,1.2 7.43,3.6 0,3.2 -6.23,13.63 -18.66,31.26 -6.04,8.6 -11.34,16.57 -15.8,23.94l22.73 -1.17c1.77,-5.4 4,-9.83 6.7,-13.33 2.7,-3.47 6.13,-6.07 10.23,-7.77 4.1,-1.7 8.87,-2.53 14.3,-2.53 2.8,0 4.77,0.3 5.94,0.93 1.13,0.63 1.7,1.67 1.7,3.1 0,1.3 -0.5,3.53 -1.47,6.73 -0.97,3.17 -2.27,6.94 -3.9,11.3l-0.8 1.97c1.3,-0.13 2.13,-0.23 2.57,-0.27 0.4,-0.03 0.93,-0.06 1.56,-0.13 0.6,-0.07 1.07,-0.13 1.5,-0.17 0.4,-0.03 0.87,-0.03 1.4,-0.03 1.47,0 2.2,0.4 2.2,1.17 0,0.26 -0.06,0.46 -0.2,0.6 -1.17,2.6 -2.76,5.4 -4.83,8.43 -2.07,3 -3.97,5.4 -5.7,7.17 -1.37,1.6 -3.13,2.76 -5.34,3.4 -1.43,4.7 -4.13,13.7 -8.03,26.96 -0.13,0.6 -0.26,1.37 -0.43,2.37 -0.17,0.97 -0.27,1.63 -0.33,2.03 -1,5.4 -2.27,8.84 -3.84,10.27 -5.13,3.03 -9.66,5.3 -13.6,6.77 -3.9,1.46 -7.7,2.2 -11.43,2.2 -2.67,0 -5.07,-0.67 -7.13,-1.97 -2.1,-1.3 -3.14,-2.83 -3.14,-4.57 0,-1.7 0.67,-4.76 2.04,-9.23 1.36,-4.47 3.36,-9.93 5.96,-16.43 2.57,-6.47 4.8,-11.6 6.6,-15.37z"/>
  <path id="2" class="fil17 str0" d="M266.62 349.17c-2.3,0 -4.63,1.33 -7.06,4 -2.4,2.66 -4.37,6.1 -5.91,10.23 -1.53,4.13 -2.3,8.2 -2.3,12.17 0,5.33 1.04,10.33 3.07,14.93 2.07,4.63 4.9,8.33 8.53,11.1 3.6,2.77 7.37,4.17 11.27,4.17 2.1,0 3.77,-0.6 5,-1.77 2.07,-2.4 3.8,-6.3 5.13,-11.73 1.34,-5.4 2,-11.17 2,-17.3 0,-5.4 -0.8,-10.04 -2.4,-13.94 -1.59,-3.86 -3.83,-6.83 -6.73,-8.83 -2.9,-2.03 -6.43,-3.03 -10.6,-3.03zm10.9 -17.57l-5.96 6.93 0.39 0.4c8.74,-5.7 16.17,-8.56 22.37,-8.56 4.7,0 8.87,1.13 12.57,3.43 3.67,2.27 6.53,5.4 8.6,9.33 2.03,3.94 3.06,8.47 3.06,13.54 0,6.13 -1,12.5 -3.03,19.03 -2,6.57 -4.87,12.9 -8.6,19 -3.7,6.1 -8.03,11.5 -13,16.27 -4.4,4.3 -9.87,7.73 -16.4,10.23 -6.5,2.5 -12.9,3.77 -19.13,3.77 -12.07,0 -21.24,-2.57 -27.57,-7.67 -6.3,-5.13 -9.47,-12.6 -9.47,-22.37 0,-8.66 2.81,-19.4 8.4,-32.2 5.6,-12.76 14.27,-28.16 25.97,-46.16 4.63,-7.37 8.43,-12.64 11.43,-15.84 1.5,-1.63 2.91,-2.76 4.2,-3.43 1.3,-0.63 3.34,-1.17 6.14,-1.57 4.9,-0.76 9.83,-1.16 14.83,-1.16 7.63,0 11.43,2.06 11.43,6.16 0,2.07 -2.4,5.27 -7.23,9.57 -2.8,2.33 -7.3,7.3 -13.56,14.87l-5.44 6.43z"/>
  <path id="3" class="fil17 str0" d="M365.52 377.8l-6.63 0.4c-9.6,0.63 -15.53,0.97 -17.8,0.97 -3.97,0 -7.1,-0.2 -9.34,-0.64 -2.26,-0.43 -3.76,-1.16 -4.5,-2.23 -0.76,-1.1 -1.13,-2.67 -1.13,-4.73 0,-1.64 0.47,-3.97 1.4,-6.94 0.97,-3 2.8,-7.96 5.54,-14.86 2.2,-5.4 3.86,-9.67 4.96,-12.77 3.47,-9 6.2,-15.47 8.24,-19.43 0.63,-1.24 1.2,-2.27 1.7,-3.07 0.5,-0.83 1.06,-1.8 1.7,-2.9 2.16,-3.37 4.76,-6.07 7.83,-8 6.97,-4.7 13.57,-7.03 19.8,-7.03 4.97,0 7.43,1.2 7.43,3.6 0,3.2 -6.23,13.63 -18.66,31.26 -6.04,8.6 -11.34,16.57 -15.8,23.94l22.73 -1.17c1.77,-5.4 4,-9.83 6.7,-13.33 2.7,-3.47 6.13,-6.07 10.23,-7.77 4.1,-1.7 8.87,-2.53 14.3,-2.53 2.8,0 4.77,0.3 5.94,0.93 1.13,0.63 1.7,1.67 1.7,3.1 0,1.3 -0.5,3.53 -1.47,6.73 -0.97,3.17 -2.27,6.94 -3.9,11.3l-0.8 1.97c1.3,-0.13 2.13,-0.23 2.57,-0.27 0.4,-0.03 0.93,-0.06 1.56,-0.13 0.6,-0.07 1.07,-0.13 1.5,-0.17 0.4,-0.03 0.87,-0.03 1.4,-0.03 1.47,0 2.2,0.4 2.2,1.17 0,0.26 -0.06,0.46 -0.2,0.6 -1.17,2.6 -2.76,5.4 -4.83,8.43 -2.07,3 -3.97,5.4 -5.7,7.17 -1.37,1.6 -3.13,2.76 -5.34,3.4 -1.43,4.7 -4.13,13.7 -8.03,26.96 -0.13,0.6 -0.26,1.37 -0.43,2.37 -0.17,0.97 -0.27,1.63 -0.33,2.03 -1,5.4 -2.27,8.84 -3.84,10.27 -5.13,3.03 -9.66,5.3 -13.6,6.77 -3.9,1.46 -7.7,2.2 -11.43,2.2 -2.67,0 -5.07,-0.67 -7.13,-1.97 -2.1,-1.3 -3.14,-2.83 -3.14,-4.57 0,-1.7 0.67,-4.76 2.04,-9.23 1.36,-4.47 3.36,-9.93 5.96,-16.43 2.57,-6.47 4.8,-11.6 6.6,-15.37z"/>
 </g>
</svg>
