<?xml version="1.0" encoding="UTF-8"?>
<!DOCTYPE svg PUBLIC "-//W3C//DTD SVG 1.1//EN" "http://www.w3.org/Graphics/SVG/1.1/DTD/svg11.dtd">
<!-- Creator: CorelDRAW 2017 -->
<svg xmlns="http://www.w3.org/2000/svg" xml:space="preserve" width="500px" height="500px" version="1.1" style="shape-rendering:geometricPrecision; text-rendering:geometricPrecision; image-rendering:optimizeQuality; fill-rule:evenodd; clip-rule:evenodd"
viewBox="0 0 500 500"
 xmlns:xlink="http://www.w3.org/1999/xlink">
 <defs>
  <style type="text/css">
   <![CDATA[
    .str1 {stroke:#C7EFFC;stroke-width:10;stroke-miterlimit:22.9256}
    .str0 {stroke:#02C6F9;stroke-width:25;stroke-miterlimit:22.9256}
    .fil0 {fill:#001D26}
    .fil2 {fill:#02C6F9}
    .fil1 {fill:#C7EFFC}
   ]]>
  </style>
 </defs>
 <g id="Слой_x0020_1">
  <metadata id="CorelCorpID_0Corel-Layer"/>
  <circle class="fil0 str0" cx="250" cy="250" r="225.5"/>
  <path class="fil0" d="M273.27 301.4l0 -17.53c3,0.97 35.15,15.34 38.13,-0.37 2.07,-10.89 -18.52,-15.21 -28.35,-24.56 -11.46,-10.88 -10.82,-28.33 0.59,-38.25 9.13,-7.95 32.03,-11.08 43.89,-3.86l0.74 18.31c-7.92,-1.19 -11.97,-4.92 -22.28,-4.71 -9.22,0.2 -15.77,6.74 -9.47,13.83 6.48,7.32 43.35,14.66 33.65,45.16 -8.35,26.22 -52.35,20.07 -56.9,11.98zm-67.32 -39.31l-0.33 46.17 -20.78 0.1 -0.29 -125.49c11.67,-2.19 40.02,-1.55 50.26,1.72 12.95,4.14 22.08,13.22 24.85,27.91 1.36,7.2 0.82,15.66 -1.31,22.6 -7.2,23.43 -30.09,27.09 -52.4,26.99zm-106.3 -10.89c0.59,10.92 10.02,18.13 15.04,23.17l93.97 93.97c12.87,12.79 27.71,32.39 42.29,31.8 11.46,-0.46 17.97,-9.64 23.24,-14.94l56.03 -56.03c12.98,-12.87 25.06,-24.98 37.96,-37.92 6.51,-6.53 12.13,-12.2 18.66,-18.69 5.31,-5.28 13.68,-11.39 13.19,-23.56 -0.44,-11.15 -9.73,-18.19 -14.86,-23.32l-112.65 -112.64c-20.25,-20.37 -29,-16.23 -47.02,1.68l-93.96 93.96c-12.37,12.27 -32.66,28.19 -31.89,42.52z"/>
  <path class="fil1 str1" d="M99.65 251.2c-0.77,-14.33 19.52,-30.25 31.89,-42.52l93.96 -93.96c18.02,-17.91 26.77,-22.05 47.02,-1.68l112.65 112.64c5.13,5.13 14.42,12.17 14.86,23.32 0.49,12.17 -7.88,18.28 -13.19,23.56 -6.53,6.49 -12.15,12.16 -18.66,18.69 -12.9,12.94 -24.98,25.05 -37.96,37.92l-56.03 56.03c-5.27,5.3 -11.78,14.48 -23.24,14.94 -14.58,0.59 -29.42,-19.01 -42.29,-31.8l-93.97 -93.97c-5.02,-5.04 -14.45,-12.25 -15.04,-23.17zm144.2 -156.98c-13.02,3.07 -32.67,26.63 -42.32,36.21l-97.47 97.48c-7.66,7.47 -12.81,15.79 -9.93,28.55 2.7,12.02 27.19,32.85 36.25,41.91l97.48 97.47c7.54,7.66 15.6,12.74 28.46,9.95 11.69,-2.54 33.02,-27.44 41.87,-36.29 13.33,-13.32 25.77,-25.79 39.1,-39.11l58.37 -58.35c27.63,-27.06 -2.59,-46.73 -26.2,-70.33 -30.64,-30.63 -68.21,-66.95 -97.46,-97.49 -6.1,-6.36 -14.93,-13.11 -28.15,-10z"/>
  <path class="fil2" d="M205.96 243.8l-0.25 -43.46c18.65,-1.64 34.47,2.13 34.17,21.69 -0.3,19.34 -15.48,22.38 -33.92,21.77zm-0.01 18.29c22.31,0.1 45.2,-3.56 52.4,-26.99 2.13,-6.94 2.67,-15.4 1.31,-22.6 -2.77,-14.69 -11.9,-23.77 -24.85,-27.91 -10.24,-3.27 -38.59,-3.91 -50.26,-1.72l0.29 125.49 20.78 -0.1 0.33 -46.17z"/>
  <path class="fil2" d="M273.27 301.4c4.55,8.09 48.55,14.24 56.9,-11.98 9.7,-30.5 -27.17,-37.84 -33.65,-45.16 -6.3,-7.09 0.25,-13.63 9.47,-13.83 10.31,-0.21 14.36,3.52 22.28,4.71l-0.74 -18.31c-11.86,-7.22 -34.76,-4.09 -43.89,3.86 -11.41,9.92 -12.05,27.37 -0.59,38.25 9.83,9.35 30.42,13.67 28.35,24.56 -2.98,15.71 -35.13,1.34 -38.13,0.37l0 17.53z"/>
  <path class="fil0" d="M205.96 243.8c18.44,0.61 33.62,-2.43 33.92,-21.77 0.3,-19.56 -15.52,-23.33 -34.17,-21.69l0.25 43.46z"/>
 </g>
</svg>
