<?xml version="1.0" encoding="UTF-8"?>
<!DOCTYPE svg PUBLIC "-//W3C//DTD SVG 1.1//EN" "http://www.w3.org/Graphics/SVG/1.1/DTD/svg11.dtd">
<!-- Creator: CorelDRAW 2017 -->
<svg xmlns="http://www.w3.org/2000/svg" xml:space="preserve" width="500px" height="500px" version="1.1" style="shape-rendering:geometricPrecision; text-rendering:geometricPrecision; image-rendering:optimizeQuality; fill-rule:evenodd; clip-rule:evenodd"
viewBox="0 0 500 500"
 xmlns:xlink="http://www.w3.org/1999/xlink">
 <defs>
  <style type="text/css">
   <![CDATA[
    .str2 {stroke:black;stroke-width:2;stroke-miterlimit:22.9256}
    .str3 {stroke:#515353;stroke-width:2;stroke-miterlimit:22.9256}
    .str0 {stroke:black;stroke-width:25;stroke-miterlimit:22.9256}
    .str1 {stroke:#2B2A29;stroke-width:2.36;stroke-miterlimit:22.9256}
    .fil103 {fill:none}
    .fil108 {fill:#898989}
    .fil104 {fill:#2B2A29}
    .fil102 {fill:#23AB1A}
    .fil101 {fill:#25AB1A}
    .fil100 {fill:#27AC1A}
    .fil99 {fill:#29AC1A}
    .fil98 {fill:#2BAD1A}
    .fil97 {fill:#2CAD1A}
    .fil105 {fill:#2E2E2E}
    .fil96 {fill:#2EAE19}
    .fil95 {fill:#30AE19}
    .fil94 {fill:#32AF19}
    .fil93 {fill:#34AF19}
    .fil92 {fill:#36B019}
    .fil91 {fill:#38B019}
    .fil90 {fill:#3AB119}
    .fil89 {fill:#3CB119}
    .fil88 {fill:#3EB219}
    .fil87 {fill:#3FB219}
    .fil86 {fill:#41B318}
    .fil85 {fill:#43B318}
    .fil84 {fill:#45B418}
    .fil83 {fill:#47B418}
    .fil82 {fill:#49B518}
    .fil81 {fill:#4BB518}
    .fil80 {fill:#4DB618}
    .fil79 {fill:#4FB618}
    .fil0 {fill:#515255}
    .fil78 {fill:#51B718}
    .fil77 {fill:#52B718}
    .fil76 {fill:#54B817}
    .fil75 {fill:#56B817}
    .fil74 {fill:#58B917}
    .fil73 {fill:#5AB917}
    .fil72 {fill:#5CBA17}
    .fil71 {fill:#5EBA17}
    .fil70 {fill:#60BB17}
    .fil69 {fill:#62BB17}
    .fil68 {fill:#63BC17}
    .fil67 {fill:#65BC17}
    .fil66 {fill:#67BD16}
    .fil65 {fill:#69BD16}
    .fil64 {fill:#6BBE16}
    .fil63 {fill:#6DBE16}
    .fil62 {fill:#6FBF16}
    .fil61 {fill:#71BF16}
    .fil60 {fill:#72BF16}
    .fil59 {fill:#73C016}
    .fil58 {fill:#74C016}
    .fil57 {fill:#76C116}
    .fil56 {fill:#77C116}
    .fil55 {fill:#78C116}
    .fil54 {fill:#7AC215}
    .fil53 {fill:#7BC215}
    .fil52 {fill:#7CC215}
    .fil51 {fill:#7EC315}
    .fil50 {fill:#7FC315}
    .fil49 {fill:#80C315}
    .fil48 {fill:#82C415}
    .fil47 {fill:#83C415}
    .fil46 {fill:#84C415}
    .fil45 {fill:#86C515}
    .fil44 {fill:#87C515}
    .fil43 {fill:#88C515}
    .fil42 {fill:#8AC615}
    .fil41 {fill:#8BC615}
    .fil40 {fill:#8CC615}
    .fil39 {fill:#8EC714}
    .fil38 {fill:#8FC714}
    .fil37 {fill:#90C714}
    .fil36 {fill:#91C814}
    .fil35 {fill:#93C814}
    .fil34 {fill:#94C814}
    .fil33 {fill:#95C914}
    .fil32 {fill:#97C914}
    .fil31 {fill:#98C914}
    .fil30 {fill:#99CA14}
    .fil29 {fill:#9BCA14}
    .fil28 {fill:#9CCA14}
    .fil1 {fill:#9D6060}
    .fil27 {fill:#9DCB14}
    .fil26 {fill:#9FCB14}
    .fil25 {fill:#A0CB14}
    .fil24 {fill:#A1CC13}
    .fil23 {fill:#A3CC13}
    .fil22 {fill:#A4CC13}
    .fil21 {fill:#A5CD13}
    .fil20 {fill:#A7CD13}
    .fil19 {fill:#A8CE13}
    .fil18 {fill:#A9CE13}
    .fil17 {fill:#ABCE13}
    .fil16 {fill:#ACCF13}
    .fil15 {fill:#ADCF13}
    .fil14 {fill:#AECF13}
    .fil13 {fill:#B0D013}
    .fil12 {fill:#B1D013}
    .fil11 {fill:#B2D013}
    .fil10 {fill:#B4D112}
    .fil9 {fill:#B5D112}
    .fil8 {fill:#B6D112}
    .fil7 {fill:#B8D212}
    .fil6 {fill:#B9D212}
    .fil5 {fill:#BAD212}
    .fil4 {fill:#BCD312}
    .fil3 {fill:#BDD312}
    .fil2 {fill:url(#id1)}
    .fil106 {fill:url(#id2)}
    .fil107 {fill:url(#id3)}
   ]]>
  </style>
    <clipPath id="id0">
     <path d="M250 104.96c-80.1,0 -145.04,64.94 -145.04,145.04 0,80.1 64.94,145.04 145.04,145.04 80.1,0 145.04,-64.94 145.04,-145.04 0,-80.1 -64.94,-145.04 -145.04,-145.04z"/>
    </clipPath>
  <radialGradient id="id1" gradientUnits="userSpaceOnUse" gradientTransform="matrix(1 -0 -0 1 0 0)" cx="250" cy="250" r="161.08" fx="250" fy="250">
   <stop offset="0" style="stop-opacity:1; stop-color:#FEFEFE"/>
   <stop offset="0.901961" style="stop-opacity:1; stop-color:#8E8C8F"/>
   <stop offset="1" style="stop-opacity:1; stop-color:#1F1B20"/>
  </radialGradient>
  <radialGradient id="id2" gradientUnits="userSpaceOnUse" gradientTransform="matrix(0.999994 -0 -0 0.999994 0 0)" cx="250" cy="250" r="71" fx="250" fy="250">
   <stop offset="0" style="stop-opacity:1; stop-color:#FEFEFE"/>
   <stop offset="0.219608" style="stop-opacity:1; stop-color:#7F7F7F"/>
   <stop offset="1" style="stop-opacity:1; stop-color:black"/>
  </radialGradient>
  <radialGradient id="id3" gradientUnits="userSpaceOnUse" gradientTransform="matrix(-2.79384E-14 -1.06382 -0.921305 2.46049E-14 452 486)" cx="217.48" cy="254.28" r="39.13" fx="217.48" fy="254.28">
   <stop offset="0" style="stop-opacity:1; stop-color:#FEFEFE"/>
   <stop offset="0.168627" style="stop-opacity:1; stop-color:#86CA80"/>
   <stop offset="1" style="stop-opacity:1; stop-color:#0F9603"/>
  </radialGradient>
 </defs>
 <g id="Слой_x0020_1">
  <metadata id="CorelCorpID_0Corel-Layer"/>
  <circle class="fil0 str0" cx="253.97" cy="253.97" r="228.47"/>
  <polygon class="fil1" points="3252.71,997.06 3257.59,993 3252.29,994.5 "/>
  <circle class="fil2" cx="250" cy="250" r="170.54"/>
  <g>
   <g style="clip-path:url(#id0)">
    <polygon class="fil3" points="247.8,247.8 252.2,247.8 252.2,252.2 247.8,252.2 "/>
    <path id="1" class="fil4" d="M248.54 248.54l0 2.92 2.92 0 0 -2.92 -2.92 0zm-2.2 -2.2l7.32 0 0 7.32 -7.32 0 0 -7.32z"/>
    <path id="2" class="fil5" d="M247.07 247.07l0 5.86 5.86 0 0 -5.86 -5.86 0zm-2.2 -2.2l10.26 0 0 10.26 -10.26 0 0 -10.26z"/>
    <path id="3" class="fil6" d="M245.61 245.61l0 8.78 8.78 0 0 -8.78 -8.78 0zm-2.2 -2.2l13.18 0 0 13.18 -13.18 0 0 -13.18z"/>
    <path id="4" class="fil7" d="M244.14 244.14l0 11.72 11.72 0 0 -11.72 -11.72 0zm-2.2 -2.2l16.12 0 0 16.12 -16.12 0 0 -16.12z"/>
    <path id="5" class="fil8" d="M242.67 242.67l0 14.66 14.66 0 0 -14.66 -14.66 0zm-2.19 -2.19l19.04 0 0 19.04 -19.04 0 0 -19.04z"/>
    <path id="6" class="fil9" d="M241.21 241.21l0 17.58 17.58 0 0 -17.58 -17.58 0zm-2.2 -2.2l21.98 0 0 21.98 -21.98 0 0 -21.98z"/>
    <path id="7" class="fil10" d="M239.75 239.75l0 20.5 20.5 0 0 -20.5 -20.5 0zm-2.2 -2.2l24.9 0 0 24.9 -24.9 0 0 -24.9z"/>
    <path id="8" class="fil11" d="M238.28 238.28l0 23.44 23.44 0 0 -23.44 -23.44 0zm-2.2 -2.2l27.84 0 0 27.84 -27.84 0 0 -27.84z"/>
    <path id="9" class="fil12" d="M236.82 236.82l0 26.36 26.36 0 0 -26.36 -26.36 0zm-2.2 -2.2l30.76 0 0 30.76 -30.76 0 0 -30.76z"/>
    <path id="10" class="fil13" d="M235.35 235.35l0 29.3 29.3 0 0 -29.3 -29.3 0zm-2.2 -2.2l33.7 0 0 33.7 -33.7 0 0 -33.7z"/>
    <path id="11" class="fil14" d="M233.89 233.89l0 32.22 32.22 0 0 -32.22 -32.22 0zm-2.2 -2.2l36.62 0 0 36.62 -36.62 0 0 -36.62z"/>
    <path id="12" class="fil15" d="M232.42 232.42l0 35.16 35.16 0 0 -35.16 -35.16 0zm-2.2 -2.2l39.56 0 0 39.56 -39.56 0 0 -39.56z"/>
    <path id="13" class="fil16" d="M230.96 230.96l0 38.08 38.08 0 0 -38.08 -38.08 0zm-2.2 -2.2l42.48 0 0 42.48 -42.48 0 0 -42.48z"/>
    <path id="14" class="fil17" d="M229.49 229.49l0 41.02 41.02 0 0 -41.02 -41.02 0zm-2.2 -2.2l45.42 0 0 45.42 -45.42 0 0 -45.42z"/>
    <path id="15" class="fil18" d="M228.03 228.03l0 43.94 43.94 0 0 -43.94 -43.94 0zm-2.2 -2.2l48.34 0 0 48.34 -48.34 0 0 -48.34z"/>
    <path id="16" class="fil19" d="M226.56 226.56l0 46.88 46.88 0 0 -46.88 -46.88 0zm-2.2 -2.2l51.28 0 0 51.28 -51.28 0 0 -51.28z"/>
    <path id="17" class="fil20" d="M225.1 225.1l0 49.8 49.8 0 0 -49.8 -49.8 0zm-2.2 -2.2l54.2 0 0 54.2 -54.2 0 0 -54.2z"/>
    <path id="18" class="fil21" d="M223.63 223.63l0 52.74 52.74 0 0 -52.74 -52.74 0zm-2.2 -2.2l57.14 0 0 57.14 -57.14 0 0 -57.14z"/>
    <path id="19" class="fil22" d="M222.17 222.17l0 55.66 55.66 0 0 -55.66 -55.66 0zm-2.2 -2.2l60.06 0 0 60.06 -60.06 0 0 -60.06z"/>
    <path id="20" class="fil23" d="M220.7 220.7l0 58.6 58.6 0 0 -58.6 -58.6 0zm-2.2 -2.2l63 0 0 63 -63 0 0 -63z"/>
    <path id="21" class="fil24" d="M219.24 219.24l0 61.52 61.52 0 0 -61.52 -61.52 0zm-2.2 -2.2l65.92 0 0 65.92 -65.92 0 0 -65.92z"/>
    <path id="22" class="fil25" d="M217.77 217.77l0 64.46 64.46 0 0 -64.46 -64.46 0zm-2.2 -2.2l68.86 0 0 68.86 -68.86 0 0 -68.86z"/>
    <path id="23" class="fil26" d="M216.31 216.31l0 67.38 67.38 0 0 -67.38 -67.38 0zm-2.2 -2.2l71.78 0 0 71.78 -71.78 0 0 -71.78z"/>
    <path id="24" class="fil27" d="M214.84 214.84l0 70.32 70.32 0 0 -70.32 -70.32 0zm-2.2 -2.2l74.72 0 0 74.72 -74.72 0 0 -74.72z"/>
    <path id="25" class="fil28" d="M213.38 213.38l0 73.24 73.24 0 0 -73.24 -73.24 0zm-2.2 -2.2l77.64 0 0 77.64 -77.64 0 0 -77.64z"/>
    <path id="26" class="fil29" d="M211.91 211.91l0 76.18 76.18 0 0 -76.18 -76.18 0zm-2.2 -2.2l80.58 0 0 80.58 -80.58 0 0 -80.58z"/>
    <path id="27" class="fil30" d="M210.45 210.45l0 79.1 79.1 0 0 -79.1 -79.1 0zm-2.2 -2.2l83.5 0 0 83.5 -83.5 0 0 -83.5z"/>
    <path id="28" class="fil31" d="M208.98 208.98l0 82.04 82.04 0 0 -82.04 -82.04 0zm-2.2 -2.2l86.44 0 0 86.44 -86.44 0 0 -86.44z"/>
    <path id="29" class="fil32" d="M207.52 207.52l0 84.96 84.96 0 0 -84.96 -84.96 0zm-2.2 -2.2l89.36 0 0 89.36 -89.36 0 0 -89.36z"/>
    <path id="30" class="fil33" d="M206.05 206.05l0 87.9 87.9 0 0 -87.9 -87.9 0zm-2.2 -2.2l92.3 0 0 92.3 -92.3 0 0 -92.3z"/>
    <path id="31" class="fil34" d="M204.59 204.59l0 90.82 90.82 0 0 -90.82 -90.82 0zm-2.2 -2.2l95.22 0 0 95.22 -95.22 0 0 -95.22z"/>
    <path id="32" class="fil35" d="M203.12 203.12l0 93.76 93.76 0 0 -93.76 -93.76 0zm-2.2 -2.2l98.16 0 0 98.16 -98.16 0 0 -98.16z"/>
    <path id="33" class="fil36" d="M201.66 201.66l0 96.68 96.68 0 0 -96.68 -96.68 0zm-2.2 -2.2l101.08 0 0 101.08 -101.08 0 0 -101.08z"/>
    <path id="34" class="fil37" d="M200.19 200.19l0 99.62 99.62 0 0 -99.62 -99.62 0zm-2.2 -2.2l104.02 0 0 104.02 -104.02 0 0 -104.02z"/>
    <path id="35" class="fil38" d="M198.73 198.73l0 102.54 102.54 0 0 -102.54 -102.54 0zm-2.2 -2.2l106.94 0 0 106.94 -106.94 0 0 -106.94z"/>
    <path id="36" class="fil39" d="M197.26 197.26l0 105.48 105.48 0 0 -105.48 -105.48 0zm-2.2 -2.2l109.88 0 0 109.88 -109.88 0 0 -109.88z"/>
    <path id="37" class="fil40" d="M195.8 195.8l0 108.4 108.4 0 0 -108.4 -108.4 0zm-2.2 -2.2l112.8 0 0 112.8 -112.8 0 0 -112.8z"/>
    <path id="38" class="fil41" d="M194.33 194.33l0 111.34 111.34 0 0 -111.34 -111.34 0zm-2.2 -2.2l115.74 0 0 115.74 -115.74 0 0 -115.74z"/>
    <path id="39" class="fil42" d="M192.87 192.87l0 114.26 114.26 0 0 -114.26 -114.26 0zm-2.2 -2.2l118.66 0 0 118.66 -118.66 0 0 -118.66z"/>
    <path id="40" class="fil43" d="M191.4 191.4l0 117.2 117.2 0 0 -117.2 -117.2 0zm-2.2 -2.2l121.6 0 0 121.6 -121.6 0 0 -121.6z"/>
    <path id="41" class="fil44" d="M189.94 189.94l0 120.12 120.12 0 0 -120.12 -120.12 0zm-2.2 -2.2l124.52 0 0 124.52 -124.52 0 0 -124.52z"/>
    <path id="42" class="fil45" d="M188.47 188.47l0 123.06 123.06 0 0 -123.06 -123.06 0zm-2.2 -2.2l127.46 0 0 127.46 -127.46 0 0 -127.46z"/>
    <path id="43" class="fil46" d="M187.01 187.01l0 125.98 125.98 0 0 -125.98 -125.98 0zm-2.2 -2.2l130.38 0 0 130.38 -130.38 0 0 -130.38z"/>
    <path id="44" class="fil47" d="M185.54 185.54l0 128.92 128.92 0 0 -128.92 -128.92 0zm-2.19 -2.19l133.3 0 0 133.3 -133.3 0 0 -133.3z"/>
    <path id="45" class="fil48" d="M184.08 184.08l0 131.84 131.84 0 0 -131.84 -131.84 0zm-2.2 -2.2l136.24 0 0 136.24 -136.24 0 0 -136.24z"/>
    <path id="46" class="fil49" d="M182.61 182.61l0 134.78 134.78 0 0 -134.78 -134.78 0zm-2.19 -2.19l139.16 0 0 139.16 -139.16 0 0 -139.16z"/>
    <path id="47" class="fil50" d="M181.15 181.15l0 137.7 137.7 0 0 -137.7 -137.7 0zm-2.2 -2.2l142.1 0 0 142.1 -142.1 0 0 -142.1z"/>
    <path id="48" class="fil51" d="M179.68 179.68l0 140.64 140.64 0 0 -140.64 -140.64 0zm-2.2 -2.2l145.04 0 0 145.04 -145.04 0 0 -145.04z"/>
    <path id="49" class="fil52" d="M178.22 178.22l0 143.56 143.56 0 0 -143.56 -143.56 0zm-2.2 -2.2l147.96 0 0 147.96 -147.96 0 0 -147.96z"/>
    <path id="50" class="fil53" d="M176.75 176.75l0 146.5 146.5 0 0 -146.5 -146.5 0zm-2.19 -2.19l150.88 0 0 150.88 -150.88 0 0 -150.88z"/>
    <path id="51" class="fil54" d="M175.29 175.29l0 149.42 149.42 0 0 -149.42 -149.42 0zm-2.2 -2.2l153.82 0 0 153.82 -153.82 0 0 -153.82z"/>
    <path id="52" class="fil55" d="M173.82 173.82l0 152.36 152.36 0 0 -152.36 -152.36 0zm-2.19 -2.19l156.74 0 0 156.74 -156.74 0 0 -156.74z"/>
    <path id="53" class="fil56" d="M172.36 172.36l0 155.28 155.28 0 0 -155.28 -155.28 0zm-2.2 -2.2l159.68 0 0 159.68 -159.68 0 0 -159.68z"/>
    <path id="54" class="fil57" d="M170.89 170.89l0 158.22 158.22 0 0 -158.22 -158.22 0zm-2.19 -2.19l162.6 0 0 162.6 -162.6 0 0 -162.6z"/>
    <path id="55" class="fil58" d="M169.43 169.43l0 161.14 161.14 0 0 -161.14 -161.14 0zm-2.2 -2.2l165.54 0 0 165.54 -165.54 0 0 -165.54z"/>
    <path id="56" class="fil59" d="M167.96 167.96l0 164.08 164.08 0 0 -164.08 -164.08 0zm-2.19 -2.19l168.46 0 0 168.46 -168.46 0 0 -168.46z"/>
    <path id="57" class="fil60" d="M166.5 166.5l0 167 167 0 0 -167 -167 0zm-2.2 -2.2l171.4 0 0 171.4 -171.4 0 0 -171.4z"/>
    <path id="58" class="fil61" d="M165.03 165.03l0 169.94 169.94 0 0 -169.94 -169.94 0zm-2.19 -2.19l174.32 0 0 174.32 -174.32 0 0 -174.32z"/>
    <path id="59" class="fil62" d="M163.57 163.57l0 172.86 172.86 0 0 -172.86 -172.86 0zm-2.2 -2.2l177.26 0 0 177.26 -177.26 0 0 -177.26z"/>
    <path id="60" class="fil63" d="M162.1 162.1l0 175.8 175.8 0 0 -175.8 -175.8 0zm-2.19 -2.19l180.18 0 0 180.18 -180.18 0 0 -180.18z"/>
    <path id="61" class="fil64" d="M160.64 160.64l0 178.72 178.72 0 0 -178.72 -178.72 0zm-2.2 -2.2l183.12 0 0 183.12 -183.12 0 0 -183.12z"/>
    <path id="62" class="fil65" d="M159.17 159.17l0 181.66 181.66 0 0 -181.66 -181.66 0zm-2.19 -2.19l186.04 0 0 186.04 -186.04 0 0 -186.04z"/>
    <path id="63" class="fil66" d="M157.71 157.71l0 184.58 184.58 0 0 -184.58 -184.58 0zm-2.2 -2.2l188.98 0 0 188.98 -188.98 0 0 -188.98z"/>
    <path id="64" class="fil67" d="M156.24 156.24l0 187.52 187.52 0 0 -187.52 -187.52 0zm-2.19 -2.19l191.9 0 0 191.9 -191.9 0 0 -191.9z"/>
    <path id="65" class="fil68" d="M154.78 154.78l0 190.44 190.44 0 0 -190.44 -190.44 0zm-2.2 -2.2l194.84 0 0 194.84 -194.84 0 0 -194.84z"/>
    <path id="66" class="fil69" d="M153.31 153.31l0 193.38 193.38 0 0 -193.38 -193.38 0zm-2.19 -2.19l197.76 0 0 197.76 -197.76 0 0 -197.76z"/>
    <path id="67" class="fil70" d="M151.85 151.85l0 196.3 196.3 0 0 -196.3 -196.3 0zm-2.2 -2.2l200.7 0 0 200.7 -200.7 0 0 -200.7z"/>
    <path id="68" class="fil71" d="M150.38 150.38l0 199.24 199.24 0 0 -199.24 -199.24 0zm-2.19 -2.19l203.62 0 0 203.62 -203.62 0 0 -203.62z"/>
    <path id="69" class="fil72" d="M148.92 148.92l0 202.16 202.16 0 0 -202.16 -202.16 0zm-2.2 -2.2l206.56 0 0 206.56 -206.56 0 0 -206.56z"/>
    <path id="70" class="fil73" d="M147.45 147.45l0 205.1 205.1 0 0 -205.1 -205.1 0zm-2.19 -2.19l209.48 0 0 209.48 -209.48 0 0 -209.48z"/>
    <path id="71" class="fil74" d="M145.99 145.99l0 208.02 208.02 0 0 -208.02 -208.02 0zm-2.2 -2.2l212.42 0 0 212.42 -212.42 0 0 -212.42z"/>
    <path id="72" class="fil75" d="M144.52 144.52l0 210.96 210.96 0 0 -210.96 -210.96 0zm-2.19 -2.19l215.34 0 0 215.34 -215.34 0 0 -215.34z"/>
    <path id="73" class="fil76" d="M143.06 143.06l0 213.88 213.88 0 0 -213.88 -213.88 0zm-2.2 -2.2l218.28 0 0 218.28 -218.28 0 0 -218.28z"/>
    <path id="74" class="fil77" d="M141.59 141.59l0 216.82 216.82 0 0 -216.82 -216.82 0zm-2.19 -2.19l221.2 0 0 221.2 -221.2 0 0 -221.2z"/>
    <path id="75" class="fil78" d="M140.13 140.13l0 219.74 219.74 0 0 -219.74 -219.74 0zm-2.2 -2.2l224.14 0 0 224.14 -224.14 0 0 -224.14z"/>
    <path id="76" class="fil79" d="M138.66 138.66l0 222.68 222.68 0 0 -222.68 -222.68 0zm-2.19 -2.19l227.06 0 0 227.06 -227.06 0 0 -227.06z"/>
    <path id="77" class="fil80" d="M137.2 137.2l0 225.6 225.6 0 0 -225.6 -225.6 0zm-2.2 -2.2l230 0 0 230 -230 0 0 -230z"/>
    <path id="78" class="fil81" d="M135.73 135.73l0 228.54 228.54 0 0 -228.54 -228.54 0zm-2.19 -2.19l232.92 0 0 232.92 -232.92 0 0 -232.92z"/>
    <path id="79" class="fil82" d="M134.27 134.27l0 231.46 231.46 0 0 -231.46 -231.46 0zm-2.2 -2.2l235.86 0 0 235.86 -235.86 0 0 -235.86z"/>
    <path id="80" class="fil83" d="M132.8 132.8l0 234.4 234.4 0 0 -234.4 -234.4 0zm-2.19 -2.19l238.78 0 0 238.78 -238.78 0 0 -238.78z"/>
    <path id="81" class="fil84" d="M131.34 131.34l0 237.32 237.32 0 0 -237.32 -237.32 0zm-2.2 -2.2l241.72 0 0 241.72 -241.72 0 0 -241.72z"/>
    <path id="82" class="fil85" d="M129.87 129.87l0 240.26 240.26 0 0 -240.26 -240.26 0zm-2.19 -2.19l244.64 0 0 244.64 -244.64 0 0 -244.64z"/>
    <path id="83" class="fil86" d="M128.41 128.41l0 243.18 243.18 0 0 -243.18 -243.18 0zm-2.2 -2.2l247.58 0 0 247.58 -247.58 0 0 -247.58z"/>
    <path id="84" class="fil87" d="M126.94 126.94l0 246.12 246.12 0 0 -246.12 -246.12 0zm-2.19 -2.19l250.5 0 0 250.5 -250.5 0 0 -250.5z"/>
    <path id="85" class="fil88" d="M125.48 125.48l0 249.04 249.04 0 0 -249.04 -249.04 0zm-2.2 -2.2l253.44 0 0 253.44 -253.44 0 0 -253.44z"/>
    <path id="86" class="fil89" d="M124.01 124.01l0 251.98 251.98 0 0 -251.98 -251.98 0zm-2.19 -2.19l256.36 0 0 256.36 -256.36 0 0 -256.36z"/>
    <path id="87" class="fil90" d="M122.55 122.55l0 254.9 254.9 0 0 -254.9 -254.9 0zm-2.2 -2.2l259.3 0 0 259.3 -259.3 0 0 -259.3z"/>
    <path id="88" class="fil91" d="M121.08 121.08l0 257.84 257.84 0 0 -257.84 -257.84 0zm-2.19 -2.19l262.22 0 0 262.22 -262.22 0 0 -262.22z"/>
    <path id="89" class="fil92" d="M119.62 119.62l0 260.76 260.76 0 0 -260.76 -260.76 0zm-2.2 -2.2l265.16 0 0 265.16 -265.16 0 0 -265.16z"/>
    <path id="90" class="fil93" d="M118.15 118.15l0 263.7 263.7 0 0 -263.7 -263.7 0zm-2.19 -2.19l268.08 0 0 268.08 -268.08 0 0 -268.08z"/>
    <path id="91" class="fil94" d="M116.69 116.69l0 266.62 266.62 0 0 -266.62 -266.62 0zm-2.2 -2.2l271.02 0 0 271.02 -271.02 0 0 -271.02z"/>
    <path id="92" class="fil95" d="M115.23 115.23l0 269.54 269.54 0 0 -269.54 -269.54 0zm-2.2 -2.2l273.94 0 0 273.94 -273.94 0 0 -273.94z"/>
    <path id="93" class="fil96" d="M113.76 113.76l0 272.48 272.48 0 0 -272.48 -272.48 0zm-2.2 -2.2l276.88 0 0 276.88 -276.88 0 0 -276.88z"/>
    <path id="94" class="fil97" d="M112.29 112.29l0 275.42 275.42 0 0 -275.42 -275.42 0zm-2.19 -2.19l279.8 0 0 279.8 -279.8 0 0 -279.8z"/>
    <path id="95" class="fil98" d="M110.83 110.83l0 278.34 278.34 0 0 -278.34 -278.34 0zm-2.2 -2.2l282.74 0 0 282.74 -282.74 0 0 -282.74z"/>
    <path id="96" class="fil99" d="M109.37 109.37l0 281.26 281.26 0 0 -281.26 -281.26 0zm-2.2 -2.2l285.66 0 0 285.66 -285.66 0 0 -285.66z"/>
    <path id="97" class="fil100" d="M107.9 107.9l0 284.2 284.2 0 0 -284.2 -284.2 0zm-2.2 -2.2l288.6 0 0 288.6 -288.6 0 0 -288.6z"/>
    <path id="98" class="fil101" d="M106.44 106.44l0 287.12 287.12 0 0 -287.12 -287.12 0zm-2.2 -2.2l291.52 0 0 291.52 -291.52 0 0 -291.52z"/>
    <path id="99" class="fil102" d="M104.97 104.97l0 290.06 290.06 0 0 -290.06 -290.06 0zm-2.2 -2.2l294.46 0 0 294.46 -294.46 0 0 -294.46z"/>
    <path id="100" class="fil3" d="M103.51 103.51l0 292.98 292.98 0 0 -292.98 -292.98 0zm-1.47 -1.47l295.92 0 0 295.92 -295.92 0 0 -295.92z"/>
   </g>
   <path id="101" class="fil103 str1" d="M250 104.96c-80.1,0 -145.04,64.94 -145.04,145.04 0,80.1 64.94,145.04 145.04,145.04 80.1,0 145.04,-64.94 145.04,-145.04 0,-80.1 -64.94,-145.04 -145.04,-145.04z"/>
  </g>
  <circle class="fil104 str2" cx="250" cy="250" r="123.87"/>
  <circle class="fil105 str2" cx="250" cy="250" r="98.24"/>
  <circle class="fil106 str1" cx="250" cy="250" r="75.17"/>
  <polygon class="fil107 str2" points="294.62,251.78 258.58,230.97 222.53,210.16 222.53,251.78 222.53,293.41 258.58,272.59 "/>
  <g>
   <circle class="fil108" cx="115.81" cy="114.69" r="12.42"/>
   <line class="fil103 str3" x1="124.32" y1="105.65" x2="107.3" y2= "123.73" />
   <circle class="fil108" transform="matrix(0.869178 0.641024 -0.641024 0.869178 383.182 114.688)" r="11.5"/>
   <line class="fil103 str3" x1="395.4" y1="112.46" x2="370.96" y2= "116.92" />
   <circle class="fil108" cx="383.19" cy="385.31" r="12.42"/>
   <line class="fil103 str3" x1="374.67" y1="376.27" x2="391.7" y2= "394.36" />
   <circle class="fil108" transform="matrix(-0.869178 0.641024 0.641024 0.869178 115.811 385.312)" r="11.5"/>
   <line class="fil103 str3" x1="103.59" y1="383.09" x2="128.03" y2= "387.54" />
   <circle class="fil103 str2" cx="115.81" cy="114.69" r="12.42"/>
   <circle class="fil103 str2" cx="384.19" cy="114.69" r="12.42"/>
   <circle class="fil103 str2" cx="115.81" cy="385.31" r="12.42"/>
   <circle class="fil103 str2" cx="384.19" cy="385.31" r="12.42"/>
  </g>
 </g>
</svg>
