<?xml version="1.0" encoding="UTF-8"?>
<!DOCTYPE svg PUBLIC "-//W3C//DTD SVG 1.1//EN" "http://www.w3.org/Graphics/SVG/1.1/DTD/svg11.dtd">
<!-- Creator: CorelDRAW 2017 -->
<svg xmlns="http://www.w3.org/2000/svg" xml:space="preserve" width="500px" height="500px" version="1.1" style="shape-rendering:geometricPrecision; text-rendering:geometricPrecision; image-rendering:optimizeQuality; fill-rule:evenodd; clip-rule:evenodd"
viewBox="0 0 500 500"
 xmlns:xlink="http://www.w3.org/1999/xlink">
 <defs>
  <style type="text/css">
   <![CDATA[
    .str0 {stroke:#616161;stroke-width:20;stroke-miterlimit:22.9256}
    .fil1 {fill:#397CEE}
    .fil2 {fill:#7BBC28}
    .fil8 {fill:#B7DF78}
    .fil4 {fill:#F56363}
    .fil6 {fill:#F98382}
    .fil3 {fill:#FD9B3A}
    .fil7 {fill:#FDC874}
    .fil5 {fill:#FEFEFF}
    .fil0 {fill:white}
   ]]>
  </style>
 </defs>
 <g id="Слой_x0020_1">
  <metadata id="CorelCorpID_0Corel-Layer"/>
  <circle class="fil0 str0" cx="250" cy="250" r="239.39"/>
 </g>
 <g id="Слой_x0020_1_0">
  <metadata id="CorelCorpID_1Corel-Layer"/>
  <g id="_1950407069392">
   <path class="fil1" d="M222.35 333.84c0.8,-2.93 1.03,-3.32 2.44,-5.56 29.85,0.73 100.72,11.29 139.64,14.74 10.45,0.92 11.13,-0.23 6.35,9.26l-148.83 -12.17c-0.55,-2.94 -0.44,-3.16 0.4,-6.27zm10.83 -40.1l149.31 24.13c0.85,3.81 -0.41,5.06 -1.58,9.14l-151.14 -21.21 3.41 -12.06zm8.47 -34.18c6.77,-0.16 142.32,32.04 151.05,34.23l-3.62 8.35c-10.07,-0.74 -147.09,-29.39 -150.32,-31.14l2.89 -11.44zm107.4 -5.72l52.37 14.73c-0.58,3.71 -1.8,6.7 -3.14,9.39l-53.35 -13.83 4.12 -10.29zm9.23 -28.55l52.72 18.58 -3.51 9.32 -52.13 -17.69 2.92 -10.21zm7.04 -17.66c0.93,-4.5 1.65,-7.49 4.01,-10.61l50.84 21.77 -2.68 8.93c-11.96,-1.48 -38.69,-16.16 -52.17,-20.09zm-107.49 31.54c-2.05,-10.56 6.03,-74.87 7.45,-91.75l15.13 7.05 -7.65 63.95c2.02,-1.5 0.59,-0.29 2.29,-2.06 4.29,-4.46 26.89,-40.05 33.86,-47.57l9.15 4.06 -3.2 60.63 28.28 -48.74 11.26 5.17c-1.45,4.85 -33.56,56.99 -38.86,65.53 -4.06,-0.39 -9.5,-1.14 -11.67,-4.45l0.49 -52.01c-5.4,4.18 -31.6,40.52 -33.59,44.02l-12.94 -3.83zm-24.75 -109.92l-11.47 41.98 -6.02 21.32 -3.65 14.77 -8.51 30.67 -5.28 19.55 -3.91 12.54 -40.38 147.82c1.11,3 -0.47,0.94 1.93,3.29 11.81,0 206.89,1 212.97,-0.23 6.98,-1.41 8.47,-9.03 10.72,-15.27 23,-63.65 49.88,-129.42 72.68,-193.26 8.3,-23.21 5.83,-16.13 -32.58,-39.22 -46.36,-27.87 -103.58,-58.59 -152.18,-86.57 -7.62,-4.39 -11.83,-8.21 -18.97,-8.21 -3.02,5.69 -9.07,29.17 -11.57,38.07 -1.06,3.79 -2.45,9.92 -3.78,12.75z"/>
   <path class="fil2" d="M163.37 163.53l-1.09 26.3 -0.48 11.72 -0.64 14.87 -0.51 12.18 -0.64 14.95 -0.51 12.36 -0.7 16.34 -0.51 11.82c-0.69,17.56 -7.68,127.4 -4.43,133.83l40.38 -147.82 -11.59 -1.04 0.91 -13.39 14.59 1.89 5.28 -19.55c-4.94,-1.24 -13.96,-2.01 -17.97,-4.99l26.48 -25.68 3.65 -14.77 -21.98 -42.8c3.45,0.78 16.06,4.79 18.55,6.3 4.18,2.53 7.29,10.35 9.45,15.18l11.47 -41.98c-5.07,-1.17 -50.67,-24.08 -55.96,-26.8 -15.02,-7.71 -10.27,-0.35 -11.76,11.11l-1.99 49.97z"/>
   <path class="fil3" d="M110.4 214.35l4.8 24.66 11.98 58.32 24.57 120.32c1.52,2.83 0.2,2.29 4.04,3.54 -2.4,-2.35 -0.82,-0.29 -1.93,-3.29 -3.25,-6.43 3.74,-116.27 4.43,-133.83l-7.86 -0.48 -2.13 -12.54 10.5 1.2 0.7 -16.34 -14 -2.42 -2.15 -13.02 16.66 3.08 0.64 -14.95c-13.57,-2.95 -24.99,-11.63 -27.75,-25.22 -5.02,-24.73 14.79,-16.38 29.38,-13.55l1.09 -26.3c-8.6,-1.97 -63.03,-25.64 -65.82,-24.15 -3.8,2.04 0.19,14.77 0.87,18.14l7.49 37.42c1.41,6.36 2.56,13.74 4.49,19.41z"/>
   <path class="fil4" d="M151.75 417.65l-24.57 -120.32 -6.45 -0.47 -30.56 -63.13 25.03 5.28 -4.8 -24.66c-7.14,-3.03 -60.57,-17.73 -66.45,-17.73 0.17,7.66 21.92,48.56 25.61,55.95l53.97 110.31c2.92,5.84 24.13,52.13 28.22,54.77z"/>
   <path class="fil5" d="M257.83 239.17l12.94 3.83c1.99,-3.5 28.19,-39.84 33.59,-44.02l-0.49 52.01c2.17,3.31 7.61,4.06 11.67,4.45 5.3,-8.54 37.41,-60.68 38.86,-65.53l-11.26 -5.17 -28.28 48.74 3.2 -60.63 -9.15 -4.06c-6.97,7.52 -29.57,43.11 -33.86,47.57 -1.7,1.77 -0.27,0.56 -2.29,2.06l7.65 -63.95 -15.13 -7.05c-1.42,16.88 -9.5,81.19 -7.45,91.75z"/>
   <path class="fil5" d="M238.76 271c3.23,1.75 140.25,30.4 150.32,31.14l3.62 -8.35c-8.73,-2.19 -144.28,-34.39 -151.05,-34.23l-2.89 11.44z"/>
   <path class="fil5" d="M229.77 305.8l151.14 21.21c1.17,-4.08 2.43,-5.33 1.58,-9.14l-149.31 -24.13 -3.41 12.06z"/>
   <path class="fil5" d="M221.95 340.11l148.83 12.17c4.78,-9.49 4.1,-8.34 -6.35,-9.26 -38.92,-3.45 -109.79,-14.01 -139.64,-14.74 -1.41,2.24 -1.64,2.63 -2.44,5.56 -0.84,3.11 -0.95,3.33 -0.4,6.27z"/>
   <polygon class="fil6" points="127.18,297.33 115.2,239.01 90.17,233.73 120.73,296.86 "/>
   <path class="fil7" d="M160.65 228.6l0.51 -12.18c-13.03,-2.93 -18.74,-16.61 -10.76,-17.17 3.73,-0.26 7.54,1.47 11.4,2.3l0.48 -11.72c-14.59,-2.83 -34.4,-11.18 -29.38,13.55 2.76,13.59 14.18,22.27 27.75,25.22z"/>
   <path class="fil5" d="M365.32 207.63c13.48,3.93 40.21,18.61 52.17,20.09l2.68 -8.93 -50.84 -21.77c-2.36,3.12 -3.08,6.11 -4.01,10.61z"/>
   <path class="fil5" d="M344.93 264.13l53.35 13.83c1.34,-2.69 2.56,-5.68 3.14,-9.39l-52.37 -14.73 -4.12 10.29z"/>
   <polygon class="fil5" points="355.36,235.5 407.49,253.19 411,243.87 358.28,225.29 "/>
   <path class="fil8" d="M215.59 192.55l6.02 -21.32c-2.16,-4.83 -5.27,-12.65 -9.45,-15.18 -2.49,-1.51 -15.1,-5.52 -18.55,-6.3l21.98 42.8z"/>
   <path class="fil8" d="M203.43 237.99l8.51 -30.67 -26.48 25.68c4.01,2.98 13.03,3.75 17.97,4.99z"/>
   <polygon class="fil7" points="159.5,255.91 160.01,243.55 143.35,240.47 145.5,253.49 "/>
   <path class="fil3" d="M161.16 216.42l0.64 -14.87c-3.86,-0.83 -7.67,-2.56 -11.4,-2.3 -7.98,0.56 -2.27,14.24 10.76,17.17z"/>
   <polygon class="fil8" points="194.24,270.08 198.15,257.54 183.56,255.65 182.65,269.04 "/>
   <polygon class="fil7" points="158.29,284.07 158.8,272.25 148.3,271.05 150.43,283.59 "/>
  </g>
 </g>
</svg>
