<?xml version="1.0" encoding="UTF-8"?>
<!DOCTYPE svg PUBLIC "-//W3C//DTD SVG 1.1//EN" "http://www.w3.org/Graphics/SVG/1.1/DTD/svg11.dtd">
<!-- Creator: CorelDRAW 2017 -->
<svg xmlns="http://www.w3.org/2000/svg" xml:space="preserve" width="500px" height="500px" version="1.1" style="shape-rendering:geometricPrecision; text-rendering:geometricPrecision; image-rendering:optimizeQuality; fill-rule:evenodd; clip-rule:evenodd"
viewBox="0 0 500 500"
 xmlns:xlink="http://www.w3.org/1999/xlink">
 <defs>
  <style type="text/css">
   <![CDATA[
    .str0 {stroke:#575757;stroke-width:16;stroke-miterlimit:22.9256}
    .fil2 {fill:#070508}
    .fil1 {fill:#575757}
    .fil0 {fill:white}
   ]]>
  </style>
 </defs>
 <g id="Слой_x0020_1">
  <metadata id="CorelCorpID_0Corel-Layer"/>
  <circle class="fil0 str0" cx="250" cy="250" r="239.39"/>
  <g id="_2001538369328">
   <path class="fil1" d="M172.19 401.96c1.34,0.32 13.3,0.2 13.54,0.1 0.37,-0.16 0.37,-0.12 0.68,-1.1l1.73 -5.07c0.78,-2.33 1.59,-4.55 2.31,-6.76l4.29 -12.73c0.07,-0.22 0.04,-0.21 0.18,-0.46 0.18,-0.33 0.14,-0.23 0.27,-0.38 0,1.68 -0.46,5.15 -0.49,6.8l-1.14 17.01c-0.28,3.56 -2.55,2.76 11.19,2.76 1.17,0 1.62,-0.17 2.75,-0.17 0.64,-1.2 1.14,-2.9 1.69,-4.3l2.93 -7.77c2.45,-6.87 5.52,-14.34 7.96,-21.19 0.46,-1.3 1.04,-1.89 0.22,-1.89l-10.04 0c-0.02,0.71 -2.41,8.09 -2.85,9.63l-1.41 4.75c-0.08,0.26 -0.12,0.48 -0.2,0.77l-2.23 7.33c-0.14,0.43 -0.32,1.08 -0.48,1.62 -0.21,0.71 -0.1,1.12 -0.61,1.5 0,-0.98 0.3,-2.08 0.33,-3.07l0.31 -6.66c0.04,-1.12 0.34,-2.02 0.34,-3.22l0.32 -6.65c0.05,-1.04 0.33,-1.93 0.33,-3.07 0,-2.17 0.41,-2.93 -0.33,-2.93l-12.15 0c-0.62,0 -0.94,1.67 -1.36,2.86l-3.26 9.7c-0.21,0.62 -0.33,1.01 -0.54,1.56 -0.1,0.25 -0.14,0.35 -0.27,0.71 -0.13,0.39 -0.15,0.44 -0.28,0.85l-2.17 6.42c-0.21,0.62 -0.82,2.74 -1.19,3.17 0,-0.76 0.1,-2.2 0.2,-3.03 0.48,-3.72 0.73,-8.87 1.19,-12.1l0.87 -10.14 -11.66 0 -0.16 6.65c-0.02,0.85 -0.17,1.11 -0.17,2.1 0.02,3.16 -0.16,5.75 -0.15,8.91l-0.33 8.75c-0.12,2.22 0.14,4.53 -0.12,6.69l-0.04 2.05z"/>
   <path class="fil1" d="M120.19 378.64c0.36,-0.74 0.21,-0.82 0.4,-1.71l1.81 -8.72c0.25,-1.19 0.44,-2.37 0.71,-3.5 5.52,0 5.86,0.85 4.34,7.58 -1.2,5.28 -1.48,6.35 -7.26,6.35zm-12.63 -0.16l-9.56 0c0,1.49 0.92,5.86 1.3,6.64 1.52,0.35 5.34,0.16 7.12,0.16 0,0.9 -0.16,1.23 -0.37,2.22 -0.07,0.37 -0.18,0.61 -0.25,1.04l-1.07 5.41c-0.33,1.45 -0.63,2.86 -0.91,4.27 -0.4,1.98 -1.16,3.91 -0.15,3.91l11.18 0c0.7,0 0.83,-1.11 0.93,-1.67l3.12 -15.18c4.55,0 5.43,0.22 9.74,-0.62l4.21 -1.46c1.26,-0.66 2.33,-1.38 3.36,-2.32 2.06,-1.89 2.59,-3.58 3.16,-6.23 0.36,-1.68 1.83,-8.29 1.68,-9.57 -0.28,-2.47 -1.03,-3.68 -2.78,-4.85 -2.9,-1.93 -8.25,-2.16 -13.06,-2.16l-12.31 0c-1.03,0 -0.98,0.75 -1.16,1.92l-1.68 8.03c-0.38,1.92 -0.74,3.49 -1.09,5.39l-0.82 4.04c-0.12,0.6 0.01,1.03 -0.59,1.03z"/>
   <path class="fil1" d="M279.42 393.38c0,1.55 0.48,3.29 0.97,4.38 0.9,1.96 2.53,2.99 4.41,3.85 4.59,2.12 11.52,1.57 16.29,-0.01 0.53,-0.17 1.07,-0.4 1.64,-0.63 1.99,-0.8 3.66,-2.44 4.99,-4.07 0.39,-0.48 0.6,-0.84 0.89,-1.39 1.34,-2.51 1.61,-3.94 2.2,-6.87 0.21,-1.07 0.69,-2.81 0.69,-3.85l-11.83 0c-0.67,0 -0.7,1.44 -1.01,2.88 -0.54,2.52 -0.91,7.82 -4.01,7.82 -1.1,0 -3.08,0.22 -3.08,-1.95 0,-0.81 0.2,-1.2 0.34,-1.93 0.13,-0.62 0.22,-1.18 0.38,-1.89 0.3,-1.35 0.53,-2.49 0.81,-3.89l2.34 -11.42c0.12,-0.46 0.1,-0.38 0.2,-0.93l0.38 -1.89c0.11,-0.51 0.16,-0.5 0.25,-1.05 0.27,-1.5 0.63,-4.22 1.84,-5.13 1.61,-1.2 4.64,-0.93 4.64,0.92 0,2.22 -0.23,2.21 -0.6,4.26l-0.7 3.19c0.92,0.44 0.55,0.12 1.6,0.17 3.98,0.2 4.63,0.21 8.62,0 0.68,-0.04 1.18,0.15 2.09,0.15l1.17 -5.64c0.25,-2.18 0.74,-3.83 -0.57,-6.45 -1.05,-2.1 -3.01,-3.25 -5.19,-3.89 -3.53,-1.03 -6.63,-0.7 -10.31,-0.7 -3.31,0 -8.5,2.1 -10.82,4.57 -2.36,2.53 -3.22,4.87 -4.1,8.21l-1.13 5.67c-0.11,0.54 -0.2,0.7 -0.31,1.31l-2.09 10.22c-0.28,1.32 -0.99,4.64 -0.99,5.98z"/>
   <path class="fil1" d="M235.85 379.45c-5.48,0 -4.45,0.87 -3.58,-3.58 0.49,-2.47 0.85,-2.74 3.26,-2.74 1.93,0 1.17,2.09 1.04,2.67l-0.72 3.65zm-19.11 15.23c0,8.46 13.38,8.62 18.75,7.08 0.33,-0.09 0.43,-0.08 0.8,-0.17 0.81,-0.19 1.9,-0.63 2.69,-1.03l2.29 -1.44c2.71,-2.12 3.67,-5.65 4.14,-8.97 0.17,-1.18 0.32,-0.47 0.32,-2.28l-11.18 0c-0.71,0 -0.66,0.81 -0.9,2.02 -0.51,2.58 -0.71,5.76 -3.31,5.76 -2.76,0 -1.36,-3.84 -1.02,-5.4l1.02 -4.64 16.04 0c0,-0.94 0.12,-0.73 0.27,-1.35l0.88 -4.14c0.34,-1.27 0.95,-4.59 0.95,-6.18 0,-5.62 -4.47,-6.47 -7.59,-7.31l-4.55 -0.46 -4.02 0.36c-5.08,0.74 -9.57,3.11 -11.49,8.1 -0.53,1.38 -1.67,7.8 -2.15,9.84 -0.18,0.76 -0.35,1.65 -0.48,2.43l-0.55 2.54c-0.1,0.41 -0.16,0.87 -0.25,1.2l-0.66 4.04z"/>
   <path class="fil1" d="M151.62 395.65c-2.79,0 -1.51,-2.54 -1.16,-4.4 0.18,-0.95 0.37,-1.85 0.6,-2.8 0.42,-1.81 2.47,-12.91 2.99,-14.02 0.88,-1.85 4.21,-1.74 4.21,0.16l-3.61 17.13c-0.43,2.03 -0.43,3.93 -3.03,3.93zm-2.11 6.8c4.72,0 9.51,-0.71 12.82,-3.37 1.85,-1.48 2.83,-2.71 3.67,-5.25l3.33 -15.78c1.31,-5.2 0.5,-9.01 -4.98,-10.85 -0.38,-0.13 -0.59,-0.23 -0.98,-0.31 -1.62,-0.37 -1.79,-0.29 -3.24,-0.49 -3.72,-0.53 -9.33,0.18 -12.63,2.13 -0.6,0.35 -0.75,0.38 -1.3,0.8 -1.44,1.1 -2.06,1.72 -3.04,3.28 -0.56,0.9 -0.94,1.89 -1.25,2.97 -0.3,1.07 -0.52,2.27 -0.75,3.45 -0.62,3.08 -2.53,11.56 -2.85,14 -0.52,3.86 0.37,6.07 4.1,7.94 1.8,0.9 4.44,1.48 7.1,1.48z"/>
   <path class="fil1" d="M371.27 395.65c-1.41,0 -1.87,-0.66 -1.61,-2.09l3.21 -15.75c0.57,-3.28 0.71,-4.68 3.58,-4.68 1.63,0 1.32,1.57 1.19,2.48l-1.17 5.8c-0.12,0.47 -0.21,1.06 -0.31,1.47l-1.8 8.73c-0.32,2.19 -0.71,4.04 -3.09,4.04zm-13.61 -0.97c0,1.01 0.47,2.66 1.1,3.6 0.64,0.96 1.49,1.74 2.55,2.31 5.3,2.86 13.96,2.31 18.89,-0.38 0.58,-0.32 1.29,-0.74 1.79,-1.13l1.52 -1.39c0.96,-1.24 1.71,-2.22 2.15,-3.85l1.02 -4.82c0.19,-0.73 0.35,-1.55 0.49,-2.42 0.08,-0.51 0.19,-0.67 0.27,-1.18l1.25 -6.04c0.9,-4.57 2.25,-8.27 -2.87,-11.4l-2.67 -1.06c-1.36,-0.35 -2.24,-0.33 -3.39,-0.5 -2.69,-0.38 -2.36,-0.31 -4.97,0.03l-2.73 0.34c-3.4,0.6 -4.83,1.52 -7.11,3.26 -0.88,0.68 -1.51,1.62 -2.14,2.56 -0.43,0.65 -0.7,1.29 -0.98,2.1 -0.29,0.81 -0.38,1.54 -0.58,2.33l-2.29 11.16c-0.26,1.48 -1.3,5.37 -1.3,6.48z"/>
   <path class="fil1" d="M326.24 395.65c-2.72,0 -2.06,-1.71 -1.43,-4.5l2.03 -9.8c0.12,-0.66 0.18,-0.78 0.3,-1.33 0.88,-4.13 0.53,-6.89 3.8,-6.89 0.39,0 0.67,0.03 0.94,0.19 0.25,0.14 0.07,-0.09 0.33,0.32 0.25,0.4 0.18,-0.34 0.18,1.44l-3.38 16.54c-0.28,1.63 -0.49,4.03 -2.77,4.03zm-13.77 -1.62c0,1.35 -0.09,1.93 0.44,3.29 1.66,4.3 7.87,5.13 12.19,5.13 1.73,0 4.05,-0.2 5.64,-0.68 0.2,-0.07 0.36,-0.1 0.63,-0.18l3.18 -1.19c2.72,-1.47 4.47,-3.1 5.6,-6.07l3.09 -14.4c0.1,-0.7 0.11,-0.59 0.26,-1.2 0.69,-3.03 1.43,-5.89 -0.57,-8.68 -1.04,-1.43 -2.68,-2.39 -4.38,-2.91 -0.64,-0.2 -1.33,-0.3 -1.96,-0.47l-4.36 -0.5 -4.04 0.33c-1.3,0.09 -4.6,1.11 -5.76,1.69 -5.69,2.86 -5.86,6.43 -6.94,10.88l-3.02 14.96z"/>
   <path class="fil1" d="M405.13 370.7c0,-0.36 -0.03,-0.74 0.04,-1.09 0.08,-0.4 0.16,-0.36 0.25,-0.88l0.35 -1.92 -11.82 0c0,0.77 -0.03,0.56 -0.18,1.12l-4.5 21.75c-0.09,0.63 -0.06,0.56 -0.2,1.09l-1.41 6.68c-0.21,1.33 -0.82,3.56 -0.84,4.51 1.62,0.38 8.98,0.17 11.18,0.17 0.8,0 0.73,-1.42 0.91,-2.16l2.49 -11.77c0.24,-1.37 2.13,-10.92 2.54,-11.88 0.82,-1.95 3.3,-2.11 3.95,-0.92 0.57,1.05 -0.38,3.82 -0.61,5.07 -0.22,1.19 -1.02,4.58 -1.02,5.46 0.75,0.16 8.58,-0.01 10.7,0.01 1.04,0.01 0.98,0.16 1.14,-0.64l0.64 -3.09c0.34,-2.3 2.1,-9.03 2.1,-10.86 0,-1.53 -0.85,-3.05 -2.08,-3.92 -1.95,-1.37 -5.3,-1.47 -7.53,-0.83 -4.51,1.32 -5.11,3.37 -6.1,4.1z"/>
   <path class="fil1" d="M264.04 370.7c0,-1.28 0.64,-2.61 0.64,-3.89l-11.34 0c-0.52,0 -0.53,0.59 -0.76,1.83l-1.38 6.72c-0.62,2.88 -1.14,5.89 -1.81,8.88l-3.66 17.72c1.62,0.38 8.98,0.17 11.18,0.17 0.94,0 1,-2.26 1.18,-3.19l4.29 -20.49c0.27,-1.14 0.57,-3.86 2.95,-3.86 3.13,0 1.1,4.14 0.82,6.33l-0.98 5.01 11.82 0c0,-0.56 0,-0.42 0.12,-0.86l2.64 -13.4c0,-3.05 -1.91,-4.87 -4.38,-5.17 -0.96,-0.12 -1.93,-0.39 -2.82,-0.25 -1.03,0.16 -1.85,0.22 -2.76,0.49 -0.92,0.27 -1.53,0.51 -2.3,0.93 -0.79,0.43 -2.09,1.46 -2.67,2.2 -0.35,0.44 -0.3,0.5 -0.78,0.83z"/>
   <path class="fil1" d="M341.63 401.64c0,0.37 0.11,0.49 0.48,0.49 2.2,0 9.56,0.21 11.18,-0.17l1.95 -9.39c0.09,-0.52 0.2,-0.93 0.27,-1.34 0.36,-1.92 0.7,-3.46 1.09,-5.39l5.02 -24.3c0.31,-1.54 1.09,-3.47 0.09,-3.47l-10.36 0c-1.14,0 -0.9,0.59 -1.05,1.38l-3.58 17.15c-0.12,0.63 -0.16,0.8 -0.29,1.33 -0.13,0.55 -0.15,0.98 -0.29,1.5 -0.22,0.83 -0.31,1.77 -0.52,2.72l-1.78 8.26c-0.12,0.49 -0.14,0.95 -0.25,1.37l-1.47 6.96c-0.17,0.82 -0.49,2.04 -0.49,2.9z"/>
  </g>
  <path class="fil2" d="M253.49 211.95l-4.3 18.67 87.57 0c-0.49,5.98 -2.98,12.93 -4.19,18.78 -0.84,4.1 -0.97,5.14 -2.03,9.45 -2.43,9.83 -0.55,7.69 -16.7,7.64l-119.21 0.02 15.43 -60.66c3.98,-14.09 8.26,-12.61 24.77,-12.56 12.92,0.03 25.84,0 38.76,0 0.5,-5.91 2.99,-13 4.31,-18.67l-80.4 0c-0.16,7.41 -20.51,79.53 -21.53,91.89l-31.59 0c1.69,-3.52 3.48,-12.1 4.61,-16.93l31.28 -129.51 147.92 -0.04c9.55,-0.06 14.33,0.79 20.09,4.32 13.57,8.32 9.65,22 6.32,33.65l-8.39 34.68c-1.37,6.49 -2.54,12.76 -7.08,15.9 -9.83,6.81 -67.53,3.37 -85.64,3.37zm-146.44 -18.66c0,37.23 13.86,67.24 36.8,93.85l1.32 1.55c0.19,0.23 0.45,0.57 0.64,0.79 9.9,11.98 29.31,24.05 43.05,30.18 34.82,15.52 76.9,17.61 111.8,1.19 11.95,-5.63 22.21,-10.85 32.12,-19.56 8.91,-7.84 9.39,-6.55 17.52,-16.94 3.29,-4.21 4.68,-4.93 7.74,-9.49 34.02,-50.6 35.38,-111.71 0.86,-161.14 -38.98,-55.81 -110.68,-73.07 -173.72,-44.74 -45.42,20.41 -78.13,72.35 -78.13,124.31z"/>
 </g>
</svg>
