<?xml version="1.0" encoding="UTF-8"?>
<!DOCTYPE svg PUBLIC "-//W3C//DTD SVG 1.1//EN" "http://www.w3.org/Graphics/SVG/1.1/DTD/svg11.dtd">
<!-- Creator: CorelDRAW 2017 -->
<svg xmlns="http://www.w3.org/2000/svg" xml:space="preserve" width="500px" height="500px" version="1.1" style="shape-rendering:geometricPrecision; text-rendering:geometricPrecision; image-rendering:optimizeQuality; fill-rule:evenodd; clip-rule:evenodd"
viewBox="0 0 500 500"
 xmlns:xlink="http://www.w3.org/1999/xlink">
 <defs>
  <style type="text/css">
   <![CDATA[
    .str0 {stroke:#2B2A29;stroke-width:2.36;stroke-miterlimit:22.9256}
    .fil2 {fill:#A4C639}
    .fil1 {fill:#A5C63D}
    .fil3 {fill:#D1E29B}
    .fil0 {fill:white}
   ]]>
  </style>
 </defs>
 <g id="Слой_x0020_1">
  <metadata id="CorelCorpID_0Corel-Layer"/>
  <circle class="fil0 str0" cx="250" cy="250" r="219"/>
  <path class="fil1" d="M250 7c134.21,0 243,108.79 243,243 0,134.21 -108.79,243 -243,243 -134.21,0 -243,-108.79 -243,-243 0,-134.21 108.79,-243 243,-243zm0 46.49c108.53,0 196.51,87.98 196.51,196.51 0,108.53 -87.98,196.51 -196.51,196.51 -108.53,0 -196.51,-87.98 -196.51,-196.51 0,-108.53 87.98,-196.51 196.51,-196.51z"/>
  <g id="_2490670378944">
   <path class="fil2" d="M306.07 303.26l15.63 0c0,1.87 0.17,4.49 0.36,6.2 0.12,1.05 -0.05,2.1 0.11,3.17 0.16,1.04 0.11,2.05 0.11,3.17l-16.79 0c0,-1.06 -0.07,-2.19 0.08,-3.2l0.5 -9.34zm-19.73 98.99l-0.19 0c-7.98,-0.02 -14.73,-4.85 -17.36,-12.13 -1.06,-2.94 -0.94,-4.95 -0.94,-8.91 0,-13.05 0,-26.11 0,-39.17l-24.7 0c0,13.12 0,26.25 0,39.37 0,7.75 -0.44,9.41 -4.74,14.94 -0.8,1.01 -1.63,1.61 -2.65,2.37 -3.06,2.28 -6.53,3.51 -10.85,3.53l-0.17 0c-6.51,-0.02 -10.3,-2.72 -13.59,-6.03 -4,-4.04 -4.67,-9.19 -4.67,-15.01 0,-13.05 0,-26.11 0,-39.17 -4.25,0 -8.5,0 -12.74,0 -4.95,0 -7.61,-0.02 -11.07,-1.67 -2.76,-1.31 -5.29,-3.38 -7.02,-5.71 -1.71,-2.31 -3.54,-6.12 -3.53,-9.21l0 -33 56.55 0c0.62,0.45 0.16,0.15 0.9,1.42 1.84,3.13 3.57,4.95 6.2,7.31 3.3,2.97 9.5,5.56 14.15,5.92 6.87,0.54 27.21,0.21 35.5,0.21l0 -15.05 53.65 0 0.01 31.84c-0.01,7.95 -6.18,15.54 -14.06,17.4 -3.98,0.94 -16.19,0.54 -20.5,0.54 0,13.12 0,26.25 0,39.37 0,5.8 -0.74,10.9 -4.77,14.91 -1.91,1.89 -3.14,2.93 -5.65,4.19 -2.14,1.08 -4.55,1.72 -7.76,1.74zm-94.34 -86.84l0 9.07c-1.54,-0.81 -3.24,-3.05 -4.06,-4.62 -1.88,-3.64 -2.44,-8.93 -0.64,-12.62 0.43,-0.88 1.86,-3.98 2.77,-3.98l21.81 0c1.31,0 3.86,5.44 3.86,8.87l0 1.55c0,4.38 -3.21,9.53 -5.98,11l0 -9.27c-0.75,-0.17 -1.55,-0.82 -2.26,-1.21l-6.62 -3.8c-0.82,0.43 -1.28,0.83 -2.19,1.28l-4.41 2.54c-0.7,0.42 -1.47,1.01 -2.28,1.19z"/>
   <path class="fil2" d="M286.58 158.34c0,-3.9 2.91,-6.75 7.14,-6.75 3.18,0 6.37,3.05 6.37,6.18l0 1.15c0,3.24 -3.22,6.18 -6.57,6.18 -3.89,0 -6.94,-2.92 -6.94,-6.76zm-68.91 6.76c-3.78,0 -6.75,-3.1 -6.75,-6.18l0 -1.15c0,-3.12 2.99,-6.18 6.75,-6.18 8.97,0 8.85,13.51 0,13.51zm-18.72 -64.84c0,1.96 2.72,5.99 3.8,7.78l12.22 21.17c-2.36,0.55 -13.42,8.85 -15.97,11.43 -0.58,0.58 -1.05,1.1 -1.64,1.64 -1.23,1.14 -3.22,3.04 -4.28,4.41l-3.86 4.63c-0.55,0.72 -0.98,1.28 -1.49,1.98l-2.71 4.04c-2.96,4.62 -6.26,10.95 -8,16.13 -1.53,4.53 -1.95,5.84 -3.12,10.57 -0.41,1.63 -1.78,10.07 -1.78,12.12l166.76 0c0,-0.69 -0.19,-2.18 -0.3,-2.98 -0.42,-2.93 -0.79,-6.34 -1.43,-8.98 -1.15,-4.72 -2.25,-8.46 -4,-12.99 -1.72,-4.42 -5.55,-11.82 -8.36,-15.76 -0.95,-1.33 -1.83,-2.57 -2.84,-3.91 -0.57,-0.76 -0.93,-1.22 -1.54,-1.94 -0.55,-0.66 -1,-1.29 -1.56,-1.92 -0.28,-0.31 -0.48,-0.44 -0.76,-0.78 -0.35,-0.42 -0.36,-0.53 -0.78,-0.96l-3.46 -3.48c-0.61,-0.5 -1.18,-1.15 -1.75,-1.72l-7.54 -6.17c-1.56,-1.04 -7.08,-5.03 -8.53,-5.36 0.32,-0.6 0.64,-1.1 1.01,-1.7l5.06 -8.83c0.74,-1.24 1.34,-2.36 2.05,-3.55 1.36,-2.27 2.66,-4.7 4.03,-6.97 0.72,-1.18 1.31,-2.31 2.05,-3.54 0.95,-1.59 1.82,-2.73 1.82,-4.36 0,-1.18 -1.15,-2.51 -2.89,-2.51 -1.99,0 -2.44,1.29 -3.16,2.64 -0.69,1.31 -1.39,2.3 -2.12,3.67l-10.75 18.58c-0.36,0.59 -0.68,1.16 -1.07,1.82 -0.33,0.57 -0.91,1.48 -1.05,2.05 -0.66,-0.16 -1.17,-0.51 -1.76,-0.75 -2.06,-0.84 -3.37,-1.52 -5.79,-2.32l-4.1 -1.3c-5.5,-1.6 -7.3,-1.98 -13.35,-2.86 -6.32,-0.92 -14.52,-0.91 -20.85,-0.03 -7.7,1.09 -10.71,1.92 -17.48,4.14l-7.69 3.12c-0.22,-0.93 -8.05,-14.02 -9.53,-16.73 -0.36,-0.67 -0.74,-1.21 -1.08,-1.81l-4.32 -7.45c-1.01,-1.84 -1.17,-2.77 -3.6,-2.77 -1.18,0 -2.51,1.33 -2.51,2.51z"/>
   <path class="fil2" d="M285.61 225.69l10.81 0 0 24.31 -10.81 0 0 -24.31zm14.28 4.82l25.09 0c2.4,0 5.81,2.06 7.38,3.62 4.63,4.62 3.62,14.26 3.62,21.27l-6.94 0 0 -7.14c0,-1.85 -1.44,-3.08 -3.29,-3.08l-25.86 0 0 -14.67zm-106.34 39.24l0 -11.26c-1.89,-1 -3.7,-2.7 -4.82,-4.45 -1.48,-2.31 -2.05,-3.73 -2.47,-6.98 -0.36,-2.8 0.55,-5.99 1.43,-7.74 0.49,-0.99 1.13,-2.06 1.77,-2.86 0.44,-0.56 1.9,-2.11 2.54,-2.28l0 9.26 8.73 4.97c0.72,0.09 1.79,-0.74 2.31,-1.07l6.72 -3.71 0 -9.65c1.75,0.93 3.44,3.2 4.37,5.09 2.38,4.79 2.31,10.13 -0.79,14.9 -0.3,0.46 -0.66,0.91 -1.02,1.29 -0.46,0.48 -0.65,0.87 -1.07,1.25 -0.3,0.27 -0.32,0.23 -0.66,0.5l-2.18 1.48 0 11.38 19.88 0c0.2,-0.85 0.94,-2.3 1.42,-3.01 2.79,-4.11 4.5,-6.4 9.11,-9.22 8.7,-5.33 17.29,-3.97 28.26,-3.97 6.11,0 12.22,0 18.34,0l0 16.2 22.39 0 0.38 -4.82c0.1,-1.81 0.17,-3.24 0.19,-5.02l0.58 -9.84 9.85 0c0,1.07 0.07,1.56 0.16,2.35l0.22 4.99c-0.01,1.19 0.17,1.49 0.2,2.5 0.1,3.35 0.31,6.66 0.58,9.84l19.1 0 0 -67.34c-55.65,0 -111.3,0 -166.95,0l0 67.22 21.43 0z"/>
   <path class="fil2" d="M344.86 215.85l0 79.3c0,5.41 2.49,9.84 6.13,13.37 2.37,2.31 7.36,4.58 10.86,4.58 4.3,0 5.82,0.08 9.84,-1.93 3.75,-1.87 6.94,-5.27 8.52,-9.23 0.98,-2.46 1.52,-4.54 1.52,-7.37l0 -78.15c0,-3.07 -0.66,-5.27 -1.6,-7.47 -0.59,-1.36 -0.8,-1.71 -1.57,-2.87 -5.04,-7.55 -15.09,-10.37 -23.08,-6.45 -0.95,0.47 -1.95,1.01 -2.82,1.63 -0.46,0.33 -0.78,0.57 -1.19,0.94l-2.22 2.21c-2.55,2.86 -4.39,7.41 -4.39,11.44z"/>
   <path class="fil2" d="M118.27 124.96c0,2.68 0.23,2.95 0.55,5.24 0.21,1.51 0.38,3.04 0.58,4.44 0.42,2.97 0.92,5.92 1.33,8.71l5.08 35.44c0.39,2.84 1.06,5.85 1.32,8.71 0.28,3.03 0.79,5.98 1.29,8.94 0.99,5.9 1.04,12.1 3.82,16.24l2.68 3.5c1.88,2.08 6.05,4.24 9.14,4.95 11.52,2.68 22.27,-6.99 22.27,-16.86 0,-4.64 -1.16,-10.83 -1.84,-15.52 -0.67,-4.61 -1.5,-9.11 -2,-13.63 -0.52,-4.61 -1.44,-8.88 -1.95,-13.5 -0.46,-4.21 -1.38,-9.03 -1.99,-13.64l-4.03 -27.04c-1.06,-4.3 -3.11,-6.84 -5.89,-9.54 -0.96,-0.93 -3.39,-2.36 -4.8,-2.92 -4.82,-1.93 -10.1,-2.07 -14.82,0.21 -1.35,0.65 -3.08,1.61 -4.13,2.62 -1.57,1.51 -1.57,1.19 -3.25,3.5 -0.64,0.89 -1.14,1.86 -1.62,2.82 -0.91,1.8 -1.74,4.64 -1.74,7.33z"/>
   <path class="fil2" d="M233.11 279.52c0,5.77 1.07,9.4 4.5,13.64 1.02,1.26 2.32,2.56 3.68,3.46 3.04,2 6.62,3.74 10.74,3.74l10.61 0 0 -8.87c-3.34,0 -10.67,0.34 -13.38,-0.71 -11.76,-4.61 -8.24,-21.1 3.92,-21.1l16.22 0 0 30.68 8.88 0 0 -39.55 -26.45 0c-9.67,0 -18.72,9.34 -18.72,18.71z"/>
   <path class="fil3" d="M193.55 269.75l-21.43 0 0 -67.22c-0.02,0.04 -0.06,0.06 -0.07,0.13 0,0.07 -0.05,0.09 -0.06,0.13 -0.22,0.94 -0.06,66.88 -0.06,67.08 2.83,0 20.54,0.33 21.62,-0.12z"/>
   <path class="fil3" d="M172.12 325.45l0 -33 56.55 0c-0.71,-0.45 -13.07,-0.19 -13.89,-0.19l-42.85 0 0.02 32.78c0.08,0.4 0.04,0.19 0.17,0.41z"/>
  </g>
 </g>
</svg>
