<?xml version="1.0" encoding="UTF-8"?>
<!DOCTYPE svg PUBLIC "-//W3C//DTD SVG 1.1//EN" "http://www.w3.org/Graphics/SVG/1.1/DTD/svg11.dtd">
<!-- Creator: CorelDRAW 2017 -->
<svg xmlns="http://www.w3.org/2000/svg" xml:space="preserve" width="500px" height="500px" version="1.1" style="shape-rendering:geometricPrecision; text-rendering:geometricPrecision; image-rendering:optimizeQuality; fill-rule:evenodd; clip-rule:evenodd"
viewBox="0 0 500 500"
 xmlns:xlink="http://www.w3.org/1999/xlink">
 <defs>
  <style type="text/css">
   <![CDATA[
    .str0 {stroke:#575757;stroke-width:16;stroke-miterlimit:22.9256}
    .fil3 {fill:#FEFEFE}
    .fil1 {fill:#575757}
    .fil0 {fill:#DE1010}
    .fil2 {fill:#FEFEFE;fill-rule:nonzero}
   ]]>
  </style>
 </defs>
 <g id="Слой_x0020_1">
  <metadata id="CorelCorpID_0Corel-Layer"/>
  <circle class="fil0 str0" cx="250" cy="250" r="239.39"/>
  <path class="fil1" d="M482 328.88l-460 -0.88c12,34.17 43.5,67.5 65,95l331.47 -2.57c21,-28.33 51.53,-57.62 63.53,-91.55z"/>
  <path class="fil2" d="M139.29 398.7l0 -6.05 15.55 0 0 14.28c-1.51,1.48 -3.7,2.77 -6.57,3.9 -2.87,1.11 -5.78,1.67 -8.73,1.67 -3.74,0 -7,-0.78 -9.78,-2.36 -2.78,-1.57 -4.87,-3.83 -6.27,-6.76 -1.4,-2.92 -2.1,-6.11 -2.1,-9.55 0,-3.74 0.79,-7.05 2.35,-9.96 1.56,-2.9 3.84,-5.14 6.85,-6.69 2.3,-1.19 5.15,-1.78 8.57,-1.78 4.44,0 7.92,0.93 10.42,2.8 2.49,1.88 4.1,4.45 4.81,7.75l-7.2 1.35c-0.5,-1.76 -1.45,-3.15 -2.84,-4.17 -1.38,-1.02 -3.12,-1.53 -5.2,-1.53 -3.15,0 -5.66,1 -7.52,3.01 -1.85,2.01 -2.79,4.98 -2.79,8.92 0,4.26 0.94,7.45 2.83,9.58 1.89,2.12 4.36,3.19 7.41,3.19 1.51,0 3.03,-0.3 4.55,-0.89 1.52,-0.59 2.82,-1.32 3.91,-2.17l0 -4.54 -8.25 0zm22.24 13.15l0 -35.8 15.23 0c3.82,0 6.61,0.33 8.34,0.97 1.74,0.64 3.13,1.78 4.17,3.42 1.04,1.65 1.56,3.53 1.56,5.64 0,2.7 -0.78,4.91 -2.35,6.66 -1.58,1.75 -3.93,2.85 -7.06,3.31 1.56,0.91 2.84,1.91 3.85,3 1.01,1.09 2.38,3.03 4.1,5.82l4.36 6.98 -8.64 0 -5.18 -7.82c-1.86,-2.77 -3.13,-4.52 -3.83,-5.25 -0.68,-0.71 -1.4,-1.21 -2.17,-1.48 -0.78,-0.27 -1.99,-0.4 -3.66,-0.4l-1.47 0 0 14.95 -7.25 0zm7.25 -20.65l5.35 0c3.47,0 5.63,-0.15 6.5,-0.44 0.85,-0.29 1.54,-0.8 2.02,-1.52 0.49,-0.71 0.73,-1.61 0.73,-2.69 0,-1.21 -0.32,-2.17 -0.96,-2.92 -0.64,-0.75 -1.55,-1.21 -2.72,-1.4 -0.59,-0.09 -2.35,-0.13 -5.27,-0.13l-5.65 0 0 9.1zm61.11 20.65l-7.81 0 -3.09 -8.15 -14.36 0 -2.97 8.15 -7.67 0 13.9 -35.8 7.66 0 14.34 35.8zm-13.25 -14.2l-4.97 -13.25 -4.84 13.25 9.81 0zm17.11 14.2l0 -35.8 11.59 0c4.39,0 7.25,0.18 8.58,0.53 2.05,0.55 3.77,1.71 5.15,3.51 1.39,1.8 2.08,4.13 2.08,6.98 0,2.2 -0.4,4.04 -1.19,5.54 -0.8,1.5 -1.81,2.67 -3.04,3.53 -1.22,0.85 -2.47,1.42 -3.74,1.69 -1.72,0.35 -4.21,0.52 -7.48,0.52l-4.7 0 0 13.5 -7.25 0zm7.25 -29.75l0 10.2 3.94 0c2.84,0 4.73,-0.19 5.69,-0.57 0.96,-0.37 1.71,-0.95 2.25,-1.76 0.54,-0.8 0.82,-1.73 0.82,-2.79 0,-1.31 -0.38,-2.39 -1.14,-3.24 -0.77,-0.85 -1.73,-1.38 -2.9,-1.6 -0.86,-0.16 -2.59,-0.24 -5.19,-0.24l-3.47 0zm26.1 29.75l0 -35.8 7.25 0 0 14.1 14.1 0 0 -14.1 7.25 0 0 35.8 -7.25 0 0 -15.65 -14.1 0 0 15.65 -7.25 0zm35.86 0l0 -35.8 7.25 0 0 35.8 -7.25 0zm37.04 -13.2l7 2.15c-1.08,3.94 -2.87,6.87 -5.37,8.78 -2.5,1.91 -5.66,2.87 -9.51,2.87 -4.75,0 -8.66,-1.62 -11.73,-4.87 -3.06,-3.25 -4.59,-7.7 -4.59,-13.34 0,-5.96 1.54,-10.59 4.62,-13.89 3.07,-3.3 7.12,-4.95 12.14,-4.95 4.38,0 7.94,1.3 10.67,3.89 1.64,1.54 2.85,3.74 3.67,6.61l-7.15 1.7c-0.43,-1.85 -1.31,-3.32 -2.65,-4.39 -1.35,-1.08 -2.98,-1.61 -4.9,-1.61 -2.66,0 -4.82,0.95 -6.47,2.86 -1.66,1.9 -2.48,4.98 -2.48,9.25 0,4.52 0.82,7.74 2.44,9.66 1.63,1.92 3.75,2.88 6.36,2.88 1.92,0 3.58,-0.61 4.97,-1.83 1.38,-1.23 2.38,-3.14 2.98,-5.77zm11.31 1.6l7.05 -0.7c0.42,2.36 1.27,4.08 2.56,5.19 1.29,1.11 3.04,1.66 5.23,1.66 2.31,0 4.07,-0.49 5.24,-1.47 1.17,-0.99 1.77,-2.14 1.77,-3.45 0,-0.85 -0.25,-1.57 -0.75,-2.17 -0.49,-0.59 -1.35,-1.11 -2.59,-1.54 -0.84,-0.3 -2.75,-0.82 -5.75,-1.57 -3.86,-0.97 -6.57,-2.15 -8.13,-3.56 -2.19,-1.97 -3.28,-4.38 -3.28,-7.22 0,-1.83 0.51,-3.54 1.54,-5.14 1.03,-1.59 2.52,-2.8 4.46,-3.63 1.94,-0.83 4.27,-1.25 7.02,-1.25 4.48,0 7.85,0.99 10.11,2.98 2.27,2 3.45,4.65 3.57,7.97l-7.25 0.25c-0.31,-1.85 -0.97,-3.17 -1.98,-3.98 -1.01,-0.81 -2.52,-1.22 -4.54,-1.22 -2.08,0 -3.72,0.43 -4.89,1.3 -0.76,0.56 -1.14,1.3 -1.14,2.23 0,0.85 0.35,1.58 1.07,2.18 0.91,0.77 3.12,1.57 6.63,2.41 3.5,0.82 6.1,1.69 7.77,2.57 1.68,0.89 3,2.1 3.95,3.64 0.95,1.55 1.43,3.45 1.43,5.7 0,2.05 -0.57,3.98 -1.71,5.77 -1.14,1.79 -2.75,3.13 -4.84,3.99 -2.08,0.88 -4.68,1.31 -7.79,1.31 -4.52,0 -8,-1.04 -10.42,-3.13 -2.43,-2.09 -3.87,-5.13 -4.34,-9.12z"/>
  <path class="fil2" d="M148.53 371.87l0 -34.76 14.78 0c3.72,0 6.42,0.31 8.1,0.94 1.69,0.62 3.04,1.73 4.05,3.32 1.01,1.6 1.52,3.43 1.52,5.48 0,2.61 -0.76,4.77 -2.29,6.47 -1.53,1.7 -3.81,2.76 -6.85,3.21 1.51,0.88 2.75,1.85 3.73,2.91 0.99,1.06 2.32,2.95 3.98,5.65l4.24 6.78 -8.39 0 -5.03 -7.59c-1.8,-2.7 -3.04,-4.39 -3.71,-5.1 -0.67,-0.69 -1.37,-1.18 -2.12,-1.44 -0.75,-0.26 -1.93,-0.39 -3.55,-0.39l-1.42 0 0 14.52 -7.04 0zm7.04 -20.05l5.19 0c3.37,0 5.46,-0.15 6.31,-0.43 0.83,-0.28 1.49,-0.78 1.96,-1.47 0.48,-0.7 0.71,-1.57 0.71,-2.62 0,-1.17 -0.31,-2.11 -0.93,-2.84 -0.63,-0.72 -1.51,-1.17 -2.64,-1.36 -0.58,-0.08 -2.28,-0.12 -5.12,-0.12l-5.48 0 0 8.84zm59.33 20.05l-7.58 0 -3 -7.91 -13.94 0 -2.89 7.91 -7.45 0 13.5 -34.76 7.44 0 13.92 34.76zm-12.86 -13.79l-4.83 -12.86 -4.7 12.86 9.53 0zm16.61 -20.97l12.8 0c2.89,0 5.09,0.22 6.6,0.66 2.03,0.6 3.78,1.67 5.23,3.21 1.45,1.53 2.55,3.4 3.31,5.63 0.76,2.22 1.14,4.96 1.14,8.21 0,2.86 -0.36,5.33 -1.07,7.4 -0.87,2.53 -2.1,4.58 -3.71,6.14 -1.22,1.19 -2.86,2.11 -4.92,2.77 -1.55,0.5 -3.61,0.74 -6.2,0.74l-13.18 0 0 -34.76zm7.04 5.87l0 23.01 5.22 0c1.95,0 3.35,-0.11 4.22,-0.33 1.14,-0.28 2.08,-0.77 2.82,-1.45 0.76,-0.68 1.36,-1.79 1.83,-3.35 0.48,-1.55 0.71,-3.68 0.71,-6.36 0,-2.69 -0.23,-4.74 -0.71,-6.18 -0.47,-1.44 -1.13,-2.56 -1.98,-3.37 -0.85,-0.8 -1.93,-1.35 -3.24,-1.63 -0.97,-0.22 -2.89,-0.34 -5.73,-0.34l-3.14 0zm28.02 28.89l0 -34.76 25.73 0 0 5.87 -18.69 0 0 7.72 17.38 0 0 5.88 -17.38 0 0 9.41 19.37 0 0 5.88 -26.41 0zm30.92 -17.17c0,-3.55 0.53,-6.52 1.59,-8.93 0.79,-1.78 1.87,-3.37 3.24,-4.78 1.37,-1.4 2.86,-2.45 4.49,-3.14 2.17,-0.91 4.67,-1.37 7.5,-1.37 5.13,0 9.23,1.59 12.31,4.77 3.07,3.19 4.61,7.62 4.61,13.29 0,5.62 -1.53,10.02 -4.58,13.19 -3.05,3.18 -7.14,4.77 -12.24,4.77 -5.17,0 -9.29,-1.58 -12.34,-4.74 -3.05,-3.16 -4.58,-7.51 -4.58,-13.06zm7.23 -0.24c0,3.94 0.92,6.93 2.74,8.97 1.82,2.03 4.13,3.05 6.93,3.05 2.81,0 5.11,-1.01 6.91,-3.03 1.8,-2.02 2.7,-5.05 2.7,-9.08 0,-3.99 -0.88,-6.97 -2.63,-8.93 -1.75,-1.96 -4.07,-2.94 -6.98,-2.94 -2.89,0 -5.23,0.99 -7,2.97 -1.78,1.99 -2.67,4.99 -2.67,8.99zm31.99 17.41l0 -34.76 6.81 0 14.31 23.29 0 -23.29 6.5 0 0 34.76 -7.03 0 -14.09 -22.85 0 22.85 -6.5 0z"/>
  <path class="fil3" d="M213.98 93.72l73.89 0 -0.17 74.75 -74.24 0 0 -74.24c-0.6,0.16 -0.83,0.57 -1.24,0.99l-3.68 3.52c-1.68,1.4 -3.15,3.45 -4.85,4.75 -1.77,1.35 -3.03,3.28 -4.8,4.63 -1.7,1.29 -3.17,3.34 -4.85,4.75 -1.98,1.65 -3.4,3.46 -4.8,4.63 -2.05,1.71 -3.19,3.23 -4.88,4.72 -0.52,0.45 -0.77,0.59 -1.29,1.11l-7.87 7.71c-0.55,0.71 -0.14,-0.02 -0.14,0.74l0 73.55 76.46 0c0.67,0 5.69,-5.61 6.82,-6.73l22.63 -22.97c0.43,-0.47 0.55,-0.73 1.03,-1.21 1.37,-1.36 4.9,-5.13 5.87,-5.78l10.33 10.24c0.42,0.49 0.54,0.72 1.03,1.2l20.66 20.66c1.1,1.1 3.6,3.87 4.67,4.59 0,-24.92 0,-49.84 0,-74.75 0,-25.05 -0.17,-49.64 -0.17,-74.58l-149.33 0c0.23,0.87 1.47,1.54 2.36,2.44l18.08 17.92c0.49,0.45 0.79,0.6 1.29,1.11l8.4 8.41c0.5,0.5 0.8,0.63 1.29,1.1l6 6.01c1.2,1.24 0.88,0.73 1.5,0.73z"/>
  <path class="fil3" d="M270.04 263.45l0 0zm0 0c0.43,0.9 0,5.43 0,6.86 0.01,10.52 0.17,22.19 -0.01,32.58 -0.03,1.98 0.05,1.55 2.07,1.53 4.85,-0.02 9.72,0 14.57,0l0 -68.23 -15.6 0 -2.53 3.47c-0.47,0.64 -0.81,1.15 -1.29,1.79l-6.52 8.75c-0.89,1.19 -1.66,2.28 -2.54,3.45 -2.35,3.13 -5.86,7.66 -7.87,10.66 -0.51,-0.35 -3.7,-4.66 -4.48,-5.64l-16.98 -22.1c-0.49,-0.54 -0.72,-0.4 -1.68,-0.39l-14.4 0.01 0 68.23 17.83 0 0 -41.66 2.47 3.01c3.91,5.19 8.32,10.43 12.2,15.58 1.24,1.65 3.84,4.73 4.87,6.27 0.51,-0.34 0.88,-0.9 1.3,-1.44l14.77 -18.16c0.7,-0.83 3.07,-4.07 3.82,-4.57z"/>
  <path class="fil3" d="M318.73 290.71c0.12,-0.21 0.17,-0.19 0.17,-0.52l0 -40.11 15.09 0c1.83,0 5.95,2.23 7.47,3.33 7.21,5.2 9.37,14.92 7.11,23.76 -0.73,2.84 -1.9,5.24 -3.51,7.3 -2,2.55 -4.77,4.4 -7.92,5.45 -3.07,1.02 -4.05,0.79 -7.44,0.79 -3.65,0 -7.31,0 -10.97,0zm-18.17 13.2c0,0.39 0.12,0.51 0.51,0.51l36.01 0c12.23,0 22.56,-6.54 27.08,-16.63 4.23,-9.44 4.61,-22.33 1.06,-31.91 -1.21,-3.27 -3.45,-7.1 -5.9,-9.53 -4.56,-4.53 -7.99,-6.81 -14.34,-8.81 -1.62,-0.51 -4.44,-1.35 -6.53,-1.35l-37.89 0 0 67.72z"/>
  <path class="fil3" d="M170.26 254.19c0.02,0.9 5.04,16.58 5.51,17.98l1.37 4.46c0.15,0.5 0.36,1 0.49,1.56l-15.09 0 1.91 -5.98c1.61,-4.76 3.06,-10.12 4.67,-15.04 0.33,-1.01 0.7,-2.66 1.14,-2.98zm-37.89 50.23l21.6 0c0.61,0 0.61,-0.55 0.77,-1.12l3.18 -10.19 24.34 0c0.74,3.17 2.74,8.34 3.43,11.31l22.63 0c-0.08,-0.97 -14.6,-38.54 -16.24,-42.74l-8.99 -23.41c-0.22,-0.6 -0.68,-1.61 -0.83,-2.25l-23.66 0c-0.93,1.94 -8.82,22.62 -9.88,25.61 -1.89,5.32 -4.67,11.7 -6.6,17.06 -1.02,2.83 -2.17,5.67 -3.29,8.54l-4.9 12.76c-0.35,0.98 -1.54,3.47 -1.56,4.43z"/>
 </g>
</svg>
