<?xml version="1.0" encoding="UTF-8"?>
<!DOCTYPE svg PUBLIC "-//W3C//DTD SVG 1.1//EN" "http://www.w3.org/Graphics/SVG/1.1/DTD/svg11.dtd">
<!-- Creator: CorelDRAW 2017 -->
<svg xmlns="http://www.w3.org/2000/svg" xml:space="preserve" width="500px" height="500px" version="1.1" style="shape-rendering:geometricPrecision; text-rendering:geometricPrecision; image-rendering:optimizeQuality; fill-rule:evenodd; clip-rule:evenodd"
viewBox="0 0 500 500"
 xmlns:xlink="http://www.w3.org/1999/xlink">
 <defs>
  <style type="text/css">
   <![CDATA[
    .str1 {stroke:#2B2A29;stroke-width:5;stroke-miterlimit:22.9256}
    .str2 {stroke:#FCD844;stroke-width:5;stroke-miterlimit:22.9256}
    .str0 {stroke:#FF4A4A;stroke-width:25;stroke-miterlimit:22.9256}
    .fil4 {fill:none}
    .fil2 {fill:#898989}
    .fil3 {fill:#D44A4A}
    .fil0 {fill:#FCD844}
    .fil5 {fill:#77B900;fill-rule:nonzero}
    .fil1 {fill:url(#id0)}
   ]]>
  </style>
  <linearGradient id="id0" gradientUnits="userSpaceOnUse" x1="216.47" y1="348.02" x2="428.55" y2="431.92">
   <stop offset="0" style="stop-opacity:1; stop-color:#898989"/>
   <stop offset="0.529412" style="stop-opacity:1; stop-color:#545255"/>
   <stop offset="1" style="stop-opacity:1; stop-color:#1F1B20"/>
  </linearGradient>
 </defs>
 <g id="Слой_x0020_1">
  <metadata id="CorelCorpID_0Corel-Layer"/>
  <circle class="fil0 str0" cx="250" cy="250" r="232.45"/>
 </g>
 <g id="Слой_x0020_1_0">
  <metadata id="CorelCorpID_1Corel-Layer"/>
  <g id="_2077854934000">
   <path class="fil1 str1" d="M327.68 184.71c32.1,-4.11 50.88,30.07 31.28,52.71 -77.23,89.23 -3.82,105.56 4.03,139.44 5.33,23.06 6.76,38.54 -27.16,43.92 -14.98,2.38 -37.07,2.74 -69.25,2.75 -156.61,0.02 -130.31,14.27 -133.07,-115.29 -2.08,-97.67 2.22,-123.84 28.56,-127.1 10.87,-1.34 27.16,2.75 44.81,12.36 11.68,6.35 19.93,10.76 37.97,11.8 22.59,1.3 50.59,-16.45 82.83,-20.59z"/>
   <path class="fil2 str1" d="M332.3 76c2.84,61.18 -50.77,106.65 -88.26,105.68 0,-52.15 36.66,-93.33 88.26,-105.68z"/>
  </g>
  <g>
   <path class="fil3" d="M208.98 345.62c2.48,3.35 4.46,4.97 6.77,9.2 2.23,4.09 2.78,6.57 4.37,11.21l33.06 -0.01c0.25,-9.39 -5.54,-21.97 -9.41,-28.86 -3.24,-5.77 -12.71,-17.95 -18.59,-20.67l-16.2 29.13zm-54.49 -38.64c1.86,5.92 13.68,23.07 16.24,29.76 16.51,-2.7 8.69,-2.35 23.46,0.11 0.94,-3.05 6.09,-11.43 8.02,-14.72 2.54,-4.32 6.08,-10.06 8.08,-14.45 -4.31,-4.04 -21.76,-6.2 -28.77,-6.2 -4.88,0 -9.83,0.69 -14.49,1.73 -4.46,0.99 -8.83,3.03 -12.54,3.77zm54.03 95.74c0.99,4.8 13.05,19.5 17,24.38 6.03,-2.45 14.11,-8.57 17.66,-14.43 4.98,-8.23 8.74,-17.82 10.1,-29.01l-32.68 0c-2.31,0.66 -3.56,13.25 -12.08,19.06zm-30.53 -43.37c-20.02,6.51 -10.49,35.27 8.23,30.33 7.07,-1.86 13.76,-9.57 11,-19.63 -1.9,-6.94 -9.82,-13.76 -19.23,-10.7zm-15.61 67.58c3.3,-5.61 6.7,-11.37 8.33,-14.76 14.21,1.94 9.22,2.28 22.51,0 2.01,3.96 5.71,10.13 9.14,15.98l23.16 0.35 54.32 -0.85c1.45,-4.84 -3.09,-5.84 -13.77,-13.7 -0.51,-0.38 -0.75,-0.54 -1.37,-1.02 -0.14,-0.12 -0.56,-0.45 -0.69,-0.57 -0.64,-0.54 -0.58,-0.46 -1.05,-0.97l4.35 -11.9c5.45,0.58 12.48,1.21 17.99,1.52 3.73,0.21 4.82,-0.5 5.55,-3.63 2.64,-11.35 0.61,-10.18 -9.37,-13.03 -3.43,-0.99 -7.8,-2.39 -11.15,-3.04l0.16 -12.73c2.59,-1.49 13.83,-4.04 17.36,-5.06 3.95,-1.14 4.55,-2.53 3.92,-6.48 -2.08,-12.96 -2.62,-7.71 -24.58,-6.99l-4.05 -12.41c3.19,-1.53 7.85,-5.48 11.17,-7.82 4.91,-3.46 8.24,-4.08 4.23,-11.2 -6.58,-11.67 -9.19,-0.84 -24.97,3.12 -1.45,-3.36 -5.41,-6.95 -7.44,-9.84l9.53 -14.34c2.67,-3.77 2.77,-5.62 -0.56,-8.15 -2.63,-2 -3.66,-4.49 -7.86,-4.17 -4.33,2.34 -10.64,11.14 -15.39,14.48 -2.85,-1.65 -7.35,-4.89 -10.75,-5.91 1.62,-14.07 8.95,-21.56 1.57,-24.44 -2.93,-1.13 -5.37,-2.34 -8.84,-2.07 -2.22,2.66 -8.57,16.07 -9.8,19.85l-12.12 -2.26c-1.31,-2.58 -1.47,-10.16 -1.8,-13.8 -0.82,-8.99 0.22,-9.53 -9.78,-9.53 -6.27,0 -5.33,3.93 -5.82,9.41 -0.25,2.81 -0.64,11.92 -1.88,14.03l-11.89 2.01c-3.25,-6.28 -5.95,-13.73 -9.72,-19.78 -4.38,-0.47 -10.01,1.82 -12.02,4.27 -0.93,4.18 3.56,16.8 4.5,21.7 -0.79,0.86 -9.9,6.14 -11.21,6.64 -0.6,-0.83 -1.62,-1.98 -2.79,-3.23l0.13 28.47c3.17,-3.54 6.42,-6.49 9.43,-8.75 2.44,3.35 16.31,27.21 16.63,30.17 -4.91,3.35 -9.34,11.16 -10.89,19.22l-15.21 0 -0.02 17.63 14.95 -0.01c4.59,10.82 2.36,9.74 11.24,19.8 -2.92,6.21 -7.25,12.63 -11.46,20.45l18.08 3.34 0 0z"/>
   <path id="1" class="fil4 str2" d="M208.98 345.62c2.48,3.35 4.46,4.97 6.77,9.2 2.23,4.09 2.78,6.57 4.37,11.21l33.06 -0.01c0.25,-9.39 -5.54,-21.97 -9.41,-28.86 -3.24,-5.77 -12.71,-17.95 -18.59,-20.67l-16.2 29.13zm-54.49 -38.64c1.86,5.92 13.68,23.07 16.24,29.76 16.51,-2.7 8.69,-2.35 23.46,0.11 0.94,-3.05 6.09,-11.43 8.02,-14.72 2.54,-4.32 6.08,-10.06 8.08,-14.45 -4.31,-4.04 -21.76,-6.2 -28.77,-6.2 -4.88,0 -9.83,0.69 -14.49,1.73 -4.46,0.99 -8.83,3.03 -12.54,3.77zm54.03 95.74c0.99,4.8 13.05,19.5 17,24.38 6.03,-2.45 14.11,-8.57 17.66,-14.43 4.98,-8.23 8.74,-17.82 10.1,-29.01l-32.68 0c-2.31,0.66 -3.56,13.25 -12.08,19.06zm-30.53 -43.37c-20.02,6.51 -10.49,35.27 8.23,30.33 7.07,-1.86 13.76,-9.57 11,-19.63 -1.9,-6.94 -9.82,-13.76 -19.23,-10.7zm-15.61 67.58c3.3,-5.61 6.7,-11.37 8.33,-14.76 14.21,1.94 9.22,2.28 22.51,0 2.01,3.96 5.71,10.13 9.14,15.98l23.16 0.35 54.32 -0.85c1.45,-4.84 -3.09,-5.84 -13.77,-13.7 -0.51,-0.38 -0.75,-0.54 -1.37,-1.02 -0.14,-0.12 -0.56,-0.45 -0.69,-0.57 -0.64,-0.54 -0.58,-0.46 -1.05,-0.97l4.35 -11.9c5.45,0.58 12.48,1.21 17.99,1.52 3.73,0.21 4.82,-0.5 5.55,-3.63 2.64,-11.35 0.61,-10.18 -9.37,-13.03 -3.43,-0.99 -7.8,-2.39 -11.15,-3.04l0.16 -12.73c2.59,-1.49 13.83,-4.04 17.36,-5.06 3.95,-1.14 4.55,-2.53 3.92,-6.48 -2.08,-12.96 -2.62,-7.71 -24.58,-6.99l-4.05 -12.41c3.19,-1.53 7.85,-5.48 11.17,-7.82 4.91,-3.46 8.24,-4.08 4.23,-11.2 -6.58,-11.67 -9.19,-0.84 -24.97,3.12 -1.45,-3.36 -5.41,-6.95 -7.44,-9.84l9.53 -14.34c2.67,-3.77 2.77,-5.62 -0.56,-8.15 -2.63,-2 -3.66,-4.49 -7.86,-4.17 -4.33,2.34 -10.64,11.14 -15.39,14.48 -2.85,-1.65 -7.35,-4.89 -10.75,-5.91 1.62,-14.07 8.95,-21.56 1.57,-24.44 -2.93,-1.13 -5.37,-2.34 -8.84,-2.07 -2.22,2.66 -8.57,16.07 -9.8,19.85l-12.12 -2.26c-1.31,-2.58 -1.47,-10.16 -1.8,-13.8 -0.82,-8.99 0.22,-9.53 -9.78,-9.53 -6.27,0 -5.33,3.93 -5.82,9.41 -0.25,2.81 -0.64,11.92 -1.88,14.03l-11.89 2.01c-3.25,-6.28 -5.95,-13.73 -9.72,-19.78 -4.38,-0.47 -10.01,1.82 -12.02,4.27 -0.93,4.18 3.56,16.8 4.5,21.7 -0.79,0.86 -9.9,6.14 -11.21,6.64 -0.6,-0.83 -1.62,-1.98 -2.79,-3.23l0.13 28.47c3.17,-3.54 6.42,-6.49 9.43,-8.75 2.44,3.35 16.31,27.21 16.63,30.17 -4.91,3.35 -9.34,11.16 -10.89,19.22l-15.21 0 -0.02 17.63 14.95 -0.01c4.59,10.82 2.36,9.74 11.24,19.8 -2.92,6.21 -7.25,12.63 -11.46,20.45l18.08 3.34"/>
  </g>
  <path class="fil5 str2" d="M70 313.17l0 -126.33 40.91 0c15.49,0 25.58,0.62 30.28,1.88 7.24,1.91 13.3,6.03 18.18,12.38 4.88,6.35 7.32,14.56 7.32,24.61 0,7.77 -1.41,14.27 -4.21,19.56 -2.82,5.29 -6.38,9.44 -10.7,12.46 -4.32,3.01 -8.74,5.01 -13.2,5.98 -6.09,1.2 -14.88,1.82 -26.41,1.82l-16.58 0 0 47.64 -25.59 0zm25.59 -104.98l0 35.99 13.9 0c10.03,0 16.71,-0.67 20.09,-2 3.38,-1.32 6.03,-3.38 7.94,-6.24 1.91,-2.82 2.88,-6.08 2.88,-9.84 0,-4.62 -1.35,-8.41 -4.03,-11.42 -2.71,-3 -6.09,-4.88 -10.23,-5.64 -3.03,-0.56 -9.12,-0.85 -18.29,-0.85l-12.26 0zm115.03 104.98l-24.17 0 0 -91.57 22.4 0 0 12.99c3.86,-6.14 7.33,-10.17 10.42,-12.08 3.08,-1.91 6.58,-2.85 10.49,-2.85 5.53,0 10.85,1.52 15.97,4.55l-7.5 21.12c-4.09,-2.65 -7.88,-3.97 -11.38,-3.97 -3.41,0 -6.29,0.94 -8.64,2.79 -2.36,1.88 -4.21,5.24 -5.56,10.12 -1.35,4.88 -2.03,15.11 -2.03,30.67l0 28.23zm39.9 -46.91c0,-8.05 1.98,-15.84 5.95,-23.37 3.97,-7.56 9.58,-13.3 16.84,-17.26 7.27,-3.98 15.35,-5.97 24.32,-5.97 13.85,0 25.18,4.49 34.02,13.49 8.86,9.03 13.27,20.38 13.27,34.14 0,13.88 -4.47,25.38 -13.38,34.5 -8.94,9.11 -20.17,13.67 -33.73,13.67 -8.38,0 -16.38,-1.91 -24,-5.7 -7.58,-3.8 -13.37,-9.36 -17.34,-16.71 -3.97,-7.32 -5.95,-16.26 -5.95,-26.79zm24.88 1.3c0,9.08 2.15,16.05 6.44,20.87 4.33,4.86 9.62,7.27 15.94,7.27 6.29,0 11.58,-2.41 15.85,-7.27 4.26,-4.82 6.41,-11.84 6.41,-21.05 0,-8.97 -2.15,-15.88 -6.41,-20.7 -4.27,-4.85 -9.56,-7.26 -15.85,-7.26 -6.32,0 -11.61,2.41 -15.94,7.26 -4.29,4.82 -6.44,11.79 -6.44,20.88zm78.49 -45.96l13.4 0 0 -6.92c0,-7.7 0.83,-13.46 2.48,-17.25 1.64,-3.83 4.67,-6.91 9.08,-9.3 4.44,-2.38 10.03,-3.59 16.79,-3.59 6.91,0 13.71,1.06 20.35,3.18l-3.09 16.94c-3.94,-1.06 -7.73,-1.59 -11.38,-1.59 -3.59,0 -6.14,0.82 -7.7,2.47 -1.56,1.65 -2.35,4.82 -2.35,9.53l0 6.53 18.17 0 0 19.05 -18.17 0 0 72.52 -24.18 0 0 -72.52 -13.4 0 0 -19.05zm68.45 -12.35l0 -22.41 24.17 0 0 22.41 -24.17 0zm0 103.92l0 -91.57 24.17 0 0 91.57 -24.17 0z"/>
 </g>
</svg>
