<?xml version="1.0" encoding="UTF-8"?>
<!DOCTYPE svg PUBLIC "-//W3C//DTD SVG 1.1//EN" "http://www.w3.org/Graphics/SVG/1.1/DTD/svg11.dtd">
<!-- Creator: CorelDRAW 2017 -->
<svg xmlns="http://www.w3.org/2000/svg" xml:space="preserve" width="500px" height="500px" version="1.1" style="shape-rendering:geometricPrecision; text-rendering:geometricPrecision; image-rendering:optimizeQuality; fill-rule:evenodd; clip-rule:evenodd"
viewBox="0 0 500 500"
 xmlns:xlink="http://www.w3.org/1999/xlink">
 <defs>
  <style type="text/css">
   <![CDATA[
    .str0 {stroke:#FF4A4A;stroke-width:25;stroke-miterlimit:22.9256}
    .fil0 {fill:#008DD2}
    .fil1 {fill:#F1DD39}
   ]]>
  </style>
 </defs>
 <g id="Слой_x0020_1">
  <metadata id="CorelCorpID_0Corel-Layer"/>
  <circle class="fil0 str0" cx="250" cy="250" r="232.45"/>
 </g>
 <g id="Слой_x0020_1_0">
  <metadata id="CorelCorpID_1Corel-Layer"/>
  <g id="_2077854875568">
   <path class="fil1" d="M129.76 251.5c13.3,-3.38 23.87,6.25 26.13,16.34 3.02,13.43 -6.52,24.11 -16.89,26.23 -27.23,5.58 -37.53,-35.38 -9.24,-42.57zm66.22 -48.67c3.48,-1.24 4.91,-1.09 8.36,0 5.13,13.21 -13.39,13.57 -8.36,0zm-67.38 -81.83c13.12,-4.08 24.08,4.71 26.99,14.59 3.93,13.32 -5.07,24 -14.71,26.95 -26.72,8.15 -40.78,-32.68 -12.28,-41.54zm49.54 22.78c1.01,-43.73 -50.28,-59.29 -75.13,-32.22 -13.49,14.69 -17.03,37.75 -3.66,55.85 5.23,7.1 12.33,12.86 22.4,15.98 16.35,5.07 22.18,0 31.03,-2.22 4.74,6.95 22.32,20.36 25.03,26.22l-25.73 25.78c-22.77,-10.49 -44.13,0.82 -53.64,15.12 -12.5,18.82 -8.35,42.32 5.39,55.05 16.33,15.12 38.39,17.57 55.72,5.17 7.02,-5.03 13.1,-11.92 16.42,-21.96 1.98,-6 2.45,-10.27 2.14,-17.25 -0.34,-7.49 -2.7,-9.33 -3.64,-14.87l25.02 -25.22c4.36,1.94 17.21,16.2 21.57,20.55 7.07,7.04 13.45,13.45 20.51,20.48 1.88,1.88 9.51,8.88 10.16,10.76 0.93,2.7 0.36,55.36 0.36,60.74 -13.53,-2.79 -19.5,-4.74 -33.59,0.4 -37.08,13.52 -40.21,54.77 -1,59.4 22.02,2.6 43.52,-12.63 48.84,-28.08 3,-8.71 1.56,-62.86 1.42,-76.38 3.61,2 5.14,5.41 7.84,7.21 3.3,2.2 9.71,1.12 13.96,1.12 9.98,0 19.96,0 29.94,0 -1.59,-3.33 -4.07,-5.09 -7.21,-8.22 -2.54,-2.53 -4.43,-4.43 -6.98,-6.97l-28.79 -28.77c-9.18,-9.14 -9.2,-6.13 -8.63,-19.89l125.48 -24.96 0 109.44c-15.7,-3.23 -27.46,-5.45 -44.7,5.91 -40.7,26.82 -6.13,72.42 40.49,46.59 14.61,-8.1 19.95,-19.24 19.91,-35.07l-0.05 -192.9 -156.92 31.47 -0.21 54.81 -77.53 -77.39c1.21,-6.19 3.58,-6.88 3.78,-15.68z"/>
   <path class="fil1" d="M211.4 174.35l21.41 21.53 87.05 -86.7 -41.63 -0.24c-3.37,0 -14.65,12.73 -17.49,15.58 -6.82,6.84 -46.8,45.94 -49.34,49.83z"/>
  </g>
 </g>
</svg>
