<?xml version="1.0" encoding="UTF-8"?>
<!DOCTYPE svg PUBLIC "-//W3C//DTD SVG 1.1//EN" "http://www.w3.org/Graphics/SVG/1.1/DTD/svg11.dtd">
<!-- Creator: CorelDRAW 2017 -->
<svg xmlns="http://www.w3.org/2000/svg" xml:space="preserve" width="500px" height="500px" version="1.1" style="shape-rendering:geometricPrecision; text-rendering:geometricPrecision; image-rendering:optimizeQuality; fill-rule:evenodd; clip-rule:evenodd"
viewBox="0 0 500 500"
 xmlns:xlink="http://www.w3.org/1999/xlink">
 <defs>
  <style type="text/css">
   <![CDATA[
    .str0 {stroke:#FF4A4A;stroke-width:25;stroke-miterlimit:22.9256}
    .fil0 {fill:#FEFEFE}
    .fil1 {fill:#FF4A4A}
   ]]>
  </style>
 </defs>
 <g id="Слой_x0020_1">
  <metadata id="CorelCorpID_0Corel-Layer"/>
  <circle class="fil0 str0" cx="250" cy="250" r="232.45"/>
 </g>
 <g id="Слой_x0020_1_0">
  <metadata id="CorelCorpID_1Corel-Layer"/>
  <path class="fil1" d="M118.56 251.95c0,-13.55 0.68,-20.48 3.22,-32.64 1.36,-6.53 5.71,-18.29 8.47,-23.88 0.87,-1.76 1.54,-3.47 2.47,-5.33 5.51,-11.03 8.8,-15.13 16.08,-24.45 10.74,-13.75 30.01,-27.99 45.5,-35.18 18.21,-8.44 39.63,-13.52 59.92,-11.84 2.62,0.22 5.4,-0.2 8,0.19 2.46,0.37 5.07,0.39 7.5,0.68 17.23,2.07 38.11,10.61 52.84,20.43 8.09,5.4 20.06,15.11 26.23,22.49 12.72,15.21 17.21,23.06 24.34,40.75 4.64,11.52 8.52,27.98 8.52,40.59 0,16.22 0.17,22.3 -3.9,38.59 -4.49,17.96 -13.87,37.62 -26.2,51.75 -0.78,0.9 -0.89,1.24 -1.76,2.14 -4.41,4.52 -6.13,7.03 -11.68,11.7 -0.82,0.69 -1.19,1.24 -2.01,1.9 -7.53,6.05 -14.48,11.4 -23.18,15.78 -1.94,0.97 -2.95,1.82 -5.1,2.7 -3.83,1.58 -6.91,3.15 -10.91,4.68 -4.01,1.52 -7.43,2.61 -11.75,3.84 -4.09,1.16 -8.46,2.19 -12.69,2.9 -12.8,2.14 -14.84,1.61 -27.63,1.61 -13.51,0 -28.26,-3.46 -40.19,-7.75 -9.54,-3.43 -17.98,-7.87 -26.53,-13.22 -1.8,-1.13 -3.08,-2.15 -4.83,-3.35 -6.88,-4.75 -11.4,-8.94 -17.21,-14.76 -8.69,-8.68 -14.35,-16.82 -20.59,-27.34 -5.45,-9.18 -11.05,-23.96 -13.65,-34.29 -2.08,-8.24 -3.28,-18.62 -3.28,-28.69zm26.9 -166.04c0,2.35 1.14,6.07 1.65,8.48l3.88 16.39c0.31,1.3 2.11,7.75 1.87,8.65 -0.39,1.5 -7.31,6.63 -8.85,7.91 -1.6,1.34 -2.49,2.71 -4.17,4.01 -2.75,2.12 -10.27,9.98 -12.59,12.75 -9.16,10.97 -5.76,9.45 -16.31,7.13 -3.01,-0.66 -5.62,-1.19 -8.59,-1.94l-12.39 -2.81c-1.65,-0.37 -2.82,-0.89 -4.52,-0.93 -0.72,1.34 -1.26,1.89 -2.12,3.33 -6.27,10.49 -12.11,21.39 -16.06,33.06 -0.98,2.89 -2.04,5.4 -2.79,8.12 -1.41,5.1 -4.32,12.23 -4.76,17.46l14.65 9.51c4.5,2.95 10.3,6.72 14.97,9.2 0,5.05 -1.17,11.84 -1.17,18.7 0,8.42 -0.22,16.39 1,24.73 0.21,1.44 0.53,2.88 0.56,4.12 -4.7,2.48 -10.55,6.29 -14.97,9.19 -5.07,3.34 -10.11,6.21 -15.04,9.51 0.64,2.73 1.52,6 2.29,8.63l3.89 12.48c1.98,5.3 3.7,10.96 6.16,16.05 2.7,5.62 8.97,18.85 12.55,23.31 0.86,1.06 0.85,0.47 1.23,1.89 5.14,0 29.48,-7.79 34.68,-7.79 0.66,2.46 9.28,11.19 11.01,13.16 1.1,1.24 1.49,1.88 2.73,3.11 5.23,5.18 10.66,9.75 16.18,14.61 3.38,2.97 2.84,3.28 1.66,8.1l-5.57 24.84c-1.03,4.99 -0.06,4.42 7.92,9.05 1.29,0.74 2.47,1.22 3.8,2.04 3.9,2.37 8.5,4.16 12.55,6.16 8.44,4.18 17.58,6.62 26.65,9.6 1.72,0.56 3.2,0.86 4.87,1.36 1.28,0.38 3.57,0.99 5.12,1.12l17.07 -26.19c0.83,-1.32 1.6,-2.6 2.42,-3.82 3.65,1.75 19.78,1.95 25.72,1.95 3.29,0 19.98,-1.25 21.43,-1.95 0.54,1.99 7.92,13.2 9.13,15.04 10.79,16.41 6.06,16.02 18.86,12.55 13.64,-3.7 26.6,-9.28 39.05,-15.51 1.8,-0.9 13.64,-7.01 13.64,-8.18 0,-3.76 -6.79,-30 -7.79,-34.3 2.76,-1.46 8.62,-6.67 11.21,-9.06l14.63 -14.99c1.32,-1.57 2.58,-2.85 3.78,-4.4 4.85,-6.3 5.42,-4.38 12.78,-2.66l20.9 4.83c1.58,0.34 3.15,0.83 4.52,0.94 5.79,-8.66 10.81,-19.21 14.92,-28.73 3.3,-7.66 6.32,-16.11 8.46,-24.27 2.84,-10.82 3.76,-8.41 -3.19,-12.79 -7.29,-4.59 -14.89,-8.9 -21.87,-13.99 -3.27,-2.38 -2.19,-2.14 -1.86,-6.38 0.92,-11.9 1.81,-27.18 -0.38,-38.96 -0.26,-1.42 -0.57,-2.13 0.31,-3.18 1.63,-1.96 22.26,-14.39 26.14,-16.76 1.26,-0.77 2.41,-1.04 2.41,-2.65 0,-7.15 -7.58,-26.8 -10.24,-33.02 -1.32,-3.09 -13.04,-28.56 -15.09,-28.56 -1.47,0 -2.83,0.51 -4.26,0.81 -1.45,0.3 -2.81,0.6 -4.47,0.98l-21.06 5.06c-1.58,0.34 -3.15,0.83 -4.51,0.94 -2.6,-3.87 -6.05,-7.55 -9.26,-11l-14.91 -14.72c-0.99,-0.76 -8.96,-7.06 -8.96,-7.8 0,-1.46 0.51,-2.82 0.81,-4.25 0.29,-1.4 0.64,-2.55 0.97,-4.1l3.77 -16.49c2.69,-12.65 4.45,-7.48 -11.47,-17.17 -9.24,-5.63 -40,-17.62 -49.04,-17.62l-13.79 22.06c-1.71,2.56 -3.3,4.76 -4.91,7.17 -6.24,0 -13.12,-1.17 -20.66,-1.17 -6.72,0 -19.74,0.17 -25.72,1.56l-3.67 -4.91c-4.66,-6.95 -8.66,-14.08 -13.17,-21.13 -0.48,-0.75 -1.15,-1.92 -1.71,-2.6 -1.01,-1.22 -1.17,-0.92 -2.88,-0.62 -9.24,1.61 -23.48,6.65 -32.37,10.54 -2.82,1.24 -27.66,12.62 -27.66,15.21z"/>
  <path class="fil1" d="M189.11 172.05c0,3.13 15.46,15.49 18.1,20.13 1.81,3.17 -4.18,7.85 -7.09,10.76 -12.82,12.82 -9.13,10.11 -19.13,1.39l-0.42 -0.36c-0.06,-0.05 -0.15,-0.12 -0.21,-0.17l-6.94 -6.71c-2.06,-2.07 -3.65,-3.99 -6.53,-3.99 -0.85,3.65 3.02,16.79 4.35,21.76 0.64,2.39 1.67,2.77 4.13,5.23 1.59,1.59 2.89,2.89 4.48,4.48 4.3,4.29 3.52,3.36 12.53,5.4l11.01 2.63c1.58,0.46 1.71,0.96 2.65,2.03l63.28 63.39c1.25,1.24 1.22,1.12 1.62,3.06l4.2 18.4c0.61,2.23 1.62,1.96 4.3,4.67 0.85,0.87 1.44,1.56 2.37,2.3 1.13,0.9 1.45,1.12 2.5,2.18 3.83,3.89 5.38,3.38 12.54,5.39 2.58,0.73 4.46,1.23 7.08,1.88 3.29,0.83 4.55,1.82 6.39,-0.93 -0.74,-2.78 -7.44,-8.23 -9.65,-10.62 -0.98,-1.06 -1.23,-1.65 -2.33,-2.74 -9.98,-9.93 -9.42,-7.44 5.65,-22.6 6.89,-6.93 8.36,-2.4 21.63,10.91 1.37,1.38 3.86,3.95 5.75,4.39 0.2,-0.3 1.17,-1.65 1.17,-1.95 0,-1.42 -3.72,-17.94 -5.12,-20.99 -0.85,-1.84 -6.33,-6.14 -8.52,-9.02 -1.94,-2.55 -2.13,-2.61 -5.53,-3.44 -4.99,-1.2 -9.48,-2.25 -14.58,-3.35 -5.19,-1.12 -4.98,-2.12 -10.2,-7.34l-57.68 -57.68c-2.72,-2.7 -2.13,-1.77 -3.14,-5.83 -1.17,-4.75 -2.07,-9.43 -3.44,-14.1 -0.79,-2.7 -1.41,-4.08 -3.16,-5.8 -1.49,-1.47 -2.95,-3.16 -4.5,-4.46 -1.02,-0.85 -1.34,-0.96 -2.33,-1.96 -3.2,-3.23 -2.66,-2.71 -8.94,-4.31 -5.1,-1.3 -16.29,-5.89 -16.29,-2.03z"/>
  <path class="fil1" d="M189.89 330.68c12.43,0 12.89,-3.47 19.71,-8.74 2.07,-1.6 4.39,-4.26 6.31,-6.17 2.17,-2.17 4.06,-4.06 6.23,-6.24l18.71 -18.7c1.7,-1.7 5.18,-4.81 6.33,-6.53l-6.92 -7.11c-8.22,5.61 -17.38,22.15 -22.83,16.2 -3.4,-3.7 1.14,-6.88 3.02,-9.32 2.31,-2.99 10.82,-10.03 13.09,-13.41l-7.1 -7.32c-3.75,2.48 -17.24,17.45 -20.57,17.45 -2.85,0 -3.51,-3.19 -3.51,-5.46 0,-2.52 15.02,-15.53 17.15,-18.7l-6.92 -7.11c-2.32,1.58 -7.27,7.07 -9.55,9.35l-32.75 33.89c-1.51,2.02 -2.56,3.53 -3.32,6.04 -1.62,5.34 -1.47,11.32 1.16,15.44 3.51,5.53 13.51,16.44 21.76,16.44z"/>
  <path class="fil1" d="M267.84 219.21c1.42,2.12 7.53,7.87 9.74,9.35 1.79,-1.19 5.14,-4.94 6.92,-6.72l13.64 -13.64c2.41,-2.41 4.22,-4.6 6.63,-7.02 1.26,-1.26 1.98,-2.33 3.64,-2.98l10.25 -3.39c3.95,-1.28 3.37,-1.76 6.78,-6.86 1.75,-2.62 7.79,-10.74 8.27,-12.78l-12.48 -12.08c-1.36,0.31 -1.09,0.31 -2.07,1.04l-14.07 10.09c-2.37,1.68 -1.92,0.86 -2.91,3.72 -0.62,1.78 -1.19,3.21 -1.84,5.17 -2.42,7.28 -2.11,5.47 -8.44,11.83l-3.83 3.96c-0.09,0.08 -0.33,0.3 -0.42,0.37l-12.89 12.83c-1.82,1.81 -5.7,5.29 -6.92,7.11z"/>
  <path class="fil1" d="M242.8 214.05l39.75 39.94c1.55,-0.48 2.14,-1.54 3.12,-2.53 1.05,-1.05 2.04,-1.84 2.83,-3.02 -0.49,-1.8 -3.24,-3.82 -4.58,-5.16l-25.14 -24.75c-1.74,-1.74 -3.28,-3.42 -5.06,-5.07l-5.37 -4.77 -5.55 5.36z"/>
 </g>
</svg>
