<?xml version="1.0" encoding="UTF-8"?>
<!DOCTYPE svg PUBLIC "-//W3C//DTD SVG 1.1//EN" "http://www.w3.org/Graphics/SVG/1.1/DTD/svg11.dtd">
<!-- Creator: CorelDRAW 2017 -->
<svg xmlns="http://www.w3.org/2000/svg" xml:space="preserve" width="500px" height="500px" version="1.1" style="shape-rendering:geometricPrecision; text-rendering:geometricPrecision; image-rendering:optimizeQuality; fill-rule:evenodd; clip-rule:evenodd"
viewBox="0 0 500 500"
 xmlns:xlink="http://www.w3.org/1999/xlink">
 <defs>
  <style type="text/css">
   <![CDATA[
    .str0 {stroke:#FF4A4A;stroke-width:25;stroke-miterlimit:22.9256}
    .fil0 {fill:#FEFEFE}
    .fil1 {fill:#881F2E}
    .fil2 {fill:#CF5741}
    .fil3 {fill:#FBAD38}
    .fil5 {fill:#FCAD38}
    .fil4 {fill:#FCAD38}
   ]]>
  </style>
 </defs>
 <g id="Слой_x0020_1">
  <metadata id="CorelCorpID_0Corel-Layer"/>
  <circle class="fil0 str0" cx="250" cy="250" r="232.45"/>
 </g>
 <g id="Слой_x0020_1_0">
  <metadata id="CorelCorpID_1Corel-Layer"/>
  <g id="_2077744866320">
   <path class="fil1" d="M198.32 144.35c34.26,4.47 59.29,12.24 57.95,20.18 -1.34,7.94 -27.22,15.5 -61.26,16.5 -34.03,0.99 -63.02,-7.6 -61.75,-17.29 1.27,-9.69 30.8,-23.87 65.06,-19.39z"/>
   <path class="fil2" d="M264.1 167.12c-43.83,-15.01 -87.54,-21.86 -130.84,-3.38 -6.98,-38.19 2.01,-70.2 24.93,-96.84 57.33,4.53 87.34,44.84 105.91,100.22z"/>
   <path class="fil1" d="M329.42 161.47c-34.26,-4.47 -60.45,-3.4 -61.2,4.62 -0.74,8.01 22.33,21.98 54.97,31.68 32.64,9.71 62.85,8.85 64.12,-0.84 1.27,-9.7 -23.63,-30.98 -57.89,-35.46z"/>
   <path class="fil2" d="M259.99 166.58c46.22,-3.25 90.22,1.37 127.32,30.35 16.56,-35.12 16.09,-68.37 0.78,-100 -56.57,-10.34 -95.93,20.9 -128.1,69.65z"/>
   <g>
    <path class="fil3" d="M141.32 286.18c-2.45,17.29 -8.02,57.5 -8.02,57.5 -4.91,0.03 -9.79,0.03 -14.64,0.03 0,0 -8.05,46.64 -8.05,46.64 0,0 41.65,-1.57 41.65,-1.57 29.73,-8.07 33.37,-20.24 40.18,-71.21 2.37,-17.86 5.14,-34.06 8.8,-47.9 3.67,-13.87 8.34,-25.56 14.61,-34.37 12.03,-16.92 27.85,-25.21 42.72,-25.11 14.89,0.11 28.8,8.73 36.91,25.52 4.36,9.01 6.02,20.4 5.89,34.09 -0.13,13.71 -2.02,29.75 -4.76,48.08 -7.59,50.81 -7.39,62.96 20.09,71.06 0,0 41.24,1.6 41.24,1.6 0,0 5.02,-46.45 5.02,-46.45 -4.87,0 -9.75,0 -14.6,-0.04 0,0 5.77,-39.98 8.23,-57.18 7.99,-83.08 -38.36,-124.42 -90.12,-124.57 -51.75,-0.16 -109.68,41.37 -125.15,123.88z"/>
    <path class="fil4" d="M279.15 381.06c-0.09,1.41 -0.24,2.86 -0.44,4.36 -3.55,26.37 -24.71,47.68 -47.48,47.68 -22.77,0 -38.34,-21.38 -34.58,-47.77 0.22,-1.51 0.49,-2.98 0.84,-4.46 13.59,0.03 27.22,0.1 40.81,0.1 13.6,0 27.22,0.06 40.85,0.09z"/>
   </g>
   <path class="fil2" d="M243.95 163.96l55.43 -9.06c-0.58,40.37 80.33,98.79 109.62,126.78l-53.31 10.33 -22.64 36.95c-47.62,-45.79 -83.43,-106.28 -89.1,-165z"/>
   <circle class="fil5" transform="matrix(1.45963 0.190656 -0.190656 1.45963 268.827 138.713)" r="24.5"/>
  </g>
 </g>
</svg>
