<?xml version="1.0" encoding="UTF-8"?>
<!DOCTYPE svg PUBLIC "-//W3C//DTD SVG 1.1//EN" "http://www.w3.org/Graphics/SVG/1.1/DTD/svg11.dtd">
<!-- Creator: CorelDRAW 2017 -->
<svg xmlns="http://www.w3.org/2000/svg" xml:space="preserve" width="500px" height="500px" version="1.1" style="shape-rendering:geometricPrecision; text-rendering:geometricPrecision; image-rendering:optimizeQuality; fill-rule:evenodd; clip-rule:evenodd"
viewBox="0 0 500 500"
 xmlns:xlink="http://www.w3.org/1999/xlink">
 <defs>
  <style type="text/css">
   <![CDATA[
    .str0 {stroke:#8C59F2;stroke-width:25;stroke-miterlimit:22.9256}
    .fil1 {fill:#77B900}
    .fil2 {fill:#F20000}
    .fil0 {fill:#FFF347}
    .fil3 {fill:#0E6AEB;fill-rule:nonzero}
   ]]>
  </style>
 </defs>
 <g id="Слой_x0020_1">
  <metadata id="CorelCorpID_0Corel-Layer"/>
  <path class="fil0 str0" d="M80.4 205.17c15.51,-58.45 60.85,-107.28 123.38,-124.37 62.53,-17.08 126.41,1.93 169.47,44.37l31.16 -8.51c25.64,-7 52.34,8.24 59.34,33.88l20.88 76.44c7.01,25.63 -8.24,52.34 -33.87,59.34l-31.16 8.51c-15.51,58.45 -60.85,107.28 -123.38,124.37 -62.53,17.08 -126.41,-1.93 -169.47,-44.37l-31.16 8.51c-25.64,7 -52.34,-8.24 -59.34,-33.88l-20.89 -76.44c-7,-25.63 8.25,-52.34 33.88,-59.34l31.16 -8.51z"/>
  <circle class="fil1" cx="250" cy="250" r="115.5"/>
  <path class="fil2" d="M250.06 311.16c-3.47,-1 -3.44,-1.94 -9.74,-3.11 -24.12,-4.5 -51.73,4.16 -67.99,20.22 -22.99,22.67 3.58,45.7 46.04,34.44 17.8,-4.72 40.79,-17.14 40.88,-36.33l-0.01 -115.98c0,-3.71 -0.33,-9.3 0.09,-12.79 16.16,0.12 39.12,11.12 50.58,23.07 14.71,15.35 19.03,34.21 11.02,55.28 -3.29,8.66 -7.83,16.61 -12.65,24.18 -0.99,1.57 -4.7,6.51 -4.23,7.95 1.38,0.73 5.18,0.69 6.27,-0.44 0.88,-0.91 2.39,-3.1 3.27,-4.25 15.49,-20.24 30.22,-50.48 18.08,-75.51 -10.69,-22.04 -33.46,-34.73 -51.73,-50.93 -2.72,-2.41 -5.07,-4.35 -7.49,-7.17 -8.59,-9.95 -10.46,-18.54 -12.65,-31.35 -0.52,-3.09 0.14,-4 -3.03,-3.98 -1.71,0.01 -6.02,-0.58 -6.59,0.75 -0.35,0.84 -0.11,166.56 -0.12,175.95z"/>
  <path class="fil3" d="M87.25 303.69c0.95,3.34 0.86,6.02 -0.29,8.05 -1.15,2.02 -3.41,3.52 -6.82,4.49 -2.08,0.61 -4.34,1.25 -6.77,1.95 -2.42,0.7 -4.68,1.34 -6.76,1.94 -2.43,0.7 -4.93,1.17 -7.48,1.43l-1.91 -6.65c2.37,-0.68 4.67,-1.34 6.93,-1.99 1.94,-0.56 3.98,-1.13 6.12,-1.75 2.13,-0.61 4.02,-1.16 5.69,-1.63 0.8,-0.24 1.37,-0.64 1.71,-1.22 0.34,-0.58 0.4,-1.25 0.19,-2.01l-0.57 -1.97c-0.57,-1.98 -1.9,-2.68 -3.98,-2.08l-12.49 3.59 -2.09 -7.31 11.44 -3.29c2.09,-0.6 2.83,-1.94 2.23,-4l-0.3 -1.04c-0.59,-2.08 -1.93,-2.82 -4.02,-2.22l-16.65 4.78 -2.1 -7.31 19.27 -5.52c3.39,-0.98 6.12,-0.93 8.15,0.16 2.04,1.09 3.52,3.21 4.43,6.38 0.59,2.07 0.6,3.91 0.02,5.49 -0.57,1.57 -1.58,2.84 -2.98,3.82 0.82,-0.02 1.67,0.09 2.56,0.31 0.89,0.22 1.73,0.62 2.52,1.21 0.78,0.59 1.52,1.36 2.19,2.33 0.67,0.97 1.21,2.16 1.61,3.55l0.15 0.51z"/>
  <path id="1" class="fil3" d="M101.19 310.02l-10.16 2.92 3.34 -40.39 10.41 -2.98 24.26 32.46 -10.16 2.91 -4.21 -5.83 -13 3.74 -0.48 7.17zm0.87 -14.61l8.33 -2.39 -7.62 -10.85 -0.71 13.24z"/>
  <path id="2" class="fil3" d="M121.18 264.83l21.87 -6.28c3.64,-1.04 6.52,-0.97 8.65,0.2 2.12,1.18 3.7,3.59 4.75,7.24l1.5 5.21c1.04,3.64 0.97,6.53 -0.2,8.65 -1.17,2.13 -3.58,3.72 -7.23,4.75l-12.5 3.59 3 10.4 -9.37 2.69 -10.47 -36.45zm25.9 3.86c-0.6,-2.09 -1.94,-2.83 -4.02,-2.23l-10.41 2.99 3.28 11.43 10.41 -2.99c2.08,-0.6 2.82,-1.94 2.23,-4.01l-1.49 -5.19z"/>
  <path id="3" class="fil3" d="M152.96 255.74l10.4 -2.99 14.68 15.82 2.5 -20.74 10.41 -2.99 -5.06 32.44c-0.2,1.49 -0.52,2.85 -0.93,4.07 -0.43,1.23 -0.99,2.33 -1.68,3.3 -0.7,0.97 -1.57,1.82 -2.63,2.54 -1.05,0.71 -2.32,1.28 -3.82,1.7 -0.72,0.22 -1.43,0.39 -2.13,0.54 -0.69,0.14 -1.32,0.26 -1.89,0.35 -0.65,0.11 -1.27,0.19 -1.84,0.25l-2.02 -7.02 4.68 -1.35c0.52,-0.14 0.92,-0.38 1.21,-0.7 0.28,-0.33 0.46,-0.69 0.53,-1.08 0.08,-0.4 0.05,-0.81 -0.06,-1.21 -0.11,-0.39 -0.3,-0.73 -0.57,-0.99l-21.78 -21.94z"/>
  <path id="4" class="fil3" d="M206.44 255.6l12.49 -3.59c3.65,-1.04 6.53,-0.97 8.65,0.2 2.13,1.17 3.71,3.58 4.75,7.22l0.45 1.56c1.04,3.64 0.98,6.53 -0.19,8.64 -1.18,2.12 -3.59,3.71 -7.23,4.75l-21.86 6.28 -10.47 -36.45 28.89 -8.29 2.1 7.31 -19.52 5.6 1.94 6.77zm16.52 6.53c-0.58,-2.06 -1.93,-2.81 -4.01,-2.21l-10.4 2.99 2.22 7.75 10.41 -2.99c2.07,-0.6 2.82,-1.93 2.23,-3.99l-0.45 -1.55z"/>
  <polygon id="5" class="fil3" points="269.35,261.76 240.46,270.05 230,233.6 258.89,225.31 260.98,232.62 241.46,238.22 243.47,245.21 258.83,240.8 260.92,248.11 245.57,252.52 247.73,260.05 267.25,254.45 "/>
  <path id="6" class="fil3" d="M267.6 232.09c-0.31,-0.31 -0.73,-0.58 -1.23,-0.79 -0.52,-0.21 -1.03,-0.24 -1.56,-0.09l-2.07 0.59 -2.02 -7.02c0.43,-0.19 0.89,-0.41 1.38,-0.66 0.44,-0.2 0.92,-0.39 1.46,-0.6 0.55,-0.21 1.12,-0.4 1.7,-0.57 1.84,-0.53 3.46,-0.49 4.85,0.09 1.39,0.6 2.67,1.51 3.86,2.75l8.03 8.37 3.64 -1.05 -4.1 -14.3 9.37 -2.69 4.1 14.3 3.65 -1.05 2.37 -11.35c0.35,-1.67 0.96,-3.12 1.82,-4.37 0.86,-1.24 2.21,-2.12 4.05,-2.65 0.59,-0.17 1.17,-0.31 1.74,-0.42 0.57,-0.11 1.09,-0.2 1.56,-0.26 0.55,-0.06 1.06,-0.11 1.52,-0.18l2.02 7.02 -2.08 0.6c-0.52,0.15 -0.94,0.45 -1.26,0.9 -0.33,0.45 -0.53,0.89 -0.63,1.33l-2.26 10.81 15.46 15.57 -9.89 2.84 -12.33 -12.53 -3.64 1.05 4.26 14.84 -9.37 2.69 -4.26 -14.84 -3.64 1.05 -3.81 17.15 -9.89 2.84 4.84 -21.4 -7.64 -7.97z"/>
  <polygon id="7" class="fil3" points="357.86,236.36 348.49,239.05 344.23,224.21 331.21,227.94 335.48,242.78 326.11,245.47 315.65,209.02 325.01,206.33 329.12,220.63 342.13,216.9 338.02,202.6 347.39,199.9 "/>
  <path id="8" class="fil3" d="M366.61 207.93l11.98 -3.43c3.64,-1.05 6.52,-0.99 8.64,0.2 2.12,1.17 3.71,3.58 4.75,7.22l0.9 3.12c1.04,3.65 0.98,6.53 -0.19,8.65 -1.18,2.12 -3.59,3.7 -7.23,4.75l-21.34 6.12 -10.47 -36.45 9.37 -2.69 3.59 12.51zm42.79 13.63l-9.37 2.69 -10.46 -36.45 9.37 -2.69 10.46 36.45zm-26.78 -6.94c-0.6,-2.08 -1.93,-2.81 -4.02,-2.21l-9.88 2.83 2.67 9.32 9.89 -2.84c2.08,-0.59 2.82,-1.93 2.22,-4l-0.88 -3.1z"/>
  <polygon id="9" class="fil3" points="444.55,211.48 415.66,219.77 405.2,183.32 434.08,175.02 436.18,182.34 416.66,187.94 418.67,194.93 434.02,190.52 436.12,197.83 420.77,202.24 422.93,209.77 442.45,204.16 "/>
 </g>
</svg>
