<?xml version="1.0" encoding="UTF-8"?>
<!DOCTYPE svg PUBLIC "-//W3C//DTD SVG 1.1//EN" "http://www.w3.org/Graphics/SVG/1.1/DTD/svg11.dtd">
<!-- Creator: CorelDRAW 2017 -->
<svg xmlns="http://www.w3.org/2000/svg" xml:space="preserve" width="500px" height="500px" version="1.1" style="shape-rendering:geometricPrecision; text-rendering:geometricPrecision; image-rendering:optimizeQuality; fill-rule:evenodd; clip-rule:evenodd"
viewBox="0 0 500 500"
 xmlns:xlink="http://www.w3.org/1999/xlink">
 <defs>
  <style type="text/css">
   <![CDATA[
    .str2 {stroke:#2ED2FF;stroke-width:4;stroke-miterlimit:22.9256}
    .str1 {stroke:white;stroke-width:4;stroke-miterlimit:22.9256}
    .str0 {stroke:#FF4A4A;stroke-width:25;stroke-miterlimit:22.9256}
    .fil2 {fill:none}
    .fil0 {fill:#2ED2FF}
    .fil1 {fill:white;fill-rule:nonzero}
   ]]>
  </style>
 </defs>
 <g id="Слой_x0020_1">
  <metadata id="CorelCorpID_0Corel-Layer"/>
  <circle class="fil0 str0" cx="250" cy="250" r="232.45"/>
 </g>
 <g id="Слой_x0020_1_0">
  <metadata id="CorelCorpID_1Corel-Layer"/>
  <g id="_2077749983552">
   <path class="fil1" d="M370.09 282.56l9.35 -5.62c6.58,12.15 14.18,18.23 22.81,18.23 3.7,0 7.17,-0.87 10.41,-2.58 3.24,-1.71 5.72,-4.04 7.4,-6.92 1.71,-2.88 2.56,-5.95 2.56,-9.19 0,-3.67 -1.26,-7.27 -3.76,-10.81 -3.44,-4.88 -9.72,-10.78 -18.88,-17.64 -9.19,-6.94 -14.91,-11.95 -17.15,-15.03 -3.91,-5.18 -5.85,-10.8 -5.85,-16.82 0,-4.77 1.15,-9.14 3.45,-13.07 2.3,-3.93 5.54,-7.02 9.72,-9.29 4.19,-2.27 8.7,-3.39 13.61,-3.39 5.2,0 10.07,1.28 14.59,3.85 4.52,2.55 9.32,7.27 14.37,14.14l-8.98 6.81c-4.16,-5.48 -7.71,-9.11 -10.64,-10.84 -2.94,-1.76 -6.13,-2.63 -9.58,-2.63 -4.46,0 -8.11,1.35 -10.94,4.03 -2.84,2.71 -4.27,6 -4.27,9.95 0,2.38 0.51,4.7 1.51,6.95 0.99,2.24 2.83,4.67 5.49,7.32 1.42,1.38 6.2,5.05 14.26,10.98 9.55,7.04 16.11,13.29 19.65,18.75 3.55,5.49 5.34,11 5.34,16.54 0,7.96 -3.04,14.9 -9.09,20.77 -6.07,5.9 -13.45,8.84 -22.12,8.84 -6.69,0 -12.76,-1.79 -18.2,-5.37 -5.44,-3.57 -10.47,-9.56 -15.06,-17.96z"/>
   <polygon class="fil1" points="310.7,193.18 321.73,193.18 321.73,292.41 364.14,292.41 364.14,303.13 310.7,303.13 "/>
   <polygon class="fil1" points="65.44,203.9 65.44,193.18 125.62,193.18 125.62,203.9 101.12,203.9 101.12,303.13 89.94,303.13 89.94,203.9 "/>
   <path class="fil1" d="M188.95 194.11c16.64,0 30.57,5.57 41.78,16.67 11.2,11.1 16.81,24.78 16.81,41.01 0,16.1 -5.59,29.76 -16.76,40.96 -11.21,11.21 -24.83,16.82 -40.94,16.82 -16.28,0 -30.04,-5.59 -41.24,-16.74 -11.2,-11.16 -16.82,-24.66 -16.82,-40.5 0,-10.57 2.55,-20.34 7.66,-29.38 5.1,-9.01 12.07,-16.07 20.9,-21.18 8.8,-5.11 18.35,-7.66 28.61,-7.66zm0.48 10.72c-8.11,0 -15.82,2.12 -23.12,6.36 -7.27,4.23 -12.96,9.93 -17.07,17.1 -4.09,7.19 -6.13,15.18 -6.13,24.01 0,13.04 4.52,24.07 13.58,33.05 9.06,9.01 19.98,13.5 32.74,13.5 8.55,0 16.44,-2.07 23.69,-6.2 7.27,-4.14 12.94,-9.8 16.99,-16.97 4.06,-7.17 6.1,-15.14 6.1,-23.92 0,-8.72 -2.04,-16.61 -6.1,-23.65 -4.05,-7.04 -9.8,-12.69 -17.17,-16.92 -7.38,-4.24 -15.21,-6.36 -23.51,-6.36z"/>
   <path class="fil1" d="M244.48 194.11c16.64,0 30.57,5.57 41.78,16.67 11.2,11.1 16.81,24.78 16.81,41.01 0,16.1 -5.59,29.76 -16.76,40.96 -11.21,11.21 -24.83,16.82 -40.94,16.82 -16.28,0 -30.04,-5.59 -41.24,-16.74 -11.2,-11.16 -16.82,-24.66 -16.82,-40.5 0,-10.57 2.55,-20.34 7.66,-29.38 5.1,-9.01 12.07,-16.07 20.9,-21.18 8.8,-5.11 18.35,-7.66 28.61,-7.66zm0.48 10.72c-8.12,0 -15.82,2.12 -23.12,6.36 -7.27,4.23 -12.96,9.93 -17.07,17.1 -4.09,7.19 -6.13,15.18 -6.13,24.01 0,13.04 4.52,24.07 13.58,33.05 9.06,9.01 19.98,13.5 32.74,13.5 8.55,0 16.44,-2.07 23.69,-6.2 7.27,-4.14 12.94,-9.8 16.99,-16.97 4.06,-7.17 6.1,-15.14 6.1,-23.92 0,-8.72 -2.04,-16.61 -6.1,-23.65 -4.05,-7.04 -9.8,-12.69 -17.17,-16.92 -7.38,-4.24 -15.21,-6.36 -23.51,-6.36z"/>
  </g>
  <line class="fil2 str1" x1="118" y1="326" x2="329" y2= "152" />
  <line class="fil2 str2" x1="120.84" y1="329.01" x2="331.84" y2= "155.01" />
 </g>
</svg>
