<?xml version="1.0" encoding="UTF-8"?>
<!DOCTYPE svg PUBLIC "-//W3C//DTD SVG 1.1//EN" "http://www.w3.org/Graphics/SVG/1.1/DTD/svg11.dtd">
<!-- Creator: CorelDRAW 2017 -->
<svg xmlns="http://www.w3.org/2000/svg" xml:space="preserve" width="500px" height="500px" version="1.1" style="shape-rendering:geometricPrecision; text-rendering:geometricPrecision; image-rendering:optimizeQuality; fill-rule:evenodd; clip-rule:evenodd"
viewBox="0 0 500 500"
 xmlns:xlink="http://www.w3.org/1999/xlink">
 <defs>
  <style type="text/css">
   <![CDATA[
    .str0 {stroke:#8C59F2;stroke-width:25;stroke-miterlimit:22.9256}
    .fil1 {fill:#77B900}
    .fil2 {fill:#F20000}
    .fil0 {fill:#FFF347}
    .fil3 {fill:#0E6AEB;fill-rule:nonzero}
   ]]>
  </style>
 </defs>
 <g id="Слой_x0020_1">
  <metadata id="CorelCorpID_0Corel-Layer"/>
  <path class="fil0 str0" d="M80.4 205.17c15.51,-58.45 60.85,-107.28 123.38,-124.37 62.53,-17.08 126.41,1.93 169.47,44.37l31.16 -8.51c25.64,-7 52.34,8.24 59.34,33.88l20.88 76.44c7.01,25.63 -8.24,52.34 -33.87,59.34l-31.16 8.51c-15.51,58.45 -60.85,107.28 -123.38,124.37 -62.53,17.08 -126.41,-1.93 -169.47,-44.37l-31.16 8.51c-25.64,7 -52.34,-8.24 -59.34,-33.88l-20.89 -76.44c-7,-25.63 8.25,-52.34 33.88,-59.34l31.16 -8.51z"/>
  <circle class="fil1" cx="250" cy="250" r="115.5"/>
  <path class="fil2" d="M250.06 311.16c-3.47,-1 -3.44,-1.94 -9.74,-3.11 -24.12,-4.5 -51.73,4.16 -67.99,20.22 -22.99,22.67 3.58,45.7 46.04,34.44 17.8,-4.72 40.79,-17.14 40.88,-36.33l-0.01 -115.98c0,-3.71 -0.33,-9.3 0.09,-12.79 16.16,0.12 39.12,11.12 50.58,23.07 14.71,15.35 19.03,34.21 11.02,55.28 -3.29,8.66 -7.83,16.61 -12.65,24.18 -0.99,1.57 -4.7,6.51 -4.23,7.95 1.38,0.73 5.18,0.69 6.27,-0.44 0.88,-0.91 2.39,-3.1 3.27,-4.25 15.49,-20.24 30.22,-50.48 18.08,-75.51 -10.69,-22.04 -33.46,-34.73 -51.73,-50.93 -2.72,-2.41 -5.07,-4.35 -7.49,-7.17 -8.59,-9.95 -10.46,-18.54 -12.65,-31.35 -0.52,-3.09 0.14,-4 -3.03,-3.98 -1.71,0.01 -6.02,-0.58 -6.59,0.75 -0.35,0.84 -0.11,166.56 -0.12,175.95z"/>
  <path class="fil3" d="M73.63 264.88l33.64 -9.66c5.6,-1.6 10.04,-1.51 13.31,0.3 3.26,1.82 5.69,5.53 7.3,11.14l2.31 8.01c1.6,5.61 1.5,10.05 -0.3,13.32 -1.81,3.26 -5.51,5.71 -11.13,7.31l-19.22 5.52 4.61 16 -14.42 4.14 -16.1 -56.08zm39.84 5.93c-0.92,-3.21 -2.98,-4.34 -6.18,-3.43l-16.02 4.6 5.05 17.59 16.01 -4.6c3.21,-0.92 4.35,-2.98 3.43,-6.17l-2.29 -7.99z"/>
  <path id="1" class="fil3" d="M151.81 303.14l-15.63 4.49 5.14 -62.14 16.02 -4.59 37.31 49.94 -15.62 4.49 -6.48 -8.98 -20.01 5.76 -0.73 11.03zm1.34 -22.49l12.82 -3.67 -11.73 -16.69 -1.09 20.36z"/>
  <path id="2" class="fil3" d="M238.49 262.36c1.48,5.14 1.34,9.27 -0.44,12.38 -1.76,3.11 -5.25,5.42 -10.48,6.92 -3.21,0.93 -6.68,1.92 -10.42,3 -3.73,1.07 -7.21,2.06 -10.4,2.98 -3.74,1.08 -7.58,1.8 -11.51,2.19l-2.94 -10.22c3.64,-1.04 7.18,-2.06 10.65,-3.06 2.99,-0.86 6.13,-1.75 9.42,-2.69 3.28,-0.95 6.19,-1.78 8.76,-2.52 1.23,-0.36 2.1,-0.97 2.63,-1.88 0.53,-0.88 0.62,-1.91 0.29,-3.08l-0.88 -3.04c-0.87,-3.04 -2.91,-4.11 -6.11,-3.19l-19.22 5.52 -3.22 -11.25 17.61 -5.06c3.2,-0.92 4.34,-2.98 3.43,-6.16l-0.46 -1.59c-0.92,-3.2 -2.98,-4.34 -6.19,-3.42l-25.62 7.35 -3.22 -11.25 29.63 -8.49c5.23,-1.5 9.42,-1.42 12.55,0.25 3.13,1.68 5.41,4.94 6.8,9.82 0.92,3.19 0.94,6.01 0.05,8.44 -0.89,2.42 -2.43,4.38 -4.6,5.88 1.27,-0.03 2.58,0.13 3.95,0.48 1.37,0.34 2.66,0.96 3.87,1.86 1.21,0.9 2.34,2.1 3.38,3.58 1.03,1.5 1.84,3.32 2.47,5.46l0.22 0.79z"/>
  <polygon id="3" class="fil3" points="298.77,260.95 284.36,265.1 277.81,242.27 257.79,248.01 264.35,270.84 249.93,274.98 233.83,218.9 248.25,214.76 254.56,236.76 274.59,231.01 268.26,209.02 282.68,204.87 "/>
  <path id="4" class="fil3" d="M312.24 217.22l18.43 -5.28c5.6,-1.61 10.03,-1.51 13.29,0.3 3.27,1.81 5.71,5.52 7.31,11.11l1.39 4.81c1.6,5.61 1.5,10.04 -0.3,13.31 -1.81,3.26 -5.51,5.69 -11.12,7.3l-32.84 9.43 -16.09 -56.08 14.41 -4.14 5.52 19.24zm65.83 20.98l-14.41 4.14 -16.09 -56.08 14.41 -4.14 16.09 56.08zm-41.2 -10.69c-0.92,-3.19 -2.97,-4.32 -6.18,-3.4l-15.21 4.36 4.11 14.34 15.21 -4.37c3.21,-0.92 4.35,-2.97 3.43,-6.15l-1.36 -4.78z"/>
  <polygon id="5" class="fil3" points="432.15,222.68 387.7,235.44 371.61,179.36 416.05,166.6 419.27,177.85 389.25,186.47 392.33,197.22 415.96,190.43 419.18,201.68 395.56,208.47 398.89,220.05 428.92,211.43 "/>
 </g>
</svg>
