<?xml version="1.0" encoding="UTF-8"?>
<!DOCTYPE svg PUBLIC "-//W3C//DTD SVG 1.1//EN" "http://www.w3.org/Graphics/SVG/1.1/DTD/svg11.dtd">
<!-- Creator: CorelDRAW 2017 -->
<svg xmlns="http://www.w3.org/2000/svg" xml:space="preserve" width="500px" height="500px" version="1.1" style="shape-rendering:geometricPrecision; text-rendering:geometricPrecision; image-rendering:optimizeQuality; fill-rule:evenodd; clip-rule:evenodd"
viewBox="0 0 500 500"
 xmlns:xlink="http://www.w3.org/1999/xlink">
 <defs>
  <style type="text/css">
   <![CDATA[
    .str0 {stroke:#8C59F2;stroke-width:25;stroke-miterlimit:22.9256}
    .fil1 {fill:#77B900}
    .fil2 {fill:#F20000}
    .fil0 {fill:#FFF347}
    .fil3 {fill:#0E6AEB;fill-rule:nonzero}
   ]]>
  </style>
 </defs>
 <g id="Слой_x0020_1">
  <metadata id="CorelCorpID_0Corel-Layer"/>
  <path class="fil0 str0" d="M80.4 205.17c15.51,-58.45 60.85,-107.28 123.38,-124.37 62.53,-17.08 126.41,1.93 169.47,44.37l31.16 -8.51c25.64,-7 52.34,8.24 59.34,33.88l20.88 76.44c7.01,25.63 -8.24,52.34 -33.87,59.34l-31.16 8.51c-15.51,58.45 -60.85,107.28 -123.38,124.37 -62.53,17.08 -126.41,-1.93 -169.47,-44.37l-31.16 8.51c-25.64,7 -52.34,-8.24 -59.34,-33.88l-20.89 -76.44c-7,-25.63 8.25,-52.34 33.88,-59.34l31.16 -8.51z"/>
  <circle class="fil1" cx="250" cy="250" r="115.5"/>
  <path class="fil2" d="M250.06 311.16c-3.47,-1 -3.44,-1.94 -9.74,-3.11 -24.12,-4.5 -51.73,4.16 -67.99,20.22 -22.99,22.67 3.58,45.7 46.04,34.44 17.8,-4.72 40.79,-17.14 40.88,-36.33l-0.01 -115.98c0,-3.71 -0.33,-9.3 0.09,-12.79 16.16,0.12 39.12,11.12 50.58,23.07 14.71,15.35 19.03,34.21 11.02,55.28 -3.29,8.66 -7.83,16.61 -12.65,24.18 -0.99,1.57 -4.7,6.51 -4.23,7.95 1.38,0.73 5.18,0.69 6.27,-0.44 0.88,-0.91 2.39,-3.1 3.27,-4.25 15.49,-20.24 30.22,-50.48 18.08,-75.51 -10.69,-22.04 -33.46,-34.73 -51.73,-50.93 -2.72,-2.41 -5.07,-4.35 -7.49,-7.17 -8.59,-9.95 -10.46,-18.54 -12.65,-31.35 -0.52,-3.09 0.14,-4 -3.03,-3.98 -1.71,0.01 -6.02,-0.58 -6.59,0.75 -0.35,0.84 -0.11,166.56 -0.12,175.95z"/>
  <path class="fil3" d="M79.73 271.28l30.28 -8.7c5.03,-1.44 9.03,-1.35 11.97,0.27 2.94,1.64 5.13,4.98 6.58,10.03l2.08 7.21c1.43,5.05 1.35,9.05 -0.28,11.99 -1.62,2.94 -4.96,5.14 -10.01,6.58l-17.3 4.96 4.14 14.4 -12.97 3.73 -14.49 -50.47zm35.86 5.34c-0.83,-2.89 -2.68,-3.91 -5.57,-3.09l-14.41 4.14 4.54 15.83 14.41 -4.14c2.89,-0.83 3.92,-2.68 3.09,-5.55l-2.06 -7.19z"/>
  <path id="1" class="fil3" d="M123.73 258.69l14.41 -4.14 20.31 21.91 3.47 -28.73 14.42 -4.14 -7.01 44.93c-0.28,2.06 -0.72,3.93 -1.3,5.63 -0.58,1.7 -1.36,3.23 -2.32,4.57 -0.96,1.35 -2.17,2.51 -3.64,3.51 -1.45,0.99 -3.21,1.78 -5.28,2.36 -1,0.3 -1.99,0.54 -2.95,0.74 -0.95,0.2 -1.83,0.37 -2.63,0.49 -0.88,0.15 -1.75,0.26 -2.55,0.35l-2.79 -9.72 6.49 -1.87c0.71,-0.2 1.27,-0.52 1.66,-0.97 0.39,-0.45 0.64,-0.95 0.74,-1.5 0.11,-0.55 0.07,-1.11 -0.08,-1.67 -0.16,-0.55 -0.42,-1.01 -0.78,-1.37l-30.17 -30.38z"/>
  <path id="2" class="fil3" d="M204.58 290.32c-4.7,1.35 -8.48,1.25 -11.32,-0.31 -2.83,-1.55 -4.92,-4.66 -6.26,-9.34l-6.57 -22.85c-1.43,-4.98 -1.33,-8.94 0.3,-11.86 1.63,-2.92 4.97,-5.1 10.02,-6.55l25.95 -7.44 2.9 10.12 -23.06 6.62c-2.89,0.83 -3.91,2.68 -3.09,5.55l6.58 22.95c0.32,1.1 0.89,1.87 1.73,2.34 0.84,0.46 1.8,0.53 2.91,0.21 0.91,-0.27 1.97,-0.57 3.16,-0.92 1.22,-0.33 2.47,-0.7 3.75,-1.07 1.3,-0.36 2.62,-0.74 3.94,-1.13 1.31,-0.37 2.54,-0.95 3.68,-1.71 2.92,-0.84 5.96,-1.72 9.07,-2.62l2.72 9.43c-3.05,1.54 -6.15,2.76 -9.33,3.68 -2.73,0.78 -5.64,1.61 -8.69,2.49 -3.04,0.87 -5.85,1.67 -8.39,2.41z"/>
  <path id="3" class="fil3" d="M249.27 277.49c-4.7,1.35 -8.47,1.25 -11.31,-0.31 -2.84,-1.55 -4.93,-4.66 -6.27,-9.33l-6.56 -22.85c-1.43,-4.99 -1.33,-8.95 0.29,-11.86 1.64,-2.93 4.98,-5.11 10.03,-6.56l25.94 -7.44 2.91 10.12 -23.06 6.62c-2.89,0.83 -3.92,2.68 -3.09,5.55l6.58 22.95c0.31,1.1 0.89,1.88 1.73,2.34 0.83,0.46 1.8,0.53 2.91,0.21 0.91,-0.26 1.96,-0.56 3.16,-0.91 1.21,-0.34 2.46,-0.7 3.75,-1.08 1.3,-0.36 2.61,-0.74 3.94,-1.12 1.31,-0.38 2.53,-0.96 3.67,-1.72 2.93,-0.84 5.96,-1.71 9.08,-2.61l2.71 9.42c-3.05,1.54 -6.15,2.76 -9.32,3.68 -2.74,0.79 -5.64,1.61 -8.69,2.49 -3.05,0.87 -5.85,1.67 -8.4,2.41z"/>
  <path id="4" class="fil3" d="M304.58 233.67l21.4 21.56 -13.7 3.93 -17.07 -17.35 -6.49 1.87 5.91 20.55 -12.98 3.73 -14.48 -50.48 12.97 -3.73 5.68 19.8 6.49 -1.86 3.29 -15.71c0.48,-2.32 1.32,-4.33 2.52,-6.05 1.2,-1.72 3.07,-2.94 5.61,-3.67 0.82,-0.23 1.62,-0.44 2.41,-0.59 0.79,-0.15 1.5,-0.27 2.15,-0.36 0.76,-0.07 1.48,-0.15 2.12,-0.24l2.79 9.72 -2.88 0.82c-0.73,0.21 -1.3,0.63 -1.75,1.25 -0.45,0.63 -0.74,1.24 -0.88,1.85l-3.11 14.96z"/>
  <polygon id="5" class="fil3" points="374.28,241.37 361.3,245.09 352.41,214.1 344.02,250.06 330.32,253.99 315.83,203.52 328.8,199.79 337.7,230.8 346.1,194.82 359.79,190.9 "/>
  <polygon id="6" class="fil3" points="422.94,227.4 382.94,238.89 368.46,188.41 408.45,176.93 411.36,187.05 384.33,194.81 387.11,204.48 408.37,198.38 411.27,208.5 390.01,214.61 393.01,225.03 420.04,217.28 "/>
 </g>
</svg>
