<?xml version="1.0" encoding="UTF-8"?>
<!DOCTYPE svg PUBLIC "-//W3C//DTD SVG 1.1//EN" "http://www.w3.org/Graphics/SVG/1.1/DTD/svg11.dtd">
<!-- Creator: CorelDRAW 2017 -->
<svg xmlns="http://www.w3.org/2000/svg" xml:space="preserve" width="500px" height="500px" version="1.1" style="shape-rendering:geometricPrecision; text-rendering:geometricPrecision; image-rendering:optimizeQuality; fill-rule:evenodd; clip-rule:evenodd"
viewBox="0 0 500 500"
 xmlns:xlink="http://www.w3.org/1999/xlink">
 <defs>
  <style type="text/css">
   <![CDATA[
    .str3 {stroke:#1745D1;stroke-width:10;stroke-miterlimit:22.9256}
    .str1 {stroke:#0F7699;stroke-width:4;stroke-miterlimit:22.9256}
    .str0 {stroke:#0F7699;stroke-width:25;stroke-miterlimit:22.9256}
    .str2 {stroke:black;stroke-width:2.36;stroke-miterlimit:22.9256}
    .fil2 {fill:none;fill-rule:nonzero}
    .fil4 {fill:#1745D1}
    .fil3 {fill:#E6E6E6}
    .fil5 {fill:#EB3232}
    .fil1 {fill:#E6E6E6;fill-rule:nonzero}
    .fil0 {fill:url(#id0)}
   ]]>
  </style>
  <linearGradient id="id0" gradientUnits="userSpaceOnUse" x1="430.42" y1="382.17" x2="56.83" y2="119.83">
   <stop offset="0" style="stop-opacity:1; stop-color:#F77474"/>
   <stop offset="0.129412" style="stop-opacity:1; stop-color:#F5AC82"/>
   <stop offset="0.25098" style="stop-opacity:1; stop-color:yellow"/>
   <stop offset="0.368627" style="stop-opacity:1; stop-color:#5EF25E"/>
   <stop offset="0.490196" style="stop-opacity:1; stop-color:#7474F2"/>
   <stop offset="0.619608" style="stop-opacity:1; stop-color:#C77BF2"/>
   <stop offset="0.74902" style="stop-opacity:1; stop-color:#F77474"/>
   <stop offset="0.870588" style="stop-opacity:1; stop-color:#F5AC82"/>
   <stop offset="1" style="stop-opacity:1; stop-color:yellow"/>
  </linearGradient>
 </defs>
 <g id="Слой_x0020_1">
  <metadata id="CorelCorpID_0Corel-Layer"/>
  <path class="fil0 str0" d="M384.55 65.62c101.83,74.31 124.14,217.1 49.83,318.93 -74.31,101.83 -217.1,124.14 -318.93,49.83 -101.83,-74.31 -124.14,-217.1 -49.83,-318.92 74.31,-101.83 217.1,-124.15 318.93,-49.84z"/>
  <path class="fil1" d="M106.26 373.88l-15.28 -21.43c-2.55,-3.57 -3.59,-6.74 -3.13,-9.51 0.46,-2.76 2.48,-5.42 6.05,-7.96l5.09 -3.64c3.57,-2.53 6.74,-3.57 9.5,-3.12 2.77,0.47 5.42,2.49 7.96,6.06l8.73 12.24 10.21 -7.27 6.56 9.19 -35.69 25.44zm-5.82 -29.72c-2.05,1.46 -2.35,3.21 -0.89,5.25l7.28 10.21 11.23 -8.02 -7.27 -10.2c-1.46,-2.05 -3.2,-2.33 -5.25,-0.88l-5.1 3.64z"/>
  <path id="1" class="fil1" d="M79.47 332.37l-4.47 -11.69 16.76 -18.48 -24.13 -0.85 -4.47 -11.71 37.86 2.66c1.74,0.09 3.32,0.32 4.78,0.68 1.46,0.36 2.78,0.9 3.96,1.61 1.19,0.71 2.25,1.64 3.18,2.77 0.93,1.15 1.71,2.56 2.35,4.23 0.31,0.83 0.58,1.63 0.81,2.42 0.24,0.78 0.44,1.49 0.6,2.15 0.2,0.73 0.35,1.43 0.47,2.1l-7.88 3.01 -2.01 -5.27c-0.22,-0.58 -0.54,-1.02 -0.94,-1.31 -0.41,-0.3 -0.84,-0.47 -1.31,-0.52 -0.46,-0.05 -0.92,0.01 -1.37,0.19 -0.45,0.17 -0.8,0.42 -1.08,0.75l-23.11 27.26z"/>
  <path id="2" class="fil1" d="M105.48 261.41c-0.01,4.09 -0.95,7.1 -2.86,9.02 -1.89,1.93 -4.87,2.89 -8.93,2.89l-19.85 0.02c-4.35,0 -7.5,-0.98 -9.46,-2.97 -1.97,-1.98 -2.96,-5.17 -2.97,-9.55l-0.01 -22.56 8.78 -0.02 0 20.06c0.01,2.5 1.26,3.76 3.76,3.75l19.96 -0.01c0.95,0 1.71,-0.28 2.27,-0.84 0.56,-0.57 0.85,-1.33 0.84,-2.29 0,-0.8 0,-1.72 0,-2.76 0,-1.05 0,-2.13 0,-3.26 0,-1.13 0,-2.27 -0.01,-3.42 0,-1.14 -0.18,-2.26 -0.53,-3.35 0,-2.55 0,-5.18 0,-7.9l8.19 -0.01c0.53,2.81 0.8,5.59 0.81,8.34 0,2.39 0,4.9 0,7.56 0,2.65 0,5.08 0.01,7.3z"/>
  <path id="3" class="fil1" d="M107.86 222.81c-0.8,4.01 -2.31,6.78 -4.55,8.3 -2.23,1.51 -5.35,1.88 -9.32,1.1l-19.49 -3.83c-4.26,-0.84 -7.17,-2.43 -8.71,-4.75 -1.54,-2.32 -1.9,-5.64 -1.05,-9.94l4.36 -22.13 8.58 1.69 -3.87 19.66c-0.49,2.47 0.5,3.94 2.95,4.42l19.61 3.86c0.94,0.18 1.74,0.05 2.4,-0.39 0.66,-0.45 1.08,-1.14 1.27,-2.09 0.15,-0.77 0.32,-1.68 0.53,-2.7 0.2,-1.03 0.41,-2.09 0.63,-3.2 0.21,-1.11 0.43,-2.22 0.66,-3.34 0.22,-1.13 0.26,-2.27 0.12,-3.39 0.49,-2.51 1,-5.09 1.53,-7.75l8.04 1.58c-0.02,2.85 -0.3,5.63 -0.83,8.33 -0.46,2.33 -0.94,4.81 -1.46,7.41 -0.51,2.6 -0.98,4.99 -1.4,7.16z"/>
  <path id="4" class="fil1" d="M108.1 161.6l25.32 0.13 -5.79 10.4 -20.33 -0.22 -2.73 4.92 15.6 8.69 -5.49 9.85 -38.35 -21.37 5.49 -9.84 15.1 8.41 2.74 -4.93 -7.39 -11.28c-1.09,-1.66 -1.79,-3.35 -2.11,-5.08 -0.31,-1.72 0.08,-3.55 1.15,-5.49 0.35,-0.62 0.72,-1.2 1.09,-1.76 0.39,-0.55 0.74,-1.04 1.09,-1.47 0.42,-0.49 0.79,-0.95 1.13,-1.38l7.41 4.13 -1.22 2.2c-0.3,0.54 -0.4,1.13 -0.29,1.76 0.1,0.63 0.29,1.17 0.57,1.61l7.01 10.72z"/>
  <polygon id="5" class="fil1" points="163.65,132.28 155.4,139.97 137.3,120.58 144.42,150.23 135.72,158.36 105.77,126.3 114.02,118.59 132.59,138.48 125.01,108.34 133.7,100.22 "/>
  <polygon id="6" class="fil1" points="200.93,111.95 170.23,128.3 149.62,89.58 180.33,73.23 184.46,81 163.72,92.05 167.65,99.44 183.97,90.75 188.11,98.52 171.79,107.21 176.06,115.23 196.8,104.18 "/>
  <path id="7" class="fil1" d="M224.37 61.46l26.32 -0.02c4.38,-0.01 7.57,0.99 9.56,2.97 1.98,1.98 2.98,5.16 2.99,9.55l0 6.27c0.01,4.38 -0.99,7.57 -2.97,9.56 -1.98,1.99 -5.16,2.98 -9.55,2.99l-15.04 0 0 12.54 -11.28 0.01 -0.03 -43.87zm27.58 12.51c0,-2.5 -1.25,-3.76 -3.76,-3.75l-12.53 0 0.01 13.79 12.53 -0.01c2.51,0 3.76,-1.25 3.76,-3.76l-0.01 -6.27z"/>
  <polygon id="8" class="fil1" points="306.17,114.15 295.16,111.65 301.02,85.8 280.51,108.33 268.9,105.7 278.59,62.96 289.58,65.45 283.58,91.97 304.24,68.77 315.85,71.41 "/>
  <polygon id="9" class="fil1" points="345.21,138.75 335.63,132.82 345.02,117.65 331.71,109.41 322.31,124.58 312.73,118.65 335.85,81.31 345.43,87.25 336.35,101.92 349.66,110.16 358.74,95.5 368.33,101.43 "/>
  <polygon id="10" class="fil1" points="357.72,153.14 350.78,144.26 385.24,117.3 406.27,144.18 399.4,149.55 385.31,131.56 "/>
  <polygon id="11" class="fil1" points="383.55,193.92 379.07,183.57 411.26,169.63 406.03,157.57 414.07,154.08 429,188.56 420.97,192.04 415.74,179.99 "/>
  <path id="12" class="fil1" d="M426.38 233.02c2.47,-0.39 3.52,-1.83 3.12,-4.3l-1.67 -10.52c-0.4,-2.47 -1.83,-3.51 -4.31,-3.12l-19.83 3.16c-2.47,0.39 -3.51,1.83 -3.12,4.3l1.67 10.51c0.4,2.48 1.83,3.52 4.31,3.12l19.83 -3.15zm-18.05 14.28c-4.33,0.7 -7.63,0.22 -9.9,-1.43 -2.27,-1.65 -3.75,-4.63 -4.43,-8.97l-2.47 -15.45c-0.69,-4.34 -0.2,-7.64 1.44,-9.91 1.64,-2.26 4.64,-3.75 8.97,-4.43l19.8 -3.16c4.33,-0.68 7.63,-0.2 9.9,1.44 2.27,1.64 3.75,4.64 4.44,8.96l2.47 15.47c0.68,4.32 0.2,7.62 -1.45,9.89 -1.65,2.28 -4.63,3.75 -8.97,4.45l-19.8 3.14z"/>
  <polygon id="13" class="fil1" points="388.92,293.31 391.19,282.25 408.72,285.84 411.87,270.49 394.34,266.9 396.6,255.84 439.61,264.67 437.35,275.71 420.45,272.25 417.3,287.6 434.2,291.07 431.93,302.12 "/>
  <path id="14" class="fil1" d="M406.86 326.18l-7.58 12.25c-2.31,3.72 -4.83,5.91 -7.56,6.55 -2.73,0.64 -5.97,-0.2 -9.7,-2.51l-3.2 -1.98c-3.74,-2.31 -5.92,-4.83 -6.56,-7.56 -0.66,-2.74 0.18,-5.97 2.49,-9.7l13.51 -21.83 37.34 23.11 -5.94 9.59 -12.8 -7.92zm-47.27 21.55l5.93 -9.58 37.32 23.11 -5.93 9.58 -37.32 -23.11zm28.35 -14.85c2.13,1.31 3.85,0.9 5.17,-1.22l6.26 -10.12 -9.55 -5.91 -6.26 10.11c-1.32,2.13 -0.92,3.86 1.2,5.17l3.18 1.97z"/>
  <path id="15" class="fil2 str1" d="M106.26 373.88l-15.28 -21.43c-2.55,-3.57 -3.59,-6.74 -3.13,-9.51 0.46,-2.76 2.48,-5.42 6.05,-7.96l5.09 -3.64c3.57,-2.53 6.74,-3.57 9.5,-3.12 2.77,0.47 5.42,2.49 7.96,6.06l8.73 12.24 10.21 -7.27 6.56 9.19 -35.69 25.44zm-5.82 -29.72c-2.05,1.46 -2.35,3.21 -0.89,5.25l7.28 10.21 11.23 -8.02 -7.27 -10.2c-1.46,-2.05 -3.2,-2.33 -5.25,-0.88l-5.1 3.64z"/>
  <path id="16" class="fil2 str1" d="M79.47 332.37l-4.47 -11.69 16.76 -18.48 -24.13 -0.85 -4.47 -11.71 37.86 2.66c1.74,0.09 3.32,0.32 4.78,0.68 1.46,0.36 2.78,0.9 3.96,1.61 1.19,0.71 2.25,1.64 3.18,2.77 0.93,1.15 1.71,2.56 2.35,4.23 0.31,0.83 0.58,1.63 0.81,2.42 0.24,0.78 0.44,1.49 0.6,2.15 0.2,0.73 0.35,1.43 0.47,2.1l-7.88 3.01 -2.01 -5.27c-0.22,-0.58 -0.54,-1.02 -0.94,-1.31 -0.41,-0.3 -0.84,-0.47 -1.31,-0.52 -0.46,-0.05 -0.92,0.01 -1.37,0.19 -0.45,0.17 -0.8,0.42 -1.08,0.75l-23.11 27.26z"/>
  <path id="17" class="fil2 str1" d="M105.48 261.41c-0.01,4.09 -0.95,7.1 -2.86,9.02 -1.89,1.93 -4.87,2.89 -8.93,2.89l-19.85 0.02c-4.35,0 -7.5,-0.98 -9.46,-2.97 -1.97,-1.98 -2.96,-5.17 -2.97,-9.55l-0.01 -22.56 8.78 -0.02 0 20.06c0.01,2.5 1.26,3.76 3.76,3.75l19.96 -0.01c0.95,0 1.71,-0.28 2.27,-0.84 0.56,-0.57 0.85,-1.33 0.84,-2.29 0,-0.8 0,-1.72 0,-2.76 0,-1.05 0,-2.13 0,-3.26 0,-1.13 0,-2.27 -0.01,-3.42 0,-1.14 -0.18,-2.26 -0.53,-3.35 0,-2.55 0,-5.18 0,-7.9l8.19 -0.01c0.53,2.81 0.8,5.59 0.81,8.34 0,2.39 0,4.9 0,7.56 0,2.65 0,5.08 0.01,7.3z"/>
  <path id="18" class="fil2 str1" d="M107.86 222.81c-0.8,4.01 -2.31,6.78 -4.55,8.3 -2.23,1.51 -5.35,1.88 -9.32,1.1l-19.49 -3.83c-4.26,-0.84 -7.17,-2.43 -8.71,-4.75 -1.54,-2.32 -1.9,-5.64 -1.05,-9.94l4.36 -22.13 8.58 1.69 -3.87 19.66c-0.49,2.47 0.5,3.94 2.95,4.42l19.61 3.86c0.94,0.18 1.74,0.05 2.4,-0.39 0.66,-0.45 1.08,-1.14 1.27,-2.09 0.15,-0.77 0.32,-1.68 0.53,-2.7 0.2,-1.03 0.41,-2.09 0.63,-3.2 0.21,-1.11 0.43,-2.22 0.66,-3.34 0.22,-1.13 0.26,-2.27 0.12,-3.39 0.49,-2.51 1,-5.09 1.53,-7.75l8.04 1.58c-0.02,2.85 -0.3,5.63 -0.83,8.33 -0.46,2.33 -0.94,4.81 -1.46,7.41 -0.51,2.6 -0.98,4.99 -1.4,7.16z"/>
  <path id="19" class="fil2 str1" d="M108.1 161.6l25.32 0.13 -5.79 10.4 -20.33 -0.22 -2.73 4.92 15.6 8.69 -5.49 9.85 -38.35 -21.37 5.49 -9.84 15.1 8.41 2.74 -4.93 -7.39 -11.28c-1.09,-1.66 -1.79,-3.35 -2.11,-5.08 -0.31,-1.72 0.08,-3.55 1.15,-5.49 0.35,-0.62 0.72,-1.2 1.09,-1.76 0.39,-0.55 0.74,-1.04 1.09,-1.47 0.42,-0.49 0.79,-0.95 1.13,-1.38l7.41 4.13 -1.22 2.2c-0.3,0.54 -0.4,1.13 -0.29,1.76 0.1,0.63 0.29,1.17 0.57,1.61l7.01 10.72z"/>
  <polygon id="20" class="fil2 str1" points="163.65,132.28 155.4,139.97 137.3,120.58 144.42,150.23 135.72,158.36 105.77,126.3 114.02,118.59 132.59,138.48 125.01,108.34 133.7,100.22 "/>
  <polygon id="21" class="fil2 str1" points="200.93,111.95 170.23,128.3 149.62,89.58 180.33,73.23 184.46,81 163.72,92.05 167.65,99.44 183.97,90.75 188.11,98.52 171.79,107.21 176.06,115.23 196.8,104.18 "/>
  <path id="22" class="fil2 str1" d="M224.37 61.46l26.32 -0.02c4.38,-0.01 7.57,0.99 9.56,2.97 1.98,1.98 2.98,5.16 2.99,9.55l0 6.27c0.01,4.38 -0.99,7.57 -2.97,9.56 -1.98,1.99 -5.16,2.98 -9.55,2.99l-15.04 0 0 12.54 -11.28 0.01 -0.03 -43.87zm27.58 12.51c0,-2.5 -1.25,-3.76 -3.76,-3.75l-12.53 0 0.01 13.79 12.53 -0.01c2.51,0 3.76,-1.25 3.76,-3.76l-0.01 -6.27z"/>
  <polygon id="23" class="fil2 str1" points="306.17,114.15 295.16,111.65 301.02,85.8 280.51,108.33 268.9,105.7 278.59,62.96 289.58,65.45 283.58,91.97 304.24,68.77 315.85,71.41 "/>
  <polygon id="24" class="fil2 str1" points="345.21,138.75 335.63,132.82 345.02,117.65 331.71,109.41 322.31,124.58 312.73,118.65 335.85,81.31 345.43,87.25 336.35,101.92 349.66,110.16 358.74,95.5 368.33,101.43 "/>
  <polygon id="25" class="fil2 str1" points="357.72,153.14 350.78,144.26 385.24,117.3 406.27,144.18 399.4,149.55 385.31,131.56 "/>
  <polygon id="26" class="fil2 str1" points="383.55,193.92 379.07,183.57 411.26,169.63 406.03,157.57 414.07,154.08 429,188.56 420.97,192.04 415.74,179.99 "/>
  <path id="27" class="fil2 str1" d="M426.38 233.02c2.47,-0.39 3.52,-1.83 3.12,-4.3l-1.67 -10.52c-0.4,-2.47 -1.83,-3.51 -4.31,-3.12l-19.83 3.16c-2.47,0.39 -3.51,1.83 -3.12,4.3l1.67 10.51c0.4,2.48 1.83,3.52 4.31,3.12l19.83 -3.15zm-18.05 14.28c-4.33,0.7 -7.63,0.22 -9.9,-1.43 -2.27,-1.65 -3.75,-4.63 -4.43,-8.97l-2.47 -15.45c-0.69,-4.34 -0.2,-7.64 1.44,-9.91 1.64,-2.26 4.64,-3.75 8.97,-4.43l19.8 -3.16c4.33,-0.68 7.63,-0.2 9.9,1.44 2.27,1.64 3.75,4.64 4.44,8.96l2.47 15.47c0.68,4.32 0.2,7.62 -1.45,9.89 -1.65,2.28 -4.63,3.75 -8.97,4.45l-19.8 3.14z"/>
  <polygon id="28" class="fil2 str1" points="388.92,293.31 391.19,282.25 408.72,285.84 411.87,270.49 394.34,266.9 396.6,255.84 439.61,264.67 437.35,275.71 420.45,272.25 417.3,287.6 434.2,291.07 431.93,302.12 "/>
  <path id="29" class="fil2 str1" d="M406.86 326.18l-7.58 12.25c-2.31,3.72 -4.83,5.91 -7.56,6.55 -2.73,0.64 -5.97,-0.2 -9.7,-2.51l-3.2 -1.98c-3.74,-2.31 -5.92,-4.83 -6.56,-7.56 -0.66,-2.74 0.18,-5.97 2.49,-9.7l13.51 -21.83 37.34 23.11 -5.94 9.59 -12.8 -7.92zm-47.27 21.55l5.93 -9.58 37.32 23.11 -5.93 9.58 -37.32 -23.11zm28.35 -14.85c2.13,1.31 3.85,0.9 5.17,-1.22l6.26 -10.12 -9.55 -5.91 -6.26 10.11c-1.32,2.13 -0.92,3.86 1.2,5.17l3.18 1.97z"/>
  <ellipse class="fil3 str2" cx="250.55" cy="340.1" rx="18.84" ry="19.95"/>
  <path class="fil4 str3" d="M198.67 138l102.66 0c5.18,0 9.42,4.08 9.42,9.07l0 205.86c0,4.99 -4.24,9.07 -9.42,9.07l-102.66 0c-5.18,0 -9.42,-4.08 -9.42,-9.07l0 -205.86c0,-4.99 4.24,-9.07 9.42,-9.07zm8.19 14.06l86.28 0c4.35,0 7.91,3.42 7.91,7.62l0 149.81c0,4.19 -3.56,7.62 -7.91,7.62l-86.28 0c-4.35,0 -7.91,-3.43 -7.91,-7.62l0 -149.81c0,-4.2 3.56,-7.62 7.91,-7.62zm43.14 166.86c11.7,0 21.19,9.14 21.19,20.41 0,11.27 -9.49,20.4 -21.19,20.4 -11.7,0 -21.19,-9.13 -21.19,-20.4 0,-11.27 9.49,-20.41 21.19,-20.41z"/>
  <rect class="fil3" x="194.74" y="141.71" width="109.26" height="170.49" rx="7.53" ry="7.25"/>
  <g>
   <path class="fil5" d="M273.86 258.22l-19.75 -0.04 0.18 -0.09 0.28 -0.1 0.36 -0.18 0.19 -0.09 0.27 -0.18 0.28 -0.09 0.18 -0.05 0.09 -0.23 0.41 -0.23 0.14 -0.23 0.55 -0.04 0 -0.19 0.18 -0.04 0.19 -0.09 0.27 -0.19 0.23 -0.13 0.09 -0.19 0.14 -0.23 0.46 -0.27 0.18 -0.05 0 -0.27 1.51 -1.19 0.09 -0.18 0.1 -0.19 0.04 -0.18 0.23 -0.09 0.37 -0.64 0.18 -0.28 0.09 -0.18 0.19 -0.37 0.09 -0.27 0.09 -0.19 0.09 -0.18 0.09 -0.18 0.18 -0.28 0.1 -0.18 0.18 -0.28 0.09 -0.27 0.18 -0.37 0.1 -0.18 0.09 -0.18 0.18 -0.46 0.09 -0.18 0.09 -0.37 0.09 -0.28 0.1 -0.27 0.09 -0.18 0.09 -0.37 0.09 -0.28 0.19 -0.27 0.09 -0.46 0.09 -0.27 0.09 -0.19 0.09 -0.36 0.09 -0.37 0.09 -0.37 0.05 -0.73 0.18 0 0.05 -0.55 0.14 -0.68 9.03 -0.05 0 15.75zm-25.34 -15.84l10.31 0.18 0 2.75 -0.09 0.91 -0.09 0.55 -0.1 0.55 -0.09 0.28 -0.09 0.27 -0.09 0.19 -0.09 0.64 -0.1 0.37 -0.18 0.36 -0.04 0.37 -0.19 0 -0.04 0.27 -0.1 0.28 -0.09 0.27 -0.09 0.19 -0.18 0.36 -0.18 0.28 -0.19 0.27 -0.18 0.28 -0.18 0.27 -0.46 0.55 -0.87 0.96 -0.46 0.37 -0.28 0.18 -0.27 0.19 -0.27 0.18 -0.19 0.09 -0.27 0.18 -0.19 0.1 -0.18 0.09 -0.27 0.18 -0.37 0.18 -0.27 0.09 -0.19 0.1 -0.18 0.09 -0.19 0.09 -0.4 -0.14 -0.1 -0.18 -0.09 -0.37 -0.09 -0.82 -0.09 -0.46 -0.09 -0.64 -0.1 -0.46 -0.09 -0.37 -0.09 -0.54 -0.09 -0.56 -0.09 -0.27 -0.09 -0.55 -0.09 -0.55 -0.1 -0.55 -0.09 -0.46 -0.09 -0.27 -0.09 -0.46 -0.09 -0.64 -0.09 -0.46 -0.1 -0.37 -0.09 -0.55 -0.09 -0.55 -0.09 -0.27 -0.09 -0.46 -0.09 -0.36 -0.1 -0.37 -0.09 -0.37 -0.09 -0.27 -0.09 -0.46 -0.05 -0.73zm-26.37 0.09l3.75 -0.05 2.75 -0.04 0.05 0.18 0.09 0.64 0.18 0.64 0.09 0.19 0.09 0.45 0.09 0.19 0.1 0.18 0.09 0.28 0.09 0.18 0.09 0.36 0.09 0.19 0.28 0.46 0.09 0.18 0.09 0.27 0.09 0.19 0.09 0.18 0.19 0.28 0.09 0.18 0.18 0.27 0.19 0.28 0.09 0.27 0.27 0.37 0.09 0.18 0.19 0.28 0.18 0.27 0.18 0.28 0.19 0.27 0.18 0.28 0.27 0.36 0.37 0.46 1.51 1.61 0.28 0.18 0.36 0.27 0.19 0.1 0.27 0.18 0.18 0.09 0.28 0.18 0.27 0.19 0.28 0.18 1 0.92 0.37 0.27 0.18 0.09 1.1 0 0.28 -0.09 0.32 -0.14 0.04 -0.18 0.19 0 0.04 -0.37 0 -1 -0.18 -0.46 -0.18 -0.28 -1.47 -1.56 -0.46 -0.54 -0.45 -0.55 -0.28 -0.37 -0.27 -0.37 -0.28 -0.36 -0.09 -0.19 -0.18 -0.27 -0.19 -0.28 -0.09 -0.18 -0.09 -0.18 -0.18 -0.28 -0.09 -0.27 -0.09 -0.19 -0.1 -0.36 -0.09 -0.28 -0.09 -0.27 -0.09 -0.46 -0.09 -0.46 -0.09 -1.1 0 -1.19 0.09 -0.36 0.23 -0.42 4.48 0 4.99 0.14 0.1 0.55 0.09 0.37 0.09 0.36 0.09 0.46 0.09 0.55 0.09 0.55 0.1 0.27 0.09 0.55 0.09 0.55 0.09 0.28 0.09 0.55 0.09 0.55 0.1 0.37 0.09 0.55 0.09 0.45 0.09 0.28 0.09 0.55 0.09 0.64 0.1 0.46 0.09 0.36 0.09 0.37 0.09 0.55 0.09 0.37 0.09 0.45 0.1 0.55 0.09 0.55 0.09 0.55 0.09 0.28 0.09 0.55 0.05 1.1 -0.55 0.04 -0.46 0.09 -0.46 0.1 -0.27 0.09 -0.37 0.09 -0.18 0.09 -0.55 0.09 -0.28 0.09 -0.36 0.09 -0.83 0.09 -0.46 0.1 -5.49 0 -0.92 -0.1 -0.64 -0.09 -0.55 -0.09 -0.18 -0.09 -0.37 -0.09 -0.27 -0.09 -0.37 -0.09 -0.27 -0.09 -0.18 -0.1 -0.28 -0.09 -0.27 -0.09 -0.28 -0.09 -0.18 -0.09 -0.19 -0.09 -0.18 -0.1 -0.27 -0.09 -0.19 -0.09 -0.18 -0.09 -0.18 -0.09 -0.28 -0.19 -0.18 -0.09 -0.19 -0.09 -0.27 -0.18 -0.27 -0.19 -0.28 -0.18 -0.46 -0.36 -0.73 -0.65 -0.87 -0.77 -0.64 -0.74 -0.37 -0.46 -0.36 -0.45 -0.19 -0.28 -0.27 -0.37 -0.19 -0.27 -0.18 -0.27 -0.18 -0.28 -0.18 -0.27 -0.1 -0.19 -0.18 -0.27 -0.09 -0.19 -0.09 -0.18 -0.18 -0.27 -0.1 -0.19 -0.09 -0.18 -0.09 -0.18 -0.09 -0.19 -0.09 -0.18 -0.09 -0.18 -0.1 -0.19 -0.18 -0.36 -0.09 -0.28 -0.09 -0.18 -0.1 -0.28 -0.09 -0.18 -0.09 -0.18 -0.09 -0.19 -0.09 -0.27 -0.09 -0.18 -0.09 -0.37 -0.09 -0.18 -0.1 -0.19 -0.09 -0.36 -0.09 -0.19 -0.09 -0.27 -0.09 -0.46 -0.09 -0.18 -0.1 -0.64 -0.04 -0.46zm13.74 -4.03l0.13 -0.18 0.09 -0.19 0.1 -0.18 0.18 -0.28 0.09 -0.18 0.28 -0.37 0.36 -0.45 0.73 -0.83 0.05 -0.18 0.23 -0.09 0.04 -0.19 0.24 -0.09 0.04 -0.18 0.82 -0.69 0.46 -0.36 0.37 -0.28 0.36 -0.27 0.28 -0.19 0.18 -0.09 0.28 -0.09 0.27 -0.09 0.28 -0.09 0.27 -0.19 0.18 -0.09 0.19 -0.09 0.36 -0.05 0.05 0.28 0.09 0.37 0.09 0.27 0.09 0.46 0.1 0.55 0.09 0.36 0.09 0.28 0.09 0.55 0.09 0.27 0.09 0.37 0.1 0.46 0.09 0.36 0.09 0.28 0.09 0.27 0.09 0.37 0.09 0.37 0.1 0.36 0.04 0.83 -8.38 -0.09 -0.04 -1.01zm10.44 -7.15l2.47 0.05 0.46 0.09 0.36 0.09 0.55 0.09 0.28 0.1 0.27 0.09 0.28 0.09 0.27 0.09 0.27 0.09 0.28 0.09 0.18 0.1 0.19 0.09 0.18 0.09 0.18 0.09 0.19 0.09 0.18 0.09 0.27 0.19 0.28 0.18 0.18 0.09 0.37 0.28 0.36 0.27 0.83 0.73 0.18 0.05 0.78 0.91 0.28 0.37 0.27 0.37 0.18 0.27 0.19 0.28 0.09 0.18 0.18 0.28 0.09 0.18 0.19 0.27 0.09 0.19 0.09 0.18 0.09 0.18 0.09 0.19 0.09 0.27 0.1 0.18 0.09 0.28 0.04 0.46 -10.53 0 -0.04 -0.92 -0.1 -0.73 -0.09 -0.55 -0.09 -0.18 -0.09 -0.46 -0.09 -0.55 -0.09 -0.19 -0.09 -0.36 -0.1 -0.55 -0.09 -0.28 -0.09 -0.36 -0.09 -0.64 -0.09 -0.37 -0.09 -0.37 -0.1 -0.45 -0.09 -0.56 -0.04 -0.73zm27.53 8.06l-8.94 0 -0.05 -2.1 -0.09 -0.55 -0.09 -0.92 -0.09 -0.18 -0.09 -0.28 -0.1 -0.27 -0.09 -0.46 -0.09 -0.36 -0.09 -0.28 -0.09 -0.28 -0.09 -0.18 -0.19 -0.46 -0.09 -0.18 -0.09 -0.18 -0.09 -0.28 -0.09 -0.27 -0.1 -0.19 -0.09 -0.18 -0.09 -0.18 -0.09 -0.19 -0.05 -0.18 -0.18 0 -0.04 -0.27 -0.1 -0.19 -0.18 -0.27 -0.09 -0.18 -0.28 -0.37 -0.09 -0.18 -0.18 -0.28 -0.05 -0.18 -0.18 0 -0.04 -0.19 -0.28 -0.36 -0.27 -0.37 -0.05 -0.18 -0.19 0 -0.41 -0.55 -0.04 -0.18 -0.18 0 -0.1 -0.23 -0.18 -0.05 -0.18 -0.32 -0.92 -0.82 -0.18 -0.1 -0.64 -0.54 -0.19 -0.1 -0.18 -0.09 -0.18 -0.04 0 -0.19 -0.37 -0.23 -0.27 -0.04 -0.09 -0.23 -0.28 -0.18 -0.55 -0.37 18.01 -0.05 0 15.48zm-36.78 -15.29l-0.19 0.04 -0.18 0.1 -0.18 0.09 -0.28 0.09 -0.27 0.18 -0.37 0.18 -0.18 0.1 -0.19 0.09 -0.27 0.18 -0.27 0.18 -0.28 0.19 -0.37 0.27 -0.54 0.46 -1.06 0.96 -0.46 0.55 -0.27 0.37 -0.28 0.36 -0.18 0.28 -0.09 0.18 -0.18 0.28 -0.1 0.18 -0.09 0.18 -0.09 0.19 -0.09 0.18 -0.09 0.18 -0.19 0.28 -0.09 0.27 -0.09 0.18 -0.09 0.19 -0.09 0.27 -0.09 0.19 -0.09 0.27 -0.1 0.27 -0.09 0.28 -0.09 0.37 -0.09 0.18 -0.09 0.46 -0.1 0.36 -0.09 0.28 -0.09 0.55 -0.09 0.46 -0.09 0.55 -0.09 0.45 -0.09 0.74 -0.09 1.65 -0.05 0.91 -0.18 0.05 -0.28 0.09 -0.28 0.09 -6.27 -0.04 0 -2.84 0.09 -0.74 0.1 -0.55 0.09 -0.55 0.09 -0.27 0.09 -0.46 0.09 -0.37 0.09 -0.36 0.1 -0.18 0.09 -0.28 0.09 -0.37 0.09 -0.18 0.09 -0.18 0.09 -0.19 0.1 -0.27 0.09 -0.18 0.09 -0.28 0.09 -0.18 0.09 -0.19 0.09 -0.18 0.09 -0.18 0.09 -0.18 0.1 -0.19 0.09 -0.18 0.09 -0.18 0.18 -0.28 0.1 -0.18 0.18 -0.28 0.18 -0.27 0.19 -0.28 0.18 -0.27 0.18 -0.27 0.18 -0.28 0.28 -0.37 0.36 -0.46 0.56 -0.64 0.91 -1 0.83 -0.92 0.41 -0.5 8.79 -0.05 0 0.27 -0.18 0.1zm-5.68 -3.58l5.36 -5.22 0.04 -0.18 0.23 -0.09 0.05 -0.19 0.82 -0.68 0.55 -0.46 0.32 -0.05 0.09 0.19 0.09 0.46 0.1 0.27 0.09 0.55 0.09 0.46 0.09 0.37 0.09 0.54 0.09 0.37 0.09 0.27 0.09 0.46 0.1 0.19 0.09 0.36 0.09 0.55 0.09 0.28 0.09 0.27 0.1 0.46 0.09 0.36 0.09 0.28 0.04 0.46 -0.18 0.05 -0.46 0 -8.38 -0.14 -0.04 -0.19zm42.46 0.28l-29.64 0 -0.05 -0.64 -0.09 -0.28 -0.09 -0.27 -0.09 -0.73 -0.09 -0.19 -0.09 -0.46 -0.1 -0.36 -0.09 -0.64 -0.09 -0.19 -0.18 -0.91 -0.09 -0.46 -0.1 -0.55 -0.09 -0.55 -0.09 -0.27 -0.09 -0.37 -0.09 -0.46 -0.09 -0.55 -0.09 -0.27 -0.1 -0.37 -0.09 -0.55 -0.09 -0.37 -0.05 -1 0.19 0 0.46 -0.6 1.83 -1.74 0.23 -0.14 0.13 -0.32 1.24 -1.05 0.83 -0.92 0.04 -0.18 0.28 -0.14 0.18 -0.04 0.18 -0.32 0.18 -0.1 25.89 -0.04 0 16.03zm0 -19.15l-22.95 0 0 -0.18 0.27 0 0.32 -0.46 0.18 -0.27 0.1 -0.18 0.27 -0.37 0.09 -0.19 0.09 -0.18 0.28 -0.36 0.09 -0.19 0.27 -0.46 0.1 -0.27 0.04 -0.19 0.18 0 0.05 -0.18 0.19 -0.36 0.08 -0.19 0.1 -0.27 0.18 -0.28 0.18 -0.36 0.09 -0.19 0.1 -0.27 0.18 -0.37 0.09 -0.27 0.09 -0.28 0.19 -0.46 0.09 -0.18 0.09 -0.27 0.18 -0.37 0.09 -0.46 0.1 -0.18 0.09 -0.27 0.09 -0.19 0.09 -0.36 0.09 -0.19 0.09 -0.27 0.1 -0.46 0.09 -0.37 0.09 -0.18 0.09 -0.55 0.09 -0.37 0.09 -0.36 0.09 -0.46 0.1 -0.28 0.09 -0.45 0.09 -0.28 0.09 -0.55 0.09 -0.55 0.09 -0.55 0.14 -0.41 16.82 -0.05 0 15.39zm-24.24 -14.74l-0.23 0.27 -0.18 0.37 -0.18 0.27 -0.19 0.28 -0.18 0.27 -0.18 0.28 -0.19 0.27 -0.27 0.37 -0.18 0.27 -0.19 0.28 -0.27 0.36 -0.18 0.28 -0.28 0.36 -0.27 0.37 -0.46 0.55 -0.73 0.83 -0.23 0.32 -0.83 0.73 -0.55 0.46 -0.55 0.46 -0.55 0.45 -0.45 0.37 -0.37 0.27 -0.37 0.28 -0.45 0.36 -0.19 0.1 -0.41 -0.05 -0.09 -0.37 -0.09 -0.27 -0.09 -0.28 -0.1 -0.55 -0.09 -0.27 -0.09 -0.55 -0.09 -0.55 -0.09 -0.73 0 -4.12 0.09 -0.83 0.09 -0.91 0.09 -0.37 0.14 -0.32 2.84 0 6.69 0.04 -0.05 0.37 -0.05 0.28zm3.76 -7.97l-0.14 0.36 -0.09 0.28 -0.09 0.36 -0.09 0.19 -0.1 0.27 -0.09 0.37 -0.09 0.18 -0.09 0.18 -0.09 0.37 -0.09 0.18 -0.1 0.37 -0.09 0.27 -0.09 0.37 -0.09 0.18 -0.23 0.42 -0.18 0.09 -7.24 0 -3.48 -0.09 -0.18 -0.05 0.05 -0.55 0.09 -0.18 0.09 -0.27 0.09 -0.28 0.09 -0.18 0.09 -0.19 0.09 -0.18 0.1 -0.28 0.09 -0.27 0.09 -0.18 0.09 -0.28 0.09 -0.27 0.09 -0.19 0.1 -0.27 0.09 -0.19 0.09 -0.27 0.09 -0.18 0.09 -0.19 0.19 -0.36 0.09 -0.28 0.09 -0.18 0.09 -0.18 0.09 -0.19 0.18 -0.27 0.1 -0.18 0.09 -0.19 0.09 -0.18 0.18 -0.28 0.09 -0.18 0.19 -0.28 0.09 -0.18 0.18 -0.27 0.19 -0.28 0.18 -0.27 0.18 -0.28 0.28 -0.36 0.18 -0.28 0.27 -0.36 0.37 -0.46 0.37 -0.46 0.55 -0.64 0.55 -0.64 1.14 -1.24 0.37 -0.27 0.36 -0.28 0.19 -0.09 0.36 -0.18 0.28 -0.09 0.27 -0.1 0.28 0 0.36 0.1 0.28 0.09 0.18 0.09 0.27 0.18 0.24 0.14 0.27 0.37 0.09 0.18 0.09 0.18 0.09 0.18 0.1 0.19 0.09 0.36 0.09 0.28 0.09 0.37 0.09 0.45 0.09 0.28 0.1 0.27 0.09 0.55 0.09 0.28 0.09 0.64 0.09 0.27 0.1 0.83 0 2.65 -0.05 0.65zm20.48 4.21l-16.64 0 0.05 -1.28 0 -2.57 -0.09 -1.28 -0.09 -0.37 -0.09 -0.82 -0.1 -0.55 -0.09 -0.64 -0.09 -0.64 -0.09 -0.55 -0.09 -0.55 -0.09 -0.28 -0.1 -0.55 -0.09 -0.27 -0.09 -0.46 -0.09 -0.64 -0.09 -0.28 -0.09 -0.36 -0.09 -0.46 -0.1 -0.27 -0.09 -0.28 -0.09 -0.27 -0.09 -0.28 -0.09 -0.37 -0.09 -0.18 -0.1 -0.46 -0.09 -0.18 -0.09 -0.18 -0.09 -0.37 -0.18 -0.46 -0.1 -0.36 -0.09 -0.19 -0.09 -0.18 -0.09 -0.37 -0.09 -0.18 -0.09 -0.18 -0.1 -0.37 -0.18 -0.27 -0.18 -0.46 -0.09 -0.19 -0.1 -0.18 -0.08 -0.18 -0.19 -0.37 -0.18 -0.27 -0.19 -0.37 -0.09 -0.18 -0.18 -0.28 -0.18 -0.37 -0.1 -0.18 -0.18 -0.27 -0.09 -0.19 -0.18 -0.27 -0.19 -0.27 -0.18 -0.28 -1.33 -1.42 -0.27 -0.18 -0.28 -0.19 -0.18 -0.09 -0.18 -0.09 -0.19 -0.09 -0.27 -0.09 -0.19 -0.1 -0.36 -0.09 -1.1 0 -0.18 0.09 -0.46 0.1 -0.28 0.18 -0.18 0.09 -0.27 0.19 -1.61 1.51 -0.36 0.46 -0.37 0.45 -0.27 0.37 -0.28 0.36 -0.27 0.37 -0.28 0.37 -0.36 0.46 -0.28 0.36 -0.27 0.37 -0.28 0.36 -0.27 0.37 -0.19 0.28 -0.27 0.36 -0.18 0.28 -0.19 0.27 -0.18 0.28 -0.09 0.18 -0.19 0.28 -0.18 0.27 -0.27 0.37 -0.19 0.36 -0.09 0.19 -0.18 0.27 -0.19 0.37 -0.18 0.27 -0.09 0.19 -0.18 0.27 -0.09 0.28 -0.19 0.27 -0.09 0.18 -0.09 0.19 -0.09 0.18 -0.09 0.18 -0.09 0.18 -0.1 0.19 -0.18 0.37 -0.09 0.18 -0.09 0.28 -0.09 0.18 -0.09 0.18 -0.1 0.27 -0.09 0.19 -0.09 0.18 -0.09 0.28 -0.09 0.27 -0.1 0.18 -0.09 0.37 -0.09 0.18 -0.09 0.19 -0.09 0.27 -0.09 0.28 -0.09 0.27 -0.1 0.37 -0.09 0.27 -0.09 0.37 -0.09 0.46 -0.09 0.18 -0.09 0.55 -0.1 0.46 -0.09 0.36 -0.09 0.55 -0.09 0.55 -0.09 0.83 -0.05 3.02 -0.18 0.05 -31.87 0.09 -0.23 0.14 -0.09 0.27 0.04 2.34 3.03 0 1.37 -0.1 20.24 0 7.78 0.19 0.19 0.04 0.04 1.01 0.09 1.01 0.1 0.64 0.09 1.1 0.09 0.46 0.09 0.82 0.09 0.28 0.09 0.73 0.1 0.28 0.09 0.64 0.09 0.45 0.09 0.64 0.09 0.28 0.09 0.64 0.09 0.46 0.1 0.37 0.09 0.18 0.09 0.37 0.09 0.45 0.09 0.46 0.1 0.37 0.09 0.18 0.18 0.46 0.09 0.37 0.09 0.36 0.09 0.28 0 0.55 -0.59 0.68 -0.46 0.37 -0.37 0.27 -0.18 0.1 -0.18 0.09 -0.19 0.09 -31.96 0.09 -1.23 0.14 0.04 2.79 1.19 0 2.66 -0.09 18.68 0 6.78 0.09 0.27 0.19 -0.55 0.45 -0.55 0.46 -0.64 0.55 -0.73 0.64 -1.19 1.1 -0.23 0.14 -0.82 0.92 -0.46 0.54 -0.28 0.37 -0.27 0.37 -0.28 0.36 -0.18 0.28 -0.18 0.27 -0.28 0.37 -0.27 0.37 -0.18 0.27 -0.28 0.37 -0.18 0.27 -0.19 0.28 -0.27 0.36 -0.19 0.28 -0.18 0.27 -0.18 0.28 -0.18 0.27 -0.19 0.28 -0.18 0.27 -0.18 0.28 -0.09 0.18 -0.19 0.28 -0.18 0.27 -0.18 0.28 -0.1 0.18 -0.18 0.27 -0.18 0.28 -0.18 0.27 -0.1 0.19 -0.18 0.27 -0.27 0.37 -0.19 0.36 -0.18 0.28 -0.09 0.18 -0.19 0.28 -0.09 0.18 -0.18 0.36 -0.09 0.19 -0.19 0.37 -0.13 0.23 -0.74 0 -8.15 0 -8.15 0.04 -0.04 0.37 -0.09 0.36 -0.05 2.11 15.75 0.14 0.19 0.04 -0.05 0.19 -0.18 0.27 -0.1 0.19 -0.09 0.18 -0.09 0.64 -0.09 0.37 -0.09 0.27 -0.09 0.37 -0.1 0.45 -0.09 0.55 -0.09 0.28 -0.09 0.37 -0.09 0.45 -0.09 0.92 -0.1 0.46 -0.09 0.55 -0.09 1 -0.09 0.37 -0.09 1.38 -0.09 0.54 0 3.58 0.09 1.1 0.09 0.55 -0.05 0.5 -14.05 0.14 -0.09 0.27 0 1.56 0.13 1.05 0.64 0 8.52 0 5.4 0.05 0.05 0.27 0.09 0.64 0.09 0.37 0.09 0.28 0.1 0.36 0.09 0.19 0.09 0.27 0.09 0.37 0.09 0.18 0.09 0.27 0.1 0.28 0.09 0.27 0.09 0.19 0.09 0.18 0.09 0.18 0.09 0.28 0.19 0.27 0.09 0.28 0.09 0.18 0.18 0.37 0.09 0.18 0.1 0.19 0.18 0.27 0.09 0.18 0.09 0.19 0.19 0.27 0.09 0.18 0.18 0.28 0.18 0.27 0.1 0.19 0.18 0.27 0.18 0.28 0.28 0.36 0.18 0.28 0.28 0.37 0.18 0.27 0.18 0.27 0.28 0.37 0.27 0.37 0.37 0.46 0.46 0.54 1.69 1.79 0.46 0.37 0.36 0.27 0.55 0.46 0.37 0.28 0.28 0.18 0.27 0.18 0.27 0.18 0.28 0.19 0.18 0.09 -25 0.09 -0.32 0.14 -0.09 0.27 -0.05 2.57 8.15 -0.05 38.1 -0.05 0.05 0.19 0.09 0.18 0.09 0.46 0.09 0.37 0.09 0.55 0.09 0.82 0.1 0.55 0.09 0.92 0.09 0.55 0.09 0.55 0.09 0.73 0.09 1.1 0.1 0.36 0.09 1.84 0.09 1.65 0 3.75 -0.09 0.19 -0.09 0.36 -0.1 0.18 -0.09 0.19 -0.18 0.46 -0.09 0.18 -0.19 0.37 -0.18 0.27 -0.18 0.28 -0.19 0.27 -0.18 0.28 -0.18 0.27 -0.37 0.46 -0.36 0.46 -0.92 1 -0.23 0.32 -1.19 1.1 -0.55 0.46 -0.36 0.28 -0.37 0.27 -0.28 0.18 -0.27 0.19 -0.28 0.18 -0.18 0.09 -0.27 0.19 -0.19 0.09 -0.27 0.18 -0.18 0.09 -0.19 0.09 -0.18 0.09 -0.18 0.1 -0.19 0.09 -0.18 0.09 -0.18 0.09 -0.55 0.18 -0.28 0.1 -0.46 0.09 -0.18 0.09 -1.65 0 -0.64 -0.09 -0.27 -0.09 -0.46 -0.1 -0.18 -0.09 -0.37 -0.09 -0.18 -0.09 -0.19 -0.09 -0.27 -0.09 -0.28 -0.1 -0.27 -0.09 -0.28 -0.18 -0.18 -0.09 -0.18 -0.09 -0.18 -0.09 -0.19 -0.1 -0.27 -0.18 -0.19 -0.09 -0.27 -0.18 -0.18 -0.1 -0.28 -0.18 -0.37 -0.27 -0.18 -0.05 0 -0.27 0.55 0.04 1.1 0 0.37 -0.09 0.73 -0.09 0.27 -0.09 0.28 -0.09 0.27 -0.1 0.37 -0.09 0.37 -0.09 0.27 -0.09 0.18 -0.09 0.19 -0.09 0.36 -0.19 0.19 -0.09 0.18 -0.09 0.27 -0.19 0.37 -0.27 1.24 -1.14 0.27 -0.37 0.09 -0.18 0.09 -0.19 0.19 -0.27 0.09 -0.18 0.09 -0.28 0.09 -0.18 0.09 -0.19 0.1 -0.27 0.09 -0.18 0.09 -0.28 0.09 -0.37 0.09 -0.18 0.09 -0.37 0.1 -0.64 0.09 -0.36 0 -2.57 -0.09 -0.36 -0.1 -0.65 -0.09 -0.27 -0.09 -0.18 -0.09 -0.28 -0.09 -0.18 -0.09 -0.19 -0.1 -0.18 -0.09 -0.18 -0.18 -0.28 -0.28 -0.36 -0.96 -1.06 -0.36 -0.27 -0.28 -0.18 -0.18 -0.1 -0.28 -0.18 -0.18 -0.09 -0.18 -0.09 -0.18 -0.09 -0.19 -0.09 -0.27 -0.1 -0.28 -0.09 -0.27 -0.09 -0.37 -0.09 -0.46 -0.09 -0.27 -0.1 -0.92 -0.09 -2.65 0 -0.19 0.09 -0.91 0.1 -0.46 0.09 -0.28 0.09 -0.36 0.09 -0.19 0.09 -0.18 0.1 -0.27 0.18 -0.19 0.09 -0.36 0.27 -0.46 0.37 -0.78 0.69 -0.46 0.55 -0.27 0.36 -0.19 0.28 -0.09 0.18 -0.18 0.28 -0.09 0.18 -0.18 0.27 -0.1 0.19 -0.09 0.18 -0.09 0.18 -0.09 0.28 -0.09 0.18 -0.09 0.28 -0.09 0.18 -0.1 0.18 -0.09 0.28 -0.09 0.27 -0.09 0.28 -0.09 0.37 -0.09 0.45 -0.1 0.28 -0.09 0.55 0 2.93 0.09 0.55 0.1 0.36 0.09 0.46 0.09 0.19 0.09 0.27 0.09 0.37 0.09 0.18 0.1 0.18 0.09 0.28 0.09 0.18 0.09 0.18 0.09 0.19 0.18 0.27 0.1 0.19 0.18 0.27 0.09 0.18 0.27 0.37 0.28 0.37 0.46 0.55 0.78 0.87 0.54 0.45 0.46 0.37 0.28 0.18 0.36 0.28 0.28 0.18 0.18 0.09 0.28 0.19 0.18 0.09 0.18 0.09 0.28 0.18 0.18 0.09 0.18 0.1 0.19 0.09 0.18 0.09 0.18 0.09 0.19 0.09 0.18 0.1 0.28 0.09 0.27 0.18 0.28 0.09 0.27 0.09 0.18 0.09 0.37 0.1 0.18 0.09 0.37 0.09 0.18 0.09 0.37 0.09 0.27 0.09 0.46 0.09 0.37 0.1 0.36 0.09 4.12 0 1.01 -0.09 0.55 -0.1 0.28 -0.09 0.55 -0.09 0.36 -0.09 0.37 -0.09 0.37 -0.09 0.27 -0.09 0.18 -0.1 0.37 -0.09 0.18 -0.09 0.19 -0.09 0.27 -0.09 0.18 -0.09 0.28 -0.09 0.18 -0.1 0.19 -0.09 0.18 -0.09 0.27 -0.18 0.19 -0.1 0.27 -0.18 0.18 -0.09 0.37 -0.27 0.28 -0.19 0.36 -0.27 0.73 -0.64 1.06 -0.96 0.36 -0.46 0.28 -0.37 0.27 -0.37 0.19 -0.27 0.04 -0.37 0.19 0 0.23 -0.36 0.09 -0.28 0.18 -0.37 0.18 -0.27 0.09 -0.37 0.1 -0.18 0.09 -0.18 0.18 -0.37 0.09 -0.27 0.09 -0.37 0.09 -0.28 0.1 -0.27 0.09 -0.55 0.09 -0.27 0.09 -0.55 0.09 -0.55 0.09 -0.28 0.1 -0.64 0.09 -0.46 0.09 -0.82 0.09 -0.92 0.09 -1.01 0 -5.22 -0.09 -1.83 -0.09 -0.73 -0.09 -0.37 -0.09 -0.64 -0.1 -0.73 -0.09 -0.28 -0.09 -0.55 -0.09 -0.55 -0.09 -0.55 -0.05 -0.27 21.4 0 0 -78.14z"/>
  </g>
  <path class="fil5" d="M298.81 239.39l0 3.11 -48.66 0 0 -3.11 48.66 0zm0 -37.64l0 3.09 -6.55 -0.04 -0.23 0.42 -0.09 0.18 -0.09 0.18 -0.05 0.28 -0.18 0 -0.05 0.46 -0.18 0.36 -0.32 0.23 -1.1 0.09 -0.55 -0.41 0.04 -1.19 0.05 -0.64 -12.55 0 0.05 8.15 0.09 0.64 0 4.31 -0.09 1.1 -0.09 0.37 -0.09 0.64 -0.05 0.73 22.03 -0.03 0 3.23 -23.68 0 0 0.19 -0.18 0 -0.05 0.37 -0.36 0.45 -0.28 0.37 -0.27 0.37 -0.37 0.45 -0.46 0.55 -0.87 0.74 -0.04 0.18 -0.97 0.87 -0.36 0.23 0 0.18 -0.18 0.05 -0.37 0.27 -0.37 0.23 0 0.18 -0.18 0.05 -0.46 0.18 -0.09 0.23 -0.28 0.05 -0.36 0.18 -0.18 0.09 -0.19 0.1 -0.18 0.09 -0.18 0.09 -0.37 0.18 -0.18 0.09 -0.28 0.09 -0.18 0.1 -0.46 0.09 -0.18 0.09 -0.37 0.09 -0.55 0.09 -0.36 0.09 -0.74 0.09 -3.48 0 -0.64 -0.09 -0.64 -0.09 -0.18 -0.09 -0.37 -0.09 -0.73 -0.09 -0.28 -0.09 -0.36 -0.1 -0.19 -0.09 -0.27 -0.09 -0.18 -0.09 -0.37 -0.18 -0.18 -0.09 -0.28 -0.1 -0.27 -0.18 -0.28 -0.09 -0.13 -0.23 -0.32 -0.23 -0.37 -0.14 0 -0.18 -0.19 -0.05 -0.09 -0.23 -0.27 -0.04 -0.5 -0.6 -0.28 -0.46 -0.09 -0.18 -0.28 -0.36 -0.22 -0.1 -0.05 -0.18 -0.09 -0.27 -0.09 -0.28 -0.1 -0.37 -0.09 -0.27 -0.09 -0.46 -0.09 -0.27 -0.09 -0.28 -0.09 -0.27 -0.05 -0.74 -1.81 0 0 -3.11 2.18 0 0.04 -0.46 0.09 -0.36 0.19 -0.55 0.09 -0.19 0.09 -0.27 0.09 -0.28 0.09 -0.18 0.1 -0.18 0.18 -0.28 0.05 -0.18 0.18 0 0.04 -0.28 0.1 -0.18 0.22 -0.09 0.05 -0.27 0.46 -0.56 0.36 -0.45 0.33 -0.09 0 -0.28 0.27 -0.04 0.64 -0.55 0.37 -0.51 0.18 -0.04 0.09 -0.23 0.28 0 0.04 -0.19 0.32 -0.13 0.19 -0.32 0.18 -0.05 0.37 -0.23 0 -0.18 0.27 -0.05 0.37 -0.27 0.27 -0.1 0.55 -0.45 0.18 -0.09 0.19 -0.1 0.18 -0.09 0.18 -0.09 0.55 -0.37 0.19 -0.09 0.18 -0.09 0.18 -0.09 0.19 -0.09 0.45 -0.09 0.19 -0.1 0.45 -0.18 0.28 -0.04 0 -0.19 0.64 -0.04 0.28 -0.1 0.27 -0.09 0.46 -0.04 0 -0.19 0.55 -0.04 2.84 0 0.55 0.09 1.28 0.09 0.27 0.09 0.28 0.09 0.73 0.1 0.37 0.09 0.36 0.09 0.46 0.09 0.28 0.09 0.36 0.09 0.28 0.1 0.18 0.09 0.37 0.09 0.27 0.09 0.18 0.09 0.19 0.05 -0.05 -6.69 -24.11 -0.09 0 -3.12 24.07 0 -0.05 -9.52 -0.05 -5.86 -23.97 0 0 -3.12 24.07 0 -0.05 -3.94 -0.09 -14.84 -0.09 -0.82 -0.09 -8.98 0 -2.01 2.42 -0.05 0.14 0.78 0.09 1.19 0.09 0.64 0.09 0.46 0.1 0.55 0.09 0.46 0.09 0.36 0.09 0.28 0.09 0.46 0.09 0.36 0.1 0.18 0.09 0.28 0.09 0.37 0.09 0.18 0.09 0.27 0.09 0.19 0.09 0.27 0.1 0.28 0.09 0.18 0.09 0.18 0.09 0.19 0.09 0.18 0.09 0.18 0.1 0.19 0.09 0.18 0.09 0.18 0.18 0.28 0.19 0.27 0.18 0.28 0.18 0.27 0.28 0.37 0.27 0.37 0.37 0.45 0.36 0.46 0.55 0.64 0.37 0.46 0.55 0.64 0.55 0.64 0.27 0.37 0.37 0.46 0.27 0.36 0.37 0.46 0.28 0.37 0.36 0.45 0.28 0.37 0.36 0.46 0.28 0.37 0.36 0.45 0.37 0.46 0.28 0.37 0.27 0.36 0.28 0.37 0.18 0.28 0.27 0.36 0.19 0.28 0.18 0.27 0.27 0.37 0.28 0.36 0.37 0.46 0.91 1.01 0.18 0.28 0.28 0.36 0.18 0.28 0.18 0.27 0.19 0.28 0.09 0.18 0.18 0.27 0.09 0.19 0.19 0.27 0.09 0.28 0.18 0.27 0.09 0.28 0.19 0.27 0.09 0.28 0.18 0.27 0.09 0.18 0.09 0.28 0.1 0.18 0.09 0.28 0.09 0.18 0.09 0.18 0.09 0.19 0.1 0.27 0.09 0.46 0.09 0.37 0.09 0.27 0.09 0.28 0.05 0.27 0.27 0.05 0.28 0.09 2.29 0 2.61 0 0 2.92 -4.08 0.01 -0.37 0.09 -0.18 0.09 -0.05 0.23 0.1 0.18 0.09 0.46 0.09 0.28 0.09 0.55 0.09 2.01 0.09 1.1 0 4.22 -0.09 0.82 -0.09 0.55 -0.09 0.37 -0.09 0.55 -0.09 0.45 -0.1 0.28 -0.09 0.36 -0.09 0.46 -0.09 0.28 -0.09 0.36 -0.09 0.19 -0.09 0.45 -0.1 0.19 -0.09 0.46 -0.09 0.18 0 0.37 5.5 0.01zm-7.01 -5.24l-0.14 0.46 -0.09 0.37 -0.09 0.27 -0.09 0.28 -0.09 0.55 -0.1 0.36 -0.09 0.28 -0.09 0.46 -0.09 0.55 -0.09 0.27 -0.19 0.55 -0.09 0.37 -0.04 0.36 -13.65 0 0 -15.38 14.33 0.09 0.19 0.45 0.09 0.46 0.09 0.55 0.09 0.92 0.09 0.55 0.1 1.65 0 4.94 -0.05 0.64zm-15.11 -22.53l0.09 -0.37 0.18 -0.04 0.28 -0.18 0.36 -0.19 1.2 0 0.82 0.09 0.27 0.1 0.28 0.09 0.27 0.09 0.28 0.09 0.18 0.05 0 0.18 0.28 0.04 0.27 0.1 0.27 0.09 0.28 0.09 0.18 0.09 0.28 0.18 0.18 0.05 0 0.18 0.28 0.14 0.22 0.14 0.05 0.18 0.37 0.23 0.73 0.64 2.15 2.06 0.55 0.64 0.05 0.19 0.18 0 0 0.18 0.18 0 0 0.18 0.19 0 0.23 0.37 0.04 0.18 0.18 0 0.1 0.32 0.32 0.23 0.18 0.37 0.09 0.18 0.19 0.28 0.04 0.27 0.18 0 0 0.28 0.19 0 0.13 0.27 0.19 0.28 0.09 0.18 0.09 0.27 0.09 0.19 0.05 0.18 -13.1 0 -0.04 -0.27 -0.1 -5.23 -0.04 -3.66zm22.12 87.39l-48.66 -0.09 0 -3.02 48.16 -0.05 0.5 0 0 3.16z"/>
 </g>
</svg>
