<?xml version="1.0" encoding="UTF-8"?>
<!DOCTYPE svg PUBLIC "-//W3C//DTD SVG 1.1//EN" "http://www.w3.org/Graphics/SVG/1.1/DTD/svg11.dtd">
<!-- Creator: CorelDRAW 2017 -->
<svg xmlns="http://www.w3.org/2000/svg" xml:space="preserve" width="500px" height="500px" version="1.1" style="shape-rendering:geometricPrecision; text-rendering:geometricPrecision; image-rendering:optimizeQuality; fill-rule:evenodd; clip-rule:evenodd"
viewBox="0 0 500 500"
 xmlns:xlink="http://www.w3.org/1999/xlink">
 <defs>
  <style type="text/css">
   <![CDATA[
    .str0 {stroke:#575757;stroke-width:16;stroke-miterlimit:22.9256}
    .fil0 {fill:#FEFEFE}
    .fil2 {fill:#054D9E}
    .fil1 {fill:#184887}
    .fil3 {fill:#CB1A28}
   ]]>
  </style>
 </defs>
 <g id="Слой_x0020_1">
  <metadata id="CorelCorpID_0Corel-Layer"/>
  <circle class="fil0 str0" cx="250" cy="250" r="239.39"/>
  <path class="fil1" d="M403.83 231.99c2.74,-5.07 5.02,-14.74 5.69,-18.73 4.07,-24.14 -4.28,-46.81 -17.72,-64.66 -8.23,-10.92 -16.63,-17.99 -29.34,-27.02 -5.96,-4.24 -29.71,-17.77 -38.15,-19.1 1.14,5.08 -0.11,0.55 5.11,5.83 6.5,5.82 5.41,4.58 14.82,15.1 4.23,5.3 13.4,17.87 11.03,28.59 -2.6,11.76 -16.18,12.21 -27.53,9.28 -17.61,-4.55 -36.28,-22.49 -52.74,-27.08 -37.53,-10.47 -94.66,9.68 -64.39,33.78 3.82,3.04 68.59,40.19 75.58,44.19 12.06,6.9 27.67,14.33 32.3,27.52 5.61,15.93 -12.67,27.81 -24.51,34.13 -21.06,11.24 -42.54,12.68 -68.66,8.97 -27.79,-8.65 -24.68,-8.71 -46.97,-24.15 -12.42,-8.61 -18.5,2.71 -10.06,12.2 4.59,5.17 14.61,11.71 21.09,15.31 32.58,18.11 76.02,18.33 111.19,3.18 22.39,-10.66 55.82,-38.58 32.55,-64.23 -6.14,-6.76 -11.01,-9.66 -20.07,-14.88 -14.81,-8.54 -28.72,-17.54 -43.5,-25.66 -7.12,-3.91 -14.43,-8.38 -21.58,-12.67 -3.47,-2.07 -21.53,-10.48 -17.93,-16.91 8.18,-6.94 22.46,-2.03 30.5,2.27l50.28 29.58c19.05,11.92 62.81,30.2 51.31,66.86 -4.65,14.83 -14.59,25.11 -25.7,34.12l-8.79 6.19c-3.33,2.03 -2.08,0.35 -2.81,2.85 5.85,3.22 40.5,-19.04 49.22,-26.29 2.67,-2.22 4.18,-3.44 6.78,-6.06 1.67,-1.67 5.86,-5.53 7.43,-7.6 2.1,-2.24 5.66,-7.47 7.26,-9.83 1.53,-2.27 7.09,-11.6 8.31,-15.08zm-228.52 64.15c-2.68,-4.07 -31.69,-27.17 -30.9,-45.64 0.27,-6.13 4.47,-11.22 9.45,-12.29 20.65,-5.71 44.83,15.42 63.31,24.47 35.96,17.61 107.62,-5.93 70.4,-32.01 -4.14,-2.91 -9.88,-5.94 -14.45,-8.34 -4.78,-2.51 -9.73,-5.62 -14.44,-8.4 -19.18,-11.35 -37.84,-21.92 -57.15,-33.37 -26.49,-15.71 -28.66,-34.26 -1.89,-50.89 29.86,-18.56 74.52,-20.75 105.71,0.59 4.46,3.05 9.07,6 13.62,9.18 3.41,2.37 11.38,8.66 15.69,2.57 10.03,-14.2 -44.59,-37.85 -59.23,-40.44 -22.54,-3.99 -45.72,-2.2 -67.27,5.23 -19.46,6.71 -41.98,22.81 -47.65,40.13 -6.67,20.33 9.21,32.16 22.67,40.64 2.58,1.62 4.2,2.57 6.71,3.96l76.07 45.12c4.21,3.41 7.33,9.07 -1.52,11.14 -13.09,3.08 -24.14,-4.61 -33.18,-9.94 -18.24,-10.77 -36.91,-21.95 -55.29,-32.43 -16.8,-9.59 -39.65,-23.18 -39.66,-48.29 -0.01,-30.41 33.6,-48.68 36.77,-52.54 0.04,-0.05 -0.83,0.1 -2.26,0.1 -6.92,1.08 -24.34,10.35 -29.95,13.9 -26.81,16.99 -53.45,46.85 -51.31,84.16 1.57,27.26 16.31,48.32 29.22,60.6l12.01 10.1c11.38,7.94 22.95,15.7 36.14,20.89 3.8,1.49 5.32,1.77 8.38,1.8z"/>
  <g id="_2037454939440">
   <path class="fil2" d="M117.44 362.75c-4.89,3.47 -10.26,2.35 -17.31,2.35 -6.35,-0.01 -13.47,-0.31 -19.73,0.04l-0.12 6.03c7.88,0.67 18.26,0.1 26.35,0.11 9.83,0 16.46,0.85 16.78,-9.88 0.33,-10.66 -0.99,-14.66 -11.77,-14.76 -5.53,-0.05 -22.17,1.66 -25.12,-2.22 -0.72,-1.72 -0.54,-5.05 -0.04,-7.2 3.03,-2.99 12.14,-1.9 17.15,-1.9 6.25,0.01 12.61,0.12 18.85,-0.02l0.14 -6.23c-9.44,0.01 -18.72,0 -27.99,0 -13.25,0 -13.96,1.41 -14.03,14.39 -0.08,15.09 18.07,7.82 32.4,9.69 5.63,0.73 4.54,4.22 4.44,9.6z"/>
   <path class="fil2" d="M335.8 335.33c4.58,-0.02 29.4,-0.53 32.7,0.59 3.1,1.06 3.74,4.56 2.6,8.07 -2.5,3.96 -11.04,2.65 -16.15,2.64 -6.27,0 -12.55,-0.02 -18.82,0.01 -0.9,3.26 -0.36,19.97 -0.32,24.55l6.35 0.08 -0.04 -18.09 18.83 -0.11 9.81 18.27 6.17 -0.07c-0.44,-2.06 -7.42,-14.67 -8.99,-17.85l3.46 -1.07c1.2,-0.34 2.08,-0.9 2.88,-1.59 3.75,-3.26 4.88,-17.73 -1.95,-20.71 -4.57,-1.99 -29.2,-0.82 -36.31,-1.03l-0.22 6.31z"/>
   <path class="fil2" d="M224.45 335.31c6.48,0.01 12.78,0.01 19.08,0.01 6.74,0 11.73,-1.11 16.42,2.49 0.96,9.69 -1.37,8.83 -13.42,8.82 -7.19,0 -14.65,-0.2 -21.81,0.03 -0.96,3.68 -0.4,19.7 -0.34,24.57l6.35 0.04 -0.05 -18.16c27.09,-0.86 36,4.93 35.01,-15.21 -0.46,-9.51 -7.51,-8.85 -16.16,-8.85 -8.31,-0.01 -16.63,0.06 -24.93,0l-0.15 6.26z"/>
   <path class="fil2" d="M178.78 335.15c9.64,1.41 33.76,-2.34 35.47,2.71l0.18 6.46c-3.48,3.38 -10.46,2.31 -16.37,2.31 -6.09,0.01 -12.71,-0.25 -18.73,0.05l-0.24 24.46 6.32 0.14 -0.07 -18.03c6.56,-1.07 17.47,0.28 24.68,-0.24 10.13,-0.73 10.43,-5.12 10.18,-15.12 -0.22,-8.92 -7.86,-8.84 -16.14,-8.84 -6.66,0 -19.25,-0.71 -25.2,0.16l-0.08 5.94z"/>
   <polygon class="fil2" points="270.82,371.21 276.52,371.17 276.49,353.53 308.28,353.45 308.36,371.25 313.73,371.23 313.93,347.1 276.49,347.02 276.49,329.32 270.84,329.05 "/>
   <path class="fil3" d="M156.33 346.67l-18.23 0.1c-1.75,2.93 -12.16,22.58 -12.33,24.45l5.84 0.06c2.54,-3.42 8.03,-16.14 9.99,-18.2l18.3 -0.01 9.62 18.12 6.36 0.05c-1.25,-3.24 -3.79,-7.76 -5.27,-10.35 -5.3,-9.33 -11.3,-21.86 -16.68,-31.75l-6.23 -0.1c0.74,3.28 8.2,14.98 8.63,17.63z"/>
   <polygon class="fil2" points="383.58,371.15 419.65,371.27 419.72,365.21 389.29,365.08 389.23,353.43 419.7,353.42 419.71,347.23 383.7,347.06 "/>
   <polygon class="fil2" points="321.68,371.19 327.64,371.17 327.68,329.13 321.58,329.06 "/>
   <path class="fil2" d="M383.72 335.15l35.96 0.14 0.04 -6.11c-6.09,-0.67 -23.44,-0.02 -31.81,-0.14 -5.22,-0.08 -4.81,0.16 -4.19,6.11z"/>
  </g>
 </g>
</svg>
