<?xml version="1.0" encoding="UTF-8"?>
<!DOCTYPE svg PUBLIC "-//W3C//DTD SVG 1.1//EN" "http://www.w3.org/Graphics/SVG/1.1/DTD/svg11.dtd">
<!-- Creator: CorelDRAW 2017 -->
<svg xmlns="http://www.w3.org/2000/svg" xml:space="preserve" width="500px" height="500px" version="1.1" style="shape-rendering:geometricPrecision; text-rendering:geometricPrecision; image-rendering:optimizeQuality; fill-rule:evenodd; clip-rule:evenodd"
viewBox="0 0 500 500"
 xmlns:xlink="http://www.w3.org/1999/xlink">
 <defs>
  <style type="text/css">
   <![CDATA[
    .str0 {stroke:#A6A6A6;stroke-width:25;stroke-miterlimit:22.9256}
    .fil0 {fill:#0F0F0F}
    .fil5 {fill:#515151}
    .fil3 {fill:#84AA58}
    .fil1 {fill:#97C95D}
    .fil4 {fill:#F3F3F3}
    .fil2 {fill:#FEB60C}
   ]]>
  </style>
 </defs>
 <g id="Слой_x0020_1">
  <metadata id="CorelCorpID_0Corel-Layer"/>
  <circle class="fil0 str0" cx="250" cy="250" r="226.5"/>
  <g id="_1708983550368">
   <path class="fil1" d="M291.01 193.91c-2.55,-24.94 33.91,-27.86 36.4,-4.27 2.57,24.34 -34.07,27.1 -36.4,4.27zm-117.8 0c-1.24,-10.86 6.71,-19.63 16.33,-20.65 10.68,-1.14 19.19,6.99 20.21,16.26 2.67,24.32 -33.99,26.79 -36.54,4.39zm43.73 -80.06c2.56,5.16 4.01,7.55 7.49,12.98 2.94,4.59 5.68,8.56 2.82,13.26 1.11,1.75 1.41,-0.36 0.38,2.91 -1.52,4.84 -27.95,6.63 -36.09,7.53 -7.89,0.87 -6.01,3.56 -11.95,3.32l-16.6 23.37c-2.52,3.75 -3.44,4.7 -8.36,4.63 -1.43,-1.64 -5.12,-7.55 -6.7,-10.26l-7.07 -10.44c-1.96,5.52 -2.54,4.93 -5.67,9.44 -6.08,8.78 -11.57,19.17 -15.54,29.19 -5.73,14.46 -9.4,30.62 -9.4,50.89 15.5,-0.67 133.85,-1.44 139.16,0.85l1.89 0c5.4,-2.33 59.39,-1.34 69,-0.38l17.99 0 52.17 -0.35c0,-24.87 -6.13,-49.05 -18.16,-69.34 -2.87,-4.85 -4.99,-8.45 -8.24,-12.95 -6.19,-8.57 -24.87,-29.93 -33.65,-32.28l19.53 -31.1c3.41,-5.38 4.02,-5.32 4.02,-13.64 -12.94,-8.66 -13.29,-0.23 -28.03,22.6 -1.86,2.88 -6.54,9.92 -7.29,12.72 -11.7,-0.97 -30.62,-21.91 -89.31,-15.13 -4.4,0.51 -7.1,2.18 -12.39,2.18z"/>
   <path class="fil2" d="M402.53 343.43c-6.71,19 -54.2,14.55 -44.23,-12.12 6.87,-18.39 53.36,-13.71 44.23,12.12zm-89.5 -21.23c5.36,-2.62 21.69,0.52 22.61,0.37 3.94,-0.64 2.59,-1.8 10.08,-1.8 17.78,0 10.4,12.68 1.13,12.34 -9.23,-0.33 -0.71,-1.87 -7.02,-4.61 -5.93,2.59 -4.94,11.2 -4.11,19.04 1.34,0.46 4.48,1.01 4.58,1.06 3.53,1.55 1.94,-0.63 3.39,3.08 -1.48,2.71 1.55,2.42 -5.04,2.42 -6.16,0 -21.35,1.49 -25.97,-1.25 0.39,-9.19 2.86,-0.27 6.14,-6.64 1.01,-1.95 0.4,-9.55 0.4,-12.19 -0.01,-14.68 -5.23,-0.31 -6.19,-11.82zm-52.66 -8.2c1.52,-3.09 0.94,-2.88 11.16,-2.69 10.9,0.21 28.04,-1.34 35.87,4.51 6.4,4.78 5.36,13.62 -0.83,17.94 -5.82,4.05 -13.96,4.64 -22.01,5.02l0.1 9.29c11.31,1.79 7.7,-0.99 9.32,3.61 -1.81,3.55 -1.4,2.47 -7.01,2.55l-23.57 -0.35c-3.25,-1.04 -1.38,0.62 -3.06,-2.2 1.29,-2.94 -0.45,-1.88 7.36,-3.68l0.25 -30.69c-5.81,-1.35 -3.7,0.88 -7.58,-3.31zm24.2 -50.7c-2.74,3.33 -2.5,2.55 -5.77,5.01 -2.28,1.72 -2.89,2.64 -4.79,4.59 -11.58,11.97 -16.65,18.69 -22.42,36.37 -7.97,29.49 -0.15,56.94 19.23,78.45 2.86,3.18 5.09,4.27 7.69,7.52 2.93,3.71 18.67,11.04 24.48,13.29 47.78,18.43 107.68,-19.62 107.51,-74.49 -0.04,-12.88 -0.69,-21.03 -5.2,-32.53 -4.16,-10.62 -9.8,-16.35 -14.84,-24.05 -2.87,-1.46 -7.61,-6.54 -10.8,-9.15 -3.29,-2.69 -7.42,-5.46 -11.95,-8.02 -10.67,-6.02 -17.02,-6.24 -29.42,-9.15l-17.99 0c-7.26,1.78 -12.48,2.1 -19.71,4.89 -5.93,2.29 -11.26,6.15 -16.02,7.27z"/>
   <path class="fil3" d="M172.6 165.48c7.62,0.6 5.21,-6.09 15.34,-8.25 10.45,-2.24 44.4,-6.67 46.35,-18.7 1.32,-8.12 0.94,-2.89 -0.49,-7.24 -10.82,0.92 -22.83,7.34 -34,10.58 -4.74,1.37 -12.7,2.78 -16.84,5.04 -6.6,3.59 -6.06,8.62 -10.36,18.57z"/>
   <path class="fil4" d="M110.25 338.05l32.96 0.08c0.97,1.47 0.56,0.68 1.3,2.89l2.6 9.19c4.84,11.2 16.7,17.57 30.08,17.28 -0.49,11.53 2.6,15.02 7.12,23.04 6.31,10.19 23.54,15.04 38.96,4.71 9.6,18.13 28.71,22.75 44.1,12.31 6.81,-4.62 6.67,-8.84 11.14,-12.31 -2.6,-3.25 -4.83,-4.34 -7.69,-7.52 -19.38,-21.51 -27.2,-48.96 -19.23,-78.45l-141.34 -0.13 0 28.91z"/>
   <path class="fil5" d="M110.25 279.39l0 29.75 141.34 0.13c5.77,-17.68 10.84,-24.4 22.42,-36.37 1.9,-1.95 2.51,-2.87 4.79,-4.59 3.27,-2.46 3.03,-1.68 5.77,-5.01l-33.27 -11.78 -1.89 0c-10.47,2.69 -20.4,7.5 -30.48,10.79 -10.96,3.57 -21.77,6.5 -33.3,9.02 -23.26,5.09 -50.28,8.44 -75.38,8.06z"/>
   <path class="fil4" d="M173.82 113.85c-3.6,7.17 -2.87,7.71 -11.77,8.91 -8.6,1.45 -31.81,4.47 -37.67,7.57 0.1,4.62 0.87,5.8 2.81,8.96 1.67,2.72 2.83,4.74 4.48,7.3 1.89,2.91 7.66,13.09 9.19,14.56l7.07 10.44c1.58,2.71 5.27,8.62 6.7,10.26 4.92,0.07 5.84,-0.88 8.36,-4.63l16.6 -23.37c3.35,-4 2.93,-6.03 8.07,-7.48 3.23,-0.9 9.42,-1.47 13.11,-2.03 8.7,-1.3 18.05,-3.88 26.48,-4.25 2.86,-4.7 0.12,-8.67 -2.82,-13.26 -3.48,-5.43 -4.93,-7.82 -7.49,-12.98 -3.75,-4.18 -5.87,-8.59 -8.74,-13.18 -3.29,-5.27 -5.5,-8.27 -8.47,-13.9 -9.94,0 -9.74,5.94 -19.67,19.18 -1.2,1.6 -1.81,2.47 -3.03,4.04l-3.21 3.86z"/>
   <path class="fil4" d="M110.25 279.39c25.1,0.38 52.12,-2.97 75.38,-8.06 11.53,-2.52 22.34,-5.45 33.3,-9.02 10.08,-3.29 20.01,-8.1 30.48,-10.79 -5.31,-2.29 -123.66,-1.52 -139.16,-0.85l0 28.72z"/>
   <path class="fil5" d="M184.31 390.53c-4.52,-8.02 -7.61,-11.51 -7.12,-23.04 -13.38,0.29 -25.24,-6.08 -30.08,-17.28l-2.6 -9.19c-0.74,-2.21 -0.33,-1.42 -1.3,-2.89l-32.96 -0.08c0,19.59 -3.86,37.41 7.77,47.06 12.02,9.97 44.23,5.42 66.29,5.42z"/>
   <path class="fil4" d="M284.59 316.74l8.13 1.91c1.35,3.91 1.29,8.03 0.37,12.56l-8.54 1.57 0.04 -16.04zm-13.06 -5.43c-10.22,-0.19 -9.64,-0.4 -11.16,2.69 3.88,4.19 1.77,1.96 7.58,3.31l-0.25 30.69c-7.81,1.8 -6.07,0.74 -7.36,3.68 1.68,2.82 -0.19,1.16 3.06,2.2l23.57 0.35c5.61,-0.08 5.2,1 7.01,-2.55 -1.62,-4.6 1.99,-1.82 -9.32,-3.61l-0.1 -9.29c8.05,-0.38 16.19,-0.97 22.01,-5.02 6.19,-4.32 7.23,-13.16 0.83,-17.94 -7.83,-5.85 -24.97,-4.3 -35.87,-4.51z"/>
   <path class="fil4" d="M374.26 343.43c-4.54,-17.01 9.5,-22.1 12.38,-11.46 4.59,16.93 -9.73,21.36 -12.38,11.46zm28.27 0c9.13,-25.83 -37.36,-30.51 -44.23,-12.12 -9.97,26.67 37.52,31.12 44.23,12.12z"/>
   <path class="fil4" d="M291.01 193.91c2.33,22.83 38.97,20.07 36.4,-4.27 -2.49,-23.59 -38.95,-20.67 -36.4,4.27z"/>
   <path class="fil4" d="M173.21 193.91c2.55,22.4 39.21,19.93 36.54,-4.39 -1.02,-9.27 -9.53,-17.4 -20.21,-16.26 -9.62,1.02 -17.57,9.79 -16.33,20.65z"/>
   <path class="fil4" d="M335.64 322.57c-0.92,0.15 -17.25,-2.99 -22.61,-0.37 0.96,11.51 6.18,-2.86 6.19,11.82 0,2.64 0.61,10.24 -0.4,12.19 -3.28,6.37 -5.75,-2.55 -6.14,6.64 4.62,2.74 19.81,1.25 25.97,1.25 6.59,0 3.56,0.29 5.04,-2.42 -1.45,-3.71 0.14,-1.53 -3.39,-3.08 -0.1,-0.05 -3.24,-0.6 -4.58,-1.06 -0.83,-7.84 -1.82,-16.45 4.11,-19.04 6.31,2.74 -2.21,4.28 7.02,4.61 9.27,0.34 16.65,-12.34 -1.13,-12.34 -7.49,0 -6.14,1.16 -10.08,1.8z"/>
   <path class="fil1" d="M162.05 122.76c8.9,-1.2 8.17,-1.74 11.77,-8.91 -1.03,-3.88 -7.8,-13.77 -10.34,-17.91 -5.46,-8.85 -7.68,-10.52 -16.73,-4.46 0,9.16 -0.22,7.19 6.36,17.18 2.97,4.52 5.81,10.74 8.94,14.1z"/>
   <path class="fil4" d="M390.46 277.46l0 -26.67 -52.17 0.35c12.4,2.91 18.75,3.13 29.42,9.15 4.53,2.56 8.66,5.33 11.95,8.02 3.19,2.61 7.93,7.69 10.8,9.15z"/>
   <path class="fil4" d="M284.57 263.3c4.76,-1.12 10.09,-4.98 16.02,-7.27 7.23,-2.79 12.45,-3.11 19.71,-4.89 -9.61,-0.96 -63.6,-1.95 -69,0.38l33.27 11.78z"/>
   <path class="fil2" d="M374.26 343.43c2.65,9.9 16.97,5.47 12.38,-11.46 -2.88,-10.64 -16.92,-5.55 -12.38,11.46z"/>
   <path class="fil2" d="M284.55 332.78l8.54 -1.57c0.92,-4.53 0.98,-8.65 -0.37,-12.56l-8.13 -1.91 -0.04 16.04z"/>
  </g>
 </g>
</svg>
