<?xml version="1.0" encoding="UTF-8"?>
<!DOCTYPE svg PUBLIC "-//W3C//DTD SVG 1.1//EN" "http://www.w3.org/Graphics/SVG/1.1/DTD/svg11.dtd">
<!-- Creator: CorelDRAW 2017 -->
<svg xmlns="http://www.w3.org/2000/svg" xml:space="preserve" width="500px" height="500px" version="1.1" style="shape-rendering:geometricPrecision; text-rendering:geometricPrecision; image-rendering:optimizeQuality; fill-rule:evenodd; clip-rule:evenodd"
viewBox="0 0 500 500"
 xmlns:xlink="http://www.w3.org/1999/xlink">
 <defs>
  <style type="text/css">
   <![CDATA[
    .str0 {stroke:#E94E0D;stroke-width:16;stroke-miterlimit:22.9256}
    .fil1 {fill:#E94E0D}
    .fil2 {fill:#E94E0D}
    .fil0 {fill:white}
   ]]>
  </style>
 </defs>
 <g id="Слой_x0020_1">
  <metadata id="CorelCorpID_0Corel-Layer"/>
  <circle class="fil0 str0" cx="250" cy="250" r="239.39"/>
 </g>
 <g id="Слой_x0020_1_0">
  <metadata id="CorelCorpID_1Corel-Layer"/>
  <g id="_2960963294080">
   <g>
    <path class="fil1" d="M220.56 321.31c0.47,-9.69 -0.19,-79.94 -0.22,-98.49 -0.38,-14.41 1.93,-21.41 7.04,-21.41 5.95,0 8.24,7.13 8.51,21.28 0.23,12.26 0.35,26.56 0.35,31.75 0,8.43 0.04,16.87 -0.01,25.3 -0.06,9.68 -1.55,17.23 10.29,13.65 1.86,-3.07 1.19,-6.08 1.27,-9.1 0.34,-13.46 1.47,-23.21 7.87,-23.3 6.6,-0.1 8.72,7.14 8.9,21.96 0.03,17.22 12.06,14.75 12.55,3.18 1.33,-6.62 -1.49,-18.24 7.04,-18.06 16.12,0.33 1.68,33.07 13,32.82 3.32,-0.07 5.84,-0.1 6.81,-3.83 0.75,-2.88 -0.7,-12.92 4.68,-15.32 9.77,-3.49 11.86,4.31 12.35,14.14 0.4,7.99 -0.08,17.27 0.21,23.37 0,16.65 0.68,30.03 -3.42,45.44 -12.79,48.08 -12.92,40.98 -59.66,40.2 -9.42,-0.15 -12.36,-1.04 -17.39,-6.58 -19.75,-21.68 -44.72,-55.23 -61.45,-79.12 -8.8,-12.57 -10.76,-26.27 3.83,-25.11 4.67,0.37 10.69,5.39 19.15,13.19 8.52,7.87 19.1,14.57 18.3,14.04zm162.74 -45.86c-0.18,6.86 -0.18,16.43 -0.18,29.78 0,7.76 -0.53,9.31 -8.19,9.33l-41.31 0.13 -0.03 -4.47c0.07,-24.99 0.25,-44.88 -30.06,-38.69 -3.83,-15.75 -22.98,-17.02 -30.64,-10.21 -2.12,-9.79 -17.49,-18.17 -25.12,-8.04 -0.54,-11.93 -0.82,-23.79 -0.82,-31.02 0,-26.24 -10.71,-33.12 -20.43,-32.76 -10.01,0.36 -19.05,8.73 -18.73,32.28 0.42,31.02 0.28,63.55 0.41,76.04 -8.85,-4.92 -15.81,-16.29 -30.5,-14.44 -17,5.3 -19.31,15.89 -12.33,31.58l-37.14 0.06c-9.24,0.02 -12.34,-2.67 -12.34,-11.91l0 -153.61c0,-9.24 2.67,-13.62 11.91,-13.62l245.96 0c9.24,0 9.68,3.53 9.78,12.77 0.12,11.57 0.21,19.83 0.45,25.73l15.07 0.09c0.18,-6.03 0.16,-14.58 0.14,-26.68 -0.04,-14.57 -1.62,-25.2 -21.65,-25.23l-250.33 -0.33c-14.58,0 -26.51,11.93 -26.51,26.51l0 156.26c0,14.58 11.93,26.51 26.51,26.51l47.47 0c11.6,17.81 29.9,40.08 50.35,66.66 17.86,23.1 24.57,20.24 67.92,19.03 15.02,-0.42 21.53,-5.58 26.06,-18.1 9.96,-27.53 13.27,-38.68 14.37,-67.59l41.71 -0.1c24.19,-0.06 24.19,-0.22 24.19,-26.41 0,-13.22 0,-22.72 -0.18,-29.55l-15.81 0zm0 0l15.81 0 -15.81 0z"/>
   </g>
   <path class="fil2" d="M383.99 153.29l15.3 0.1 0 31.42c0,3.75 -2.97,6.81 -6.6,6.81l-2.1 0c-3.63,0 -6.6,-3.06 -6.6,-6.81l0 -31.52z"/>
   <path class="fil2" d="M383.12 297.15l16.17 -0.1 0 -31.43c0,-3.74 -3.14,-6.8 -6.97,-6.8l-2.23 0c-3.84,0 -6.97,3.06 -6.97,6.8l0 31.53z"/>
  </g>
 </g>
</svg>
