<?xml version="1.0" encoding="UTF-8"?>
<!DOCTYPE svg PUBLIC "-//W3C//DTD SVG 1.1//EN" "http://www.w3.org/Graphics/SVG/1.1/DTD/svg11.dtd">
<!-- Creator: CorelDRAW 2017 -->
<svg xmlns="http://www.w3.org/2000/svg" xml:space="preserve" width="500px" height="500px" version="1.1" style="shape-rendering:geometricPrecision; text-rendering:geometricPrecision; image-rendering:optimizeQuality; fill-rule:evenodd; clip-rule:evenodd"
viewBox="0 0 500 500"
 xmlns:xlink="http://www.w3.org/1999/xlink">
 <defs>
  <style type="text/css">
   <![CDATA[
    .str0 {stroke:#0CA3D0;stroke-width:20;stroke-miterlimit:22.9256}
    .fil1 {fill:#0CA3D0}
    .fil2 {fill:#E6E6E6}
    .fil0 {fill:#EDEDED}
   ]]>
  </style>
 </defs>
 <g id="Слой_x0020_1">
  <metadata id="CorelCorpID_0Corel-Layer"/>
  <circle class="fil0 str0" cx="250" cy="250" r="231.1"/>
 </g>
 <g id="Слой_x0020_1_0">
  <metadata id="CorelCorpID_1Corel-Layer"/>
  <path class="fil1" d="M239.31 151.69c23.48,-2.64 41.35,2.75 58.26,16.91 7.75,6.48 31.16,35.49 13.9,49.86 -9.45,7.87 -20.81,1.97 -25.82,-5.42 -6.73,-9.93 -5.52,-12.31 -15.81,-22.56 -14.29,-14.24 -45.54,-9.05 -50.17,9.66 -5.66,22.84 22.6,31.5 39.01,35.96 27.46,7.46 58.31,22.26 59.55,54.85 1.24,32.68 -22.54,53.56 -57.17,57.39 -23.52,2.6 -41.69,-2.85 -58.61,-16.96 -8.55,-7.13 -30.65,-34.98 -13.86,-49.8 3.42,-3.02 9.82,-4.69 15.27,-2.99 9.65,3 13.07,13.48 17.74,20.61 3.29,5.02 4.83,6.59 8.59,10.29 14.48,14.28 45.5,9.09 50.15,-9.64 5.83,-23.47 -23.96,-31.64 -39,-35.99 -14.19,-4.11 -28.14,-9.11 -39.4,-17.83 -11.58,-8.95 -19.55,-20.44 -20.18,-36.98 -1.25,-33.01 22.51,-53.42 57.55,-57.36zm-72.79 -68.18l9.83 0c13.9,0.76 27.65,4.71 39.81,11.73 0.82,0.48 1.49,1.28 1.97,1.28 4.08,0 7.9,-0.99 12.07,-1.59 23.08,-3.36 52.79,0.17 74.16,8.37 11.56,4.43 20.86,9.05 31.1,15.71 2.19,1.42 3.24,2.35 5.33,3.78 11.21,7.74 20.18,16.95 29.04,26.89 5.46,6.13 11.27,15.02 15.57,22.15 2.06,3.4 4.59,8.23 6.19,12.02 1.14,2.68 1.98,3.74 3.03,6.72 3.26,9.25 4.03,9.5 6.91,21.06 4.24,17.02 6.2,39.79 3.54,58.17 -2.1,14.52 -3.26,8.18 3.19,20.95 5.04,10 7.67,20.77 8.23,31.68l0 9.01c-0.6,11.99 -3.58,23.93 -8.47,34.96 -1.92,4.35 -5.15,9.27 -7.79,13.02 -15.87,22.47 -40.98,35.74 -67.58,37.07l-8.89 0c-7.93,-0.4 -15.92,-1.86 -23.77,-4.47 -24.08,-7.99 -8,-9.99 -30.75,-6.86 -18.61,2.57 -40.85,0.54 -58.13,-3.76 -4.68,-1.16 -10.1,-2.68 -14.44,-4.42 -2.22,-0.88 -4.36,-1.72 -6.58,-2.52 -20.43,-7.35 -44.89,-26.3 -59.3,-43.46 -6.41,-7.63 -10.48,-13.4 -15.69,-22.02 -2.29,-3.79 -4.65,-7.68 -6.41,-11.81 -4,-9.36 -7.29,-17.34 -10.09,-27.63 -4.44,-16.32 -6.26,-41.6 -3.67,-59.34 2.14,-14.7 2.8,-9.29 -1.01,-16.62 -8.75,-16.82 -10.41,-26.78 -10.41,-46.17 0,-22.74 14.3,-50.03 31.49,-63.46 6.17,-4.83 11.7,-8.69 19.01,-12.21 10.21,-4.9 21.3,-7.61 32.51,-8.23z"/>
  <path class="fil2" d="M239.31 151.69c-35.04,3.94 -58.8,24.35 -57.55,57.36 0.63,16.54 8.6,28.03 20.18,36.98 11.26,8.72 25.21,13.72 39.4,17.83 15.04,4.35 44.83,12.52 39,35.99 -4.65,18.73 -35.67,23.92 -50.15,9.64 -3.76,-3.7 -5.3,-5.27 -8.59,-10.29 -4.67,-7.13 -8.09,-17.61 -17.74,-20.61 -5.45,-1.7 -11.85,-0.03 -15.27,2.99 -16.79,14.82 5.31,42.67 13.86,49.8 16.92,14.11 35.09,19.56 58.61,16.96 34.63,-3.83 58.41,-24.71 57.17,-57.39 -1.24,-32.59 -32.09,-47.39 -59.55,-54.85 -16.41,-4.46 -44.67,-13.12 -39.01,-35.96 4.63,-18.71 35.88,-23.9 50.17,-9.66 10.29,10.25 9.08,12.63 15.81,22.56 5.01,7.39 16.37,13.29 25.82,5.42 17.26,-14.37 -6.15,-43.38 -13.9,-49.86 -16.91,-14.16 -34.78,-19.55 -58.26,-16.91z"/>
 </g>
</svg>
