<?xml version="1.0" encoding="UTF-8"?>
<!DOCTYPE svg PUBLIC "-//W3C//DTD SVG 1.1//EN" "http://www.w3.org/Graphics/SVG/1.1/DTD/svg11.dtd">
<!-- Creator: CorelDRAW 2017 -->
<svg xmlns="http://www.w3.org/2000/svg" xml:space="preserve" width="500px" height="500px" version="1.1" style="shape-rendering:geometricPrecision; text-rendering:geometricPrecision; image-rendering:optimizeQuality; fill-rule:evenodd; clip-rule:evenodd"
viewBox="0 0 500 500"
 xmlns:xlink="http://www.w3.org/1999/xlink">
 <defs>
  <style type="text/css">
   <![CDATA[
    .str0 {stroke:black;stroke-width:2;stroke-miterlimit:22.9256}
    .fil4 {fill:#E31E24}
    .fil1 {fill:#299C14}
    .fil0 {fill:#7AB9D9}
    .fil2 {fill:#FF7300}
    .fil3 {fill:#FFED00}
    .fil5 {fill:black;fill-rule:nonzero}
   ]]>
  </style>
 </defs>
 <g id="Слой_x0020_1">
  <metadata id="CorelCorpID_0Corel-Layer"/>
  <circle class="fil0" cx="250" cy="250" r="238.63"/>
  <path class="fil1" d="M309.3 159.91c-48.52,-24.82 -92.12,-22.74 -130.01,10.59 -53.8,3.03 -103.69,17.16 -147.8,47.7 25.28,-118.21 99.09,-181.62 223.07,-187.32 40.64,38.1 51.99,82.62 54.74,129.03z"/>
  <path class="fil2" d="M187.66 340.09c48.52,24.83 92.12,22.74 130.01,-10.58 53.8,-3.04 103.69,-17.17 147.8,-47.71 -25.28,118.21 -99.09,181.62 -223.07,187.32 -40.64,-38.1 -51.99,-82.62 -54.74,-129.03z"/>
  <path class="fil3" d="M340.44 309.44c24.83,-48.52 22.75,-92.11 -10.58,-130 -3.03,-53.8 -17.16,-103.69 -47.7,-147.8 118.2,25.27 181.61,99.08 187.32,223.06 -38.1,40.65 -82.62,52 -129.04,54.74z"/>
  <path class="fil4" d="M159.56 187.71c-24.83,48.51 -22.75,92.11 10.58,130 3.03,53.8 17.17,103.69 47.7,147.8 -118.2,-25.27 -181.61,-99.08 -187.31,-223.06 38.09,-40.65 82.62,-52 129.03,-54.74z"/>
  <path class="fil5 str0" d="M66.7 182.11l7.27 -0.65c0.33,2.94 1.14,5.35 2.41,7.24 1.26,1.88 3.22,3.4 5.88,4.57 2.65,1.16 5.64,1.74 8.96,1.74 2.96,0 5.56,-0.43 7.82,-1.31 2.26,-0.89 3.93,-2.1 5.04,-3.64 1.1,-1.54 1.65,-3.21 1.65,-5.01 0,-1.82 -0.53,-3.42 -1.59,-4.79 -1.06,-1.36 -2.81,-2.5 -5.26,-3.44 -1.57,-0.6 -5.04,-1.56 -10.42,-2.85 -5.38,-1.29 -9.13,-2.5 -11.28,-3.65 -2.79,-1.47 -4.86,-3.29 -6.22,-5.46 -1.38,-2.16 -2.06,-4.6 -2.06,-7.28 0,-2.97 0.85,-5.73 2.52,-8.29 1.67,-2.57 4.11,-4.52 7.34,-5.85 3.21,-1.34 6.79,-2 10.72,-2 4.33,0 8.15,0.69 11.46,2.1 3.31,1.38 5.86,3.44 7.64,6.16 1.78,2.71 2.74,5.79 2.87,9.22l-7.43 0.57c-0.39,-3.69 -1.74,-6.48 -4.04,-8.36 -2.3,-1.89 -5.71,-2.83 -10.2,-2.83 -4.68,0 -8.1,0.86 -10.23,2.57 -2.14,1.72 -3.22,3.79 -3.22,6.21 0,2.1 0.77,3.82 2.28,5.18 1.49,1.35 5.37,2.75 11.66,4.17 6.29,1.43 10.61,2.67 12.95,3.73 3.39,1.56 5.9,3.54 7.52,5.95 1.62,2.39 2.43,5.16 2.43,8.29 0,3.11 -0.89,6.03 -2.67,8.78 -1.78,2.75 -4.33,4.88 -7.66,6.41 -3.34,1.52 -7.08,2.28 -11.26,2.28 -5.28,0 -9.71,-0.77 -13.27,-2.31 -3.58,-1.54 -6.37,-3.85 -8.4,-6.95 -2.04,-3.09 -3.1,-6.59 -3.21,-10.5zm53.41 -2.41c0,-7.82 2.18,-13.62 6.55,-17.39 3.63,-3.13 8.08,-4.7 13.32,-4.7 5.81,0 10.58,1.9 14.28,5.72 3.69,3.79 5.54,9.06 5.54,15.77 0,5.45 -0.82,9.72 -2.45,12.84 -1.63,3.11 -4.02,5.54 -7.15,7.27 -3.11,1.73 -6.53,2.58 -10.22,2.58 -5.93,0 -10.72,-1.89 -14.39,-5.69 -3.66,-3.79 -5.48,-9.27 -5.48,-16.4zm7.35 0.02c0,5.41 1.18,9.47 3.55,12.15 2.38,2.69 5.36,4.04 8.97,4.04 3.57,0 6.54,-1.35 8.92,-4.05 2.37,-2.71 3.55,-6.84 3.55,-12.38 0,-5.22 -1.2,-9.18 -3.58,-11.87 -2.38,-2.69 -5.35,-4.04 -8.89,-4.04 -3.61,0 -6.59,1.33 -8.97,4.02 -2.37,2.68 -3.55,6.72 -3.55,12.13zm42.48 21.18l0 -36.84 -6.37 0 0 -5.55 6.37 0 0 -4.49c0,-2.85 0.25,-4.96 0.75,-6.33 0.69,-1.85 1.89,-3.37 3.63,-4.52 1.73,-1.16 4.17,-1.73 7.3,-1.73 2.03,0 4.26,0.24 6.71,0.72l-1.07 6.29c-1.5,-0.26 -2.9,-0.39 -4.24,-0.39 -2.18,0 -3.71,0.46 -4.63,1.38 -0.89,0.93 -1.34,2.66 -1.34,5.19l0 3.88 8.25 0 0 5.55 -8.17 0 0 36.84 -7.19 0zm36.58 -6.42l0.98 6.35c-2.02,0.42 -3.83,0.64 -5.41,0.64 -2.6,0 -4.61,-0.41 -6.05,-1.24 -1.43,-0.83 -2.44,-1.91 -3.02,-3.26 -0.59,-1.34 -0.88,-4.17 -0.88,-8.49l0 -24.42 -5.31 0 0 -5.55 5.31 0 0 -10.48 7.19 -4.32 0 14.8 7.19 0 0 5.55 -7.19 0 0 24.83c0,2.05 0.12,3.38 0.38,3.96 0.25,0.59 0.65,1.05 1.23,1.4 0.57,0.34 1.38,0.52 2.45,0.52 0.79,0 1.83,-0.1 3.13,-0.29zm7.82 6.42l0 -58.48 11.6 0 13.83 41.39c1.28,3.85 2.21,6.74 2.79,8.66 0.67,-2.12 1.72,-5.26 3.13,-9.38l14.08 -40.67 10.35 0 0 58.48 -7.43 0 0 -48.92 -17.06 48.92 -6.97 0 -16.88 -49.82 0 49.82 -7.44 0zm94.99 -5.31c-2.67,2.27 -5.24,3.86 -7.71,4.8 -2.46,0.94 -5.1,1.4 -7.93,1.4 -4.66,0 -8.24,-1.13 -10.74,-3.4 -2.51,-2.26 -3.76,-5.16 -3.76,-8.68 0,-2.07 0.48,-3.97 1.42,-5.68 0.95,-1.72 2.19,-3.08 3.71,-4.11 1.54,-1.04 3.25,-1.82 5.18,-2.35 1.41,-0.37 3.55,-0.73 6.39,-1.08 5.8,-0.68 10.09,-1.51 12.82,-2.47 0.03,-0.98 0.05,-1.6 0.05,-1.86 0,-2.91 -0.69,-4.97 -2.05,-6.16 -1.83,-1.63 -4.57,-2.43 -8.19,-2.43 -3.39,0 -5.89,0.6 -7.5,1.78 -1.62,1.19 -2.8,3.28 -3.58,6.31l-7.02 -0.98c0.64,-3.01 1.68,-5.45 3.15,-7.3 1.47,-1.85 3.6,-3.27 6.37,-4.27 2.77,-1 5.99,-1.5 9.64,-1.5 3.62,0 6.58,0.42 8.85,1.28 2.26,0.86 3.93,1.92 5,3.21 1.06,1.29 1.8,2.93 2.24,4.9 0.23,1.23 0.35,3.43 0.35,6.6l0 9.53c0,6.66 0.15,10.86 0.45,12.65 0.29,1.78 0.89,3.48 1.76,5.12l-7.51 0c-0.73,-1.52 -1.19,-3.28 -1.39,-5.31zm-0.57 -15.93c-2.62,1.06 -6.54,1.96 -11.76,2.69 -2.97,0.43 -5.07,0.9 -6.29,1.43 -1.23,0.54 -2.17,1.31 -2.84,2.32 -0.66,1.02 -1,2.15 -1,3.4 0,1.89 0.72,3.49 2.18,4.75 1.45,1.27 3.58,1.91 6.37,1.91 2.76,0 5.22,-0.6 7.39,-1.81 2.15,-1.2 3.74,-2.85 4.75,-4.93 0.77,-1.62 1.15,-4 1.15,-7.15l0.05 -2.61zm18.33 21.24l0 -58.48 7.19 0 0 33.31 16.99 -17.22 9.28 0 -16.17 15.75 17.8 26.64 -8.85 0 -14.07 -21.66 -4.98 4.84 0 16.82 -7.19 0zm69.72 -13.73l7.43 0.98c-1.16,4.32 -3.32,7.68 -6.48,10.06 -3.15,2.39 -7.18,3.58 -12.1,3.58 -6.18,0 -11.08,-1.9 -14.7,-5.71 -3.62,-3.8 -5.43,-9.15 -5.43,-16.03 0,-7.1 1.82,-12.63 5.49,-16.55 3.66,-3.93 8.41,-5.89 14.25,-5.89 5.65,0 10.26,1.92 13.84,5.77 3.58,3.85 5.38,9.27 5.38,16.25 0,0.42 -0.02,1.07 -0.04,1.91l-31.57 0c0.27,4.64 1.58,8.21 3.95,10.67 2.35,2.46 5.31,3.7 8.83,3.7 2.63,0 4.88,-0.69 6.73,-2.08 1.86,-1.39 3.33,-3.61 4.42,-6.66zm-23.52 -11.51l23.6 0c-0.31,-3.57 -1.22,-6.24 -2.71,-8.02 -2.27,-2.76 -5.24,-4.15 -8.87,-4.15 -3.29,0 -6.06,1.1 -8.3,3.31 -2.24,2.2 -3.48,5.16 -3.72,8.86zm39.95 25.24l0 -42.39 6.45 0 0 6.49c1.65,-3.01 3.17,-5 4.58,-5.95 1.4,-0.96 2.94,-1.44 4.61,-1.44 2.42,0 4.89,0.76 7.39,2.27l-2.56 6.63c-1.74,-0.98 -3.48,-1.47 -5.22,-1.47 -1.57,0 -2.97,0.48 -4.21,1.42 -1.24,0.94 -2.12,2.24 -2.66,3.92 -0.8,2.54 -1.19,5.33 -1.19,8.37l0 22.15 -7.19 0zm-354.34 100.87c0,-17.86 5.09,-31.9 15.3,-42.11 8.93,-8.93 19.79,-13.4 32.54,-13.4 12.76,0 23.62,4.47 32.55,13.4 10.21,10.21 15.3,24.25 15.3,42.11 0,17.86 -5.09,31.91 -15.3,42.12 -8.93,8.93 -19.79,13.39 -32.55,13.39 -12.75,0 -23.61,-4.46 -32.54,-13.39 -10.21,-10.21 -15.3,-24.26 -15.3,-42.12zm47.84 -43.39c-8.06,0 -15.3,3.18 -21.67,9.58 -7.25,7.22 -10.87,18.51 -10.87,33.81 0,15.33 3.62,26.6 10.87,33.81 6.37,6.4 13.61,9.59 21.67,9.59 8.08,0 15.32,-3.19 21.69,-9.59 7.24,-7.21 10.86,-18.48 10.86,-33.81 0,-15.3 -3.62,-26.59 -10.86,-33.81 -6.37,-6.4 -13.61,-9.58 -21.69,-9.58zm86.13 26.81l21.7 0 0 10.21 -21.7 0 0 61.25 -12.74 0 0 -61.25 -15.33 0 0 -10.21 15.33 0 0 -17.88c0,-5.94 1.91,-10.84 5.72,-14.68 4.27,-4.24 10.02,-6.37 17.23,-6.37 5.53,0 11.27,1.06 17.23,3.19l0 12.77c-5.96,-2.97 -10.83,-4.47 -14.67,-4.47 -4.68,0 -8.09,1.06 -10.21,3.19 -1.69,1.71 -2.56,3.84 -2.56,6.37l0 17.88zm49.77 0l32.56 0 0 71.46 -12.77 0 0 -61.25 -19.79 0 0 61.25 -12.75 0 0 -61.25 -15.32 0 0 -10.21 15.32 0 0 -17.88c0,-5.94 1.91,-10.84 5.72,-14.68 4.28,-4.24 10.02,-6.37 17.24,-6.37 5.52,0 11.27,1.06 17.23,3.19l0 12.77c-5.96,-2.97 -10.84,-4.47 -14.68,-4.47 -4.68,0 -8.08,1.06 -10.2,3.19 -1.69,1.71 -2.56,3.84 -2.56,6.37l0 17.88zm50.41 36.37c0,-11.49 3.41,-20.63 10.21,-27.44 6.4,-6.4 14.27,-9.58 23.61,-9.58 10.21,0 17.88,2.56 22.97,7.65 4.69,4.68 7.46,10.43 8.31,17.23l-14.05 0c-0.41,-3.4 -2.12,-6.59 -5.09,-9.55 -2.56,-2.56 -6.4,-3.84 -11.49,-3.84 -5.12,0 -9.36,1.71 -12.77,5.12 -5.09,5.09 -7.65,12.11 -7.65,21.04 0,8.52 2.34,15.11 7.03,19.79 3.4,3.4 7.64,5.09 12.74,5.09 5.96,0 10.64,-1.69 14.04,-5.09 3.41,-3.4 5.12,-7.87 5.12,-13.42l14.02 0c-0.41,8.96 -3.4,16.17 -8.93,21.7 -5.52,5.52 -13.61,8.3 -24.25,8.3 -8.93,0 -16.37,-2.97 -22.33,-8.93 -7.65,-7.65 -11.49,-17.01 -11.49,-28.07zm81.67 -0.65c0,-11.49 3.63,-20.83 10.87,-28.07 5.93,-5.96 13.61,-8.93 22.95,-8.93 8.95,0 16.6,3.19 22.97,9.56 5.97,5.96 8.93,15.11 8.93,27.44l-51.67 0c0,8.93 2.13,15.52 6.37,19.79 3.84,3.81 8.74,5.75 14.68,5.75 5.96,0 10.2,-1.28 12.76,-3.84 2.97,-2.97 4.47,-6.37 4.47,-10.21l14.05 0c-1.72,7.65 -4.47,13.39 -8.31,17.23 -5.52,5.53 -13.17,8.3 -22.97,8.3 -10.21,0 -18.49,-3.21 -24.89,-9.58 -6.8,-6.8 -10.21,-15.95 -10.21,-27.44zm33.19 -26.16c-5.09,0 -9.36,1.71 -12.77,5.12 -2.97,2.96 -4.87,6.59 -5.74,10.83l36.37 0c0,-4.24 -1.69,-8.08 -5.09,-11.49 -3,-2.96 -7.24,-4.46 -12.77,-4.46z"/>
 </g>
</svg>
