<?xml version="1.0" encoding="UTF-8"?>
<!DOCTYPE svg PUBLIC "-//W3C//DTD SVG 1.1//EN" "http://www.w3.org/Graphics/SVG/1.1/DTD/svg11.dtd">
<!-- Creator: CorelDRAW 2017 -->
<svg xmlns="http://www.w3.org/2000/svg" xml:space="preserve" width="500px" height="500px" version="1.1" style="shape-rendering:geometricPrecision; text-rendering:geometricPrecision; image-rendering:optimizeQuality; fill-rule:evenodd; clip-rule:evenodd"
viewBox="0 0 500 500"
 xmlns:xlink="http://www.w3.org/1999/xlink">
 <defs>
  <style type="text/css">
   <![CDATA[
    .fil0 {fill:#E9E9E9}
    .fil2 {fill:black}
    .fil1 {fill:#4F4F4F}
   ]]>
  </style>
 </defs>
 <g id="Слой_x0020_1">
  <metadata id="CorelCorpID_0Corel-Layer"/>
  <circle class="fil0" cx="250" cy="250" r="238.63"/>
  <path class="fil1" d="M309.3 159.91c-48.52,-24.82 -92.12,-22.74 -130.01,10.59 -53.8,3.03 -103.69,17.16 -147.8,47.7 25.28,-118.21 99.09,-181.62 223.07,-187.32 40.64,38.1 51.99,82.62 54.74,129.03z"/>
  <path class="fil1" d="M187.66 340.09c48.52,24.83 92.12,22.74 130.01,-10.58 53.8,-3.04 103.69,-17.17 147.8,-47.71 -25.28,118.21 -99.09,181.62 -223.07,187.32 -40.64,-38.1 -51.99,-82.62 -54.74,-129.03z"/>
  <path class="fil1" d="M340.44 309.44c24.83,-48.52 22.75,-92.11 -10.58,-130 -3.03,-53.8 -17.16,-103.69 -47.7,-147.8 118.2,25.27 181.61,99.08 187.32,223.06 -38.1,40.65 -82.62,52 -129.04,54.74z"/>
  <path class="fil1" d="M159.56 187.71c-24.83,48.51 -22.75,92.11 10.58,130 3.03,53.8 17.17,103.69 47.7,147.8 -118.2,-25.27 -181.61,-99.08 -187.31,-223.06 38.09,-40.65 82.62,-52 129.03,-54.74z"/>
  <g id="_2297917946512">
   <path class="fil2" d="M233.99 284.76l-0.55 0 0 10.4 -30.64 0 0 -10.4 0.55 0 0 -1.09 0.55 0 0 -1.1 0.55 0 0 -1.09 0.54 0 0 -0.55 0.55 0 0 -0.54 0.55 0 0 -0.55 1.09 0 0 -0.55 1.1 0 0 -0.55 0.54 0 0 -0.54 1.64 0 0 -0.55 2.19 0 0 -0.55 4.38 0 0 -0.54 4.92 0 0 0.54 7.12 0 0 0.55 5.47 0 0 1.64 -0.55 0 0 5.47zm22.98 -23.52l-3.83 0 0 0.54 -2.19 0 0 0.55 -1.09 0 0 0.55 -1.64 0 0 0.54 -1.1 0 0 0.55 -1.64 0 0 0.55 -0.55 0 0 0.55 -1.09 0 0 0.54 -1.09 0 0 0.55 -1.1 0 0 -0.55 -3.28 0 0 -0.54 -3.29 0 0 -0.55 -3.28 0 0 -0.55 -3.83 0 0 -0.55 -2.73 0 0 -0.54 -12.59 0 0 0.54 -4.37 0 0 0.55 -2.74 0 0 0.55 -1.09 0 0 0.55 -1.65 0 0 0.54 -2.18 0 0 0.55 -1.1 0 0 0.55 -1.09 0 0 0.54 -1.1 0 0 0.55 -0.54 0 0 0.55 -0.55 0 0 0.55 -1.1 0 0 0.54 -0.54 0 0 0.55 -0.55 0 0 0.55 -0.55 0 0 0.55 -0.54 0 0 0.54 -0.55 0 0 0.55 -0.55 0 0 0.55 -0.55 0 0 1.09 -0.54 0 0 0.55 -0.55 0 0 1.09 -0.55 0 0 0.55 -0.54 0 0 1.64 -0.55 0 0 1.09 -0.55 0 0 1.65 -0.54 0 0 3.28 -0.55 0 0 11.49 -1.64 0 0 0.55 -3.29 0 0 0.54 -1.64 0 0 0.55 -2.73 0 0 0.55 -2.74 0 0 0.54 -1.64 0 0 1.1 -0.55 0 0 8.21 1.1 0 0 0.54 12.58 0 0 70.58 0.55 0 0 0.55 0.55 0 0 0.55 14.22 0 0 -0.55 0.55 0 0 -71.13 31.18 0 0 70.58 0.55 0 0 0.55 0.55 0 0 0.55 14.22 0 0 -0.55 0.55 0 0 -71.13 33.92 0 0 71.13 0.55 0 0 0.55 14.23 0 0 -0.55 1.09 0 0 -83.16 -0.55 0 0 -0.55 -49.24 0 0 -10.94 0.55 0 0 -2.19 0.55 0 0 -1.1 0.54 0 0 -1.09 0.55 0 0 -0.55 0.55 0 0 -1.09 0.54 0 0 -0.55 1.1 0 0 -0.55 0.55 0 0 -0.54 1.09 0 0 -0.55 1.09 0 0 -0.55 1.64 0 0 -0.55 2.19 0 0 -0.54 13.68 0 0 0.54 6.57 0 0 0.55 3.83 0 0 0.55 2.19 0 0 0.55 2.73 0 0 -0.55 0.55 0 0 -1.64 0.55 0 0 -2.19 0.54 0 0 -3.28 0.55 0 0 -2.19 0.55 0 0 -2.19 -0.55 0 0 -0.55 -1.09 0 0 -0.55 -2.74 0 0 -0.54 -2.74 0 0 -0.55 -2.18 0 0 -0.55 -4.93 0 0 -0.54 -4.92 0 0 -0.55 -15.87 0 0 0.55z"/>
   <path class="fil2" d="M88.45 318.69l0.55 0 0 -6.57 0.55 0 0 -2.74 0.54 0 0 -2.18 0.55 0 0 -2.74 0.55 0 0 -1.64 0.55 0 0 -1.1 0.54 0 0 -1.64 0.55 0 0 -1.09 0.55 0 0 -1.64 0.55 0 0 -1.1 0.54 0 0 -0.54 0.55 0 0 -1.1 0.55 0 0 -1.09 0.54 0 0 -0.55 0.55 0 0 -1.09 0.55 0 0 -0.55 0.54 0 0 -1.1 0.55 0 0 -0.54 0.55 0 0 -0.55 0.55 0 0 -0.55 0.54 0 0 -0.54 0.55 0 0 -0.55 0.55 0 0 -0.55 0.54 0 0 -0.55 0.55 0 0 -0.54 1.1 0 0 -0.55 0.54 0 0 -0.55 1.1 0 0 -0.54 0.54 0 0 -0.55 1.1 0 0 -0.55 1.09 0 0 -0.55 1.1 0 0 -0.54 1.09 0 0 -0.55 1.64 0 0 -0.55 2.74 0 0 -0.54 2.73 0 0 -0.55 9.31 0 0 0.55 2.73 0 0 0.54 1.1 0 0 0.55 2.73 0 0 0.55 1.1 0 0 0.54 1.09 0 0 0.55 1.09 0 0 0.55 0.55 0 0 0.55 1.1 0 0 0.54 0.54 0 0 0.55 1.1 0 0 0.55 0.54 0 0 0.54 0.55 0 0 0.55 0.55 0 0 0.55 0.55 0 0 0.55 0.54 0 0 0.54 0.55 0 0 0.55 0.55 0 0 0.55 0.54 0 0 1.09 0.55 0 0 0.55 0.55 0 0 1.09 0.55 0 0 0.55 0.54 0 0 1.09 0.55 0 0 1.1 0.55 0 0 1.09 0.54 0 0 1.64 0.55 0 0 1.1 0.55 0 0 1.64 0.55 0 0 1.64 0.54 0 0 3.28 0.55 0 0 3.29 0.55 0 0 4.92 0.54 0 0 18.06 -0.54 0 0 4.37 -0.55 0 0 3.29 -0.55 0 0 2.73 -0.54 0 0 2.19 -0.55 0 0 1.64 -0.55 0 0 1.1 -0.55 0 0 1.09 -0.54 0 0 1.64 -0.55 0 0 0.55 -0.55 0 0 1.09 -0.54 0 0 1.1 -0.55 0 0 1.09 -0.55 0 0 0.55 -0.55 0 0 0.55 -0.54 0 0 1.09 -0.55 0 0 0.55 -0.55 0 0 0.54 -0.54 0 0 0.55 -0.55 0 0 0.55 -0.55 0 0 0.55 -0.55 0 0 0.54 -0.54 0 0 0.55 -0.55 0 0 0.55 -0.55 0 0 0.54 -1.09 0 0 0.55 -0.55 0 0 0.55 -1.09 0 0 0.55 -0.55 0 0 0.54 -1.09 0 0 0.55 -1.1 0 0 0.55 -2.19 0 0 0.54 -1.64 0 0 0.55 -2.19 0 0 0.55 -2.73 0 0 0.55 -9.85 0 0 -0.55 -2.19 0 0 -0.55 -2.74 0 0 -0.55 -1.64 0 0 -0.54 -1.09 0 0 -0.55 -1.1 0 0 -0.55 -1.09 0 0 -0.54 -1.09 0 0 -0.55 -0.55 0 0 -0.55 -1.1 0 0 -0.55 -0.54 0 0 -0.54 -0.55 0 0 -0.55 -0.55 0 0 -0.55 -1.09 0 0 -0.54 -0.55 0 0 -0.55 -0.55 0 0 -1.1 -0.54 0 0 -0.54 -0.55 0 0 -0.55 -0.55 0 0 -0.55 -0.54 0 0 -1.09 -0.55 0 0 -1.1 -0.55 0 0 -0.54 -0.54 0 0 -1.1 -0.55 0 0 -1.09 -0.55 0 0 -1.64 -0.55 0 0 -1.1 -0.54 0 0 -2.19 -0.55 0 0 -1.64 -0.55 0 0 -1.09 -0.55 0 0 -3.28 -0.54 0 0 -3.83 -0.55 0 0 -8.21 -0.55 0 0 -8.75zm24.62 -53.08l-2.73 0 0 0.55 -2.74 0 0 0.55 -2.19 0 0 0.54 -1.09 0 0 0.55 -1.64 0 0 0.55 -1.64 0 0 0.55 -1.1 0 0 0.54 -1.09 0 0 0.55 -1.1 0 0 0.55 -1.09 0 0 0.55 -0.55 0 0 0.54 -1.09 0 0 0.55 -0.55 0 0 0.55 -1.09 0 0 0.54 -0.55 0 0 0.55 -1.09 0 0 0.55 -0.55 0 0 0.54 -0.55 0 0 0.55 -0.55 0 0 0.55 -0.54 0 0 0.55 -0.55 0 0 0.54 -1.09 0 0 0.55 -0.55 0 0 0.55 -0.55 0 0 1.09 -0.55 0 0 0.55 -0.54 0 0 0.55 -0.55 0 0 0.54 -0.55 0 0 0.55 -0.54 0 0 0.55 -0.55 0 0 1.09 -0.55 0 0 0.55 -0.55 0 0 1.09 -0.54 0 0 0.55 -0.55 0 0 1.09 -0.55 0 0 0.55 -0.54 0 0 1.1 -0.55 0 0 1.09 -0.55 0 0 1.09 -0.55 0 0 1.1 -0.54 0 0 1.09 -0.55 0 0 1.1 -0.55 0 0 1.09 -0.54 0 0 2.19 -0.55 0 0 0.55 -0.55 0 0 1.64 -0.55 0 0 2.19 -0.54 0 0 1.64 -0.55 0 0 3.28 -0.55 0 0 2.19 -0.54 0 0 4.92 -0.55 0 0 5.48 -0.55 0 0 9.84 0.55 0 0 6.02 0.55 0 0 5.47 0.54 0 0 2.74 0.55 0 0 2.73 0.55 0 0 1.65 0.54 0 0 2.19 0.55 0 0 2.18 0.55 0 0 1.1 0.55 0 0 1.64 0.54 0 0 1.64 0.55 0 0 1.09 0.55 0 0 1.1 0.54 0 0 1.09 0.55 0 0 1.1 0.55 0 0 1.09 0.55 0 0 0.55 0.54 0 0 1.09 0.55 0 0 0.55 0.55 0 0 1.09 0.54 0 0 0.55 0.55 0 0 0.55 0.55 0 0 1.09 0.55 0 0 0.55 0.54 0 0 0.55 0.55 0 0 0.54 0.55 0 0 0.55 0.54 0 0 0.55 0.55 0 0 0.55 0.55 0 0 0.54 0.55 0 0 0.55 0.54 0 0 0.55 1.1 0 0 0.54 0.54 0 0 0.55 0.55 0 0 0.55 1.1 0 0 0.55 0.54 0 0 0.54 1.1 0 0 0.55 1.09 0 0 0.55 0.55 0 0 0.55 1.09 0 0 0.54 1.64 0 0 0.55 1.1 0 0 0.55 1.09 0 0 0.54 1.64 0 0 0.55 1.65 0 0 0.55 2.73 0 0 0.54 2.74 0 0 0.55 2.73 0 0 0.55 15.32 0 0 -0.55 4.93 0 0 -0.55 1.64 0 0 -0.54 2.19 0 0 -0.55 1.64 0 0 -0.55 1.64 0 0 -0.54 1.64 0 0 -0.55 1.64 0 0 -0.55 1.1 0 0 -0.54 1.09 0 0 -0.55 1.1 0 0 -0.55 1.09 0 0 -0.55 0.55 0 0 -0.54 1.09 0 0 -0.55 0.55 0 0 -0.55 0.55 0 0 -0.55 1.09 0 0 -0.54 0.55 0 0 -0.55 0.54 0 0 -0.55 0.55 0 0 -0.54 0.55 0 0 -0.55 0.55 0 0 -0.55 0.54 0 0 -0.55 0.55 0 0 -0.54 0.55 0 0 -0.55 0.54 0 0 -0.55 0.55 0 0 -0.54 0.55 0 0 -0.55 0.54 0 0 -0.55 0.55 0 0 -1.09 0.55 0 0 -0.55 0.55 0 0 -1.09 0.54 0 0 -0.55 0.55 0 0 -1.1 0.55 0 0 -0.54 0.55 0 0 -1.1 0.54 0 0 -1.09 0.55 0 0 -1.1 0.55 0 0 -1.09 0.54 0 0 -1.64 0.55 0 0 -1.1 0.55 0 0 -1.09 0.55 0 0 -1.64 0.54 0 0 -2.19 0.55 0 0 -2.19 0.55 0 0 -1.64 0.54 0 0 -2.74 0.55 0 0 -3.28 0.55 0 0 -5.47 0.54 0 0 -20.24 -0.54 0 0 -4.38 -0.55 0 0 -3.28 -0.55 0 0 -3.29 -0.54 0 0 -2.18 -0.55 0 0 -1.65 -0.55 0 0 -1.09 -0.54 0 0 -2.19 -0.55 0 0 -1.64 -0.55 0 0 -1.09 -0.55 0 0 -1.1 -0.54 0 0 -1.09 -0.55 0 0 -1.1 -0.55 0 0 -1.09 -0.54 0 0 -1.1 -0.55 0 0 -1.09 -0.55 0 0 -0.55 -0.55 0 0 -1.09 -0.54 0 0 -0.55 -0.55 0 0 -1.09 -0.55 0 0 -0.55 -0.55 0 0 -0.55 -0.54 0 0 -1.09 -0.55 0 0 -0.55 -0.55 0 0 -0.55 -0.54 0 0 -0.54 -0.55 0 0 -0.55 -0.55 0 0 -0.55 -0.54 0 0 -0.54 -0.55 0 0 -0.55 -0.55 0 0 -0.55 -0.55 0 0 -0.55 -0.54 0 0 -0.54 -1.1 0 0 -0.55 -0.54 0 0 -0.55 -0.55 0 0 -0.54 -1.1 0 0 -0.55 -0.54 0 0 -0.55 -1.1 0 0 -0.54 -1.09 0 0 -0.55 -1.1 0 0 -0.55 -0.54 0 0 -0.55 -1.64 0 0 -0.54 -1.1 0 0 -0.55 -1.09 0 0 -0.55 -2.19 0 0 -0.55 -1.1 0 0 -0.54 -2.73 0 0 -0.55 -2.19 0 0 -0.55 -3.83 0 0 -0.54 -14.23 0 0 0.54z"/>
   <path class="fil2" d="M391.02 324.16l0.55 0 0 -1.64 0.54 0 0 -1.65 0.55 0 0 -1.09 0.55 0 0 -1.09 0.54 0 0 -1.1 0.55 0 0 -1.09 0.55 0 0 -1.1 0.55 0 0 -0.54 0.54 0 0 -0.55 0.55 0 0 -1.1 0.55 0 0 -0.54 0.55 0 0 -0.55 0.54 0 0 -0.55 0.55 0 0 -0.54 0.55 0 0 -0.55 1.09 0 0 -0.55 0.55 0 0 -0.55 1.09 0 0 -0.54 0.55 0 0 -0.55 1.09 0 0 -0.55 1.1 0 0 -0.54 2.19 0 0 -0.55 11.49 0 0 0.55 1.64 0 0 0.54 1.09 0 0 0.55 1.1 0 0 0.55 1.09 0 0 0.54 1.1 0 0 0.55 0.54 0 0 0.55 0.55 0 0 0.55 1.09 0 0 1.09 0.55 0 0 0.55 0.55 0 0 0.54 0.54 0 0 0.55 0.55 0 0 1.1 0.55 0 0 1.09 0.55 0 0 1.09 0.54 0 0 1.65 0.55 0 0 2.73 0.55 0 0 2.74 0.54 0 0 5.47 -41.03 0 0 -5.47zm16.41 -30.64l-3.83 0 0 0.54 -1.64 0 0 0.55 -2.19 0 0 0.55 -1.64 0 0 0.55 -1.09 0 0 0.54 -1.64 0 0 0.55 -0.55 0 0 0.55 -1.1 0 0 0.54 -1.09 0 0 0.55 -0.55 0 0 0.55 -1.09 0 0 0.55 -0.55 0 0 0.54 -1.09 0 0 0.55 -0.55 0 0 0.55 -0.55 0 0 0.54 -0.54 0 0 0.55 -0.55 0 0 0.55 -0.55 0 0 0.55 -0.54 0 0 0.54 -0.55 0 0 0.55 -0.55 0 0 0.55 -0.55 0 0 0.54 -0.54 0 0 0.55 -0.55 0 0 0.55 -0.55 0 0 1.09 -0.55 0 0 0.55 -0.54 0 0 1.09 -0.55 0 0 0.55 -0.55 0 0 1.1 -0.54 0 0 1.09 -0.55 0 0 1.09 -0.55 0 0 1.1 -0.54 0 0 1.09 -0.55 0 0 1.1 -0.55 0 0 1.64 -0.55 0 0 1.64 -0.54 0 0 2.19 -0.55 0 0 2.19 -0.55 0 0 2.73 -0.54 0 0 2.74 -0.55 0 0 15.32 0.55 0 0 5.47 0.54 0 0 2.19 0.55 0 0 2.19 0.55 0 0 2.18 0.54 0 0 1.65 0.55 0 0 2.18 0.55 0 0 1.1 0.55 0 0 1.09 0.54 0 0 1.1 0.55 0 0 0.54 0.55 0 0 1.1 0.54 0 0 1.09 0.55 0 0 0.55 0.55 0 0 0.55 0.54 0 0 1.09 0.55 0 0 0.55 0.55 0 0 0.55 0.55 0 0 0.54 0.54 0 0 0.55 0.55 0 0 0.55 0.55 0 0 0.54 0.55 0 0 0.55 0.54 0 0 0.55 1.1 0 0 0.55 0.54 0 0 0.54 1.1 0 0 0.55 0.55 0 0 0.55 1.09 0 0 0.55 0.55 0 0 0.54 1.09 0 0 0.55 1.09 0 0 0.55 1.65 0 0 0.54 1.09 0 0 0.55 1.64 0 0 0.55 1.64 0 0 0.54 3.29 0 0 0.55 2.73 0 0 0.55 15.87 0 0 -0.55 3.83 0 0 -0.55 2.19 0 0 -0.54 2.19 0 0 -0.55 2.73 0 0 -0.55 1.1 0 0 -0.54 1.09 0 0 -0.55 1.09 0 0 -0.55 1.65 0 0 -0.54 1.09 0 0 -0.55 0.55 0 0 -0.55 1.09 0 0 -0.55 0.55 0 0 -3.28 -0.55 0 0 -1.09 -0.55 0 0 -1.1 -0.54 0 0 -1.09 -0.55 0 0 -1.1 -0.55 0 0 -1.09 -0.54 0 0 -1.1 -0.55 0 0 -1.09 -0.55 0 0 -0.55 -0.55 0 0 -0.54 -2.73 0 0 0.54 -1.1 0 0 0.55 -1.09 0 0 0.55 -1.64 0 0 0.54 -1.1 0 0 0.55 -1.64 0 0 0.55 -1.64 0 0 0.55 -2.73 0 0 0.54 -2.74 0 0 0.55 -9.85 0 0 -0.55 -2.19 0 0 -0.54 -2.73 0 0 -0.55 -1.64 0 0 -0.55 -0.55 0 0 -0.55 -1.09 0 0 -0.54 -1.1 0 0 -0.55 -1.09 0 0 -0.55 -0.55 0 0 -0.54 -0.55 0 0 -0.55 -0.54 0 0 -0.55 -1.1 0 0 -1.09 -0.55 0 0 -0.55 -0.54 0 0 -0.55 -0.55 0 0 -0.54 -0.55 0 0 -1.1 -0.55 0 0 -0.55 -0.54 0 0 -1.09 -0.55 0 0 -1.09 -0.55 0 0 -1.1 -0.54 0 0 -2.19 -0.55 0 0 -1.64 -0.55 0 0 -4.92 -0.54 0 0 -2.74 45.41 0 0 -0.55 3.83 0 0 -0.54 1.09 0 0 -0.55 1.1 0 0 -0.55 1.09 0 0 -0.54 0.55 0 0 -0.55 0.54 0 0 -0.55 0.55 0 0 -0.54 0.55 0 0 -0.55 0.55 0 0 -1.1 0.54 0 0 -1.09 0.55 0 0 -2.19 0.55 0 0 -11.49 -0.55 0 0 -3.28 -0.55 0 0 -2.19 -0.54 0 0 -2.74 -0.55 0 0 -1.09 -0.55 0 0 -1.64 -0.55 0 0 -1.1 -0.54 0 0 -1.09 -0.55 0 0 -0.55 -0.55 0 0 -1.09 -0.54 0 0 -1.1 -0.55 0 0 -0.54 -0.55 0 0 -0.55 -0.55 0 0 -0.55 -0.54 0 0 -1.09 -0.55 0 0 -0.55 -0.55 0 0 -0.55 -0.54 0 0 -0.54 -1.1 0 0 -0.55 -0.55 0 0 -0.55 -0.54 0 0 -0.54 -0.55 0 0 -0.55 -1.09 0 0 -0.55 -1.1 0 0 -0.55 -0.55 0 0 -0.54 -1.09 0 0 -0.55 -1.09 0 0 -0.55 -1.1 0 0 -0.54 -2.19 0 0 -0.55 -1.64 0 0 -0.55 -2.19 0 0 -0.55 -2.73 0 0 -0.54 -3.29 0 0 -0.55 -9.3 0 0 0.55z"/>
   <polygon class="fil2" points="341.78,293.52 339.59,293.52 339.59,294.06 337.4,294.06 337.4,294.61 335.76,294.61 335.76,295.16 333.57,295.16 333.57,295.71 332.48,295.71 332.48,296.25 330.83,296.25 330.83,296.8 330.29,296.8 330.29,297.35 329.19,297.35 329.19,297.89 328.1,297.89 328.1,298.44 327,298.44 327,298.99 326.46,298.99 326.46,299.54 325.36,299.54 325.36,300.08 324.82,300.08 324.82,300.63 324.27,300.63 324.27,301.18 323.72,301.18 323.72,301.72 322.63,301.72 322.63,302.27 322.08,302.27 322.08,302.82 321.53,302.82 321.53,303.37 320.99,303.37 320.99,303.91 320.44,303.91 320.44,304.46 319.89,304.46 319.89,305.55 319.35,305.55 319.35,306.1 318.8,306.1 318.8,306.65 318.25,306.65 318.25,307.2 317.7,307.2 317.7,308.29 317.16,308.29 317.16,308.84 316.61,308.84 316.61,309.93 316.06,309.93 316.06,311.03 315.51,311.03 315.51,312.12 314.97,312.12 314.97,312.67 314.42,312.67 314.42,314.31 313.87,314.31 313.87,315.4 313.33,315.4 313.33,316.5 312.78,316.5 312.78,318.69 312.23,318.69 312.23,319.78 311.68,319.78 311.68,321.97 311.14,321.97 311.14,323.61 310.59,323.61 310.59,326.35 310.04,326.35 310.04,330.18 309.5,330.18 309.5,346.59 310.04,346.59 310.04,349.87 310.59,349.87 310.59,353.15 311.14,353.15 311.14,355.89 311.68,355.89 311.68,358.08 312.23,358.08 312.23,359.72 312.78,359.72 312.78,360.81 313.33,360.81 313.33,361.91 313.87,361.91 313.87,363 314.42,363 314.42,364.1 314.97,364.1 314.97,365.19 315.51,365.19 315.51,366.29 316.06,366.29 316.06,366.83 316.61,366.83 316.61,367.93 317.16,367.93 317.16,368.47 317.7,368.47 317.7,369.57 318.25,369.57 318.25,370.12 318.8,370.12 318.8,370.66 319.35,370.66 319.35,371.21 319.89,371.21 319.89,371.76 320.44,371.76 320.44,372.3 320.99,372.3 320.99,372.85 321.53,372.85 321.53,373.4 322.08,373.4 322.08,373.95 322.63,373.95 322.63,374.49 323.72,374.49 323.72,375.04 324.27,375.04 324.27,375.59 325.36,375.59 325.36,376.14 325.91,376.14 325.91,376.68 327,376.68 327,377.23 328.1,377.23 328.1,377.78 329.19,377.78 329.19,378.32 330.29,378.32 330.29,378.87 332.48,378.87 332.48,379.42 333.57,379.42 333.57,379.96 336.31,379.96 336.31,380.51 339.59,380.51 339.59,381.06 353.27,381.06 353.27,380.51 358.19,380.51 358.19,379.96 361.47,379.96 361.47,379.42 363.66,379.42 363.66,378.87 365.85,378.87 365.85,378.32 367.49,378.32 367.49,377.78 369.13,377.78 369.13,377.23 370.23,377.23 370.23,376.68 371.32,376.68 371.32,376.14 372.42,376.14 372.42,375.59 373.51,375.59 373.51,375.04 374.06,375.04 374.06,374.49 374.61,374.49 374.61,371.76 374.06,371.76 374.06,370.66 373.51,370.66 373.51,369.57 372.96,369.57 372.96,367.93 372.42,367.93 372.42,366.83 371.87,366.83 371.87,365.74 371.32,365.74 371.32,364.64 370.78,364.64 370.78,363.55 370.23,363.55 370.23,363 369.68,363 369.68,362.46 367.49,362.46 367.49,363 366.4,363 366.4,363.55 364.76,363.55 364.76,364.1 364.21,364.1 364.21,364.64 362.02,364.64 362.02,365.19 360.93,365.19 360.93,365.74 358.19,365.74 358.19,366.29 356,366.29 356,366.83 353.27,366.83 353.27,367.38 343.42,367.38 343.42,366.83 340.68,366.83 340.68,366.29 339.04,366.29 339.04,365.74 337.95,365.74 337.95,365.19 336.85,365.19 336.85,364.64 335.76,364.64 335.76,364.1 334.66,364.1 334.66,363.55 334.12,363.55 334.12,363 333.57,363 333.57,362.46 333.02,362.46 333.02,361.91 332.48,361.91 332.48,361.36 331.93,361.36 331.93,360.81 331.38,360.81 331.38,360.27 330.83,360.27 330.83,359.72 330.29,359.72 330.29,358.63 329.74,358.63 329.74,357.53 329.19,357.53 329.19,356.98 328.65,356.98 328.65,355.89 328.1,355.89 328.1,354.25 327.55,354.25 327.55,353.15 327,353.15 327,350.97 326.46,350.97 326.46,348.23 325.91,348.23 325.91,342.21 325.36,342.21 325.36,334 325.91,334 325.91,328.53 326.46,328.53 326.46,326.35 327,326.35 327,324.7 327.55,324.7 327.55,322.52 328.1,322.52 328.1,321.42 328.65,321.42 328.65,319.78 329.19,319.78 329.19,318.69 329.74,318.69 329.74,318.14 330.29,318.14 330.29,317.04 330.83,317.04 330.83,315.95 331.38,315.95 331.38,315.4 331.93,315.4 331.93,314.86 332.48,314.86 332.48,313.76 333.02,313.76 333.02,313.21 333.57,313.21 333.57,312.67 334.12,312.67 334.12,312.12 335.21,312.12 335.21,311.57 335.76,311.57 335.76,311.03 336.31,311.03 336.31,310.48 337.4,310.48 337.4,309.93 337.95,309.93 337.95,309.38 339.59,309.38 339.59,308.84 340.68,308.84 340.68,308.29 342.32,308.29 342.32,307.74 354.91,307.74 354.91,308.29 356.55,308.29 356.55,308.84 358.74,308.84 358.74,309.38 360.38,309.38 360.38,309.93 362.57,309.93 362.57,310.48 364.21,310.48 364.21,311.03 365.3,311.03 365.3,311.57 368.04,311.57 368.04,311.03 368.59,311.03 368.59,309.93 369.13,309.93 369.13,308.84 369.68,308.84 369.68,308.29 370.23,308.29 370.23,306.65 370.78,306.65 370.78,305.55 371.32,305.55 371.32,304.46 371.87,304.46 371.87,303.37 372.42,303.37 372.42,302.27 372.96,302.27 372.96,299.54 372.42,299.54 372.42,298.99 371.32,298.99 371.32,298.44 370.78,298.44 370.78,297.89 369.68,297.89 369.68,297.35 368.04,297.35 368.04,296.8 366.95,296.8 366.95,296.25 365.3,296.25 365.3,295.71 364.21,295.71 364.21,295.16 362.57,295.16 362.57,294.61 359.83,294.61 359.83,294.06 357.1,294.06 357.1,293.52 352.72,293.52 352.72,292.97 341.78,292.97 "/>
  </g>
  <g id="_2297917944848">
   <polygon class="fil2" points="214.24,156.31 213.21,156.31 213.21,157.35 212.17,157.35 212.17,218.5 219.43,218.5 219.43,171.86 220.46,171.86 220.46,172.9 221.5,172.9 221.5,176.01 222.53,176.01 222.53,178.08 223.57,178.08 223.57,181.19 224.61,181.19 224.61,183.26 225.64,183.26 225.64,186.37 226.68,186.37 226.68,188.44 227.72,188.44 227.72,190.52 228.75,190.52 228.75,193.63 229.79,193.63 229.79,195.7 230.83,195.7 230.83,197.77 231.86,197.77 231.86,200.88 232.9,200.88 232.9,202.95 233.94,202.95 233.94,206.06 234.97,206.06 234.97,208.14 236.01,208.14 236.01,210.21 237.05,210.21 237.05,211.25 246.37,211.25 246.37,210.21 247.41,210.21 247.41,208.14 248.45,208.14 248.45,205.03 249.48,205.03 249.48,202.95 250.52,202.95 250.52,200.88 251.56,200.88 251.56,197.77 252.59,197.77 252.59,195.7 253.63,195.7 253.63,192.59 254.67,192.59 254.67,190.52 255.7,190.52 255.7,187.41 256.74,187.41 256.74,185.33 257.77,185.33 257.77,183.26 258.81,183.26 258.81,180.15 259.85,180.15 259.85,177.04 260.88,177.04 260.88,174.97 261.92,174.97 261.92,171.86 262.96,171.86 262.96,170.82 263.99,170.82 263.99,218.5 271.25,218.5 271.25,157.35 270.21,157.35 270.21,156.31 269.18,156.31 269.18,155.28 261.92,155.28 261.92,156.31 260.88,156.31 260.88,157.35 259.85,157.35 259.85,159.42 258.81,159.42 258.81,162.53 257.77,162.53 257.77,165.64 256.74,165.64 256.74,167.71 255.7,167.71 255.7,170.82 254.67,170.82 254.67,172.9 253.63,172.9 253.63,174.97 252.59,174.97 252.59,178.08 251.56,178.08 251.56,180.15 250.52,180.15 250.52,183.26 249.48,183.26 249.48,185.33 248.45,185.33 248.45,188.44 247.41,188.44 247.41,190.52 246.37,190.52 246.37,193.63 245.34,193.63 245.34,196.74 244.3,196.74 244.3,198.81 243.26,198.81 243.26,201.92 242.23,201.92 242.23,202.95 241.19,202.95 241.19,201.92 240.15,201.92 240.15,199.84 239.12,199.84 239.12,196.74 238.08,196.74 238.08,192.59 237.05,192.59 237.05,190.52 236.01,190.52 236.01,188.44 234.97,188.44 234.97,185.33 233.94,185.33 233.94,183.26 232.9,183.26 232.9,180.15 231.86,180.15 231.86,178.08 230.83,178.08 230.83,176.01 229.79,176.01 229.79,172.9 228.75,172.9 228.75,169.79 227.72,169.79 227.72,167.71 226.68,167.71 226.68,164.61 225.64,164.61 225.64,162.53 224.61,162.53 224.61,160.46 223.57,160.46 223.57,157.35 222.53,157.35 222.53,156.31 221.5,156.31 221.5,155.28 214.24,155.28 "/>
   <polygon class="fil2" points="163.46,153.2 159.31,153.2 159.31,154.24 157.24,154.24 157.24,155.28 156.2,155.28 156.2,156.31 155.16,156.31 155.16,158.39 154.13,158.39 154.13,160.46 153.09,160.46 153.09,171.86 147.91,171.86 147.91,172.9 144.8,172.9 144.8,178.08 153.09,178.08 153.09,218.5 161.38,218.5 161.38,178.08 180.04,178.08 180.04,210.21 181.08,210.21 181.08,215.39 182.11,215.39 182.11,216.43 183.15,216.43 183.15,217.47 184.19,217.47 184.19,218.5 185.22,218.5 185.22,219.54 200.77,219.54 200.77,218.5 202.84,218.5 202.84,212.28 196.62,212.28 196.62,213.32 191.44,213.32 191.44,212.28 189.37,212.28 189.37,211.25 188.33,211.25 188.33,178.08 198.7,178.08 198.7,177.04 199.73,177.04 199.73,171.86 188.33,171.86 188.33,159.42 185.22,159.42 185.22,160.46 183.15,160.46 183.15,161.5 182.11,161.5 182.11,165.64 181.08,165.64 181.08,170.82 180.04,170.82 180.04,171.86 161.38,171.86 161.38,161.5 162.42,161.5 162.42,160.46 163.46,160.46 163.46,159.42 172.78,159.42 172.78,160.46 174.86,160.46 174.86,158.39 175.89,158.39 175.89,153.2 169.68,153.2 169.68,152.17 163.46,152.17 "/>
   <polygon class="fil2" points="59.81,156.31 56.7,156.31 56.7,157.35 54.63,157.35 54.63,158.39 53.59,158.39 53.59,159.42 51.52,159.42 51.52,160.46 50.48,160.46 50.48,162.53 49.44,162.53 49.44,163.57 48.41,163.57 48.41,166.68 47.37,166.68 47.37,174.97 48.41,174.97 48.41,178.08 49.44,178.08 49.44,180.15 50.48,180.15 50.48,181.19 51.52,181.19 51.52,182.22 52.55,182.22 52.55,183.26 54.63,183.26 54.63,184.3 55.66,184.3 55.66,185.33 57.74,185.33 57.74,186.37 59.81,186.37 59.81,187.41 62.92,187.41 62.92,188.44 64.99,188.44 64.99,189.48 67.06,189.48 67.06,190.52 70.17,190.52 70.17,191.55 73.28,191.55 73.28,192.59 75.36,192.59 75.36,193.63 76.39,193.63 76.39,194.66 78.46,194.66 78.46,195.7 79.5,195.7 79.5,196.74 80.54,196.74 80.54,197.77 81.57,197.77 81.57,207.1 80.54,207.1 80.54,208.14 79.5,208.14 79.5,209.17 78.46,209.17 78.46,210.21 77.43,210.21 77.43,211.25 74.32,211.25 74.32,212.28 60.85,212.28 60.85,211.25 55.66,211.25 55.66,210.21 52.55,210.21 52.55,209.17 49.44,209.17 49.44,208.14 47.37,208.14 47.37,210.21 46.33,210.21 46.33,212.28 45.3,212.28 45.3,215.39 46.33,215.39 46.33,216.43 49.44,216.43 49.44,217.47 52.55,217.47 52.55,218.5 57.74,218.5 57.74,219.54 77.43,219.54 77.43,218.5 80.54,218.5 80.54,217.47 82.61,217.47 82.61,216.43 83.65,216.43 83.65,215.39 84.68,215.39 84.68,214.36 86.76,214.36 86.76,212.28 87.79,212.28 87.79,211.25 88.83,211.25 88.83,209.17 89.87,209.17 89.87,205.03 90.9,205.03 90.9,199.84 89.87,199.84 89.87,195.7 88.83,195.7 88.83,193.63 87.79,193.63 87.79,192.59 86.76,192.59 86.76,191.55 85.72,191.55 85.72,190.52 84.68,190.52 84.68,189.48 83.65,189.48 83.65,188.44 81.57,188.44 81.57,187.41 80.54,187.41 80.54,186.37 78.46,186.37 78.46,185.33 75.36,185.33 75.36,184.3 73.28,184.3 73.28,183.26 70.17,183.26 70.17,182.22 68.1,182.22 68.1,181.19 66.03,181.19 66.03,180.15 63.95,180.15 63.95,179.12 61.88,179.12 61.88,178.08 59.81,178.08 59.81,177.04 58.77,177.04 58.77,176.01 57.74,176.01 57.74,174.97 56.7,174.97 56.7,173.93 55.66,173.93 55.66,168.75 56.7,168.75 56.7,166.68 57.74,166.68 57.74,165.64 58.77,165.64 58.77,164.61 59.81,164.61 59.81,163.57 62.92,163.57 62.92,162.53 75.36,162.53 75.36,163.57 78.46,163.57 78.46,164.61 83.65,164.61 83.65,165.64 84.68,165.64 84.68,164.61 85.72,164.61 85.72,162.53 86.76,162.53 86.76,158.39 84.68,158.39 84.68,157.35 82.61,157.35 82.61,156.31 77.43,156.31 77.43,155.28 59.81,155.28 "/>
   <path class="fil2" d="M289.9 200.88l1.04 0 0 -2.07 1.04 0 0 -1.04 2.07 0 0 -1.03 2.07 0 0 -1.04 16.59 0 0 16.58 -4.15 0 0 1.04 -13.47 0 0 -1.04 -2.08 0 0 -1.03 -1.03 0 0 -1.04 -1.04 0 0 -1.04 -1.04 0 0 -8.29zm3.11 -29.02l-3.11 0 0 1.04 -3.1 0 0 6.22 6.21 0 0 -1.04 15.55 0 0 1.04 1.04 0 0 1.03 1.03 0 0 1.04 1.04 0 0 3.11 1.04 0 0 4.14 -16.59 0 0 1.04 -3.11 0 0 1.04 -3.11 0 0 1.03 -2.07 0 0 1.04 -1.03 0 0 1.04 -1.04 0 0 1.03 -1.04 0 0 1.04 -1.03 0 0 2.07 -1.04 0 0 3.11 -1.04 0 0 8.29 1.04 0 0 2.08 1.04 0 0 2.07 1.03 0 0 2.07 1.04 0 0 1.04 2.07 0 0 1.04 1.04 0 0 1.03 4.14 0 0 1.04 18.66 0 0 -1.04 4.15 0 0 -1.03 3.11 0 0 -1.04 1.03 0 0 -36.28 -1.03 0 0 -2.07 -1.04 0 0 -2.07 -1.04 0 0 -1.04 -1.03 0 0 -1.04 -1.04 0 0 -1.03 -2.07 0 0 -1.04 -2.08 0 0 -1.04 -17.62 0 0 1.04z"/>
   <polygon class="fil2" points="332.4,218.5 339.66,218.5 339.66,205.03 340.69,205.03 340.69,203.99 341.73,203.99 341.73,202.95 342.77,202.95 342.77,200.88 343.8,200.88 343.8,199.84 344.84,199.84 344.84,198.81 345.88,198.81 345.88,197.77 346.91,197.77 346.91,196.74 347.95,196.74 347.95,195.7 348.98,195.7 348.98,193.63 350.02,193.63 350.02,194.66 351.06,194.66 351.06,196.74 352.09,196.74 352.09,199.84 353.13,199.84 353.13,201.92 354.17,201.92 354.17,203.99 355.2,203.99 355.2,206.06 356.24,206.06 356.24,208.14 357.28,208.14 357.28,211.25 358.31,211.25 358.31,213.32 359.35,213.32 359.35,215.39 360.38,215.39 360.38,217.47 361.42,217.47 361.42,218.5 369.71,218.5 369.71,217.47 368.68,217.47 368.68,215.39 367.64,215.39 367.64,213.32 366.6,213.32 366.6,210.21 365.57,210.21 365.57,208.14 364.53,208.14 364.53,206.06 363.49,206.06 363.49,203.99 362.46,203.99 362.46,200.88 361.42,200.88 361.42,198.81 360.38,198.81 360.38,196.74 359.35,196.74 359.35,194.66 358.31,194.66 358.31,192.59 357.28,192.59 357.28,190.52 356.24,190.52 356.24,185.33 357.28,185.33 357.28,184.3 358.31,184.3 358.31,183.26 359.35,183.26 359.35,182.22 360.38,182.22 360.38,180.15 361.42,180.15 361.42,179.12 362.46,179.12 362.46,178.08 363.49,178.08 363.49,177.04 364.53,177.04 364.53,176.01 365.57,176.01 365.57,173.93 366.6,173.93 366.6,172.9 367.64,172.9 367.64,171.86 358.31,171.86 358.31,172.9 357.28,172.9 357.28,173.93 356.24,173.93 356.24,176.01 355.2,176.01 355.2,177.04 354.17,177.04 354.17,178.08 353.13,178.08 353.13,179.12 352.09,179.12 352.09,180.15 351.06,180.15 351.06,182.22 350.02,182.22 350.02,183.26 348.98,183.26 348.98,184.3 347.95,184.3 347.95,185.33 346.91,185.33 346.91,186.37 345.88,186.37 345.88,188.44 344.84,188.44 344.84,189.48 343.8,189.48 343.8,190.52 342.77,190.52 342.77,191.55 341.73,191.55 341.73,192.59 340.69,192.59 340.69,193.63 339.66,193.63 339.66,153.2 332.4,153.2 "/>
   <path class="fil2" d="M382.15 186.37l1.04 0 0 -3.11 1.03 0 0 -1.04 1.04 0 0 -1.03 1.04 0 0 -1.04 1.03 0 0 -1.03 1.04 0 0 -1.04 2.07 0 0 -1.04 9.33 0 0 1.04 2.07 0 0 1.04 1.04 0 0 1.03 1.04 0 0 1.04 1.03 0 0 2.07 1.04 0 0 5.18 1.04 0 0 3.11 -24.88 0 0 -5.18zm7.26 -14.51l-3.11 0 0 1.04 -2.08 0 0 1.03 -2.07 0 0 1.04 -1.04 0 0 1.04 -1.03 0 0 1.03 -1.04 0 0 1.04 -1.04 0 0 2.07 -1.03 0 0 1.04 -1.04 0 0 3.11 -1.04 0 0 4.14 -1.03 0 0 16.59 1.03 0 0 2.07 1.04 0 0 3.11 1.04 0 0 2.07 1.03 0 0 1.04 1.04 0 0 1.04 1.04 0 0 1.03 1.03 0 0 1.04 2.08 0 0 1.04 2.07 0 0 1.03 2.07 0 0 1.04 17.62 0 0 -1.04 2.08 0 0 -1.03 2.07 0 0 -1.04 1.04 0 0 -2.07 -1.04 0 0 -3.11 -1.04 0 0 -1.04 -2.07 0 0 1.04 -2.07 0 0 1.03 -4.15 0 0 1.04 -8.29 0 0 -1.04 -2.07 0 0 -1.03 -2.08 0 0 -1.04 -1.03 0 0 -1.04 -1.04 0 0 -1.03 -1.04 0 0 -1.04 -1.03 0 0 -2.07 -1.04 0 0 -3.11 -1.04 0 0 -4.15 29.03 0 0 -1.03 2.07 0 0 -1.04 1.04 0 0 -2.07 1.03 0 0 -9.33 -1.03 0 0 -3.11 -1.04 0 0 -2.07 -1.04 0 0 -2.08 -1.03 0 0 -1.03 -1.04 0 0 -1.04 -1.04 0 0 -1.04 -2.07 0 0 -1.03 -2.07 0 0 -1.04 -3.11 0 0 -1.04 -11.4 0 0 1.04z"/>
   <path class="fil2" d="M131.32 205.03l-1.03 0 0 2.07 -1.04 0 0 2.07 -1.03 0 0 1.04 -1.04 0 0 1.04 -1.04 0 0 1.03 -2.07 0 0 1.04 -10.36 0 0 -1.04 -2.08 0 0 -1.03 -1.03 0 0 -1.04 -1.04 0 0 -1.04 -1.04 0 0 -2.07 -1.03 0 0 -3.11 -1.04 0 0 -15.55 1.04 0 0 -4.14 1.03 0 0 -2.08 1.04 0 0 -1.03 1.04 0 0 -1.04 1.03 0 0 -1.03 2.08 0 0 -1.04 2.07 0 0 -1.04 7.25 0 0 1.04 3.11 0 0 1.04 1.04 0 0 1.03 1.04 0 0 1.04 1.03 0 0 1.03 1.04 0 0 2.08 1.03 0 0 5.18 1.04 0 0 12.44 -1.04 0 0 3.11zm-17.61 -33.17l-3.11 0 0 1.04 -2.08 0 0 1.03 -2.07 0 0 1.04 -1.04 0 0 1.04 -1.03 0 0 1.03 -1.04 0 0 2.08 -1.04 0 0 1.03 -1.03 0 0 2.07 -1.04 0 0 3.11 -1.04 0 0 3.11 -1.03 0 0 12.44 1.03 0 0 6.22 1.04 0 0 2.07 1.04 0 0 2.08 1.03 0 0 2.07 1.04 0 0 1.04 1.04 0 0 1.03 1.03 0 0 1.04 1.04 0 0 1.04 2.07 0 0 1.03 3.11 0 0 1.04 15.55 0 0 -1.04 2.07 0 0 -1.03 2.07 0 0 -1.04 1.04 0 0 -1.04 1.04 0 0 -1.03 1.03 0 0 -1.04 1.04 0 0 -1.04 1.04 0 0 -2.07 1.03 0 0 -2.07 1.04 0 0 -3.11 1.04 0 0 -18.66 -1.04 0 0 -4.15 -1.04 0 0 -2.07 -1.03 0 0 -1.03 -1.04 0 0 -2.08 -1.04 0 0 -1.03 -1.03 0 0 -1.04 -1.04 0 0 -1.04 -2.07 0 0 -1.03 -2.07 0 0 -1.04 -2.08 0 0 -1.04 -12.43 0 0 1.04z"/>
   <polygon class="fil2" points="428.79,171.86 425.68,171.86 425.68,172.9 424.65,172.9 424.65,173.93 423.61,173.93 423.61,218.5 431.9,218.5 431.9,178.08 443.3,178.08 443.3,179.12 445.38,179.12 445.38,180.15 447.45,180.15 447.45,181.19 448.49,181.19 448.49,182.22 451.59,182.22 451.59,181.19 452.63,181.19 452.63,180.15 453.67,180.15 453.67,178.08 454.7,178.08 454.7,177.04 453.67,177.04 453.67,176.01 452.63,176.01 452.63,174.97 451.59,174.97 451.59,173.93 449.52,173.93 449.52,172.9 447.45,172.9 447.45,171.86 443.3,171.86 443.3,170.82 428.79,170.82 "/>
  </g>
 </g>
</svg>
