<?xml version="1.0" encoding="UTF-8"?>
<!DOCTYPE svg PUBLIC "-//W3C//DTD SVG 1.1//EN" "http://www.w3.org/Graphics/SVG/1.1/DTD/svg11.dtd">
<!-- Creator: CorelDRAW 2017 -->
<svg xmlns="http://www.w3.org/2000/svg" xml:space="preserve" width="500px" height="500px" version="1.1" style="shape-rendering:geometricPrecision; text-rendering:geometricPrecision; image-rendering:optimizeQuality; fill-rule:evenodd; clip-rule:evenodd"
viewBox="0 0 500 500"
 xmlns:xlink="http://www.w3.org/1999/xlink">
 <defs>
  <style type="text/css">
   <![CDATA[
    .str3 {stroke:#1745D1;stroke-width:10;stroke-miterlimit:22.9256}
    .str1 {stroke:#0F7699;stroke-width:4;stroke-miterlimit:22.9256}
    .str0 {stroke:#0F7699;stroke-width:25;stroke-miterlimit:22.9256}
    .str2 {stroke:black;stroke-width:2.36;stroke-miterlimit:22.9256}
    .fil3 {fill:#1745D1}
    .fil2 {fill:#E6E6E6}
    .fil4 {fill:#EB3232}
    .fil1 {fill:#E6E6E6;fill-rule:nonzero}
    .fil0 {fill:url(#id0)}
   ]]>
  </style>
  <linearGradient id="id0" gradientUnits="userSpaceOnUse" x1="430.42" y1="382.17" x2="56.83" y2="119.83">
   <stop offset="0" style="stop-opacity:1; stop-color:#F77474"/>
   <stop offset="0.129412" style="stop-opacity:1; stop-color:#F5AC82"/>
   <stop offset="0.25098" style="stop-opacity:1; stop-color:yellow"/>
   <stop offset="0.368627" style="stop-opacity:1; stop-color:#5EF25E"/>
   <stop offset="0.490196" style="stop-opacity:1; stop-color:#7474F2"/>
   <stop offset="0.619608" style="stop-opacity:1; stop-color:#C77BF2"/>
   <stop offset="0.74902" style="stop-opacity:1; stop-color:#F77474"/>
   <stop offset="0.870588" style="stop-opacity:1; stop-color:#F5AC82"/>
   <stop offset="1" style="stop-opacity:1; stop-color:yellow"/>
  </linearGradient>
 </defs>
 <g id="Слой_x0020_1">
  <metadata id="CorelCorpID_0Corel-Layer"/>
  <path class="fil0 str0" d="M384.55 65.62c101.83,74.31 124.14,217.1 49.83,318.93 -74.31,101.83 -217.1,124.14 -318.93,49.83 -101.83,-74.31 -124.14,-217.1 -49.83,-318.92 74.31,-101.83 217.1,-124.15 318.93,-49.84z"/>
  <path class="fil1 str1" d="M97.52 288.65c3.77,-1.4 6.86,-1.53 9.3,-0.38 2.44,1.14 4.37,3.63 5.8,7.47 0.87,2.35 1.81,4.9 2.83,7.64 1.02,2.74 1.96,5.29 2.83,7.64 1.02,2.74 1.78,5.58 2.29,8.51l-7.52 2.79c-0.99,-2.67 -1.95,-5.27 -2.9,-7.82 -0.81,-2.19 -1.67,-4.49 -2.56,-6.9 -0.89,-2.41 -1.69,-4.55 -2.39,-6.43 -0.33,-0.9 -0.85,-1.52 -1.55,-1.87 -0.69,-0.34 -1.47,-0.35 -2.32,-0.04l-2.22 0.83c-2.22,0.82 -2.9,2.41 -2.03,4.76l5.23 14.1 -8.23 3.05 -4.79 -12.92c-0.87,-2.35 -2.48,-3.09 -4.84,-2.22l-1.17 0.43c-2.35,0.88 -3.09,2.49 -2.22,4.84l6.98 18.8 -8.23 3.05 -8.06 -21.74c-1.43,-3.84 -1.6,-6.98 -0.53,-9.43 1.08,-2.45 3.4,-4.33 6.96,-5.65 2.35,-0.88 4.46,-1.05 6.33,-0.51 1.87,0.53 3.42,1.57 4.67,3.11 -0.09,-0.95 -0.05,-1.94 0.13,-2.99 0.18,-1.05 0.58,-2.05 1.18,-3.01 0.6,-0.96 1.44,-1.87 2.5,-2.73 1.06,-0.86 2.37,-1.58 3.95,-2.17l0.58 -0.21zm-34.37 -5.95l-2.09 -24.99c-0.34,-4.07 0.34,-7.15 2.03,-9.22 1.69,-2.07 4.43,-3.26 8.22,-3.58 2.5,-0.21 4.57,0.16 6.23,1.11 1.65,0.96 2.85,2.2 3.61,3.73 0.17,-0.94 0.49,-1.89 0.96,-2.85 0.46,-0.96 1.12,-1.82 1.98,-2.59 0.86,-0.76 1.93,-1.42 3.2,-1.96 1.27,-0.55 2.77,-0.9 4.47,-1.04 4.08,-0.34 7.16,0.37 9.24,2.12 2.07,1.76 3.28,4.67 3.62,8.76l2.25 26.85 -43.72 3.66zm27.68 -29.99c-2.5,0.21 -3.64,1.56 -3.43,4.06l1.04 12.49 8.74 -0.73 -1.04 -12.49c-0.21,-2.5 -1.56,-3.64 -4.06,-3.44l-1.25 0.11zm-17.33 3.34c-2.5,0.21 -3.64,1.56 -3.43,4.06l0.89 10.61 8.74 -0.73 -0.89 -10.62c-0.21,-2.49 -1.56,-3.64 -4.06,-3.43l-1.25 0.11zm-12.42 -23.69l2.4 -12.3 23.99 -6.82 -20.03 -13.48 2.39 -12.3 30.78 22.28c1.42,1 2.65,2.04 3.7,3.11 1.04,1.08 1.88,2.23 2.52,3.46 0.63,1.23 1.04,2.58 1.22,4.04 0.18,1.46 0.11,3.08 -0.24,4.84 -0.17,0.86 -0.36,1.68 -0.58,2.47 -0.21,0.79 -0.43,1.5 -0.64,2.14 -0.22,0.72 -0.46,1.4 -0.71,2.04l-8.31 -1.62 1.08 -5.54c0.12,-0.61 0.09,-1.15 -0.1,-1.62 -0.19,-0.46 -0.46,-0.83 -0.83,-1.12 -0.37,-0.28 -0.79,-0.47 -1.27,-0.56 -0.47,-0.09 -0.91,-0.07 -1.32,0.06l-34.05 10.92zm47.75 -72.32l25.38 0.11 -5.78 10.42 -20.33 -0.18 -2.73 4.93 15.61 8.67 -5.47 9.86 -38.36 -21.28 5.48 -9.86 15.06 8.36 2.74 -4.93 -7.37 -11.26c-1.09,-1.66 -1.79,-3.35 -2.1,-5.07 -0.31,-1.72 0.08,-3.55 1.15,-5.49 0.35,-0.62 0.71,-1.21 1.09,-1.76 0.38,-0.56 0.73,-1.05 1.07,-1.49 0.41,-0.48 0.79,-0.94 1.13,-1.38l7.39 4.11 -1.21 2.19c-0.31,0.55 -0.41,1.14 -0.3,1.77 0.1,0.63 0.29,1.16 0.57,1.61l6.98 10.67zm56.09 -28.95l-8.25 7.7 -18.39 -19.7 7.4 29.96 -8.7 8.13 -29.94 -32.06 8.24 -7.7 18.4 19.69 -7.41 -29.96 8.71 -8.12 29.94 32.06zm7.64 -53.54l24.57 -9.44c4.1,-1.57 7.43,-1.78 9.99,-0.64 2.57,1.14 4.63,3.76 6.21,7.85l2.24 5.85c1.57,4.1 1.79,7.43 0.65,9.99 -1.14,2.56 -3.76,4.63 -7.86,6.2l-14.04 5.4 4.5 11.7 -10.53 4.04 -15.73 -40.95zm30.24 1.81c-0.9,-2.34 -2.52,-3.06 -4.86,-2.16l-11.7 4.5 4.94 12.87 11.7 -4.5c2.34,-0.9 3.06,-2.52 2.16,-4.86l-2.24 -5.85zm66.25 26.11l-11.28 -0.23 0.54 -26.94 -15.58 26.64 -11.9 -0.23 0.87 -43.86 11.28 0.22 -0.54 26.94 15.58 -26.64 11.9 0.24 -0.87 43.86zm43.77 13.23l-10.59 -3.9 6.17 -16.76 -14.7 -5.41 -6.17 16.77 -10.59 -3.9 15.15 -41.17 10.59 3.9 -5.95 16.17 14.7 5.41 5.95 -16.17 10.59 3.89 -15.15 41.17zm16.12 9.78l-9.52 -6.06 23.57 -37 28.81 18.35 -4.72 7.4 -19.29 -12.28 -18.85 29.59zm35.4 32.82l-7.03 -8.82 27.45 -21.86 -8.2 -10.3 6.86 -5.46 23.43 29.41 -6.86 5.46 -8.2 -10.29 -27.45 21.86zm51.72 26.74c2.29,-1 2.94,-2.66 1.93,-4.95l-4.29 -9.75c-1,-2.3 -2.65,-2.94 -4.95,-1.93l-18.36 8.06c-2.29,1.01 -2.94,2.66 -1.93,4.95l4.28 9.76c1.01,2.29 2.67,2.94 4.96,1.93l18.36 -8.07zm-13.82 18.4c-4.02,1.76 -7.33,2.13 -9.95,1.12 -2.61,-1.02 -4.81,-3.54 -6.57,-7.56l-6.3 -14.34c-1.76,-4.02 -2.14,-7.33 -1.12,-9.95 1.02,-2.61 3.54,-4.8 7.55,-6.57l18.36 -8.06c4.02,-1.77 7.34,-2.14 9.95,-1.12 2.62,1.02 4.81,3.54 6.57,7.55l6.3 14.34c1.76,4.02 2.14,7.34 1.12,9.95 -1.02,2.62 -3.54,4.81 -7.55,6.57l-18.36 8.07zm-6.2 49.3l-0.94 -11.25 17.8 -1.49 -1.31 -15.61 -17.79 1.49 -0.95 -11.24 43.72 -3.66 0.94 11.24 -17.17 1.44 1.3 15.61 17.18 -1.43 0.94 11.24 -43.72 3.66zm26.2 29.29l-4.98 13.53c-1.51,4.11 -3.54,6.76 -6.09,7.94 -2.55,1.17 -5.88,1.01 -10,-0.51l-3.52 -1.3c-4.12,-1.51 -6.77,-3.54 -7.95,-6.09 -1.17,-2.55 -1.01,-5.88 0.51,-10l8.87 -24.11 41.17 15.14 -3.9 10.59 -14.11 -5.19zm-41.98 30.63l3.89 -10.59 41.17 15.15 -3.89 10.58 -41.17 -15.14zm24.81 -20.25c2.35,0.86 3.96,0.12 4.82,-2.23l4.11 -11.18 -10.58 -3.89 -4.11 11.17c-0.87,2.35 -0.12,3.96 2.23,4.83l3.53 1.3z"/>
  <ellipse class="fil2 str2" cx="250.55" cy="340.1" rx="18.84" ry="19.95"/>
  <path class="fil3 str3" d="M198.67 138l102.66 0c5.18,0 9.42,4.08 9.42,9.07l0 205.86c0,4.99 -4.24,9.07 -9.42,9.07l-102.66 0c-5.18,0 -9.42,-4.08 -9.42,-9.07l0 -205.86c0,-4.99 4.24,-9.07 9.42,-9.07zm8.19 14.06l86.28 0c4.35,0 7.91,3.42 7.91,7.62l0 149.81c0,4.19 -3.56,7.62 -7.91,7.62l-86.28 0c-4.35,0 -7.91,-3.43 -7.91,-7.62l0 -149.81c0,-4.2 3.56,-7.62 7.91,-7.62zm43.14 166.86c11.7,0 21.19,9.14 21.19,20.41 0,11.27 -9.49,20.4 -21.19,20.4 -11.7,0 -21.19,-9.13 -21.19,-20.4 0,-11.27 9.49,-20.41 21.19,-20.41z"/>
  <rect class="fil2" x="194.74" y="141.71" width="109.26" height="170.49" rx="7.53" ry="7.25"/>
  <g>
   <path class="fil4" d="M273.86 258.22l-19.75 -0.04 0.18 -0.09 0.28 -0.1 0.36 -0.18 0.19 -0.09 0.27 -0.18 0.28 -0.09 0.18 -0.05 0.09 -0.23 0.41 -0.23 0.14 -0.23 0.55 -0.04 0 -0.19 0.18 -0.04 0.19 -0.09 0.27 -0.19 0.23 -0.13 0.09 -0.19 0.14 -0.23 0.46 -0.27 0.18 -0.05 0 -0.27 1.51 -1.19 0.09 -0.18 0.1 -0.19 0.04 -0.18 0.23 -0.09 0.37 -0.64 0.18 -0.28 0.09 -0.18 0.19 -0.37 0.09 -0.27 0.09 -0.19 0.09 -0.18 0.09 -0.18 0.18 -0.28 0.1 -0.18 0.18 -0.28 0.09 -0.27 0.18 -0.37 0.1 -0.18 0.09 -0.18 0.18 -0.46 0.09 -0.18 0.09 -0.37 0.09 -0.28 0.1 -0.27 0.09 -0.18 0.09 -0.37 0.09 -0.28 0.19 -0.27 0.09 -0.46 0.09 -0.27 0.09 -0.19 0.09 -0.36 0.09 -0.37 0.09 -0.37 0.05 -0.73 0.18 0 0.05 -0.55 0.14 -0.68 9.03 -0.05 0 15.75zm-25.34 -15.84l10.31 0.18 0 2.75 -0.09 0.91 -0.09 0.55 -0.1 0.55 -0.09 0.28 -0.09 0.27 -0.09 0.19 -0.09 0.64 -0.1 0.37 -0.18 0.36 -0.04 0.37 -0.19 0 -0.04 0.27 -0.1 0.28 -0.09 0.27 -0.09 0.19 -0.18 0.36 -0.18 0.28 -0.19 0.27 -0.18 0.28 -0.18 0.27 -0.46 0.55 -0.87 0.96 -0.46 0.37 -0.28 0.18 -0.27 0.19 -0.27 0.18 -0.19 0.09 -0.27 0.18 -0.19 0.1 -0.18 0.09 -0.27 0.18 -0.37 0.18 -0.27 0.09 -0.19 0.1 -0.18 0.09 -0.19 0.09 -0.4 -0.14 -0.1 -0.18 -0.09 -0.37 -0.09 -0.82 -0.09 -0.46 -0.09 -0.64 -0.1 -0.46 -0.09 -0.37 -0.09 -0.54 -0.09 -0.56 -0.09 -0.27 -0.09 -0.55 -0.09 -0.55 -0.1 -0.55 -0.09 -0.46 -0.09 -0.27 -0.09 -0.46 -0.09 -0.64 -0.09 -0.46 -0.1 -0.37 -0.09 -0.55 -0.09 -0.55 -0.09 -0.27 -0.09 -0.46 -0.09 -0.36 -0.1 -0.37 -0.09 -0.37 -0.09 -0.27 -0.09 -0.46 -0.05 -0.73zm-26.37 0.09l3.75 -0.05 2.75 -0.04 0.05 0.18 0.09 0.64 0.18 0.64 0.09 0.19 0.09 0.45 0.09 0.19 0.1 0.18 0.09 0.28 0.09 0.18 0.09 0.36 0.09 0.19 0.28 0.46 0.09 0.18 0.09 0.27 0.09 0.19 0.09 0.18 0.19 0.28 0.09 0.18 0.18 0.27 0.19 0.28 0.09 0.27 0.27 0.37 0.09 0.18 0.19 0.28 0.18 0.27 0.18 0.28 0.19 0.27 0.18 0.28 0.27 0.36 0.37 0.46 1.51 1.61 0.28 0.18 0.36 0.27 0.19 0.1 0.27 0.18 0.18 0.09 0.28 0.18 0.27 0.19 0.28 0.18 1 0.92 0.37 0.27 0.18 0.09 1.1 0 0.28 -0.09 0.32 -0.14 0.04 -0.18 0.19 0 0.04 -0.37 0 -1 -0.18 -0.46 -0.18 -0.28 -1.47 -1.56 -0.46 -0.54 -0.45 -0.55 -0.28 -0.37 -0.27 -0.37 -0.28 -0.36 -0.09 -0.19 -0.18 -0.27 -0.19 -0.28 -0.09 -0.18 -0.09 -0.18 -0.18 -0.28 -0.09 -0.27 -0.09 -0.19 -0.1 -0.36 -0.09 -0.28 -0.09 -0.27 -0.09 -0.46 -0.09 -0.46 -0.09 -1.1 0 -1.19 0.09 -0.36 0.23 -0.42 4.48 0 4.99 0.14 0.1 0.55 0.09 0.37 0.09 0.36 0.09 0.46 0.09 0.55 0.09 0.55 0.1 0.27 0.09 0.55 0.09 0.55 0.09 0.28 0.09 0.55 0.09 0.55 0.1 0.37 0.09 0.55 0.09 0.45 0.09 0.28 0.09 0.55 0.09 0.64 0.1 0.46 0.09 0.36 0.09 0.37 0.09 0.55 0.09 0.37 0.09 0.45 0.1 0.55 0.09 0.55 0.09 0.55 0.09 0.28 0.09 0.55 0.05 1.1 -0.55 0.04 -0.46 0.09 -0.46 0.1 -0.27 0.09 -0.37 0.09 -0.18 0.09 -0.55 0.09 -0.28 0.09 -0.36 0.09 -0.83 0.09 -0.46 0.1 -5.49 0 -0.92 -0.1 -0.64 -0.09 -0.55 -0.09 -0.18 -0.09 -0.37 -0.09 -0.27 -0.09 -0.37 -0.09 -0.27 -0.09 -0.18 -0.1 -0.28 -0.09 -0.27 -0.09 -0.28 -0.09 -0.18 -0.09 -0.19 -0.09 -0.18 -0.1 -0.27 -0.09 -0.19 -0.09 -0.18 -0.09 -0.18 -0.09 -0.28 -0.19 -0.18 -0.09 -0.19 -0.09 -0.27 -0.18 -0.27 -0.19 -0.28 -0.18 -0.46 -0.36 -0.73 -0.65 -0.87 -0.77 -0.64 -0.74 -0.37 -0.46 -0.36 -0.45 -0.19 -0.28 -0.27 -0.37 -0.19 -0.27 -0.18 -0.27 -0.18 -0.28 -0.18 -0.27 -0.1 -0.19 -0.18 -0.27 -0.09 -0.19 -0.09 -0.18 -0.18 -0.27 -0.1 -0.19 -0.09 -0.18 -0.09 -0.18 -0.09 -0.19 -0.09 -0.18 -0.09 -0.18 -0.1 -0.19 -0.18 -0.36 -0.09 -0.28 -0.09 -0.18 -0.1 -0.28 -0.09 -0.18 -0.09 -0.18 -0.09 -0.19 -0.09 -0.27 -0.09 -0.18 -0.09 -0.37 -0.09 -0.18 -0.1 -0.19 -0.09 -0.36 -0.09 -0.19 -0.09 -0.27 -0.09 -0.46 -0.09 -0.18 -0.1 -0.64 -0.04 -0.46zm13.74 -4.03l0.13 -0.18 0.09 -0.19 0.1 -0.18 0.18 -0.28 0.09 -0.18 0.28 -0.37 0.36 -0.45 0.73 -0.83 0.05 -0.18 0.23 -0.09 0.04 -0.19 0.24 -0.09 0.04 -0.18 0.82 -0.69 0.46 -0.36 0.37 -0.28 0.36 -0.27 0.28 -0.19 0.18 -0.09 0.28 -0.09 0.27 -0.09 0.28 -0.09 0.27 -0.19 0.18 -0.09 0.19 -0.09 0.36 -0.05 0.05 0.28 0.09 0.37 0.09 0.27 0.09 0.46 0.1 0.55 0.09 0.36 0.09 0.28 0.09 0.55 0.09 0.27 0.09 0.37 0.1 0.46 0.09 0.36 0.09 0.28 0.09 0.27 0.09 0.37 0.09 0.37 0.1 0.36 0.04 0.83 -8.38 -0.09 -0.04 -1.01zm10.44 -7.15l2.47 0.05 0.46 0.09 0.36 0.09 0.55 0.09 0.28 0.1 0.27 0.09 0.28 0.09 0.27 0.09 0.27 0.09 0.28 0.09 0.18 0.1 0.19 0.09 0.18 0.09 0.18 0.09 0.19 0.09 0.18 0.09 0.27 0.19 0.28 0.18 0.18 0.09 0.37 0.28 0.36 0.27 0.83 0.73 0.18 0.05 0.78 0.91 0.28 0.37 0.27 0.37 0.18 0.27 0.19 0.28 0.09 0.18 0.18 0.28 0.09 0.18 0.19 0.27 0.09 0.19 0.09 0.18 0.09 0.18 0.09 0.19 0.09 0.27 0.1 0.18 0.09 0.28 0.04 0.46 -10.53 0 -0.04 -0.92 -0.1 -0.73 -0.09 -0.55 -0.09 -0.18 -0.09 -0.46 -0.09 -0.55 -0.09 -0.19 -0.09 -0.36 -0.1 -0.55 -0.09 -0.28 -0.09 -0.36 -0.09 -0.64 -0.09 -0.37 -0.09 -0.37 -0.1 -0.45 -0.09 -0.56 -0.04 -0.73zm27.53 8.06l-8.94 0 -0.05 -2.1 -0.09 -0.55 -0.09 -0.92 -0.09 -0.18 -0.09 -0.28 -0.1 -0.27 -0.09 -0.46 -0.09 -0.36 -0.09 -0.28 -0.09 -0.28 -0.09 -0.18 -0.19 -0.46 -0.09 -0.18 -0.09 -0.18 -0.09 -0.28 -0.09 -0.27 -0.1 -0.19 -0.09 -0.18 -0.09 -0.18 -0.09 -0.19 -0.05 -0.18 -0.18 0 -0.04 -0.27 -0.1 -0.19 -0.18 -0.27 -0.09 -0.18 -0.28 -0.37 -0.09 -0.18 -0.18 -0.28 -0.05 -0.18 -0.18 0 -0.04 -0.19 -0.28 -0.36 -0.27 -0.37 -0.05 -0.18 -0.19 0 -0.41 -0.55 -0.04 -0.18 -0.18 0 -0.1 -0.23 -0.18 -0.05 -0.18 -0.32 -0.92 -0.82 -0.18 -0.1 -0.64 -0.54 -0.19 -0.1 -0.18 -0.09 -0.18 -0.04 0 -0.19 -0.37 -0.23 -0.27 -0.04 -0.09 -0.23 -0.28 -0.18 -0.55 -0.37 18.01 -0.05 0 15.48zm-36.78 -15.29l-0.19 0.04 -0.18 0.1 -0.18 0.09 -0.28 0.09 -0.27 0.18 -0.37 0.18 -0.18 0.1 -0.19 0.09 -0.27 0.18 -0.27 0.18 -0.28 0.19 -0.37 0.27 -0.54 0.46 -1.06 0.96 -0.46 0.55 -0.27 0.37 -0.28 0.36 -0.18 0.28 -0.09 0.18 -0.18 0.28 -0.1 0.18 -0.09 0.18 -0.09 0.19 -0.09 0.18 -0.09 0.18 -0.19 0.28 -0.09 0.27 -0.09 0.18 -0.09 0.19 -0.09 0.27 -0.09 0.19 -0.09 0.27 -0.1 0.27 -0.09 0.28 -0.09 0.37 -0.09 0.18 -0.09 0.46 -0.1 0.36 -0.09 0.28 -0.09 0.55 -0.09 0.46 -0.09 0.55 -0.09 0.45 -0.09 0.74 -0.09 1.65 -0.05 0.91 -0.18 0.05 -0.28 0.09 -0.28 0.09 -6.27 -0.04 0 -2.84 0.09 -0.74 0.1 -0.55 0.09 -0.55 0.09 -0.27 0.09 -0.46 0.09 -0.37 0.09 -0.36 0.1 -0.18 0.09 -0.28 0.09 -0.37 0.09 -0.18 0.09 -0.18 0.09 -0.19 0.1 -0.27 0.09 -0.18 0.09 -0.28 0.09 -0.18 0.09 -0.19 0.09 -0.18 0.09 -0.18 0.09 -0.18 0.1 -0.19 0.09 -0.18 0.09 -0.18 0.18 -0.28 0.1 -0.18 0.18 -0.28 0.18 -0.27 0.19 -0.28 0.18 -0.27 0.18 -0.27 0.18 -0.28 0.28 -0.37 0.36 -0.46 0.56 -0.64 0.91 -1 0.83 -0.92 0.41 -0.5 8.79 -0.05 0 0.27 -0.18 0.1zm-5.68 -3.58l5.36 -5.22 0.04 -0.18 0.23 -0.09 0.05 -0.19 0.82 -0.68 0.55 -0.46 0.32 -0.05 0.09 0.19 0.09 0.46 0.1 0.27 0.09 0.55 0.09 0.46 0.09 0.37 0.09 0.54 0.09 0.37 0.09 0.27 0.09 0.46 0.1 0.19 0.09 0.36 0.09 0.55 0.09 0.28 0.09 0.27 0.1 0.46 0.09 0.36 0.09 0.28 0.04 0.46 -0.18 0.05 -0.46 0 -8.38 -0.14 -0.04 -0.19zm42.46 0.28l-29.64 0 -0.05 -0.64 -0.09 -0.28 -0.09 -0.27 -0.09 -0.73 -0.09 -0.19 -0.09 -0.46 -0.1 -0.36 -0.09 -0.64 -0.09 -0.19 -0.18 -0.91 -0.09 -0.46 -0.1 -0.55 -0.09 -0.55 -0.09 -0.27 -0.09 -0.37 -0.09 -0.46 -0.09 -0.55 -0.09 -0.27 -0.1 -0.37 -0.09 -0.55 -0.09 -0.37 -0.05 -1 0.19 0 0.46 -0.6 1.83 -1.74 0.23 -0.14 0.13 -0.32 1.24 -1.05 0.83 -0.92 0.04 -0.18 0.28 -0.14 0.18 -0.04 0.18 -0.32 0.18 -0.1 25.89 -0.04 0 16.03zm0 -19.15l-22.95 0 0 -0.18 0.27 0 0.32 -0.46 0.18 -0.27 0.1 -0.18 0.27 -0.37 0.09 -0.19 0.09 -0.18 0.28 -0.36 0.09 -0.19 0.27 -0.46 0.1 -0.27 0.04 -0.19 0.18 0 0.05 -0.18 0.19 -0.36 0.08 -0.19 0.1 -0.27 0.18 -0.28 0.18 -0.36 0.09 -0.19 0.1 -0.27 0.18 -0.37 0.09 -0.27 0.09 -0.28 0.19 -0.46 0.09 -0.18 0.09 -0.27 0.18 -0.37 0.09 -0.46 0.1 -0.18 0.09 -0.27 0.09 -0.19 0.09 -0.36 0.09 -0.19 0.09 -0.27 0.1 -0.46 0.09 -0.37 0.09 -0.18 0.09 -0.55 0.09 -0.37 0.09 -0.36 0.09 -0.46 0.1 -0.28 0.09 -0.45 0.09 -0.28 0.09 -0.55 0.09 -0.55 0.09 -0.55 0.14 -0.41 16.82 -0.05 0 15.39zm-24.24 -14.74l-0.23 0.27 -0.18 0.37 -0.18 0.27 -0.19 0.28 -0.18 0.27 -0.18 0.28 -0.19 0.27 -0.27 0.37 -0.18 0.27 -0.19 0.28 -0.27 0.36 -0.18 0.28 -0.28 0.36 -0.27 0.37 -0.46 0.55 -0.73 0.83 -0.23 0.32 -0.83 0.73 -0.55 0.46 -0.55 0.46 -0.55 0.45 -0.45 0.37 -0.37 0.27 -0.37 0.28 -0.45 0.36 -0.19 0.1 -0.41 -0.05 -0.09 -0.37 -0.09 -0.27 -0.09 -0.28 -0.1 -0.55 -0.09 -0.27 -0.09 -0.55 -0.09 -0.55 -0.09 -0.73 0 -4.12 0.09 -0.83 0.09 -0.91 0.09 -0.37 0.14 -0.32 2.84 0 6.69 0.04 -0.05 0.37 -0.05 0.28zm3.76 -7.97l-0.14 0.36 -0.09 0.28 -0.09 0.36 -0.09 0.19 -0.1 0.27 -0.09 0.37 -0.09 0.18 -0.09 0.18 -0.09 0.37 -0.09 0.18 -0.1 0.37 -0.09 0.27 -0.09 0.37 -0.09 0.18 -0.23 0.42 -0.18 0.09 -7.24 0 -3.48 -0.09 -0.18 -0.05 0.05 -0.55 0.09 -0.18 0.09 -0.27 0.09 -0.28 0.09 -0.18 0.09 -0.19 0.09 -0.18 0.1 -0.28 0.09 -0.27 0.09 -0.18 0.09 -0.28 0.09 -0.27 0.09 -0.19 0.1 -0.27 0.09 -0.19 0.09 -0.27 0.09 -0.18 0.09 -0.19 0.19 -0.36 0.09 -0.28 0.09 -0.18 0.09 -0.18 0.09 -0.19 0.18 -0.27 0.1 -0.18 0.09 -0.19 0.09 -0.18 0.18 -0.28 0.09 -0.18 0.19 -0.28 0.09 -0.18 0.18 -0.27 0.19 -0.28 0.18 -0.27 0.18 -0.28 0.28 -0.36 0.18 -0.28 0.27 -0.36 0.37 -0.46 0.37 -0.46 0.55 -0.64 0.55 -0.64 1.14 -1.24 0.37 -0.27 0.36 -0.28 0.19 -0.09 0.36 -0.18 0.28 -0.09 0.27 -0.1 0.28 0 0.36 0.1 0.28 0.09 0.18 0.09 0.27 0.18 0.24 0.14 0.27 0.37 0.09 0.18 0.09 0.18 0.09 0.18 0.1 0.19 0.09 0.36 0.09 0.28 0.09 0.37 0.09 0.45 0.09 0.28 0.1 0.27 0.09 0.55 0.09 0.28 0.09 0.64 0.09 0.27 0.1 0.83 0 2.65 -0.05 0.65zm20.48 4.21l-16.64 0 0.05 -1.28 0 -2.57 -0.09 -1.28 -0.09 -0.37 -0.09 -0.82 -0.1 -0.55 -0.09 -0.64 -0.09 -0.64 -0.09 -0.55 -0.09 -0.55 -0.09 -0.28 -0.1 -0.55 -0.09 -0.27 -0.09 -0.46 -0.09 -0.64 -0.09 -0.28 -0.09 -0.36 -0.09 -0.46 -0.1 -0.27 -0.09 -0.28 -0.09 -0.27 -0.09 -0.28 -0.09 -0.37 -0.09 -0.18 -0.1 -0.46 -0.09 -0.18 -0.09 -0.18 -0.09 -0.37 -0.18 -0.46 -0.1 -0.36 -0.09 -0.19 -0.09 -0.18 -0.09 -0.37 -0.09 -0.18 -0.09 -0.18 -0.1 -0.37 -0.18 -0.27 -0.18 -0.46 -0.09 -0.19 -0.1 -0.18 -0.08 -0.18 -0.19 -0.37 -0.18 -0.27 -0.19 -0.37 -0.09 -0.18 -0.18 -0.28 -0.18 -0.37 -0.1 -0.18 -0.18 -0.27 -0.09 -0.19 -0.18 -0.27 -0.19 -0.27 -0.18 -0.28 -1.33 -1.42 -0.27 -0.18 -0.28 -0.19 -0.18 -0.09 -0.18 -0.09 -0.19 -0.09 -0.27 -0.09 -0.19 -0.1 -0.36 -0.09 -1.1 0 -0.18 0.09 -0.46 0.1 -0.28 0.18 -0.18 0.09 -0.27 0.19 -1.61 1.51 -0.36 0.46 -0.37 0.45 -0.27 0.37 -0.28 0.36 -0.27 0.37 -0.28 0.37 -0.36 0.46 -0.28 0.36 -0.27 0.37 -0.28 0.36 -0.27 0.37 -0.19 0.28 -0.27 0.36 -0.18 0.28 -0.19 0.27 -0.18 0.28 -0.09 0.18 -0.19 0.28 -0.18 0.27 -0.27 0.37 -0.19 0.36 -0.09 0.19 -0.18 0.27 -0.19 0.37 -0.18 0.27 -0.09 0.19 -0.18 0.27 -0.09 0.28 -0.19 0.27 -0.09 0.18 -0.09 0.19 -0.09 0.18 -0.09 0.18 -0.09 0.18 -0.1 0.19 -0.18 0.37 -0.09 0.18 -0.09 0.28 -0.09 0.18 -0.09 0.18 -0.1 0.27 -0.09 0.19 -0.09 0.18 -0.09 0.28 -0.09 0.27 -0.1 0.18 -0.09 0.37 -0.09 0.18 -0.09 0.19 -0.09 0.27 -0.09 0.28 -0.09 0.27 -0.1 0.37 -0.09 0.27 -0.09 0.37 -0.09 0.46 -0.09 0.18 -0.09 0.55 -0.1 0.46 -0.09 0.36 -0.09 0.55 -0.09 0.55 -0.09 0.83 -0.05 3.02 -0.18 0.05 -31.87 0.09 -0.23 0.14 -0.09 0.27 0.04 2.34 3.03 0 1.37 -0.1 20.24 0 7.78 0.19 0.19 0.04 0.04 1.01 0.09 1.01 0.1 0.64 0.09 1.1 0.09 0.46 0.09 0.82 0.09 0.28 0.09 0.73 0.1 0.28 0.09 0.64 0.09 0.45 0.09 0.64 0.09 0.28 0.09 0.64 0.09 0.46 0.1 0.37 0.09 0.18 0.09 0.37 0.09 0.45 0.09 0.46 0.1 0.37 0.09 0.18 0.18 0.46 0.09 0.37 0.09 0.36 0.09 0.28 0 0.55 -0.59 0.68 -0.46 0.37 -0.37 0.27 -0.18 0.1 -0.18 0.09 -0.19 0.09 -31.96 0.09 -1.23 0.14 0.04 2.79 1.19 0 2.66 -0.09 18.68 0 6.78 0.09 0.27 0.19 -0.55 0.45 -0.55 0.46 -0.64 0.55 -0.73 0.64 -1.19 1.1 -0.23 0.14 -0.82 0.92 -0.46 0.54 -0.28 0.37 -0.27 0.37 -0.28 0.36 -0.18 0.28 -0.18 0.27 -0.28 0.37 -0.27 0.37 -0.18 0.27 -0.28 0.37 -0.18 0.27 -0.19 0.28 -0.27 0.36 -0.19 0.28 -0.18 0.27 -0.18 0.28 -0.18 0.27 -0.19 0.28 -0.18 0.27 -0.18 0.28 -0.09 0.18 -0.19 0.28 -0.18 0.27 -0.18 0.28 -0.1 0.18 -0.18 0.27 -0.18 0.28 -0.18 0.27 -0.1 0.19 -0.18 0.27 -0.27 0.37 -0.19 0.36 -0.18 0.28 -0.09 0.18 -0.19 0.28 -0.09 0.18 -0.18 0.36 -0.09 0.19 -0.19 0.37 -0.13 0.23 -0.74 0 -8.15 0 -8.15 0.04 -0.04 0.37 -0.09 0.36 -0.05 2.11 15.75 0.14 0.19 0.04 -0.05 0.19 -0.18 0.27 -0.1 0.19 -0.09 0.18 -0.09 0.64 -0.09 0.37 -0.09 0.27 -0.09 0.37 -0.1 0.45 -0.09 0.55 -0.09 0.28 -0.09 0.37 -0.09 0.45 -0.09 0.92 -0.1 0.46 -0.09 0.55 -0.09 1 -0.09 0.37 -0.09 1.38 -0.09 0.54 0 3.58 0.09 1.1 0.09 0.55 -0.05 0.5 -14.05 0.14 -0.09 0.27 0 1.56 0.13 1.05 0.64 0 8.52 0 5.4 0.05 0.05 0.27 0.09 0.64 0.09 0.37 0.09 0.28 0.1 0.36 0.09 0.19 0.09 0.27 0.09 0.37 0.09 0.18 0.09 0.27 0.1 0.28 0.09 0.27 0.09 0.19 0.09 0.18 0.09 0.18 0.09 0.28 0.19 0.27 0.09 0.28 0.09 0.18 0.18 0.37 0.09 0.18 0.1 0.19 0.18 0.27 0.09 0.18 0.09 0.19 0.19 0.27 0.09 0.18 0.18 0.28 0.18 0.27 0.1 0.19 0.18 0.27 0.18 0.28 0.28 0.36 0.18 0.28 0.28 0.37 0.18 0.27 0.18 0.27 0.28 0.37 0.27 0.37 0.37 0.46 0.46 0.54 1.69 1.79 0.46 0.37 0.36 0.27 0.55 0.46 0.37 0.28 0.28 0.18 0.27 0.18 0.27 0.18 0.28 0.19 0.18 0.09 -25 0.09 -0.32 0.14 -0.09 0.27 -0.05 2.57 8.15 -0.05 38.1 -0.05 0.05 0.19 0.09 0.18 0.09 0.46 0.09 0.37 0.09 0.55 0.09 0.82 0.1 0.55 0.09 0.92 0.09 0.55 0.09 0.55 0.09 0.73 0.09 1.1 0.1 0.36 0.09 1.84 0.09 1.65 0 3.75 -0.09 0.19 -0.09 0.36 -0.1 0.18 -0.09 0.19 -0.18 0.46 -0.09 0.18 -0.19 0.37 -0.18 0.27 -0.18 0.28 -0.19 0.27 -0.18 0.28 -0.18 0.27 -0.37 0.46 -0.36 0.46 -0.92 1 -0.23 0.32 -1.19 1.1 -0.55 0.46 -0.36 0.28 -0.37 0.27 -0.28 0.18 -0.27 0.19 -0.28 0.18 -0.18 0.09 -0.27 0.19 -0.19 0.09 -0.27 0.18 -0.18 0.09 -0.19 0.09 -0.18 0.09 -0.18 0.1 -0.19 0.09 -0.18 0.09 -0.18 0.09 -0.55 0.18 -0.28 0.1 -0.46 0.09 -0.18 0.09 -1.65 0 -0.64 -0.09 -0.27 -0.09 -0.46 -0.1 -0.18 -0.09 -0.37 -0.09 -0.18 -0.09 -0.19 -0.09 -0.27 -0.09 -0.28 -0.1 -0.27 -0.09 -0.28 -0.18 -0.18 -0.09 -0.18 -0.09 -0.18 -0.09 -0.19 -0.1 -0.27 -0.18 -0.19 -0.09 -0.27 -0.18 -0.18 -0.1 -0.28 -0.18 -0.37 -0.27 -0.18 -0.05 0 -0.27 0.55 0.04 1.1 0 0.37 -0.09 0.73 -0.09 0.27 -0.09 0.28 -0.09 0.27 -0.1 0.37 -0.09 0.37 -0.09 0.27 -0.09 0.18 -0.09 0.19 -0.09 0.36 -0.19 0.19 -0.09 0.18 -0.09 0.27 -0.19 0.37 -0.27 1.24 -1.14 0.27 -0.37 0.09 -0.18 0.09 -0.19 0.19 -0.27 0.09 -0.18 0.09 -0.28 0.09 -0.18 0.09 -0.19 0.1 -0.27 0.09 -0.18 0.09 -0.28 0.09 -0.37 0.09 -0.18 0.09 -0.37 0.1 -0.64 0.09 -0.36 0 -2.57 -0.09 -0.36 -0.1 -0.65 -0.09 -0.27 -0.09 -0.18 -0.09 -0.28 -0.09 -0.18 -0.09 -0.19 -0.1 -0.18 -0.09 -0.18 -0.18 -0.28 -0.28 -0.36 -0.96 -1.06 -0.36 -0.27 -0.28 -0.18 -0.18 -0.1 -0.28 -0.18 -0.18 -0.09 -0.18 -0.09 -0.18 -0.09 -0.19 -0.09 -0.27 -0.1 -0.28 -0.09 -0.27 -0.09 -0.37 -0.09 -0.46 -0.09 -0.27 -0.1 -0.92 -0.09 -2.65 0 -0.19 0.09 -0.91 0.1 -0.46 0.09 -0.28 0.09 -0.36 0.09 -0.19 0.09 -0.18 0.1 -0.27 0.18 -0.19 0.09 -0.36 0.27 -0.46 0.37 -0.78 0.69 -0.46 0.55 -0.27 0.36 -0.19 0.28 -0.09 0.18 -0.18 0.28 -0.09 0.18 -0.18 0.27 -0.1 0.19 -0.09 0.18 -0.09 0.18 -0.09 0.28 -0.09 0.18 -0.09 0.28 -0.09 0.18 -0.1 0.18 -0.09 0.28 -0.09 0.27 -0.09 0.28 -0.09 0.37 -0.09 0.45 -0.1 0.28 -0.09 0.55 0 2.93 0.09 0.55 0.1 0.36 0.09 0.46 0.09 0.19 0.09 0.27 0.09 0.37 0.09 0.18 0.1 0.18 0.09 0.28 0.09 0.18 0.09 0.18 0.09 0.19 0.18 0.27 0.1 0.19 0.18 0.27 0.09 0.18 0.27 0.37 0.28 0.37 0.46 0.55 0.78 0.87 0.54 0.45 0.46 0.37 0.28 0.18 0.36 0.28 0.28 0.18 0.18 0.09 0.28 0.19 0.18 0.09 0.18 0.09 0.28 0.18 0.18 0.09 0.18 0.1 0.19 0.09 0.18 0.09 0.18 0.09 0.19 0.09 0.18 0.1 0.28 0.09 0.27 0.18 0.28 0.09 0.27 0.09 0.18 0.09 0.37 0.1 0.18 0.09 0.37 0.09 0.18 0.09 0.37 0.09 0.27 0.09 0.46 0.09 0.37 0.1 0.36 0.09 4.12 0 1.01 -0.09 0.55 -0.1 0.28 -0.09 0.55 -0.09 0.36 -0.09 0.37 -0.09 0.37 -0.09 0.27 -0.09 0.18 -0.1 0.37 -0.09 0.18 -0.09 0.19 -0.09 0.27 -0.09 0.18 -0.09 0.28 -0.09 0.18 -0.1 0.19 -0.09 0.18 -0.09 0.27 -0.18 0.19 -0.1 0.27 -0.18 0.18 -0.09 0.37 -0.27 0.28 -0.19 0.36 -0.27 0.73 -0.64 1.06 -0.96 0.36 -0.46 0.28 -0.37 0.27 -0.37 0.19 -0.27 0.04 -0.37 0.19 0 0.23 -0.36 0.09 -0.28 0.18 -0.37 0.18 -0.27 0.09 -0.37 0.1 -0.18 0.09 -0.18 0.18 -0.37 0.09 -0.27 0.09 -0.37 0.09 -0.28 0.1 -0.27 0.09 -0.55 0.09 -0.27 0.09 -0.55 0.09 -0.55 0.09 -0.28 0.1 -0.64 0.09 -0.46 0.09 -0.82 0.09 -0.92 0.09 -1.01 0 -5.22 -0.09 -1.83 -0.09 -0.73 -0.09 -0.37 -0.09 -0.64 -0.1 -0.73 -0.09 -0.28 -0.09 -0.55 -0.09 -0.55 -0.09 -0.55 -0.05 -0.27 21.4 0 0 -78.14z"/>
  </g>
  <path class="fil4" d="M298.81 239.39l0 3.11 -48.66 0 0 -3.11 48.66 0zm0 -37.64l0 3.09 -6.55 -0.04 -0.23 0.42 -0.09 0.18 -0.09 0.18 -0.05 0.28 -0.18 0 -0.05 0.46 -0.18 0.36 -0.32 0.23 -1.1 0.09 -0.55 -0.41 0.04 -1.19 0.05 -0.64 -12.55 0 0.05 8.15 0.09 0.64 0 4.31 -0.09 1.1 -0.09 0.37 -0.09 0.64 -0.05 0.73 22.03 -0.03 0 3.23 -23.68 0 0 0.19 -0.18 0 -0.05 0.37 -0.36 0.45 -0.28 0.37 -0.27 0.37 -0.37 0.45 -0.46 0.55 -0.87 0.74 -0.04 0.18 -0.97 0.87 -0.36 0.23 0 0.18 -0.18 0.05 -0.37 0.27 -0.37 0.23 0 0.18 -0.18 0.05 -0.46 0.18 -0.09 0.23 -0.28 0.05 -0.36 0.18 -0.18 0.09 -0.19 0.1 -0.18 0.09 -0.18 0.09 -0.37 0.18 -0.18 0.09 -0.28 0.09 -0.18 0.1 -0.46 0.09 -0.18 0.09 -0.37 0.09 -0.55 0.09 -0.36 0.09 -0.74 0.09 -3.48 0 -0.64 -0.09 -0.64 -0.09 -0.18 -0.09 -0.37 -0.09 -0.73 -0.09 -0.28 -0.09 -0.36 -0.1 -0.19 -0.09 -0.27 -0.09 -0.18 -0.09 -0.37 -0.18 -0.18 -0.09 -0.28 -0.1 -0.27 -0.18 -0.28 -0.09 -0.13 -0.23 -0.32 -0.23 -0.37 -0.14 0 -0.18 -0.19 -0.05 -0.09 -0.23 -0.27 -0.04 -0.5 -0.6 -0.28 -0.46 -0.09 -0.18 -0.28 -0.36 -0.22 -0.1 -0.05 -0.18 -0.09 -0.27 -0.09 -0.28 -0.1 -0.37 -0.09 -0.27 -0.09 -0.46 -0.09 -0.27 -0.09 -0.28 -0.09 -0.27 -0.05 -0.74 -1.81 0 0 -3.11 2.18 0 0.04 -0.46 0.09 -0.36 0.19 -0.55 0.09 -0.19 0.09 -0.27 0.09 -0.28 0.09 -0.18 0.1 -0.18 0.18 -0.28 0.05 -0.18 0.18 0 0.04 -0.28 0.1 -0.18 0.22 -0.09 0.05 -0.27 0.46 -0.56 0.36 -0.45 0.33 -0.09 0 -0.28 0.27 -0.04 0.64 -0.55 0.37 -0.51 0.18 -0.04 0.09 -0.23 0.28 0 0.04 -0.19 0.32 -0.13 0.19 -0.32 0.18 -0.05 0.37 -0.23 0 -0.18 0.27 -0.05 0.37 -0.27 0.27 -0.1 0.55 -0.45 0.18 -0.09 0.19 -0.1 0.18 -0.09 0.18 -0.09 0.55 -0.37 0.19 -0.09 0.18 -0.09 0.18 -0.09 0.19 -0.09 0.45 -0.09 0.19 -0.1 0.45 -0.18 0.28 -0.04 0 -0.19 0.64 -0.04 0.28 -0.1 0.27 -0.09 0.46 -0.04 0 -0.19 0.55 -0.04 2.84 0 0.55 0.09 1.28 0.09 0.27 0.09 0.28 0.09 0.73 0.1 0.37 0.09 0.36 0.09 0.46 0.09 0.28 0.09 0.36 0.09 0.28 0.1 0.18 0.09 0.37 0.09 0.27 0.09 0.18 0.09 0.19 0.05 -0.05 -6.69 -24.11 -0.09 0 -3.12 24.07 0 -0.05 -9.52 -0.05 -5.86 -23.97 0 0 -3.12 24.07 0 -0.05 -3.94 -0.09 -14.84 -0.09 -0.82 -0.09 -8.98 0 -2.01 2.42 -0.05 0.14 0.78 0.09 1.19 0.09 0.64 0.09 0.46 0.1 0.55 0.09 0.46 0.09 0.36 0.09 0.28 0.09 0.46 0.09 0.36 0.1 0.18 0.09 0.28 0.09 0.37 0.09 0.18 0.09 0.27 0.09 0.19 0.09 0.27 0.1 0.28 0.09 0.18 0.09 0.18 0.09 0.19 0.09 0.18 0.09 0.18 0.1 0.19 0.09 0.18 0.09 0.18 0.18 0.28 0.19 0.27 0.18 0.28 0.18 0.27 0.28 0.37 0.27 0.37 0.37 0.45 0.36 0.46 0.55 0.64 0.37 0.46 0.55 0.64 0.55 0.64 0.27 0.37 0.37 0.46 0.27 0.36 0.37 0.46 0.28 0.37 0.36 0.45 0.28 0.37 0.36 0.46 0.28 0.37 0.36 0.45 0.37 0.46 0.28 0.37 0.27 0.36 0.28 0.37 0.18 0.28 0.27 0.36 0.19 0.28 0.18 0.27 0.27 0.37 0.28 0.36 0.37 0.46 0.91 1.01 0.18 0.28 0.28 0.36 0.18 0.28 0.18 0.27 0.19 0.28 0.09 0.18 0.18 0.27 0.09 0.19 0.19 0.27 0.09 0.28 0.18 0.27 0.09 0.28 0.19 0.27 0.09 0.28 0.18 0.27 0.09 0.18 0.09 0.28 0.1 0.18 0.09 0.28 0.09 0.18 0.09 0.18 0.09 0.19 0.1 0.27 0.09 0.46 0.09 0.37 0.09 0.27 0.09 0.28 0.05 0.27 0.27 0.05 0.28 0.09 2.29 0 2.61 0 0 2.92 -4.08 0.01 -0.37 0.09 -0.18 0.09 -0.05 0.23 0.1 0.18 0.09 0.46 0.09 0.28 0.09 0.55 0.09 2.01 0.09 1.1 0 4.22 -0.09 0.82 -0.09 0.55 -0.09 0.37 -0.09 0.55 -0.09 0.45 -0.1 0.28 -0.09 0.36 -0.09 0.46 -0.09 0.28 -0.09 0.36 -0.09 0.19 -0.09 0.45 -0.1 0.19 -0.09 0.46 -0.09 0.18 0 0.37 5.5 0.01zm-7.01 -5.24l-0.14 0.46 -0.09 0.37 -0.09 0.27 -0.09 0.28 -0.09 0.55 -0.1 0.36 -0.09 0.28 -0.09 0.46 -0.09 0.55 -0.09 0.27 -0.19 0.55 -0.09 0.37 -0.04 0.36 -13.65 0 0 -15.38 14.33 0.09 0.19 0.45 0.09 0.46 0.09 0.55 0.09 0.92 0.09 0.55 0.1 1.65 0 4.94 -0.05 0.64zm-15.11 -22.53l0.09 -0.37 0.18 -0.04 0.28 -0.18 0.36 -0.19 1.2 0 0.82 0.09 0.27 0.1 0.28 0.09 0.27 0.09 0.28 0.09 0.18 0.05 0 0.18 0.28 0.04 0.27 0.1 0.27 0.09 0.28 0.09 0.18 0.09 0.28 0.18 0.18 0.05 0 0.18 0.28 0.14 0.22 0.14 0.05 0.18 0.37 0.23 0.73 0.64 2.15 2.06 0.55 0.64 0.05 0.19 0.18 0 0 0.18 0.18 0 0 0.18 0.19 0 0.23 0.37 0.04 0.18 0.18 0 0.1 0.32 0.32 0.23 0.18 0.37 0.09 0.18 0.19 0.28 0.04 0.27 0.18 0 0 0.28 0.19 0 0.13 0.27 0.19 0.28 0.09 0.18 0.09 0.27 0.09 0.19 0.05 0.18 -13.1 0 -0.04 -0.27 -0.1 -5.23 -0.04 -3.66zm22.12 87.39l-48.66 -0.09 0 -3.02 48.16 -0.05 0.5 0 0 3.16z"/>
 </g>
</svg>
