<?xml version="1.0" encoding="UTF-8"?>
<!DOCTYPE svg PUBLIC "-//W3C//DTD SVG 1.1//EN" "http://www.w3.org/Graphics/SVG/1.1/DTD/svg11.dtd">
<!-- Creator: CorelDRAW 2017 -->
<svg xmlns="http://www.w3.org/2000/svg" xml:space="preserve" width="500px" height="500px" version="1.1" style="shape-rendering:geometricPrecision; text-rendering:geometricPrecision; image-rendering:optimizeQuality; fill-rule:evenodd; clip-rule:evenodd"
viewBox="0 0 500 500"
 xmlns:xlink="http://www.w3.org/1999/xlink">
 <defs>
  <style type="text/css">
   <![CDATA[
    .str0 {stroke:#E42558;stroke-width:25;stroke-miterlimit:22.9256}
    .fil1 {fill:#E42558}
    .fil3 {fill:#E68CA3}
    .fil2 {fill:#FCFEFD}
    .fil0 {fill:white}
   ]]>
  </style>
 </defs>
 <g id="Слой_x0020_1">
  <metadata id="CorelCorpID_0Corel-Layer"/>
  <circle class="fil0 str0" cx="250" cy="250" r="229.25"/>
  <path class="fil1" d="M200.94 120.54c56.16,27.83 131.51,62.9 193.34,92.05 27.57,14.51 30.6,56.03 -0.81,72.29l-202.35 98.55c-35.33,12.89 -61.65,4.29 -66.6,-35.08 0,0 -0.1,-190.43 -0.1,-190.43 -1.03,-45.6 35.42,-57.75 76.52,-37.38z"/>
  <path class="fil2" d="M184.72 246.22c3.02,-3.92 9.44,-5.95 15,-3.91 3.74,1.37 6.93,4.79 8.13,8.59 5.29,28.7 -38.25,20.88 -23.13,-4.68zm0.1 -10.31c-1.99,2.49 -10.83,5.4 -11.01,20.41l0.07 29.36c0.69,1.99 -0.77,0.47 1.19,1.63l6.47 -3.26 0.05 -12.44c2.15,1.01 3.34,2.24 6.28,3.3 2.81,1 5.76,1.26 8.97,1.16 5.03,-0.57 6.31,-2.09 9.91,-3.09 1.4,-1.84 3.25,-2.4 5.14,-5.16 0.7,-1.02 3.41,-6.36 3.49,-6.44 0.39,-2.35 0.83,-4.03 0.81,-6.58 -0.06,-8.33 -4.7,-14.92 -11.76,-19.15l-3.04 -1.12c-3.01,-0.49 -6.04,-1.05 -9.31,-0.6 -2.63,0.35 -5.47,1.88 -7.26,1.98z"/>
  <path class="fil2" d="M270.52 242.13c8.22,-2.72 14.79,3.14 16.51,9.06 2.39,8.22 -3.26,14.94 -9.29,16.68 -15.94,4.61 -25.3,-19.77 -7.22,-25.74zm-9.65 -3.71c-6.73,6.22 -4.57,6.26 -6.96,8.92 0.03,3.39 -1.45,5.6 -0.81,10.39 0.5,3.78 2.11,6.11 3.06,8.97 2.05,1.68 3.66,6.01 11.94,8.55 9.17,2.64 13.4,-0.52 19.42,-3.61l0.06 4.38 7.71 0.03c0,-14.74 3.71,-35.66 -13.9,-40.87 -6.09,-3.96 -16.45,-0.07 -20.52,3.24z"/>
  <path class="fil2" d="M339.35 276.06c2.03,-0.37 0.72,0.26 1.15,-1.01l0.15 -21.77c1.08,-7.41 6.3,-11.9 14.64,-11.81 4.02,0.78 5.98,1.81 8.39,4.15 1.14,1.38 1.5,1.57 2.18,3.61 2.7,2.85 1.59,21.55 1.59,26.8l5.25 0.04 2.45 0.24c0,-6.33 0.02,-12.66 0.01,-18.98 0,-3.07 -0.04,-5.44 -0.89,-8.35 -0.71,-2.44 -2.16,-4.32 -2.56,-6.33 -0.72,-0.52 -0.42,-0.24 -1.23,-0.99 -0.69,-0.64 -0.41,-0.41 -1.01,-1.06 -0.76,-0.83 -1.3,-1.22 -1.52,-2.04 -1.67,-0.9 -5.58,-2.9 -7.09,-3.88 -4.18,-0.73 -5.48,-1.08 -10.12,-0.82l-0.51 0.25c-4.81,0.84 -6.28,2.28 -9.73,4.06l0 -12.58c-2.34,-1.05 -5.84,-3.29 -8.1,-3.29 1.03,2.85 0.34,46.41 0.34,53.52l6.61 0.24z"/>
  <path class="fil2" d="M221.09 258.34c0.85,3.48 1.89,6.57 3.93,8.98 1.97,3.25 2.89,2.88 4.26,4.9 1.65,0.24 2.65,1.63 6.12,2.74 2.58,0.83 5.3,1.21 8.19,0.98 4.06,-0.37 8.99,-1.93 11.3,-4.43 -1.47,-1.72 -4.36,-5.92 -4.36,-5.92 -5.01,2.84 -15.38,6.72 -21.4,-7.12 -1.05,-2.42 -0.48,-29.69 -0.54,-32.88l-2.9 -1.61 -4.79 -1.79 0.19 36.15z"/>
  <path class="fil2" d="M309.1 265.91l-1.9 -2.87 -7.13 0c-0.37,3.29 1.43,6.45 3.46,8.48 0.23,0.26 1.41,1.22 1.69,1.44 0.26,0.19 1.21,0.73 1.69,1.02 3.26,1.47 5.35,1.81 9.4,1.6 3.55,-1.12 6.25,-1.51 8.92,-4.27 5.62,-6.39 2.36,-14.04 -4.1,-17.26 -3.61,-1.9 -12.77,-4.97 -13.47,-8.87 0.95,-8.01 11.12,-5.13 12.84,0.63 2.36,0.75 5.14,0.42 7.65,0.39l-0.35 -2.4c-0.47,-5.45 -6.8,-9.9 -13.5,-10.01 -7.75,-0.12 -11.92,3.9 -14.26,9.37 -0.64,8.46 3.32,10.29 8.98,13.35 2.5,1.36 4.63,2.31 7.05,3.61 1.84,1.05 4.67,1.77 3.45,5.64 -0.68,2.07 -7.57,4.44 -10.42,0.15z"/>
  <path class="fil3" d="M320.5 245.81c0.56,1.43 1.49,0.96 3.4,0.95 1.55,-0.01 2.95,0 4.49,-0.14 0.25,-1.86 0.47,-1.61 -0.59,-2.82l0.35 2.4c-2.51,0.03 -5.29,0.36 -7.65,-0.39z"/>
  <path class="fil2" d="M148.32 265.91l-1.9 -2.87 -7.13 0c-0.38,3.29 1.42,6.45 3.45,8.48 0.23,0.26 1.41,1.22 1.69,1.44 0.26,0.19 1.21,0.73 1.69,1.02 3.27,1.47 5.35,1.81 9.4,1.6 3.55,-1.12 6.25,-1.51 8.92,-4.27 5.62,-6.39 2.36,-14.04 -4.1,-17.26 -3.6,-1.9 -12.77,-4.97 -13.47,-8.87 0.95,-8.01 11.12,-5.13 12.85,0.63 2.35,0.75 5.14,0.42 7.64,0.39l-0.35 -2.4c-0.47,-5.45 -6.8,-9.9 -13.5,-10.01 -7.75,-0.12 -11.91,3.9 -14.26,9.37 -0.64,8.46 3.33,10.29 8.98,13.35 2.5,1.36 4.63,2.31 7.06,3.61 1.83,1.05 4.66,1.77 3.44,5.64 -0.68,2.07 -7.57,4.44 -10.41,0.15z"/>
 </g>
</svg>
