<?xml version="1.0" encoding="UTF-8"?>
<!DOCTYPE svg PUBLIC "-//W3C//DTD SVG 1.1//EN" "http://www.w3.org/Graphics/SVG/1.1/DTD/svg11.dtd">
<!-- Creator: CorelDRAW 2017 -->
<svg xmlns="http://www.w3.org/2000/svg" xml:space="preserve" width="500px" height="500px" version="1.1" style="shape-rendering:geometricPrecision; text-rendering:geometricPrecision; image-rendering:optimizeQuality; fill-rule:evenodd; clip-rule:evenodd"
viewBox="0 0 500 500"
 xmlns:xlink="http://www.w3.org/1999/xlink">
 <defs>
  <style type="text/css">
   <![CDATA[
    .str1 {stroke:#A4C2DD;stroke-width:2;stroke-miterlimit:22.9256}
    .str0 {stroke:#0F7699;stroke-width:25;stroke-miterlimit:22.9256}
    .fil28 {fill:none}
    .fil0 {fill:#2DB8C2}
    .fil22 {fill:#3A3E44}
    .fil13 {fill:#3A597F}
    .fil2 {fill:#3E6094}
    .fil21 {fill:#4B4E52}
    .fil4 {fill:#4F77AA}
    .fil19 {fill:#576370}
    .fil1 {fill:#6094C5}
    .fil26 {fill:#624E37}
    .fil25 {fill:#717A88}
    .fil27 {fill:#8A8C8E}
    .fil23 {fill:#906D4C}
    .fil16 {fill:#98A2AF}
    .fil5 {fill:#A1561A}
    .fil10 {fill:#A1B2CC}
    .fil8 {fill:#A4C2DD}
    .fil9 {fill:#ABADB3}
    .fil14 {fill:#B0554E}
    .fil6 {fill:#B36825}
    .fil24 {fill:#B38954}
    .fil11 {fill:#CE8D33}
    .fil12 {fill:#D49A45}
    .fil17 {fill:#D5A976}
    .fil20 {fill:#E68E87}
    .fil7 {fill:#F6B753}
    .fil3 {fill:#F8D17E}
    .fil15 {fill:#FAFAFA}
    .fil18 {fill:#FBD4AC}
   ]]>
  </style>
 </defs>
 <g id="Слой_x0020_1">
  <metadata id="CorelCorpID_0Corel-Layer"/>
  <circle class="fil0 str0" cx="250" cy="250" r="225.5"/>
  <polygon class="fil1" points="327.59,97.28 153.5,125.5 97.5,200.5 121,384 366.32,345.38 "/>
  <path class="fil1" d="M83.5 224l23.98 171.86c0.2,0.06 0.12,0.11 0.81,0.15l93.89 -13.15c15.78,-2.23 31.55,-4.49 47.28,-6.67 7.93,-1.1 15.74,-2.16 23.65,-3.31l23.64 -3.38 0.24 -1c0.18,-2.08 4.24,-8.68 5.42,-10.92 0.95,-1.82 1.78,-3.35 2.75,-5.19 0.79,-1.49 2.23,-3.89 2.71,-5.42l-44.91 6.5c-15.04,2.1 -30.12,4.2 -45.14,6.34 -29.85,4.26 -60.35,8.25 -90.33,12.7 -0.08,1.44 0.28,2.96 0.49,4.42 0.56,3.93 0.66,2.74 0.21,4.27 -0.03,0.08 -0.07,0.21 -0.13,0.31l-1.38 0.15c-1.15,-1.58 -0.77,-6.3 -1.73,-8.76 -2.65,0.2 -7.41,1.43 -8.8,0.76l-0.25 -1.82 8.87 -1.25c-1.41,-12.12 -3.63,-24.57 -5.12,-36.6 -1.51,-12.13 -3.36,-24.6 -5.17,-36.71l-7.54 -54.56c-0.39,-3.06 -4.46,-38.78 -5.52,-40.25 -0.94,-2.46 -13.11,6.53 -17.92,21.53z"/>
  <path class="fil2" d="M174.88 104.07l-4.31 3.11c-0.98,0.74 -1.23,0.77 -2.08,1.72 -0.79,0.89 -0.89,1.04 -1.89,1.87 1.27,-0.67 2.79,-2.19 5.2,-3.19 1.56,-0.64 4.3,-1.81 6.04,-1.31 2.12,0.62 1.86,4.93 -1.04,6.25 -1.58,0.72 -0.83,-0.09 -1.82,1.39 -0.84,1.26 -1,0.94 -1.83,2 -0.25,0.33 -0.04,0.14 -0.44,0.62 -0.07,0.08 -0.27,0.33 -0.35,0.4 -0.69,0.69 -0.27,0.27 -1.03,0.75 -0.06,0.04 -0.16,0.08 -0.22,0.12l-2.84 4c-0.66,0.76 -0.77,1.52 -1.26,2.45 -0.7,1.34 -0.96,1.11 -1.27,2.13 12.6,-2.38 26.18,-3.87 39.1,-5.67l78.79 -11.08c13.02,-1.82 26.57,-4.08 39.72,-5.56l-1.22 -8.95 1.9 -0.14 1.38 8.76 8.94 -1.22 0.14 1.9 -8.77 1.39 4.7 32.71c1.6,-0.75 14.66,-2.37 17.29,-2.59l-3.33 -26.6 2.12 -0.04c0.83,0.14 -0.02,-0.22 0.69,0.24l-3.14 -22.74c-0.11,-2.06 -0.84,-4.56 -1.01,-6.56l-126.3 17.82c-7.14,1.05 -13.92,1.96 -20.91,2.93 -3.58,0.5 -18.48,2.36 -20.95,3.09z"/>
  <path class="fil3" d="M357.92 282.07c0.32,-1.25 3.35,-6.78 4.14,-7.81l1.83 0.79 -1.55 3.27c1.35,0.39 6.54,3.08 7.78,4.12l-0.71 1.8c-2.83,-0.93 -5.36,-2.99 -8.05,-4.06l-1.75 2.91 -1.69 -1.02zm15.43 -14.12c3.63,2.7 1.41,6.99 -0.93,10.07 -1.79,-0.4 -5.73,-3.06 -7.71,-3.86l-2.11 -0.93c0.42,-1.56 2.69,-5.84 3.51,-6.46 2.01,-1.52 6,-0.7 7.24,1.18zm-76.35 128.05c0.24,2.5 0.85,1.95 1.11,3.88l1.35 0.73 1.27 0.72c0.32,-1.51 2.13,-4.07 3.01,-5.48l5.53 -10.98c1.28,-2.68 2.64,-4.26 2.78,-5.38 -1.59,-0.73 -1.04,-0.1 -2.13,-1.4 -1.58,-1.87 -2.4,-4.34 -3.62,-6.19l21.75 -40.23c1.33,-3.67 12.88,-22.24 13.95,-26.08l16.55 -0.02c-1.19,2.56 -13.12,25.8 -14.04,26.41 -0.42,1.81 -10.44,20.49 -12.14,23.74 -2.08,3.94 -4.1,7.88 -6.16,11.78 -2,3.78 -4.06,8.26 -6.23,11.81 0.19,0.15 0.65,0.37 1.08,0.51l24.67 -46.19c1.06,-2.72 3.41,-6.83 4.88,-9.43 1.7,-3.04 3.33,-6.16 4.91,-9.27 1.64,-3.23 3.31,-6 4.98,-9.17 1.64,-3.09 3.15,-6.16 4.92,-9.28 1.73,-3.06 3.27,-6.26 4.9,-9.28 2.23,-4.14 13.66,-24.9 14.42,-27.66l-7.67 -3.9c-2.43,-1.38 -5.09,-2.77 -7.76,-4.03 -2.73,2.4 -25.9,47.79 -29.55,54.84l-9.05 17.2c-0.39,0.61 -0.01,0.06 -0.42,0.53l-0.31 0.26c-1.03,2.9 -15.99,30.24 -18.98,36.14l-6.41 11.54c1.27,0.15 0.28,-0.17 0.59,0.5 0.06,1.28 -3.62,2.87 -3.99,2.97 -0.79,0.23 -1.9,-1.14 -2.69,-1.09 -0.18,1.35 -0.65,5.79 -0.39,6.55 1.74,-0.65 -1.42,-1.6 1.89,-3.05 1.52,2.07 -0.29,1.8 -1.05,6.38 -0.3,1.76 -0.78,1.67 -1.08,2.12 -1.69,2.47 -1.37,5 -0.87,9.5z"/>
  <path class="fil1" d="M338.01 193.38l9.57 67.3c0.21,1.62 0.74,8.37 1.37,9.41 1.61,-3.66 4,-7.43 5.87,-11.13 1.75,-3.45 4.49,-7.81 5.82,-11.36l-1.3 -0.05c0.28,-1.68 1.57,-3.42 2.52,-5.01 2.79,-4.71 0,-3.23 3.42,-3.73l-9.11 -65.19c-1.58,-0.3 -1.1,0.03 -2.69,0.16l2.21 16.98 -17.68 2.62z"/>
  <path class="fil4" d="M330.42 138.52l7.59 54.86 17.68 -2.62 -2.21 -16.98c1.59,-0.13 1.11,-0.46 2.69,-0.16l-8.98 -64.09c-0.71,-0.46 0.14,-0.1 -0.69,-0.24l-2.12 0.04 3.33 26.6c-2.63,0.22 -15.69,1.84 -17.29,2.59z"/>
  <path class="fil5" d="M321.06 379.82l0.14 1.13c0.87,0.96 1,3.1 1.37,4.49 1.49,0.83 2.54,0.57 4.61,0.3 1.89,-0.95 5.36,-8.16 6.59,-10.63 0.96,-1.9 1.99,-3.64 3,-5.64 0.85,-1.66 2.93,-4.97 3.47,-6.62l-3.74 0.15c1.51,-1.59 -1.15,1.27 0.5,-2 1.58,-3.13 2.31,-4.05 3,-7 0.47,-2.01 0.82,-0.67 2,-3l4.5 -10.5c0.05,-0.09 0.22,-0.33 0.27,-0.42 1.32,-2.2 0.41,-1.85 2.23,-5.58 -1.32,-2.21 0.43,1.48 -3.27,-0.87l-24.67 46.19z"/>
  <path class="fil6" d="M384.74 259.54c-0.76,2.76 -12.19,23.52 -14.42,27.66 -1.63,3.02 -3.17,6.22 -4.9,9.28 -1.77,3.12 -3.28,6.19 -4.92,9.28 -1.67,3.17 -3.34,5.94 -4.98,9.17 -1.58,3.11 -3.21,6.23 -4.91,9.27 -1.47,2.6 -3.82,6.71 -4.88,9.43 3.7,2.35 0.43,-1.23 1.74,0.97 -1.82,3.73 -0.43,2.57 -1.75,4.77 -0.05,0.08 -0.22,0.32 -0.27,0.41l-5.02 9.82c-1.19,2.33 -1.66,1.36 -2.13,3.37 -0.7,2.95 -1.98,4.38 -3.57,7.51 -1.65,3.27 0.26,2.08 -1.25,3.67l6.25 -0.55 0.25 -0.33c3.68,-6.06 12.78,-23.93 16.81,-31.51 1.19,-2.22 15.86,-30.55 17,-31.63l18.27 -34.32 0.5 -1.37c-1.18,-1.5 -5.47,-5.2 -7.43,-5.53l-0.39 0.63z"/>
  <path class="fil7" d="M327.5 331.5l-21.2 40.4c1.22,1.85 2.04,4.32 3.62,6.19 1.09,1.3 0.54,0.67 2.13,1.4 2.78,0.68 5.1,-0.22 7.93,-0.18 2.17,-3.55 4.23,-8.03 6.23,-11.81 2.06,-3.9 4.08,-7.84 6.16,-11.78 9,-17.09 18.82,-33.7 26.95,-51.27l-17.32 -0.95c-1.07,3.84 -13.16,24.33 -14.5,28z"/>
  <path class="fil1" d="M361.65 337.39l5.72 -0.94 0.19 1.95c-1.69,1.43 -6.65,1.17 -9.11,1.29l1.58 9.3 -2.25 0.15c-0.17,-1.4 -0.34,-4.65 -0.9,-5.7 -0.19,2.45 -1.48,3.13 -2.06,4.27 -0.62,1.2 -0.17,1.33 -1.5,3.37l-3.53 7.88c-1.69,1.75 -2.65,-0.45 -3.86,3.65l35.87 -5.14c0.57,-1.53 -5.99,-42.58 -6.58,-48.13l-1.01 1.5c-1.96,3.73 -0.43,4.01 -3.79,9.32 -0.72,1.14 -1.25,2.27 -1.75,3.44 -0.76,1.77 -1.67,2.44 -2.65,4.95 -1.13,2.91 -1.62,2.2 -2.77,5.18 -1.1,2.87 -1.35,1.83 -1.6,3.66z"/>
  <path class="fil8" d="M106.94 242.72l7.54 54.56c1.81,12.11 3.66,24.58 5.17,36.71 1.49,12.03 3.71,24.48 5.12,36.6l-8.87 1.25 0.25 1.82c1.39,0.67 6.15,-0.56 8.8,-0.76 0.96,2.46 0.58,7.18 1.73,8.76l1.38 -0.15c0.06,-0.1 0.1,-0.23 0.13,-0.31 0.45,-1.53 0.35,-0.34 -0.21,-4.27 -0.21,-1.46 -0.57,-2.98 -0.49,-4.42 29.98,-4.45 60.48,-8.44 90.33,-12.7 15.02,-2.14 30.1,-4.24 45.14,-6.34l44.91 -6.5 1.21 -1.84c-6.45,0 -36.93,4.74 -45.56,5.96 -15.15,2.15 -30.31,4.24 -45.45,6.38 -15.12,2.13 -30.32,4.19 -45.44,6.39 -7.71,1.12 -15.08,2.1 -22.75,3.2 -7.56,1.08 -15.33,2.33 -22.81,3.2l-20.48 -144.46c-0.29,-3.79 -3.27,-23.79 -4.59,-23.8 -0.84,1.31 4.31,35.75 4.94,40.72z"/>
  <path class="fil9" d="M87.44 213.98c-0.45,1.53 -1.53,3.37 -2.16,4.92 -0.78,1.93 -1.24,3.49 -1.55,5.76 0.86,-0.88 1.49,-3.12 2.01,-4.32 0.68,-1.59 1.43,-3.04 2.19,-4.35 1.41,-2.43 3.73,-5.94 5.67,-7.19 0.92,-1.37 2.13,-2.2 3.4,-3.41 0.83,-0.8 1.15,-0.89 1.93,-1.52 1.23,-0.99 1.01,-1.19 2.49,-1.4l-0.16 -0.51c0.07,-1.08 0.75,-1.81 1.75,-3.01l5.38 -6.72c3.62,-4.68 -0.73,-1.9 4.59,-5.08 1.15,-0.69 4.11,-4.58 4.65,-6.35 0.04,-0.02 0.13,-0.01 0.14,-0.01l0.81 -0.13c0.19,-2.1 0.65,-1.97 1.56,-2.62 0.05,-0.03 0.72,-0.61 0.74,-0.62 0.05,-0.05 0.11,-0.13 0.16,-0.18l1.04 -1.33c2.06,-4.22 0.19,-0.7 2.22,-3.7l0.36 -0.66c1.53,-3.18 1.59,-1.14 3,-3.22l0.77 -1.64c0.04,-0.07 0.08,-0.17 0.13,-0.23 0.04,-0.07 0.1,-0.16 0.14,-0.22l2.07 -3.47c0.41,-0.55 0.68,-0.78 1.1,-1.32l3.79 -5.2c0.03,-0.07 0.09,-0.16 0.12,-0.22l0.68 -0.91c0.69,0.23 0.48,0.22 0.79,-0.07 0.68,-0.64 1.1,-2.68 2.37,-3.83 1.47,-1.35 2.75,-3.24 3.01,-5.27 0.76,0.23 0.57,0.35 0.86,0.25l1.13 -1.35c2.1,-3.82 0.56,-0.5 2.19,-3.01 0.51,-0.79 0.7,-1.18 1.23,-1.89l3.14 -4.13c2.36,-3.91 1.4,-0.05 1.96,-1.14 1.29,-0.41 -0.04,0.27 0.94,-0.75l1.4 -1.36 0.09 0.83c1.43,-1.65 0.04,-2.56 1.87,-4.1 0,-1.28 0.53,-1.58 0.26,-2.42 1.53,-6.12 5.88,-13.09 8.9,-16.11 1,-0.83 1.1,-0.98 1.89,-1.87 0.85,-0.95 1.1,-0.98 2.08,-1.72l4.31 -3.11c-5.33,0.38 -13.75,7.6 -16.4,11.06l-4.26 5.08c-3.87,4.79 -6.87,9.59 -10.31,14.23 -4.87,6.56 -9.61,14.21 -15.4,21.92 -12.92,17.21 -24.84,31.86 -36.59,49.81 -1.04,1.59 -4.46,6.2 -4.48,7.81zm13.82 -12.02l2.05 -1.07c2.04,-2.6 11.73,-5.06 13.25,-6.77l-0.7 -0.08c0.4,-1.67 0.84,-2.65 1.98,-3.77 3.49,-3.41 -0.92,1.81 2.1,-2.38l1.61 -1.85c1.7,-1.87 3.03,-3.5 4.37,-5.98l1.03 -2.45c0.84,-2.39 1.9,-2.22 3.28,-4.32 1.03,-1.56 0.57,-1.23 2.66,-3.22 0.73,-0.69 1.17,-0.81 1.72,-1.71l1.37 -2.11c0.06,-0.08 0.24,-0.31 0.31,-0.38 1.28,-1.45 2.18,-2.64 3.4,-2.82 -0.14,-0.58 -0.3,-0.51 -0.17,-1.22 0.27,-1.46 -0.08,-0.06 0.59,-1.1 0.04,-0.07 0.1,-0.15 0.14,-0.21 0.04,-0.07 0.1,-0.15 0.14,-0.22 0.67,-1.13 0.11,-0.78 1.2,-1.58 1.39,-1.02 2.14,-2.05 2.74,-4.19 0.03,-0.01 0.1,-0.01 0.11,0.03l1.04 -0.53c2.99,-3.07 2.43,-1.2 3.75,-4.55 0.24,-0.61 0.65,-1.34 1.03,-1.78 0.5,-0.58 0.15,-0.21 0.73,-0.67l1.36 -1.05c1.6,-1.53 0.35,-2.23 2.01,-2.93l1.21 -9.65 -0.09 -0.83 -1.4 1.36c-0.98,1.02 0.35,0.34 -0.94,0.75 -0.56,1.09 0.4,-2.77 -1.96,1.14l-3.14 4.13c-0.53,0.71 -0.72,1.1 -1.23,1.89 -1.63,2.51 -0.09,-0.81 -2.19,3.01l-1.13 1.35c-0.29,0.1 -0.1,-0.02 -0.86,-0.25 -0.26,2.03 -1.54,3.92 -3.01,5.27 -1.27,1.15 -1.69,3.19 -2.37,3.83 -0.31,0.29 -0.1,0.3 -0.79,0.07l-0.68 0.91c-0.03,0.06 -0.09,0.15 -0.12,0.22l-3.79 5.2c-0.42,0.54 -0.69,0.77 -1.1,1.32l-2.07 3.47c-0.04,0.06 -0.1,0.15 -0.14,0.22 -0.05,0.06 -0.09,0.16 -0.13,0.23l-0.77 1.64c-1.41,2.08 -1.47,0.04 -3,3.22l-0.36 0.66c-2.03,3 -0.16,-0.52 -2.22,3.7l-1.04 1.33c-0.05,0.05 -0.11,0.13 -0.16,0.18 -0.02,0.01 -0.69,0.59 -0.74,0.62 -0.91,0.65 -1.37,0.52 -1.56,2.62l-0.81 0.13c-0.01,0 -0.1,-0.01 -0.14,0.01 -0.54,1.77 -3.5,5.66 -4.65,6.35 -5.32,3.18 -0.97,0.4 -4.59,5.08l-5.38 6.72c-1,1.2 -1.68,1.93 -1.75,3.01zm15.3 -7.84c1.68,-0.01 6.84,-1.94 9.16,-2.54 11.36,-2.91 19.16,-3.6 30.58,-5.35 -0.25,-6.4 -1.71,-13.6 -2.09,-20.43 -0.41,-7.48 -0.72,-15.31 0.15,-22.75 -1.66,0.7 -0.41,1.4 -2.01,2.93l-1.36 1.05c-0.58,0.46 -0.23,0.09 -0.73,0.67 -0.38,0.44 -0.79,1.17 -1.03,1.78 -1.32,3.35 -0.76,1.48 -3.75,4.55l-1.04 0.53c-0.01,-0.04 -0.08,-0.04 -0.11,-0.03 -0.6,2.14 -1.35,3.17 -2.74,4.19 -1.09,0.8 -0.53,0.45 -1.2,1.58 -0.04,0.07 -0.1,0.15 -0.14,0.22 -0.04,0.06 -0.1,0.14 -0.14,0.21 -0.67,1.04 -0.32,-0.36 -0.59,1.1 -0.13,0.71 0.03,0.64 0.17,1.22 -1.22,0.18 -2.12,1.37 -3.4,2.82 -0.07,0.07 -0.25,0.3 -0.31,0.38l-1.37 2.11c-0.55,0.9 -0.99,1.02 -1.72,1.71 -2.09,1.99 -1.63,1.66 -2.66,3.22 -1.38,2.1 -2.44,1.93 -3.28,4.32l-1.03 2.45c-1.34,2.48 -2.67,4.11 -4.37,5.98l-1.61 1.85c-3.02,4.19 1.39,-1.03 -2.1,2.38 -1.14,1.12 -1.58,2.1 -1.98,3.77l0.7 0.08z"/>
  <path class="fil10" d="M165.74 126.38c-1.44,0.16 -3.09,0.43 -4.48,0.67 -0.52,0.09 -1.82,0.35 -2.16,0.35 -1.25,0.02 -1.93,0.71 -1.4,-0.52 0.27,0.84 -0.26,1.14 -0.26,2.42 1.62,-0.56 9.62,-1.49 11.52,-1.24 1.14,-0.9 4.43,-0.87 6.15,-1.11 2.09,-0.29 4.17,-0.61 6.27,-0.86l1.49 -0.19 140.79 -19.79 4.54 32.59c0.3,4.06 1.41,9.58 1.99,13.84l3.69 26.91c0.53,3.71 1.8,10.29 1.7,13.72 0.9,1.17 5.11,35.14 5.8,39.95l5.83 39.9 1.74 -2.93c-0.63,-1.04 -1.16,-7.79 -1.37,-9.41l-9.57 -67.3 -7.59 -54.86 -4.7 -32.71 8.77 -1.39 -0.14 -1.9 -8.94 1.22 -1.38 -8.76 -1.9 0.14 1.22 8.95c-13.15,1.48 -26.7,3.74 -39.72,5.56l-78.79 11.08c-12.92,1.8 -26.5,3.29 -39.1,5.67z"/>
  <path class="fil11" d="M309.08 345.13l-1.21 1.84c-0.48,1.53 -1.92,3.93 -2.71,5.42 -0.97,1.84 -1.8,3.37 -2.75,5.19 -1.18,2.24 -5.24,8.84 -5.42,10.92 0.58,1.68 1.3,3.45 2.18,4.73 2.37,0.41 3.18,-0.92 5.42,-1.11l6.41 -11.54c2.99,-5.9 17.95,-33.24 18.98,-36.14l-1.11 0.14c0.36,-0.04 0.52,0.16 0.35,-0.45 -0.38,-1.4 0.75,0.43 -0.69,-0.93 0.86,0.85 2.86,1.28 1.61,1.11 0.86,-1.43 -1.33,-3 -0.14,-4.31 4.58,-4.06 5.84,-9.02 4,-12 0.24,-1.03 -0.75,0.13 0,-1l-4.6 0 -20.32 38.13z"/>
  <path class="fil12" d="M348.95 270.09l-1.74 2.93 -17.81 33.98 3.5 0.45c-0.75,1.12 0.01,0.1 -0.23,1.13 -0.29,1.26 -0.54,0.72 -0.92,2.73l-0.47 1.16 1.46 0.36c-1.19,2.53 -2.14,5.09 -3.83,6.95 -1.19,1.31 -1.01,3.02 -1.87,4.45 1.25,0.18 1.13,-0.17 1.49,-1.03 1.44,1.36 0.31,-0.47 0.69,0.93 0.17,0.61 0.01,0.41 -0.35,0.45l1.11 -0.14 0.31 -0.26c0.41,-0.47 0.03,0.08 0.42,-0.53l9.05 -17.2c3.65,-7.05 26.82,-52.44 29.55,-54.84 2.67,1.26 5.33,2.65 7.76,4.03l7.67 3.9 0.39 -0.63c-0.59,-0.73 -1.27,-1.02 -1.98,-1.78 -4.45,-2.06 -8.55,-4.76 -13.6,-6.79 -1.91,-0.99 -6.45,-2.78 -8.91,-2.74 -1.33,3.55 -4.07,7.91 -5.82,11.36 -1.87,3.7 -4.26,7.47 -5.87,11.13z"/>
  <path class="fil4" d="M339.98 363.27l5.95 -0.66c1.21,-4.1 2.17,-1.9 3.86,-3.65l3.53 -7.88c1.33,-2.04 0.88,-2.17 1.5,-3.37 0.58,-1.14 1.87,-1.82 2.06,-4.27 0.14,-1.66 -0.02,-1.62 -0.3,-2.94 -0.31,-1.49 0.46,-1.49 1.03,-3.78l0.77 0.93c0.04,-0.07 0.14,0.16 0.22,0.26l3.05 -0.52c0.25,-1.83 0.5,-0.79 1.6,-3.66 1.15,-2.98 1.64,-2.27 2.77,-5.18 0.98,-2.51 1.89,-3.18 2.65,-4.95 0.5,-1.17 1.03,-2.3 1.75,-3.44 3.36,-5.31 1.83,-5.59 3.79,-9.32l1.01 -1.5 -1.43 -9.21c-1.14,1.08 -15.81,29.41 -17,31.63 -4.03,7.58 -13.13,25.45 -16.81,31.51z"/>
  <path class="fil13" d="M93.6 208.8c-2.1,2.7 -10.89,12.43 -9.33,20.74 6,-3.5 6.71,-2.77 11.13,-5.71 1.06,-0.7 0.72,-0.92 1.94,-1.52 0.08,-0.04 0.56,-0.22 0.74,-0.3l4.6 -2.62c1.93,-1.69 -2.67,-15.14 -1.26,-16.92 -1.48,0.22 -1.26,0.41 -2.49,1.4 -0.78,0.62 -1.1,0.72 -1.94,1.52 -1.26,1.21 -2.47,2.03 -3.39,3.41z"/>
  <path class="fil14" d="M391.08 218.43c0.5,0.44 6.45,3.54 7.34,3.9l2.73 -4.86c1.6,-2.31 1.93,-4.75 3.41,-6.84 2.46,-0.05 3.94,0.84 6.29,1.94l1.78 0.97c0.06,0.04 0.14,0.1 0.2,0.14l2.59 2.89c0.46,0.79 0.36,1.16 0.88,1.81 0.43,-2.8 0.28,-4.19 -0.35,-6.82 -0.59,-2.71 -3.06,-6.06 -4.82,-7.6 -1.22,-1.06 -2.07,-1.77 -3.52,-2.7 -1.6,-1.03 -2.76,-1.36 -4.45,-2.14 -0.61,4.16 0.5,3.36 -1.16,7.38l-6.5 -1c-0.29,0.59 -0.37,2.49 -0.5,3 -0.52,2.06 -0.08,1.34 -1,3l0.07 3.03c-0.88,2.3 -0.01,1.02 -1.48,1.52 -0.17,2.76 -0.61,1.64 -1.51,2.38zm7.34 3.9l0.98 0.6c1.32,0.45 1.57,1.02 2.72,1.79 0.97,0.65 1.95,1.27 2.91,1.92 2.04,1.39 3.93,2.86 5.62,4.23 1.4,-4.12 4.87,-7.62 5.65,-12.49 -0.52,-0.65 -0.42,-1.02 -0.88,-1.81l-2.59 -2.89c-0.06,-0.04 -0.14,-0.1 -0.2,-0.14l-1.78 -0.97c-2.35,-1.1 -3.83,-1.99 -6.29,-1.94 -1.48,2.09 -1.81,4.53 -3.41,6.84l-2.73 4.86z"/>
  <path class="fil13" d="M166.6 110.77c-3.02,3.02 -7.37,9.99 -8.9,16.11 -0.53,1.23 0.15,0.54 1.4,0.52 0.34,0 1.64,-0.26 2.16,-0.35 1.39,-0.24 3.04,-0.51 4.48,-0.67 0.31,-1.02 0.57,-0.79 1.27,-2.13 0.49,-0.93 0.6,-1.69 1.26,-2.45l2.84 -4c0.06,-0.04 0.16,-0.08 0.22,-0.12 0.76,-0.48 0.34,-0.06 1.03,-0.75 0.08,-0.07 0.28,-0.32 0.35,-0.4 0.4,-0.48 0.19,-0.29 0.44,-0.62 0.83,-1.06 0.99,-0.74 1.83,-2 0.99,-1.48 0.24,-0.67 1.82,-1.39 2.9,-1.32 3.16,-5.63 1.04,-6.25 -1.74,-0.5 -4.48,0.67 -6.04,1.31 -2.41,1 -3.93,2.52 -5.2,3.19z"/>
  <path class="fil15" d="M375.87 241.21l-1.57 -0.21c-1.36,0.99 -0.27,0.28 -0.71,1.05l-0.75 1.04c0.01,1.13 -2.44,5.8 -3.29,7.25 5.05,2.03 9.15,4.73 13.6,6.79 0.35,-0.54 2.68,-6.63 4.25,-8.13 0.54,-0.51 0.6,0.56 0.78,-1.07l-0.42 -0.25c-0.34,-0.26 -0.39,-0.27 -0.8,-0.72l-1.24 -1.02c0.63,-0.59 0.79,-1.22 0.96,-2.24 -1.43,-1.51 -5.73,-3.67 -8.04,-4.05 -1.4,1.5 -0.96,2.84 -2.77,1.56z"/>
  <path class="fil15" d="M384.79 219.47l-0.46 1.55 -2.35 5.4c0.97,0.87 5.31,2.56 6.63,3.22 1.88,0.94 4.31,2.85 6.38,3.07 0.62,-1.99 1.47,-3.11 2.29,-5.01 0.25,-0.57 -0.02,0.03 0.33,-0.72 0.05,-0.09 0.18,-0.38 0.23,-0.47 1.09,-2.22 1.99,-1.55 1.56,-3.58l-0.98 -0.6c-0.89,-0.36 -6.84,-3.46 -7.34,-3.9l-4.56 -1.69c-1.2,0.62 -0.12,-0.14 -0.71,1.27 -0.3,0.72 0.12,0.04 -0.36,0.79 -0.62,0.97 0.33,-0.06 -0.66,0.67z"/>
  <path class="fil15" d="M382.1 230.84l-2.23 -0.58c-0.65,0.58 -3.32,6.32 -3.44,7.36 5.06,1.42 10.43,5.4 12.58,5.91l3.86 -6.02c0.25,-0.51 0.18,0.51 0.27,-0.93l0.03 0.02c-0.69,-0.43 -0.68,-0.33 -1.05,-0.94 -1.67,-0.94 -0.46,0.47 0.11,-2.67 -1.01,-1.16 -2.42,-1.67 -3.95,-2.44 -1.38,-0.69 -2.69,-1.36 -4.11,-1.8 -0.39,0.34 -0.17,0.12 -0.53,0.57l-1.27 1.36c-0.04,-0.07 -0.18,0.12 -0.27,0.16z"/>
  <path class="fil16" d="M372.84 243.09c-0.99,0.42 -3.55,6.03 -3.63,6.3 -2.16,-0.27 -3.39,-1.18 -5.23,-1.79 0.12,-1.57 1.17,-3.27 2.04,-4.74 0.25,-0.42 0.21,-0.34 0.53,-0.85 0.42,-0.7 0.63,-0.96 0.87,-1.74l5.51 1.18 -0.09 1.64zm-7.56 -4.28c-3.42,0.5 -0.63,-0.98 -3.42,3.73 -0.95,1.59 -2.24,3.33 -2.52,5.01l1.3 0.05c2.46,-0.04 7,1.75 8.91,2.74 0.85,-1.45 3.3,-6.12 3.29,-7.25l0.75 -1.04c0.44,-0.77 -0.65,-0.06 0.71,-1.05l-0.53 -0.27c-0.28,-0.12 -0.54,-0.22 -0.81,-0.32l-4.02 -1.54c0.4,-1.48 0.51,-0.47 0.71,-2.03l-2.16 -0.95c0.91,-1.34 -0.03,-0.16 0.88,-0.74 2.1,-1.34 1.88,-3.71 3.7,-5.77 2.17,0.09 4.77,0.47 6.38,1.69 -0.74,2.39 -2.46,4.2 -3.11,7.1l1.7 1.07c-0.08,1.16 -0.32,1.49 -1.17,1.97 1.81,1.28 1.37,-0.06 2.77,-1.56 2.31,0.38 6.61,2.54 8.04,4.05 -0.17,1.02 -0.33,1.65 -0.96,2.24l1.24 1.02c1.15,-5.33 1.26,1.95 5.18,-6 0.87,-1.76 0.33,-2.41 2.05,-2.44l0 -1.7 -1.05 -0.24c-0.09,1.44 -0.02,0.42 -0.27,0.93l-3.86 6.02c-2.15,-0.51 -7.52,-4.49 -12.58,-5.91 0.12,-1.04 2.79,-6.78 3.44,-7.36l-0.8 -0.4c-1.17,-0.49 -2.72,-0.78 -3.99,-1.71 0.33,-1.34 0.34,-0.59 0.68,-1.73 -1.07,-0.56 -1.9,-0.95 -3.34,-1.08 -0.05,0.36 -0.51,1.51 -0.69,1.75 -1.75,2.3 -0.65,-1.72 -4.03,4.31 -3.05,5.43 0.15,2.76 -1.22,5.61 -0.27,0.56 -0.86,1.32 -1.2,1.8z"/>
  <path class="fil17" d="M310.83 379.02c-0.55,4.23 -10.73,21.95 -10.1,22.31 0.87,0.6 0.76,0.61 1.69,1.02 0.61,-1.01 2.43,-2.15 3.08,-3.01 3.24,-4.25 0.56,-0.69 3.17,-3.03 3.61,-3.23 1.23,-3.02 4.77,-5.92 0.95,-0.78 0.69,0.02 1.35,-1.12 1.06,-1.86 -0.62,-0.67 0.75,-2.65 1.54,-2.21 0.68,-0.76 2.6,-1.87 0.13,-1.79 -0.23,-1.05 -0.28,-2.74 2.87,-1.26 2.02,0.42 3.34,-1.06l-0.14 -1.13c-0.43,-0.14 -0.89,-0.36 -1.08,-0.51 -2.83,-0.04 -6.37,0.39 -9.15,-0.29z"/>
  <path class="fil18" d="M296.75 369.5l-4 30.01c1.86,-0.14 3.7,0.16 5.36,0.37 0.5,-4.38 3.3,-18.36 3.89,-23.38 0.37,-0.11 3.24,-2.6 3.18,-3.88 -0.31,-0.67 0.68,-0.35 -0.59,-0.5 -2.24,0.19 -3.05,1.52 -5.42,1.11 -0.88,-1.28 -1.6,-3.05 -2.18,-4.73l-0.24 1z"/>
  <path class="fil19" d="M392.12 235.66c0.37,0.61 0.36,0.51 1.05,0.94l0.93 -1.93c1.64,0.37 1.11,0.67 2.25,-0.54 0.89,-0.94 0.84,-0.99 1.46,-2.35 0.43,-0.97 0.81,-1.67 1.27,-2.54l1.46 -2.08c0.03,-0.13 0.14,-0.13 0.22,-0.19 2.2,0.56 4.97,2.59 4.16,5.22l-2.92 5.46c0.44,0.36 1.33,1.09 1.2,1.91 -0.01,0.06 -0.04,0.18 -0.07,0.23 -0.71,1.45 0.1,0.61 -2.47,-0.54 -0.37,1.27 -0.18,1.39 -1.29,1.44 -0.53,-1.04 -4.06,-2.91 -5.18,-3.87l0 1.7c-1.72,0.03 -1.18,0.68 -2.05,2.44 -3.92,7.95 -4.03,0.67 -5.18,6 0.41,0.45 0.46,0.46 0.8,0.72 0.12,-0.71 0.15,-1.01 0.21,-1.9 1.9,-1.19 1.85,1.17 3.63,-2.53 0.66,-1.37 1.55,-2.54 2.28,-4.04l3.12 2.07c2.55,1.83 3.61,3.69 5.14,4.5l-0.89 2.33c-1.57,3.08 -2.2,3.65 -0.58,4.92 0.81,-2.25 1.78,-3.35 2.79,-5.3 1.29,-2.48 0.17,-1.37 0.08,-3.02 -0.05,-0.98 0.76,-1.33 0.93,-2.87l1.66 0.09c-0.49,-1.22 0.45,-1.85 1.88,-4.45 2.04,-3.72 2.8,-4.72 -2.85,-8.95 -2.32,-1.74 -3.99,-3.43 -5.64,-1.54l-2.88 4.99c-1.54,2.49 -1.89,1.96 -2.71,2.09 -2.28,0.37 -0.52,0.47 -1.81,1.59z"/>
  <path class="fil20" d="M380.24 210.87c-0.43,1.21 -1.1,2.22 -1.58,3.11l3.58 1.01c0.71,-0.48 1.49,-0.3 2.62,-0.32 0.1,-3.35 0.91,0.01 2.48,-5.47l2.7 -5.23 6.57 -0.07 0.47 -1.4 -0.8 0.08 -0.36 -4.5c-4.72,0 -7.7,1.64 -10.12,4.06 -2.34,2.35 -2.8,3.44 -4.4,6.31 -1.24,2.24 -1.21,1.14 -1.16,2.42zm15.68 -12.79l0.36 4.5 0.8 -0.08 -0.47 1.4 -6.57 0.07 -2.7 5.23c-1.57,5.48 -2.38,2.12 -2.48,5.47 -1.13,0.02 -1.91,-0.16 -2.62,0.32l4.28 1.75 4.56 1.69c0.9,-0.74 1.34,0.38 1.51,-2.38 1.47,-0.5 0.6,0.78 1.48,-1.52l1.05 -2.41c0.92,-1.65 0.5,-0.77 1.02,-2.83 0.13,-0.51 0.67,-1.89 0.96,-2.47l5.9 0.06c1.66,-4.01 -0.45,-3.6 0.16,-7.76 -1.7,-0.41 -5.62,-1.79 -7.24,-1.04z"/>
  <path class="fil21" d="M387.76 247.68l0.42 0.25c1.92,0.5 4.3,3.27 6.56,4.24 0.25,-0.52 0.57,-1.23 0.83,-1.64 0.95,0.83 2.38,1.68 3.03,2.46l2.07 0.04c-1.62,-1.27 -0.99,-1.84 0.58,-4.92l0.89 -2.33c-1.53,-0.81 -2.59,-2.67 -5.14,-4.5l-3.12 -2.07c-0.73,1.5 -1.62,2.67 -2.28,4.04 -1.78,3.7 -1.73,1.34 -3.63,2.53 -0.06,0.89 -0.09,1.19 -0.21,1.9z"/>
  <path class="fil21" d="M371.73 224.05c0.39,0.9 0.11,0.26 0.41,0.82 0.3,0.58 0.18,0.42 0.2,0.34 0.01,-0.03 0.06,0.08 0.08,0.13 1.44,0.13 2.27,0.52 3.34,1.08 -0.34,1.14 -0.35,0.39 -0.68,1.73 1.27,0.93 2.82,1.22 3.99,1.71l0.8 0.4 2.23 0.58c0.15,-0.75 0.3,-1.46 0.76,-2.01l-2.07 -1.31 2.15 -5.09c0.64,-1.17 0.7,-1.06 1.39,-1.41l0.46 -1.55 0.01 -1.69c-1.71,-1.28 -3.35,-1.45 -6.16,-1.24 -5.02,6.09 -1.77,8.13 -6.91,7.51z"/>
  <path class="fil22" d="M393.17 236.6l-0.03 -0.02 1.05 0.24c1.12,0.96 4.65,2.83 5.18,3.87 1.11,-0.05 0.92,-0.17 1.29,-1.44 2.57,1.15 1.76,1.99 2.47,0.54 0.03,-0.05 0.06,-0.17 0.07,-0.23 0.13,-0.82 -0.76,-1.55 -1.2,-1.91l2.92 -5.46c0.81,-2.63 -1.96,-4.66 -4.16,-5.22 -0.08,0.06 -0.19,0.06 -0.22,0.19l-1.46 2.08c-0.46,0.87 -0.84,1.57 -1.27,2.54 -0.62,1.36 -0.57,1.41 -1.46,2.35 -1.14,1.21 -0.61,0.91 -2.25,0.54l-0.93 1.93z"/>
  <path class="fil23" d="M304.03 404.37l0.35 1.59 17.11 -15.16c1.65,-1.48 4.57,-3.62 5.69,-5.06 -2.07,0.27 -3.12,0.53 -4.61,-0.3l-2.08 1.22c-0.61,0.49 -0.28,0.08 -0.94,0.85 -0.19,0.23 -0.59,0.88 -0.71,1.09 -1.46,2.38 -2.22,0.73 -3.65,2.86 -2.84,4.2 -1.51,1.77 -2.88,3.33 -1.21,1.39 -0.04,0.7 -1.53,2.22 -1.05,1.07 -0.74,0.17 -0.9,2.24 0.09,-0.34 0.75,0.03 -0.43,-0.5l-0.91 -0.16c-0.94,2.22 -3.93,3.81 -4.51,5.78z"/>
  <path class="fil21" d="M374.3 241l1.57 0.21c0.85,-0.48 1.09,-0.81 1.17,-1.97l-1.7 -1.07c0.65,-2.9 2.37,-4.71 3.11,-7.1 -1.61,-1.22 -4.21,-1.6 -6.38,-1.69 -1.82,2.06 -1.6,4.43 -3.7,5.77 -0.91,0.58 0.03,-0.6 -0.88,0.74l2.16 0.95c-0.2,1.56 -0.31,0.55 -0.71,2.03l4.02 1.54c0.27,0.1 0.53,0.2 0.81,0.32l0.53 0.27z"/>
  <path class="fil24" d="M302.42 402.35l1.61 2.02c0.58,-1.97 3.57,-3.56 4.51,-5.78l0.91 0.16c1.18,0.53 0.52,0.16 0.43,0.5 0.16,-2.07 -0.15,-1.17 0.9,-2.24 1.49,-1.52 0.32,-0.83 1.53,-2.22 1.37,-1.56 0.04,0.87 2.88,-3.33 1.43,-2.13 2.19,-0.48 3.65,-2.86 0.12,-0.21 0.52,-0.86 0.71,-1.09 0.66,-0.77 0.33,-0.36 0.94,-0.85l2.08 -1.22c-0.37,-1.39 -0.5,-3.53 -1.37,-4.49 -1.32,1.48 -0.47,-0.2 -3.34,1.06 0.05,1.69 0.41,0.95 0.28,2.74 -1.92,1.11 -1.06,-0.34 -2.6,1.87 -1.37,1.98 0.31,0.79 -0.75,2.65 -0.66,1.14 -0.4,0.34 -1.35,1.12 -3.54,2.9 -1.16,2.69 -4.77,5.92 -2.61,2.34 0.07,-1.22 -3.17,3.03 -0.65,0.86 -2.47,2 -3.08,3.01z"/>
  <path class="fil15" d="M292.92 413.27c1.54,-0.43 2.75,-3.27 4.12,-5.42 1.37,-2.15 2.53,-3.61 2.42,-7.24l-1.35 -0.73c-1.66,-0.21 -3.5,-0.51 -5.36,-0.37 -0.23,2.49 -0.65,4.88 -0.88,7.33 -0.23,2.5 -1.09,5.81 1.05,6.43z"/>
  <path class="fil9" d="M382.1 230.84c0.09,-0.04 0.23,-0.23 0.27,-0.16l1.27 -1.36c0.36,-0.45 0.14,-0.23 0.53,-0.57 1.42,0.44 2.73,1.11 4.11,1.8 1.53,0.77 2.94,1.28 3.95,2.44 -0.57,3.14 -1.78,1.73 -0.11,2.67 1.29,-1.12 -0.47,-1.22 1.81,-1.59 0.82,-0.13 1.17,0.4 2.71,-2.09l2.88 -4.99c1.65,-1.89 3.32,-0.2 5.64,1.54 5.65,4.23 4.89,5.23 2.85,8.95 -1.43,2.6 -2.37,3.23 -1.88,4.45 0.75,-1.83 1.96,-3.75 2.89,-5.49 0.58,-1.07 0.96,-1.84 1.61,-2.94 0.99,-1.67 0.69,-1.11 0.02,-2.63 -1.69,-1.37 -3.58,-2.84 -5.62,-4.23 -0.96,-0.65 -1.94,-1.27 -2.91,-1.92 -1.15,-0.77 -1.4,-1.34 -2.72,-1.79 0.43,2.03 -0.47,1.36 -1.56,3.58 -0.05,0.09 -0.18,0.38 -0.23,0.47 -0.35,0.75 -0.08,0.15 -0.33,0.72 -0.82,1.9 -1.67,3.02 -2.29,5.01 -2.07,-0.22 -4.5,-2.13 -6.38,-3.07 -1.32,-0.66 -5.66,-2.35 -6.63,-3.22l2.35 -5.4c-0.69,0.35 -0.75,0.24 -1.39,1.41l-2.15 5.09 2.07 1.31c-0.46,0.55 -0.61,1.26 -0.76,2.01z"/>
  <path class="fil25" d="M389 260.11c-1.31,-0.32 -3.2,-1.73 -4.24,-2.93 1.09,-2.84 2.62,-4.52 3.48,-7.32 1.28,0.51 1.92,0.99 2.9,1.75 0.8,0.64 1.71,1.17 2.02,1.92l3.8 3.69c-1.5,1.72 -2.26,4.65 -3.46,6.53 -0.28,-0.66 -3.18,-2.35 -3.76,-2.84l-0.74 -0.8zm-5.85 -2.98c0.71,0.76 1.39,1.05 1.98,1.78 1.96,0.33 6.25,4.03 7.43,5.53l-0.5 1.37c2.65,0 2.07,-1.44 4.6,-5.84 0.9,-1.58 1.5,-1.83 1.1,-3.54 -0.47,-1.97 0.24,-1.58 0.84,-3.44 -0.65,-0.78 -2.08,-1.63 -3.03,-2.46 -0.26,0.41 -0.58,1.12 -0.83,1.64 -2.26,-0.97 -4.64,-3.74 -6.56,-4.24 -0.18,1.63 -0.24,0.56 -0.78,1.07 -1.57,1.5 -3.9,7.59 -4.25,8.13z"/>
  <path class="fil22" d="M389 260.11c1.29,0.22 1.02,0.16 1.62,-0.95l2.35 -4.59c0.45,-0.84 0.58,0.44 0.19,-1.04 -0.31,-0.75 -1.22,-1.28 -2.02,-1.92 -0.98,-0.76 -1.62,-1.24 -2.9,-1.75 -0.86,2.8 -2.39,4.48 -3.48,7.32 1.04,1.2 2.93,2.61 4.24,2.93z"/>
  <path class="fil8" d="M292.92 413.27c0.6,0.62 -0.87,0.26 1.07,0.57 1.68,0.28 3.99,-2.47 5.26,-3.45l5.13 -4.43 -0.35 -1.59 -1.61 -2.02c-0.93,-0.41 -0.82,-0.42 -1.69,-1.02l-1.27 -0.72c0.11,3.63 -1.05,5.09 -2.42,7.24 -1.37,2.15 -2.58,4.99 -4.12,5.42z"/>
  <path class="fil21" d="M372.84 243.09l0.09 -1.64 -5.51 -1.18c-0.24,0.78 -0.45,1.04 -0.87,1.74 -0.32,0.51 -0.28,0.43 -0.53,0.85 -0.87,1.47 -1.92,3.17 -2.04,4.74 1.84,0.61 3.07,1.52 5.23,1.79 0.08,-0.27 2.64,-5.88 3.63,-6.3z"/>
  <path class="fil16" d="M372.5 222.28l-0.77 1.77c5.14,0.62 1.89,-1.42 6.91,-7.51 2.81,-0.21 4.45,-0.04 6.16,1.24l-0.01 1.69c0.99,-0.73 0.04,0.3 0.66,-0.67 0.48,-0.75 0.06,-0.07 0.36,-0.79 0.59,-1.41 -0.49,-0.65 0.71,-1.27l-4.28 -1.75 -3.58 -1.01c0.48,-0.89 1.15,-1.9 1.58,-3.11 -1.99,1.02 -0.6,1 -2.25,2.46 -2.39,2.13 -1.54,1.95 -3.86,5.82 -0.58,0.95 -1.46,1.94 -1.63,3.13z"/>
  <path class="fil10" d="M356.88 343.44c0.56,1.05 0.73,4.3 0.9,5.7l2.25 -0.15 -1.58 -9.3c2.46,-0.12 7.42,0.14 9.11,-1.29l-0.19 -1.95 -5.72 0.94 -3.05 0.52c-0.08,-0.1 -0.18,-0.33 -0.22,-0.26l-0.77 -0.93c-0.57,2.29 -1.34,2.29 -1.03,3.78 0.28,1.32 0.44,1.28 0.3,2.94z"/>
  <path class="fil26" d="M357.92 282.07l1.69 1.02 1.75 -2.91c2.69,1.07 5.22,3.13 8.05,4.06l0.71 -1.8c-1.24,-1.04 -6.43,-3.73 -7.78,-4.12l1.55 -3.27 -1.83 -0.79c-0.79,1.03 -3.82,6.56 -4.14,7.81z"/>
  <path class="fil26" d="M371.73 269.29c2.22,2.22 1.41,3.76 -0.35,5.78l-4.85 -2.39 -1.82 1.48c1.98,0.8 5.92,3.46 7.71,3.86 2.34,-3.08 4.56,-7.37 0.93,-10.07 -0.34,0.21 -0.52,0.32 -0.91,0.65 -0.07,0.06 -0.31,0.29 -0.36,0.33 -0.03,0.04 -0.15,0.24 -0.17,0.18 -0.03,-0.06 -0.12,0.12 -0.18,0.18z"/>
  <path class="fil21" d="M389 260.11l0.74 0.8c0.58,0.49 3.48,2.18 3.76,2.84 1.2,-1.88 1.96,-4.81 3.46,-6.53l-3.8 -3.69c0.39,1.48 0.26,0.2 -0.19,1.04l-2.35 4.59c-0.6,1.11 -0.33,1.17 -1.62,0.95z"/>
  <path class="fil3" d="M366.53 272.68l4.85 2.39c1.76,-2.02 2.57,-3.56 0.35,-5.78 -1.52,-0.95 -2.15,-0.93 -4.16,-0.62 -1.01,1.18 -1.2,1.99 -1.91,3.34l0.87 0.67z"/>
  <path class="fil27" d="M364.71 274.16l1.82 -1.48 -0.87 -0.67c0.71,-1.35 0.9,-2.16 1.91,-3.34 2.01,-0.31 2.64,-0.33 4.16,0.62 0.06,-0.06 0.15,-0.24 0.18,-0.18 0.02,0.06 0.14,-0.14 0.17,-0.18 0.05,-0.04 0.29,-0.27 0.36,-0.33 0.39,-0.33 0.57,-0.44 0.91,-0.65 -1.24,-1.88 -5.23,-2.7 -7.24,-1.18 -0.82,0.62 -3.09,4.9 -3.51,6.46l2.11 0.93z"/>
  <rect class="fil28 str1" transform="matrix(0.990941 -0.134298 0.134298 0.990941 196.667 144.821)" width="99.89" height="35.86" rx="6" ry="6"/>
  <rect class="fil28 str1" transform="matrix(0.751882 -0.101899 0.101899 0.751882 139.009 309.125)" width="99.89" height="35.86" rx="6" ry="6"/>
  <rect class="fil28 str1" transform="matrix(0.775148 0.367 -0.623773 0.57376 254.716 193.758)" width="65" height="64"/>
  <rect class="fil28 str1" transform="matrix(0.775148 0.367 -0.623773 0.57376 267.156 272.505)" width="65" height="64"/>
  <line class="fil28 str1" x1="251.74" y1="173.55" x2="254.71" y2= "193.76" />
  <line class="fil28 str1" x1="265.04" y1="254.66" x2="268.01" y2= "274.87" />
  <polyline class="fil28 str1" points="255,183.65 254.22,192.26 251,184.17 "/>
  <polyline class="fil28 str1" points="267.95,263.5 267.17,270.76 263.95,263.94 "/>
  <polyline class="fil28 str1" points="176,295 175.22,302.26 172,295.44 "/>
  <path class="fil28 str1" d="M172 280.51l-5.39 -33.45c-0.88,-5.44 3.25,-10.55 9.18,-11.35l39.37 -5.35"/>
  <line class="fil28 str1" x1="175.34" y1="304.2" x2="171.43" y2= "276.96" />
 </g>
</svg>
