<?xml version="1.0" encoding="UTF-8"?>
<!DOCTYPE svg PUBLIC "-//W3C//DTD SVG 1.1//EN" "http://www.w3.org/Graphics/SVG/1.1/DTD/svg11.dtd">
<!-- Creator: CorelDRAW 2017 -->
<svg xmlns="http://www.w3.org/2000/svg" xml:space="preserve" width="500px" height="500px" version="1.1" style="shape-rendering:geometricPrecision; text-rendering:geometricPrecision; image-rendering:optimizeQuality; fill-rule:evenodd; clip-rule:evenodd"
viewBox="0 0 500 500"
 xmlns:xlink="http://www.w3.org/1999/xlink">
 <defs>
  <style type="text/css">
   <![CDATA[
    .str0 {stroke:#4AB6F7;stroke-width:25;stroke-miterlimit:22.9256}
    .fil2 {fill:#14529B}
    .fil1 {fill:#4AB6F7}
    .fil0 {fill:white}
   ]]>
  </style>
 </defs>
 <g id="Слой_x0020_1">
  <metadata id="CorelCorpID_0Corel-Layer"/>
  <g id="_2453005696640">
   <circle class="fil0 str0" cx="250" cy="250" r="230.97"/>
   <g>
    <path class="fil1" d="M62.22 242.24c0,27.62 1.03,43.87 9.77,69.8 4.29,12.7 7.32,18.9 13.3,30.04 5.5,10.25 6.11,10.78 12.38,19.98 1.58,2.31 3.05,4.25 4.65,6.34 5.9,7.71 13.66,16.2 20.54,22.82 13.46,12.95 35,27.22 51.92,34.77 2.61,1.16 4.54,2.2 7.59,3.41 2.8,1.12 5.3,2 7.95,3.05 8.19,3.25 16.86,5.13 25.23,7.12 2.02,0.48 7.67,1.27 9.06,1.94l0 -66c-2.75,-0.22 -7.84,-2.07 -10.6,-2.98 -20,-6.65 -36.03,-17.44 -50.7,-32.11 -5.48,-5.48 -8.03,-8.57 -12.73,-15.09 -30.24,-41.92 -32.51,-97.97 -5.83,-142.25 4.27,-7.1 9.04,-13.78 14.69,-19.6 2.31,-2.38 2.44,-3.44 6.45,-7.14 10.09,-9.32 24.75,-19.75 37.63,-25.11 4.38,-1.82 16.18,-6.63 21.09,-6.74l0 -65.99c-8.88,0.73 -25.52,5.74 -34.06,8.64 -22,7.48 -50.06,24.01 -67.03,41.01 -10.91,10.92 -21.86,22.05 -29.98,35.37 -13.31,21.87 -19.89,35.67 -26.15,60.54 -2.71,10.78 -5.17,24.84 -5.17,38.18z"/>
    <path class="fil2" d="M178.98 262.95c0,16.77 5.92,34.4 16.04,46.44 23.67,28.15 63.72,34.75 95,13.99 6.92,-4.6 13.49,-10.68 18.04,-17.55 7.61,-11.48 13.28,-23.9 13.28,-39.71l0 -88.58 -31.63 0 0 86.2c0,11.32 -6.19,20.96 -12.04,26.72 -12.69,12.48 -35.05,14.74 -49.67,4.14 -4.73,-3.43 -6.48,-5.28 -9.94,-9.83 -4.29,-5.64 -7.44,-14.84 -7.44,-22.61l0 -84.62 -31.64 0 0 85.41z"/>
    <path class="fil1" d="M437.79 242.24c0,27.62 -1.04,43.87 -9.78,69.8 -4.29,12.7 -7.32,18.9 -13.3,30.04 -5.5,10.25 -6.11,10.78 -12.38,19.98 -1.57,2.31 -3.05,4.25 -4.65,6.34 -5.9,7.71 -13.66,16.2 -20.54,22.82 -13.46,12.95 -34.99,27.22 -51.92,34.77 -2.61,1.16 -4.54,2.2 -7.59,3.41 -2.8,1.12 -5.29,2 -7.95,3.05 -8.19,3.25 -16.86,5.13 -25.23,7.12 -2.02,0.48 -7.67,1.27 -9.06,1.94l0 -66c2.75,-0.22 7.84,-2.07 10.6,-2.98 20,-6.65 36.03,-17.44 50.7,-32.11 5.49,-5.48 8.03,-8.57 12.73,-15.09 30.24,-41.92 32.51,-97.97 5.84,-142.25 -4.28,-7.1 -9.05,-13.78 -14.7,-19.6 -2.31,-2.38 -2.44,-3.44 -6.45,-7.14 -10.09,-9.32 -24.75,-19.75 -37.63,-25.11 -4.38,-1.82 -16.18,-6.63 -21.09,-6.74l0 -65.99c8.88,0.73 25.52,5.74 34.06,8.64 22,7.48 50.06,24.01 67.03,41.01 10.91,10.92 21.87,22.05 29.98,35.37 13.31,21.87 19.89,35.67 26.15,60.54 2.71,10.78 5.18,24.84 5.18,38.18z"/>
   </g>
  </g>
 </g>
</svg>
