<?xml version="1.0" encoding="UTF-8"?>
<!DOCTYPE svg PUBLIC "-//W3C//DTD SVG 1.1//EN" "http://www.w3.org/Graphics/SVG/1.1/DTD/svg11.dtd">
<!-- Creator: CorelDRAW 2017 -->
<svg xmlns="http://www.w3.org/2000/svg" xml:space="preserve" width="500px" height="500px" version="1.1" style="shape-rendering:geometricPrecision; text-rendering:geometricPrecision; image-rendering:optimizeQuality; fill-rule:evenodd; clip-rule:evenodd"
viewBox="0 0 500 500"
 xmlns:xlink="http://www.w3.org/1999/xlink">
 <defs>
  <style type="text/css">
   <![CDATA[
    .str0 {stroke:#DE1010;stroke-width:16;stroke-miterlimit:22.9256}
    .fil1 {fill:#DE1010}
    .fil2 {fill:#F02222}
    .fil0 {fill:white}
   ]]>
  </style>
 </defs>
 <g id="Слой_x0020_1">
  <metadata id="CorelCorpID_0Corel-Layer"/>
  <circle class="fil0 str0" cx="250" cy="250" r="239.39"/>
 </g>
 <g id="Слой_x0020_1_0">
  <metadata id="CorelCorpID_1Corel-Layer"/>
  <g id="_1897327724512">
   <path class="fil1" d="M137.8 388.28l-1.54 0c-4.87,0 -8.99,-3.83 -8.99,-8.67 0,-4.57 -0.63,-15.73 0.81,-18.71 0.41,-0.84 1.33,-2.16 1.93,-2.71 5.63,-5.14 16.78,-2.11 16.78,6.55l0 14.56c0,4.98 -4.03,8.98 -8.99,8.98zm0.55 10.22l-3.14 0c-4.9,-0.31 -9.55,-2.05 -12.67,-5.18 -5.98,-6.02 -6.11,-9.75 -6.11,-17.74l-7.43 0 0 20.13c0,0.95 -0.29,1.86 -1.24,1.86l-8.98 0c-0.72,0 -0.93,-0.21 -0.93,-0.93l0 -49.25c0,-0.71 0.21,-0.92 0.93,-0.92l8.98 0c0.95,0 1.24,0.9 1.24,1.85l0 17.66 7.43 0 0 -2.17c0,-2.83 1.05,-5.87 2.06,-7.85 3.42,-6.71 10,-10.42 18.69,-10.42 11.29,0 20.45,7.7 20.45,18.89l0 15.18c0,3.26 -0.86,5.79 -1.86,8.05 -3.04,6.83 -10.2,10.39 -17.42,10.84z"/>
   <path class="fil1" d="M210.9 347.39l0 49.25c0,0.72 0.22,0.93 0.93,0.93 11.96,0 10.22,1.53 10.22,-6.19l0 -22.61c0.19,0.21 0.18,0.15 0.4,0.53l6.73 14.33c0.51,1.03 0.81,1.86 1.34,3 0.49,1.06 0.97,1.91 1.44,2.89 1.42,2.97 1.88,2.17 9.3,2.17 1.72,0 3.83,-6.06 4.84,-8.16l5.69 -11.98c0.26,-0.52 0.43,-0.82 0.7,-1.46l0.84 -1.63 0 26.02c-0.05,3.91 -1.39,3.09 9.92,3.09 0.72,0 1.24,-0.51 1.24,-1.24l0 -48.63c0,-0.72 -0.52,-1.23 -1.24,-1.23 -14.17,0 -9.37,-2.25 -16.11,11.15 -0.66,1.32 -1.21,2.71 -1.85,4.03 -0.69,1.39 -1.22,2.54 -1.87,4.01 -0.85,1.91 -5.19,10.45 -5.57,12.09 -1.04,-0.76 -3.3,-6.55 -3.92,-7.85l-7.54 -16c-0.67,-1.33 -1.21,-2.71 -1.86,-4.03 -2.18,-4.44 -0.39,-3.4 -12.7,-3.4 -0.71,0 -0.93,0.21 -0.93,0.92z"/>
   <path class="fil1" d="M341.3 373.41l-8.37 0 0 -17.65 10.23 0c3.2,0 6.19,2.99 6.19,6.19 0,4.56 0.98,11.46 -8.05,11.46zm-19.51 -26.02l0 49.25c0,0.72 0.21,0.93 0.92,0.93l8.99 0c0.72,0 1.23,-0.51 1.23,-1.24l0 -13.94 14.56 0c6.62,0 13.01,-6.59 13.01,-13.93 0,-7.78 1.08,-16.14 -7.94,-20.56 -1.32,-0.65 -3.57,-1.43 -5.38,-1.43l-24.47 0c-0.71,0 -0.92,0.21 -0.92,0.92z"/>
   <path class="fil1" d="M292.98 358.24c0.04,0.06 0.1,0.08 0.12,0.19l5.46 18.39 -11.16 0 5.58 -18.58zm-22.92 38.71c0,1.2 7.57,0.62 10.22,0.62 1.51,0 2.02,-3.24 2.59,-5.15 0.62,-2.08 1.29,-4.03 1.75,-6l17.03 0c0.13,1.55 1.2,4.36 1.68,6.06 0.35,1.24 0.56,1.79 0.92,3.12 0.35,1.31 0.48,1.97 2.05,1.97 11.03,0 10.48,0.74 9.26,-2.75l-15.5 -45.53c-1.22,-3.77 0.09,-2.82 -12.04,-2.82 -1.48,0 -2.34,4.09 -2.82,5.53l-10.84 31.9c-0.65,1.95 -4.3,11.87 -4.3,13.05z"/>
   <path class="fil1" d="M160.41 397.57l9.61 0c1.01,0 1.18,-0.78 1.43,-1.66 0.3,-1.05 0.43,-1.59 0.7,-2.4l10.88 -34.97c0.03,1.71 9.57,32.83 10.41,35.74 1.25,4.25 0.36,3.29 12.2,3.29 0.34,-1.62 -3.32,-11.03 -3.91,-12.82 -1.5,-4.47 -2.97,-8.59 -4.42,-12.93 -1.48,-4.43 -2.95,-8.53 -4.41,-12.93 -4.96,-14.89 -1.74,-12.42 -14.83,-12.42 -2.08,0 -1.97,1.81 -3.21,5.46 -0.78,2.28 -1.59,4.44 -2.33,6.65l-11.15 32.84c-0.39,1.17 -0.66,2.02 -1.08,3.25 -0.39,1.13 -1.47,2.9 0.11,2.9z"/>
   <path class="fil1" d="M362.98 347.39c0,4.34 -0.77,8.68 1.24,8.68l12.7 0c0,6.15 -0.48,38.12 0.31,41.5l8.7 0.03c1.15,0.01 2.14,0.24 2.14,-0.96l0 -40.57 12.7 0c2.01,0 1.24,-4.34 1.24,-8.68 0,-0.71 -0.22,-0.92 -0.93,-0.92l-37.17 0c-0.72,0 -0.93,0.21 -0.93,0.92z"/>
  </g>
  <g id="_1897327724256">
   <path class="fil2" d="M98.74 97.81l67.47 0c0.68,0 1.23,0.55 1.23,1.24l0 219.42c0,0.68 -0.55,1.24 -1.23,1.24l-67.47 0c-0.68,0 -1.24,-0.56 -1.24,-1.24l0 -219.42c0,-0.69 0.56,-1.24 1.24,-1.24z"/>
   <g>
    <path class="fil1" d="M184.69 265.9c-6.02,15.19 -11.8,32.79 -17.61,53.45l-69.58 0.4c11.26,-87.62 33.89,-144.13 108.32,-199 21.75,-16.03 52.61,-27.25 79.58,-27.25 63.84,0 115.6,51.75 115.6,115.6 0,63.85 -51.76,115.6 -115.6,115.6 -43.16,0 -80.9,-23.65 -100.75,-58.7l0.04 -0.1zm73.7 -93.78c1.57,-1 3.16,-2.01 4.78,-3l-4.78 3zm27.04 -8.68c25.64,0 46.42,20.79 46.42,46.43 0,25.64 -20.78,46.42 -46.42,46.42 -25.64,0 -46.42,-20.78 -46.42,-46.42 0,-25.64 20.78,-46.43 46.42,-46.43z"/>
   </g>
  </g>
 </g>
</svg>
