<?xml version="1.0" encoding="UTF-8"?>
<!DOCTYPE svg PUBLIC "-//W3C//DTD SVG 1.1//EN" "http://www.w3.org/Graphics/SVG/1.1/DTD/svg11.dtd">
<!-- Creator: CorelDRAW 2017 -->
<svg xmlns="http://www.w3.org/2000/svg" xml:space="preserve" width="500px" height="500px" version="1.1" style="shape-rendering:geometricPrecision; text-rendering:geometricPrecision; image-rendering:optimizeQuality; fill-rule:evenodd; clip-rule:evenodd"
viewBox="0 0 500 500"
 xmlns:xlink="http://www.w3.org/1999/xlink">
 <defs>
  <style type="text/css">
   <![CDATA[
    .fil0 {fill:#79509B}
    .fil1 {fill:#FEFEFE}
   ]]>
  </style>
 </defs>
 <g id="Слой_x0020_1">
  <metadata id="CorelCorpID_0Corel-Layer"/>
  <circle class="fil0" cx="250" cy="250" r="239.39"/>
 </g>
 <g id="Слой_x0020_1_0">
  <metadata id="CorelCorpID_1Corel-Layer"/>
  <path class="fil1" d="M183 356.5c-49.5,-16.5 -68.48,-42.12 -74.8,-85.56 -5.49,-37.79 -2.4,-95.13 13.93,-125.3 34.45,-63.62 171.13,-55.16 221.16,-32.53 18.2,8.23 28.37,18.07 36.54,35.79 16.25,35.23 16.23,88.68 10.04,127.19 -1.6,9.96 -4.05,19.58 -7.8,27.76 -3.64,7.96 -8.98,16.94 -13.66,21.91 -27.12,28.81 -87.56,33.71 -127.41,32.74 -3.21,0.08 0,0 -28,0.5 -0.52,0.01 -1.8,1.73 -2,2 -31.96,52.6 -36.35,71.15 -28,-4.5zm-102.59 -136.16c0,53.8 2.22,103.85 45.86,136.74 5.61,4.22 10.37,7.28 16.61,10.35l19.64 7.33c0,58.07 1.52,83.53 49.53,21.35 1.95,-2.52 4.86,-5.66 7.05,-7.67 3.92,-3.62 3.59,-2.78 10.76,-2.72 32.32,0.31 35.38,0.96 68.48,-2.6 8.21,-0.88 16.7,-2.85 23.82,-4.37l22.2 -5.98c42.38,-13.16 69.42,-53.62 71.85,-96.05 2.24,-39.12 9.06,-82.64 -6.83,-124.32 -2.12,-5.56 -3.05,-9.43 -5.41,-14.19 -17.74,-35.69 -43.19,-51.71 -84.7,-59.92 -61.72,-12.21 -148.21,-12.58 -198.45,25.6 -31.22,23.73 -40.41,75.86 -40.41,116.45z"/>
  <path class="fil1" d="M182.47 146.58c-9.15,3.04 -22.05,14.53 -25.49,22.85 -7.62,18.48 24.98,66.62 36.43,82.53 15.96,22.16 40.77,40.26 67.12,55.39 33.42,19.2 46.28,24.66 66.15,2.42 16.01,-17.92 4.64,-24.59 -2.43,-30.55 -53.25,-44.91 -39.81,-0.72 -62.14,-3.92 -21.98,-3.16 -43.36,-26.09 -52.67,-45.54 -11.28,-23.58 -0.34,-20.18 8.18,-30.3 11.27,-13.4 -10.43,-35.03 -19.44,-46.63 -3.37,-4.35 -7.08,-9.13 -15.71,-6.25z"/>
  <path class="fil1" d="M243.71 142.89c4.45,2.37 28.31,4.1 39.87,9.08 31.71,13.66 46.11,42.57 47.69,75.85 0.59,12.55 8.89,11.38 9.39,2.48 1.02,-17.99 -6.87,-42.5 -17.14,-56.98 -13.86,-19.56 -36.78,-33.7 -62.21,-36.91 -8.55,-1.08 -19.73,-4.07 -17.6,6.48z"/>
  <path class="fil1" d="M251.61 159.82l-0.35 7.11c7.95,2.34 15.1,1.81 24.25,5.35 35.21,13.64 29.18,47.89 34.56,54.82l5.95 -0.07c5.85,-23.9 -11.25,-52.76 -36.09,-62.83 -5.16,-2.09 -23.63,-7.36 -28.32,-4.38z"/>
  <path class="fil1" d="M285.87 219.32c14.65,2.29 5.05,-18.88 3.49,-21.69 -10.4,-18.81 -40.17,-16.86 -30.06,-6.91 2.45,2.41 10.63,2.25 14.42,4.17 11.33,5.76 8.07,13.41 12.15,24.43z"/>
 </g>
</svg>
