<?xml version="1.0" encoding="UTF-8"?>
<!DOCTYPE svg PUBLIC "-//W3C//DTD SVG 1.1//EN" "http://www.w3.org/Graphics/SVG/1.1/DTD/svg11.dtd">
<!-- Creator: CorelDRAW 2017 -->
<svg xmlns="http://www.w3.org/2000/svg" xml:space="preserve" width="500px" height="500px" version="1.1" style="shape-rendering:geometricPrecision; text-rendering:geometricPrecision; image-rendering:optimizeQuality; fill-rule:evenodd; clip-rule:evenodd"
viewBox="0 0 500 500"
 xmlns:xlink="http://www.w3.org/1999/xlink">
 <defs>
  <style type="text/css">
   <![CDATA[
    .fil1 {fill:#FEFEFE}
    .fil0 {fill:#2B77A5}
    .fil4 {fill:#2B77A5}
    .fil3 {fill:white}
    .fil2 {fill:#2B77A5;fill-rule:nonzero}
   ]]>
  </style>
 </defs>
 <g id="Слой_x0020_1">
  <metadata id="CorelCorpID_0Corel-Layer"/>
  <circle class="fil0" cx="250" cy="250" r="239.39"/>
 </g>
 <g id="Слой_x0020_1_0">
  <metadata id="CorelCorpID_1Corel-Layer"/>
  <g id="_2476959955120">
   <rect class="fil1" x="154.7" y="195.5" width="191" height="197" rx="28" ry="28"/>
   <path class="fil2" d="M202.87 232.49l49.9 0c9.9,0 17.25,0.4 22.1,1.22 4.88,0.84 9.21,2.55 13.04,5.14 3.84,2.61 7.03,6.07 9.59,10.4 2.55,4.32 3.83,9.2 3.83,14.58 0,5.8 -1.57,11.18 -4.71,16.03 -3.13,4.88 -7.4,8.51 -12.78,10.95 7.58,2.23 13.39,6.01 17.49,11.35 4.07,5.35 6.1,11.62 6.1,18.85 0,5.7 -1.31,11.21 -3.95,16.59 -2.64,5.37 -6.25,9.67 -10.83,12.89 -4.57,3.2 -10.2,5.17 -16.91,5.93 -4.18,0.43 -14.32,0.72 -30.38,0.84l-42.49 0 0 -124.77zm25.27 20.73l0 28.76 16.5 0c9.78,0 15.88,-0.15 18.26,-0.44 4.3,-0.49 7.7,-1.97 10.17,-4.44 2.47,-2.47 3.69,-5.69 3.69,-9.7 0,-3.87 -1.08,-6.97 -3.2,-9.38 -2.12,-2.41 -5.28,-3.87 -9.47,-4.36 -2.49,-0.29 -9.67,-0.44 -21.49,-0.44l-14.46 0zm0 49.5l0 33.45 23.35 0c9.06,0 14.84,-0.26 17.28,-0.75 3.75,-0.7 6.8,-2.35 9.15,-5 2.35,-2.67 3.54,-6.18 3.54,-10.63 0,-3.77 -0.9,-6.94 -2.73,-9.55 -1.8,-2.62 -4.44,-4.53 -7.87,-5.72 -3.42,-1.2 -10.89,-1.8 -22.36,-1.8l-20.36 0z"/>
   <g>
    <rect class="fil3" x="85.7" y="179.85" width="61.29" height="155.02" rx="28.84" ry="28.84"/>
    <rect class="fil3" x="71.51" y="209.82" width="54.47" height="93.88" rx="25.63" ry="17.47"/>
   </g>
   <path class="fil4" d="M102.28 256.94c0.23,15.59 0.45,31.19 0.67,46.78 0.35,6.1 7.21,17.74 9.97,23.51 -9,-5.97 -18.98,-13.84 -18.89,-27.41 0.1,-14.29 0.16,-28.51 0.26,-42.81 -0.1,-14.29 -0.2,-28.59 -0.3,-42.88 -0.09,-13.57 9.89,-21.43 18.88,-27.41 -2.75,5.78 -9.62,17.42 -9.96,23.52 -0.22,15.59 -0.4,31.11 -0.63,46.7z"/>
   <g>
    <g>
     <rect class="fil3" x="353.01" y="179.85" width="61.29" height="155.02" rx="28.84" ry="28.84"/>
     <rect class="fil3" x="374.02" y="209.82" width="54.47" height="93.88" rx="25.63" ry="17.47"/>
    </g>
    <path class="fil4" d="M397.71 256.94c-0.22,15.59 -0.44,31.19 -0.66,46.78 -0.35,6.1 -7.21,17.74 -9.97,23.51 9,-5.97 18.97,-13.84 18.88,-27.41 -0.09,-14.29 -0.15,-28.51 -0.25,-42.81 0.1,-14.29 0.2,-28.59 0.3,-42.88 0.09,-13.57 -9.89,-21.43 -18.88,-27.41 2.75,5.78 9.62,17.42 9.96,23.52 0.22,15.59 0.4,31.11 0.62,46.7z"/>
   </g>
   <path class="fil3" d="M370.44 182.3l15.02 -1.76c-46.2,-122.67 -222.21,-123.64 -269.11,0l15.21 2.63c47.86,-110.7 193.59,-111.09 238.88,-0.87z"/>
  </g>
 </g>
</svg>
