<?xml version="1.0" encoding="UTF-8"?>
<!DOCTYPE svg PUBLIC "-//W3C//DTD SVG 1.1//EN" "http://www.w3.org/Graphics/SVG/1.1/DTD/svg11.dtd">
<!-- Creator: CorelDRAW 2017 -->
<svg xmlns="http://www.w3.org/2000/svg" xml:space="preserve" width="500px" height="500px" version="1.1" style="shape-rendering:geometricPrecision; text-rendering:geometricPrecision; image-rendering:optimizeQuality; fill-rule:evenodd; clip-rule:evenodd"
viewBox="0 0 500 500"
 xmlns:xlink="http://www.w3.org/1999/xlink">
 <defs>
  <style type="text/css">
   <![CDATA[
    .str0 {stroke:#F08B21;stroke-width:16;stroke-miterlimit:22.9256}
    .fil0 {fill:#FEFEFE}
    .fil2 {fill:#E0DFDE}
    .fil1 {fill:#F57C00}
    .fil3 {fill:#FD9700}
   ]]>
  </style>
 </defs>
 <g id="Слой_x0020_1">
  <metadata id="CorelCorpID_0Corel-Layer"/>
  <circle class="fil0 str0" cx="250" cy="250" r="239.39"/>
 </g>
 <g id="Слой_x0020_1_0">
  <metadata id="CorelCorpID_1Corel-Layer"/>
  <path class="fil1" d="M323.95 284.25l6 21.11c2.01,2.66 8.69,26.91 7.75,32.48 -5.67,33.57 -106.61,45.28 -156.2,20.53 -28.16,-14.05 -19.08,-28.76 -13.18,-49.47l1.49 -3.86 6.02 -20.79c-34.59,0 -26.02,-4.79 -38.55,32.51l-17.12 54.63c-1.12,3.35 -8.53,24.3 -7.52,27.26 0.45,1.31 1.23,2.04 2.18,3.57 1.16,1.85 1.66,2.4 2.18,4.34l267.46 0c4.48,-8.47 3.24,-9.11 0.81,-17.94 -8.11,-29.51 -18.7,-61.47 -26.9,-91.33 -4.48,-16.28 -10.39,-13.04 -34.42,-13.04z"/>
  <path class="fil2" d="M175.83 284.25l-6.02 20.79c1.45,8.97 21.71,19.87 32.48,23.57 31.39,10.8 63.81,11.44 95.06,-0.18 9.04,-3.37 28.51,-13.45 32.6,-23.07l-6 -21.11c-1.6,-4.38 -3.4,-10.65 -4.73,-15.49 -0.74,-2.72 -1.58,-5.03 -2.35,-7.44 -0.94,-2.97 -1.46,-5.64 -2.54,-8.36 -2.8,1.64 -3.32,3.28 -6.11,5.59 -15.15,12.55 -38.41,17.51 -58.31,17.5 -14.3,-0.01 -25.5,-2.09 -37.71,-6.28 -17.27,-5.93 -20.97,-12.89 -26.7,-16.67 -1.03,2.38 -1.72,4.83 -2.45,7.5 -0.82,3 -1.65,5.11 -2.55,8.05 -1.44,4.69 -2.95,11.26 -4.67,15.6z"/>
  <path class="fil3" d="M185.5 253.1c5.73,3.78 9.43,10.74 26.7,16.67 12.21,4.19 23.41,6.27 37.71,6.28 19.9,0.01 43.16,-4.95 58.31,-17.5 2.79,-2.31 3.31,-3.95 6.11,-5.59l-17.94 -59.1c-3.13,1.3 -5.79,3.39 -9.51,5.05 -19.33,8.62 -42.82,9.72 -63.17,3.95 -12.42,-3.53 -13.83,-6.36 -20.28,-8.99l-13.56 44.19c-1.26,4.27 -3.99,10.86 -4.37,15.04z"/>
  <path class="fil3" d="M329.95 305.36c-4.09,9.62 -23.56,19.7 -32.6,23.07 -31.25,11.62 -63.67,10.98 -95.06,0.18 -10.77,-3.7 -31.03,-14.6 -32.48,-23.57l-1.49 3.86c-5.9,20.71 -14.98,35.42 13.18,49.47 49.59,24.75 150.53,13.04 156.2,-20.53 0.94,-5.57 -5.74,-29.82 -7.75,-32.48z"/>
  <path class="fil2" d="M203.43 193.87c6.45,2.63 7.86,5.46 20.28,8.99 20.35,5.77 43.84,4.67 63.17,-3.95 3.72,-1.66 6.38,-3.75 9.51,-5.05l-17.94 -58.45c-7.7,6.37 -15.02,10.17 -28.54,10.14 -13.75,-0.03 -20.59,-3.69 -28.54,-10.16l-15.6 50.9c-0.69,2.04 -1.49,5.65 -2.34,7.58z"/>
  <path class="fil3" d="M221.37 135.39c7.95,6.47 14.79,10.13 28.54,10.16 13.52,0.03 20.84,-3.77 28.54,-10.14 -2.7,-8.67 -5.33,-17.65 -8.26,-26.37 -4.71,-14 -0.89,-15.6 -20.28,-15.6 -19.51,0 -15.72,1.94 -20.07,14.99 -3.04,9.14 -5.63,18.04 -8.47,26.96z"/>
 </g>
</svg>
