<?xml version="1.0" encoding="UTF-8"?>
<!DOCTYPE svg PUBLIC "-//W3C//DTD SVG 1.1//EN" "http://www.w3.org/Graphics/SVG/1.1/DTD/svg11.dtd">
<!-- Creator: CorelDRAW 2017 -->
<svg xmlns="http://www.w3.org/2000/svg" xml:space="preserve" width="500px" height="500px" version="1.1" style="shape-rendering:geometricPrecision; text-rendering:geometricPrecision; image-rendering:optimizeQuality; fill-rule:evenodd; clip-rule:evenodd"
viewBox="0 0 500 500"
 xmlns:xlink="http://www.w3.org/1999/xlink">
 <defs>
  <style type="text/css">
   <![CDATA[
    .str3 {stroke:black;stroke-width:2.81;stroke-miterlimit:22.9256}
    .str1 {stroke:black;stroke-width:3.13;stroke-miterlimit:22.9256}
    .str0 {stroke:#2B2A29;stroke-width:6.25;stroke-miterlimit:22.9256}
    .str4 {stroke:#FFED00;stroke-width:6;stroke-miterlimit:22.9256}
    .str2 {stroke:#2B2A29;stroke-width:3;stroke-miterlimit:22.9256}
    .str5 {stroke:#2B2A29;stroke-width:0.9;stroke-miterlimit:22.9256}
    .fil3 {fill:none}
    .fil13 {fill:#FECC00}
    .fil9 {fill:#E31E24}
    .fil7 {fill:#264515}
    .fil4 {fill:#383838}
    .fil1 {fill:#4F4F4F}
    .fil5 {fill:#757474}
    .fil17 {fill:#7FBA33}
    .fil14 {fill:#828282}
    .fil8 {fill:#98AB3B}
    .fil16 {fill:#B8B8B8}
    .fil6 {fill:#C2C2C2}
    .fil2 {fill:#C2C2C2}
    .fil12 {fill:#EB3C00}
    .fil10 {fill:#ED2B2B}
    .fil15 {fill:#F4F4F4}
    .fil0 {fill:#FFED00}
    .fil11 {fill:white}
   ]]>
  </style>
 </defs>
 <g id="Слой_x0020_1">
  <metadata id="CorelCorpID_0Corel-Layer"/>
  <circle class="fil0" cx="250" cy="250" r="232.5"/>
  <polygon class="fil1 str0" points="294.5,118.15 435.03,257.22 430.3,284.22 278.25,237.03 226.35,197.92 140.76,113.53 "/>
  <path class="fil2 str1" d="M278.25 237.03c24,4.34 115.01,16.63 152.21,27.96 5.34,1.62 2.08,16.14 1.74,20.96 -0.52,7.49 -171.27,146.23 -182.92,142.74 -2.12,-0.64 -9.42,-3.4 -19.23,-5.83 -12.84,-3.18 -42.11,-3.87 -59.71,-6.7 -28.12,-4.53 -44.48,-11.32 -52.24,-18.23 -13.02,-11.59 -25.24,-19.06 -36.74,-29.98 -1.31,-1.25 -1.58,-3 -1.61,-4.52 -0.08,-4.07 -1.39,-14.6 -0.29,-19.72 0.88,-4.08 176.37,-91.56 198.79,-106.68l0 0 0 0z"/>
  <polygon class="fil3 str2" points="276.73,254.25 101.96,344.56 245.86,393.79 397.85,275.37 "/>
  <polygon class="fil4" points="277.22,255.71 111.77,342.51 245.18,386.79 390.83,276.68 "/>
  <path class="fil5 str1" d="M202.54 89.51c11.52,-1 43.21,8.44 54.15,11.06 24.29,5.81 27.04,2.71 47.8,13.99 34.83,18.94 84.68,76.81 110.37,110.52 6.74,8.84 21.11,26.8 20.17,32.14 -1.24,7.1 -1.36,13.25 -5.3,7.29 -2.54,-3.84 -9.9,-11.51 -11.95,-13.79 -17.7,-19.65 -69.04,-66.98 -94.08,-90.72 -36.71,-34.82 -33.22,-31.92 -36.71,-34.82 -1.65,-1.37 -7.49,-0.49 -13.98,-0.59 -74.57,-1.16 -82.8,1.53 -83.31,-0.87 -2.09,-9.78 0.27,-18.08 -4.36,-26.06 -4.49,-7.75 6.97,-2.99 17.2,-8.15l0 0z"/>
  <path class="fil6" d="M280.87 115.91l-59.63 -1.8 5.68 -9.23c5.99,2.16 18.12,4.57 25.7,5.73l28.25 5.3z"/>
  <polygon class="fil6 str1" points="140.8,128 284.69,128 411.37,251.89 280.87,229.17 "/>
  <path class="fil7 str0" d="M220.75 80.2l-152.68 -3.82c11.52,82.61 -3.62,45.3 25.51,122.19 9.71,25.64 72.49,67.17 99.03,74l109.31 28.08c-72.23,-69.72 -93.8,-137.45 -78.93,-220.39l-2.24 -0.06z"/>
  <path class="fil8" d="M235.31 278.83c-7.71,-10.98 -8.58,-14.16 6.79,-12.95 4.94,0.4 1.54,6.66 15.42,-0.36 7.49,-3.78 12,2.73 17.5,8.81 2.13,2.36 14.57,17.94 14.57,19.25 -29.9,0 -20.21,-14.32 -33.79,-14.85 -5.63,-0.22 -10.38,14.47 -20.49,0.1l0 0z"/>
  <path class="fil8" d="M147.57 251.1c8.37,9.48 29.76,13.31 30.26,13.88 0.28,0.3 26.55,5.97 29.77,7.1 20.73,7.28 19.35,9.02 -1.32,-8.45 -1.96,-1.66 -14.12,-7.41 -16.9,-8.34 -0.49,-1.48 -14.08,-14.72 -19.49,-12.44 -13.1,5.54 -5.13,-1.08 -16.77,-2.49 -7.03,-0.86 -14.25,-12.14 -7.4,0 1.15,2.04 23.32,11.55 4.97,9.32 -0.76,-0.09 -14.43,-14.29 -8.49,-3.52 0.34,0.63 4.47,4.34 5.37,4.94z"/>
  <path class="fil8" d="M223.04 181.45c-4.89,-1.61 1.81,24.26 -2.84,29.43 -1.87,2.06 -6.87,15.69 -3.24,20.29 3.52,4.44 11.49,8.72 11.01,14.88 10.4,0 28.23,4.42 28.14,4.38 -5.02,-3.29 -18.07,-26.67 -21.6,-33.43 -7.38,-14.23 -1.07,-33.4 -7.35,-36.86 -2.42,-1.33 -5.41,0.88 -4.12,1.31l0 0z"/>
  <path class="fil8" d="M149.38 102.95c1.46,-2.69 2.68,-1.74 7.05,-4.61 2.23,-1.46 7.51,-8.64 8.01,-10.79 0.73,-3.17 4.62,-2.15 7.9,-2.15 4.87,0 18.33,-1.96 20.38,3.22 0.13,0.34 0.82,1.31 1.38,2.94 1.08,3.1 11.61,8.06 5.74,9.44 -1.5,0.35 -4.1,0.39 -3.06,3 1.2,2.99 9.16,-1.62 9.74,5.72 0.57,7.35 11.11,9.25 10.85,16.92 -0.05,1.55 1.16,11.24 1.16,14.55 0,2.16 1.21,11.8 0.89,11.37 -3.07,-4.09 -8.89,-8.98 -13.21,-11.59 -3.22,-1.93 -5.35,-3.65 -9.57,-3.85 -3.75,-0.18 -1.42,-15.16 -0.41,-17.77 0.52,-1.36 0.7,-6.95 -1.97,-8.05 -2.39,-1 -1.2,-2.2 -6.51,-2.44 -2.39,-0.09 -6.46,-8.23 -10.61,-9.45 -4,-1.17 -13.39,-3.92 -16.14,0.61 -2.74,4.49 -3.89,8.01 -10.64,7.11 -0.59,-0.08 -2.83,-2.03 -0.98,-4.18l0 0z"/>
  <path class="fil8" d="M117.1 81.77c0.93,1.36 -0.64,2.55 -0.22,3.79 1.12,3.3 3.11,6.79 4.02,13.4 0.7,4.95 -1.28,17.13 -1.11,16.9 7.12,-9.54 15.15,-5.25 21.75,-14.88 4.58,-6.69 8.58,-7.55 9.34,-8.19 2.13,-1.76 6.74,-1.1 7.63,-9.3 0.24,-2.21 -0.09,-2.01 -5.24,-2.01 -8.1,0 -11.08,-0.15 -18.91,-0.89 -5.96,-0.56 -8.97,-4.3 -16.1,1.11 -0.43,0.32 -1.31,-0.16 -1.16,0.07z"/>
  <path class="fil9" d="M83.81 152.44c7.53,1.22 9.8,-6.74 14.56,-9.92 5.09,-3.4 17.31,-2.86 20.46,6.78 1.48,4.53 5.87,5.26 9.24,7.57 -6.06,-5.59 -3.13,-18 -6.04,-25.05 -0.78,-1.91 -0.67,-16.25 3.71,-18.16 7.51,-3.27 30.16,-5.35 35.45,2.22 7.22,10.33 13.21,7.49 13.21,25.56 0,5.39 -6.19,19.52 -5.84,19.51 4.34,-0.16 3.8,-1.41 6.24,-2.23 1.67,-4.35 22.1,-6.56 25.88,-1.53 15.08,20.03 11.09,20.25 13.93,43.37 1.76,14.24 -6.35,15.96 -19.25,14.88 -1.37,-0.11 -18.28,-11.81 -6.16,-1.21 7.51,6.57 10.06,7.28 17.71,15.27 8.72,9.09 12.42,6.27 11.2,20.87 -0.35,4.25 -16.33,10.01 -24.47,2.05 -4.62,-4.54 -22.41,-11.75 -23.01,-18.94 -0.1,-1.16 -5.09,-8.58 -4.68,-13.1 0.36,-4.07 3.17,13.02 3.18,13.07 0.28,7.35 0.48,5.27 -11.25,5.27 -6.2,0 -22.55,-10.37 -23.85,-13.78 -6.57,-2.01 -14.19,-15.68 -7.7,-24.64 0.68,-0.94 -10.02,-3.91 -11.15,-5.2 -1.39,-1.59 -19.24,-3.81 -25.05,-15.56 -6.71,-13.61 -7.78,-4.98 -7.78,-24.42 0,-1.98 0.81,-2.79 1.46,-2.68l0 0z"/>
  <path class="fil10" d="M134.36 194.5c-4.82,14.67 15.96,37.35 23.59,39.9 3.87,1.3 2.99,-1.92 0,-14.55 -2.28,-9.63 -3.25,-17.55 1.46,-13.11 25.07,23.65 26.93,27.98 29.32,25.74 1.27,-1.18 -8.57,-22.28 -10.68,-25.16 -21.56,-29.41 19.21,2.41 23.02,-14 0.18,-0.78 0.35,-1.04 0.43,-1.53 2.47,-14.47 -41.1,-8.61 -27.52,-15.92 43.71,-23.61 -4.76,-7.55 -10.21,-5.52 -8.32,3.11 -9.26,-16.54 -11.35,-27.11 -1.26,-6.36 -11.95,-14.65 -14.56,1.16 -1.57,9.46 -1.22,24.32 -6.52,24.21 -5.01,-0.12 -15.85,-10.38 -22.62,-11.39 -4.91,-0.74 -10.34,6.14 -10.48,7.57 -0.08,0.73 0.38,8.11 1.74,9.9 4.59,5.98 20.25,11.87 34.38,19.81z"/>
  <path class="fil8" d="M76.38 107.66c-1.26,-3.43 5.18,-16.47 9.91,-18.06 8.38,-2.83 -2.91,-9.41 20.33,-9.41 10.99,0 2.96,2.06 6.24,8.15 2.44,4.54 3.22,14.52 1.68,19.61 -3.22,10.69 8.47,19.54 1.69,26.74 -3.57,3.8 -22.91,0.58 -27.67,3.97 -4.05,2.89 -10.7,-4.02 -10.7,-11.57 0,-3.1 -2.29,-18.8 -1.48,-19.43l0 0z"/>
  <path class="fil11 str3" d="M64.93 71.25l162.53 4.08 0.11 23.2c0.48,100.22 12.24,136.53 82.66,204.39 -101.73,-24.75 -204.81,-26.11 -237.15,-146.03 -7.26,-26.92 -8.15,-85.64 -8.15,-85.64l0 0zm10.09 8.94l140.82 3.53 0.1 20.1c0.43,89.48 12.28,125.64 72.8,188.55 -91.67,-25.13 -177.63,-30.36 -206.65,-137.99 -6.29,-23.32 -7.07,-74.19 -7.07,-74.19l0 0 0 0z"/>
  <path class="fil12" d="M139.6 189.26c-5.72,17.44 19.85,53 12.82,23.3 -1.8,-7.6 -0.17,-13.64 4.91,-14.09 5.18,-0.44 24.34,27.58 20.72,15.83 -1.37,-4.44 -22.1,-30.55 -8.5,-24.58 4.16,1.82 18.23,6.41 19.57,2.45 0.2,-0.6 0.28,-0.82 0.34,-1.21 1.96,-11.42 -36.58,-8.51 -25.5,-13.55 28.54,-12.99 -0.72,-2.76 -4.3,-3.37 -8.69,-1.5 -11.9,-15.76 -13.65,-23.24 -0.52,-2.22 -5.17,22.01 -11.94,21.85 -6.84,-0.15 -16.32,-3.54 -16.61,-0.87 -0.26,2.51 7.65,9.33 22.14,17.48l0 0z"/>
  <ellipse class="fil13 str4" cx="151.26" cy="191.88" rx="2.33" ry="2.62"/>
  <ellipse class="fil13 str4" cx="161.74" cy="185.76" rx="2.33" ry="2.62"/>
  <ellipse class="fil13 str4" cx="158.24" cy="192.17" rx="2.33" ry="2.62"/>
  <ellipse class="fil13 str4" cx="155.33" cy="185.76" rx="2.33" ry="2.62"/>
  <ellipse class="fil13 str4" cx="160.58" cy="178.77" rx="2.33" ry="2.62"/>
  <ellipse class="fil13 str4" cx="165.15" cy="191.65" rx="2.33" ry="2.62"/>
  <polyline class="fil3 str4" points="150.67,191.3 146.01,179.94 155.33,185.76 "/>
  <polyline class="fil3 str4" points="158.82,179.35 146.01,179.94 160.28,184.89 "/>
  <line class="fil3 str4" x1="144.55" y1="180.52" x2="157.66" y2= "191.01" />
  <line class="fil3 str4" x1="146.6" y1="181.4" x2="165.15" y2= "191.65" />
  <ellipse class="fil13 str4" cx="145.93" cy="180.65" rx="2.33" ry="2.62"/>
  <path class="fil14 str1" d="M114.83 371.61c22.21,7.18 58.73,20.61 60.9,21.33 18.19,6.02 27.75,13.91 13.95,16.19 -80.41,13.3 -104.14,-47 -74.85,-37.52z"/>
  <polygon class="fil15" points="139,328.23 131.04,332.41 261.71,374.29 270.78,367.44 "/>
  <path class="fil1" d="M107.86 383.45c0.99,1.63 7.86,14.06 14.03,8.14 2.12,-2.03 7.92,-7.59 1.85,-11.26 -3.58,-2.16 -5.33,-2.03 -10.57,-4.29 -1.71,-0.74 -10.42,-0.95 -5.31,7.41l0 0z"/>
  <path class="fil16" d="M108.11 381.74c0.94,1.53 7.37,13.16 13.14,7.63 1.98,-1.91 7.42,-7.11 1.74,-10.54 -3.36,-2.03 -4.99,-1.91 -9.9,-4.03 -1.6,-0.7 -9.76,-0.89 -4.98,6.94l0 0z"/>
  <path class="fil1" d="M178.92 408.3c-1.88,0.35 -16.68,3.88 -16.89,-4.66 -0.07,-2.94 0.88,-10.86 7.77,-9.19 4.07,0.99 4.93,3.27 10.53,4.4 2.77,0.57 15.27,6.3 -1.41,9.45l0 0z"/>
  <path class="fil16" d="M179.9 406.45c-1.75,0.44 -19.13,3.73 -19.33,-4.27 -0.07,-2.75 3.63,-9.06 10.08,-7.49 3.81,0.93 5.62,1.38 10.6,3.34 1.63,0.64 7.56,6.25 -1.35,8.42z"/>
  <path class="fil1" d="M157.33 397.07c0.28,-1.73 -0.57,-1.54 -13.1,-5.33 -9.09,-2.75 -13.72,-4.63 -13.98,-3.49 -3.11,4.17 -3.86,4.99 -6.03,7.5 -3.87,4.42 18.27,9.98 28.46,12.02 4.01,0.79 3.49,-3.5 4.65,-10.7z"/>
  <path class="fil16" d="M157.35 394.99c0.29,-1.72 -0.56,-1.55 -13.08,-5.33 -9.09,-2.74 -13.73,-4.63 -13.99,-3.5 -3.1,4.17 -3.86,5.01 -6.04,7.51 -3.85,4.42 18.27,9.97 28.46,12.01 4.01,0.8 3.5,-3.5 4.65,-10.69z"/>
  <polyline class="fil3 str2" points="81.03,343.21 246.8,402.48 247.37,426.94 "/>
  <line class="fil3 str2" x1="246.8" y1="402.48" x2="425.5" y2= "265.67" />
  <ellipse class="fil17 str5" cx="85.13" cy="354.12" rx="2.62" ry="3.49"/>
 </g>
</svg>
