<?xml version="1.0" encoding="UTF-8"?>
<!DOCTYPE svg PUBLIC "-//W3C//DTD SVG 1.1//EN" "http://www.w3.org/Graphics/SVG/1.1/DTD/svg11.dtd">
<!-- Creator: CorelDRAW 2017 -->
<svg xmlns="http://www.w3.org/2000/svg" xml:space="preserve" width="500px" height="500px" version="1.1" style="shape-rendering:geometricPrecision; text-rendering:geometricPrecision; image-rendering:optimizeQuality; fill-rule:evenodd; clip-rule:evenodd"
viewBox="0 0 500 500"
 xmlns:xlink="http://www.w3.org/1999/xlink">
 <defs>
  <style type="text/css">
   <![CDATA[
    .fil0 {fill:#26A918}
    .fil1 {fill:white}
   ]]>
  </style>
 </defs>
 <g id="Слой_x0020_1">
  <metadata id="CorelCorpID_0Corel-Layer"/>
  <circle class="fil0" cx="250" cy="250" r="239.39"/>
 </g>
 <g id="Слой_x0020_1_0">
  <metadata id="CorelCorpID_1Corel-Layer"/>
  <path class="fil1" d="M192.37 353.35c18.39,10.57 39.72,16.61 62.45,16.61 69.33,0 125.53,-56.2 125.53,-125.52 0,-69.33 -56.2,-125.53 -125.53,-125.53 -69.33,0 -125.53,56.2 -125.53,125.53 0,22.91 6.14,44.39 16.87,62.88l-19.66 66.94 65.87 -20.91zm-7.6 24.14l-89.19 28.3 26.44 -90.01c-11.54,-21.25 -18.09,-45.59 -18.09,-71.46 0,-82.9 67.27,-150.11 150.24,-150.11 82.98,0 150.24,67.21 150.24,150.11 0,82.9 -67.26,150.11 -150.24,150.11 -25.03,0 -48.64,-6.12 -69.4,-16.94z"/>
  <path class="fil1" d="M176.53 227.46c2.3,5.21 4.25,10.74 6.81,15.43 4.48,8.18 10.05,15.28 15.21,22.01 12.81,16.73 26.87,29.51 43.11,38.81 7.75,4.43 16.36,7.59 24.52,10.89 8.39,3.41 18.15,7.04 28.14,6.36 11.57,-0.46 30.73,-8.69 33.58,-21.79 0.6,-2.75 3.43,-14.73 0.45,-16.34 -5.08,-2.73 -10.48,-5.58 -15.88,-8.17 -6.97,-3.35 -13.77,-7.37 -20.08,-8.74 -4.01,-0.86 -5.68,3.37 -7.61,6.02 -2.73,3.75 -5.87,7.91 -8.85,10.89 -1.58,1.59 -3.4,3.86 -5.57,3.11 -12.8,-4.4 -24.64,-11.21 -34.14,-19.9 -9.45,-8.65 -17.31,-17.74 -22.24,-28.37 -1.3,-2.8 2.61,-6.12 6.13,-10.21 2.58,-3.02 4.68,-6.92 5.78,-9.08 1.66,-3.25 -1.34,-9.54 -4.42,-16.8 -3.58,-8.41 -7.62,-17.94 -10.33,-22.81 -0.87,-1.56 -2.68,-1.96 -3.18,-2.04 -3.09,-0.47 -6.87,-0.22 -11.31,-0.22 -2.62,0 -5.32,1.43 -7.41,3.51 -2.5,2.5 -4.55,4.27 -5.9,6.36 -9.79,15.19 -11.25,23.76 -6.81,41.08z"/>
 </g>
</svg>
