<?xml version="1.0" encoding="UTF-8"?>
<!DOCTYPE svg PUBLIC "-//W3C//DTD SVG 1.1//EN" "http://www.w3.org/Graphics/SVG/1.1/DTD/svg11.dtd">
<!-- Creator: CorelDRAW 2017 -->
<svg xmlns="http://www.w3.org/2000/svg" xml:space="preserve" width="500px" height="500px" version="1.1" style="shape-rendering:geometricPrecision; text-rendering:geometricPrecision; image-rendering:optimizeQuality; fill-rule:evenodd; clip-rule:evenodd"
viewBox="0 0 500 500"
 xmlns:xlink="http://www.w3.org/1999/xlink">
 <defs>
  <style type="text/css">
   <![CDATA[
    .str0 {stroke:black;stroke-width:2.36;stroke-miterlimit:22.9256}
    .fil0 {fill:#003333}
    .fil1 {fill:yellow}
   ]]>
  </style>
 </defs>
 <g id="Слой_x0020_1">
  <metadata id="CorelCorpID_0Corel-Layer"/>
  <rect class="fil0" x="4.17" y="178.22" width="491.66" height="163.23" rx="33.18" ry="43.23"/>
  <circle class="fil1 str0" cx="250" cy="250" r="182"/>
  <path class="fil0" d="M243.11 49.71l13.77 0c7.46,0.26 14.99,0.91 22.62,1.98 10.47,1.46 19.82,3.97 29.68,6.69 10.96,3.03 24.24,8.55 34.14,14.09 17.86,10 20.13,12.1 35.84,24.25 7.08,5.47 18.61,17.09 24.29,24.35 9.77,12.48 16.9,21.82 24.36,36.14 1.27,2.43 2.81,5.29 3.91,7.94 1.27,3.08 2.52,5.47 3.73,8.53 3.52,8.88 6.57,17.46 8.95,27.02 3.66,14.69 5.61,30.23 5.88,45.78l0 7.61c-0.15,8.56 -0.8,17.08 -1.97,25.41 -1,7.14 -2.33,13.53 -3.99,20.13 -3.17,12.6 -7.73,23.83 -12.72,35.51 -5.42,12.7 -14.63,26.54 -23,37.49 -6.06,7.92 -12.9,15.1 -19.93,22.17 -1.32,1.32 -1.84,1.7 -3.26,2.88l-6.48 5.77c-7.69,6.02 -12.52,9.79 -20.94,15.44l-11.25 6.74c-1.63,0.81 -2.52,1.44 -3.95,2.18 -13.84,7.21 -28.25,12.8 -43.49,16.59 -21.01,5.23 -34.48,5.88 -56.25,5.88 -19.69,0 -43.1,-4.78 -61.08,-11.68l-25.3 -11.07c-5.17,-2.9 -10.24,-5.68 -15.15,-8.96 -11.95,-8.01 -23.09,-16.67 -33.25,-26.84 -2.68,-2.68 -6.68,-6.56 -8.92,-9.47 -1.1,-1.41 -1.7,-1.92 -2.81,-3.33 -6.01,-7.69 -9.78,-12.52 -15.44,-20.94 -1.67,-2.49 -2.92,-4.78 -4.48,-7.36 -4.7,-7.76 -8.73,-15.88 -12.07,-24.31 -3.58,-9.01 -6.55,-17.39 -8.95,-27.02 -5.24,-21.01 -5.89,-34.48 -5.89,-56.25 0,-7.85 1.02,-15.7 1.98,-22.55 1.46,-10.48 3.97,-19.82 6.69,-29.68 0.74,-2.67 1.87,-6.12 2.95,-8.91 5.47,-14.15 11.64,-27.77 20.1,-40.39 9.44,-14.08 18.02,-24.37 29.9,-36.32 1.31,-1.32 1.84,-1.7 3.25,-2.88 1.24,-1.03 1.82,-1.94 3.16,-2.97l10.1 -8.3c2.28,-1.71 4.42,-3.45 6.81,-5.04 7.35,-4.9 14.73,-9.74 22.56,-13.82 2.43,-1.27 5.29,-2.81 7.94,-3.91 3.08,-1.27 5.47,-2.52 8.53,-3.73 22.84,-9.05 45.78,-14.03 69.43,-14.84zm-50.33 371.96c-2.32,-0.19 -12.72,-4.36 -15.27,-5.58 -8.27,-3.99 -12.62,-5.78 -20.53,-10.53 -7.61,-4.58 -11.78,-7.62 -18.92,-12.96l-13.86 -11.9c-34.13,-33.77 -55.28,-78.51 -55.28,-128.66 0,-14.68 0.92,-26.56 3.68,-38.42l3.27 0c-0.14,1.7 -1,4.86 -1.47,6.7 -0.6,2.36 -1.16,4.24 -0.75,6.96 0.78,5.22 0.98,9.98 1.85,14.92 0.64,3.63 3.56,4.2 8.37,7.98 13.22,10.38 25.48,27.09 32.18,42.21 1.51,3.4 1.14,3.06 -0.51,5.86 -9.94,16.89 -11.26,33.28 7.88,44.4 3.02,1.76 2.32,1.25 3.31,4.87 1.75,6.37 3.16,6.39 8.92,11.52 4.64,4.14 17.7,13.94 23.2,14.4 0.09,4.1 3.35,11.94 4.85,15.59 1.81,4.43 4.81,9.26 7.52,12.91 9.07,12.19 20.63,18.48 21.56,19.73zm170.44 -225.63l0.12 0.13c0,-0.01 -0.16,-0.09 -0.12,-0.13zm12.73 -8.52c1.6,-2.39 1.52,-2.88 0.31,-5.73 -3.64,-8.57 -1.51,-2.39 0.05,-11.9 1.63,-9.98 3.39,-4.87 8.47,-0.31 2.44,2.19 4.18,2.76 8.69,2.76 1.48,2.21 2.32,4.1 4.5,4.11 3.19,0.01 3.03,-2.83 2.45,-5.34 0.33,0.22 9.6,9.77 9.81,0.41 1.3,0.63 1.96,0.63 3.27,0 1.49,2.83 2.59,6.17 4.08,8.99 -1.41,0.12 -5.43,2.03 -7.13,2.68 -3.64,1.39 -3.08,2.13 -3.08,6.72 -1.69,-0.14 -2.73,-1.28 -3.92,-2.21 -4.56,-3.58 -7.5,-8.15 -10.37,-8.03 -1.38,0.06 -6.66,3.14 -8.33,3.98 -1.51,0.75 -2.54,1.35 -4.12,2 -1.82,0.76 -2.79,1.43 -4.68,1.87zm-219.55 -18.86c3.99,-2.68 4.71,-0.29 8.17,0 0.49,5.88 4.65,10.9 4.91,11.85 -2.77,1.86 -5.1,3.69 -8.18,5.32 0.54,-6.42 5.32,-4.45 5.32,-8.18 0,-3.8 -3.64,-3.27 -6.14,-3.27 0,-4.23 -2.41,-3.43 -4.08,-5.72zm182.3 -13.9l0 0zm-1.23 -2.86l0 0zm21.26 -24.52l0 0zm3.27 -5.32l3.82 7.29c-2.4,0.12 -2.52,0.83 -3.82,1.7l-3.27 -3.67c4.27,-0.1 3.51,-2.37 3.27,-5.32zm-0.41 -0.82l0.41 0.82 -0.41 -0.82zm-0.41 -0.81l0.41 0.81 -0.41 -0.81zm-0.41 -0.82l0.41 0.82 -0.41 -0.82zm-132.84 -0.41c2.95,0 2.03,0.34 4.09,0.82 -0.32,1.37 -1.44,3.3 -2.87,3.68 -0.02,-1.1 -0.85,-3.67 -1.22,-4.5zm132.43 -0.41l0.41 0.82 -0.41 -0.82zm0 0l0 0zm-140.61 0.41l0.55 -2.59c0.5,0.5 0.18,0.23 0.65,0.58 1.34,1 0.51,-0.38 1.66,1.19 -1.51,0.36 -1.14,0.68 -2.86,0.82zm139.79 -1.64l0 0zm0 0l0 0zm-265.27 40.47c0.4,-1.74 6.36,-10.52 7.7,-12.32 8.06,-10.86 15.72,-20.31 25.91,-29.28 1.53,-1.35 1.87,-0.9 3.58,-1.73 0.36,1.35 0.6,1.35 1.64,2.05 -2.09,3.12 -0.27,4.3 0.41,5.31l-14.66 13.55c-5.41,4.32 -14.29,13.37 -19.58,18.02 -1,0.89 -1.44,1.03 -2.46,2.04 -0.94,0.94 -1.49,1.65 -2.54,2.36zm116.08 -44.14c-0.34,1.45 -1.68,3.2 -2.51,4.43 -1.1,1.62 -2.22,2.11 -4.85,2.11 -0.33,-1.25 -0.77,-1.3 -1.63,-2.05 4.79,-1.11 6.72,-3.89 8.99,-4.49zm0 0l0 0zm8.18 -6.13c1.83,0.2 1.02,-0.62 1.22,1.22l-1.22 -1.22zm0 0l0 0zm-1.64 -0.82c0.44,-0.44 1.55,0.65 0.46,0.21 -0.01,0 -1.14,0.47 -0.46,-0.21zm-14.71 -3.27c1.23,0.33 0.89,-0.01 1.22,1.23 -1.7,-0.46 -0.67,-0.18 -1.22,-1.23zm-42.1 -10.63l0 0zm0 0c1.97,-1.71 11.3,-6.04 13.89,-7.35 11.29,-5.72 25.2,-9.92 37.86,-12.84 9.67,-2.22 15.88,-2.57 25.44,-3.58 11.14,-1.18 29.29,-0.25 40.29,1.52 17.05,2.74 34.58,7.87 49.69,15.31 1.69,0.83 3.29,1.33 5.04,2.31 1.75,0.99 3.05,1.68 4.78,2.58 1.2,0.63 3.8,1.92 4.49,2.87 -6.06,-0.51 -6.4,-4.5 -11.39,-0.76 -3.59,2.68 -5.29,3.4 -1.82,7.43 0.64,0.75 0.58,0.84 1.26,1.6 14.69,16.47 5.32,14.01 11.03,20.45l5.72 4.9c4.26,3.62 4.39,0.06 7.46,0.71 -0.74,3.18 0.98,6.78 3.68,8.59 -1.33,1.99 -1.23,0.67 -1.23,4.08 -8.25,-0.68 -8.97,-12.87 -14.65,-9.76 -5.76,3.15 -3.89,5.99 -2.11,9.36 -1.99,1.33 -5.53,5.69 -4.24,8.75 0.5,1.21 0.64,1.22 0.97,2.69l1.23 0c-0.37,0.81 -0.41,0.85 -0.06,1.67 0.68,1.57 0.38,0.86 1.29,1.19 0.09,4.25 5.3,6.04 6.18,0.46 0.28,-1.74 0.48,-1.96 1.58,-2.91 4.26,3.12 1.08,4.63 5.31,6.13 2.37,0.84 3.84,4.2 5.26,6.22 1.8,2.56 1.08,2.72 -6.08,2.77 -12.4,0.08 -3.82,8.51 -0.22,16.21 0.92,1.98 -0.88,1.7 1.61,8.16 0.58,1.48 1.25,2.75 2.78,2.94 0.98,0.12 7.91,-2.3 8.92,-2.78 -1.39,5.95 -1.38,1.55 -3.41,4.33l-8.03 18.56c-3.62,8.14 -8.14,15.47 -12.92,22.64 -1.85,2.77 -7.14,8.25 -3.74,11.18 5.28,4.56 3.68,1.59 5.09,12.89 1.49,11.88 -1.64,10.31 -1.8,14.65 -0.1,2.53 4.6,5.39 6.32,7 0.92,0.85 1.25,1.36 2.31,2.18l11.79 10.28c2.81,2.51 10.65,9.21 14.53,6.57 1.67,-1.14 2.05,-4.15 3.88,-5.12 1,-0.52 5.62,-1.42 7.15,-1.83 2.18,-0.6 4.64,-1.33 6.98,-2.01 4.44,-1.29 8.97,-2.93 13.54,-4.05 6.65,-1.62 7.03,0.29 6.97,9.42l-0.84 12.25c-0.66,13.8 -1.59,19.38 -8.6,31.46 -2.67,4.59 -5.95,13.09 -9.03,17.13 -1.34,1.76 -2.6,3.28 -3.98,5.01l-8.35 9.64c-1.24,1.48 -2.86,2.9 -4.27,4.31 -0.85,0.84 -1.39,1.42 -2.24,2.25l-4.71 4.29c-1.01,0.89 -1.43,1.02 -2.45,2.04 -6.43,6.39 -18.13,13.91 -25.93,18.62 -18.38,11.1 -42.22,19.71 -65.2,23.5 -13.55,2.23 -28.32,2.53 -42.2,1.49 -2.53,-0.19 -5.39,-0.79 -8.2,-0.79l-2.09 -2.82c-0.31,-0.24 -0.49,-0.33 -0.75,-0.47 -3.01,-1.63 -4.52,-2.52 -4.52,-6.52 4.6,0 4.91,-0.01 4.91,-4.5 1.01,-0.48 2.3,-0.8 3.33,-1.17 1.35,-0.48 2.06,-1.02 3.34,-1.59 2.8,-1.26 2.97,1.19 6.82,-1.73 2.71,-2.05 2.9,-1.88 2.86,-6.54 -0.03,-4.48 -0.5,-5.12 -0.82,-9 5.12,-2.7 15.83,-9.06 19.06,-13.64 0.85,-1.21 1.06,-2.32 1,-4.34 -0.22,-7.54 -3.54,-1.41 3.77,-10.1 6.61,-7.86 8.05,-9.77 8.05,-22.6 -3.49,-2.34 -4.78,-1.61 -8.96,-2.08 -11.62,-1.29 -23.17,-5.34 -32.71,-11.43 -2.21,-1.41 -4.11,-3.22 -6.19,-4.84 -2.56,-1.99 -5.64,-1.11 -8.6,-0.1 -2.62,0.88 -8.32,5.06 -6.75,2.61 0.25,-0.39 0.45,-0.47 0.75,-0.79 2.21,-2.4 0.38,-5.48 -0.89,-7.9 -9.94,-19.1 -16.56,-9.48 -22,-14.78 -2.61,-2.54 -2.25,-6.8 -5.07,-9.65 -1.32,-1.32 -2.5,-2.22 -3.91,-3.45 -1.28,-1.13 -2.79,-2.17 -4.25,-3.11 -1.4,-0.89 -3.14,-1.88 -4.69,-2.67 -18.49,-9.43 -15.05,-2.75 -21.78,-6.82 -2.1,-1.28 -7.25,-5.23 -9.44,-5.32 -7.21,-0.31 -0.58,10.17 -19.46,-2.58 -1.56,-1.05 -0.9,-0.42 -1.81,-1.86 -5.89,-9.29 -11.62,-10.61 -11.85,-13.94 -0.06,-0.97 0.61,-5.92 0.82,-6.55 1.06,-3.14 4.8,-5.73 4.55,-10.2 -0.13,-2.34 -1.85,-3.04 -4.52,-2.89 -4.37,0.23 -6.37,3.31 -9.41,5.34 -2.42,-2.1 -1.89,-3.53 -2.34,-7.05 -0.35,-2.68 -0.11,-6.85 -0.11,-9.7 4.03,-2.7 5.93,-7.62 8.18,-11.86 11.94,0 9.64,2.62 15.01,4.66 1.85,0.7 3.69,-0.69 5.01,-1.39 0.31,3.69 1.86,4.09 5.73,4.09 0,6.72 0.81,11.73 0.81,18.39 -1.5,-0.79 -1.74,-1.23 -3.71,-1.6 -1.66,-0.3 -8.26,-1.22 -9.65,-0.32 -5.36,3.48 4.99,9.45 8.94,10.85 4.96,1.76 2.71,4.81 9.87,6.88 4.39,1.27 5.3,1.81 8.17,-1.38 2.27,-2.53 1.03,-3.52 -0.82,-5.15 -2.53,-2.24 -3.62,-6.5 -7.48,-6.82l0 -0.82c1.77,-0.48 3.93,-3.1 5.49,-4.32 1.62,-1.28 4.4,-2.86 3.7,-5.64 -0.66,-2.6 -2.95,-4.24 -1.84,-7.18 0.84,-2.21 3.75,-3.22 6,-4.26 1.98,-0.91 4.73,-2.66 6.55,-3.28 4.33,-1.46 7.22,3.29 11.16,-1.89l6.85 -8.28c1.88,-2.17 3.34,-2.49 6.12,-3.69 7.38,-3.18 14.39,-5.2 22.33,-7.51 2.82,-0.82 21.33,-5.14 22.61,-6.84 0.86,-1.12 0.61,-2.63 -0.15,-3.63 -0.84,-1.11 -2.18,-1.39 -3.8,-1.52 0.25,-3.06 2.77,-1.68 2.86,-5.73 5.11,0 3.25,0.22 6.37,2.63 3.9,3.02 5.03,9.28 10.27,2.98 2.34,-2.82 2.98,-2.29 2.98,-6.42 -1.34,-0.9 -0.57,-1.07 -2.45,-1.23 0.91,-3.42 13.71,-8.34 10.93,-12.94 -1.45,-2.4 -4.37,-1.16 -6.85,-0.96 -0.06,-2.91 -1.87,-3.85 -2.27,-5.89 -0.74,-3.74 6.59,-7.07 -3.43,-9.66 -1.8,-0.47 -6.03,-0.82 -7.79,0.02 -1.28,-2.43 -3.82,-6.83 -5.82,-8.48 -3.95,-3.27 -7.55,-1.67 -7.66,3.58 -6.54,0 -4.59,0.68 -7.86,3.99l-8.8 8.78c-1.27,1.29 -2.04,1.71 -3.28,2.85 -1.69,1.57 -4.05,5.05 -6.22,5.63 -0.33,-3.92 -3.27,-8.92 -3.27,-15.94 3.89,-0.91 23.57,-13.59 27.95,-15.39 2.63,-1.08 2.69,0.06 5.15,0.27 -0.14,1.73 -0.7,2.36 0.41,3.65 0.85,0.98 2.26,1.24 4.08,1.26 5.68,0.07 4.16,0.44 6.25,4.38 0.66,1.23 1.28,1.87 3.15,1.78 4.02,-0.18 4.22,-8.16 7.78,-8.21 3.18,-0.05 4.5,7.03 9.24,0.66 1.62,-2.18 5.1,-8.91 0.16,-10.06 0,-7.56 -1.74,-3.75 -2.83,-7.39 -1.17,-3.88 -2.12,-3.06 -6.04,-4.59 -2.35,-0.91 -3.6,-0.53 -4.21,-3.15 2.82,0 5.9,-1.24 8.01,-2.24 3.14,-1.48 0.31,-0.79 3.13,-0.32 1.87,0.3 2.78,-0.5 3.17,-1.93 4.42,2.96 3.09,-1.41 8.52,5.78 1.78,2.37 1.63,1.58 1.3,4.87 -0.17,1.67 -0.14,2.12 0.48,3.15l1.55 2.14c-1.83,7.84 -5.47,4.22 -1.58,15.07 1.5,4.19 1.33,3.86 6.39,7.09 2.69,1.72 7.88,2.52 9.43,-1.38 2.11,-5.3 1.44,-1.03 11.69,-8.75l14.14 -13.24c1.1,-1.47 0.93,-2.56 1.11,-4.15 0.21,-1.84 2.21,-3.31 -0.71,-5.27 3.22,-4.81 -3.3,-10.32 -4.16,-11.38 -1.34,-1.67 -2.29,-3.19 -3.44,-5.14l-1.78 -4.36c-1.05,-1.96 -1.39,-1.1 -3.98,-1.74 -3.47,-0.85 -5.43,-4.28 -9.59,-2.37 -1.5,0.69 -0.89,0.8 -2.13,1.14 -2.28,0.65 -3.64,-0.1 -4.35,2.6 -4.51,0 -3.99,0.09 -7.23,-1.36 -2.83,-1.27 -4.79,-0.66 -5.45,2.17 -3.99,-0.33 -0.44,-3.49 -12.9,-0.64 -1.84,0.42 -5.12,0.26 -6.16,2.04 -1.32,2.27 0.62,4.39 1.08,6.37 -0.54,0.74 -3.52,2.79 -4.48,3.29l-4.51 1.21c-0.67,0.07 -3.83,0.3 -3.14,3.5 0.33,1.54 1.09,2.08 2.73,2.22 -1.26,1.71 -0.74,0.16 -3.28,0 -1.57,-0.11 -3.11,0.71 -4.08,1.22 0,-1.01 -0.25,-3.13 -0.23,-3.31 0.19,-1.96 3.03,-3.25 0.23,-8.54 2.89,-0.77 3.68,-4.12 3.68,-7.77 -3.52,-2.35 -3.54,-2.04 -7.44,0.33l-5.22 2.96c-0.77,0.47 -0.88,0.7 -1.65,1.21 0,2.64 0.19,2.54 1.23,4.09l3.68 0c-0.67,0.58 -2.35,2.9 -3.27,2.45 -1.63,-0.78 -0.22,-2.9 -2.71,-3.83 -1.27,-0.47 -1.63,-0.11 -2.94,-0.33 -2.11,-0.37 -0.47,-0.9 -2.88,-0.72 -1.64,0.11 -5.77,1.81 -7.11,3.14 -1.07,1.07 -0.71,1.02 -0.71,2.97 -2.35,-1.58 -4.24,-3.82 -6.34,-0.21 -0.43,0.72 -0.36,0.77 -0.86,1.59 -0.63,1.02 -0.65,0.73 -1.05,1.81 -0.41,1.13 -0.33,3.25 -0.33,4.98 -2.06,0.48 -4.52,0.83 -4.86,2.95 -0.38,2.39 1.91,3.89 2.81,5.22 -1.79,-0.03 -1.27,-0.27 -2.86,-0.4 0,-3.64 -1.22,-4.63 -4.5,-4.91 0.88,-3.75 0.12,-3.99 -3.11,-5.06 -4.53,-1.5 -2.92,-1.32 -7.51,-0.25 3.29,-6.23 -2.12,-6.13 -7.36,-6.13 0.09,-4.03 0.51,-0.8 -0.77,-4.96l-1.27 -2.81 -3.27 0z"/>
  <rect class="fil1" x="21.38" y="197.39" width="457.25" height="124.88" rx="25.24" ry="27.06"/>
 </g>
</svg>
