<?xml version="1.0" encoding="UTF-8"?>
<!DOCTYPE svg PUBLIC "-//W3C//DTD SVG 1.1//EN" "http://www.w3.org/Graphics/SVG/1.1/DTD/svg11.dtd">
<!-- Creator: CorelDRAW 2017 -->
<svg xmlns="http://www.w3.org/2000/svg" xml:space="preserve" width="500px" height="500px" version="1.1" style="shape-rendering:geometricPrecision; text-rendering:geometricPrecision; image-rendering:optimizeQuality; fill-rule:evenodd; clip-rule:evenodd"
viewBox="0 0 500 500"
 xmlns:xlink="http://www.w3.org/1999/xlink">
 <defs>
  <style type="text/css">
   <![CDATA[
    .str0 {stroke:black;stroke-width:4;stroke-miterlimit:22.9256}
    .fil80 {fill:none;fill-rule:nonzero}
    .fil2 {fill:#CBCD92}
    .fil1 {fill:black}
    .fil0 {fill:#00CCFF}
    .fil3 {fill:black;fill-rule:nonzero}
    .fil4 {fill:#E44F49;fill-rule:nonzero}
    .fil5 {fill:#E55247;fill-rule:nonzero}
    .fil6 {fill:#E55546;fill-rule:nonzero}
    .fil7 {fill:#E65844;fill-rule:nonzero}
    .fil79 {fill:#E65845;fill-rule:nonzero}
    .fil8 {fill:#E65C43;fill-rule:nonzero}
    .fil9 {fill:#E75F41;fill-rule:nonzero}
    .fil78 {fill:#E76140;fill-rule:nonzero}
    .fil10 {fill:#E76240;fill-rule:nonzero}
    .fil11 {fill:#E8653E;fill-rule:nonzero}
    .fil12 {fill:#E9683D;fill-rule:nonzero}
    .fil77 {fill:#E96A3C;fill-rule:nonzero}
    .fil13 {fill:#E96B3B;fill-rule:nonzero}
    .fil14 {fill:#EA6F3A;fill-rule:nonzero}
    .fil15 {fill:#EA7238;fill-rule:nonzero}
    .fil76 {fill:#EB7337;fill-rule:nonzero}
    .fil16 {fill:#EB7537;fill-rule:nonzero}
    .fil17 {fill:#EB7835;fill-rule:nonzero}
    .fil18 {fill:#EC7B33;fill-rule:nonzero}
    .fil75 {fill:#EC7C33;fill-rule:nonzero}
    .fil19 {fill:#ED7E32;fill-rule:nonzero}
    .fil20 {fill:#ED8230;fill-rule:nonzero}
    .fil21 {fill:#EE852F;fill-rule:nonzero}
    .fil22 {fill:#EE882D;fill-rule:nonzero}
    .fil23 {fill:#EF8B2C;fill-rule:nonzero}
    .fil24 {fill:#EF8E2A;fill-rule:nonzero}
    .fil25 {fill:#F09129;fill-rule:nonzero}
    .fil26 {fill:#F19427;fill-rule:nonzero}
    .fil74 {fill:#F19726;fill-rule:nonzero}
    .fil27 {fill:#F19826;fill-rule:nonzero}
    .fil28 {fill:#F29B24;fill-rule:nonzero}
    .fil73 {fill:#F29C24;fill-rule:nonzero}
    .fil72 {fill:#F29E22;fill-rule:nonzero}
    .fil29 {fill:#F29E23;fill-rule:nonzero}
    .fil30 {fill:#F3A121;fill-rule:nonzero}
    .fil31 {fill:#F3A420;fill-rule:nonzero}
    .fil71 {fill:#F4A61F;fill-rule:nonzero}
    .fil32 {fill:#F4A71E;fill-rule:nonzero}
    .fil70 {fill:#F4A91D;fill-rule:nonzero}
    .fil33 {fill:#F4AB1C;fill-rule:nonzero}
    .fil69 {fill:#F5AB1C;fill-rule:nonzero}
    .fil34 {fill:#F5AE1B;fill-rule:nonzero}
    .fil68 {fill:#F6B01A;fill-rule:nonzero}
    .fil35 {fill:#F6B119;fill-rule:nonzero}
    .fil67 {fill:#F6B318;fill-rule:nonzero}
    .fil36 {fill:#F6B418;fill-rule:nonzero}
    .fil66 {fill:#F6B517;fill-rule:nonzero}
    .fil37 {fill:#F7B716;fill-rule:nonzero}
    .fil65 {fill:#F7B816;fill-rule:nonzero}
    .fil38 {fill:#F7BA15;fill-rule:nonzero}
    .fil64 {fill:#F7BB15;fill-rule:nonzero}
    .fil39 {fill:#F8BD13;fill-rule:nonzero}
    .fil63 {fill:#F8C012;fill-rule:nonzero}
    .fil40 {fill:#F8C112;fill-rule:nonzero}
    .fil62 {fill:#F9C211;fill-rule:nonzero}
    .fil41 {fill:#F9C410;fill-rule:nonzero}
    .fil61 {fill:#F9C510;fill-rule:nonzero}
    .fil60 {fill:#FAC70E;fill-rule:nonzero}
    .fil42 {fill:#FAC70F;fill-rule:nonzero}
    .fil43 {fill:#FACA0D;fill-rule:nonzero}
    .fil59 {fill:#FBCC0C;fill-rule:nonzero}
    .fil44 {fill:#FBCD0C;fill-rule:nonzero}
    .fil58 {fill:#FBCF0B;fill-rule:nonzero}
    .fil45 {fill:#FBD00A;fill-rule:nonzero}
    .fil57 {fill:#FBD209;fill-rule:nonzero}
    .fil46 {fill:#FCD408;fill-rule:nonzero}
    .fil47 {fill:#FCD707;fill-rule:nonzero}
    .fil56 {fill:#FDD906;fill-rule:nonzero}
    .fil48 {fill:#FDDA05;fill-rule:nonzero}
    .fil55 {fill:#FDDC05;fill-rule:nonzero}
    .fil49 {fill:#FEDD04;fill-rule:nonzero}
    .fil54 {fill:#FEDE03;fill-rule:nonzero}
    .fil50 {fill:#FEE002;fill-rule:nonzero}
    .fil53 {fill:#FEE102;fill-rule:nonzero}
    .fil51 {fill:#FFE301;fill-rule:nonzero}
    .fil52 {fill:#FFE500;fill-rule:nonzero}
   ]]>
  </style>
    <clipPath id="id0" style="clip-rule:nonzero">
     <path d="M52.06 215.66l-15.8 0 0 -54.12 -18.43 0 0 -13.54 52.66 0 0 13.54 -18.43 0 0 54.12zm41.69 -40.11c-2.33,0 -3.51,1.29 -3.51,3.87l0 5.3 14.92 0 0 -5.3c0,-2.58 -1.17,-3.87 -3.51,-3.87l-7.9 0zm-18.87 3.3c0,-4.82 1.25,-8.57 3.73,-11.3 2.49,-2.72 5.93,-4.08 10.32,-4.08l17.55 0c4.39,0 7.83,1.36 10.31,4.1 2.49,2.74 3.74,6.53 3.74,11.36l0 17.88 -30.29 0 0 3.66c0,0.92 0.29,1.68 0.88,2.29 0.58,0.61 1.32,0.92 2.2,0.92 2.51,0 5.24,0 8.2,0 2.96,0 5.73,0 8.3,0 2.98,-0.38 5.96,-0.73 8.95,-1.1l0 12.12c-3.4,0.51 -6.87,0.76 -10.45,0.76 -3.03,0.58 -6.34,0.88 -9.92,0.88 -3.56,0 -7.01,0 -10.35,0 -3.98,0 -7.17,-1.32 -9.57,-3.94 -2.4,-2.63 -3.6,-6.14 -3.6,-10.48l0 -23.07zm107.97 -1.36c-1,0 -2.08,0.09 -3.25,0.28 -1.17,0.19 -2.25,0.42 -3.25,0.68 -1.16,0.26 -2.37,0.57 -3.6,0.97l0 36.24 -15.36 0 0 -34.79c0,-0.97 -0.29,-1.78 -0.88,-2.42 -0.58,-0.65 -1.32,-0.96 -2.19,-0.96l-0.43 0c-1,0 -2.08,0.09 -3.26,0.28 -1.16,0.19 -2.24,0.42 -3.24,0.68 -1.17,0.26 -2.37,0.57 -3.61,0.97l0 36.24 -15.35 0 0 -51.23 13.6 0 0.88 4.83c1.52,-1.09 3.16,-2.06 4.91,-2.9 1.53,-0.7 3.23,-1.37 5.1,-1.98 1.87,-0.61 3.8,-0.91 5.79,-0.91l0.88 0c2.63,0 4.84,0.54 6.62,1.64 1.79,1.1 3.23,2.48 4.35,4.15 1.46,-1.09 3.1,-2.06 4.91,-2.9 1.52,-0.7 3.33,-1.37 5.4,-1.98 2.08,-0.61 4.35,-0.91 6.81,-0.91l0.88 0c3.98,0 7.16,1.31 9.56,3.96 2.41,2.65 3.6,6.15 3.6,10.53l0 37.7 -15.36 0 0 -34.79c0,-0.97 -0.29,-1.78 -0.88,-2.42 -0.58,-0.65 -1.32,-0.96 -2.19,-0.96l-0.44 0zm42.13 25.13l13.17 0c2.34,0 3.51,-1.29 3.51,-3.87l0 -17.88c0,-0.97 -0.29,-1.78 -0.88,-2.42 -0.58,-0.65 -1.31,-0.96 -2.19,-0.96l-3.08 0c-1.11,0 -2.28,0.09 -3.5,0.28 -1.23,0.19 -2.37,0.42 -3.43,0.68 -1.23,0.26 -2.43,0.57 -3.6,0.97l0 23.2zm0 13.04l0 16.43 -15.36 0 0 -67.66 13.61 0 0.88 4.83c1.52,-1.09 3.15,-2.06 4.91,-2.9 1.52,-0.7 3.21,-1.37 5.1,-1.98 1.87,-0.61 3.79,-0.91 5.79,-0.91l3.94 0c3.99,0 7.17,1.31 9.58,3.96 2.39,2.65 3.59,6.15 3.59,10.53l0 22.24c0,4.83 -1.23,8.61 -3.73,11.36 -2.49,2.74 -5.92,4.1 -10.31,4.1l-18 0zm40.02 -74.27c9.94,-0.01 19.88,-0.02 29.82,-0.02 0.87,0 1.6,-0.3 2.18,-0.91 1.92,-2.04 0.33,-5.51 -2.14,-5.51l-15.7 0c-3.95,0 -7.11,-1.31 -9.49,-3.93 -2.38,-2.62 -3.57,-6.1 -3.57,-10.45l0 -3.35c0,-4.35 1.19,-7.83 3.57,-10.45 2.38,-2.62 5.54,-3.93 9.49,-3.93l29.59 0 0 12.46 -24.37 0c-0.88,0 -1.6,0.32 -2.18,0.96 -0.58,0.64 -0.87,1.44 -0.87,2.4 0,0.96 0.29,1.75 0.87,2.39 0.58,0.64 1.3,0.96 2.18,0.96l15.66 0c3.95,0 7.11,1.3 9.49,3.9 2.38,2.59 3.56,6.04 3.56,10.35l0 3.8c0,4.31 -1.18,7.76 -3.56,10.35 -2.38,2.6 -5.54,3.9 -9.49,3.9 -3.71,0 -16.09,-0.06 -19.98,-0.06l0.23 45.46c0,0.97 0.29,1.78 0.87,2.42 0.59,0.65 1.31,0.96 2.2,0.96l5.27 0 0 12.57c-1.18,0.19 -2.37,0.35 -3.61,0.48 -1.04,0.13 -2.19,0.25 -3.42,0.34 -1.23,0.1 -2.4,0.15 -3.51,0.15 -3.98,0 -7.17,-1.33 -9.57,-3.97 -2.39,-2.63 -3.61,-6.15 -3.6,-10.53l0.08 -60.74zm48.2 61.7c1.11,0 2.28,-0.09 3.51,-0.28 1.23,-0.19 2.37,-0.42 3.42,-0.68 1.24,-0.26 2.44,-0.59 3.61,-0.97l0 -5.79 -12.74 0c-0.87,0 -1.6,0.31 -2.19,0.96 -0.58,0.64 -0.87,1.45 -0.87,2.42l0 0.96c0,0.97 0.29,1.78 0.87,2.42 0.59,0.64 1.32,0.96 2.19,0.96l2.2 0zm-7.46 13.54c-3.99,0 -7.17,-1.32 -9.57,-3.97 -2.4,-2.63 -3.6,-6.15 -3.6,-10.53l0 -4.35c0,-4.38 1.2,-7.9 3.6,-10.53 2.4,-2.65 5.58,-3.97 9.57,-3.97l18 0 0 -3.7c0,-0.94 -0.3,-1.71 -0.88,-2.32 -0.59,-0.63 -1.32,-0.94 -2.19,-0.94 -2.35,0 -4.88,0 -7.6,0 -2.72,0 -5.28,0.14 -7.68,0.45 -2.81,0.4 -5.62,0.61 -8.43,0.61l0 -11.94c3.22,-0.54 6.5,-0.82 9.83,-0.82 2.87,-0.57 6,-0.87 9.4,-0.87 3.39,0 6.63,0 9.74,0 3.98,0 7.17,1.33 9.57,3.96 2.39,2.62 3.6,6.11 3.6,10.46l0 37.49 -13.62 0 -0.87 -4.83c-1.52,1.09 -3.16,2.06 -4.92,2.9 -1.52,0.71 -3.21,1.37 -5.08,1.98 -1.87,0.61 -3.81,0.92 -5.8,0.92l-3.07 0zm59.26 -62.59l-0.01 10.39 10.97 0 0 13.06 -10.97 0 0 22.22c0,0.97 0.29,1.78 0.88,2.42 0.58,0.64 1.32,0.96 2.19,0.96l11.41 0 0 12.62c-1.69,0.26 -3.48,0.39 -5.35,0.39 -1.58,0.29 -3.37,0.43 -5.36,0.43 -1.98,0 -3.97,0 -5.97,0 -3.97,0 -7.17,-1.32 -9.56,-3.94 -2.41,-2.65 -3.6,-6.15 -3.6,-10.53l0 -24.57 -5.27 0 0 -13.06 4.17 0 0.25 -48.65 -5.22 0 0 -12.94 6.94 0.16 0.02 -11.61 13.49 0 0 11.45 10.88 0 0 12.94 -10.88 0 0 22.04c0,0.96 0.29,1.76 0.87,2.4 0.58,0.64 1.31,0.96 2.18,0.96l11.31 0 0 12.5c-1.68,0.26 -11.52,0.36 -13.37,0.36zm37.73 21.51c-2.33,0 -3.51,1.29 -3.51,3.87l0 5.3 14.92 0 0 -5.3c0,-2.58 -1.17,-3.87 -3.5,-3.87l-7.91 0zm-18.87 3.3c0,-4.82 1.25,-8.57 3.73,-11.3 2.49,-2.72 5.93,-4.08 10.32,-4.08l17.55 0c4.39,0 7.83,1.36 10.32,4.1 2.48,2.74 3.73,6.53 3.73,11.36l0 17.88 -30.29 0 0 3.66c0,0.92 0.3,1.68 0.88,2.29 0.59,0.61 1.32,0.92 2.2,0.92 2.52,0 5.24,0 8.2,0 2.96,0 5.73,0 8.3,0 2.99,-0.38 5.96,-0.73 8.95,-1.1l0 12.12c-3.4,0.51 -6.87,0.76 -10.45,0.76 -3.03,0.58 -6.34,0.88 -9.92,0.88 -3.56,0 -7.01,0 -10.35,0 -3.98,0 -7.17,-1.32 -9.56,-3.94 -2.41,-2.63 -3.61,-6.14 -3.61,-10.48l0 -23.07zm66.27 1.53c0,0.97 0.3,1.78 0.88,2.42 0.59,0.64 1.32,0.96 2.2,0.96l15.79 0c3.99,0 7.18,1.31 9.58,3.94 2.39,2.61 3.59,6.08 3.59,10.44l0 3.83c0,4.35 -1.2,7.83 -3.59,10.44 -2.4,2.62 -5.59,3.93 -9.58,3.93 -3.74,0 -7.57,0 -11.49,0 -3.92,0 -7.52,-0.3 -10.8,-0.88 -3.79,0 -7.48,-0.25 -11.06,-0.75l0 -12.53c3.16,0.37 6.35,0.74 9.56,1.11 2.82,0 5.86,0 9.14,0 3.27,0 6.41,0 9.4,0 0.87,0 1.6,-0.31 2.18,-0.92 0.59,-0.62 0.89,-1.4 0.89,-2.32l0 -3.24 -18.87 0c-3.99,0 -7.18,-1.32 -9.58,-3.96 -2.4,-2.64 -3.59,-6.16 -3.59,-10.54l0 -3.38c0,-4.39 1.19,-7.89 3.59,-10.54 2.4,-2.63 5.59,-3.96 9.58,-3.96l29.84 0 0 12.57 -24.58 0c-0.88,0 -1.61,0.31 -2.2,0.96 -0.58,0.65 -0.88,1.46 -0.88,2.42zm-327.63 -93.83l10.45 43.13 9.13 -43.13 16.97 0 -16.53 67.09 -16.54 0 -10.44 -41.69 -10.45 41.69 -16.53 0 -16.54 -67.09 16.97 0 9.14 43.13 10.45 -43.13 13.92 0zm57.87 27.32c-2.32,0 -3.48,1.27 -3.48,3.83l0 5.27 14.8 0 0 -5.27c0,-2.56 -1.16,-3.83 -3.48,-3.83l-7.84 0zm-18.71 3.27c0,-4.78 1.24,-8.5 3.7,-11.2 2.47,-2.7 5.88,-4.05 10.23,-4.05l17.4 0c4.36,0 7.77,1.35 10.23,4.07 2.47,2.71 3.7,6.47 3.7,11.26l0 17.73 -30.03 0 0 3.63c0,0.91 0.29,1.66 0.87,2.26 0.58,0.61 1.31,0.92 2.18,0.92 2.49,0 5.21,0 8.14,0 2.93,0 5.67,0 8.22,0 2.96,-0.37 5.92,-0.73 8.88,-1.09l0 12.01c-3.37,0.51 -6.82,0.76 -10.36,0.76 -3.01,0.58 -6.29,0.87 -9.83,0.87 -3.54,0 -6.97,0 -10.27,0 -3.95,0 -7.11,-1.31 -9.49,-3.92 -2.38,-2.6 -3.57,-6.06 -3.57,-10.38l0 -22.87zm83.99 1.04c0,-0.96 -0.29,-1.76 -0.87,-2.4 -0.58,-0.64 -1.31,-0.96 -2.18,-0.96l-2.17 0c-1.46,0 -2.79,0.05 -4.01,0.15 -1.22,0.09 -2.32,0.21 -3.3,0.33 -1.11,0.19 -2.15,0.35 -3.14,0.48l0 24.92 12.19 0c2.32,0 3.48,-1.28 3.48,-3.83l0 -18.69zm15.23 20.12c0,4.79 -1.24,8.55 -3.7,11.26 -2.47,2.72 -5.87,4.08 -10.23,4.08l-32.2 0 0 -67.09 15.23 0 0 17.25c1.68,-0.38 3.4,-0.7 5.14,-0.96 1.51,-0.25 3.12,-0.47 4.83,-0.67 1.71,-0.19 3.32,-0.28 4.83,-0.28l3.05 0c3.94,0 7.1,1.31 9.48,3.93 2.38,2.61 3.57,6.1 3.57,10.44l0 22.04zm76.59 -33.54l0 48.88 -15.23 0 0 -35.94 -6.53 0 0 -12.94 21.76 0zm-15.23 -19.17l15.23 0 0 13.42 -15.23 0 0 -13.42zm79.19 28.28c-2.32,0 -3.48,1.27 -3.48,3.83l0 5.27 14.8 0 0 -5.27c0,-2.56 -1.16,-3.83 -3.48,-3.83l-7.84 0zm-18.71 3.27c0,-4.78 1.23,-8.5 3.7,-11.2 2.47,-2.7 5.87,-4.05 10.23,-4.05l17.4 0c4.35,0 7.76,1.35 10.23,4.07 2.47,2.71 3.7,6.47 3.7,11.26l0 17.73 -30.03 0 0 3.63c0,0.91 0.29,1.66 0.87,2.26 0.58,0.61 1.31,0.92 2.18,0.92 2.49,0 5.2,0 8.13,0 2.94,0 5.68,0 8.23,0 2.96,-0.37 5.92,-0.73 8.88,-1.09l0 12.01c-3.37,0.51 -6.82,0.76 -10.36,0.76 -3.01,0.58 -6.29,0.87 -9.83,0.87 -3.54,0 -6.97,0 -10.27,0 -3.95,0 -7.11,-1.31 -9.49,-3.92 -2.38,-2.6 -3.57,-6.06 -3.57,-10.38l0 -22.87z"/>
    </clipPath>
 </defs>
 <g id="Слой_x0020_1">
  <metadata id="CorelCorpID_0Corel-Layer"/>
  <circle class="fil0" cx="238.7" cy="240.15" r="182.6"/>
  <g id="_2216469007328">
   <path class="fil1" d="M186.45 400.57l0.12 0.11c-0.01,-0.01 -0.16,-0.07 -0.12,-0.11zm46.11 -349.57l12.93 0c6.99,0.23 14.06,0.85 21.23,1.85 9.83,1.37 18.6,3.73 27.86,6.29 10.29,2.84 22.76,8.02 32.05,13.22 16.77,9.39 18.9,11.36 33.65,22.77 6.64,5.13 17.47,16.04 22.8,22.86 9.17,11.71 15.87,20.48 22.87,33.92 1.18,2.29 2.64,4.97 3.67,7.46 1.19,2.89 2.36,5.13 3.5,8 3.3,8.34 6.17,16.39 8.4,25.37 3.44,13.79 5.27,28.38 5.53,42.97l0 7.15c-0.15,8.04 -0.76,16.03 -1.86,23.86 -0.93,6.7 -2.18,12.7 -3.74,18.89 -2.98,11.83 -7.26,22.37 -11.95,33.34 -5.09,11.92 -13.73,24.91 -21.59,35.19 -5.69,7.44 -12.11,14.18 -18.71,20.82 -1.23,1.23 -1.73,1.59 -3.05,2.7l-6.09 5.42c-7.22,5.65 -11.75,9.19 -19.66,14.5l-10.56 6.32c-1.54,0.76 -2.37,1.35 -3.71,2.04 -13,6.77 -26.52,12.02 -40.83,15.58 -19.72,4.91 -32.37,5.53 -52.8,5.53 -18.48,0 -40.46,-4.49 -57.34,-10.97l-23.75 -10.4c-4.86,-2.72 -9.62,-5.32 -14.23,-8.41 -11.22,-7.51 -21.67,-15.65 -31.21,-25.19 -2.52,-2.52 -6.27,-6.17 -8.38,-8.89 -1.03,-1.33 -1.59,-1.81 -2.63,-3.13 -5.65,-7.22 -9.19,-11.75 -14.49,-19.66 -1.57,-2.34 -2.74,-4.48 -4.22,-6.91 -4.4,-7.29 -8.18,-14.91 -11.33,-22.82 -3.36,-8.46 -6.15,-16.32 -8.4,-25.37 -4.91,-19.72 -5.52,-32.37 -5.52,-52.8 0,-7.38 0.95,-14.74 1.85,-21.17 1.37,-9.84 3.73,-18.61 6.29,-27.87 0.69,-2.5 1.75,-5.74 2.77,-8.36 5.13,-13.28 10.92,-26.07 18.86,-37.92 8.87,-13.22 16.92,-22.87 28.07,-34.09 1.24,-1.24 1.73,-1.6 3.06,-2.71 1.16,-0.97 1.7,-1.82 2.96,-2.79l9.48 -7.78c2.15,-1.61 4.15,-3.25 6.39,-4.74 6.9,-4.6 13.83,-9.14 21.18,-12.97 2.29,-1.19 4.97,-2.64 7.46,-3.67 2.89,-1.2 5.13,-2.37 8,-3.51 21.45,-8.5 42.98,-13.17 65.19,-13.92zm-47.26 349.18l0.83 0.21 -0.83 -0.21zm0 0c-2.18,-0.18 -11.94,-4.09 -14.32,-5.24 -7.77,-3.74 -11.86,-5.42 -19.28,-9.89 -7.15,-4.3 -11.06,-7.15 -17.76,-12.16l-13.02 -11.17c-32.04,-31.7 -51.89,-73.7 -51.89,-120.78 0,-13.78 0.86,-24.93 3.46,-36.07l3.07 0c-0.14,1.6 -0.95,4.56 -1.39,6.29 -0.56,2.22 -1.09,3.98 -0.7,6.54 0.73,4.89 0.92,9.37 1.73,14 0.6,3.41 3.35,3.94 7.87,7.49 12.4,9.75 23.91,25.43 30.21,39.63 1.41,3.19 1.06,2.87 -0.48,5.5 -9.34,15.86 -10.58,31.24 7.39,41.68 2.84,1.65 2.18,1.17 3.11,4.57 1.64,5.98 2.96,6 8.37,10.82 4.36,3.88 16.62,13.08 21.78,13.52 0.09,3.85 3.15,11.2 4.55,14.63 1.7,4.16 4.52,8.7 7.07,12.12 8.51,11.45 19.37,17.34 20.23,18.52zm160.01 -211.81l0.12 0.11c-0.01,0 -0.15,-0.07 -0.12,-0.11zm7.29 -6.52l0.12 0.11c-0.01,-0.01 -0.15,-0.07 -0.12,-0.11zm1.15 -0.39l0.12 0.12c-0.01,-0.01 -0.15,-0.08 -0.12,-0.12zm0.77 -0.38l0.12 0.11c-0.01,0 -0.16,-0.07 -0.12,-0.11zm0.77 -0.38c0.41,-0.41 1.45,0.61 0.43,0.2 -0.01,-0.01 -1.07,0.44 -0.43,-0.2zm1.92 -0.39l-0.75 0.44 0.75 -0.44zm0 0c1.5,-2.24 1.48,-2.64 0.34,-5.33 -3.41,-8.04 -1.41,-2.23 0.05,-11.16 1.53,-9.38 3.18,-4.57 7.95,-0.29 2.29,2.05 3.92,2.58 8.16,2.58 1.39,2.08 2.18,3.86 4.22,3.86 2.99,0.01 2.85,-2.66 2.3,-5.01 0.32,0.21 9.02,9.17 9.21,0.39 1.23,0.59 1.84,0.59 3.07,0 1.4,2.65 2.43,5.79 3.84,8.44 -1.33,0.11 -5.1,1.9 -6.7,2.51 -3.42,1.31 -2.9,2 -2.9,6.31 -1.58,-0.13 -2.56,-1.2 -3.67,-2.08 -4.28,-3.35 -7.05,-7.64 -9.74,-7.53 -1.29,0.05 -6.25,2.94 -7.82,3.73 -1.41,0.71 -2.39,1.27 -3.87,1.89 -1.71,0.7 -2.67,1.28 -4.44,1.69zm-206.06 -17.65c3.75,-2.51 4.42,-0.27 7.67,0 0.46,5.53 4.37,10.24 4.61,11.13 -2.6,1.74 -4.79,3.46 -7.68,4.99 0.51,-6.02 4.99,-4.18 4.99,-7.68 0,-3.56 -3.41,-3.07 -5.75,-3.07 0,-3.96 -2.26,-3.22 -3.84,-5.37zm-58.71 -9.59l0 0zm0.38 -0.39l-0.38 0.39 0.38 -0.39zm229.47 -3.07l0 0zm-1.15 -2.68l0 0zm-0.77 -2.3l0.12 0.11c-0.01,-0.01 -0.16,-0.08 -0.12,-0.11zm-103.6 -19.96l0 0zm0.38 -0.38l-0.38 0.38 0.38 -0.38zm0.38 -0.38l-0.38 0.38 0.38 -0.38zm123.56 0l0 0zm-123.56 0l0 0zm126.63 -4.99l3.59 6.83c-2.25,0.12 -2.36,0.79 -3.59,1.61l-3.07 -3.45c4.02,-0.09 3.3,-2.23 3.07,-4.99zm-0.38 -0.77l0.38 0.77 -0.38 -0.77zm-0.39 -0.77l0.39 0.77 -0.39 -0.77zm-0.38 -0.77l0.38 0.77 -0.38 -0.77zm-124.71 -0.38c2.77,0 1.91,0.32 3.84,0.77 -0.3,1.29 -1.35,3.09 -2.69,3.45 -0.02,-1.03 -0.8,-3.44 -1.15,-4.22zm124.33 -0.38l0.38 0.76 -0.38 -0.76zm0 0l0 0zm-132 0.38l0.51 -2.43c0.47,0.47 0.17,0.21 0.61,0.54 1.26,0.94 0.48,-0.35 1.56,1.12 -1.42,0.33 -1.07,0.64 -2.68,0.77zm131.23 -1.53l0 0zm0 0l0 0zm-249.04 37.98c0.39,-1.63 5.98,-9.87 7.24,-11.57 7.56,-10.19 14.75,-19.06 24.32,-27.48 1.43,-1.26 1.75,-0.85 3.36,-1.62 0.34,1.26 0.56,1.26 1.54,1.92 -1.96,2.93 -0.25,4.04 0.38,4.99l-13.76 12.72c-5.07,4.05 -13.41,12.54 -18.38,16.92 -0.94,0.83 -1.35,0.96 -2.31,1.91 -0.88,0.88 -1.39,1.55 -2.39,2.21zm108.98 -41.44c-0.32,1.37 -1.57,3.01 -2.36,4.17 -1.03,1.52 -2.08,1.97 -4.55,1.97 -0.31,-1.17 -0.72,-1.21 -1.53,-1.92 4.49,-1.04 6.31,-3.65 8.44,-4.22zm0 0l0 0zm7.68 -5.75c1.72,0.19 0.96,-0.58 1.15,1.15l-1.15 -1.15zm0 0l0 0zm-1.54 -0.77c0.41,-0.41 1.46,0.61 0.43,0.2 -0.01,0 -1.07,0.44 -0.43,-0.2zm-13.81 -3.07c1.15,0.31 0.84,-0.01 1.15,1.15 -1.6,-0.43 -0.63,-0.16 -1.15,-1.15zm-41.44 -9.21l0.11 0.11c-0.01,0 -0.15,-0.07 -0.11,-0.11zm0.76 -0.38l0.12 0.11c-0.01,-0.01 -0.16,-0.08 -0.12,-0.11zm1.15 -0.39l0 0zm0 0c1.86,-1.61 10.62,-5.67 13.05,-6.9 10.6,-5.37 23.65,-9.31 35.54,-12.05 9.07,-2.09 14.91,-2.41 23.88,-3.36 10.46,-1.11 27.5,-0.23 37.83,1.42 16,2.57 32.46,7.39 46.64,14.38 1.59,0.78 3.09,1.24 4.73,2.17 1.64,0.92 2.87,1.58 4.49,2.42 1.13,0.59 3.57,1.8 4.22,2.69 -5.69,-0.47 -6.01,-4.22 -10.7,-0.71 -3.36,2.52 -4.96,3.19 -1.71,6.97 0.61,0.7 0.55,0.79 1.19,1.5 13.79,15.47 5,13.16 10.35,19.2l5.38 4.6c3.99,3.4 4.12,0.06 7,0.67 -0.7,2.99 0.92,6.36 3.45,8.06 -1.25,1.87 -1.15,0.63 -1.15,3.84 -7.74,-0.65 -8.43,-12.09 -13.76,-9.17 -5.4,2.96 -3.65,5.62 -1.97,8.78 -1.88,1.26 -5.19,5.35 -3.99,8.22 0.04,0.11 0.22,0.36 0.27,0.44 0.03,0.05 0.11,0.14 0.14,0.18 0.02,0.05 0.09,0.14 0.11,0.18l0.4 1.73 1.15 0c-0.35,0.76 -0.39,0.8 -0.06,1.56 0.64,1.48 0.36,0.82 1.21,1.12 0.09,4 4.98,5.67 5.8,0.44 0.26,-1.64 0.46,-1.84 1.49,-2.74 3.99,2.93 1.01,4.35 4.99,5.76 2.22,0.79 3.6,3.94 4.93,5.84 1.69,2.4 1.02,2.55 -5.71,2.59 -11.63,0.08 -3.59,8 -0.21,15.23 0.87,1.85 -0.82,1.59 1.52,7.65 0.54,1.4 1.17,2.58 2.6,2.76 0.93,0.11 7.43,-2.15 8.38,-2.61 -1.3,5.59 -1.29,1.46 -3.2,4.07l-7.54 17.43c-3.4,7.64 -7.64,14.52 -12.13,21.25 -1.73,2.6 -6.7,7.74 -3.51,10.49 4.96,4.28 3.45,1.5 4.78,12.11 1.4,11.14 -1.54,9.67 -1.69,13.75 -0.09,2.38 4.31,5.06 5.93,6.56 0.87,0.81 1.18,1.28 2.17,2.05l11.07 9.66c2.64,2.35 10,8.64 13.64,6.17 1.57,-1.08 1.93,-3.91 3.64,-4.81 0.94,-0.49 5.28,-1.33 6.72,-1.72 2.04,-0.56 4.35,-1.25 6.55,-1.89 4.17,-1.21 8.42,-2.75 12.7,-3.8 6.25,-1.52 6.61,0.27 6.55,8.84l-0.78 11.51c-0.63,12.95 -1.49,18.19 -8.08,29.53 -2.5,4.31 -5.59,12.28 -8.48,16.08 -1.25,1.65 -2.44,3.08 -3.73,4.7l-7.84 9.05c-1.17,1.4 -2.69,2.72 -4.01,4.05 -0.79,0.79 -1.31,1.33 -2.1,2.11l-4.43 4.02c-0.95,0.84 -1.33,0.96 -2.3,1.92 -6.03,6.01 -17.01,13.07 -24.34,17.49 -17.25,10.41 -39.63,18.5 -61.21,22.05 -12.71,2.1 -26.58,2.38 -39.61,1.4 -2.38,-0.18 -5.07,-0.74 -7.7,-0.74l-1.96 -2.65c-0.29,-0.22 -0.46,-0.3 -0.71,-0.44 -2.82,-1.53 -4.24,-2.36 -4.24,-6.12 4.32,0 4.61,-0.01 4.61,-4.22 0.94,-0.46 2.16,-0.75 3.12,-1.1 1.27,-0.45 1.94,-0.96 3.14,-1.5 2.63,-1.17 2.79,1.12 6.41,-1.62 2.54,-1.92 2.71,-1.77 2.68,-6.14 -0.03,-4.2 -0.47,-4.8 -0.77,-8.44 4.8,-2.55 14.86,-8.51 17.89,-12.81 0.8,-1.14 1,-2.18 0.94,-4.08 -0.2,-7.08 -3.32,-1.32 3.54,-9.48 6.2,-7.37 7.56,-9.17 7.56,-21.21 -3.28,-2.2 -4.49,-1.52 -8.41,-1.95 -10.91,-1.22 -21.75,-5.02 -30.71,-10.74 -2.08,-1.32 -3.86,-3.02 -5.82,-4.54 -2.39,-1.87 -5.29,-1.04 -8.07,-0.1 -2.46,0.83 -7.81,4.75 -6.33,2.46 0.24,-0.37 0.42,-0.44 0.7,-0.75 2.07,-2.24 0.35,-5.14 -0.83,-7.41 -9.34,-17.93 -15.55,-8.9 -20.66,-13.88 -2.45,-2.38 -2.11,-6.38 -4.76,-9.05 -1.23,-1.25 -2.35,-2.09 -3.66,-3.25 -1.21,-1.06 -2.63,-2.03 -4,-2.91 -1.31,-0.84 -2.95,-1.77 -4.4,-2.51 -17.36,-8.86 -14.13,-2.58 -20.45,-6.41 -1.97,-1.19 -6.8,-4.9 -8.86,-4.99 -6.77,-0.29 -0.54,9.55 -18.26,-2.42 -1.47,-0.99 -0.85,-0.39 -1.71,-1.75 -5.53,-8.71 -10.9,-9.96 -11.12,-13.08 -0.06,-0.91 0.57,-5.56 0.77,-6.15 0.99,-2.95 4.5,-5.38 4.27,-9.58 -0.13,-2.19 -1.73,-2.85 -4.24,-2.71 -4.11,0.22 -5.98,3.11 -8.83,5.02 -2.28,-1.98 -1.78,-3.32 -2.21,-6.63 -0.32,-2.51 -0.1,-6.43 -0.1,-9.11 3.78,-2.53 5.57,-7.14 7.68,-11.12 11.21,0 9.05,2.45 14.09,4.36 1.74,0.67 3.47,-0.64 4.71,-1.29 0.29,3.46 1.74,3.83 5.37,3.83 0,6.32 0.77,11.01 0.77,17.27 -1.42,-0.75 -1.64,-1.16 -3.49,-1.5 -1.56,-0.29 -7.75,-1.15 -9.05,-0.31 -5.04,3.27 4.68,8.88 8.38,10.19 4.67,1.65 2.55,4.51 9.28,6.46 4.11,1.19 4.96,1.7 7.66,-1.3 2.14,-2.37 0.96,-3.3 -0.77,-4.83 -2.38,-2.1 -3.39,-6.1 -7.02,-6.41l0 -0.76c1.66,-0.45 3.69,-2.91 5.15,-4.06 1.53,-1.2 4.13,-2.68 3.48,-5.29 -0.62,-2.44 -2.77,-3.98 -1.73,-6.74 0.79,-2.08 3.52,-3.02 5.63,-4 1.86,-0.86 4.44,-2.5 6.16,-3.08 4.05,-1.37 6.77,3.09 10.47,-1.78l6.43 -7.77c1.77,-2.03 3.13,-2.34 5.74,-3.46 6.93,-2.99 13.51,-4.88 20.96,-7.05 2.65,-0.77 20.03,-4.83 21.23,-6.42 0.81,-1.06 0.58,-2.47 -0.14,-3.41 -0.79,-1.04 -2.04,-1.31 -3.57,-1.43 0.24,-2.88 2.6,-1.58 2.69,-5.37 4.79,0 3.05,0.2 5.98,2.46 3.67,2.84 4.72,8.71 9.64,2.8 2.2,-2.65 2.8,-2.15 2.8,-6.03 -1.26,-0.84 -0.54,-1.01 -2.31,-1.15 0.86,-3.21 12.87,-7.84 10.27,-12.15 -1.36,-2.25 -4.1,-1.09 -6.43,-0.9 -0.06,-2.73 -1.76,-3.62 -2.14,-5.53 -0.69,-3.51 6.19,-6.64 -3.21,-9.07 -1.69,-0.44 -5.66,-0.77 -7.31,0.02 -1.21,-2.28 -3.59,-6.41 -5.47,-7.96 -3.71,-3.07 -7.08,-1.57 -7.19,3.35 -6.14,0 -4.31,0.64 -7.38,3.75l-8.26 8.25c-1.19,1.21 -1.92,1.61 -3.08,2.68 -1.58,1.47 -3.8,4.73 -5.84,5.28 -0.31,-3.68 -3.07,-8.38 -3.07,-14.97 3.65,-0.85 22.13,-12.76 26.24,-14.45 2.47,-1.01 2.52,0.06 4.84,0.25 -0.14,1.63 -0.67,2.22 0.38,3.44 0.79,0.92 2.12,1.16 3.83,1.18 5.33,0.06 3.9,0.41 5.87,4.11 0.62,1.16 1.19,1.75 2.96,1.67 3.77,-0.16 3.95,-7.66 7.3,-7.71 2.98,-0.05 4.22,6.6 8.67,0.62 1.52,-2.04 4.79,-8.37 0.15,-9.44 0,-7.1 -1.63,-3.52 -2.66,-6.94 -1.09,-3.64 -1.98,-2.87 -5.67,-4.3 -2.2,-0.86 -3.37,-0.5 -3.95,-2.96 2.65,0 5.54,-1.16 7.53,-2.1 2.94,-1.4 0.29,-0.74 2.93,-0.31 1.76,0.29 2.61,-0.47 2.97,-1.81 4.15,2.78 2.91,-1.33 8.01,5.43 1.67,2.22 1.53,1.48 1.22,4.57 -0.16,1.57 -0.13,1.99 0.45,2.96l1.45 2c-1.71,7.36 -5.14,3.97 -1.49,14.15 1.41,3.93 1.26,3.63 6.01,6.66 2.53,1.61 7.4,2.36 8.85,-1.3 1.98,-4.97 1.35,-0.96 10.97,-8.22l13.28 -12.42c1.03,-1.38 0.88,-2.4 1.04,-3.89 0.2,-1.73 2.07,-3.12 -0.67,-4.95 3.02,-4.52 -3.09,-9.69 -3.9,-10.69 -1.26,-1.56 -2.15,-2.99 -3.24,-4.82l-1.66 -4.09c-0.99,-1.85 -1.3,-1.03 -3.74,-1.64 -3.26,-0.8 -5.1,-4.02 -9,-2.23 -1.41,0.65 -0.84,0.75 -2,1.08 -2.14,0.61 -3.41,-0.09 -4.09,2.43 -4.23,0 -3.74,0.09 -6.79,-1.27 -2.65,-1.19 -4.48,-0.62 -5.1,2.04 -3.76,-0.31 -0.42,-3.28 -12.12,-0.61 -1.72,0.4 -4.81,0.25 -5.78,1.93 -1.24,2.12 0.58,4.11 1.01,5.97 -0.51,0.7 -3.3,2.62 -4.2,3.09l-4.24 1.13c-0.63,0.07 -3.59,0.29 -2.94,3.29 0.31,1.45 1.02,1.95 2.56,2.08 -1.18,1.61 -0.69,0.16 -3.08,0 -1.47,-0.09 -2.92,0.67 -3.83,1.15 0,-0.94 -0.24,-2.94 -0.22,-3.11 0.19,-1.84 2.85,-3.05 0.22,-8.01 2.71,-0.73 3.45,-3.87 3.45,-7.29 -3.3,-2.22 -3.31,-1.93 -6.98,0.31l-4.9 2.77c-0.73,0.44 -0.83,0.66 -1.55,1.14 0,2.47 0.18,2.38 1.15,3.83l3.46 0c-0.63,0.55 -2.2,2.72 -3.07,2.31 -1.53,-0.74 -0.21,-2.73 -2.55,-3.6 -1.18,-0.44 -1.52,-0.1 -2.75,-0.31 -1.99,-0.35 -0.44,-0.84 -2.7,-0.68 -1.55,0.11 -5.42,1.71 -6.68,2.95 -1.01,1.01 -0.67,0.96 -0.67,2.79 -2.21,-1.48 -3.98,-3.59 -5.95,-0.2 -0.4,0.68 -0.34,0.73 -0.81,1.49 -0.59,0.97 -0.61,0.69 -0.98,1.71 -0.39,1.06 -0.32,3.04 -0.32,4.67 -1.93,0.45 -4.24,0.78 -4.56,2.77 -0.35,2.24 1.8,3.65 2.64,4.91 -1.68,-0.04 -1.19,-0.26 -2.68,-0.39 0,-3.41 -1.15,-4.35 -4.22,-4.6 0.82,-3.53 0.1,-3.75 -2.93,-4.75 -4.25,-1.42 -2.73,-1.25 -7.05,-0.24 3.09,-5.85 -1.99,-5.76 -6.91,-5.76 0.09,-3.78 0.48,-0.75 -0.72,-4.65l-1.2 -2.64 -3.07 0z"/>
   <path class="fil1" d="M137.34 244.39c0,9.23 4.4,6.55 5.74,7.28 0.3,0.16 2.02,2.21 2.37,2.65 3.56,4.54 4.92,1.6 7.91,-1.2 1.75,-1.65 2.01,-0.96 2.01,-4.12 0,-0.75 -3.44,-5.64 -4.11,-6.25 -0.67,-0.61 -6.17,-3.73 -7.02,-3.73 -1.14,0 -3.86,1.09 -4.6,1.53 -1.23,0.74 -2.3,1.9 -2.3,3.84z"/>
   <path class="fil1" d="M287.37 123.14c0,2.21 2.25,2.95 3.67,4 2.45,1.8 2.29,2.07 5.83,1.28 4.2,-0.93 8.54,-1.92 8.54,-7.2 0,-3.85 -4.09,-3.07 -7.68,-3.07 -3.55,0 -10.36,1.9 -10.36,4.99z"/>
  </g>
  <rect class="fil2 str0" x="213.23" y="243.77" width="185.77" height="210.04" rx="11.71" ry="11.71"/>
  <rect class="fil1" x="230.68" y="342.6" width="50.97" height="49.6" rx="3.21" ry="2.77"/>
  <rect class="fil1" x="230.52" y="304.89" width="153.16" height="24.53" rx="9.66" ry="1.37"/>
  <rect class="fil1" x="285.4" y="343.33" width="98.28" height="4.15" rx="6.2" ry="0.23"/>
  <rect class="fil1" x="231.16" y="421.82" width="151.89" height="14.68" rx="9.58" ry="0.82"/>
  <polygon class="fil3" points="252.96,294.71 245.5,262.99 252.1,262.99 256.82,284.78 262.61,262.99 270.24,262.99 275.78,285.15 280.61,262.99 287.05,262.99 279.41,294.71 272.55,294.71 266.3,270.99 260,294.71 "/>
  <polygon id="1" class="fil3" points="294.77,294.71 287.31,262.99 293.91,262.99 298.63,284.78 304.42,262.99 312.05,262.99 317.59,285.15 322.42,262.99 328.87,262.99 321.22,294.71 314.36,294.71 308.11,270.99 301.81,294.71 "/>
  <polygon id="2" class="fil3" points="336.58,294.71 329.12,262.99 335.72,262.99 340.44,284.78 346.23,262.99 353.87,262.99 359.4,285.15 364.23,262.99 370.68,262.99 363.04,294.71 356.18,294.71 349.92,270.99 343.63,294.71 "/>
  <rect class="fil1" x="285.4" y="388.32" width="98.28" height="4.15" rx="6.2" ry="0.23"/>
  <rect class="fil1" x="285.4" y="366.94" width="98.28" height="4.15" rx="6.2" ry="0.23"/>
  <rect class="fil1" x="285.4" y="355.77" width="98.28" height="4.15" rx="6.2" ry="0.23"/>
  <rect class="fil1" x="285.4" y="377.15" width="98.28" height="4.15" rx="6.2" ry="0.23"/>
  <rect class="fil1" x="230.52" y="398.85" width="153.17" height="4.15" rx="9.66" ry="0.23"/>
  <rect class="fil1" x="230.52" y="408.74" width="153.17" height="4.15" rx="9.66" ry="0.23"/>
  <g>
   <g style="clip-path:url(#id0)">
    <polygon class="fil4" points="246.19,160.81 246.16,159.84 253.81,159.81 253.84,160.78 "/>
    <path id="1" class="fil5" d="M247.46 160.64l5.1 -0.02 -0.02 -0.64 -5.1 0.02 0.02 0.64zm-3.8 0.49l-0.06 -1.6 12.74 -0.05 0.06 1.61 -12.74 0.04z"/>
    <path id="2" class="fil6" d="M244.92 160.97l10.2 -0.04 -0.04 -1.28 -10.2 0.04 0.04 1.28zm-3.8 0.5l-0.08 -2.25 17.84 -0.07 0.08 2.25 -17.84 0.07z"/>
    <path id="3" class="fil7" d="M242.39 161.3l15.29 -0.06 -0.07 -1.92 -15.29 0.05 0.07 1.93zm-3.81 0.49l-0.11 -2.88 22.95 -0.09 0.11 2.89 -22.95 0.08z"/>
    <path id="4" class="fil8" d="M239.85 161.63l20.39 -0.07 -0.09 -2.57 -20.39 0.07 0.09 2.57zm-3.81 0.5l-0.13 -3.53 28.05 -0.11 0.13 3.53 -28.05 0.11z"/>
    <path id="5" class="fil9" d="M237.31 161.96l25.5 -0.09 -0.12 -3.21 -25.5 0.09 0.12 3.21zm-3.81 0.5l-0.15 -4.18 33.15 -0.12 0.15 4.18 -33.15 0.12z"/>
    <path id="6" class="fil10" d="M234.77 162.29l30.6 -0.11 -0.14 -3.85 -30.6 0.11 0.14 3.85zm-3.8 0.5l-0.18 -4.82 38.24 -0.14 0.18 4.82 -38.24 0.14z"/>
    <path id="7" class="fil11" d="M232.24 162.62l35.69 -0.13 -0.16 -4.49 -35.7 0.13 0.17 4.49zm-3.81 0.5l-0.2 -5.46 43.34 -0.16 0.2 5.46 -43.34 0.16z"/>
    <path id="8" class="fil12" d="M229.7 162.95l40.79 -0.15 -0.19 -5.13 -40.79 0.15 0.19 5.13zm-3.81 0.5l-0.22 -6.1 48.44 -0.18 0.22 6.1 -48.44 0.18z"/>
    <path id="9" class="fil13" d="M227.16 163.28l45.89 -0.17 -0.21 -5.77 -45.89 0.16 0.21 5.78zm-3.81 0.5l-0.24 -6.74 53.54 -0.2 0.24 6.74 -53.54 0.2z"/>
    <path id="10" class="fil14" d="M224.62 163.61l50.99 -0.18 -0.23 -6.42 -50.99 0.18 0.23 6.42zm-3.8 0.5l-0.27 -7.38 58.64 -0.22 0.26 7.38 -58.63 0.22z"/>
    <path id="11" class="fil15" d="M222.08 163.94l56.09 -0.2 -0.25 -7.06 -56.09 0.2 0.25 7.06zm-3.8 0.5l-0.29 -8.03 63.73 -0.23 0.3 8.03 -63.74 0.23z"/>
    <path id="12" class="fil16" d="M219.55 164.27l61.18 -0.22 -0.28 -7.7 -61.18 0.22 0.28 7.7zm-3.81 0.5l-0.32 -8.67 68.84 -0.25 0.32 8.67 -68.84 0.25z"/>
    <path id="13" class="fil17" d="M217.01 164.6l66.29 -0.24 -0.31 -8.34 -66.28 0.24 0.3 8.34zm-3.81 0.5l-0.34 -9.31 73.94 -0.27 0.34 9.31 -73.94 0.27z"/>
    <path id="14" class="fil18" d="M214.47 164.93l71.39 -0.26 -0.33 -8.98 -71.39 0.26 0.33 8.98zm-3.81 0.5l-0.36 -9.95 79.04 -0.29 0.36 9.95 -79.04 0.29z"/>
    <path id="15" class="fil19" d="M211.93 165.26l76.49 -0.27 -0.35 -9.63 -76.49 0.27 0.35 9.63zm-3.8 0.5l-0.39 -10.59 84.13 -0.31 0.39 10.59 -84.13 0.31z"/>
    <path id="16" class="fil20" d="M209.4 165.59l81.58 -0.29 -0.37 -10.27 -81.59 0.29 0.38 10.27zm-3.81 0.5l-0.41 -11.24 89.23 -0.32 0.41 11.23 -89.23 0.33z"/>
    <path id="17" class="fil21" d="M206.86 165.92l86.68 -0.31 -0.4 -10.91 -86.68 0.31 0.4 10.91zm-3.81 0.5l-0.43 -11.88 94.33 -0.34 0.43 11.88 -94.33 0.34z"/>
    <path id="18" class="fil22" d="M204.32 166.25l91.78 -0.33 -0.42 -11.55 -91.78 0.33 0.42 11.55zm-3.81 0.5l-0.45 -12.52 99.43 -0.36 0.45 12.52 -99.43 0.36z"/>
    <path id="19" class="fil23" d="M201.78 166.58l96.88 -0.35 -0.44 -12.19 -96.88 0.35 0.44 12.19zm-3.8 0.5l-0.48 -13.16 104.53 -0.38 0.47 13.16 -104.52 0.38z"/>
    <path id="20" class="fil24" d="M199.25 166.91l101.97 -0.37 -0.46 -12.83 -101.98 0.37 0.47 12.83zm-3.81 0.5l-0.5 -13.8 109.62 -0.4 0.51 13.8 -109.63 0.4z"/>
    <path id="21" class="fil25" d="M196.71 167.24l107.08 -0.39 -0.5 -13.47 -107.07 0.38 0.49 13.48zm-3.81 0.5l-0.53 -14.44 114.73 -0.42 0.53 14.44 -114.73 0.42z"/>
    <path id="22" class="fil26" d="M194.17 167.57l112.18 -0.4 -0.52 -14.12 -112.17 0.4 0.51 14.12zm-3.81 0.5l-0.55 -15.08 119.83 -0.44 0.55 15.08 -119.83 0.44z"/>
    <path id="23" class="fil27" d="M191.63 167.9l117.28 -0.42 -0.54 -14.76 -117.28 0.42 0.54 14.76zm-3.8 0.5l-0.58 -15.73 124.93 -0.45 0.57 15.73 -124.92 0.45z"/>
    <path id="24" class="fil28" d="M189.09 168.23l122.38 -0.44 -0.56 -15.4 -122.38 0.44 0.56 15.4zm-3.8 0.5l-0.6 -16.37 130.02 -0.47 0.6 16.37 -130.02 0.47z"/>
    <path id="25" class="fil29" d="M186.56 168.56l127.47 -0.46 -0.58 -16.04 -127.48 0.46 0.59 16.04zm-3.81 0.5l-0.62 -17.01 135.12 -0.49 0.62 17.01 -135.12 0.49z"/>
    <path id="26" class="fil30" d="M184.02 168.89l132.57 -0.48 -0.61 -16.69 -132.57 0.49 0.61 16.68zm-3.81 0.5l-0.64 -17.65 140.22 -0.51 0.64 17.65 -140.22 0.51z"/>
    <path id="27" class="fil31" d="M181.48 169.22l137.67 -0.5 -0.63 -17.32 -137.67 0.49 0.63 17.33zm-3.81 0.5l-0.66 -18.29 145.32 -0.53 0.66 18.29 -145.32 0.53z"/>
    <path id="28" class="fil32" d="M178.94 169.55l142.77 -0.51 -0.65 -17.98 -142.77 0.52 0.65 17.97zm-3.8 0.5l-0.69 -18.93 150.42 -0.55 0.69 18.93 -150.42 0.55z"/>
    <path id="29" class="fil33" d="M176.41 169.88l147.86 -0.53 -0.67 -18.62 -147.87 0.54 0.68 18.61zm-3.81 0.5l-0.71 -19.58 155.51 -0.56 0.72 19.58 -155.52 0.56z"/>
    <path id="30" class="fil34" d="M173.87 170.22l152.97 -0.56 -0.71 -19.26 -152.96 0.56 0.7 19.26zm-3.81 0.49l-0.74 -20.22 160.62 -0.58 0.74 20.22 -160.62 0.58z"/>
    <path id="31" class="fil35" d="M171.33 170.54l158.07 -0.57 -0.73 -19.9 -158.07 0.58 0.73 19.89zm-3.81 0.5l-0.76 -20.86 165.72 -0.6 0.76 20.86 -165.72 0.6z"/>
    <path id="32" class="fil36" d="M168.79 170.88l163.17 -0.6 -0.75 -20.54 -163.17 0.6 0.75 20.54zm-3.8 0.49l-0.79 -21.5 170.82 -0.62 0.78 21.5 -170.81 0.62z"/>
    <path id="33" class="fil37" d="M166.25 171.2l168.27 -0.6 -0.77 -21.19 -168.27 0.61 0.77 21.18zm-3.8 0.5l-0.81 -22.14 175.91 -0.64 0.81 22.14 -175.91 0.64z"/>
    <path id="34" class="fil38" d="M163.72 171.54l173.36 -0.63 -0.79 -21.83 -173.37 0.63 0.8 21.83zm-3.81 0.49l-0.83 -22.79 181.01 -0.65 0.83 22.78 -181.01 0.66z"/>
    <path id="35" class="fil39" d="M161.18 171.87l178.46 -0.65 -0.82 -22.47 -178.46 0.65 0.82 22.47zm-3.81 0.49l-0.85 -23.43 186.11 -0.67 0.85 23.43 -186.11 0.67z"/>
    <path id="36" class="fil40" d="M158.64 172.2l183.56 -0.67 -0.84 -23.11 -183.56 0.67 0.84 23.11zm-3.81 0.49l-0.87 -24.07 191.21 -0.69 0.87 24.07 -191.21 0.69z"/>
    <path id="37" class="fil41" d="M156.1 172.53l188.66 -0.69 -0.86 -23.75 -188.66 0.69 0.86 23.75zm-3.8 0.49l-0.9 -24.71 196.3 -0.71 0.91 24.71 -196.31 0.71z"/>
    <path id="38" class="fil42" d="M153.57 172.86l193.75 -0.71 -0.88 -24.39 -193.76 0.71 0.89 24.39zm-3.81 0.49l-0.93 -25.35 201.41 -0.73 0.93 25.35 -201.41 0.73z"/>
    <path id="39" class="fil43" d="M151.03 173.19l198.86 -0.72 -0.92 -25.04 -198.85 0.72 0.91 25.04zm-3.81 0.49l-0.95 -25.99 206.51 -0.75 0.95 25.99 -206.51 0.75z"/>
    <path id="40" class="fil44" d="M148.49 173.52l203.96 -0.74 -0.94 -25.68 -203.96 0.74 0.94 25.68zm-3.81 0.49l-0.97 -26.64 211.61 -0.76 0.97 26.63 -211.61 0.77z"/>
    <path id="41" class="fil45" d="M145.95 173.85l209.06 -0.76 -0.96 -26.32 -209.06 0.76 0.96 26.32zm-3.81 0.49l-0.99 -27.28 216.71 -0.78 0.99 27.28 -216.71 0.78z"/>
    <path id="42" class="fil46" d="M143.41 174.18l214.16 -0.78 -0.98 -26.96 -214.16 0.78 0.98 26.96zm-3.8 0.49l-1.02 -27.92 221.8 -0.8 1.02 27.92 -221.8 0.8z"/>
    <path id="43" class="fil47" d="M140.88 174.51l219.25 -0.8 -1.01 -27.6 -219.25 0.8 1.01 27.6zm-3.81 0.49l-1.04 -28.56 226.9 -0.82 1.04 28.56 -226.9 0.82z"/>
    <path id="44" class="fil48" d="M138.34 174.84l224.35 -0.82 -1.03 -28.24 -224.35 0.82 1.03 28.24zm-3.81 0.49l-1.06 -29.2 232 -0.84 1.06 29.2 -232 0.84z"/>
    <path id="45" class="fil49" d="M135.8 175.17l229.45 -0.84 -1.05 -28.88 -229.45 0.83 1.05 28.89zm-3.81 0.49l-1.08 -29.84 237.1 -0.86 1.08 29.84 -237.1 0.86z"/>
    <path id="46" class="fil50" d="M133.26 175.5l234.55 -0.85 -1.07 -29.53 -234.55 0.85 1.07 29.53zm-3.8 0.49l-1.12 -30.49 242.2 -0.87 1.12 30.48 -242.2 0.88z"/>
    <path id="47" class="fil51" d="M130.72 175.83l239.65 -0.87 -1.09 -30.17 -239.65 0.87 1.09 30.17zm-3.8 0.49l-1.14 -31.13 247.3 -0.89 1.14 31.13 -247.3 0.89z"/>
    <path id="48" class="fil52" d="M128.19 176.16l244.75 -0.89 -1.13 -30.81 -244.75 0.89 1.13 30.81zm-3.81 0.49l-1.16 -31.77 252.4 -0.91 1.16 31.77 -252.4 0.91z"/>
    <path id="49" class="fil52" d="M125.65 176.49l249.85 -0.91 -1.15 -31.45 -249.85 0.91 1.15 31.45zm-3.81 0.49l-1.18 -32.41 257.5 -0.93 1.18 32.41 -257.5 0.93z"/>
    <path id="50" class="fil52" d="M123.11 176.82l254.95 -0.93 -1.17 -32.09 -254.95 0.93 1.17 32.09zm-3.81 0.49l-1.2 -33.05 262.6 -0.95 1.2 33.05 -262.6 0.95z"/>
    <path id="51" class="fil52" d="M120.57 177.15l260.05 -0.94 -1.19 -32.74 -260.05 0.94 1.19 32.74zm-3.8 0.49l-1.23 -33.69 267.69 -0.97 1.23 33.69 -267.69 0.97z"/>
    <path id="52" class="fil52" d="M118.04 177.48l265.14 -0.96 -1.22 -33.38 -265.14 0.96 1.22 33.38zm-3.81 0.49l-1.25 -34.34 272.79 -0.98 1.25 34.34 -272.79 0.98z"/>
    <path id="53" class="fil52" d="M115.5 177.81l270.24 -0.98 -1.24 -34.02 -270.24 0.98 1.24 34.02zm-3.81 0.49l-1.27 -34.98 277.89 -1 1.27 34.98 -277.89 1z"/>
    <path id="54" class="fil52" d="M112.96 178.14l275.34 -1 -1.26 -34.66 -275.34 1 1.26 34.66zm-3.81 0.49l-1.29 -35.62 282.99 -1.03 1.29 35.63 -282.99 1.02z"/>
    <path id="55" class="fil52" d="M110.42 178.47l280.44 -1.02 -1.28 -35.3 -280.44 1.02 1.28 35.3zm-3.8 0.49l-1.33 -36.26 288.1 -1.05 1.32 36.27 -288.09 1.04z"/>
    <path id="56" class="fil52" d="M107.88 178.8l285.55 -1.04 -1.31 -35.94 -285.55 1.03 1.31 35.95zm-3.8 0.49l-1.35 -36.9 293.19 -1.07 1.35 36.91 -293.19 1.06z"/>
    <path id="57" class="fil52" d="M105.35 179.13l290.64 -1.05 -1.34 -36.59 -290.64 1.05 1.34 36.59zm-3.81 0.49l-1.37 -37.54 298.29 -1.09 1.37 37.55 -298.29 1.08z"/>
    <path id="58" class="fil52" d="M102.81 179.46l295.74 -1.07 -1.36 -37.23 -295.74 1.07 1.36 37.23zm-3.81 0.49l-1.39 -38.19 303.39 -1.1 1.39 38.19 -303.39 1.1z"/>
    <path id="59" class="fil52" d="M100.27 179.79l300.84 -1.09 -1.38 -37.87 -300.84 1.09 1.38 37.87zm-3.81 0.5l-1.41 -38.84 308.49 -1.12 1.41 38.84 -308.49 1.12z"/>
    <path id="60" class="fil52" d="M97.73 180.12l305.94 -1.11 -1.4 -38.51 -305.94 1.11 1.4 38.51zm-3.8 0.5l-1.44 -39.48 313.58 -1.14 1.44 39.48 -313.58 1.14z"/>
    <path id="61" class="fil52" d="M95.2 180.45l311.03 -1.13 -1.42 -39.15 -311.04 1.13 1.43 39.15zm-3.81 0.5l-1.46 -40.12 318.68 -1.16 1.46 40.12 -318.68 1.16z"/>
    <path id="62" class="fil51" d="M92.66 180.78l316.13 -1.15 -1.45 -39.79 -316.13 1.15 1.45 39.79zm-3.81 0.5l-1.48 -40.76 323.78 -1.18 1.48 40.76 -323.78 1.18z"/>
    <path id="63" class="fil53" d="M90.12 181.11l321.23 -1.16 -1.47 -40.44 -321.23 1.16 1.47 40.44zm-3.81 0.5l-1.5 -41.4 328.88 -1.2 1.51 41.4 -328.89 1.2z"/>
    <path id="64" class="fil54" d="M87.58 181.44l326.34 -1.18 -1.5 -41.08 -326.33 1.18 1.49 41.08zm-3.8 0.5l-1.54 -42.05 333.99 -1.21 1.53 42.04 -333.98 1.22z"/>
    <path id="65" class="fil55" d="M85.04 181.77l331.44 -1.2 -1.52 -41.72 -331.44 1.2 1.52 41.72zm-3.8 0.5l-1.56 -42.69 339.08 -1.23 1.56 42.69 -339.08 1.23z"/>
    <path id="66" class="fil56" d="M82.51 182.1l336.53 -1.22 -1.55 -42.36 -336.53 1.22 1.55 42.36zm-3.81 0.5l-1.58 -43.33 344.18 -1.25 1.58 43.33 -344.18 1.25z"/>
    <path id="67" class="fil47" d="M79.97 182.43l341.63 -1.24 -1.57 -43 -341.63 1.24 1.57 43zm-3.81 0.5l-1.6 -43.97 349.28 -1.27 1.6 43.97 -349.28 1.27z"/>
    <path id="68" class="fil46" d="M77.43 182.76l346.73 -1.26 -1.59 -43.64 -346.73 1.26 1.59 43.64zm-3.81 0.5l-1.62 -44.61 354.38 -1.29 1.62 44.61 -354.38 1.29z"/>
    <path id="69" class="fil57" d="M74.89 183.09l351.83 -1.27 -1.61 -44.29 -351.83 1.27 1.61 44.29zm-3.8 0.5l-1.65 -45.25 359.47 -1.31 1.65 45.25 -359.47 1.31z"/>
    <path id="70" class="fil58" d="M72.36 183.42l356.92 -1.29 -1.63 -44.93 -356.93 1.29 1.64 44.93zm-3.81 0.5l-1.67 -45.9 364.57 -1.32 1.67 45.9 -364.57 1.32z"/>
    <path id="71" class="fil59" d="M69.82 183.75l362.02 -1.31 -1.66 -45.57 -362.02 1.31 1.66 45.57zm-3.81 0.5l-1.69 -46.54 369.67 -1.34 1.7 46.54 -369.68 1.34z"/>
    <path id="72" class="fil43" d="M67.28 184.08l367.12 -1.33 -1.68 -46.21 -367.12 1.33 1.68 46.21zm-3.81 0.5l-1.71 -47.18 374.77 -1.36 1.72 47.18 -374.78 1.36z"/>
    <path id="73" class="fil60" d="M64.74 184.41l372.23 -1.35 -1.71 -46.85 -372.22 1.35 1.7 46.85zm-3.8 0.5l-1.75 -47.82 379.88 -1.38 1.74 47.82 -379.87 1.38z"/>
    <path id="74" class="fil61" d="M62.21 184.74l377.32 -1.37 -1.73 -47.49 -377.33 1.36 1.74 47.5zm-3.81 0.5l-1.77 -48.46 384.97 -1.4 1.77 48.46 -384.97 1.4z"/>
    <path id="75" class="fil62" d="M59.67 185.07l382.42 -1.38 -1.76 -48.14 -382.42 1.38 1.76 48.14zm-3.81 0.5l-1.79 -49.1 390.07 -1.42 1.79 49.1 -390.07 1.42z"/>
    <path id="76" class="fil63" d="M57.13 185.4l387.52 -1.4 -1.78 -48.78 -387.52 1.4 1.78 48.78zm-3.81 0.5l-1.81 -49.75 395.17 -1.43 1.81 49.75 -395.17 1.43z"/>
    <path id="77" class="fil39" d="M54.59 185.73l392.62 -1.42 -1.8 -49.42 -392.62 1.42 1.8 49.42zm-3.8 0.5l-1.84 -50.39 400.27 -1.45 1.83 50.39 -400.26 1.45z"/>
    <path id="78" class="fil64" d="M52.05 186.06l397.72 -1.44 -1.82 -50.06 -397.72 1.44 1.82 50.06zm-3.8 0.5l-1.86 -51.03 405.36 -1.47 1.86 51.03 -405.36 1.47z"/>
    <path id="79" class="fil65" d="M49.52 186.39l402.81 -1.46 -1.84 -50.7 -402.82 1.46 1.85 50.7zm-3.81 0.5l-1.88 -51.67 410.46 -1.49 1.88 51.67 -410.46 1.49z"/>
    <path id="80" class="fil66" d="M46.98 186.72l407.91 -1.48 -1.87 -51.34 -407.91 1.47 1.87 51.35zm-3.81 0.5l-1.9 -52.31 415.56 -1.51 1.91 52.31 -415.57 1.51z"/>
    <path id="81" class="fil67" d="M44.44 187.05l413.02 -1.49 -1.9 -51.99 -413.01 1.49 1.89 51.99zm-3.81 0.5l-1.93 -52.95 420.67 -1.53 1.93 52.95 -420.67 1.53z"/>
    <path id="82" class="fil68" d="M41.9 187.38l418.12 -1.51 -1.92 -52.64 -418.11 1.52 1.91 52.63zm-3.8 0.5l-1.96 -53.6 425.77 -1.54 1.95 53.59 -425.76 1.55z"/>
    <path id="83" class="fil34" d="M39.37 187.71l423.21 -1.53 -1.94 -53.27 -423.22 1.53 1.95 53.27zm-3.81 0.5l-1.98 -54.24 430.86 -1.56 1.98 54.24 -430.86 1.56z"/>
    <path id="84" class="fil69" d="M36.83 188.04l428.31 -1.55 -1.97 -53.92 -428.31 1.56 1.97 53.91zm-3.81 0.5l-2 -54.88 435.96 -1.58 2 54.88 -435.96 1.58z"/>
    <path id="85" class="fil70" d="M34.29 188.37l433.41 -1.57 -1.99 -54.56 -433.41 1.58 1.99 54.55zm-3.81 0.5l-2.02 -55.52 441.06 -1.6 2.02 55.52 -441.06 1.6z"/>
    <path id="86" class="fil71" d="M31.75 188.7l438.51 -1.59 -2.01 -55.2 -438.51 1.6 2.01 55.19zm-3.81 0.5l-2.04 -56.16 446.16 -1.62 2.04 56.16 -446.16 1.62z"/>
    <path id="87" class="fil31" d="M29.21 189.03l443.61 -1.6 -2.03 -55.85 -443.61 1.61 2.03 55.84zm-3.8 0.5l-2.07 -56.8 451.25 -1.64 2.07 56.8 -451.25 1.64z"/>
    <path id="88" class="fil30" d="M26.68 189.37l448.7 -1.63 -2.05 -56.49 -448.71 1.63 2.06 56.49zm-3.81 0.49l-2.09 -57.45 456.35 -1.65 2.09 57.45 -456.35 1.65z"/>
    <path id="89" class="fil72" d="M24.14 189.7l453.8 -1.65 -2.08 -57.13 -453.8 1.65 2.08 57.13zm-3.81 0.49l-2.11 -58.09 461.45 -1.67 2.12 58.09 -461.46 1.67z"/>
    <path id="90" class="fil73" d="M21.6 190.03l458.91 -1.67 -2.11 -57.77 -458.9 1.67 2.1 57.77zm-3.81 0.49l-2.14 -58.73 466.56 -1.69 2.14 58.73 -466.56 1.69z"/>
    <path id="91" class="fil74" d="M19.06 190.36l464.01 -1.69 -2.13 -58.41 -464.01 1.69 2.13 58.41zm-3.8 0.49l-2.17 -59.37 471.65 -1.71 2.17 59.37 -471.65 1.71z"/>
    <path id="92" class="fil24" d="M16.52 190.69l469.11 -1.71 -2.15 -59.05 -469.11 1.7 2.15 59.06zm-3.8 0.49l-2.19 -60.01 476.75 -1.73 2.19 60.01 -476.75 1.73z"/>
    <path id="93" class="fil21" d="M13.99 191.02l474.2 -1.72 -2.18 -59.7 -474.2 1.72 2.18 59.7zm-3.81 0.49l-2.21 -60.65 481.85 -1.75 2.21 60.65 -481.85 1.75z"/>
    <path id="94" class="fil75" d="M11.45 191.35l479.3 -1.74 -2.2 -60.34 -479.3 1.74 2.2 60.34zm-3.81 0.49l-2.23 -61.3 486.95 -1.76 2.23 61.3 -486.95 1.76z"/>
    <path id="95" class="fil76" d="M8.91 191.68l484.4 -1.76 -2.22 -60.98 -484.4 1.76 2.22 60.98zm-3.81 0.49l-2.25 -61.94 492.05 -1.78 2.25 61.94 -492.05 1.78z"/>
    <path id="96" class="fil77" d="M6.37 192.01l489.5 -1.78 -2.24 -61.62 -489.5 1.78 2.24 61.62zm-3.8 0.49l-2.28 -62.58 497.14 -1.8 2.28 62.58 -497.14 1.8z"/>
    <path id="97" class="fil78" d="M3.84 192.34l494.59 -1.8 -2.27 -62.26 -494.59 1.8 2.27 62.26zm-3.81 0.49l-2.3 -63.22 502.24 -1.82 2.31 63.22 -502.25 1.82z"/>
    <path id="98" class="fil79" d="M1.3 192.67l499.69 -1.82 -2.29 -62.9 -499.69 1.81 2.29 62.91zm-3.81 0.49l-2.33 -63.86 507.35 -1.84 2.33 63.86 -507.35 1.84z"/>
    <path id="99" class="fil4" d="M-1.24 193l504.8 -1.83 -2.32 -63.55 -504.8 1.83 2.32 63.55zm-3.81 0.49l-2.35 -64.5 512.45 -1.86 2.35 64.5 -512.45 1.86z"/>
    <path id="100" class="fil79" d="M-3.78 193.33l509.9 -1.85 -2.34 -64.19 -509.9 1.85 2.34 64.19zm-3.8 0.49l-2.38 -65.15 517.55 -1.87 2.37 65.15 -517.54 1.87z"/>
    <path id="101" class="fil78" d="M-6.32 193.66l515 -1.87 -2.36 -64.83 -515 1.87 2.36 64.83zm-3.8 0.49l-2.4 -65.79 522.64 -1.89 2.4 65.79 -522.64 1.89z"/>
    <path id="102" class="fil77" d="M-8.85 193.99l520.09 -1.89 -2.39 -65.47 -520.09 1.89 2.39 65.47zm-3.81 0.49l-2.42 -66.43 527.74 -1.91 2.42 66.43 -527.74 1.91z"/>
    <path id="103" class="fil76" d="M-11.39 194.32l525.19 -1.91 -2.41 -66.11 -525.19 1.91 2.41 66.11zm-3.81 0.49l-2.44 -67.07 532.84 -1.93 2.44 67.07 -532.84 1.93z"/>
    <path id="104" class="fil75" d="M-13.93 194.65l530.29 -1.93 -2.43 -66.75 -530.29 1.92 2.43 66.76zm-3.81 0.49l-2.46 -67.71 537.94 -1.95 2.46 67.71 -537.94 1.95z"/>
    <path id="105" class="fil21" d="M-16.47 194.98l535.39 -1.94 -2.45 -67.4 -535.39 1.94 2.45 67.4zm-3.8 0.49l-2.49 -68.35 543.03 -1.97 2.49 68.35 -543.03 1.97z"/>
    <path id="106" class="fil24" d="M-19 195.31l540.48 -1.96 -2.47 -68.04 -540.49 1.96 2.48 68.04zm-3.81 0.49l-2.52 -69 548.14 -1.98 2.52 69 -548.14 1.98z"/>
    <path id="107" class="fil74" d="M-21.54 195.64l545.58 -1.98 -2.5 -68.68 -545.58 1.98 2.5 68.68zm-3.81 0.49l-2.54 -69.64 553.24 -2 2.54 69.64 -553.24 2z"/>
    <path id="108" class="fil73" d="M-24.08 195.97l550.69 -2 -2.53 -69.32 -550.69 2 2.53 69.32zm-3.81 0.49l-2.56 -70.28 558.34 -2.02 2.56 70.28 -558.34 2.02z"/>
    <path id="109" class="fil72" d="M-26.62 196.3l555.79 -2.02 -2.55 -69.96 -555.79 2.02 2.55 69.96zm-3.8 0.49l-2.59 -70.92 563.44 -2.05 2.58 70.93 -563.43 2.04z"/>
    <path id="110" class="fil30" d="M-29.16 196.63l560.89 -2.04 -2.57 -70.6 -560.89 2.03 2.57 70.61zm-3.8 0.49l-2.61 -71.56 568.53 -2.06 2.61 71.56 -568.53 2.06z"/>
    <path id="111" class="fil31" d="M-31.69 196.96l565.98 -2.05 -2.6 -71.25 -565.98 2.05 2.6 71.25zm-3.81 0.49l-2.63 -72.2 573.63 -2.09 2.63 72.21 -573.63 2.08z"/>
    <path id="112" class="fil71" d="M-34.23 197.29l571.08 -2.07 -2.62 -71.89 -571.08 2.07 2.62 71.89zm-3.81 0.49l-2.65 -72.85 578.73 -2.09 2.65 72.85 -578.73 2.09z"/>
    <path id="113" class="fil70" d="M-36.77 197.62l576.18 -2.09 -2.64 -72.53 -576.18 2.09 2.64 72.53zm-3.81 0.5l-2.67 -73.5 583.83 -2.12 2.67 73.5 -583.83 2.12z"/>
    <path id="114" class="fil69" d="M-39.31 197.95l581.28 -2.11 -2.66 -73.17 -581.28 2.11 2.66 73.17zm-3.8 0.49l-2.7 -74.13 588.92 -2.14 2.71 74.14 -588.93 2.13z"/>
    <path id="115" class="fil34" d="M-41.84 198.28l586.37 -2.13 -2.68 -73.81 -586.38 2.13 2.69 73.81zm-3.81 0.5l-2.73 -74.78 594.03 -2.16 2.73 74.78 -594.03 2.16z"/>
    <path id="116" class="fil68" d="M-44.38 198.61l591.48 -2.14 -2.72 -74.46 -591.47 2.14 2.71 74.46zm-3.81 0.49l-2.75 -75.41 599.13 -2.18 2.75 75.42 -599.13 2.17z"/>
    <path id="117" class="fil67" d="M-46.92 198.94l596.58 -2.16 -2.74 -75.1 -596.58 2.16 2.74 75.1zm-3.81 0.5l-2.77 -76.07 604.23 -2.19 2.77 76.06 -604.23 2.2z"/>
    <path id="118" class="fil66" d="M-49.46 199.27l601.68 -2.18 -2.76 -75.74 -601.68 2.18 2.76 75.74zm-3.8 0.5l-2.8 -76.71 609.33 -2.21 2.79 76.71 -609.32 2.21z"/>
    <path id="119" class="fil65" d="M-52 199.6l606.78 -2.2 -2.78 -76.38 -606.78 2.2 2.78 76.38zm-3.8 0.5l-2.82 -77.35 614.42 -2.23 2.82 77.35 -614.42 2.23z"/>
    <path id="120" class="fil64" d="M-54.53 199.93l611.87 -2.22 -2.81 -77.02 -611.87 2.22 2.81 77.02zm-3.81 0.5l-2.84 -77.99 619.52 -2.25 2.84 77.99 -619.52 2.25z"/>
    <path id="121" class="fil39" d="M-57.07 200.26l616.97 -2.24 -2.83 -77.66 -616.97 2.24 2.83 77.66zm-3.81 0.5l-2.86 -78.63 624.62 -2.27 2.86 78.63 -624.62 2.27z"/>
    <path id="122" class="fil63" d="M-59.61 200.59l622.07 -2.26 -2.85 -78.3 -622.07 2.25 2.85 78.31zm-3.81 0.5l-2.88 -79.27 629.72 -2.29 2.88 79.27 -629.72 2.29z"/>
    <path id="123" class="fil62" d="M-62.15 200.92l627.17 -2.27 -2.87 -78.95 -627.17 2.27 2.87 78.95zm-3.8 0.5l-2.91 -79.91 634.81 -2.31 2.92 79.91 -634.82 2.31z"/>
    <path id="124" class="fil61" d="M-64.68 201.25l632.27 -2.29 -2.9 -79.59 -632.27 2.29 2.9 79.59zm-3.81 0.5l-2.94 -80.56 639.92 -2.32 2.94 80.56 -639.92 2.32z"/>
    <path id="125" class="fil60" d="M-67.22 201.58l637.37 -2.31 -2.93 -80.23 -637.36 2.31 2.92 80.23zm-3.81 0.5l-2.96 -81.2 645.02 -2.34 2.96 81.2 -645.02 2.34z"/>
    <path id="126" class="fil43" d="M-69.76 201.91l642.47 -2.33 -2.95 -80.87 -642.47 2.33 2.95 80.87zm-3.81 0.5l-2.98 -81.84 650.12 -2.36 2.98 81.84 -650.12 2.36z"/>
    <path id="127" class="fil59" d="M-72.3 202.24l647.57 -2.35 -2.97 -81.51 -647.57 2.35 2.97 81.51zm-3.8 0.5l-3.01 -82.48 655.22 -2.38 3 82.48 -655.21 2.38z"/>
    <path id="128" class="fil58" d="M-74.83 202.57l652.66 -2.36 -2.99 -82.16 -652.67 2.36 3 82.16zm-3.81 0.5l-3.03 -83.12 660.31 -2.4 3.03 83.12 -660.31 2.4z"/>
    <path id="129" class="fil57" d="M-77.37 202.9l657.76 -2.38 -3.02 -82.8 -657.76 2.38 3.02 82.8zm-3.81 0.5l-3.05 -83.77 665.41 -2.41 3.05 83.76 -665.41 2.42z"/>
    <path id="130" class="fil46" d="M-79.91 203.23l662.86 -2.4 -3.04 -83.44 -662.86 2.4 3.04 83.44zm-3.81 0.5l-3.07 -84.41 670.51 -2.43 3.07 84.41 -670.51 2.43z"/>
    <path id="131" class="fil47" d="M-82.45 203.56l667.96 -2.42 -3.06 -84.08 -667.96 2.42 3.06 84.08zm-3.8 0.5l-3.1 -85.05 675.61 -2.45 3.1 85.05 -675.61 2.45z"/>
    <path id="132" class="fil56" d="M-84.99 203.89l673.06 -2.44 -3.08 -84.72 -673.06 2.44 3.08 84.72zm-3.8 0.5l-3.12 -85.69 680.7 -2.47 3.13 85.69 -680.71 2.47z"/>
    <path id="133" class="fil55" d="M-87.52 204.22l678.16 -2.46 -3.11 -85.36 -678.16 2.46 3.11 85.36zm-3.81 0.5l-3.15 -86.33 685.81 -2.49 3.15 86.33 -685.81 2.49z"/>
    <path id="134" class="fil54" d="M-90.06 204.55l683.26 -2.47 -3.14 -86.01 -683.26 2.47 3.14 86.01zm-3.81 0.5l-3.17 -86.97 690.91 -2.51 3.17 86.97 -690.91 2.51z"/>
    <path id="135" class="fil53" d="M-92.6 204.88l688.36 -2.49 -3.16 -86.65 -688.36 2.49 3.16 86.65zm-3.81 0.5l-3.19 -87.62 696.01 -2.52 3.19 87.61 -696.01 2.53z"/>
    <path id="136" class="fil51" d="M-95.14 205.21l693.46 -2.51 -3.18 -87.29 -693.46 2.51 3.18 87.29zm-3.8 0.5l-3.22 -88.26 701.11 -2.54 3.21 88.26 -701.1 2.54z"/>
    <path id="137" class="fil52" d="M-97.68 205.54l698.56 -2.53 -3.2 -87.93 -698.56 2.53 3.2 87.93zm-3.8 0.5l-3.24 -88.9 706.2 -2.56 3.24 88.9 -706.2 2.56z"/>
    <path id="138" class="fil52" d="M-100.21 205.87l703.65 -2.55 -3.23 -88.57 -703.65 2.55 3.23 88.57zm-3.81 0.5l-3.26 -89.54 711.3 -2.58 3.26 89.54 -711.3 2.58z"/>
    <path id="139" class="fil52" d="M-102.75 206.2l708.75 -2.57 -3.25 -89.22 -708.75 2.58 3.25 89.21zm-3.81 0.5l-3.28 -90.18 716.4 -2.6 3.28 90.18 -716.4 2.6z"/>
    <path id="140" class="fil52" d="M-105.29 206.53l713.85 -2.58 -3.27 -89.86 -713.85 2.58 3.27 89.86zm-3.81 0.5l-3.3 -90.82 721.5 -2.62 3.31 90.82 -721.51 2.62z"/>
    <path id="141" class="fil52" d="M-107.83 206.86l718.95 -2.6 -3.29 -90.51 -718.95 2.61 3.29 90.5zm-3.8 0.5l-3.34 -91.47 726.6 -2.63 3.34 91.46 -726.6 2.64z"/>
    <path id="142" class="fil52" d="M-110.36 207.19l724.05 -2.62 -3.32 -91.14 -724.06 2.62 3.33 91.14zm-3.81 0.5l-3.36 -92.11 731.7 -2.65 3.36 92.11 -731.7 2.65z"/>
    <path id="143" class="fil52" d="M-112.9 207.53l729.15 -2.65 -3.35 -91.79 -729.15 2.65 3.35 91.79zm-3.81 0.49l-3.38 -92.75 736.8 -2.67 3.38 92.75 -736.8 2.67z"/>
    <path id="144" class="fil52" d="M-115.44 207.85l734.25 -2.66 -3.37 -92.43 -734.25 2.67 3.37 92.42zm-3.81 0.5l-3.4 -93.39 741.9 -2.69 3.4 93.39 -741.9 2.69z"/>
    <path id="145" class="fil52" d="M-117.98 208.19l739.35 -2.69 -3.39 -93.07 -739.35 2.69 3.39 93.07zm-3.8 0.49l-3.43 -94.03 747 -2.71 3.42 94.03 -746.99 2.71z"/>
    <path id="146" class="fil52" d="M-120.52 208.51l744.45 -2.69 -3.41 -93.72 -744.45 2.7 3.41 93.71zm-3.8 0.5l-3.45 -94.67 752.09 -2.73 3.45 94.67 -752.09 2.73z"/>
    <path id="147" class="fil52" d="M-123.05 208.85l749.54 -2.72 -3.44 -94.36 -749.54 2.72 3.44 94.36zm-3.81 0.49l-3.47 -95.32 757.19 -2.74 3.47 95.31 -757.19 2.75z"/>
    <path id="148" class="fil52" d="M-125.59 209.18l754.64 -2.74 -3.46 -95 -754.64 2.74 3.46 95zm-3.81 0.49l-3.49 -95.96 762.29 -2.76 3.49 95.96 -762.29 2.76z"/>
    <path id="149" class="fil52" d="M-128.13 209.51l759.74 -2.76 -3.48 -95.64 -759.74 2.76 3.48 95.64zm-3.81 0.49l-3.52 -96.6 767.4 -2.78 3.52 96.6 -767.4 2.78z"/>
    <path id="150" class="fil52" d="M-130.67 209.84l764.85 -2.78 -3.51 -96.28 -764.84 2.78 3.5 96.28zm-3.8 0.49l-3.55 -97.24 772.49 -2.8 3.55 97.24 -772.49 2.8z"/>
    <path id="151" class="fil51" d="M-133.2 210.17l769.94 -2.8 -3.53 -96.92 -769.95 2.8 3.54 96.92zm-3.81 0.49l-3.57 -97.88 777.59 -2.82 3.57 97.88 -777.59 2.82z"/>
    <path id="152" class="fil50" d="M-135.74 210.5l775.04 -2.81 -3.56 -97.57 -775.04 2.81 3.56 97.57zm-3.81 0.49l-3.59 -98.52 782.69 -2.84 3.59 98.52 -782.69 2.84z"/>
    <path id="153" class="fil49" d="M-138.28 210.83l780.14 -2.83 -3.58 -98.21 -780.14 2.83 3.58 98.21zm-3.81 0.49l-3.61 -99.17 787.79 -2.85 3.61 99.17 -787.79 2.85z"/>
    <path id="154" class="fil48" d="M-140.82 211.16l785.24 -2.85 -3.6 -98.85 -785.24 2.85 3.6 98.85zm-3.8 0.49l-3.64 -99.81 792.89 -2.87 3.63 99.81 -792.88 2.87z"/>
    <path id="155" class="fil47" d="M-143.36 211.49l790.34 -2.87 -3.62 -99.49 -790.34 2.87 3.62 99.49zm-3.8 0.49l-3.66 -100.45 797.98 -2.89 3.66 100.45 -797.98 2.89z"/>
    <path id="156" class="fil46" d="M-145.89 211.82l795.43 -2.89 -3.65 -100.13 -795.43 2.89 3.65 100.13zm-3.81 0.49l-3.68 -101.09 803.08 -2.91 3.68 101.09 -803.08 2.91z"/>
    <path id="157" class="fil45" d="M-148.43 212.15l800.53 -2.91 -3.67 -100.77 -800.53 2.9 3.67 100.78zm-3.81 0.49l-3.7 -101.73 808.18 -2.93 3.7 101.73 -808.18 2.93z"/>
    <path id="158" class="fil44" d="M-150.97 212.48l805.63 -2.92 -3.69 -101.42 -805.63 2.92 3.69 101.42zm-3.81 0.49l-3.73 -102.37 813.29 -2.95 3.73 102.37 -813.29 2.95z"/>
    <path id="159" class="fil43" d="M-153.51 212.81l810.74 -2.94 -3.72 -102.06 -810.74 2.94 3.72 102.06zm-3.8 0.49l-3.76 -103.02 818.38 -2.96 3.76 103.01 -818.38 2.97z"/>
    <path id="160" class="fil42" d="M-156.04 213.14l815.83 -2.96 -3.74 -102.7 -815.84 2.96 3.75 102.7zm-3.81 0.49l-3.78 -103.66 823.48 -2.98 3.78 103.66 -823.48 2.98z"/>
    <path id="161" class="fil41" d="M-158.58 213.47l820.93 -2.98 -3.77 -103.34 -820.93 2.98 3.77 103.34zm-3.81 0.49l-3.8 -104.3 828.58 -3 3.8 104.3 -828.58 3z"/>
    <path id="162" class="fil40" d="M-161.12 213.8l826.03 -3 -3.79 -103.98 -826.03 3 3.79 103.98zm-3.81 0.49l-3.82 -104.94 833.68 -3.02 3.82 104.94 -833.68 3.02z"/>
    <path id="163" class="fil39" d="M-163.66 214.13l831.13 -3.02 -3.81 -104.62 -831.13 3.02 3.81 104.62zm-3.8 0.49l-3.85 -105.58 838.78 -3.04 3.84 105.58 -838.77 3.04z"/>
    <path id="164" class="fil38" d="M-166.2 214.46l836.23 -3.03 -3.83 -105.27 -836.23 3.03 3.83 105.27zm-3.8 0.49l-3.87 -106.22 843.87 -3.06 3.87 106.22 -843.87 3.06z"/>
    <path id="165" class="fil37" d="M-168.73 214.79l841.32 -3.05 -3.86 -105.91 -841.32 3.05 3.86 105.91zm-3.81 0.49l-3.89 -106.87 848.97 -3.07 3.89 106.86 -848.97 3.08z"/>
    <path id="166" class="fil36" d="M-171.27 215.12l846.42 -3.07 -3.88 -106.55 -846.42 3.07 3.88 106.55zm-3.81 0.49l-3.91 -107.51 854.07 -3.09 3.92 107.51 -854.08 3.09z"/>
    <path id="167" class="fil35" d="M-173.81 215.45l851.53 -3.09 -3.91 -107.19 -851.52 3.09 3.9 107.19zm-3.81 0.49l-3.94 -108.15 859.18 -3.11 3.94 108.15 -859.18 3.11z"/>
    <path id="168" class="fil34" d="M-176.35 215.78l856.63 -3.11 -3.93 -107.83 -856.63 3.11 3.93 107.83zm-3.8 0.49l-3.97 -108.79 864.27 -3.14 3.97 108.8 -864.27 3.13z"/>
    <path id="169" class="fil33" d="M-178.88 216.11l861.72 -3.13 -3.95 -108.47 -861.73 3.13 3.96 108.47zm-3.81 0.49l-3.99 -109.43 869.37 -3.15 3.99 109.43 -869.37 3.15z"/>
    <path id="170" class="fil32" d="M-181.42 216.44l866.82 -3.14 -3.98 -109.12 -866.82 3.14 3.98 109.12zm-3.81 0.49l-4.01 -110.07 874.47 -3.18 4.01 110.08 -874.47 3.17z"/>
    <path id="171" class="fil31" d="M-183.96 216.77l871.92 -3.16 -4 -109.76 -871.92 3.16 4 109.76zm-3.81 0.49l-4.03 -110.72 879.57 -3.19 4.03 110.73 -879.57 3.18z"/>
    <path id="172" class="fil30" d="M-186.5 217.1l877.02 -3.18 -4.02 -110.4 -877.02 3.18 4.02 110.4zm-3.8 0.5l-4.06 -111.37 884.67 -3.21 4.05 111.37 -884.66 3.21z"/>
    <path id="173" class="fil29" d="M-189.04 217.43l882.12 -3.2 -4.04 -111.04 -882.12 3.2 4.04 111.04zm-3.8 0.49l-4.08 -112 889.76 -3.23 4.08 112.01 -889.76 3.22z"/>
    <path id="174" class="fil28" d="M-191.57 217.76l887.21 -3.22 -4.07 -111.68 -887.21 3.22 4.07 111.68zm-3.81 0.5l-4.1 -112.65 894.86 -3.25 4.11 112.65 -894.87 3.25z"/>
    <path id="175" class="fil27" d="M-194.11 218.09l892.31 -3.24 -4.09 -112.32 -892.31 3.23 4.09 112.33zm-3.81 0.49l-4.12 -113.28 899.96 -3.27 4.13 113.29 -899.97 3.26z"/>
    <path id="176" class="fil26" d="M-196.65 218.42l897.42 -3.25 -4.12 -112.97 -897.41 3.25 4.11 112.97zm-3.81 0.5l-4.15 -113.93 905.07 -3.29 4.15 113.93 -905.07 3.29z"/>
    <path id="177" class="fil25" d="M-199.19 218.75l902.52 -3.27 -4.14 -113.61 -902.52 3.27 4.14 113.61zm-3.8 0.5l-4.18 -114.58 910.16 -3.3 4.18 114.58 -910.16 3.3z"/>
    <path id="178" class="fil24" d="M-201.72 219.08l907.61 -3.29 -4.16 -114.25 -907.62 3.29 4.17 114.25zm-3.81 0.5l-4.2 -115.22 915.26 -3.32 4.2 115.22 -915.26 3.32z"/>
    <path id="179" class="fil23" d="M-204.26 219.41l912.71 -3.31 -4.19 -114.89 -912.71 3.31 4.19 114.89zm-3.81 0.5l-4.22 -115.86 920.36 -3.34 4.22 115.86 -920.36 3.34z"/>
    <path id="180" class="fil22" d="M-206.8 219.74l917.81 -3.33 -4.21 -115.53 -917.81 3.33 4.21 115.53zm-3.81 0.5l-4.24 -116.5 925.46 -3.36 4.24 116.5 -925.46 3.36z"/>
    <path id="181" class="fil21" d="M-209.34 220.07l922.91 -3.35 -4.23 -116.17 -922.91 3.34 4.23 116.18zm-3.8 0.5l-4.27 -117.14 930.56 -3.38 4.26 117.14 -930.55 3.38z"/>
    <path id="182" class="fil20" d="M-211.88 220.4l928.01 -3.36 -4.25 -116.82 -928.01 3.36 4.25 116.82zm-3.8 0.5l-4.29 -117.78 935.65 -3.4 4.29 117.78 -935.65 3.4z"/>
    <path id="183" class="fil19" d="M-214.41 220.73l933.1 -3.38 -4.28 -117.46 -933.1 3.38 4.28 117.46zm-3.81 0.5l-4.31 -118.43 940.75 -3.41 4.32 118.42 -940.76 3.42z"/>
    <path id="184" class="fil18" d="M-216.95 221.06l938.21 -3.4 -4.31 -118.1 -938.2 3.4 4.3 118.1zm-3.81 0.5l-4.34 -119.07 945.86 -3.43 4.34 119.07 -945.86 3.43z"/>
    <path id="185" class="fil17" d="M-219.49 221.39l943.31 -3.42 -4.33 -118.74 -943.3 3.42 4.32 118.74zm-3.81 0.5l-4.36 -119.71 950.96 -3.45 4.36 119.71 -950.96 3.45z"/>
    <path id="186" class="fil16" d="M-222.03 221.72l948.41 -3.44 -4.35 -119.38 -948.41 3.44 4.35 119.38zm-3.8 0.5l-4.39 -120.35 956.05 -3.47 4.39 120.35 -956.05 3.47z"/>
    <path id="187" class="fil15" d="M-224.56 222.05l953.5 -3.46 -4.37 -120.02 -953.51 3.46 4.38 120.02zm-3.81 0.5l-4.41 -120.99 961.15 -3.49 4.41 120.99 -961.15 3.49z"/>
    <path id="188" class="fil14" d="M-227.1 222.38l958.6 -3.47 -4.4 -120.67 -958.6 3.47 4.4 120.67zm-3.81 0.5l-4.43 -121.63 966.25 -3.51 4.43 121.63 -966.25 3.51z"/>
    <path id="189" class="fil13" d="M-229.64 222.71l963.7 -3.49 -4.42 -121.31 -963.7 3.49 4.42 121.31zm-3.81 0.5l-4.45 -122.28 971.35 -3.52 4.45 122.28 -971.35 3.52z"/>
    <path id="190" class="fil12" d="M-232.18 223.04l968.8 -3.51 -4.44 -121.95 -968.8 3.51 4.44 121.95zm-3.8 0.5l-4.48 -122.92 976.45 -3.54 4.47 122.92 -976.44 3.54z"/>
    <path id="191" class="fil11" d="M-234.72 223.37l973.9 -3.53 -4.46 -122.59 -973.9 3.53 4.46 122.59zm-3.8 0.5l-4.5 -123.56 981.54 -3.56 4.5 123.56 -981.54 3.56z"/>
    <path id="192" class="fil10" d="M-237.25 223.7l978.99 -3.55 -4.49 -123.23 -978.99 3.55 4.49 123.23zm-3.81 0.5l-4.53 -124.2 986.65 -3.58 4.53 124.2 -986.65 3.58z"/>
    <path id="193" class="fil9" d="M-239.79 224.03l984.1 -3.57 -4.52 -123.87 -984.09 3.56 4.51 123.88zm-3.81 0.5l-4.55 -124.84 991.75 -3.6 4.55 124.84 -991.75 3.6z"/>
    <path id="194" class="fil8" d="M-242.33 224.36l989.2 -3.58 -4.54 -124.52 -989.2 3.58 4.54 124.52zm-3.81 0.5l-4.57 -125.49 996.85 -3.61 4.57 125.48 -996.85 3.62z"/>
    <path id="195" class="fil7" d="M-244.87 224.69l994.3 -3.6 -4.56 -125.16 -994.3 3.6 4.56 125.16zm-3.8 0.5l-4.6 -126.13 1001.94 -3.63 4.6 126.13 -1001.94 3.63z"/>
    <path id="196" class="fil6" d="M-247.4 225.02l999.39 -3.62 -4.58 -125.8 -999.4 3.62 4.59 125.8zm-3.81 0.5l-4.62 -126.77 1007.04 -3.65 4.62 126.77 -1007.04 3.65z"/>
    <path id="197" class="fil5" d="M-249.94 225.35l1004.49 -3.64 -4.61 -126.44 -1004.49 3.64 4.61 126.44zm-3.81 0.5l-4.64 -127.41 1012.14 -3.67 4.64 127.41 -1012.14 3.67z"/>
    <path id="198" class="fil4" d="M-252.48 225.68l1009.59 -3.66 -4.63 -127.09 -1009.59 3.67 4.63 127.08zm-3.81 0.5l-4.66 -128.05 1017.24 -3.69 4.66 128.05 -1017.24 3.69z"/>
    <path id="199" class="fil5" d="M-255.02 226.01l1014.69 -3.68 -4.65 -127.73 -1014.69 3.68 4.65 127.73zm-3.8 0.5l-4.69 -128.69 1022.34 -3.71 4.68 128.69 -1022.33 3.71z"/>
    <path id="200" class="fil6" d="M-257.56 226.34l1019.79 -3.69 -4.67 -128.38 -1019.79 3.7 4.67 128.37zm-3.8 0.5l-4.71 -129.33 1027.43 -3.73 4.72 129.33 -1027.44 3.73z"/>
    <path id="201" class="fil7" d="M-260.09 226.67l1024.88 -3.71 -4.7 -129.02 -1024.88 3.72 4.7 129.01zm-3.81 0.5l-4.74 -129.98 1032.54 -3.74 4.74 129.98 -1032.54 3.74z"/>
    <path id="202" class="fil8" d="M-262.63 227.01l1029.99 -3.74 -4.73 -129.66 -1029.99 3.74 4.73 129.66zm-3.81 0.49l-4.76 -130.62 1037.64 -3.76 4.76 130.62 -1037.64 3.76z"/>
    <path id="203" class="fil9" d="M-265.17 227.33l1035.09 -3.75 -4.75 -130.3 -1035.09 3.76 4.75 130.29zm-3.81 0.5l-4.78 -131.26 1042.74 -3.78 4.78 131.26 -1042.74 3.78z"/>
    <path id="204" class="fil10" d="M-267.71 227.67l1040.19 -3.78 -4.77 -130.94 -1040.19 3.78 4.77 130.94zm-3.8 0.49l-4.81 -131.9 1047.84 -3.8 4.8 131.9 -1047.83 3.8z"/>
    <path id="205" class="fil11" d="M-270.24 228l1045.28 -3.8 -4.79 -131.58 -1045.29 3.79 4.8 131.59zm-3.81 0.49l-4.83 -132.54 1052.93 -3.82 4.83 132.54 -1052.93 3.82z"/>
    <path id="206" class="fil12" d="M-272.78 228.33l1050.38 -3.81 -4.82 -132.23 -1050.38 3.81 4.82 132.23zm-3.81 0.49l-4.85 -133.18 1058.03 -3.84 4.85 133.18 -1058.03 3.84z"/>
    <path id="207" class="fil13" d="M-275.32 228.66l1055.48 -3.83 -4.84 -132.87 -1055.48 3.83 4.84 132.87zm-3.81 0.49l-4.87 -133.83 1063.13 -3.85 4.87 133.83 -1063.13 3.85z"/>
    <path id="208" class="fil14" d="M-277.86 228.99l1060.58 -3.85 -4.86 -133.51 -1060.58 3.85 4.86 133.51zm-3.8 0.49l-4.9 -134.47 1068.23 -3.87 4.89 134.47 -1068.22 3.87z"/>
    <path id="209" class="fil15" d="M-280.4 229.32l1065.68 -3.87 -4.88 -134.15 -1065.68 3.87 4.88 134.15zm-3.8 0.49l-4.93 -135.11 1073.33 -3.89 4.93 135.11 -1073.33 3.89z"/>
    <path id="210" class="fil16" d="M-282.93 229.65l1070.78 -3.89 -4.91 -134.79 -1070.78 3.89 4.91 134.79zm-3.81 0.49l-4.95 -135.75 1078.43 -3.91 4.95 135.75 -1078.43 3.91z"/>
    <path id="211" class="fil17" d="M-285.47 229.98l1075.88 -3.9 -4.94 -135.44 -1075.88 3.9 4.94 135.44zm-3.81 0.49l-4.97 -136.39 1083.53 -3.93 4.97 136.39 -1083.53 3.93z"/>
    <path id="212" class="fil18" d="M-288.01 230.31l1080.98 -3.92 -4.96 -136.08 -1080.98 3.92 4.96 136.08zm-3.81 0.49l-4.99 -137.04 1088.63 -3.94 4.99 137.03 -1088.63 3.95z"/>
    <path id="213" class="fil19" d="M-290.55 230.64l1086.08 -3.94 -4.98 -136.72 -1086.08 3.94 4.98 136.72zm-3.8 0.49l-5.02 -137.68 1093.72 -3.96 5.02 137.68 -1093.72 3.96z"/>
    <path id="214" class="fil20" d="M-293.08 230.97l1091.17 -3.96 -5 -137.36 -1091.18 3.96 5.01 137.36zm-3.81 0.49l-5.04 -138.32 1098.82 -3.98 5.04 138.32 -1098.82 3.98z"/>
    <path id="215" class="fil21" d="M-295.62 231.3l1096.27 -3.98 -5.03 -138 -1096.27 3.98 5.03 138zm-3.81 0.49l-5.06 -138.96 1103.92 -4 5.06 138.96 -1103.92 4z"/>
    <path id="216" class="fil22" d="M-298.16 231.63l1101.37 -4 -5.05 -138.64 -1101.37 4 5.05 138.64zm-3.81 0.49l-5.08 -139.6 1109.02 -4.02 5.08 139.6 -1109.02 4.02z"/>
    <path id="217" class="fil23" d="M-300.7 231.96l1106.47 -4.01 -5.07 -139.29 -1106.47 4.01 5.07 139.29zm-3.8 0.49l-5.11 -140.24 1114.12 -4.04 5.11 140.24 -1114.12 4.04z"/>
    <path id="218" class="fil24" d="M-303.24 232.29l1111.57 -4.03 -5.09 -139.93 -1111.57 4.03 5.09 139.93zm-3.8 0.49l-5.14 -140.89 1119.22 -4.05 5.14 140.88 -1119.22 4.06z"/>
    <path id="219" class="fil25" d="M-305.77 232.62l1116.67 -4.05 -5.13 -140.57 -1116.66 4.05 5.12 140.57zm-3.81 0.49l-5.16 -141.53 1124.32 -4.07 5.16 141.53 -1124.32 4.07z"/>
    <path id="220" class="fil26" d="M-308.31 232.95l1121.77 -4.07 -5.15 -141.21 -1121.77 4.07 5.15 141.21zm-3.81 0.49l-5.18 -142.17 1129.42 -4.09 5.18 142.17 -1129.42 4.09z"/>
    <path id="221" class="fil27" d="M-310.85 233.28l1126.87 -4.09 -5.17 -141.85 -1126.87 4.09 5.17 141.85zm-3.81 0.49l-5.2 -142.81 1134.52 -4.11 5.2 142.81 -1134.52 4.11z"/>
    <path id="222" class="fil28" d="M-313.39 233.61l1131.97 -4.11 -5.19 -142.49 -1131.97 4.11 5.19 142.49zm-3.8 0.49l-5.23 -143.45 1139.61 -4.13 5.23 143.45 -1139.61 4.13z"/>
    <path id="223" class="fil29" d="M-315.92 233.94l1137.06 -4.13 -5.21 -143.13 -1137.07 4.12 5.22 143.14zm-3.81 0.49l-5.25 -144.09 1144.71 -4.15 5.25 144.09 -1144.71 4.15z"/>
    <path id="224" class="fil30" d="M-318.46 234.27l1142.16 -4.14 -5.24 -143.78 -1142.16 4.14 5.24 143.78zm-3.81 0.49l-5.27 -144.73 1149.81 -4.18 5.27 144.74 -1149.81 4.17z"/>
    <path id="225" class="fil31" d="M-321 234.6l1147.26 -4.16 -5.26 -144.42 -1147.26 4.16 5.26 144.42zm-3.81 0.49l-5.29 -145.38 1154.91 -4.18 5.29 145.38 -1154.91 4.18z"/>
    <path id="226" class="fil32" d="M-323.54 234.93l1152.36 -4.18 -5.28 -145.06 -1152.36 4.18 5.28 145.06zm-3.8 0.49l-5.32 -146.02 1160.01 -4.21 5.32 146.03 -1160.01 4.2z"/>
    <path id="227" class="fil33" d="M-326.08 235.26l1157.47 -4.2 -5.31 -145.7 -1157.46 4.2 5.3 145.7zm-3.8 0.49l-5.35 -146.66 1165.11 -4.23 5.35 146.67 -1165.11 4.22z"/>
    <path id="228" class="fil34" d="M-328.61 235.59l1162.56 -4.22 -5.34 -146.34 -1162.55 4.22 5.33 146.34zm-3.81 0.49l-5.37 -147.3 1170.21 -4.25 5.37 147.31 -1170.21 4.24z"/>
    <path id="229" class="fil35" d="M-331.15 235.92l1167.66 -4.23 -5.36 -146.99 -1167.66 4.23 5.36 146.99zm-3.81 0.49l-5.39 -147.94 1175.31 -4.27 5.39 147.95 -1175.31 4.26z"/>
    <path id="230" class="fil36" d="M-333.69 236.25l1172.76 -4.25 -5.38 -147.63 -1172.76 4.25 5.38 147.63zm-3.81 0.5l-5.41 -148.6 1180.41 -4.28 5.41 148.59 -1180.41 4.29z"/>
    <path id="231" class="fil37" d="M-336.23 236.58l1177.86 -4.27 -5.4 -148.27 -1177.86 4.27 5.4 148.27zm-3.8 0.5l-5.44 -149.24 1185.5 -4.3 5.44 149.24 -1185.5 4.3z"/>
    <path id="232" class="fil38" d="M-338.76 236.91l1182.95 -4.29 -5.42 -148.91 -1182.96 4.29 5.43 148.91zm-2.54 0.33l-5.45 -149.55 1188.05 -4.31 5.45 149.55 -1188.05 4.31z"/>
   </g>
   <path id="233" class="fil80 str0" d="M52.06 215.66l-15.8 0 0 -54.12 -18.43 0 0 -13.54 52.66 0 0 13.54 -18.43 0 0 54.12zm41.69 -40.11c-2.33,0 -3.51,1.29 -3.51,3.87l0 5.3 14.92 0 0 -5.3c0,-2.58 -1.17,-3.87 -3.51,-3.87l-7.9 0zm-18.87 3.3c0,-4.82 1.25,-8.57 3.73,-11.3 2.49,-2.72 5.93,-4.08 10.32,-4.08l17.55 0c4.39,0 7.83,1.36 10.31,4.1 2.49,2.74 3.74,6.53 3.74,11.36l0 17.88 -30.29 0 0 3.66c0,0.92 0.29,1.68 0.88,2.29 0.58,0.61 1.32,0.92 2.2,0.92 2.51,0 5.24,0 8.2,0 2.96,0 5.73,0 8.3,0 2.98,-0.38 5.96,-0.73 8.95,-1.1l0 12.12c-3.4,0.51 -6.87,0.76 -10.45,0.76 -3.03,0.58 -6.34,0.88 -9.92,0.88 -3.56,0 -7.01,0 -10.35,0 -3.98,0 -7.17,-1.32 -9.57,-3.94 -2.4,-2.63 -3.6,-6.14 -3.6,-10.48l0 -23.07zm107.97 -1.36c-1,0 -2.08,0.09 -3.25,0.28 -1.17,0.19 -2.25,0.42 -3.25,0.68 -1.16,0.26 -2.37,0.57 -3.6,0.97l0 36.24 -15.36 0 0 -34.79c0,-0.97 -0.29,-1.78 -0.88,-2.42 -0.58,-0.65 -1.32,-0.96 -2.19,-0.96l-0.43 0c-1,0 -2.08,0.09 -3.26,0.28 -1.16,0.19 -2.24,0.42 -3.24,0.68 -1.17,0.26 -2.37,0.57 -3.61,0.97l0 36.24 -15.35 0 0 -51.23 13.6 0 0.88 4.83c1.52,-1.09 3.16,-2.06 4.91,-2.9 1.53,-0.7 3.23,-1.37 5.1,-1.98 1.87,-0.61 3.8,-0.91 5.79,-0.91l0.88 0c2.63,0 4.84,0.54 6.62,1.64 1.79,1.1 3.23,2.48 4.35,4.15 1.46,-1.09 3.1,-2.06 4.91,-2.9 1.52,-0.7 3.33,-1.37 5.4,-1.98 2.08,-0.61 4.35,-0.91 6.81,-0.91l0.88 0c3.98,0 7.16,1.31 9.56,3.96 2.41,2.65 3.6,6.15 3.6,10.53l0 37.7 -15.36 0 0 -34.79c0,-0.97 -0.29,-1.78 -0.88,-2.42 -0.58,-0.65 -1.32,-0.96 -2.19,-0.96l-0.44 0zm42.13 25.13l13.17 0c2.34,0 3.51,-1.29 3.51,-3.87l0 -17.88c0,-0.97 -0.29,-1.78 -0.88,-2.42 -0.58,-0.65 -1.31,-0.96 -2.19,-0.96l-3.08 0c-1.11,0 -2.28,0.09 -3.5,0.28 -1.23,0.19 -2.37,0.42 -3.43,0.68 -1.23,0.26 -2.43,0.57 -3.6,0.97l0 23.2zm0 13.04l0 16.43 -15.36 0 0 -67.66 13.61 0 0.88 4.83c1.52,-1.09 3.15,-2.06 4.91,-2.9 1.52,-0.7 3.21,-1.37 5.1,-1.98 1.87,-0.61 3.79,-0.91 5.79,-0.91l3.94 0c3.99,0 7.17,1.31 9.58,3.96 2.39,2.65 3.59,6.15 3.59,10.53l0 22.24c0,4.83 -1.23,8.61 -3.73,11.36 -2.49,2.74 -5.92,4.1 -10.31,4.1l-18 0zm40.02 -74.27c9.94,-0.01 19.88,-0.02 29.82,-0.02 0.87,0 1.6,-0.3 2.18,-0.91 1.92,-2.04 0.33,-5.51 -2.14,-5.51l-15.7 0c-3.95,0 -7.11,-1.31 -9.49,-3.93 -2.38,-2.62 -3.57,-6.1 -3.57,-10.45l0 -3.35c0,-4.35 1.19,-7.83 3.57,-10.45 2.38,-2.62 5.54,-3.93 9.49,-3.93l29.59 0 0 12.46 -24.37 0c-0.88,0 -1.6,0.32 -2.18,0.96 -0.58,0.64 -0.87,1.44 -0.87,2.4 0,0.96 0.29,1.75 0.87,2.39 0.58,0.64 1.3,0.96 2.18,0.96l15.66 0c3.95,0 7.11,1.3 9.49,3.9 2.38,2.59 3.56,6.04 3.56,10.35l0 3.8c0,4.31 -1.18,7.76 -3.56,10.35 -2.38,2.6 -5.54,3.9 -9.49,3.9 -3.71,0 -16.09,-0.06 -19.98,-0.06l0.23 45.46c0,0.97 0.29,1.78 0.87,2.42 0.59,0.65 1.31,0.96 2.2,0.96l5.27 0 0 12.57c-1.18,0.19 -2.37,0.35 -3.61,0.48 -1.04,0.13 -2.19,0.25 -3.42,0.34 -1.23,0.1 -2.4,0.15 -3.51,0.15 -3.98,0 -7.17,-1.33 -9.57,-3.97 -2.39,-2.63 -3.61,-6.15 -3.6,-10.53l0.08 -60.74zm48.2 61.7c1.11,0 2.28,-0.09 3.51,-0.28 1.23,-0.19 2.37,-0.42 3.42,-0.68 1.24,-0.26 2.44,-0.59 3.61,-0.97l0 -5.79 -12.74 0c-0.87,0 -1.6,0.31 -2.19,0.96 -0.58,0.64 -0.87,1.45 -0.87,2.42l0 0.96c0,0.97 0.29,1.78 0.87,2.42 0.59,0.64 1.32,0.96 2.19,0.96l2.2 0zm-7.46 13.54c-3.99,0 -7.17,-1.32 -9.57,-3.97 -2.4,-2.63 -3.6,-6.15 -3.6,-10.53l0 -4.35c0,-4.38 1.2,-7.9 3.6,-10.53 2.4,-2.65 5.58,-3.97 9.57,-3.97l18 0 0 -3.7c0,-0.94 -0.3,-1.71 -0.88,-2.32 -0.59,-0.63 -1.32,-0.94 -2.19,-0.94 -2.35,0 -4.88,0 -7.6,0 -2.72,0 -5.28,0.14 -7.68,0.45 -2.81,0.4 -5.62,0.61 -8.43,0.61l0 -11.94c3.22,-0.54 6.5,-0.82 9.83,-0.82 2.87,-0.57 6,-0.87 9.4,-0.87 3.39,0 6.63,0 9.74,0 3.98,0 7.17,1.33 9.57,3.96 2.39,2.62 3.6,6.11 3.6,10.46l0 37.49 -13.62 0 -0.87 -4.83c-1.52,1.09 -3.16,2.06 -4.92,2.9 -1.52,0.71 -3.21,1.37 -5.08,1.98 -1.87,0.61 -3.81,0.92 -5.8,0.92l-3.07 0zm59.26 -62.59l-0.01 10.39 10.97 0 0 13.06 -10.97 0 0 22.22c0,0.97 0.29,1.78 0.88,2.42 0.58,0.64 1.32,0.96 2.19,0.96l11.41 0 0 12.62c-1.69,0.26 -3.48,0.39 -5.35,0.39 -1.58,0.29 -3.37,0.43 -5.36,0.43 -1.98,0 -3.97,0 -5.97,0 -3.97,0 -7.17,-1.32 -9.56,-3.94 -2.41,-2.65 -3.6,-6.15 -3.6,-10.53l0 -24.57 -5.27 0 0 -13.06 4.17 0 0.25 -48.65 -5.22 0 0 -12.94 6.94 0.16 0.02 -11.61 13.49 0 0 11.45 10.88 0 0 12.94 -10.88 0 0 22.04c0,0.96 0.29,1.76 0.87,2.4 0.58,0.64 1.31,0.96 2.18,0.96l11.31 0 0 12.5c-1.68,0.26 -11.52,0.36 -13.37,0.36zm37.73 21.51c-2.33,0 -3.51,1.29 -3.51,3.87l0 5.3 14.92 0 0 -5.3c0,-2.58 -1.17,-3.87 -3.5,-3.87l-7.91 0zm-18.87 3.3c0,-4.82 1.25,-8.57 3.73,-11.3 2.49,-2.72 5.93,-4.08 10.32,-4.08l17.55 0c4.39,0 7.83,1.36 10.32,4.1 2.48,2.74 3.73,6.53 3.73,11.36l0 17.88 -30.29 0 0 3.66c0,0.92 0.3,1.68 0.88,2.29 0.59,0.61 1.32,0.92 2.2,0.92 2.52,0 5.24,0 8.2,0 2.96,0 5.73,0 8.3,0 2.99,-0.38 5.96,-0.73 8.95,-1.1l0 12.12c-3.4,0.51 -6.87,0.76 -10.45,0.76 -3.03,0.58 -6.34,0.88 -9.92,0.88 -3.56,0 -7.01,0 -10.35,0 -3.98,0 -7.17,-1.32 -9.56,-3.94 -2.41,-2.63 -3.61,-6.14 -3.61,-10.48l0 -23.07zm66.27 1.53c0,0.97 0.3,1.78 0.88,2.42 0.59,0.64 1.32,0.96 2.2,0.96l15.79 0c3.99,0 7.18,1.31 9.58,3.94 2.39,2.61 3.59,6.08 3.59,10.44l0 3.83c0,4.35 -1.2,7.83 -3.59,10.44 -2.4,2.62 -5.59,3.93 -9.58,3.93 -3.74,0 -7.57,0 -11.49,0 -3.92,0 -7.52,-0.3 -10.8,-0.88 -3.79,0 -7.48,-0.25 -11.06,-0.75l0 -12.53c3.16,0.37 6.35,0.74 9.56,1.11 2.82,0 5.86,0 9.14,0 3.27,0 6.41,0 9.4,0 0.87,0 1.6,-0.31 2.18,-0.92 0.59,-0.62 0.89,-1.4 0.89,-2.32l0 -3.24 -18.87 0c-3.99,0 -7.18,-1.32 -9.58,-3.96 -2.4,-2.64 -3.59,-6.16 -3.59,-10.54l0 -3.38c0,-4.39 1.19,-7.89 3.59,-10.54 2.4,-2.63 5.59,-3.96 9.58,-3.96l29.84 0 0 12.57 -24.58 0c-0.88,0 -1.61,0.31 -2.2,0.96 -0.58,0.65 -0.88,1.46 -0.88,2.42zm-327.63 -93.83l10.45 43.13 9.13 -43.13 16.97 0 -16.53 67.09 -16.54 0 -10.44 -41.69 -10.45 41.69 -16.53 0 -16.54 -67.09 16.97 0 9.14 43.13 10.45 -43.13 13.92 0zm57.87 27.32c-2.32,0 -3.48,1.27 -3.48,3.83l0 5.27 14.8 0 0 -5.27c0,-2.56 -1.16,-3.83 -3.48,-3.83l-7.84 0zm-18.71 3.27c0,-4.78 1.24,-8.5 3.7,-11.2 2.47,-2.7 5.88,-4.05 10.23,-4.05l17.4 0c4.36,0 7.77,1.35 10.23,4.07 2.47,2.71 3.7,6.47 3.7,11.26l0 17.73 -30.03 0 0 3.63c0,0.91 0.29,1.66 0.87,2.26 0.58,0.61 1.31,0.92 2.18,0.92 2.49,0 5.21,0 8.14,0 2.93,0 5.67,0 8.22,0 2.96,-0.37 5.92,-0.73 8.88,-1.09l0 12.01c-3.37,0.51 -6.82,0.76 -10.36,0.76 -3.01,0.58 -6.29,0.87 -9.83,0.87 -3.54,0 -6.97,0 -10.27,0 -3.95,0 -7.11,-1.31 -9.49,-3.92 -2.38,-2.6 -3.57,-6.06 -3.57,-10.38l0 -22.87zm83.99 1.04c0,-0.96 -0.29,-1.76 -0.87,-2.4 -0.58,-0.64 -1.31,-0.96 -2.18,-0.96l-2.17 0c-1.46,0 -2.79,0.05 -4.01,0.15 -1.22,0.09 -2.32,0.21 -3.3,0.33 -1.11,0.19 -2.15,0.35 -3.14,0.48l0 24.92 12.19 0c2.32,0 3.48,-1.28 3.48,-3.83l0 -18.69zm15.23 20.12c0,4.79 -1.24,8.55 -3.7,11.26 -2.47,2.72 -5.87,4.08 -10.23,4.08l-32.2 0 0 -67.09 15.23 0 0 17.25c1.68,-0.38 3.4,-0.7 5.14,-0.96 1.51,-0.25 3.12,-0.47 4.83,-0.67 1.71,-0.19 3.32,-0.28 4.83,-0.28l3.05 0c3.94,0 7.1,1.31 9.48,3.93 2.38,2.61 3.57,6.1 3.57,10.44l0 22.04zm76.59 -33.54l0 48.88 -15.23 0 0 -35.94 -6.53 0 0 -12.94 21.76 0zm-15.23 -19.17l15.23 0 0 13.42 -15.23 0 0 -13.42zm79.19 28.28c-2.32,0 -3.48,1.27 -3.48,3.83l0 5.27 14.8 0 0 -5.27c0,-2.56 -1.16,-3.83 -3.48,-3.83l-7.84 0zm-18.71 3.27c0,-4.78 1.23,-8.5 3.7,-11.2 2.47,-2.7 5.87,-4.05 10.23,-4.05l17.4 0c4.35,0 7.76,1.35 10.23,4.07 2.47,2.71 3.7,6.47 3.7,11.26l0 17.73 -30.03 0 0 3.63c0,0.91 0.29,1.66 0.87,2.26 0.58,0.61 1.31,0.92 2.18,0.92 2.49,0 5.2,0 8.13,0 2.94,0 5.68,0 8.23,0 2.96,-0.37 5.92,-0.73 8.88,-1.09l0 12.01c-3.37,0.51 -6.82,0.76 -10.36,0.76 -3.01,0.58 -6.29,0.87 -9.83,0.87 -3.54,0 -6.97,0 -10.27,0 -3.95,0 -7.11,-1.31 -9.49,-3.92 -2.38,-2.6 -3.57,-6.06 -3.57,-10.38l0 -22.87z"/>
  </g>
 </g>
</svg>
