<?xml version="1.0" encoding="UTF-8"?>
<!DOCTYPE svg PUBLIC "-//W3C//DTD SVG 1.1//EN" "http://www.w3.org/Graphics/SVG/1.1/DTD/svg11.dtd">
<!-- Creator: CorelDRAW 2017 -->
<svg xmlns="http://www.w3.org/2000/svg" xml:space="preserve" width="550px" height="500px" version="1.1" style="shape-rendering:geometricPrecision; text-rendering:geometricPrecision; image-rendering:optimizeQuality; fill-rule:evenodd; clip-rule:evenodd"
viewBox="0 0 550 500"
 xmlns:xlink="http://www.w3.org/1999/xlink">
 <defs>
  <style type="text/css">
   <![CDATA[
    .str0 {stroke:#003333;stroke-width:16;stroke-miterlimit:22.9256}
    .fil1 {fill:#003333}
    .fil0 {fill:#FFCC00}
    .fil2 {fill:yellow}
   ]]>
  </style>
 </defs>
 <g id="Слой_x0020_1">
  <metadata id="CorelCorpID_0Corel-Layer"/>
  <circle class="fil0 str0" cx="275" cy="250" r="226.31"/>
  <path class="fil1" d="M42.67 181.51l464.66 0c20.01,0 36.24,16.25 36.24,36.28l0 64.42c0,20.03 -16.23,36.28 -36.24,36.28l-464.66 0c-20.01,0 -36.24,-16.25 -36.24,-36.28l0 -64.42c0,-20.03 16.23,-36.28 36.24,-36.28z"/>
  <circle class="fil2" cx="275" cy="250" r="170.67"/>
  <path class="fil1" d="M269.1 78.65l11.79 0c6.37,0.21 12.82,0.77 19.35,1.69 8.96,1.25 16.95,3.39 25.39,5.72 9.38,2.59 20.74,7.31 29.21,12.06 15.28,8.55 17.21,10.36 30.66,20.74 6.06,4.68 15.92,14.62 20.78,20.84 8.36,10.67 14.46,18.66 20.84,30.92 1.08,2.08 2.4,4.52 3.34,6.78 1.1,2.64 2.16,4.68 3.2,7.3 3.01,7.6 5.62,14.94 7.66,23.12 3.12,12.56 4.79,25.86 5.02,39.17l0 6.51c-0.12,7.32 -0.69,14.6 -1.69,21.74 -0.84,6.1 -1.98,11.57 -3.4,17.21 -2.71,10.79 -6.62,20.39 -10.88,30.39 -4.64,10.86 -12.52,22.7 -19.69,32.06 -5.18,6.78 -11.04,12.93 -17.05,18.97 -1.12,1.13 -1.57,1.46 -2.78,2.47l-5.55 4.94c-6.58,5.14 -10.7,8.38 -17.91,13.21l-9.62 5.76c-1.4,0.69 -2.17,1.23 -3.39,1.86 -11.84,6.17 -24.16,10.95 -37.21,14.21 -17.97,4.46 -29.49,5.03 -48.12,5.03 -16.83,0 -36.87,-4.1 -52.25,-9.99l-21.64 -9.49c-4.43,-2.47 -8.77,-4.85 -12.97,-7.66 -10.22,-6.85 -19.75,-14.26 -28.45,-22.95 -2.29,-2.3 -5.7,-5.62 -7.63,-8.11 -0.93,-1.22 -1.45,-1.65 -2.39,-2.85 -5.15,-6.58 -8.38,-10.71 -13.21,-17.91 -1.43,-2.14 -2.51,-4.09 -3.84,-6.31 -4.02,-6.63 -7.46,-13.58 -10.33,-20.79 -3.07,-7.71 -5.61,-14.87 -7.66,-23.12 -4.47,-17.97 -5.02,-29.5 -5.02,-48.12 0,-6.72 0.86,-13.43 1.69,-19.29 1.24,-8.96 3.39,-16.96 5.72,-25.4 0.63,-2.28 1.6,-5.23 2.52,-7.61 4.68,-12.11 9.96,-23.76 17.2,-34.56 8.08,-12.04 15.42,-20.85 25.58,-31.07 1.12,-1.13 1.57,-1.46 2.78,-2.46 1.06,-0.89 1.55,-1.66 2.7,-2.55l8.64 -7.09c1.95,-1.47 3.78,-2.96 5.83,-4.33 6.29,-4.18 12.6,-8.33 19.3,-11.81 2.08,-1.08 4.53,-2.41 6.79,-3.35 2.64,-1.08 4.68,-2.15 7.3,-3.19 19.54,-7.75 39.16,-12.01 59.39,-12.69l0 0zm-43.05 318.22c-1.99,-0.17 -10.89,-3.73 -13.06,-4.78 -7.08,-3.41 -10.8,-4.95 -17.57,-9.01 -6.51,-3.92 -10.08,-6.52 -16.19,-11.09l-11.85 -10.17c-29.21,-28.9 -47.3,-67.18 -47.3,-110.08 0,-12.56 0.79,-22.72 3.16,-32.86l2.79 0c-0.12,1.45 -0.86,4.15 -1.26,5.72 -0.51,2.03 -1,3.63 -0.64,5.96 0.66,4.46 0.83,8.54 1.58,12.76 0.55,3.11 3.05,3.6 7.17,6.83 11.3,8.88 21.79,23.18 27.53,36.11 1.29,2.91 0.96,2.62 -0.44,5.02 -8.5,14.45 -9.63,28.47 6.74,37.98 2.59,1.51 1.98,1.07 2.84,4.16 1.49,5.46 2.69,5.47 7.62,9.86 3.97,3.54 15.14,11.93 19.85,12.32 0.08,3.51 2.87,10.22 4.14,13.34 1.55,3.79 4.12,7.92 6.45,11.05 7.75,10.42 17.65,15.8 18.44,16.88l0 0zm145.81 -193.03l0.11 0.1c-0.01,0 -0.14,-0.07 -0.11,-0.1zm10.9 -7.3c1.37,-2.04 1.29,-2.46 0.26,-4.91 -3.11,-7.32 -1.29,-2.03 0.03,-10.17 1.4,-8.54 2.91,-4.16 7.26,-0.27 2.08,1.88 3.57,2.36 7.43,2.36 1.27,1.9 1.99,3.52 3.85,3.52 2.72,0.01 2.6,-2.43 2.1,-4.56 0.28,0.19 8.21,8.35 8.39,0.35 1.11,0.53 1.68,0.53 2.8,0 1.28,2.42 2.22,5.27 3.49,7.69 -1.21,0.1 -4.64,1.73 -6.1,2.28 -3.11,1.2 -2.63,1.83 -2.63,5.76 -1.45,-0.12 -2.34,-1.1 -3.36,-1.89 -3.89,-3.06 -6.42,-6.97 -8.87,-6.87 -1.18,0.05 -5.7,2.69 -7.13,3.4 -1.29,0.65 -2.17,1.16 -3.53,1.71 -1.55,0.66 -2.37,1.23 -3.99,1.61l0 -0.01zm-187.84 -16.13c3.42,-2.3 4.03,-0.24 7,0 0.41,5.03 3.97,9.33 4.19,10.14 -2.37,1.58 -4.36,3.16 -6.99,4.55 0.45,-5.49 4.54,-3.81 4.54,-7 0,-3.25 -3.11,-2.79 -5.24,-2.79 0,-3.62 -2.06,-2.95 -3.5,-4.9zm155.96 -11.89l0 0zm-1.04 -2.45l0 0zm18.18 -20.98l0 0zm2.8 -4.55l3.27 6.24c-2.05,0.1 -2.16,0.71 -3.27,1.45l-2.8 -3.14c3.66,-0.08 3.01,-2.03 2.8,-4.55l0 0zm-0.36 -0.7l0.36 0.7 -0.36 -0.7zm-0.34 -0.7l0.34 0.7 -0.34 -0.7zm-0.36 -0.7l0.36 0.7 -0.36 -0.7zm-113.64 -0.34c2.52,0 1.74,0.29 3.49,0.7 -0.27,1.17 -1.22,2.82 -2.45,3.14 -0.01,-0.94 -0.72,-3.13 -1.04,-3.84l0 0zm113.3 -0.36l0.34 0.7 -0.34 -0.7zm0 0l0 0zm-120.29 0.36l0.46 -2.22c0.43,0.42 0.15,0.19 0.55,0.49 1.16,0.85 0.45,-0.32 1.43,1.03 -1.29,0.29 -0.98,0.57 -2.44,0.7l0 0zm119.59 -1.4l0 0zm0 0l0 0zm-226.95 34.61c0.35,-1.48 5.44,-8.99 6.59,-10.53 6.89,-9.3 13.45,-17.39 22.16,-25.05 1.31,-1.15 1.6,-0.78 3.07,-1.48 0.31,1.14 0.51,1.15 1.4,1.75 -1.79,2.66 -0.23,3.68 0.35,4.54l-12.54 11.6c-4.63,3.69 -12.22,11.43 -16.75,15.41 -0.86,0.76 -1.23,0.89 -2.1,1.75 -0.81,0.81 -1.27,1.41 -2.18,2.01l0 0zm99.31 -37.76c-0.29,1.25 -1.44,2.74 -2.15,3.8 -0.94,1.38 -1.89,1.79 -4.15,1.79 -0.28,-1.06 -0.65,-1.1 -1.4,-1.74 4.11,-0.96 5.76,-3.33 7.7,-3.85l0 0zm0 0l0 0zm6.99 -5.24c1.58,0.17 0.89,-0.53 1.06,1.04l-1.06 -1.04zm0 0l0 0zm-1.4 -0.7c0.38,-0.38 1.34,0.55 0.4,0.18 -0.01,-0.01 -0.98,0.4 -0.4,-0.18zm-12.59 -2.8c1.06,0.27 0.77,0 1.06,1.04 -1.46,-0.38 -0.58,-0.14 -1.06,-1.04zm-36.02 -9.09l0 0zm0 0c1.69,-1.47 9.68,-5.17 11.9,-6.3 9.65,-4.89 21.55,-8.48 32.38,-10.97 8.27,-1.91 13.6,-2.2 21.77,-3.07 9.53,-1.01 25.05,-0.21 34.47,1.3 14.59,2.34 29.58,6.73 42.51,13.1 1.45,0.71 2.81,1.13 4.32,1.97 1.48,0.85 2.6,1.44 4.08,2.21 1.03,0.54 3.25,1.65 3.84,2.45 -5.18,-0.43 -5.47,-3.84 -9.75,-0.65 -3.07,2.3 -4.51,2.92 -1.55,6.36 0.55,0.64 0.5,0.72 1.07,1.37 12.58,14.09 4.57,11.99 9.44,17.49l4.9 4.19c3.64,3.11 3.76,0.06 6.38,0.62 -0.64,2.71 0.84,5.8 3.15,7.34 -1.14,1.7 -1.05,0.58 -1.05,3.5 -7.06,-0.59 -7.68,-11.02 -12.54,-8.36 -4.92,2.7 -3.32,5.12 -1.8,8.01 -1.71,1.14 -4.73,4.87 -3.63,7.49 0.43,1.03 0.54,1.04 0.83,2.3l1.06 0c-0.33,0.7 -0.36,0.73 -0.06,1.43 0.58,1.34 0.32,0.74 1.1,1.01 0.09,3.65 4.54,5.17 5.29,0.41 0.23,-1.5 0.42,-1.68 1.36,-2.5 3.64,2.67 0.92,3.96 4.54,5.25 2.03,0.72 3.28,3.6 4.5,5.31 1.54,2.2 0.92,2.33 -5.2,2.37 -10.6,0.08 -3.28,7.29 -0.19,13.88 0.79,1.69 -0.76,1.44 1.38,6.98 0.49,1.26 1.07,2.35 2.37,2.51 0.84,0.1 6.77,-1.97 7.63,-2.38 -1.18,5.09 -1.18,1.32 -2.91,3.7l-6.87 15.88c-3.1,6.96 -6.97,13.24 -11.05,19.37 -1.59,2.37 -6.11,7.06 -3.21,9.56 4.52,3.91 3.15,1.38 4.36,11.04 1.27,10.16 -1.4,8.81 -1.55,12.54 -0.07,2.15 3.94,4.61 5.41,5.98 0.8,0.73 1.07,1.16 1.99,1.86l10.07 8.8c2.41,2.14 9.11,7.87 12.43,5.62 1.44,-0.98 1.77,-3.56 3.33,-4.38 0.85,-0.45 4.81,-1.21 6.12,-1.57 1.86,-0.51 3.96,-1.14 5.97,-1.72 3.8,-1.1 7.67,-2.5 11.58,-3.46 5.69,-1.38 6.01,0.25 5.96,8.06l-0.71 10.48c-0.57,11.8 -1.36,16.57 -7.36,26.91 -2.29,3.93 -5.1,11.2 -7.72,14.65 -1.14,1.51 -2.23,2.81 -3.41,4.29l-7.14 8.25c-1.07,1.27 -2.46,2.48 -3.65,3.69 -0.73,0.72 -1.2,1.21 -1.92,1.93l-4.04 3.66c-0.86,0.76 -1.22,0.87 -2.09,1.75 -5.51,5.47 -15.51,11.91 -22.18,15.93 -15.73,9.5 -36.12,16.86 -55.79,20.1 -11.59,1.91 -24.23,2.17 -36.1,1.28 -2.16,-0.17 -4.61,-0.68 -7.02,-0.68l-1.78 -2.41c-0.27,-0.21 -0.42,-0.28 -0.64,-0.4 -2.58,-1.4 -3.87,-2.16 -3.87,-5.58 3.94,0 4.2,-0.01 4.2,-3.85 0.87,-0.41 1.97,-0.69 2.84,-1 1.16,-0.42 1.78,-0.88 2.87,-1.37 2.4,-1.07 2.54,1.03 5.84,-1.47 2.31,-1.76 2.47,-1.62 2.44,-5.59 -0.02,-3.84 -0.43,-4.39 -0.7,-7.71 4.38,-2.32 13.54,-7.75 16.31,-11.67 0.72,-1.03 0.91,-1.98 0.85,-3.72 -0.18,-6.44 -3.03,-1.2 3.22,-8.63 5.66,-6.72 6.9,-8.36 6.9,-19.34 -3,-2 -4.1,-1.37 -7.68,-1.77 -9.94,-1.11 -19.82,-4.58 -27.98,-9.78 -1.9,-1.21 -3.52,-2.76 -5.3,-4.15 -2.18,-1.69 -4.82,-0.95 -7.35,-0.08 -2.25,0.75 -7.12,4.32 -5.78,2.24 0.22,-0.34 0.39,-0.4 0.64,-0.69 1.89,-2.04 0.33,-4.68 -0.75,-6.75 -8.51,-16.34 -14.18,-8.11 -18.83,-12.65 -2.23,-2.17 -1.92,-5.81 -4.34,-8.25 -1.12,-1.14 -2.14,-1.9 -3.34,-2.96 -1.09,-0.96 -2.39,-1.85 -3.63,-2.65 -1.2,-0.77 -2.7,-1.62 -4.02,-2.29 -15.81,-8.07 -12.88,-2.35 -18.63,-5.84 -1.81,-1.09 -6.21,-4.47 -8.08,-4.54 -6.16,-0.27 -0.49,8.69 -16.64,-2.21 -1.34,-0.9 -0.78,-0.36 -1.56,-1.59 -5.03,-7.95 -9.93,-9.08 -10.13,-11.93 -0.06,-0.82 0.51,-5.06 0.7,-5.61 0.9,-2.69 4.1,-4.9 3.89,-8.72 -0.12,-2 -1.58,-2.6 -3.87,-2.47 -3.73,0.2 -5.44,2.83 -8.04,4.57 -2.08,-1.8 -1.62,-3.02 -2.01,-6.04 -0.3,-2.29 -0.09,-5.86 -0.09,-8.29 3.44,-2.31 5.07,-6.52 6.99,-10.15 10.22,0 8.25,2.24 12.84,3.98 1.59,0.61 3.17,-0.58 4.3,-1.18 0.26,3.16 1.59,3.49 4.9,3.49 0,5.76 0.7,10.04 0.7,15.74 -1.3,-0.68 -1.5,-1.06 -3.19,-1.36 -1.42,-0.27 -7.06,-1.06 -8.24,-0.28 -4.6,2.97 4.26,8.08 7.64,9.28 4.25,1.51 2.32,4.12 8.45,5.88 3.75,1.09 4.52,1.55 6.98,-1.18 1.94,-2.16 0.88,-3.01 -0.7,-4.4 -2.17,-1.92 -3.1,-5.56 -6.4,-5.84l0 -0.7c1.52,-0.4 3.36,-2.65 4.69,-3.69 1.39,-1.1 3.77,-2.45 3.17,-4.83 -0.56,-2.22 -2.53,-3.62 -1.57,-6.14 0.72,-1.89 3.22,-2.76 5.13,-3.64 1.69,-0.78 4.04,-2.28 5.61,-2.81 3.69,-1.25 6.18,2.81 9.54,-1.62l5.86 -7.07c1.61,-1.87 2.86,-2.14 5.24,-3.17 6.31,-2.72 12.3,-4.45 19.1,-6.42 2.41,-0.7 18.25,-4.4 19.34,-5.85 0.74,-0.96 0.53,-2.26 -0.12,-3.11 -0.72,-0.95 -1.86,-1.19 -3.25,-1.3 0.21,-2.62 2.37,-1.44 2.44,-4.9 4.38,0 2.78,0.19 5.45,2.25 3.35,2.59 4.31,7.93 8.78,2.54 2.01,-2.41 2.55,-1.96 2.55,-5.48 -1.14,-0.77 -0.48,-0.93 -2.1,-1.06 0.79,-2.92 11.74,-7.13 9.36,-11.07 -1.23,-2.05 -3.73,-0.99 -5.86,-0.82 -0.05,-2.48 -1.6,-3.29 -1.94,-5.04 -0.64,-3.2 5.64,-6.05 -2.93,-8.26 -1.54,-0.4 -5.16,-0.71 -6.66,0.02 -1.11,-2.08 -3.27,-5.84 -4.99,-7.26 -3.37,-2.8 -6.45,-1.43 -6.56,3.06 -5.59,0 -3.92,0.58 -6.72,3.41l-7.52 7.52c-1.09,1.1 -1.75,1.47 -2.81,2.44 -1.45,1.34 -3.47,4.31 -5.32,4.81 -0.28,-3.35 -2.8,-7.62 -2.8,-13.64 3.33,-0.77 20.17,-11.63 23.92,-13.16 2.25,-0.92 2.29,0.05 4.41,0.23 -0.13,1.48 -0.62,2.01 0.34,3.12 0.72,0.84 1.93,1.06 3.49,1.08 4.86,0.05 3.56,0.37 5.34,3.75 0.57,1.05 1.1,1.6 2.71,1.52 3.43,-0.15 3.6,-6.98 6.64,-7.03 2.73,-0.04 3.86,6.01 7.92,0.57 1.38,-1.86 4.35,-7.63 0.13,-8.61 0,-6.47 -1.49,-3.21 -2.43,-6.32 -0.99,-3.32 -1.8,-2.61 -5.16,-3.92 -2.01,-0.78 -3.07,-0.46 -3.6,-2.7 2.41,0 5.04,-1.05 6.86,-1.92 2.68,-1.26 0.26,-0.67 2.67,-0.28 1.6,0.27 2.38,-0.42 2.71,-1.65 3.78,2.54 2.65,-1.2 7.29,4.95 1.53,2.03 1.4,1.36 1.11,4.17 -0.14,1.42 -0.12,1.82 0.42,2.7l1.32 1.82c-1.56,6.71 -4.68,3.62 -1.35,12.9 1.27,3.58 1.14,3.3 5.46,6.07 2.31,1.47 6.75,2.15 8.08,-1.19 1.8,-4.53 1.23,-0.87 9.99,-7.49l12.1 -11.32c0.94,-1.26 0.8,-2.19 0.95,-3.54 0.18,-1.59 1.89,-2.84 -0.61,-4.52 2.75,-4.11 -2.82,-8.82 -3.55,-9.73 -1.16,-1.43 -1.97,-2.74 -2.95,-4.4l-1.52 -3.73c-0.9,-1.68 -1.19,-0.93 -3.4,-1.49 -2.97,-0.73 -4.65,-3.66 -8.21,-2.03 -1.29,0.59 -0.76,0.69 -1.82,0.98 -1.95,0.55 -3.11,-0.08 -3.72,2.22 -3.87,0 -3.42,0.08 -6.2,-1.16 -2.42,-1.09 -4.08,-0.57 -4.65,1.86 -3.42,-0.29 -0.37,-2.99 -11.05,-0.56 -1.56,0.37 -4.37,0.23 -5.26,1.76 -1.12,1.93 0.53,3.75 0.93,5.44 -0.47,0.64 -3.02,2.38 -3.84,2.81l-3.85 1.04c-0.58,0.07 -3.28,0.26 -2.7,2.99 0.29,1.32 0.93,1.78 2.34,1.9 -1.07,1.47 -0.63,0.14 -2.81,0 -1.33,-0.09 -2.65,0.61 -3.49,1.05 0,-0.86 -0.21,-2.68 -0.19,-2.83 0.16,-1.68 2.59,-2.78 0.19,-7.31 2.48,-0.66 3.16,-3.52 3.16,-6.65 -3.01,-2.01 -3.03,-1.74 -6.37,0.29l-4.47 2.52c-0.66,0.42 -0.75,0.61 -1.41,1.04 0,2.26 0.17,2.18 1.06,3.5l3.14 0c-0.57,0.5 -2,2.48 -2.8,2.1 -1.39,-0.67 -0.18,-2.48 -2.32,-3.28 -1.08,-0.4 -1.39,-0.09 -2.51,-0.29 -1.8,-0.31 -0.4,-0.76 -2.46,-0.61 -1.4,0.1 -4.93,1.55 -6.08,2.69 -0.93,0.91 -0.62,0.88 -0.62,2.53 -2,-1.34 -3.62,-3.26 -5.42,-0.18 -0.36,0.63 -0.3,0.67 -0.73,1.37 -0.54,0.88 -0.56,0.63 -0.9,1.55 -0.35,0.97 -0.28,2.78 -0.28,4.27 -1.77,0.4 -3.87,0.7 -4.16,2.52 -0.32,2.04 1.63,3.31 2.4,4.47 -1.53,-0.04 -1.08,-0.24 -2.44,-0.36 0,-3.11 -1.05,-3.96 -3.85,-4.19 0.75,-3.21 0.1,-3.41 -2.66,-4.33 -3.88,-1.29 -2.5,-1.13 -6.43,-0.21 2.82,-5.34 -1.81,-5.25 -6.3,-5.25 0.08,-3.45 0.44,-0.68 -0.65,-4.24l-1.1 -2.41 -2.8 0 0 0.01z"/>
  <path class="fil2" d="M50.07 197.6l449.86 0c15.42,0 27.92,10.17 27.92,22.71l0 59.38c0,12.54 -12.5,22.71 -27.92,22.71l-449.86 0c-15.42,0 -27.92,-10.17 -27.92,-22.71l0 -59.38c0,-12.54 12.5,-22.71 27.92,-22.71z"/>
 </g>
</svg>
