<?xml version="1.0" encoding="UTF-8"?>
<!DOCTYPE svg PUBLIC "-//W3C//DTD SVG 1.1//EN" "http://www.w3.org/Graphics/SVG/1.1/DTD/svg11.dtd">
<!-- Creator: CorelDRAW 2017 -->
<svg xmlns="http://www.w3.org/2000/svg" xml:space="preserve" width="500px" height="500px" version="1.1" style="shape-rendering:geometricPrecision; text-rendering:geometricPrecision; image-rendering:optimizeQuality; fill-rule:evenodd; clip-rule:evenodd"
viewBox="0 0 500 500"
 xmlns:xlink="http://www.w3.org/1999/xlink">
 <defs>
  <style type="text/css">
   <![CDATA[
    .str0 {stroke:black;stroke-width:20;stroke-miterlimit:22.9256}
    .str1 {stroke:black;stroke-width:2;stroke-miterlimit:22.9256}
    .fil2 {fill:black}
    .fil0 {fill:#575757}
    .fil1 {fill:#949494}
    .fil3 {fill:#B3B3B3}
    .fil4 {fill:#C2C2C2}
    .fil5 {fill:#EDEDED}
    .fil7 {fill:black;fill-rule:nonzero}
    .fil6 {fill:#FEFEFE;fill-rule:nonzero}
   ]]>
  </style>
 </defs>
 <g id="Слой_x0020_1">
  <metadata id="CorelCorpID_0Corel-Layer"/>
  <circle class="fil0 str0" cx="251.36" cy="250.61" r="239.39"/>
  <path class="fil1" d="M254.55 195.6c-40.2,-24.41 -78.85,-25.51 -116.12,-5.73l30.11 -99.19c42.49,-25.19 80.15,-18.6 115.09,6.03l-29.08 98.89z"/>
  <path class="fil2" d="M138.46 189.54c43.59,-23.78 81.18,-16.61 116.34,6.02l0 8.18c-35.91,-24.53 -74.44,-28 -116.13,-5.94l-0.21 -8.26 0 0z"/>
  <polygon class="fil2" points="283.23,96.98 254.16,195.54 254.1,203.49 283.23,105.68 "/>
  <path class="fil3" d="M220.67 308.73c-40.2,-24.41 -78.85,-25.52 -116.12,-5.73l30.1 -99.2c42.49,-25.19 80.17,-18.59 115.1,6.04l-29.08 98.89 0 0z"/>
  <polygon class="fil2" points="249.35,210.1 220.27,308.67 220.22,316.63 249.35,218.8 "/>
  <path class="fil2" d="M263.64 202.52c36.87,23.16 75.05,28.02 114.53,4.67l0.1 6.9c-37.61,23.22 -75.82,20.97 -114.54,-4.82l-0.09 -6.75 0 0z"/>
  <path class="fil4" d="M292.04 101.33c37.61,23.98 75.61,21.85 113.56,6.5l-27.59 100.14c-38.09,21.37 -76.27,21.01 -114.54,-5.21l28.57 -101.43z"/>
  <polygon class="fil2" points="405.6,107.83 378.17,207.37 378.17,214.46 406.12,114.73 "/>
  <path class="fil5" d="M260.06 215.56c37.6,23.98 76.49,22.29 114.44,6.94l-28.48 99.7c-38.09,21.37 -76.26,21.02 -114.53,-5.21l28.57 -101.43 0 0z"/>
  <polygon class="fil2" points="374.5,222.5 346.17,321.67 346.69,330 374.65,230.27 "/>
  <path class="fil2" d="M104.71 302.26c43.6,-23.78 81.2,-16.62 116.35,6.02l0 8.18c-35.91,-24.53 -74.43,-28.01 -116.13,-5.94l-0.22 -8.26 0 0z"/>
  <path class="fil2" d="M231.8 317.58c36.86,23.17 74.9,27.39 114.38,4.05l0.96 7.21c-37.63,23.21 -76.53,21.29 -115.25,-4.5l-0.09 -6.76 0 0z"/>
  <path class="fil6 str1" d="M44.5 255.37l0 -35.71 11.75 0 6.94 24.33 6.86 -24.33 11.76 0 0 35.71 -7.23 0 -0.01 -24.8 -7.65 24.8 -7.55 0 -7.93 -24.8 0.31 24.8 -7.25 0zm45.1 -29.38l0 -6.33 7.42 0 0 6.33 -7.42 0zm0 29.38l0 -25.89 7.42 0 0 25.89 -7.42 0zm32.19 -17.02c-0.24,-1.34 -0.81,-2.33 -1.69,-3.03 -0.86,-0.67 -2,-1.01 -3.39,-1.01 -1.84,0 -3.32,0.59 -4.43,1.78 -1.09,1.16 -1.64,3.15 -1.64,5.91 0,3.07 0.55,5.26 1.68,6.51 1.12,1.28 2.61,1.91 4.48,1.91 1.41,0 2.57,-0.37 3.46,-1.11 0.9,-0.74 1.53,-2.01 1.91,-3.83l7.29 1.15c-0.76,3.09 -2.2,5.44 -4.35,7.01 -2.14,1.58 -5.02,2.36 -8.63,2.36 -4.1,0 -7.37,-1.18 -9.82,-3.57 -2.43,-2.4 -3.66,-5.7 -3.66,-9.94 0,-4.28 1.24,-7.6 3.69,-9.99 2.44,-2.38 5.74,-3.57 9.92,-3.57 3.4,0 6.12,0.69 8.13,2.04 2.02,1.35 3.47,3.41 4.33,6.18l-7.28 1.2zm12.61 17.02l0 -25.89 6.86 0 0 3.68c1.19,-1.74 2.25,-2.88 3.2,-3.42 0.94,-0.55 2.01,-0.81 3.22,-0.81 1.7,0 3.32,0.43 4.87,1.29l-2.28 5.97c-1.25,-0.76 -2.41,-1.14 -3.5,-1.14 -1.04,0 -1.91,0.27 -2.64,0.8 -0.72,0.53 -1.29,1.47 -1.71,2.86 -0.41,1.38 -0.61,4.27 -0.61,8.67l0 7.99 -7.41 0zm21.45 -19.88c1.22,-2.14 2.93,-3.76 5.17,-4.87 2.22,-1.13 4.7,-1.69 7.45,-1.69 4.25,0 7.71,1.27 10.44,3.81 2.71,2.55 4.06,5.76 4.06,9.65 0,3.92 -1.38,7.18 -4.1,9.75 -2.74,2.59 -6.19,3.88 -10.35,3.88 -2.56,0 -5.02,-0.54 -7.36,-1.62 -2.32,-1.08 -4.09,-2.65 -5.31,-4.73 -1.35,-2.31 -1.82,-4.97 -1.82,-7.57 0,-2.34 0.64,-4.54 1.82,-6.61zm5.81 6.98c0,2.57 0.66,4.54 1.96,5.9 1.34,1.37 2.97,2.05 4.89,2.05 1.94,0 3.55,-0.68 4.86,-2.05 1.32,-1.36 1.97,-3.36 1.97,-5.95 0,-2.54 -0.66,-4.5 -1.97,-5.86 -1.31,-1.36 -2.92,-2.06 -4.86,-2.06 -1.92,0 -3.55,0.7 -4.89,2.06 -1.3,1.36 -1.96,3.34 -1.96,5.91zm24.49 5.61l7.47 -1.05c0.31,1.32 0.95,2.32 1.92,3.01 0.97,0.69 2.32,1.03 4.07,1.03 1.92,0 3.36,-0.33 4.33,-0.96 0.66,-0.46 0.99,-1.08 0.99,-1.86 0,-0.5 -0.19,-0.94 -0.54,-1.27 -0.38,-0.33 -1.2,-0.64 -2.49,-0.91 -5.98,-1.22 -9.78,-2.33 -11.38,-3.34 -2.23,-1.42 -3.35,-3.36 -3.35,-5.85 0,-2.23 0.98,-4.14 2.9,-5.65 1.92,-1.54 4.89,-2.3 8.92,-2.3 3.83,0 6.7,0.58 8.56,1.74 1.88,1.16 3.15,2.87 3.86,5.13l-6.98 1.21c-0.29,-1.01 -0.87,-1.8 -1.72,-2.34 -0.84,-0.54 -2.03,-0.82 -3.58,-0.82 -1.97,0 -3.37,0.26 -4.24,0.77 -0.57,0.37 -0.85,0.83 -0.85,1.4 0,0.48 0.25,0.89 0.75,1.23 0.68,0.47 2.99,1.1 6.96,1.93 3.97,0.84 6.73,1.84 8.31,3.05 1.54,1.22 2.32,2.92 2.32,5.11 0,2.36 -1.07,4.41 -3.22,6.11 -2.15,1.71 -5.33,2.57 -9.55,2.57 -3.81,0 -6.84,-0.72 -9.09,-2.15 -2.22,-1.42 -3.69,-3.35 -4.37,-5.79zm32.83 -12.59c1.21,-2.14 2.93,-3.76 5.16,-4.87 2.24,-1.13 4.69,-1.69 7.45,-1.69 4.25,0 7.71,1.27 10.43,3.81 2.72,2.55 4.06,5.76 4.06,9.65 0,3.92 -1.37,7.18 -4.1,9.75 -2.74,2.59 -6.18,3.88 -10.34,3.88 -2.58,0 -5.02,-0.54 -7.37,-1.62 -2.3,-1.08 -4.08,-2.65 -5.29,-4.73 -1.37,-2.3 -1.82,-4.97 -1.82,-7.57 0,-2.34 0.63,-4.54 1.82,-6.61zm5.8 6.98c0,2.57 0.66,4.54 1.96,5.9 1.34,1.37 2.96,2.05 4.9,2.05 1.92,0 3.54,-0.68 4.86,-2.05 1.3,-1.36 1.95,-3.36 1.95,-5.95 0,-2.54 -0.65,-4.5 -1.95,-5.86 -1.32,-1.36 -2.94,-2.06 -4.86,-2.06 -1.94,0 -3.56,0.7 -4.9,2.06 -1.31,1.36 -1.96,3.34 -1.96,5.91zm23.9 -12.99l4.11 0 0 -1.95c0,-2.19 0.24,-3.8 0.75,-4.88 0.51,-1.09 1.43,-1.96 2.79,-2.64 1.36,-0.67 3.06,-1.01 5.15,-1.01 2.11,0 4.2,0.3 6.23,0.87l-0.94 4.75c-1.21,-0.25 -2.38,-0.39 -3.5,-0.39 -1.09,0 -1.87,0.24 -2.36,0.71 -0.47,0.46 -0.71,1.37 -0.71,2.7l0 1.84 3.91 0 -0.05 5.38 -3.86 0 0 20.51 -7.41 0 0 -20.51 -4.11 0 0 -5.38zm34.07 0l0 5.43 -5.08 0 0 10.49c0,2.13 0.05,3.36 0.14,3.71 0.1,0.35 0.32,0.64 0.67,0.87 0.34,0.23 0.76,0.34 1.26,0.34 0.69,0 1.67,-0.21 2.99,-0.65l0.62 5.33c-1.73,0.68 -3.66,1.02 -5.85,1.02 -1.34,0 -2.53,-0.2 -3.61,-0.63 -1.07,-0.42 -1.86,-0.95 -2.35,-1.62 -0.5,-0.66 -0.85,-1.56 -1.05,-2.68 -0.15,-0.79 -0.23,-2.42 -0.23,-4.84l0 -11.34 -3.4 0 0 -5.43 3.4 0 0 -5.15 7.41 0 0 5.15 5.08 0z"/>
 </g>
 <g id="Слой_x0020_1_0">
  <metadata id="CorelCorpID_1Corel-Layer"/>
  <path class="fil6 str1" d="M58.21 326.15l-13.71 -58.3 12.13 0 8.68 40.04 10.64 -40.04 14.02 0 10.19 40.73 8.88 -40.73 11.85 0 -14.05 58.3 -12.62 0 -11.49 -43.6 -11.57 43.6 -12.95 0 0 0zm68.06 -47.97l0 -10.33 11.15 0 0 10.33 -11.15 0zm0 47.97l0 -42.26 11.15 0 0 42.26 -11.15 0zm49.9 0l0 -21.55c0,-4.55 -0.24,-7.5 -0.71,-8.84 -0.5,-1.34 -1.26,-2.37 -2.35,-3.1 -1.1,-0.76 -2.4,-1.11 -3.91,-1.11 -1.95,0 -3.72,0.52 -5.26,1.58 -1.56,1.05 -2.65,3.26 -3.21,5.01 -0.6,1.75 -0.85,4.16 -0.85,8.9l0 19.11 -11.16 0 0 -42.26 10.35 0 0 6.2c3.69,-4.73 8.36,-7.1 13.99,-7.1 2.47,0 4.74,0.45 6.79,1.34 2.06,0.89 3.62,2.01 4.66,3.38 1.06,1.39 1.79,2.95 2.19,4.7 0.42,1.76 0.63,4.24 0.63,7.5l0 26.24 -11.16 0 0 0zm61.19 -0.07l-10.3 0.07 0 -4.62c-2.07,2.92 -7.8,5.79 -13.24,5.68 -4.87,0 -9.01,-1.96 -12.5,-5.86 -3.46,-3.94 -5.2,-9.4 -5.2,-16.4 0,-7.19 1.69,-12.64 5.06,-16.38 3.39,-3.72 7.65,-5.58 12.79,-5.58 4.73,0 8.82,0.66 12.28,4.58l0 -19.72 11.14 0 -0.03 58.23zm-27.89 -12.07c1.8,2.94 4.3,4.4 7.54,4.4 2.56,0 4.74,-1.09 6.53,-3.29 1.82,-2.2 2.71,-5.48 2.71,-9.83 0,-4.89 -0.85,-8.38 -2.62,-10.55 -1.76,-2.14 -3.97,-3.2 -6.71,-3.2 -2.63,0 -4.86,1.05 -6.65,3.15 -1.77,2.14 -2.66,5.3 -2.66,9.51 0.04,1.68 -0.13,6.77 1.86,9.81l0 0zm39.07 -20.3c1.83,-3.5 4.41,-6.14 7.77,-7.97 3.35,-1.83 7.09,-2.75 11.22,-2.75 6.39,0 11.63,2.08 15.71,6.22 4.08,4.17 6.12,9.4 6.12,15.77 0,6.4 -2.06,11.72 -6.18,15.93 -4.13,4.2 -9.3,6.3 -15.56,6.3 -3.87,0 -7.57,-0.88 -11.06,-2.63 -3.53,-1.76 -6.19,-4.31 -8.02,-7.71 -3.83,-7.08 -3.75,-16.09 0,-23.16l0 0zm11.71 21.02c1.99,2.25 4.44,3.35 7.35,3.35 2.91,0 5.35,-1.1 7.31,-3.35 1.97,-2.22 2.97,-5.47 2.97,-9.71 0,-4.15 -1,-7.34 -2.97,-9.56 -1.96,-2.24 -4.4,-3.34 -7.31,-3.34 -2.91,0 -5.37,1.1 -7.35,3.34 -1.99,2.22 -2.99,5.45 -2.99,9.63 0,3.4 0.66,7.03 2.99,9.64l0 0zm45.7 11.42l-13.35 -42.26 10.86 0 7.92 27.69 7.28 -27.69 10.78 0 7.02 27.69 8.07 -27.69 11.02 0 -13.57 42.26 -10.72 0 -7.26 -27.2 -7.17 27.2 -10.88 0zm62.79 -13.6c0.48,2.16 1.44,3.8 2.9,4.9 1.45,1.13 3.51,1.69 6.13,1.69 2.89,0 5.05,-0.52 6.53,-1.59 0.97,-0.74 1.47,-1.74 1.47,-3 0,-0.83 -0.27,-1.53 -0.81,-2.09 -0.55,-0.53 -1.8,-1.04 -3.73,-1.49 -9.03,-1.99 -14.75,-3.81 -17.16,-5.45 -3.35,-2.3 -5.04,-5.47 -5.04,-9.53 0,-3.68 1.46,-6.75 4.35,-9.26 2.9,-2.48 7.37,-3.74 13.45,-3.74 5.78,0 10.08,0.95 12.9,2.84 2.81,1.89 4.74,4.7 5.8,8.39l-10.49 1.95c-0.45,-1.65 -1.32,-2.92 -2.6,-3.8 -1.26,-0.89 -3.06,-1.31 -5.4,-1.31 -2.96,0 -5.09,0.4 -6.38,1.23 -0.84,0.57 -1.27,1.34 -1.27,2.26 0,0.8 0.37,1.48 1.11,2.03 1.02,0.76 4.51,1.79 10.47,3.16 5.99,1.36 10.15,3 12.52,4.97 2.34,1.99 3.52,4.78 3.52,8.33 0,3.87 -1.63,7.22 -4.86,9.98 -3.24,2.79 -8.02,4.19 -14.38,4.19 -5.76,0 -10.33,-1.17 -13.69,-3.48 -3.37,-2.32 -5.56,-5.51 -6.57,-9.47l11.23 -1.71 0 0z"/>
  <path class="fil6 str1" d="M95.38 379.8l0 -44.62 12.56 0c4.75,0 7.85,0.22 9.3,0.66 2.22,0.68 4.08,2.12 5.6,4.37 1.49,2.25 2.24,5.14 2.24,8.7 0,2.74 -0.43,5.03 -1.29,6.9 -0.86,1.87 -1.96,3.34 -3.29,4.41 -1.34,1.05 -2.7,1.75 -4.06,2.11 -1.86,0.42 -4.57,0.64 -8.12,0.64l-5.1 0 0 16.83 -7.84 0zm7.84 -24.38l4.28 0c3.08,0 5.13,-0.23 6.19,-0.7 1.03,-0.46 1.84,-1.18 2.42,-2.2 0.58,-0.99 0.88,-2.14 0.88,-3.48 0,-1.64 -0.4,-2.97 -1.23,-4.03 -0.82,-1.06 -1.86,-1.72 -3.15,-1.99 -0.93,-0.2 -2.79,-0.3 -5.61,-0.3l-3.78 0 0 12.7zm35.43 24.39l-7.51 -0.01 0 -32.35 6.89 0 0 4.6c1.19,-2.17 2.24,-3.61 3.18,-4.28 0.97,-0.67 2.03,-1 3.24,-1 1.69,0 3.33,0.53 4.9,1.6l-2.29 7.46c-1.26,-0.93 -2.42,-1.39 -3.5,-1.39 -1.05,0 -1.93,0.33 -2.66,0.97 -0.73,0.67 -1.29,1.86 -1.71,3.59 -0.41,1.71 -0.62,5.33 -0.62,10.83l0.08 9.98 0 0zm12.17 -16.57c0,-2.86 0.62,-5.61 1.84,-8.27 1.21,-2.67 2.95,-4.69 5.17,-6.1 2.23,-1.4 4.71,-2.1 7.48,-2.1 4.25,0 7.73,1.58 10.45,4.76 2.71,3.19 4.08,7.21 4.08,12.07 0,4.9 -1.39,8.97 -4.13,12.17 -2.75,3.24 -6.18,4.84 -10.34,4.84 -2.59,0 -5.04,-0.67 -7.38,-2.02 -2.33,-1.33 -4.12,-3.3 -5.33,-5.89 -1.38,-2.93 -1.83,-6.26 -1.83,-9.46l-0.01 0zm7.65 0.45c0,3.21 0.66,5.67 1.98,7.37 1.33,1.73 2.95,2.57 4.9,2.57 1.93,0 3.56,-0.84 4.87,-2.57 1.3,-1.7 1.96,-4.18 1.96,-7.43 0,-3.17 -0.66,-5.61 -1.96,-7.32 -1.31,-1.71 -2.94,-2.56 -4.87,-2.56 -1.95,0 -3.57,0.85 -4.9,2.56 -1.32,1.71 -1.98,4.17 -1.98,7.38l0 0 0 0zm28.06 -16.24l0 -2.44c0,-2.72 0.25,-4.76 0.76,-6.11 0.51,-1.34 1.45,-2.42 2.8,-3.27 1.36,-0.84 3.08,-1.28 5.16,-1.28 2.12,0 4.2,0.37 6.23,1.11l-0.94 5.93c-1.21,-0.33 -2.36,-0.49 -3.48,-0.49 -1.11,0 -1.9,0.3 -2.38,0.88 -0.48,0.59 -0.72,1.7 -0.72,3.37l0 2.3 5.58 0 0 6.73 -5.58 0 0 25.62 -7.43 0 0 -25.62 -4.11 0 0 -6.73 4.11 0 0 0zm40.88 23.55c-0.95,3.14 -2.47,5.51 -4.51,7.15 -2.05,1.65 -4.63,2.46 -7.72,2.46 -4.89,0 -8.5,-1.84 -10.84,-5.52 -1.85,-2.94 -2.78,-6.67 -2.78,-11.16 0,-5.36 1.21,-9.57 3.64,-12.6 2.43,-3.06 5.51,-4.56 9.23,-4.56 4.18,0 7.48,1.58 9.89,4.76 2.42,3.18 3.57,8.06 3.47,14.62l-18.6 0c0.05,2.54 0.65,4.5 1.82,5.94 1.13,1.4 2.55,2.1 4.24,2.1 1.18,0 2.15,-0.36 2.94,-1.08 0.79,-0.73 1.38,-1.92 1.79,-3.53l7.43 1.42 0 0zm-8.66 -15.75c-1.05,-1.3 -2.34,-1.93 -3.86,-1.93 -1.61,0 -2.94,0.68 -3.99,2.04 -1.08,1.36 -1.59,3.22 -1.57,5.55l11.09 0c0.03,-0.41 -0.22,-3.89 -1.67,-5.66l0 0zm19.93 14.14c0.31,1.65 0.97,2.92 1.95,3.77 0.96,0.86 2.32,1.29 4.07,1.29 1.92,0 3.36,-0.41 4.35,-1.22 0.65,-0.57 0.97,-1.34 0.97,-2.3 0,-0.65 -0.18,-1.19 -0.53,-1.61 -0.37,-0.4 -1.2,-0.79 -2.5,-1.13 -5.99,-1.53 -9.8,-2.91 -11.4,-4.18 -2.24,-1.76 -3.36,-4.19 -3.36,-7.29 0,-2.81 0.98,-5.18 2.91,-7.08 1.91,-1.93 4.9,-2.87 8.94,-2.87 3.84,0 6.7,0.71 8.57,2.16 1.88,1.47 3.17,3.6 3.87,6.44l-6.99 1.48c-0.29,-1.26 -0.86,-2.23 -1.72,-2.91 -0.84,-0.67 -2.04,-1.01 -3.6,-1.01 -1.97,0 -3.38,0.32 -4.24,0.96 -0.57,0.44 -0.85,1.02 -0.85,1.72 0,0.62 0.24,1.13 0.74,1.57 0.69,0.57 3,1.37 6.97,2.41 3.98,1.03 6.75,2.3 8.32,3.81 1.57,1.52 2.35,3.64 2.35,6.36 0,2.98 -1.08,5.52 -3.24,7.65 -2.15,2.14 -5.33,3.2 -9.56,3.2 -3.83,0 -6.87,-0.89 -9.11,-2.66 -2.23,-1.79 -3.7,-4.2 -4.39,-7.25l7.48 -1.31 0 0zm30.15 0c0.32,1.65 0.96,2.92 1.93,3.77 0.97,0.86 2.34,1.29 4.08,1.29 1.92,0 3.37,-0.41 4.35,-1.22 0.64,-0.57 0.97,-1.34 0.97,-2.3 0,-0.65 -0.18,-1.19 -0.53,-1.61 -0.37,-0.4 -1.2,-0.79 -2.48,-1.13 -6.02,-1.53 -9.81,-2.91 -11.42,-4.18 -2.23,-1.76 -3.34,-4.19 -3.34,-7.29 0,-2.81 0.97,-5.18 2.89,-7.08 1.93,-1.93 4.9,-2.87 8.94,-2.87 3.85,0 6.71,0.71 8.58,2.16 1.86,1.47 3.17,3.6 3.87,6.44l-7 1.48c-0.3,-1.26 -0.87,-2.23 -1.7,-2.91 -0.86,-0.67 -2.06,-1.01 -3.62,-1.01 -1.97,0 -3.38,0.32 -4.24,0.96 -0.57,0.44 -0.85,1.02 -0.85,1.72 0,0.62 0.25,1.13 0.76,1.57 0.66,0.57 2.99,1.37 6.96,2.41 3.98,1.03 6.75,2.3 8.33,3.81 1.56,1.52 2.33,3.64 2.33,6.36 0,2.98 -1.07,5.52 -3.24,7.65 -2.14,2.14 -5.33,3.2 -9.56,3.2 -3.82,0 -6.86,-0.89 -9.1,-2.66 -2.23,-1.79 -3.7,-4.2 -4.39,-7.25l7.48 -1.31 0 0zm25.32 -26.31l0 -7.9 7.44 0 0 7.9 -7.44 0zm0 36.72l0 -32.35 7.44 0 0 32.35 -7.44 0zm15.16 -24.83c1.22,-2.67 2.93,-4.69 5.17,-6.09 2.24,-1.41 4.72,-2.11 7.46,-2.11 4.27,0 7.74,1.58 10.45,4.76 2.72,3.19 4.07,7.21 4.07,12.07 0,4.9 -1.36,8.97 -4.09,12.17 -2.74,3.24 -6.21,4.84 -10.37,4.84 -2.56,0 -5.03,-0.67 -7.37,-2.02 -2.34,-1.33 -4.1,-3.3 -5.32,-5.89 -1.23,-2.6 -1.84,-5.76 -1.84,-9.46 0,-2.88 0.63,-5.65 1.84,-8.27zm7.79 16.09c1.33,1.73 2.95,2.57 4.88,2.57 1.95,0 3.58,-0.84 4.88,-2.57 1.31,-1.7 1.97,-4.18 1.97,-7.43 0,-3.17 -0.66,-5.61 -1.97,-7.32 -1.3,-1.71 -2.93,-2.56 -4.88,-2.56 -1.93,0 -3.55,0.85 -4.88,2.56 -1.32,1.71 -1.98,4.17 -1.98,7.37 0,2.52 0.4,5.34 1.98,7.38zm43.39 8.74l0 -16.49c0,-3.49 -0.17,-5.75 -0.49,-6.76 -0.33,-1.03 -0.85,-1.82 -1.58,-2.39 -0.71,-0.57 -1.57,-0.84 -2.58,-0.84 -1.31,0 -2.47,0.4 -3.49,1.2 -1.06,0.82 -1.77,1.89 -2.14,3.23 -0.39,1.34 -0.57,3.81 -0.57,7.43l0 14.62 -7.43 0 0 -32.35 6.88 0 0 4.75c2.47,-3.62 5.57,-5.43 9.31,-5.43 1.65,0 3.16,0.34 4.52,1.01 1.37,0.69 2.41,1.55 3.1,2.61 0.71,1.05 1.2,2.25 1.46,3.59 0.29,1.33 0.42,3.24 0.42,5.74l0 20.08 -7.41 0 0 0zm20.46 -22.38l-6.72 -1.37c0.77,-3.16 2.08,-5.49 3.92,-7 1.85,-1.54 4.61,-2.28 8.26,-2.28 3.32,0 5.79,0.44 7.42,1.34 1.61,0.92 2.75,2.06 3.41,3.44 0.68,1.39 1.01,3.94 1.01,7.67l-0.1 9.96c0,2.84 0.11,4.94 0.35,6.29 0.23,1.36 0.67,2.79 1.32,4.33l-7.38 0c-0.38,-1.17 -0.6,-2.38 -0.97,-3.5 -1.25,1.45 -2.62,2.51 -4.07,3.24 -1.44,0.71 -2.98,1.07 -4.61,1.07 -2.89,0 -5.16,-0.9 -6.81,-2.71 -1.68,-1.8 -2.52,-4.08 -2.52,-6.85 0,-1.81 0.39,-3.44 1.15,-4.87 0.76,-1.42 1.82,-2.54 3.19,-3.29 1.37,-0.76 3.33,-1.43 5.92,-2 3.46,-0.74 5.88,-1.45 7.21,-2.09 0,-1.47 0.05,-3.31 -1.05,-4.43 -0.72,-0.7 -2.07,-1.05 -4.02,-1.05 -1.33,0 -2.35,0.29 -3.1,0.91 -0.92,0.74 -1.48,2.07 -1.81,3.19l0 0zm9.98 6.93c-0.94,0.37 -2.46,0.79 -4.53,1.31 -2.05,0.5 -3.4,1 -4.04,1.48 -0.97,0.8 -1.46,1.8 -1.46,3.01 0,1.19 0.4,2.25 1.16,3.11 0.78,0.87 1.77,1.31 2.97,1.31 1.34,0 2.61,-0.51 3.85,-1.52 0.89,-0.78 1.48,-1.71 1.76,-2.84 0.19,-0.72 0.29,-2.11 0.29,-4.17l0 -1.69 0 0zm14.64 15.45l0 -44.62 7.43 0 0 44.62 -7.43 0z"/>
  <path class="fil7" d="M380.51 274.16l17.27 -26.04 -15.64 -23.91 11.77 0 9.83 14.88 9.85 -14.88 11.78 0 -15.66 23.92 17.21 26.03 -12.12 0 -11.06 -16.92 -11.08 16.92 -12.15 0 0 0 0 0zm51.6 0l0 -49.95 16.18 0c6.14,0 10.12,0.24 11.98,0.74 2.85,0.75 5.26,2.39 7.18,4.89 1.94,2.52 2.9,5.75 2.9,9.74 0,3.08 -0.56,5.65 -1.67,7.72 -1.11,2.1 -2.51,3.74 -4.23,4.94 -1.71,1.19 -3.45,1.98 -5.22,2.37 -2.4,0.47 -5.88,0.71 -10.45,0.71l-6.55 0 0 18.84 -10.12 0 0 0 0 0zm10.12 -41.5l0 14.22 5.5 0c3.97,0 6.6,-0.27 7.95,-0.79 1.33,-0.52 2.37,-1.33 3.13,-2.46 0.76,-1.12 1.15,-2.42 1.15,-3.9 0,-1.82 -0.55,-3.34 -1.6,-4.51 -1.07,-1.19 -2.4,-1.93 -4.04,-2.22 -1.2,-0.24 -3.61,-0.34 -7.25,-0.34l-4.84 0 0 0 0 0z"/>
 </g>
</svg>
