<?xml version="1.0" encoding="UTF-8"?>
<!DOCTYPE svg PUBLIC "-//W3C//DTD SVG 1.1//EN" "http://www.w3.org/Graphics/SVG/1.1/DTD/svg11.dtd">
<!-- Creator: CorelDRAW 2017 -->
<svg xmlns="http://www.w3.org/2000/svg" xml:space="preserve" width="500px" height="500px" version="1.1" style="shape-rendering:geometricPrecision; text-rendering:geometricPrecision; image-rendering:optimizeQuality; fill-rule:evenodd; clip-rule:evenodd"
viewBox="0 0 500 500"
 xmlns:xlink="http://www.w3.org/1999/xlink">
 <defs>
  <style type="text/css">
   <![CDATA[
    .str0 {stroke:#0F7699;stroke-width:20;stroke-miterlimit:22.9256}
    .str1 {stroke:black;stroke-width:2;stroke-miterlimit:22.9256}
    .fil1 {fill:#E31E24}
    .fil4 {fill:#008DD2}
    .fil5 {fill:#145CD9}
    .fil6 {fill:#237515}
    .fil0 {fill:#2CACC9}
    .fil7 {fill:#2EA700}
    .fil2 {fill:#C90E14}
    .fil3 {fill:#C90E14}
    .fil8 {fill:#EDE21A}
    .fil9 {fill:#F3A400}
    .fil10 {fill:#FEFEFE;fill-rule:nonzero}
    .fil11 {fill:#FEFEFE;fill-rule:nonzero}
   ]]>
  </style>
 </defs>
 <g id="Слой_x0020_1">
  <metadata id="CorelCorpID_0Corel-Layer"/>
  <circle class="fil0 str0" cx="251.36" cy="250.61" r="239.39"/>
  <path class="fil1" d="M254.55 195.6c-40.2,-24.41 -78.85,-25.51 -116.12,-5.73l30.11 -99.19c42.49,-25.19 80.15,-18.6 115.09,6.03l-29.08 98.89z"/>
  <path class="fil2" d="M138.46 189.54c43.59,-23.78 81.18,-16.61 116.34,6.02l0 8.18c-35.91,-24.53 -74.44,-28 -116.13,-5.94l-0.21 -8.26 0 0z"/>
  <polygon class="fil3" points="283.23,96.98 254.16,195.54 254.1,203.49 283.23,105.68 "/>
  <path class="fil4" d="M220.67 308.73c-40.2,-24.41 -78.85,-25.52 -116.12,-5.73l30.1 -99.2c42.49,-25.19 80.17,-18.59 115.1,6.04l-29.08 98.89 0 0z"/>
  <polygon class="fil5" points="249.35,210.1 220.27,308.67 220.22,316.63 249.35,218.8 "/>
  <path class="fil6" d="M263.64 202.52c36.87,23.16 75.05,28.02 114.53,4.67l0.1 6.9c-37.61,23.22 -75.82,20.97 -114.54,-4.82l-0.09 -6.75 0 0z"/>
  <path class="fil7" d="M292.04 101.33c37.61,23.98 75.61,21.85 113.56,6.5l-27.59 100.14c-38.09,21.37 -76.27,21.01 -114.54,-5.21l28.57 -101.43z"/>
  <polygon class="fil6" points="405.6,107.83 378.17,207.37 378.17,214.46 406.12,114.73 "/>
  <path class="fil8" d="M260.06 215.56c37.6,23.98 76.49,22.29 114.44,6.94l-28.48 99.7c-38.09,21.37 -76.26,21.02 -114.53,-5.21l28.57 -101.43 0 0z"/>
  <polygon class="fil9" points="374.5,222.5 346.17,321.67 346.69,330 374.65,230.27 "/>
  <path class="fil5" d="M104.71 302.26c43.6,-23.78 81.2,-16.62 116.35,6.02l0 8.18c-35.91,-24.53 -74.43,-28.01 -116.13,-5.94l-0.22 -8.26 0 0z"/>
  <path class="fil9" d="M231.8 317.58c36.86,23.17 74.9,27.39 114.38,4.05l0.96 7.21c-37.63,23.21 -76.53,21.29 -115.25,-4.5l-0.09 -6.76 0 0z"/>
  <path class="fil10 str1" d="M44.5 255.37l0 -35.71 11.75 0 6.94 24.33 6.86 -24.33 11.76 0 0 35.71 -7.23 0 -0.01 -24.8 -7.65 24.8 -7.55 0 -7.93 -24.8 0.31 24.8 -7.25 0zm45.1 -29.38l0 -6.33 7.42 0 0 6.33 -7.42 0zm0 29.38l0 -25.89 7.42 0 0 25.89 -7.42 0zm32.19 -17.02c-0.24,-1.34 -0.81,-2.33 -1.69,-3.03 -0.86,-0.67 -2,-1.01 -3.39,-1.01 -1.84,0 -3.32,0.59 -4.43,1.78 -1.09,1.16 -1.64,3.15 -1.64,5.91 0,3.07 0.55,5.26 1.68,6.51 1.12,1.28 2.61,1.91 4.48,1.91 1.41,0 2.57,-0.37 3.46,-1.11 0.9,-0.74 1.53,-2.01 1.91,-3.83l7.29 1.15c-0.76,3.09 -2.2,5.44 -4.35,7.01 -2.14,1.58 -5.02,2.36 -8.63,2.36 -4.1,0 -7.37,-1.18 -9.82,-3.57 -2.43,-2.4 -3.66,-5.7 -3.66,-9.94 0,-4.28 1.24,-7.6 3.69,-9.99 2.44,-2.38 5.74,-3.57 9.92,-3.57 3.4,0 6.12,0.69 8.13,2.04 2.02,1.35 3.47,3.41 4.33,6.18l-7.28 1.2zm12.61 17.02l0 -25.89 6.86 0 0 3.68c1.19,-1.74 2.25,-2.88 3.2,-3.42 0.94,-0.55 2.01,-0.81 3.22,-0.81 1.7,0 3.32,0.43 4.87,1.29l-2.28 5.97c-1.25,-0.76 -2.41,-1.14 -3.5,-1.14 -1.04,0 -1.91,0.27 -2.64,0.8 -0.72,0.53 -1.29,1.47 -1.71,2.86 -0.41,1.38 -0.61,4.27 -0.61,8.67l0 7.99 -7.41 0zm21.45 -19.88c1.22,-2.14 2.93,-3.76 5.17,-4.87 2.22,-1.13 4.7,-1.69 7.45,-1.69 4.25,0 7.71,1.27 10.44,3.81 2.71,2.55 4.06,5.76 4.06,9.65 0,3.92 -1.38,7.18 -4.1,9.75 -2.74,2.59 -6.19,3.88 -10.35,3.88 -2.56,0 -5.02,-0.54 -7.36,-1.62 -2.32,-1.08 -4.09,-2.65 -5.31,-4.73 -1.35,-2.31 -1.82,-4.97 -1.82,-7.57 0,-2.34 0.64,-4.54 1.82,-6.61zm5.81 6.98c0,2.57 0.66,4.54 1.96,5.9 1.34,1.37 2.97,2.05 4.89,2.05 1.94,0 3.55,-0.68 4.86,-2.05 1.32,-1.36 1.97,-3.36 1.97,-5.95 0,-2.54 -0.66,-4.5 -1.97,-5.86 -1.31,-1.36 -2.92,-2.06 -4.86,-2.06 -1.92,0 -3.55,0.7 -4.89,2.06 -1.3,1.36 -1.96,3.34 -1.96,5.91zm24.49 5.61l7.47 -1.05c0.31,1.32 0.95,2.32 1.92,3.01 0.97,0.69 2.32,1.03 4.07,1.03 1.92,0 3.36,-0.33 4.33,-0.96 0.66,-0.46 0.99,-1.08 0.99,-1.86 0,-0.5 -0.19,-0.94 -0.54,-1.27 -0.38,-0.33 -1.2,-0.64 -2.49,-0.91 -5.98,-1.22 -9.78,-2.33 -11.38,-3.34 -2.23,-1.42 -3.35,-3.36 -3.35,-5.85 0,-2.23 0.98,-4.14 2.9,-5.65 1.92,-1.54 4.89,-2.3 8.92,-2.3 3.83,0 6.7,0.58 8.56,1.74 1.88,1.16 3.15,2.87 3.86,5.13l-6.98 1.21c-0.29,-1.01 -0.87,-1.8 -1.72,-2.34 -0.84,-0.54 -2.03,-0.82 -3.58,-0.82 -1.97,0 -3.37,0.26 -4.24,0.77 -0.57,0.37 -0.85,0.83 -0.85,1.4 0,0.48 0.25,0.89 0.75,1.23 0.68,0.47 2.99,1.1 6.96,1.93 3.97,0.84 6.73,1.84 8.31,3.05 1.54,1.22 2.32,2.92 2.32,5.11 0,2.36 -1.07,4.41 -3.22,6.11 -2.15,1.71 -5.33,2.57 -9.55,2.57 -3.81,0 -6.84,-0.72 -9.09,-2.15 -2.22,-1.42 -3.69,-3.35 -4.37,-5.79zm32.83 -12.59c1.21,-2.14 2.93,-3.76 5.16,-4.87 2.24,-1.13 4.69,-1.69 7.45,-1.69 4.25,0 7.71,1.27 10.43,3.81 2.72,2.55 4.06,5.76 4.06,9.65 0,3.92 -1.37,7.18 -4.1,9.75 -2.74,2.59 -6.18,3.88 -10.34,3.88 -2.58,0 -5.02,-0.54 -7.37,-1.62 -2.3,-1.08 -4.08,-2.65 -5.29,-4.73 -1.37,-2.3 -1.82,-4.97 -1.82,-7.57 0,-2.34 0.63,-4.54 1.82,-6.61zm5.8 6.98c0,2.57 0.66,4.54 1.96,5.9 1.34,1.37 2.96,2.05 4.9,2.05 1.92,0 3.54,-0.68 4.86,-2.05 1.3,-1.36 1.95,-3.36 1.95,-5.95 0,-2.54 -0.65,-4.5 -1.95,-5.86 -1.32,-1.36 -2.94,-2.06 -4.86,-2.06 -1.94,0 -3.56,0.7 -4.9,2.06 -1.31,1.36 -1.96,3.34 -1.96,5.91zm23.9 -12.99l4.11 0 0 -1.95c0,-2.19 0.24,-3.8 0.75,-4.88 0.51,-1.09 1.43,-1.96 2.79,-2.64 1.36,-0.67 3.06,-1.01 5.15,-1.01 2.11,0 4.2,0.3 6.23,0.87l-0.94 4.75c-1.21,-0.25 -2.38,-0.39 -3.5,-0.39 -1.09,0 -1.87,0.24 -2.36,0.71 -0.47,0.46 -0.71,1.37 -0.71,2.7l0 1.84 3.91 0 -0.05 5.38 -3.86 0 0 20.51 -7.41 0 0 -20.51 -4.11 0 0 -5.38zm34.07 0l0 5.43 -5.08 0 0 10.49c0,2.13 0.05,3.36 0.14,3.71 0.1,0.35 0.32,0.64 0.67,0.87 0.34,0.23 0.76,0.34 1.26,0.34 0.69,0 1.67,-0.21 2.99,-0.65l0.62 5.33c-1.73,0.68 -3.66,1.02 -5.85,1.02 -1.34,0 -2.53,-0.2 -3.61,-0.63 -1.07,-0.42 -1.86,-0.95 -2.35,-1.62 -0.5,-0.66 -0.85,-1.56 -1.05,-2.68 -0.15,-0.79 -0.23,-2.42 -0.23,-4.84l0 -11.34 -3.4 0 0 -5.43 3.4 0 0 -5.15 7.41 0 0 5.15 5.08 0z"/>
  <path class="fil10 str1" d="M58.69 324.94l-13.69 -58.23 12.11 0 8.67 39.99 10.62 -39.99 14.01 0 10.17 40.68 8.87 -40.68 11.83 0 -14.03 58.23 -12.6 0 -11.47 -43.55 -11.56 43.55 -12.93 0zm67.97 -47.91l0 -10.32 11.13 0 0 10.32 -11.13 0zm0 47.91l0 -42.21 11.13 0 0 42.21 -11.13 0zm49.83 0l0 -21.52c0,-4.55 -0.24,-7.49 -0.71,-8.83 -0.5,-1.34 -1.26,-2.37 -2.35,-3.1 -1.09,-0.76 -2.39,-1.11 -3.9,-1.11 -1.95,0 -3.71,0.52 -5.25,1.58 -1.56,1.05 -2.65,3.26 -3.21,5 -0.6,1.75 -0.85,4.16 -0.85,8.89l0 19.09 -11.14 0 0 -42.21 10.33 0 0 6.19c3.69,-4.72 8.35,-7.09 13.98,-7.09 2.46,0 4.73,0.45 6.78,1.34 2.05,0.89 3.61,2.01 4.65,3.38 1.06,1.39 1.79,2.94 2.19,4.69 0.42,1.76 0.63,4.24 0.63,7.49l0 26.21 -11.15 0zm61.11 -0.07l-10.29 0.07 0 -4.62c-2.06,2.92 -7.79,5.78 -13.22,5.67 -4.86,0 -9,-1.95 -12.48,-5.85 -3.46,-3.93 -5.2,-9.38 -5.2,-16.38 0,-7.18 1.69,-12.62 5.06,-16.35 3.38,-3.72 7.64,-5.58 12.77,-5.58 4.72,0 8.81,0.66 12.26,4.58l0 -19.7 11.13 0 -0.03 58.16zm-27.85 -12.06c1.79,2.94 4.29,4.4 7.53,4.4 2.55,0 4.73,-1.09 6.52,-3.29 1.81,-2.2 2.7,-5.47 2.7,-9.82 0,-4.88 -0.85,-8.37 -2.61,-10.53 -1.76,-2.14 -3.97,-3.2 -6.7,-3.2 -2.63,0 -4.86,1.05 -6.64,3.15 -1.77,2.14 -2.66,5.29 -2.66,9.5 0.04,1.67 -0.13,6.76 1.86,9.79zm39.01 -20.27c1.83,-3.5 4.41,-6.13 7.76,-7.96 3.35,-1.83 7.08,-2.75 11.21,-2.75 6.38,0 11.61,2.08 15.69,6.22 4.07,4.16 6.11,9.38 6.11,15.74 0,6.4 -2.06,11.71 -6.17,15.91 -4.13,4.2 -9.29,6.29 -15.54,6.29 -3.87,0 -7.56,-0.87 -11.05,-2.62 -3.52,-1.76 -6.18,-4.31 -8.01,-7.7 -3.82,-7.07 -3.74,-16.07 0,-23.13zm11.7 20.99c1.98,2.25 4.43,3.35 7.34,3.35 2.9,0 5.34,-1.1 7.3,-3.35 1.97,-2.22 2.96,-5.46 2.96,-9.7 0,-4.14 -0.99,-7.33 -2.96,-9.54 -1.96,-2.24 -4.4,-3.34 -7.3,-3.34 -2.91,0 -5.36,1.1 -7.34,3.34 -1.99,2.21 -2.99,5.44 -2.99,9.61 0,3.4 0.66,7.02 2.99,9.63zm45.64 11.41l-13.34 -42.21 10.85 0 7.91 27.66 7.27 -27.66 10.77 0 7.01 27.66 8.06 -27.66 11 0 -13.55 42.21 -10.71 0 -7.25 -27.17 -7.16 27.17 -10.86 0zm62.7 -13.59c0.48,2.16 1.44,3.8 2.9,4.9 1.45,1.13 3.5,1.69 6.12,1.69 2.89,0 5.04,-0.52 6.52,-1.59 0.97,-0.74 1.47,-1.74 1.47,-3 0,-0.83 -0.27,-1.53 -0.81,-2.09 -0.55,-0.52 -1.8,-1.03 -3.72,-1.48 -9.02,-1.99 -14.73,-3.81 -17.14,-5.45 -3.35,-2.29 -5.03,-5.46 -5.03,-9.51 0,-3.68 1.45,-6.74 4.34,-9.25 2.9,-2.48 7.36,-3.74 13.43,-3.74 5.77,0 10.07,0.95 12.88,2.84 2.81,1.89 4.74,4.69 5.8,8.38l-10.48 1.95c-0.45,-1.65 -1.32,-2.92 -2.6,-3.8 -1.25,-0.89 -3.05,-1.31 -5.39,-1.31 -2.96,0 -5.08,0.4 -6.37,1.23 -0.84,0.57 -1.27,1.34 -1.27,2.26 0,0.8 0.37,1.48 1.11,2.03 1.02,0.75 4.5,1.78 10.46,3.15 5.98,1.36 10.13,3 12.5,4.97 2.34,1.98 3.51,4.77 3.51,8.31 0,3.87 -1.62,7.21 -4.85,9.97 -3.24,2.79 -8.01,4.18 -14.36,4.18 -5.75,0 -10.32,-1.16 -13.67,-3.47 -3.37,-2.32 -5.55,-5.5 -6.56,-9.46l11.21 -1.71z"/>
  <path class="fil11 str1" d="M409.82 258.36l0 -14.86 55.01 0 0 11.7c-4.55,4.46 -9.15,10.86 -13.85,19.21 -4.68,8.35 -8.27,17.22 -10.73,26.62 -2.46,9.4 -3.67,17.81 -3.63,25.2l-15.44 0c0.27,-11.6 2.65,-23.44 7.16,-35.51 4.52,-12.06 10.53,-22.86 18.07,-32.36l-36.59 0z"/>
  <path class="fil11 str1" d="M156.18 337.63l8.13 0 0 21.77c0,3.46 0.11,5.69 0.3,6.71 0.35,1.65 1.16,2.98 2.45,3.97 1.3,1 3.07,1.49 5.32,1.49 2.27,0 3.99,-0.46 5.15,-1.41 1.16,-0.94 1.85,-2.09 2.08,-3.47 0.24,-1.37 0.36,-3.65 0.36,-6.82l0 -22.24 8.14 0 0 21.12c0,4.83 -0.22,8.24 -0.66,10.23 -0.44,2 -1.24,3.68 -2.42,5.06 -1.17,1.37 -2.74,2.45 -4.7,3.27 -1.98,0.81 -4.54,1.22 -7.71,1.22 -3.83,0 -6.73,-0.44 -8.7,-1.32 -1.97,-0.89 -3.54,-2.04 -4.69,-3.46 -1.14,-1.43 -1.89,-2.9 -2.26,-4.47 -0.53,-2.3 -0.79,-5.7 -0.79,-10.2l0 -21.45zm40.47 40.17l0 -40.17 7.68 0 0 40.17 -7.68 0zm28.89 -29.12l0 6.12 -5.28 0 0 11.79c0,2.39 0.05,3.79 0.15,4.18 0.1,0.39 0.33,0.72 0.69,0.98 0.36,0.26 0.79,0.39 1.3,0.39 0.73,0 1.75,-0.25 3.11,-0.74l0.64 5.98c-1.78,0.77 -3.8,1.15 -6.07,1.15 -1.38,0 -2.62,-0.23 -3.74,-0.7 -1.11,-0.47 -1.92,-1.07 -2.44,-1.81 -0.52,-0.75 -0.88,-1.75 -1.08,-3.02 -0.16,-0.9 -0.25,-2.72 -0.25,-5.46l0 -12.74 -3.53 0 0 -6.12 3.53 0 0 -5.78 7.69 -4.55 0 10.33 5.28 0zm5.39 -3.93l0 -7.12 7.68 0 0 7.12 -7.68 0zm0 33.05l0 -29.12 7.68 0 0 29.12 -7.68 0zm15.03 -29.12l7.07 0 0 3.97c2.53,-3.05 5.55,-4.59 9.06,-4.59 1.86,0 3.48,0.39 4.84,1.15 1.38,0.77 2.5,1.93 3.37,3.48 1.28,-1.55 2.67,-2.71 4.14,-3.48 1.48,-0.76 3.06,-1.15 4.75,-1.15 2.13,0 3.93,0.43 5.42,1.3 1.48,0.87 2.58,2.14 3.31,3.83 0.53,1.23 0.8,3.24 0.8,6.02l0 18.59 -7.69 0 0 -16.62c0,-2.89 -0.26,-4.75 -0.8,-5.58 -0.71,-1.09 -1.81,-1.65 -3.29,-1.65 -1.07,0 -2.09,0.33 -3.05,0.99 -0.94,0.66 -1.63,1.62 -2.06,2.89 -0.42,1.27 -0.62,3.27 -0.62,6.01l0 13.96 -7.69 0 0 -15.93c0,-2.83 -0.14,-4.66 -0.41,-5.47 -0.27,-0.83 -0.69,-1.45 -1.27,-1.85 -0.57,-0.4 -1.36,-0.6 -2.34,-0.6 -1.19,0 -2.26,0.32 -3.2,0.96 -0.96,0.64 -1.63,1.56 -2.04,2.77 -0.41,1.2 -0.62,3.21 -0.62,5.99l0 14.13 -7.68 0 0 -29.12zm56.18 8.98l-6.96 -1.24c0.78,-2.84 2.14,-4.94 4.06,-6.31 1.91,-1.36 4.77,-2.05 8.55,-2.05 3.43,0 5.99,0.4 7.68,1.22 1.67,0.81 2.86,1.84 3.54,3.09 0.68,1.26 1.03,3.55 1.03,6.9l-0.11 8.98c0,2.55 0.12,4.44 0.36,5.65 0.24,1.22 0.7,2.52 1.38,3.9l-7.64 0c-0.19,-0.5 -0.45,-1.25 -0.73,-2.24 -0.13,-0.46 -0.22,-0.76 -0.27,-0.9 -1.31,1.29 -2.72,2.26 -4.21,2.9 -1.5,0.65 -3.09,0.97 -4.78,0.97 -2.99,0 -5.34,-0.81 -7.07,-2.44 -1.72,-1.62 -2.58,-3.67 -2.58,-6.16 0,-1.64 0.4,-3.11 1.18,-4.4 0.79,-1.28 1.88,-2.27 3.3,-2.95 1.42,-0.68 3.45,-1.28 6.12,-1.8 3.59,-0.67 6.09,-1.31 7.47,-1.89l0 -0.77c0,-1.5 -0.36,-2.57 -1.09,-3.21 -0.74,-0.64 -2.12,-0.96 -4.15,-0.96 -1.38,0 -2.45,0.28 -3.21,0.83 -0.78,0.54 -1.4,1.5 -1.87,2.88zm10.32 6.23c-0.98,0.32 -2.54,0.72 -4.68,1.17 -2.13,0.46 -3.54,0.91 -4.19,1.34 -1,0.72 -1.51,1.62 -1.51,2.71 0,1.09 0.4,2.02 1.21,2.8 0.8,0.79 1.82,1.18 3.07,1.18 1.38,0 2.71,-0.46 3.97,-1.37 0.93,-0.7 1.54,-1.54 1.83,-2.55 0.2,-0.65 0.3,-1.91 0.3,-3.75l0 -1.53zm28.46 -15.21l0 6.12 -5.27 0 0 11.79c0,2.39 0.05,3.79 0.15,4.18 0.1,0.39 0.33,0.72 0.69,0.98 0.36,0.26 0.79,0.39 1.3,0.39 0.72,0 1.75,-0.25 3.11,-0.74l0.64 5.98c-1.79,0.77 -3.81,1.15 -6.07,1.15 -1.38,0 -2.63,-0.23 -3.74,-0.7 -1.11,-0.47 -1.93,-1.07 -2.44,-1.81 -0.53,-0.75 -0.88,-1.75 -1.09,-3.02 -0.16,-0.9 -0.24,-2.72 -0.24,-5.46l0 -12.74 -3.53 0 0 -6.12 3.53 0 0 -5.78 7.69 -4.55 0 10.33 5.27 0zm22.23 19.92l7.68 1.29c-0.98,2.82 -2.54,4.96 -4.66,6.44 -2.14,1.46 -4.8,2.2 -7.99,2.2 -5.06,0 -8.81,-1.65 -11.23,-4.96 -1.92,-2.66 -2.88,-6.01 -2.88,-10.06 0,-4.82 1.26,-8.61 3.77,-11.34 2.52,-2.74 5.71,-4.11 9.56,-4.11 4.32,0 7.74,1.43 10.25,4.29 2.49,2.87 3.69,7.25 3.58,13.16l-19.25 0c0.05,2.29 0.67,4.06 1.86,5.34 1.18,1.27 2.66,1.9 4.41,1.9 1.21,0 2.22,-0.32 3.03,-0.98 0.83,-0.65 1.44,-1.71 1.87,-3.17zm0.45 -7.8c-0.06,-2.23 -0.63,-3.94 -1.73,-5.1 -1.09,-1.17 -2.42,-1.75 -3.99,-1.75 -1.67,0 -3.06,0.62 -4.15,1.85 -1.1,1.22 -1.63,2.9 -1.61,5l11.48 0z"/>
 </g>
</svg>
