<?xml version="1.0" encoding="UTF-8"?>
<!DOCTYPE svg PUBLIC "-//W3C//DTD SVG 1.1//EN" "http://www.w3.org/Graphics/SVG/1.1/DTD/svg11.dtd">
<!-- Creator: CorelDRAW 2017 -->
<svg xmlns="http://www.w3.org/2000/svg" xml:space="preserve" width="500px" height="500px" version="1.1" style="shape-rendering:geometricPrecision; text-rendering:geometricPrecision; image-rendering:optimizeQuality; fill-rule:evenodd; clip-rule:evenodd"
viewBox="0 0 500 500"
 xmlns:xlink="http://www.w3.org/1999/xlink">
 <defs>
  <style type="text/css">
   <![CDATA[
    .str0 {stroke:#0F7699;stroke-width:20;stroke-miterlimit:22.9256}
    .fil0 {fill:#FEFEFE}
    .fil1 {fill:#02ADEE}
    .fil2 {fill:#FEFFFF}
   ]]>
  </style>
 </defs>
 <g id="Слой_x0020_1">
  <metadata id="CorelCorpID_0Corel-Layer"/>
  <circle class="fil0 str0" cx="251.36" cy="250.61" r="239.39"/>
  <polygon class="fil1" points="234.93,133.58 234.84,207.89 348.5,208.13 348.3,117.5 "/>
  <path class="fil1" d="M236.09 291.67l112.22 15.33 0.1 -86.81 -113.46 -3.04c0.08,14.72 -1.49,63.71 1.14,74.52z"/>
  <path class="fil1" d="M146.67 222.21l-0.12 57.25c26.31,3.69 52.84,8.98 79.93,10.68l0.63 -73.27 -80.43 -0.79 -0.01 6.13z"/>
  <polygon class="fil1" points="146.58,145.13 146.82,209.18 226.58,208.08 226.77,134.26 "/>
  <path class="fil1" d="M375.94 361.72c-2.15,1.42 -5.04,3.45 -5.27,6.29 -0.63,7.74 0.07,15.95 16.44,16 16.18,-0.21 17.67,-8.41 17.06,-15.69 -0.86,-5.42 -2.81,-4.98 -4.89,-6.82 3.51,-3.5 6.41,-9.22 2.92,-16.4 -3.2,-6.58 -27.08,-8.33 -30.35,1.33 -2.57,7.62 -0.13,12.58 4.09,15.29z"/>
  <path class="fil1" d="M126.66 349.46c1.6,7.01 3.57,13.94 5.57,21.15 1.61,5.82 3.96,19.25 13.44,12.49 2.8,-2 12.17,-36.67 13.06,-42.94l-7.76 0.12c-4.17,8.46 -5.65,26.69 -9.77,34.81 -2.6,-3.02 -4.57,-13.46 -5.88,-18.35 -1.64,-6.11 -2.19,-16.65 -9.05,-16.94 -10.19,-0.44 -8.3,20.87 -15.16,35.36 -2.82,-3.08 -8.37,-28.4 -9.89,-34.7l-8.13 -0.35c1.7,12.73 14.92,72.42 26.47,30.71 1.19,-4.27 3.82,-18.26 7.1,-21.36z"/>
  <path class="fil1" d="M242.43 351.68c-17.47,6.05 -10.98,42.37 17.99,31.43 10.1,-3.81 13.27,-28.66 -2.5,-32.07 -4.99,-1.08 -11.12,-0.88 -15.49,0.64z"/>
  <path class="fil1" d="M221.68 350.81c-16.45,0 -24.55,-0.36 -23.31,19.18 1.42,22.43 28.26,12.82 28.27,12.82 1.17,-1.08 1.34,-0.23 2.15,-3.32l0.14 -39.19 -7.11 -0.15 -0.14 10.66z"/>
  <path class="fil1" d="M294.55 359.32c1.26,4.62 3.01,10.29 4.24,15.16 1.81,7.11 2.13,10.71 10.83,9.34 3.17,-4.68 8.65,-25.31 9.83,-32.95l-6.71 0 -6.68 25.35c-3.39,-7.51 -5,-19.38 -8.56,-25.06 -8.6,-1.93 -7.97,1.34 -9.84,8.74 -1.28,5.07 -2.41,11.62 -4.84,15.59 -3.86,-6.04 -4.86,-16.57 -6.95,-24.2l-6.81 -0.45c0.96,4.88 7.09,30.17 9.54,32.14 11.11,8.93 11.32,-16.7 15.95,-23.66z"/>
  <path class="fil1" d="M339.94 378.06l-18.06 -0.06 -0.05 5.63 18.98 0.39c15.25,-0.04 10.45,-12.73 6.81,-15.46 -7.5,-5.64 -16.07,-2.27 -18.25,-7.38 -0.42,-0.99 -1.87,-4.19 2.67,-4.19l17.46 0.01 -0.02 -6.19c-5.98,0 -12.55,-0.26 -18.45,-0.01 -6.84,0.28 -10.08,1.96 -9.54,9.54 0.77,10.87 13.44,8.63 19.51,11.66 3,1.5 2.94,6.07 -1.06,6.06z"/>
  <path class="fil1" d="M163.68 358.28l0 25.74 7.33 -0.2c-0.01,-7.24 -1.09,-20.94 0.72,-27.21 5.8,-0.27 8.64,-0.61 13.74,1.25 1.84,7.22 1.15,17.53 1.15,25.82l7.33 0.34c-0.01,-31.84 2.65,-33.21 -21.65,-33.21 -7.14,0 -8.62,0.08 -8.62,7.47z"/>
  <path class="fil2" d="M246.88 356.51c-9.92,2.62 -9.17,27.27 8.6,21.59 8.51,-2.71 9.32,-26.32 -8.6,-21.59z"/>
  <path class="fil2" d="M221.36 356.46c-6.8,0 -12.26,-1.24 -14.55,4.11 -1.55,3.61 -4.88,17.64 8.5,17.97 4.84,0.11 5.56,0.44 6.36,-3.07 0.47,-2.09 0.03,-16.4 -0.31,-19.01z"/>
  <path class="fil2" d="M386.87 377.46c8.81,0 10.44,-0.97 8.38,-10.54 -3.42,-1.85 -3.1,-1.83 -8.38,-1.82 -5.52,0 -8.3,0.32 -8.38,6.08 -0.09,6.1 3.17,6.28 8.38,6.28z"/>
  <path class="fil2" d="M382.6 347.19c-7.66,3.41 -2.1,15.66 9.45,11.01 7.51,-3.02 1.73,-16 -9.45,-11.01z"/>
 </g>
</svg>
