<?xml version="1.0" encoding="UTF-8"?>
<!DOCTYPE svg PUBLIC "-//W3C//DTD SVG 1.1//EN" "http://www.w3.org/Graphics/SVG/1.1/DTD/svg11.dtd">
<!-- Creator: CorelDRAW 2017 -->
<svg xmlns="http://www.w3.org/2000/svg" xml:space="preserve" width="500px" height="500px" version="1.1" style="shape-rendering:geometricPrecision; text-rendering:geometricPrecision; image-rendering:optimizeQuality; fill-rule:evenodd; clip-rule:evenodd"
viewBox="0 0 500 500"
 xmlns:xlink="http://www.w3.org/1999/xlink">
 <defs>
  <style type="text/css">
   <![CDATA[
    .str0 {stroke:black;stroke-width:20;stroke-miterlimit:22.9256}
    .fil0 {fill:#FEFEFE}
    .fil1 {fill:#575757}
    .fil2 {fill:#616161}
    .fil3 {fill:#FEFFFF}
   ]]>
  </style>
 </defs>
 <g id="Слой_x0020_1">
  <metadata id="CorelCorpID_0Corel-Layer"/>
  <circle class="fil0 str0" cx="250" cy="250" r="239.39"/>
  <polygon class="fil1" points="233.57,132.97 233.49,207.28 347.15,207.52 346.94,116.89 "/>
  <path class="fil1" d="M234.73 291.06l112.22 15.33 0.11 -86.81 -113.47 -3.04c0.09,14.73 -1.48,63.71 1.14,74.52z"/>
  <path class="fil1" d="M145.32 221.6l-0.12 57.25c26.31,3.69 52.84,8.98 79.92,10.68l0.63 -73.27 -80.42 -0.79 -0.01 6.13z"/>
  <polygon class="fil1" points="145.23,144.52 145.46,208.57 225.23,207.47 225.41,133.66 "/>
  <path class="fil2" d="M374.59 361.11c-2.16,1.42 -5.04,3.45 -5.27,6.29 -0.64,7.74 0.06,15.95 16.44,16 16.18,-0.21 17.66,-8.41 17.06,-15.69 -0.87,-5.42 -2.81,-4.98 -4.89,-6.82 3.5,-3.5 6.41,-9.22 2.92,-16.4 -3.2,-6.58 -27.08,-8.33 -30.35,1.34 -2.57,7.61 -0.13,12.57 4.09,15.28z"/>
  <path class="fil2" d="M125.3 348.85c1.6,7.01 3.58,13.94 5.57,21.15 1.61,5.82 3.97,19.25 13.44,12.49 2.81,-2 12.18,-36.66 13.06,-42.94l-7.75 0.12c-4.18,8.46 -5.65,26.69 -9.78,34.81 -2.6,-3.02 -4.57,-13.46 -5.87,-18.35 -1.64,-6.11 -2.2,-16.65 -9.05,-16.94 -10.19,-0.44 -8.31,20.87 -15.17,35.36 -2.82,-3.08 -8.36,-28.4 -9.88,-34.7l-8.13 -0.35c1.69,12.73 14.91,72.42 26.47,30.71 1.18,-4.27 3.82,-18.26 7.09,-21.36z"/>
  <path class="fil2" d="M241.07 351.07c-17.46,6.05 -10.98,42.37 17.99,31.43 10.1,-3.81 13.28,-28.66 -2.5,-32.07 -4.98,-1.08 -11.12,-0.88 -15.49,0.64z"/>
  <path class="fil2" d="M220.33 350.2c-16.46,0 -24.55,-0.36 -23.31,19.18 1.42,22.43 28.26,12.82 28.26,12.82 1.17,-1.07 1.34,-0.23 2.16,-3.32l0.14 -39.19 -7.12 -0.15 -0.13 10.66z"/>
  <path class="fil2" d="M293.2 358.71c1.25,4.62 3,10.29 4.24,15.16 1.8,7.11 2.13,10.71 10.82,9.34 3.17,-4.68 8.65,-25.31 9.83,-32.95l-6.7 0 -6.68 25.35c-3.39,-7.51 -5.01,-19.38 -8.57,-25.06 -8.59,-1.93 -7.96,1.34 -9.83,8.74 -1.28,5.07 -2.41,11.62 -4.85,15.59 -3.86,-6.04 -4.86,-16.57 -6.95,-24.2l-6.8 -0.45c0.96,4.88 7.08,30.17 9.54,32.14 11.11,8.93 11.32,-16.7 15.95,-23.66z"/>
  <path class="fil2" d="M338.58 377.45l-18.06 -0.06 -0.05 5.63 18.98 0.39c15.25,-0.04 10.45,-12.73 6.82,-15.46 -7.51,-5.64 -16.08,-2.27 -18.25,-7.38 -0.42,-0.99 -1.87,-4.19 2.66,-4.19l17.47 0.01 -0.03 -6.19c-5.98,0 -12.54,-0.26 -18.45,-0.01 -6.84,0.28 -10.07,1.96 -9.53,9.54 0.76,10.87 13.44,8.63 19.51,11.66 2.99,1.5 2.94,6.07 -1.07,6.06z"/>
  <path class="fil2" d="M162.32 357.67l0 25.74 7.33 -0.2c0,-7.24 -1.09,-20.94 0.72,-27.21 5.8,-0.27 8.64,-0.61 13.75,1.25 1.83,7.22 1.15,17.53 1.15,25.82l7.32 0.34c0,-31.84 2.66,-33.21 -21.64,-33.21 -7.14,0 -8.63,0.08 -8.63,7.47z"/>
  <path class="fil3" d="M245.52 355.9c-9.92,2.62 -9.16,27.27 8.61,21.59 8.5,-2.71 9.31,-26.32 -8.61,-21.59z"/>
  <path class="fil3" d="M220.01 355.85c-6.8,0 -12.26,-1.24 -14.56,4.11 -1.54,3.61 -4.87,17.64 8.51,17.97 4.84,0.11 5.56,0.44 6.35,-3.07 0.47,-2.09 0.03,-16.4 -0.3,-19.01z"/>
  <path class="fil3" d="M385.51 376.85c8.82,0 10.45,-0.97 8.39,-10.54 -3.43,-1.85 -3.11,-1.83 -8.39,-1.82 -5.52,0 -8.29,0.32 -8.38,6.08 -0.09,6.1 3.17,6.28 8.38,6.28z"/>
  <path class="fil3" d="M381.25 346.58c-7.66,3.41 -2.11,15.66 9.45,11.01 7.5,-3.02 1.73,-16 -9.45,-11.01z"/>
 </g>
</svg>
