<?xml version="1.0" encoding="UTF-8"?>
<!DOCTYPE svg PUBLIC "-//W3C//DTD SVG 1.1//EN" "http://www.w3.org/Graphics/SVG/1.1/DTD/svg11.dtd">
<!-- Creator: CorelDRAW 2017 -->
<svg xmlns="http://www.w3.org/2000/svg" xml:space="preserve" width="500px" height="500px" version="1.1" style="shape-rendering:geometricPrecision; text-rendering:geometricPrecision; image-rendering:optimizeQuality; fill-rule:evenodd; clip-rule:evenodd"
viewBox="0 0 500 500"
 xmlns:xlink="http://www.w3.org/1999/xlink">
 <defs>
  <style type="text/css">
   <![CDATA[
    .str0 {stroke:#0F7699;stroke-width:20;stroke-miterlimit:22.9256}
    .str1 {stroke:black;stroke-width:2;stroke-miterlimit:22.9256}
    .fil1 {fill:#E31E24}
    .fil4 {fill:#008DD2}
    .fil5 {fill:#145CD9}
    .fil6 {fill:#237515}
    .fil7 {fill:#2EA700}
    .fil0 {fill:#AEE8DB}
    .fil2 {fill:#C90E14}
    .fil3 {fill:#C90E14}
    .fil8 {fill:#EDE21A}
    .fil9 {fill:#F3A400}
    .fil11 {fill:#EB3C00;fill-rule:nonzero}
    .fil10 {fill:#FEFEFE;fill-rule:nonzero}
   ]]>
  </style>
 </defs>
 <g id="Слой_x0020_1">
  <metadata id="CorelCorpID_0Corel-Layer"/>
  <circle class="fil0 str0" cx="251.36" cy="250.61" r="239.39"/>
  <path class="fil1" d="M254.55 195.6c-40.2,-24.41 -78.85,-25.51 -116.12,-5.73l30.11 -99.19c42.49,-25.19 80.15,-18.6 115.09,6.03l-29.08 98.89z"/>
  <path class="fil2" d="M138.46 189.54c43.59,-23.78 81.18,-16.61 116.34,6.02l0 8.18c-35.91,-24.53 -74.44,-28 -116.13,-5.94l-0.21 -8.26 0 0z"/>
  <polygon class="fil3" points="283.23,96.98 254.16,195.54 254.1,203.49 283.23,105.68 "/>
  <path class="fil4" d="M220.67 308.73c-40.2,-24.41 -78.85,-25.52 -116.12,-5.73l30.1 -99.2c42.49,-25.19 80.17,-18.59 115.1,6.04l-29.08 98.89 0 0z"/>
  <polygon class="fil5" points="249.35,210.1 220.27,308.67 220.22,316.63 249.35,218.8 "/>
  <path class="fil6" d="M263.64 202.52c36.87,23.16 75.05,28.02 114.53,4.67l0.1 6.9c-37.61,23.22 -75.82,20.97 -114.54,-4.82l-0.09 -6.75 0 0z"/>
  <path class="fil7" d="M292.04 101.33c37.61,23.98 75.61,21.85 113.56,6.5l-27.59 100.14c-38.09,21.37 -76.27,21.01 -114.54,-5.21l28.57 -101.43z"/>
  <polygon class="fil6" points="405.6,107.83 378.17,207.37 378.17,214.46 406.12,114.73 "/>
  <path class="fil8" d="M260.06 215.56c37.6,23.98 76.49,22.29 114.44,6.94l-28.48 99.7c-38.09,21.37 -76.26,21.02 -114.53,-5.21l28.57 -101.43 0 0z"/>
  <polygon class="fil9" points="374.5,222.5 346.17,321.67 346.69,330 374.65,230.27 "/>
  <path class="fil5" d="M104.71 302.26c43.6,-23.78 81.2,-16.62 116.35,6.02l0 8.18c-35.91,-24.53 -74.43,-28.01 -116.13,-5.94l-0.22 -8.26 0 0z"/>
  <path class="fil9" d="M231.8 317.58c36.86,23.17 74.9,27.39 114.38,4.05l0.96 7.21c-37.63,23.21 -76.53,21.29 -115.25,-4.5l-0.09 -6.76 0 0z"/>
  <path class="fil10 str1" d="M44.5 255.37l0 -35.71 11.75 0 6.94 24.33 6.86 -24.33 11.76 0 0 35.71 -7.23 0 -0.01 -24.8 -7.65 24.8 -7.55 0 -7.93 -24.8 0.31 24.8 -7.25 0zm45.1 -29.38l0 -6.33 7.42 0 0 6.33 -7.42 0zm0 29.38l0 -25.89 7.42 0 0 25.89 -7.42 0zm32.19 -17.02c-0.24,-1.34 -0.81,-2.33 -1.69,-3.03 -0.86,-0.67 -2,-1.01 -3.39,-1.01 -1.84,0 -3.32,0.59 -4.43,1.78 -1.09,1.16 -1.64,3.15 -1.64,5.91 0,3.07 0.55,5.26 1.68,6.51 1.12,1.28 2.61,1.91 4.48,1.91 1.41,0 2.57,-0.37 3.46,-1.11 0.9,-0.74 1.53,-2.01 1.91,-3.83l7.29 1.15c-0.76,3.09 -2.2,5.44 -4.35,7.01 -2.14,1.58 -5.02,2.36 -8.63,2.36 -4.1,0 -7.37,-1.18 -9.82,-3.57 -2.43,-2.4 -3.66,-5.7 -3.66,-9.94 0,-4.28 1.24,-7.6 3.69,-9.99 2.44,-2.38 5.74,-3.57 9.92,-3.57 3.4,0 6.12,0.69 8.13,2.04 2.02,1.35 3.47,3.41 4.33,6.18l-7.28 1.2zm12.61 17.02l0 -25.89 6.86 0 0 3.68c1.19,-1.74 2.25,-2.88 3.2,-3.42 0.94,-0.55 2.01,-0.81 3.22,-0.81 1.7,0 3.32,0.43 4.87,1.29l-2.28 5.97c-1.25,-0.76 -2.41,-1.14 -3.5,-1.14 -1.04,0 -1.91,0.27 -2.64,0.8 -0.72,0.53 -1.29,1.47 -1.71,2.86 -0.41,1.38 -0.61,4.27 -0.61,8.67l0 7.99 -7.41 0zm21.45 -19.88c1.22,-2.14 2.93,-3.76 5.17,-4.87 2.22,-1.13 4.7,-1.69 7.45,-1.69 4.25,0 7.71,1.27 10.44,3.81 2.71,2.55 4.06,5.76 4.06,9.65 0,3.92 -1.38,7.18 -4.1,9.75 -2.74,2.59 -6.19,3.88 -10.35,3.88 -2.56,0 -5.02,-0.54 -7.36,-1.62 -2.32,-1.08 -4.09,-2.65 -5.31,-4.73 -1.35,-2.31 -1.82,-4.97 -1.82,-7.57 0,-2.34 0.64,-4.54 1.82,-6.61zm5.81 6.98c0,2.57 0.66,4.54 1.96,5.9 1.34,1.37 2.97,2.05 4.89,2.05 1.94,0 3.55,-0.68 4.86,-2.05 1.32,-1.36 1.97,-3.36 1.97,-5.95 0,-2.54 -0.66,-4.5 -1.97,-5.86 -1.31,-1.36 -2.92,-2.06 -4.86,-2.06 -1.92,0 -3.55,0.7 -4.89,2.06 -1.3,1.36 -1.96,3.34 -1.96,5.91zm24.49 5.61l7.47 -1.05c0.31,1.32 0.95,2.32 1.92,3.01 0.97,0.69 2.32,1.03 4.07,1.03 1.92,0 3.36,-0.33 4.33,-0.96 0.66,-0.46 0.99,-1.08 0.99,-1.86 0,-0.5 -0.19,-0.94 -0.54,-1.27 -0.38,-0.33 -1.2,-0.64 -2.49,-0.91 -5.98,-1.22 -9.78,-2.33 -11.38,-3.34 -2.23,-1.42 -3.35,-3.36 -3.35,-5.85 0,-2.23 0.98,-4.14 2.9,-5.65 1.92,-1.54 4.89,-2.3 8.92,-2.3 3.83,0 6.7,0.58 8.56,1.74 1.88,1.16 3.15,2.87 3.86,5.13l-6.98 1.21c-0.29,-1.01 -0.87,-1.8 -1.72,-2.34 -0.84,-0.54 -2.03,-0.82 -3.58,-0.82 -1.97,0 -3.37,0.26 -4.24,0.77 -0.57,0.37 -0.85,0.83 -0.85,1.4 0,0.48 0.25,0.89 0.75,1.23 0.68,0.47 2.99,1.1 6.96,1.93 3.97,0.84 6.73,1.84 8.31,3.05 1.54,1.22 2.32,2.92 2.32,5.11 0,2.36 -1.07,4.41 -3.22,6.11 -2.15,1.71 -5.33,2.57 -9.55,2.57 -3.81,0 -6.84,-0.72 -9.09,-2.15 -2.22,-1.42 -3.69,-3.35 -4.37,-5.79zm32.83 -12.59c1.21,-2.14 2.93,-3.76 5.16,-4.87 2.24,-1.13 4.69,-1.69 7.45,-1.69 4.25,0 7.71,1.27 10.43,3.81 2.72,2.55 4.06,5.76 4.06,9.65 0,3.92 -1.37,7.18 -4.1,9.75 -2.74,2.59 -6.18,3.88 -10.34,3.88 -2.58,0 -5.02,-0.54 -7.37,-1.62 -2.3,-1.08 -4.08,-2.65 -5.29,-4.73 -1.37,-2.3 -1.82,-4.97 -1.82,-7.57 0,-2.34 0.63,-4.54 1.82,-6.61zm5.8 6.98c0,2.57 0.66,4.54 1.96,5.9 1.34,1.37 2.96,2.05 4.9,2.05 1.92,0 3.54,-0.68 4.86,-2.05 1.3,-1.36 1.95,-3.36 1.95,-5.95 0,-2.54 -0.65,-4.5 -1.95,-5.86 -1.32,-1.36 -2.94,-2.06 -4.86,-2.06 -1.94,0 -3.56,0.7 -4.9,2.06 -1.31,1.36 -1.96,3.34 -1.96,5.91zm23.9 -12.99l4.11 0 0 -1.95c0,-2.19 0.24,-3.8 0.75,-4.88 0.51,-1.09 1.43,-1.96 2.79,-2.64 1.36,-0.67 3.06,-1.01 5.15,-1.01 2.11,0 4.2,0.3 6.23,0.87l-0.94 4.75c-1.21,-0.25 -2.38,-0.39 -3.5,-0.39 -1.09,0 -1.87,0.24 -2.36,0.71 -0.47,0.46 -0.71,1.37 -0.71,2.7l0 1.84 3.91 0 -0.05 5.38 -3.86 0 0 20.51 -7.41 0 0 -20.51 -4.11 0 0 -5.38zm34.07 0l0 5.43 -5.08 0 0 10.49c0,2.13 0.05,3.36 0.14,3.71 0.1,0.35 0.32,0.64 0.67,0.87 0.34,0.23 0.76,0.34 1.26,0.34 0.69,0 1.67,-0.21 2.99,-0.65l0.62 5.33c-1.73,0.68 -3.66,1.02 -5.85,1.02 -1.34,0 -2.53,-0.2 -3.61,-0.63 -1.07,-0.42 -1.86,-0.95 -2.35,-1.62 -0.5,-0.66 -0.85,-1.56 -1.05,-2.68 -0.15,-0.79 -0.23,-2.42 -0.23,-4.84l0 -11.34 -3.4 0 0 -5.43 3.4 0 0 -5.15 7.41 0 0 5.15 5.08 0z"/>
  <path class="fil10 str1" d="M58.69 324.94l-13.69 -58.23 12.11 0 8.67 39.99 10.62 -39.99 14.01 0 10.17 40.68 8.87 -40.68 11.83 0 -14.03 58.23 -12.6 0 -11.47 -43.55 -11.56 43.55 -12.93 0zm67.97 -47.91l0 -10.32 11.13 0 0 10.32 -11.13 0zm0 47.91l0 -42.21 11.13 0 0 42.21 -11.13 0zm49.83 0l0 -21.52c0,-4.55 -0.24,-7.49 -0.71,-8.83 -0.5,-1.34 -1.26,-2.37 -2.35,-3.1 -1.09,-0.76 -2.39,-1.11 -3.9,-1.11 -1.95,0 -3.71,0.52 -5.25,1.58 -1.56,1.05 -2.65,3.26 -3.21,5 -0.6,1.75 -0.85,4.16 -0.85,8.89l0 19.09 -11.14 0 0 -42.21 10.33 0 0 6.19c3.69,-4.72 8.35,-7.09 13.98,-7.09 2.46,0 4.73,0.45 6.78,1.34 2.05,0.89 3.61,2.01 4.65,3.38 1.06,1.39 1.79,2.94 2.19,4.69 0.42,1.76 0.63,4.24 0.63,7.49l0 26.21 -11.15 0zm61.11 -0.07l-10.29 0.07 0 -4.62c-2.06,2.92 -7.79,5.78 -13.22,5.67 -4.86,0 -9,-1.95 -12.48,-5.85 -3.46,-3.93 -5.2,-9.38 -5.2,-16.38 0,-7.18 1.69,-12.62 5.06,-16.35 3.38,-3.72 7.64,-5.58 12.77,-5.58 4.72,0 8.81,0.66 12.26,4.58l0 -19.7 11.13 0 -0.03 58.16zm-27.85 -12.06c1.79,2.94 4.29,4.4 7.53,4.4 2.55,0 4.73,-1.09 6.52,-3.29 1.81,-2.2 2.7,-5.47 2.7,-9.82 0,-4.88 -0.85,-8.37 -2.61,-10.53 -1.76,-2.14 -3.97,-3.2 -6.7,-3.2 -2.63,0 -4.86,1.05 -6.64,3.15 -1.77,2.14 -2.66,5.29 -2.66,9.5 0.04,1.67 -0.13,6.76 1.86,9.79zm39.01 -20.27c1.83,-3.5 4.41,-6.13 7.76,-7.96 3.35,-1.83 7.08,-2.75 11.21,-2.75 6.38,0 11.61,2.08 15.69,6.22 4.07,4.16 6.11,9.38 6.11,15.74 0,6.4 -2.06,11.71 -6.17,15.91 -4.13,4.2 -9.29,6.29 -15.54,6.29 -3.87,0 -7.56,-0.87 -11.05,-2.62 -3.52,-1.76 -6.18,-4.31 -8.01,-7.7 -3.82,-7.07 -3.74,-16.07 0,-23.13zm11.7 20.99c1.98,2.25 4.43,3.35 7.34,3.35 2.9,0 5.34,-1.1 7.3,-3.35 1.97,-2.22 2.96,-5.46 2.96,-9.7 0,-4.14 -0.99,-7.33 -2.96,-9.54 -1.96,-2.24 -4.4,-3.34 -7.3,-3.34 -2.91,0 -5.36,1.1 -7.34,3.34 -1.99,2.21 -2.99,5.44 -2.99,9.61 0,3.4 0.66,7.02 2.99,9.63zm45.64 11.41l-13.34 -42.21 10.85 0 7.91 27.66 7.27 -27.66 10.77 0 7.01 27.66 8.06 -27.66 11 0 -13.55 42.21 -10.71 0 -7.25 -27.17 -7.16 27.17 -10.86 0zm62.7 -13.59c0.48,2.16 1.44,3.8 2.9,4.9 1.45,1.13 3.5,1.69 6.12,1.69 2.89,0 5.04,-0.52 6.52,-1.59 0.97,-0.74 1.47,-1.74 1.47,-3 0,-0.83 -0.27,-1.53 -0.81,-2.09 -0.55,-0.52 -1.8,-1.03 -3.72,-1.48 -9.02,-1.99 -14.73,-3.81 -17.14,-5.45 -3.35,-2.29 -5.03,-5.46 -5.03,-9.51 0,-3.68 1.45,-6.74 4.34,-9.25 2.9,-2.48 7.36,-3.74 13.43,-3.74 5.77,0 10.07,0.95 12.88,2.84 2.81,1.89 4.74,4.69 5.8,8.38l-10.48 1.95c-0.45,-1.65 -1.32,-2.92 -2.6,-3.8 -1.25,-0.89 -3.05,-1.31 -5.39,-1.31 -2.96,0 -5.08,0.4 -6.37,1.23 -0.84,0.57 -1.27,1.34 -1.27,2.26 0,0.8 0.37,1.48 1.11,2.03 1.02,0.75 4.5,1.78 10.46,3.15 5.98,1.36 10.13,3 12.5,4.97 2.34,1.98 3.51,4.77 3.51,8.31 0,3.87 -1.62,7.21 -4.85,9.97 -3.24,2.79 -8.01,4.18 -14.36,4.18 -5.75,0 -10.32,-1.16 -13.67,-3.47 -3.37,-2.32 -5.55,-5.5 -6.56,-9.46l11.21 -1.71z"/>
  <path class="fil10 str1" d="M95.81 378.51l0 -44.56 12.54 0c4.75,0 7.84,0.22 9.29,0.66 2.22,0.68 4.07,2.12 5.59,4.37 1.49,2.24 2.24,5.13 2.24,8.69 0,2.73 -0.43,5.02 -1.29,6.89 -0.86,1.86 -1.96,3.33 -3.29,4.4 -1.33,1.05 -2.69,1.75 -4.05,2.11 -1.86,0.42 -4.56,0.64 -8.11,0.64l-5.09 0 0 16.8 -7.83 0zm7.83 -24.34l4.27 0c3.08,0 5.13,-0.23 6.18,-0.7 1.03,-0.46 1.84,-1.18 2.42,-2.2 0.58,-0.99 0.88,-2.14 0.88,-3.47 0,-1.64 -0.4,-2.97 -1.23,-4.03 -0.82,-1.06 -1.86,-1.72 -3.14,-1.99 -0.93,-0.2 -2.79,-0.3 -5.61,-0.3l-3.77 0 0 12.69zm35.38 24.35l-7.5 -0.01 0 -32.3 6.88 0 0 4.59c1.19,-2.17 2.24,-3.6 3.18,-4.27 0.97,-0.67 2.03,-1 3.23,-1 1.69,0 3.33,0.53 4.9,1.6l-2.29 7.45c-1.26,-0.93 -2.42,-1.39 -3.5,-1.39 -1.04,0 -1.92,0.33 -2.65,0.97 -0.73,0.67 -1.29,1.85 -1.71,3.58 -0.41,1.71 -0.62,5.33 -0.62,10.82l0.08 9.96zm12.16 -16.54c0,-2.86 0.61,-5.61 1.83,-8.26 1.21,-2.67 2.95,-4.69 5.16,-6.09 2.23,-1.4 4.71,-2.1 7.47,-2.1 4.25,0 7.72,1.58 10.44,4.75 2.71,3.19 4.07,7.2 4.07,12.06 0,4.89 -1.38,8.95 -4.12,12.15 -2.74,3.23 -6.17,4.83 -10.33,4.83 -2.58,0 -5.03,-0.67 -7.37,-2.01 -2.32,-1.33 -4.11,-3.3 -5.32,-5.89 -1.38,-2.92 -1.83,-6.25 -1.83,-9.44zm7.63 0.44c0,3.21 0.66,5.67 1.98,7.37 1.33,1.72 2.95,2.56 4.9,2.56 1.92,0 3.55,-0.84 4.86,-2.56 1.3,-1.7 1.96,-4.18 1.96,-7.42 0,-3.17 -0.66,-5.61 -1.96,-7.31 -1.31,-1.71 -2.94,-2.56 -4.86,-2.56 -1.95,0 -3.57,0.85 -4.9,2.56 -1.32,1.7 -1.98,4.16 -1.98,7.36l0 0 0 0zm28.03 -16.21l0 -2.44c0,-2.72 0.25,-4.75 0.76,-6.1 0.51,-1.34 1.44,-2.42 2.79,-3.27 1.36,-0.84 3.08,-1.27 5.15,-1.27 2.12,0 4.2,0.36 6.23,1.1l-0.94 5.93c-1.21,-0.33 -2.36,-0.49 -3.48,-0.49 -1.11,0 -1.9,0.3 -2.37,0.88 -0.48,0.58 -0.72,1.69 -0.72,3.36l0 2.3 5.57 0 0 6.72 -5.57 0 0 25.58 -7.42 0 0 -25.58 -4.11 0 0 -6.72 4.11 0zm40.82 23.52c-0.95,3.13 -2.46,5.5 -4.5,7.14 -2.05,1.64 -4.63,2.45 -7.71,2.45 -4.89,0 -8.49,-1.83 -10.83,-5.51 -1.85,-2.94 -2.77,-6.66 -2.77,-11.14 0,-5.36 1.21,-9.56 3.63,-12.59 2.43,-3.05 5.5,-4.55 9.22,-4.55 4.17,0 7.47,1.58 9.88,4.75 2.41,3.18 3.56,8.05 3.46,14.6l-18.57 0c0.05,2.54 0.65,4.5 1.81,5.93 1.13,1.4 2.55,2.1 4.24,2.1 1.18,0 2.14,-0.36 2.93,-1.08 0.79,-0.73 1.38,-1.91 1.79,-3.52l7.42 1.42zm-8.65 -15.73c-1.05,-1.3 -2.33,-1.93 -3.85,-1.93 -1.61,0 -2.94,0.68 -3.99,2.04 -1.07,1.35 -1.58,3.21 -1.56,5.54l11.07 0c0.03,-0.41 -0.22,-3.89 -1.67,-5.65zm19.91 14.12c0.31,1.65 0.97,2.91 1.94,3.76 0.96,0.86 2.32,1.29 4.07,1.29 1.92,0 3.35,-0.41 4.34,-1.22 0.65,-0.57 0.97,-1.33 0.97,-2.29 0,-0.65 -0.18,-1.19 -0.53,-1.61 -0.37,-0.4 -1.2,-0.79 -2.49,-1.13 -5.99,-1.53 -9.79,-2.91 -11.39,-4.17 -2.24,-1.76 -3.35,-4.19 -3.35,-7.29 0,-2.8 0.97,-5.17 2.9,-7.07 1.91,-1.92 4.89,-2.86 8.93,-2.86 3.83,0 6.69,0.71 8.56,2.16 1.88,1.46 3.16,3.59 3.86,6.43l-6.98 1.48c-0.29,-1.26 -0.86,-2.23 -1.72,-2.91 -0.83,-0.67 -2.03,-1.01 -3.59,-1.01 -1.97,0 -3.38,0.32 -4.23,0.96 -0.57,0.44 -0.85,1.02 -0.85,1.72 0,0.62 0.24,1.13 0.74,1.56 0.68,0.57 2.99,1.37 6.96,2.41 3.97,1.03 6.74,2.3 8.31,3.81 1.56,1.51 2.34,3.63 2.34,6.35 0,2.97 -1.08,5.51 -3.23,7.64 -2.15,2.13 -5.33,3.19 -9.55,3.19 -3.83,0 -6.86,-0.89 -9.1,-2.65 -2.23,-1.79 -3.69,-4.2 -4.38,-7.24l7.47 -1.31zm30.11 0c0.32,1.65 0.96,2.91 1.92,3.76 0.97,0.86 2.34,1.29 4.08,1.29 1.92,0 3.36,-0.41 4.34,-1.22 0.64,-0.57 0.97,-1.33 0.97,-2.29 0,-0.65 -0.18,-1.19 -0.53,-1.61 -0.37,-0.4 -1.2,-0.79 -2.47,-1.13 -6.02,-1.53 -9.8,-2.91 -11.41,-4.17 -2.23,-1.76 -3.34,-4.19 -3.34,-7.29 0,-2.8 0.97,-5.17 2.89,-7.07 1.93,-1.92 4.89,-2.86 8.93,-2.86 3.84,0 6.7,0.71 8.57,2.16 1.86,1.46 3.16,3.59 3.86,6.43l-6.99 1.48c-0.3,-1.26 -0.87,-2.23 -1.7,-2.91 -0.85,-0.67 -2.05,-1.01 -3.61,-1.01 -1.97,0 -3.38,0.32 -4.24,0.96 -0.56,0.44 -0.84,1.02 -0.84,1.72 0,0.62 0.25,1.13 0.75,1.56 0.66,0.57 2.99,1.37 6.96,2.41 3.97,1.03 6.74,2.3 8.31,3.81 1.56,1.51 2.33,3.63 2.33,6.35 0,2.97 -1.07,5.51 -3.23,7.64 -2.14,2.13 -5.33,3.19 -9.55,3.19 -3.82,0 -6.85,-0.89 -9.09,-2.65 -2.23,-1.79 -3.69,-4.2 -4.38,-7.24l7.47 -1.31zm25.28 -26.28l0 -7.89 7.43 0 0 7.89 -7.43 0zm0 36.67l0 -32.3 7.43 0 0 32.3 -7.43 0zm15.14 -24.79c1.22,-2.67 2.93,-4.69 5.17,-6.09 2.23,-1.4 4.71,-2.1 7.45,-2.1 4.26,0 7.73,1.58 10.43,4.75 2.72,3.19 4.07,7.2 4.07,12.06 0,4.89 -1.36,8.95 -4.09,12.15 -2.74,3.23 -6.2,4.83 -10.36,4.83 -2.55,0 -5.02,-0.67 -7.35,-2.01 -2.34,-1.33 -4.1,-3.3 -5.32,-5.89 -1.23,-2.59 -1.83,-5.75 -1.83,-9.44 0,-2.88 0.62,-5.65 1.83,-8.26zm7.78 16.07c1.33,1.72 2.95,2.56 4.88,2.56 1.94,0 3.57,-0.84 4.87,-2.56 1.31,-1.7 1.97,-4.18 1.97,-7.42 0,-3.17 -0.66,-5.61 -1.97,-7.31 -1.3,-1.71 -2.93,-2.56 -4.87,-2.56 -1.93,0 -3.55,0.85 -4.88,2.56 -1.32,1.7 -1.98,4.16 -1.98,7.36 0,2.51 0.4,5.33 1.98,7.37zm43.33 8.72l0 -16.46c0,-3.49 -0.17,-5.75 -0.49,-6.76 -0.33,-1.02 -0.84,-1.81 -1.57,-2.38 -0.71,-0.57 -1.57,-0.84 -2.58,-0.84 -1.31,0 -2.47,0.4 -3.49,1.2 -1.05,0.82 -1.76,1.89 -2.13,3.22 -0.39,1.34 -0.57,3.81 -0.57,7.42l0 14.6 -7.42 0 0 -32.3 6.87 0 0 4.74c2.47,-3.61 5.56,-5.42 9.3,-5.42 1.64,0 3.15,0.34 4.51,1.01 1.37,0.69 2.41,1.54 3.1,2.6 0.7,1.05 1.19,2.25 1.45,3.59 0.29,1.33 0.42,3.23 0.42,5.73l0 20.05 -7.4 0zm20.44 -22.35l-6.71 -1.36c0.76,-3.16 2.07,-5.49 3.91,-7 1.85,-1.53 4.6,-2.27 8.25,-2.27 3.31,0 5.78,0.44 7.41,1.34 1.61,0.91 2.75,2.05 3.41,3.43 0.67,1.39 1,3.94 1,7.66l-0.1 9.95c0,2.84 0.11,4.93 0.35,6.28 0.23,1.36 0.67,2.79 1.32,4.32l-7.37 0c-0.38,-1.16 -0.6,-2.37 -0.97,-3.49 -1.25,1.45 -2.61,2.51 -4.06,3.23 -1.44,0.71 -2.98,1.07 -4.61,1.07 -2.88,0 -5.15,-0.9 -6.8,-2.7 -1.67,-1.8 -2.51,-4.08 -2.51,-6.84 0,-1.81 0.39,-3.44 1.15,-4.87 0.75,-1.42 1.81,-2.53 3.18,-3.28 1.37,-0.76 3.33,-1.43 5.91,-2 3.46,-0.74 5.87,-1.45 7.2,-2.09 0,-1.47 0.05,-3.3 -1.05,-4.42 -0.72,-0.7 -2.06,-1.05 -4.01,-1.05 -1.33,0 -2.35,0.29 -3.1,0.91 -0.92,0.74 -1.47,2.07 -1.8,3.18zm9.96 6.92c-0.94,0.37 -2.45,0.79 -4.52,1.31 -2.05,0.5 -3.4,1 -4.04,1.48 -0.96,0.8 -1.45,1.8 -1.45,3.01 0,1.19 0.39,2.24 1.15,3.1 0.78,0.87 1.77,1.31 2.97,1.31 1.34,0 2.61,-0.51 3.84,-1.52 0.89,-0.78 1.48,-1.71 1.76,-2.83 0.19,-0.72 0.29,-2.11 0.29,-4.17l0 -1.69zm14.62 15.43l0 -44.56 7.42 0 0 44.56 -7.42 0z"/>
  <path class="fil11" d="M380.56 273.02l17.24 -26.01 -15.62 -23.88 11.76 0 9.82 14.86 9.83 -14.86 11.77 0 -15.64 23.89 17.19 26 -12.11 0 -11.05 -16.9 -11.06 16.9 -12.13 0 0 0 0 0zm51.53 0l0 -49.89 16.16 0c6.13,0 10.1,0.24 11.96,0.74 2.85,0.75 5.25,2.39 7.17,4.89 1.94,2.51 2.9,5.74 2.9,9.72 0,3.08 -0.56,5.64 -1.67,7.71 -1.11,2.1 -2.51,3.74 -4.23,4.94 -1.7,1.18 -3.44,1.97 -5.21,2.36 -2.4,0.47 -5.87,0.71 -10.43,0.71l-6.55 0 0 18.82 -10.1 0 0 0 0 0zm10.1 -41.45l0 14.2 5.5 0c3.96,0 6.59,-0.27 7.94,-0.79 1.32,-0.52 2.36,-1.32 3.12,-2.45 0.76,-1.12 1.15,-2.42 1.15,-3.9 0,-1.82 -0.55,-3.33 -1.6,-4.5 -1.07,-1.19 -2.39,-1.93 -4.03,-2.22 -1.2,-0.24 -3.61,-0.34 -7.24,-0.34l-4.84 0 0 0 0 0z"/>
 </g>
</svg>
