<?xml version="1.0" encoding="UTF-8"?>
<!DOCTYPE svg PUBLIC "-//W3C//DTD SVG 1.1//EN" "http://www.w3.org/Graphics/SVG/1.1/DTD/svg11.dtd">
<!-- Creator: CorelDRAW 2017 -->
<svg xmlns="http://www.w3.org/2000/svg" xml:space="preserve" width="500px" height="500px" version="1.1" style="shape-rendering:geometricPrecision; text-rendering:geometricPrecision; image-rendering:optimizeQuality; fill-rule:evenodd; clip-rule:evenodd"
viewBox="0 0 500 500"
 xmlns:xlink="http://www.w3.org/1999/xlink">
 <defs>
  <style type="text/css">
   <![CDATA[
    .str0 {stroke:#0F7699;stroke-width:20;stroke-miterlimit:22.9256}
    .fil1 {fill:#FEFEFE}
    .fil0 {fill:#02ADEF}
    .fil2 {fill:#FDFDFD}
   ]]>
  </style>
 </defs>
 <g id="Слой_x0020_1">
  <metadata id="CorelCorpID_0Corel-Layer"/>
  <circle class="fil0 str0" cx="250" cy="250" r="239.39"/>
  <polygon class="fil1" points="233.57,132.97 233.49,207.28 347.15,207.52 346.94,116.89 "/>
  <path class="fil1" d="M234.73 291.06l112.22 15.33 0.11 -86.81 -113.47 -3.04c0.09,14.73 -1.48,63.71 1.14,74.52z"/>
  <path class="fil1" d="M145.32 221.6l-0.12 57.25c26.31,3.69 52.84,8.98 79.92,10.68l0.63 -73.27 -80.42 -0.79 -0.01 6.13z"/>
  <polygon class="fil1" points="145.23,144.52 145.46,208.57 225.23,207.47 225.41,133.66 "/>
  <path class="fil2" d="M387.36 341.88c-10.6,2.74 -9.74,16.45 -8.92,27.68 0.98,13.46 11.09,15.51 24.19,12.72 10.02,-2.13 9.28,-16.66 8.45,-27.83 -0.93,-12.44 -11.63,-15.7 -23.72,-12.57z"/>
  <path class="fil2" d="M123.41 349.54l2.41 4.15c0.28,0.87 0.83,3.5 1.16,4.76 1,3.75 1.8,6.7 2.78,10.23 2.59,9.36 1.42,14.3 12.41,13.09 4.15,-6.13 11.06,-32.39 12.52,-40.92l-7.61 0.13c-1.41,5.99 -6.58,29.61 -9.19,32.46 -6.25,-13.96 -4.79,-33.17 -14.17,-32.94 -9.33,0.24 -8.12,26.13 -13.87,32.88l-8.86 -32.35 -7.49 -0.23c0.88,5.42 9.35,37.54 11.58,39.61 2.77,2.56 7.63,2.04 9.72,-0.56 1.78,-2.21 7.79,-26.73 8.61,-30.31z"/>
  <path class="fil2" d="M240.82 351.45c-8.54,2.58 -10.67,13.04 -7.47,22.72 2.57,7.78 14.19,10.05 23.71,6.88 12.44,-4.13 13.57,-38.61 -16.24,-29.6z"/>
  <path class="fil2" d="M221.37 350.44c-15,2.02 -23.01,-1.01 -21.72,18.33 0.44,6.46 2.3,10.97 7.57,12.44 4.05,1.13 16.2,0.6 19.99,-0.06 2.03,-7.95 1.22,-29.75 0.97,-39.86l-6.64 -0.53 -0.17 9.68z"/>
  <path class="fil2" d="M288.79 358.77c2.31,3.6 3.24,9.54 4.52,14.41 1.12,4.27 3.42,13.29 10.32,7.56 2.03,-1.69 8.14,-25.62 8.89,-29.79l-6.37 0.05c-1.62,7.1 -3.01,17.37 -6.43,22.77 -3.84,-6.43 -3.83,-17.49 -7.7,-22.98 -12.05,-1.06 -6.5,8.17 -13.65,23.58l-6.6 -23.53 -6.22 -0.01c0.57,3.8 6.99,28.25 8.45,29.7 9.38,9.29 12.95,-16.15 14.79,-21.76z"/>
  <path class="fil2" d="M167.32 357.75l0 24.01 6.85 0c0,-26.1 -2.07,-25.69 5.55,-25.69 11.38,0 8.98,4.36 8.98,25.69l6.86 -0.13c0,-6.42 0.55,-15.73 -0.08,-21.76 -1.08,-10.32 -10.8,-9.1 -19.76,-9.1 -7.09,0 -8.4,-0.48 -8.4,6.98z"/>
  <path class="fil2" d="M334.48 375.57c-4.01,1.51 -14.28,0.9 -19.81,0.9l0 5.29c10.87,0 29.41,4.03 27.09,-9.88 -1.88,-11.24 -21.88,-4.05 -20.49,-15.48l19.23 -0.45 -0.02 -4.96c-9.8,-0.87 -27.13,-3.38 -26.1,8.75 1.07,12.67 20.94,4.82 20.1,15.83z"/>
  <path class="fil0" d="M401.24 375.65c2.66,-4.62 2.73,-13.04 2.2,-20.02 -0.57,-7.6 -8.2,-11.03 -14.38,-6.89 -4.37,2.93 -3.37,13.7 -2.98,19.76 0.62,9.52 7.49,8.84 15.16,7.15z"/>
  <path class="fil2" d="M358 342c0.11,3.23 -0.08,3.02 0,6 0,0 -0.1,-0.05 6.5,0l0.27 34.52 7.73 -0.02c-0.01,-10.14 0.62,-31.66 0.5,-40.5 -15,0 0,0 -15,0z"/>
  <path class="fil0" d="M244.54 356.31c-8.57,2.64 -8.38,25.72 8.55,19.78 7.68,-2.7 8.47,-25.04 -8.55,-19.78z"/>
  <path class="fil0" d="M215.72 376.47c6.8,0 5.8,-1.14 5.73,-7.65 -0.05,-4.16 0.13,-8.39 -0.27,-12.53 -8.37,-0.82 -13.34,-1.23 -14.36,6.52 -1.2,9.02 -0.03,13.66 8.9,13.66z"/>
  <polygon class="fil2" points="155.8,381.66 162.66,381.74 162.66,350.84 155.83,350.81 "/>
 </g>
</svg>
