<?xml version="1.0" encoding="UTF-8"?>
<!DOCTYPE svg PUBLIC "-//W3C//DTD SVG 1.1//EN" "http://www.w3.org/Graphics/SVG/1.1/DTD/svg11.dtd">
<!-- Creator: CorelDRAW 2017 -->
<svg xmlns="http://www.w3.org/2000/svg" xml:space="preserve" width="500px" height="500px" version="1.1" style="shape-rendering:geometricPrecision; text-rendering:geometricPrecision; image-rendering:optimizeQuality; fill-rule:evenodd; clip-rule:evenodd"
viewBox="0 0 500 500"
 xmlns:xlink="http://www.w3.org/1999/xlink">
 <defs>
  <style type="text/css">
   <![CDATA[
    .str0 {stroke:#0F7699;stroke-width:20;stroke-miterlimit:22.9256}
    .fil0 {fill:#02ADEF}
    .fil1 {fill:#FEFEFE}
    .fil2 {fill:#02ADEF;fill-rule:nonzero}
   ]]>
  </style>
 </defs>
 <g id="Слой_x0020_1">
  <metadata id="CorelCorpID_0Corel-Layer"/>
  <circle class="fil0 str0" cx="250" cy="250" r="236"/>
  <g id="_2769897111872">
   <g>
    <polygon class="fil1" points="222.2,135.71 222.08,244.56 388.57,244.91 388.26,112.16 "/>
    <path class="fil1" d="M223.9 367.27l164.37 22.46 0.17 -127.16 -166.21 -4.45c0.13,21.58 -2.17,93.32 1.67,109.15l0 0z"/>
    <path class="fil1" d="M92.94 265.53l-0.18 83.86c38.54,5.4 77.4,13.15 117.06,15.64l0.93 -107.32 -117.8 -1.16 -0.01 8.98 0 0z"/>
    <polygon class="fil1" points="92.81,152.63 93.14,246.45 209.99,244.84 210.25,136.72 "/>
   </g>
   <path class="fil2" d="M187.93 337.05l-32.72 0 0 -123.8c-11.94,11.23 -26.03,19.55 -42.28,24.92l0 -29.85c8.56,-2.78 17.84,-8.08 27.83,-15.92 10.03,-7.8 16.88,-16.92 20.62,-27.31l26.55 0 0 171.96zm104.52 -171.96c16.56,0 29.5,5.94 38.86,17.8 11.1,14.01 16.67,37.29 16.67,69.77 0,32.45 -5.61,55.77 -16.8,69.94 -9.27,11.7 -22.17,17.55 -38.73,17.55 -16.63,0 -30.04,-6.4 -40.24,-19.22 -10.19,-12.81 -15.28,-35.7 -15.28,-68.58 0,-32.29 5.61,-55.54 16.79,-69.7 9.28,-11.71 22.17,-17.56 38.73,-17.56zm0 27.23c-3.9,0 -7.4,1.27 -10.42,3.82 -3.07,2.51 -5.46,7.04 -7.13,13.62 -2.23,8.47 -3.34,22.8 -3.34,42.9 0,20.14 0.99,33.96 2.98,41.48 1.99,7.53 4.5,12.54 7.53,15.05 3.02,2.51 6.48,3.74 10.38,3.74 3.91,0 7.41,-1.27 10.47,-3.82 3.03,-2.51 5.42,-7.05 7.09,-13.62 2.23,-8.4 3.35,-22.69 3.35,-42.83 0,-20.1 -1,-33.91 -2.99,-41.43 -1.99,-7.53 -4.5,-12.58 -7.52,-15.09 -3.03,-2.55 -6.49,-3.82 -10.4,-3.82z"/>
  </g>
 </g>
</svg>
