<?xml version="1.0" encoding="UTF-8"?>
<!DOCTYPE svg PUBLIC "-//W3C//DTD SVG 1.1//EN" "http://www.w3.org/Graphics/SVG/1.1/DTD/svg11.dtd">
<!-- Creator: CorelDRAW 2017 -->
<svg xmlns="http://www.w3.org/2000/svg" xml:space="preserve" width="500px" height="500px" version="1.1" style="shape-rendering:geometricPrecision; text-rendering:geometricPrecision; image-rendering:optimizeQuality; fill-rule:evenodd; clip-rule:evenodd"
viewBox="0 0 500 500"
 xmlns:xlink="http://www.w3.org/1999/xlink">
 <defs>
  <style type="text/css">
   <![CDATA[
    .str1 {stroke:#2B2A29;stroke-width:4;stroke-miterlimit:22.9256}
    .str0 {stroke:#FFCB06;stroke-width:25;stroke-miterlimit:22.9256}
    .fil4 {fill:none}
    .fil3 {fill:#231F20}
    .fil1 {fill:#848484}
    .fil5 {fill:#FFCA06}
    .fil2 {fill:#FFCB06}
    .fil0 {fill:white}
   ]]>
  </style>
 </defs>
 <g id="Слой_x0020_1">
  <metadata id="CorelCorpID_0Corel-Layer"/>
  <circle class="fil0 str0" cx="250" cy="250" r="230.97"/>
 </g>
 <g id="Слой_x0020_1_0">
  <metadata id="CorelCorpID_1Corel-Layer"/>
  <g id="_2453015346768">
   <path class="fil1" d="M379.74 164.67c-1.34,3.72 -4.43,8.67 -6.43,12.52 -9.47,18.33 -38.93,66.73 -60.5,72.28 0.48,3.46 13.11,26.53 15.67,31.26l31.47 60.03c2.63,5.03 5.21,10.04 7.9,14.97 11.2,20.56 8.88,19.52 -17.28,19.52 -8.68,0 -17.37,-0.01 -26.05,0 -11.48,0.01 -12.39,-0.1 -19.65,-6.1 -14.59,-12.06 -20.25,-29.02 -30.75,-47.4l-13.84 -25.53c-0.71,-1.42 -1,-3.05 -2.69,-3.69 -1.63,-0.62 -4.45,-0.42 -5.51,0.42l-39.68 64.49c-6.76,10.65 -15.83,17.85 -33.98,17.82 -50.77,-0.09 -57.4,5.96 -41.66,-20.38l27.54 -50.6c1.32,-3.05 3.61,-6.61 5.09,-9.53 1.54,-3.01 3.36,-6.23 4.91,-9.1 3.25,-6.02 7.15,-12.2 9.8,-18.34 1.64,-2.16 7.51,-13.02 7.81,-15.62l-8.04 -3.88c-1.65,-1.39 -4.02,-2.75 -6.16,-4.37 -3.87,-2.95 -14.28,-11.83 -15.91,-15.61l-4.48 -4.66c-1.66,-2 -2.37,-3.03 -3.88,-5.01 -2.01,-2.63 -6.26,-7.76 -7.5,-10.69 -1.55,-1.42 -4.92,-6.99 -6.56,-9.49l-5.5 -9.59c-3.22,-2.9 -14.82,-25.82 -17.71,-31.42 -3.23,-6.25 -5.54,-10.5 -8.81,-15.97 -4.57,-7.67 -9.48,-10.51 -8.8,-14.95 4.49,-2.93 25.49,-1.45 32.82,-1.45 13.69,0 18.14,-0.77 28.81,5.49 6.76,3.96 13.68,10.08 18.83,15.46 3.05,3.18 5.06,5.48 8.08,9.09 3.26,3.91 5.88,8.27 8.58,8.84 4.45,-9.82 7.86,-20.97 16.55,-29.21 3.63,-3.44 8.54,-7.02 15.69,-7.22 7.3,-0.21 14.93,0 22.27,0 17.76,0 27.82,-2.68 38.13,7.68 10.5,10.53 13.67,25.46 16.51,28.67 2.86,-0.83 6.2,-6.59 8.24,-8.97 2.58,-3 5.5,-6.15 8.24,-8.91 4.92,-4.98 11.79,-11.77 18.73,-15.6 10.6,-5.86 14.84,-5.32 28.95,-5.32 6.03,0 27.16,-1.22 32.41,1.19 0.42,3.67 0.15,3.31 -1.89,5.81 -10.79,13.26 -8.96,14.56 -14.65,23.48 -1.86,2.91 -4.12,5.67 -5.12,9.59zm-190.23 88.25c-1.13,3.55 -6.17,12.22 -8.39,16.08 -3.07,5.35 -5.68,10.83 -8.63,16.15 -6.03,10.88 -11.54,21.38 -17.33,32.23 -5.78,10.82 -11.41,21.57 -17.54,31.99 -18.75,31.9 -13.81,27.83 25.53,27.89 26.62,0.04 38.43,1.38 52.85,-21.93 6.45,-10.45 12.62,-20.47 18.89,-30.68l16.66 -27.16c2.29,-3.84 4.54,-5.06 7.12,-0.33 0.87,1.58 1.49,2.88 2.17,4.21l30.06 55.06c5.76,9.58 15.88,20.33 27.9,20.66 13.99,0.38 35.4,0.99 48.91,-0.29 15.72,-1.48 5.93,-14.69 -2.14,-29.59l-50.18 -96.2c4.22,-3.14 4.41,-1.74 13.06,-8.75 2.96,-2.4 8.81,-8.12 11.16,-11.11 17.37,-22.05 20.13,-26.06 35.12,-52.55 7.96,-14.06 14.1,-29.75 23.7,-42.38 1.5,-1.98 10.18,-10.37 1.88,-13.07 -2.85,-0.92 -38.77,-0.73 -44.05,-0.46 -15.73,0.81 -31.3,15.09 -40.36,25.69 -1.05,1.22 -1.28,1.33 -2.48,2.58l-6.32 7.66c-0.88,0.97 -0.73,0.83 -1.64,1.56 -3.8,-5.7 -11.37,-33.79 -32.38,-35.07 -7.14,-0.43 -15.6,-0.03 -22.89,-0.03 -27.04,0 -34.28,-3.15 -48.31,19.81 -4.58,7.49 -5.27,13.14 -7.86,15.54 -1.09,-2.16 -2.96,-4.27 -4.58,-6.23 -8.23,-9.89 -18.2,-19.94 -29.38,-26.54 -4.93,-2.91 -10.94,-4.93 -17.87,-5.01 -6.54,-0.06 -40.07,-0.84 -43.53,0.94 -6.3,3.25 0.84,9.65 3.93,13.9 8.17,11.24 16.76,30.66 24.07,43.25 10.85,18.7 22.84,37.64 37.38,52.87 5.21,5.46 11.4,11.2 18.33,15.34 2.01,1.21 5.32,2.68 7.14,3.97z"/>
   <path class="fil2" d="M159.26 312.75l4.9 -8.71c1.32,-3.04 3.61,-6.61 5.1,-9.52 1.54,-3.01 3.36,-6.24 4.91,-9.11 3.26,-6.02 7.17,-12.2 9.82,-18.34 1.64,-2.16 7.53,-13.02 7.83,-15.61l-8.06 -3.88c-1.65,-1.4 -4.03,-2.76 -6.17,-4.38 -3.88,-2.95 -14.3,-11.83 -15.94,-15.61l-4.48 -4.66c-1.67,-1.99 -2.38,-3.02 -3.9,-5.01 -2.01,-2.62 -6.27,-7.76 -7.5,-10.69 -1.56,-1.42 -4.94,-6.99 -6.58,-9.49l-5.51 -9.59c-3.22,-2.9 -14.85,-25.82 -17.74,-31.42 -3.23,-6.25 -5.55,-10.49 -8.83,-15.97 -4.58,-7.66 -9.5,-10.51 -8.82,-14.94 4.5,-2.94 25.54,-1.46 32.89,-1.46 13.71,0 18.16,-0.77 28.86,5.49 6.77,3.97 13.7,10.08 18.87,15.46 3.05,3.19 5.06,5.48 8.09,9.09 3.26,3.91 5.89,8.27 8.6,8.85 4.46,-9.82 7.87,-20.98 16.58,-29.22 3.63,-3.44 8.56,-7.02 15.72,-7.22 7.31,-0.2 14.95,0 22.3,0 17.8,0 27.88,-2.68 38.21,7.68 10.51,10.54 13.7,25.46 16.53,28.67 2.88,-0.83 6.22,-6.59 8.27,-8.97 2.57,-3 5.51,-6.15 8.24,-8.91 4.93,-4.97 11.82,-11.77 18.77,-15.6 10.63,-5.85 14.87,-5.32 29.01,-5.32 6.04,0 27.21,-1.21 32.47,1.19 0.41,3.68 0.15,3.31 -1.89,5.81 -10.82,13.26 -8.99,14.56 -14.68,23.48 -23.33,38.56 -60.92,61.09 -97.42,75.68 -28.25,11.3 -41.89,11.8 -69.34,30.38 -31.49,21.3 -49.62,40.47 -59.11,51.85z"/>
   <path class="fil3" d="M218.82 184.63c3.99,0.49 5.37,-0.23 8.74,-1.01 2.21,-1.55 2.97,-0.72 3.48,-4.46 0.64,-4.7 -1.16,-15.67 -5.9,-17.49 -12.54,-4.83 -13.39,14.54 -9.26,18.26 2.09,-1.62 1.12,-0.76 1.74,-4.05 -0.28,1.57 1.02,3.35 3.01,4.31 -2.73,0.37 -2.07,0.29 -2.42,2.9 -1.29,-2.82 -0.01,-1.89 -2.5,-2.72 0.87,3.05 2.01,3.48 3.11,4.26z"/>
   <path class="fil3" d="M280.49 184.99c-3.99,0.5 -5.37,-0.23 -8.74,-1.01 -2.21,-1.54 -2.97,-0.72 -3.48,-4.46 -0.64,-4.69 1.16,-15.67 5.9,-17.49 12.54,-4.83 13.38,14.54 9.26,18.27 -2.09,-1.63 -1.12,-0.77 -1.75,-4.06 0.29,1.57 -1.01,3.35 -3,4.31 2.73,0.37 2.07,0.29 2.41,2.9 1.3,-2.81 0.01,-1.88 2.51,-2.71 -0.88,3.05 -2.01,3.48 -3.11,4.25z"/>
   <path class="fil4 str1" d="M233.39 203.22c10.3,8.03 20.69,7.01 31.13,0"/>
   <path class="fil4 str1" d="M215.29 154.37c2.67,0.98 8.42,1.09 9.53,1.91"/>
   <path class="fil4 str1" d="M282.15 154.37c-2.66,0.98 -8.41,1.09 -9.53,1.91"/>
  </g>
  <g id="_2453015345424">
   <path class="fil3" d="M110 272.79c0.11,5.47 5.22,21.33 7.04,28.15 2.59,9.78 21.08,81.53 22.78,84.42 20.91,2.55 24.62,-15.67 29.68,-35.84 2.19,-8.72 4.43,-17.19 6.71,-26 1.17,-4.51 2.17,-8.37 3.26,-12.73 0.55,-2.2 1.07,-4.41 1.71,-6.67 1.69,-5.96 5.87,-5.09 7.32,0.39 4.95,18.72 12.77,55.66 19.74,70.07 4.64,9.59 11.22,11.38 21.37,10.91 0.1,-0.15 0.2,-0.35 0.25,-0.46l1.1 -2.91c4.23,-15.58 28.17,-106.32 28.06,-109.46 -9.33,0.01 -17.43,0.27 -21.46,7.07 -2.51,4.24 -4.93,16.61 -6.46,22.41 -4.05,15.36 -7.7,31.05 -11.87,46.03 -1.44,-2.72 -9.63,-35.4 -11.22,-41.3 -3.82,-14.26 -6.31,-29.67 -23.3,-29.59 -16.91,0.07 -19.5,15.51 -23.27,29.61 -3.58,13.42 -6.92,28.26 -10.87,41.26l-12.13 -46.12c-4.81,-19.18 -3.9,-31.42 -28.44,-29.24z"/>
   <path class="fil3" d="M330.11 329.5l-37.77 56.42c26.69,0.11 24.74,-2.78 41.08,-27.66 11.99,-18.26 8.75,-18.01 29.67,13.47 3.78,5.69 4.85,8.56 11.26,11.86 5.85,3.01 13.9,2.36 20.97,2.34 -2.22,-4.71 -32.73,-47.83 -37.61,-56.44 1.26,-3.35 15.47,-23.46 18.69,-28.3 3.37,-5.08 17.16,-24.85 18.61,-28.42 -6.35,-0.37 -15.37,-0.39 -20.6,2.07 -5.62,2.64 -7.89,6.75 -11.22,11.86 -3,4.61 -5.76,8.64 -9,13.45 -11.01,16.41 -9.48,17.15 -20.63,0.45 -3.1,-4.66 -5.78,-8.72 -8.97,-13.48 -9.31,-13.86 -9.29,-13.74 -31.91,-14.35 1.32,3.85 35.72,52.63 37.43,56.73z"/>
   <path class="fil3" d="M263.5 385.93c25.17,-0.09 20.37,-15.04 20.37,-37.2 0,-19.19 0.1,-38.42 0,-57.61l-8.71 5.67c-14.16,8.03 -11.79,2.44 -11.79,31.42 0,19.24 0.13,38.47 0.13,57.72z"/>
   <path class="fil5" d="M263.51 298.19c1,-0.29 12.83,-6.05 15.09,-8.21 3.59,-3.43 7,-10.87 6.01,-17.47 -15.86,-1.16 -21.83,10.78 -21.1,25.68z"/>
  </g>
 </g>
</svg>
