<?xml version="1.0" encoding="UTF-8"?>
<!DOCTYPE svg PUBLIC "-//W3C//DTD SVG 1.1//EN" "http://www.w3.org/Graphics/SVG/1.1/DTD/svg11.dtd">
<!-- Creator: CorelDRAW 2017 -->
<svg xmlns="http://www.w3.org/2000/svg" xml:space="preserve" width="500px" height="500px" version="1.1" style="shape-rendering:geometricPrecision; text-rendering:geometricPrecision; image-rendering:optimizeQuality; fill-rule:evenodd; clip-rule:evenodd"
viewBox="0 0 500 500"
 xmlns:xlink="http://www.w3.org/1999/xlink">
 <defs>
  <style type="text/css">
   <![CDATA[
    .fil0 {fill:#383838}
    .fil1 {fill:#FEFEFE}
    .fil2 {fill:red}
   ]]>
  </style>
 </defs>
 <g id="Слой_x0020_1">
  <metadata id="CorelCorpID_0Corel-Layer"/>
  <path class="fil0" d="M250 17.79c128.25,0 232.22,103.96 232.22,232.21 0,128.25 -103.97,232.22 -232.22,232.22 -128.25,0 -232.22,-103.97 -232.22,-232.22 0,-128.25 103.97,-232.21 232.22,-232.21zm0 62.51c93.72,0 169.7,75.98 169.7,169.7 0,93.72 -75.98,169.7 -169.7,169.7 -93.72,0 -169.7,-75.98 -169.7,-169.7 0,-93.72 75.98,-169.7 169.7,-169.7z"/>
  <path class="fil0" d="M80.3 274.69c15.16,-65.62 51.61,-115.29 126.68,-141.75l124.84 -44.01c13.51,56.19 26.94,139.49 -33.15,163.75 0.5,14.24 0.33,28.19 -1.67,42.32 -4.4,31.09 -14.69,40.49 -31.98,67.05 -1.39,2.12 -8.49,8.62 -8.98,6.47 -0.74,-3.23 1.63,-8.05 1.82,-11.35 2.32,-39.12 3.99,-51.61 -2.15,-90.61 -13.71,6.04 -40.06,14.6 -51.27,23.66 -8.13,6.57 -17,13.14 -20.94,22 -3.73,8.41 -5.66,23.16 -4.31,31.71 1.32,8.41 5.56,20.37 13.41,28.88 37.26,40.41 92.49,36.8 139.4,11.19 2.99,-1.29 16.71,-5.36 19,-3l6.74 6.94 -5.23 11 -17.15 22.76 -119.68 11.91 -123.68 -39.61 -11.7 -119.31z"/>
  <g id="_1918170906672">
   <circle class="fil1" cx="250" cy="246.98" r="235.5"/>
   <path class="fil2" d="M115.36 53.22c-23.24,0.56 -43.99,12.16 -55.18,26.03 -13.35,16.55 -19.63,30.91 -19.63,59.96 7.95,39.28 20.55,65.3 72.49,106.14 60.7,47.74 16.01,13.6 42.71,134.01 11.44,51.6 38.78,105.91 98.96,109 24.76,1.27 58.94,-5.21 69.85,-17.92 -38.39,-14.77 -49.41,-62.1 -55.6,-107.68 -3,-22.05 -4.2,-44.25 -5.58,-66.78 -2.03,-33.23 7.09,-33.79 21.75,-51.28 22.57,-26.93 108.67,-114.73 173.07,-107.87 0,-29.64 -12.68,-45.27 -26.7,-61.35 -63.52,-72.84 -186.59,50.31 -231.61,89.75 -27.76,-19.7 -81.76,-62.54 -84.53,-112.01z"/>
  </g>
 </g>
</svg>
