<?xml version="1.0" encoding="UTF-8"?>
<!DOCTYPE svg PUBLIC "-//W3C//DTD SVG 1.1//EN" "http://www.w3.org/Graphics/SVG/1.1/DTD/svg11.dtd">
<!-- Creator: CorelDRAW 2017 -->
<svg xmlns="http://www.w3.org/2000/svg" xml:space="preserve" width="272px" height="272px" version="1.1" style="shape-rendering:geometricPrecision; text-rendering:geometricPrecision; image-rendering:optimizeQuality; fill-rule:evenodd; clip-rule:evenodd"
viewBox="0 0 272 272"
 xmlns:xlink="http://www.w3.org/1999/xlink">
 <defs>
  <style type="text/css">
   <![CDATA[
    .str0 {stroke:white;stroke-width:25;stroke-miterlimit:22.9256}
    .fil0 {fill:#D44A4A}
    .fil2 {fill:#FEFEFE;fill-rule:nonzero}
    .fil1 {fill:white;fill-rule:nonzero}
   ]]>
  </style>
 </defs>
 <g id="Слой_x0020_1">
  <metadata id="CorelCorpID_0Corel-Layer"/>
  <circle class="fil0 str0" cx="136" cy="136" r="119.75"/>
  <g id="_1986364780896">
   <path class="fil1" d="M63.74 154.56l21.99 0c3.67,0 6.33,0.83 7.99,2.49 1.65,1.65 2.48,4.32 2.48,7.98l0 5.24c0,3.66 -0.83,6.33 -2.48,7.99 -1.66,1.65 -4.32,2.48 -7.99,2.48l-12.57 0 0 10.47 -9.42 0 0 -36.65zm23.04 10.47c0,-2.09 -1.05,-3.14 -3.14,-3.14l-10.48 0 0 11.52 10.48 0c2.09,0 3.14,-1.05 3.14,-3.14l0 -5.24zm14.14 -10.47l21.99 0c3.66,0 6.33,0.83 7.99,2.49 1.65,1.65 2.48,4.32 2.48,7.98l0 4.71c0,2.9 -0.48,5.15 -1.44,6.76 -0.96,1.61 -2.49,2.67 -4.58,3.2l6.55 11.51 -10.22 0 -6.02 -10.99 -7.33 0 0 10.99 -9.42 0 0 -36.65zm23.04 10.47c0,-2.09 -1.05,-3.14 -3.15,-3.14l-10.47 0 0 11 10.47 0c2.1,0 3.15,-1.05 3.15,-3.15l0 -4.71zm38.22 -0.52c0,-2.1 -1.04,-3.14 -3.14,-3.14l-8.9 0c-2.1,0 -3.14,1.04 -3.14,3.14l0 16.76c0,2.09 1.04,3.14 3.14,3.14l8.9 0c2.1,0 3.14,-1.05 3.14,-3.14l0 -16.76zm9.43 16.76c0,3.66 -0.83,6.32 -2.49,7.98 -1.66,1.66 -4.32,2.49 -7.98,2.49l-13.1 0c-3.66,0 -6.32,-0.83 -7.98,-2.49 -1.66,-1.66 -2.49,-4.32 -2.49,-7.98l0 -16.76c0,-3.67 0.83,-6.33 2.49,-7.99 1.66,-1.66 4.32,-2.48 7.98,-2.48l13.1 0c3.66,0 6.32,0.82 7.98,2.48 1.66,1.66 2.49,4.32 2.49,7.99l0 16.76zm14.14 10.31c-3.42,0 -5.94,-0.8 -7.54,-2.4 -1.61,-1.6 -2.41,-4.1 -2.41,-7.51l0 -16.68c0,-3.65 0.83,-6.3 2.48,-7.95 1.66,-1.65 4.33,-2.48 7.99,-2.48l18.85 0 0 7.33 -16.76 0c-2.09,0 -3.14,1.04 -3.14,3.12l0 16.68c0,0.81 0.24,1.44 0.71,1.91 0.47,0.47 1.11,0.7 1.91,0.7 1.05,0 2.21,0 3.48,0 1.28,0 2.47,0 3.59,0 1.29,0 2.6,0 3.93,0l0 -7.75 -6.81 0 0 -6.28 16.23 0 0 20.19c-2.61,0.36 -5.25,0.55 -7.9,0.55 -2.27,0.38 -4.72,0.57 -7.33,0.57 -2.62,0 -5.05,0 -7.28,0z"/>
   <path class="fil2" d="M150.63 129.33l-14.55 -48.02 -14.7 48.02c-1.16,3.65 -2.06,6.26 -2.72,7.85 -0.67,1.57 -1.87,3 -3.54,4.26 -1.67,1.24 -3.89,1.88 -6.67,1.88 -2.26,0 -4.1,-0.37 -5.55,-1.12 -1.47,-0.75 -2.63,-1.81 -3.54,-3.17 -0.9,-1.36 -1.63,-2.99 -2.19,-4.87 -0.59,-1.87 -1.09,-3.6 -1.55,-5.21l-14.94 -53.92c-0.9,-3.13 -1.36,-5.52 -1.36,-7.16 0,-2.08 0.82,-3.83 2.45,-5.24 1.63,-1.42 3.66,-2.13 6.06,-2.13 3.33,0 5.55,0.95 6.7,2.83 1.13,1.91 2.13,4.65 2.99,8.27l11.78 46.76 13.18 -43.76c0.99,-3.36 1.87,-5.91 2.64,-7.65 0.77,-1.75 2.05,-3.26 3.81,-4.53 1.75,-1.29 4.14,-1.92 7.15,-1.92 3.08,0 5.47,0.67 7.16,1.99 1.69,1.33 2.87,2.78 3.51,4.35 0.65,1.57 1.53,4.14 2.64,7.76l13.31 43.76 11.78 -46.76c0.57,-2.45 1.11,-4.37 1.61,-5.75 0.52,-1.38 1.4,-2.63 2.64,-3.71 1.25,-1.1 3.05,-1.64 5.44,-1.64 2.36,0 4.37,0.71 6.02,2.11 1.65,1.39 2.49,3.15 2.49,5.26 0,1.49 -0.44,3.88 -1.34,7.16l-14.96 53.92c-1.02,3.64 -1.88,6.31 -2.55,8.01 -0.67,1.69 -1.82,3.17 -3.43,4.44 -1.61,1.28 -3.89,1.92 -6.84,1.92 -2.79,0 -5,-0.62 -6.68,-1.87 -1.67,-1.23 -2.85,-2.63 -3.49,-4.18 -0.67,-1.54 -1.57,-4.19 -2.77,-7.94l0.01 0z"/>
  </g>
 </g>
</svg>
