<?xml version="1.0" encoding="UTF-8"?>
<!DOCTYPE svg PUBLIC "-//W3C//DTD SVG 1.1//EN" "http://www.w3.org/Graphics/SVG/1.1/DTD/svg11.dtd">
<!-- Creator: CorelDRAW 2017 -->
<svg xmlns="http://www.w3.org/2000/svg" xml:space="preserve" width="500px" height="500px" version="1.1" style="shape-rendering:geometricPrecision; text-rendering:geometricPrecision; image-rendering:optimizeQuality; fill-rule:evenodd; clip-rule:evenodd"
viewBox="0 0 500 500"
 xmlns:xlink="http://www.w3.org/1999/xlink">
 <defs>
  <style type="text/css">
   <![CDATA[
    .str1 {stroke:#9F9FF2;stroke-width:4;stroke-miterlimit:22.9256}
    .str0 {stroke:#9F9FF2;stroke-width:8;stroke-miterlimit:22.9256}
    .str3 {stroke:white;stroke-width:2;stroke-miterlimit:22.9256}
    .str2 {stroke:black;stroke-width:2.36;stroke-miterlimit:22.9256}
    .fil99 {fill:none}
    .fil30 {fill:#01FED5}
    .fil31 {fill:#04FCD6}
    .fil29 {fill:#04FFD6}
    .fil32 {fill:#07FAD7}
    .fil33 {fill:#0AF8D8}
    .fil28 {fill:#0AFFD7}
    .fil34 {fill:#0DF7D8}
    .fil27 {fill:#0FFFD8}
    .fil35 {fill:#10F5D9}
    .fil36 {fill:#14F3DA}
    .fil26 {fill:#15FFD8}
    .fil37 {fill:#17F1DB}
    .fil38 {fill:#1AEFDB}
    .fil25 {fill:#1BFFD9}
    .fil39 {fill:#1DEDDC}
    .fil40 {fill:#20EBDD}
    .fil24 {fill:#20FFDA}
    .fil41 {fill:#23E9DE}
    .fil42 {fill:#26E7DF}
    .fil23 {fill:#26FFDB}
    .fil43 {fill:#29E5DF}
    .fil44 {fill:#2CE3E0}
    .fil22 {fill:#2CFFDC}
    .fil45 {fill:#2FE1E1}
    .fil21 {fill:#31FFDD}
    .fil46 {fill:#32DFE2}
    .fil47 {fill:#36DDE2}
    .fil20 {fill:#37FFDE}
    .fil48 {fill:#39DBE3}
    .fil49 {fill:#3CD9E4}
    .fil19 {fill:#3DFFDF}
    .fil50 {fill:#3FD7E5}
    .fil51 {fill:#42D5E5}
    .fil18 {fill:#43FFE0}
    .fil52 {fill:#45D3E6}
    .fil53 {fill:#48D1E7}
    .fil17 {fill:#48FFE1}
    .fil54 {fill:#4BCFE8}
    .fil103 {fill:#4D4D4D}
    .fil16 {fill:#4EFFE2}
    .fil55 {fill:#4FCDE9}
    .fil15 {fill:#54FFE3}
    .fil56 {fill:#55C9EA}
    .fil14 {fill:#59FFE4}
    .fil57 {fill:#5BC5EC}
    .fil13 {fill:#5FFFE5}
    .fil58 {fill:#62C1ED}
    .fil12 {fill:#65FFE6}
    .fil59 {fill:#68BDEF}
    .fil11 {fill:#6AFFE7}
    .fil60 {fill:#6EB9F1}
    .fil10 {fill:#70FFE7}
    .fil61 {fill:#74B5F2}
    .fil9 {fill:#76FFE8}
    .fil62 {fill:#7BB1F4}
    .fil8 {fill:#7BFFE9}
    .fil63 {fill:#81ADF5}
    .fil7 {fill:#84FFEB}
    .fil64 {fill:#87A9F7}
    .fil65 {fill:#8DA5F8}
    .fil6 {fill:#93FFED}
    .fil66 {fill:#94A1FA}
    .fil102 {fill:#999999}
    .fil67 {fill:#9A9DFC}
    .fil68 {fill:#9E9EFC}
    .fil69 {fill:#A1A1FC}
    .fil5 {fill:#A3FFF0}
    .fil70 {fill:#A5A5FC}
    .fil71 {fill:#A8A8FC}
    .fil72 {fill:#ABABFC}
    .fil73 {fill:#AEAEFD}
    .fil74 {fill:#B2B2FD}
    .fil4 {fill:#B2FFF2}
    .fil75 {fill:#B5B5FD}
    .fil76 {fill:#B8B8FD}
    .fil77 {fill:#BBBBFD}
    .fil78 {fill:#BEBEFD}
    .fil3 {fill:#C1FFF5}
    .fil79 {fill:#C2C2FD}
    .fil80 {fill:#C5C5FD}
    .fil81 {fill:#C8C8FD}
    .fil82 {fill:#CBCBFD}
    .fil100 {fill:#CCCCFF}
    .fil83 {fill:#CFCFFE}
    .fil2 {fill:#D1FFF7}
    .fil84 {fill:#D2D2FE}
    .fil85 {fill:#D5D5FE}
    .fil86 {fill:#D8D8FE}
    .fil87 {fill:#DCDCFE}
    .fil88 {fill:#DFDFFE}
    .fil1 {fill:#E0FFFA}
    .fil89 {fill:#E2E2FE}
    .fil90 {fill:#E5E5FE}
    .fil91 {fill:#E8E8FE}
    .fil92 {fill:#ECECFE}
    .fil93 {fill:#EFEFFF}
    .fil0 {fill:#F0FFFC}
    .fil94 {fill:#F2F2FF}
    .fil95 {fill:#F5F5FF}
    .fil96 {fill:#F9F9FF}
    .fil97 {fill:#FCFCFF}
    .fil98 {fill:white}
    .fil101 {fill:white}
   ]]>
  </style>
    <clipPath id="id0">
     <path d="M250 17c128.68,0 233,104.32 233,233 0,128.68 -104.32,233 -233,233 -128.68,0 -233,-104.32 -233,-233 0,-128.68 104.32,-233 233,-233z"/>
    </clipPath>
 </defs>
 <g id="Слой_x0020_1">
  <metadata id="CorelCorpID_0Corel-Layer"/>
  <g>
   <g style="clip-path:url(#id0)">
    <polygon class="fil0" points="263.98,263.98 -89.08,253.61 -88.2,236.99 "/>
    <polygon id="1" class="fil1" points="263.98,263.98 -88.35,239.76 -87.18,225.94 "/>
    <polygon id="2" class="fil2" points="263.98,263.98 -87.41,228.71 -85.81,214.93 "/>
    <polygon id="3" class="fil3" points="263.98,263.98 -86.13,217.69 -84.1,203.97 "/>
    <polygon id="4" class="fil4" points="263.98,263.98 -84.5,206.71 -82.04,193.07 "/>
    <polygon id="5" class="fil5" points="263.98,263.98 -82.53,195.8 -79.64,182.23 "/>
    <polygon id="6" class="fil6" points="263.98,263.98 -80.22,184.94 -76.91,171.48 "/>
    <polygon id="7" class="fil7" points="263.98,263.98 -77.57,174.17 -73.83,160.82 "/>
    <polygon id="8" class="fil8" points="263.98,263.98 -74.58,163.49 -70.42,150.26 "/>
    <polygon id="9" class="fil9" points="263.98,263.98 -71.26,152.9 -66.69,139.81 "/>
    <polygon id="10" class="fil10" points="263.98,263.98 -67.6,142.43 -62.62,129.48 "/>
    <polygon id="11" class="fil11" points="263.98,263.98 -63.62,132.07 -58.24,119.29 "/>
    <polygon id="12" class="fil12" points="263.98,263.98 -59.32,121.85 -53.53,109.24 "/>
    <polygon id="13" class="fil13" points="263.98,263.98 -54.69,111.76 -48.52,99.34 "/>
    <polygon id="14" class="fil14" points="263.98,263.98 -49.75,101.83 -43.19,89.61 "/>
    <polygon id="15" class="fil15" points="263.98,263.98 -44.5,92.05 -37.56,80.05 "/>
    <polygon id="16" class="fil16" points="263.98,263.98 -38.95,82.45 -31.64,70.67 "/>
    <polygon id="17" class="fil17" points="263.98,263.98 -33.1,73.02 -25.42,61.48 "/>
    <polygon id="18" class="fil18" points="263.98,263.98 -26.96,63.79 -18.92,52.49 "/>
    <polygon id="19" class="fil19" points="263.98,263.98 -20.52,54.75 -12.13,43.7 "/>
    <polygon id="20" class="fil20" points="263.98,263.98 -13.81,45.91 -5.08,35.14 "/>
    <polygon id="21" class="fil21" points="263.98,263.98 -6.82,37.3 2.24,26.8 "/>
    <polygon id="22" class="fil22" points="263.98,263.98 0.43,28.9 9.82,18.7 "/>
    <polygon id="23" class="fil23" points="263.98,263.98 7.94,20.74 17.65,10.84 "/>
    <polygon id="24" class="fil24" points="263.98,263.98 15.71,12.82 25.73,3.22 "/>
    <polygon id="25" class="fil25" points="263.98,263.98 23.72,5.14 34.03,-4.13 "/>
    <polygon id="26" class="fil26" points="263.98,263.98 31.97,-2.28 42.57,-11.22 "/>
    <polygon id="27" class="fil27" points="263.98,263.98 40.45,-9.43 51.32,-18.04 "/>
    <polygon id="28" class="fil28" points="263.98,263.98 49.15,-16.32 60.29,-24.58 "/>
    <polygon id="29" class="fil29" points="263.98,263.98 58.06,-22.93 69.45,-30.84 "/>
    <polygon id="30" class="fil30" points="263.98,263.98 67.17,-29.26 78.81,-36.8 "/>
    <polygon id="31" class="fil31" points="263.98,263.98 76.48,-35.29 88.35,-42.47 "/>
    <polygon id="32" class="fil32" points="263.98,263.98 85.97,-41.04 98.06,-47.84 "/>
    <polygon id="33" class="fil33" points="263.98,263.98 95.64,-46.48 107.93,-52.89 "/>
    <polygon id="34" class="fil34" points="263.98,263.98 105.48,-51.61 117.97,-57.64 "/>
    <polygon id="35" class="fil35" points="263.98,263.98 115.47,-56.43 128.14,-62.07 "/>
    <polygon id="36" class="fil36" points="263.98,263.98 125.6,-60.94 138.45,-66.17 "/>
    <polygon id="37" class="fil37" points="263.98,263.98 135.88,-65.13 148.88,-69.95 "/>
    <polygon id="38" class="fil38" points="263.98,263.98 146.28,-68.99 159.43,-73.4 "/>
    <polygon id="39" class="fil39" points="263.98,263.98 156.8,-72.52 170.07,-76.52 "/>
    <polygon id="40" class="fil40" points="263.98,263.98 167.42,-75.72 180.82,-79.3 "/>
    <polygon id="41" class="fil41" points="263.98,263.98 178.14,-78.59 191.64,-81.75 "/>
    <polygon id="42" class="fil42" points="263.98,263.98 188.94,-81.11 202.54,-83.85 "/>
    <polygon id="43" class="fil43" points="263.98,263.98 199.82,-83.3 213.49,-85.61 "/>
    <polygon id="44" class="fil44" points="263.98,263.98 210.76,-85.14 224.5,-87.02 "/>
    <polygon id="45" class="fil45" points="263.98,263.98 221.75,-86.64 235.54,-88.09 "/>
    <polygon id="46" class="fil46" points="263.98,263.98 232.78,-87.8 246.61,-88.81 "/>
    <polygon id="47" class="fil47" points="263.98,263.98 243.85,-88.6 257.7,-89.18 "/>
    <polygon id="48" class="fil48" points="263.98,263.98 254.93,-89.06 268.8,-89.2 "/>
    <polygon id="49" class="fil49" points="263.98,263.98 266.03,-89.17 279.89,-88.87 "/>
    <polygon id="50" class="fil50" points="263.98,263.98 277.12,-88.93 290.97,-88.2 "/>
    <polygon id="51" class="fil51" points="263.98,263.98 288.2,-88.35 302.02,-87.18 "/>
    <polygon id="52" class="fil52" points="263.98,263.98 299.25,-87.41 313.03,-85.81 "/>
    <polygon id="53" class="fil53" points="263.98,263.98 310.27,-86.13 323.99,-84.1 "/>
    <polygon id="54" class="fil54" points="263.98,263.98 321.25,-84.5 334.89,-82.04 "/>
    <polygon id="55" class="fil55" points="263.98,263.98 332.16,-82.53 345.73,-79.64 "/>
    <polygon id="56" class="fil56" points="263.98,263.98 343.01,-80.22 356.48,-76.91 "/>
    <polygon id="57" class="fil57" points="263.98,263.98 353.79,-77.57 367.14,-73.83 "/>
    <polygon id="58" class="fil58" points="263.98,263.98 364.47,-74.58 377.7,-70.42 "/>
    <polygon id="59" class="fil59" points="263.98,263.98 375.06,-71.26 388.15,-66.69 "/>
    <polygon id="60" class="fil60" points="263.98,263.98 385.53,-67.6 398.48,-62.62 "/>
    <polygon id="61" class="fil61" points="263.98,263.98 395.89,-63.62 408.67,-58.24 "/>
    <polygon id="62" class="fil62" points="263.98,263.98 406.11,-59.32 418.72,-53.53 "/>
    <polygon id="63" class="fil63" points="263.98,263.98 416.2,-54.69 428.62,-48.52 "/>
    <polygon id="64" class="fil64" points="263.98,263.98 426.13,-49.75 438.35,-43.19 "/>
    <polygon id="65" class="fil65" points="263.98,263.98 435.91,-44.5 447.91,-37.56 "/>
    <polygon id="66" class="fil66" points="263.98,263.98 445.51,-38.95 457.29,-31.64 "/>
    <polygon id="67" class="fil67" points="263.98,263.98 454.94,-33.1 466.48,-25.42 "/>
    <polygon id="68" class="fil68" points="263.98,263.98 464.17,-26.96 475.47,-18.92 "/>
    <polygon id="69" class="fil69" points="263.98,263.98 473.21,-20.52 484.26,-12.13 "/>
    <polygon id="70" class="fil70" points="263.98,263.98 482.05,-13.81 492.82,-5.08 "/>
    <polygon id="71" class="fil71" points="263.98,263.98 490.66,-6.82 501.16,2.24 "/>
    <polygon id="72" class="fil72" points="263.98,263.98 499.06,0.43 509.26,9.82 "/>
    <polygon id="73" class="fil73" points="263.98,263.98 507.22,7.94 517.12,17.65 "/>
    <polygon id="74" class="fil74" points="263.98,263.98 515.14,15.71 524.74,25.73 "/>
    <polygon id="75" class="fil75" points="263.98,263.98 522.82,23.72 532.09,34.03 "/>
    <polygon id="76" class="fil76" points="263.98,263.98 530.24,31.97 539.18,42.57 "/>
    <polygon id="77" class="fil77" points="263.98,263.98 537.39,40.45 546,51.32 "/>
    <polygon id="78" class="fil78" points="263.98,263.98 544.28,49.15 552.54,60.29 "/>
    <polygon id="79" class="fil79" points="263.98,263.98 550.89,58.06 558.8,69.45 "/>
    <polygon id="80" class="fil80" points="263.98,263.98 557.22,67.17 564.76,78.81 "/>
    <polygon id="81" class="fil81" points="263.98,263.98 563.25,76.48 570.43,88.35 "/>
    <polygon id="82" class="fil82" points="263.98,263.98 569,85.97 575.8,98.06 "/>
    <polygon id="83" class="fil83" points="263.98,263.98 574.44,95.64 580.85,107.93 "/>
    <polygon id="84" class="fil84" points="263.98,263.98 579.57,105.48 585.6,117.97 "/>
    <polygon id="85" class="fil85" points="263.98,263.98 584.39,115.47 590.03,128.14 "/>
    <polygon id="86" class="fil86" points="263.98,263.98 588.9,125.6 594.13,138.45 "/>
    <polygon id="87" class="fil87" points="263.98,263.98 593.09,135.88 597.91,148.88 "/>
    <polygon id="88" class="fil88" points="263.98,263.98 596.95,146.28 601.36,159.43 "/>
    <polygon id="89" class="fil89" points="263.98,263.98 600.48,156.8 604.48,170.07 "/>
    <polygon id="90" class="fil90" points="263.98,263.98 603.68,167.42 607.26,180.82 "/>
    <polygon id="91" class="fil91" points="263.98,263.98 606.55,178.14 609.71,191.64 "/>
    <polygon id="92" class="fil92" points="263.98,263.98 609.07,188.94 611.81,202.54 "/>
    <polygon id="93" class="fil93" points="263.98,263.98 611.26,199.82 613.57,213.49 "/>
    <polygon id="94" class="fil94" points="263.98,263.98 613.11,210.76 614.98,224.5 "/>
    <polygon id="95" class="fil95" points="263.98,263.98 614.61,221.75 616.05,235.54 "/>
    <polygon id="96" class="fil96" points="263.98,263.98 615.76,232.78 616.77,246.61 "/>
    <polygon id="97" class="fil97" points="263.98,263.98 616.56,243.85 617.14,257.7 "/>
    <polygon id="98" class="fil98" points="263.98,263.98 617.02,254.93 617.16,268.8 "/>
    <polygon id="99" class="fil98" points="263.98,263.98 617.13,266.03 616.84,279.89 "/>
    <polygon id="100" class="fil0" points="263.98,263.98 616.89,277.12 616.16,290.97 "/>
    <polygon id="101" class="fil1" points="263.98,263.98 616.31,288.2 615.14,302.02 "/>
    <polygon id="102" class="fil2" points="263.98,263.98 615.37,299.25 613.77,313.03 "/>
    <polygon id="103" class="fil3" points="263.98,263.98 614.09,310.27 612.06,323.99 "/>
    <polygon id="104" class="fil4" points="263.98,263.98 612.46,321.25 610,334.89 "/>
    <polygon id="105" class="fil5" points="263.98,263.98 610.49,332.16 607.6,345.73 "/>
    <polygon id="106" class="fil6" points="263.98,263.98 608.18,343.01 604.87,356.48 "/>
    <polygon id="107" class="fil7" points="263.98,263.98 605.53,353.79 601.79,367.14 "/>
    <polygon id="108" class="fil8" points="263.98,263.98 602.54,364.47 598.38,377.7 "/>
    <polygon id="109" class="fil9" points="263.98,263.98 599.22,375.06 594.65,388.15 "/>
    <polygon id="110" class="fil10" points="263.98,263.98 595.56,385.53 590.58,398.48 "/>
    <polygon id="111" class="fil11" points="263.98,263.98 591.58,395.89 586.2,408.67 "/>
    <polygon id="112" class="fil12" points="263.98,263.98 587.28,406.11 581.5,418.72 "/>
    <polygon id="113" class="fil13" points="263.98,263.98 582.65,416.2 576.48,428.62 "/>
    <polygon id="114" class="fil14" points="263.98,263.98 577.71,426.13 571.15,438.35 "/>
    <polygon id="115" class="fil15" points="263.98,263.98 572.46,435.91 565.52,447.91 "/>
    <polygon id="116" class="fil16" points="263.98,263.98 566.91,445.51 559.6,457.29 "/>
    <polygon id="117" class="fil17" points="263.98,263.98 561.06,454.94 553.38,466.48 "/>
    <polygon id="118" class="fil18" points="263.98,263.98 554.92,464.17 546.88,475.47 "/>
    <polygon id="119" class="fil19" points="263.98,263.98 548.48,473.21 540.09,484.26 "/>
    <polygon id="120" class="fil20" points="263.98,263.98 541.77,482.05 533.04,492.82 "/>
    <polygon id="121" class="fil21" points="263.98,263.98 534.78,490.66 525.72,501.16 "/>
    <polygon id="122" class="fil22" points="263.98,263.98 527.53,499.06 518.14,509.26 "/>
    <polygon id="123" class="fil23" points="263.98,263.98 520.02,507.22 510.31,517.12 "/>
    <polygon id="124" class="fil24" points="263.98,263.98 512.25,515.14 502.23,524.74 "/>
    <polygon id="125" class="fil25" points="263.98,263.98 504.24,522.82 493.93,532.09 "/>
    <polygon id="126" class="fil26" points="263.98,263.98 495.99,530.24 485.39,539.18 "/>
    <polygon id="127" class="fil27" points="263.98,263.98 487.51,537.39 476.64,546 "/>
    <polygon id="128" class="fil28" points="263.98,263.98 478.81,544.28 467.67,552.54 "/>
    <polygon id="129" class="fil29" points="263.98,263.98 469.9,550.89 458.51,558.8 "/>
    <polygon id="130" class="fil30" points="263.98,263.98 460.79,557.22 449.15,564.76 "/>
    <polygon id="131" class="fil31" points="263.98,263.98 451.48,563.25 439.61,570.43 "/>
    <polygon id="132" class="fil32" points="263.98,263.98 441.99,569 429.9,575.8 "/>
    <polygon id="133" class="fil33" points="263.98,263.98 432.32,574.44 420.02,580.85 "/>
    <polygon id="134" class="fil34" points="263.98,263.98 422.49,579.57 409.99,585.6 "/>
    <polygon id="135" class="fil35" points="263.98,263.98 412.49,584.39 399.82,590.03 "/>
    <polygon id="136" class="fil36" points="263.98,263.98 402.36,588.9 389.51,594.13 "/>
    <polygon id="137" class="fil37" points="263.98,263.98 392.08,593.09 379.08,597.91 "/>
    <polygon id="138" class="fil38" points="263.98,263.98 381.68,596.95 368.53,601.36 "/>
    <polygon id="139" class="fil39" points="263.98,263.98 371.16,600.48 357.88,604.48 "/>
    <polygon id="140" class="fil40" points="263.98,263.98 360.54,603.68 347.14,607.26 "/>
    <polygon id="141" class="fil41" points="263.98,263.98 349.82,606.55 336.32,609.71 "/>
    <polygon id="142" class="fil42" points="263.98,263.98 339.02,609.07 325.42,611.81 "/>
    <polygon id="143" class="fil43" points="263.98,263.98 328.14,611.26 314.47,613.57 "/>
    <polygon id="144" class="fil44" points="263.98,263.98 317.2,613.11 303.46,614.98 "/>
    <polygon id="145" class="fil45" points="263.98,263.98 306.21,614.61 292.42,616.05 "/>
    <polygon id="146" class="fil46" points="263.98,263.98 295.18,615.76 281.35,616.77 "/>
    <polygon id="147" class="fil47" points="263.98,263.98 284.11,616.56 270.26,617.14 "/>
    <polygon id="148" class="fil48" points="263.98,263.98 273.03,617.02 259.16,617.16 "/>
    <polygon id="149" class="fil49" points="263.98,263.98 261.93,617.13 248.07,616.84 "/>
    <polygon id="150" class="fil50" points="263.98,263.98 250.84,616.89 236.99,616.16 "/>
    <polygon id="151" class="fil51" points="263.98,263.98 239.76,616.31 225.94,615.14 "/>
    <polygon id="152" class="fil52" points="263.98,263.98 228.71,615.37 214.93,613.77 "/>
    <polygon id="153" class="fil53" points="263.98,263.98 217.69,614.09 203.97,612.06 "/>
    <polygon id="154" class="fil54" points="263.98,263.98 206.71,612.46 193.07,610 "/>
    <polygon id="155" class="fil55" points="263.98,263.98 195.8,610.49 182.23,607.6 "/>
    <polygon id="156" class="fil56" points="263.98,263.98 184.94,608.18 171.48,604.87 "/>
    <polygon id="157" class="fil57" points="263.98,263.98 174.17,605.53 160.82,601.79 "/>
    <polygon id="158" class="fil58" points="263.98,263.98 163.49,602.54 150.26,598.38 "/>
    <polygon id="159" class="fil59" points="263.98,263.98 152.9,599.22 139.81,594.65 "/>
    <polygon id="160" class="fil60" points="263.98,263.98 142.43,595.56 129.48,590.58 "/>
    <polygon id="161" class="fil61" points="263.98,263.98 132.07,591.58 119.29,586.2 "/>
    <polygon id="162" class="fil62" points="263.98,263.98 121.85,587.28 109.24,581.5 "/>
    <polygon id="163" class="fil63" points="263.98,263.98 111.76,582.65 99.34,576.48 "/>
    <polygon id="164" class="fil64" points="263.98,263.98 101.83,577.71 89.61,571.15 "/>
    <polygon id="165" class="fil65" points="263.98,263.98 92.05,572.46 80.05,565.52 "/>
    <polygon id="166" class="fil66" points="263.98,263.98 82.45,566.91 70.67,559.6 "/>
    <polygon id="167" class="fil67" points="263.98,263.98 73.02,561.06 61.48,553.38 "/>
    <polygon id="168" class="fil68" points="263.98,263.98 63.79,554.92 52.49,546.88 "/>
    <polygon id="169" class="fil69" points="263.98,263.98 54.75,548.48 43.7,540.09 "/>
    <polygon id="170" class="fil70" points="263.98,263.98 45.91,541.77 35.14,533.04 "/>
    <polygon id="171" class="fil71" points="263.98,263.98 37.3,534.78 26.8,525.72 "/>
    <polygon id="172" class="fil72" points="263.98,263.98 28.9,527.53 18.7,518.14 "/>
    <polygon id="173" class="fil73" points="263.98,263.98 20.74,520.02 10.84,510.31 "/>
    <polygon id="174" class="fil74" points="263.98,263.98 12.82,512.25 3.22,502.23 "/>
    <polygon id="175" class="fil75" points="263.98,263.98 5.14,504.24 -4.13,493.93 "/>
    <polygon id="176" class="fil76" points="263.98,263.98 -2.28,495.99 -11.22,485.39 "/>
    <polygon id="177" class="fil77" points="263.98,263.98 -9.43,487.51 -18.04,476.64 "/>
    <polygon id="178" class="fil78" points="263.98,263.98 -16.32,478.81 -24.58,467.67 "/>
    <polygon id="179" class="fil79" points="263.98,263.98 -22.93,469.9 -30.84,458.51 "/>
    <polygon id="180" class="fil80" points="263.98,263.98 -29.26,460.79 -36.8,449.15 "/>
    <polygon id="181" class="fil81" points="263.98,263.98 -35.29,451.48 -42.47,439.61 "/>
    <polygon id="182" class="fil82" points="263.98,263.98 -41.04,441.99 -47.84,429.9 "/>
    <polygon id="183" class="fil83" points="263.98,263.98 -46.48,432.32 -52.89,420.02 "/>
    <polygon id="184" class="fil84" points="263.98,263.98 -51.61,422.49 -57.64,409.99 "/>
    <polygon id="185" class="fil85" points="263.98,263.98 -56.43,412.49 -62.07,399.82 "/>
    <polygon id="186" class="fil86" points="263.98,263.98 -60.94,402.36 -66.17,389.51 "/>
    <polygon id="187" class="fil87" points="263.98,263.98 -65.13,392.08 -69.95,379.08 "/>
    <polygon id="188" class="fil88" points="263.98,263.98 -68.99,381.68 -73.4,368.53 "/>
    <polygon id="189" class="fil89" points="263.98,263.98 -72.52,371.16 -76.52,357.88 "/>
    <polygon id="190" class="fil90" points="263.98,263.98 -75.72,360.54 -79.3,347.14 "/>
    <polygon id="191" class="fil91" points="263.98,263.98 -78.59,349.82 -81.75,336.32 "/>
    <polygon id="192" class="fil92" points="263.98,263.98 -81.11,339.02 -83.85,325.42 "/>
    <polygon id="193" class="fil93" points="263.98,263.98 -83.3,328.14 -85.61,314.47 "/>
    <polygon id="194" class="fil94" points="263.98,263.98 -85.14,317.2 -87.02,303.46 "/>
    <polygon id="195" class="fil95" points="263.98,263.98 -86.64,306.21 -88.09,292.42 "/>
    <polygon id="196" class="fil96" points="263.98,263.98 -87.8,295.18 -88.81,281.35 "/>
    <polygon id="197" class="fil97" points="263.98,263.98 -88.6,284.11 -89.18,270.26 "/>
    <polygon id="198" class="fil98" points="263.98,263.98 -89.06,273.03 -89.2,259.16 "/>
    <polygon id="199" class="fil98" points="263.98,263.98 -89.17,261.93 -88.93,250.84 "/>
   </g>
   <path id="200" class="fil99 str0" d="M250 17c128.68,0 233,104.32 233,233 0,128.68 -104.32,233 -233,233 -128.68,0 -233,-104.32 -233,-233 0,-128.68 104.32,-233 233,-233z"/>
  </g>
  <circle class="fil100 str1" cx="250" cy="250" r="134"/>
  <circle class="fil101 str2" cx="250" cy="250" r="78.5"/>
  <path class="fil102" d="M250 152.5c53.85,0 97.5,43.65 97.5,97.5 0,53.85 -43.65,97.5 -97.5,97.5 -53.85,0 -97.5,-43.65 -97.5,-97.5 0,-53.85 43.65,-97.5 97.5,-97.5zm0 7.5c49.71,0 90,40.29 90,90 0,49.71 -40.29,90 -90,90 -49.71,0 -90,-40.29 -90,-90 0,-49.71 40.29,-90 90,-90z"/>
  <path class="fil103" d="M250 160c49.71,0 90,40.29 90,90 0,49.71 -40.29,90 -90,90 -49.71,0 -90,-40.29 -90,-90 0,-49.71 40.29,-90 90,-90zm0 18c39.77,0 72,32.23 72,72 0,39.77 -32.23,72 -72,72 -39.77,0 -72,-32.23 -72,-72 0,-39.77 32.23,-72 72,-72z"/>
  <circle class="fil103" cx="250" cy="250" r="4.75"/>
  <path class="fil101 str3" d="M189.25 300.16c-11.18,-13.64 -17.89,-31.1 -17.89,-50.13 0,-26.26 12.77,-49.53 32.43,-63.89l-2.98 -4.16c-20.95,15.29 -34.56,40.08 -34.56,68.05 0,20.22 7.11,38.78 18.97,53.29l4.03 -3.16zm75.61 -127.75c36.46,6.92 64.03,39.04 64.03,77.62 0,26.62 -13.12,50.17 -33.24,64.48l2.98 4.16c21.4,-15.24 35.37,-40.3 35.37,-68.64 0,-41.1 -29.4,-75.32 -68.25,-82.67l-0.89 5.05z"/>
 </g>
</svg>
